<?xml version="1.0" encoding="utf-8"?>
<!-- Generator: Adobe Illustrator 26.1.0, SVG Export Plug-In . SVG Version: 6.00 Build 0)  -->
<svg version="1.1" id="レイヤー_1" xmlns="http://www.w3.org/2000/svg" xmlns:xlink="http://www.w3.org/1999/xlink" x="0px"
	 y="0px" viewBox="0 0 265 245" style="enable-background:new 0 0 265 245;" xml:space="preserve">
<style type="text/css">
	.st0{fill:#F2E7DA;}
</style>
<path class="st0" d="M264.5,240.4c-0.2-3.2-0.7-6.3-1.7-9.4c-0.4-2-1-4-1.8-5.9c-1-2-2.2-4-3.4-5.8c-1.8-2.9-3.9-5.6-6.4-8
	c-1.7-1.6-4.4-2.3-5.3-4.9c-3.1-1.4-5.6-3.9-8.9-4.9c-1.1-0.2-2.1-0.7-3-1.5c-0.4-0.3-1-0.8-1.4-0.8c-3.2,0.2-6.1-1.9-9.5-1.4
	c-1.5,0.2-1.5,0-2.1-1.9c-3-9.1-2.9-10.5-8.8-18.1c-0.8-2.3-2.7-3.4-4.3-5.2c-1.6-1.8-3.8-3.2-5.3-4.9c-1.6-1.7-4.4-2.2-6.2-3.9
	c-2.5-0.2-4.5-1.8-6.8-2.6c-2.3-0.8-4.9-0.7-7-2c-0.3-0.1-0.5-0.2-0.8-0.2c-0.3,0-0.6,0.1-0.8,0.2c-0.6,0.5-1.3,0.7-2.1,0.7
	c-0.8,0-1.5-0.3-2.1-0.7h-0.1c0-0.2,0-0.3,0-0.5c-0.2-3.2-0.7-6.3-1.7-9.4c-0.4-2-1-4-1.8-5.9c-1-2-2.2-4-3.4-5.8
	c-1.8-2.9-3.9-5.6-6.4-8c-1.7-1.6-4.4-2.3-5.3-4.9c-3.1-1.4-5.6-3.9-8.9-4.9c-1.1-0.2-2.1-0.7-3-1.5c-0.4-0.3-1-0.8-1.5-0.8
	c-3.2,0.2-6.1-1.9-9.5-1.4c-1.5,0.2-1.5,0-2.1-1.9c-3-9.1-2.9-10.5-8.8-18.1c-0.8-2.3-2.7-3.4-4.3-5.2c-1.6-1.8-3.8-3.2-5.3-4.9
	c-1.6-1.7-4.3-2.2-6.2-3.9c-2.5-0.2-4.5-1.8-6.8-2.6c-2.3-0.8-4.9-0.7-7-2c-0.2-0.1-0.5-0.2-0.8-0.2c0.1-0.2,0.2-0.6,0.4-1
	c0.7-2.1,1.2-4.4,1.9-6.5c1-3.1,3.1-5.6,4.8-8.3c1.3-2.1,2.9-4,4.7-5.6c3.4-2.7,7.1-4.9,10.7-7.4c0.3-0.2,0.7-0.4,1.1-0.4
	c2.7,0.3,5.1-1.3,7.8-1.3c4.2,0.1,8.4,0.3,12.6,0c3-0.2,5.4,1.5,8.3,1.4c0.9,0,1.8,1.7,2.7,1.8c2.4,0.2,3.4,2.4,5.2,3.2
	c2,1,3.8,2.4,5.3,4.2c1.8,2.2,3.4,4.5,4.9,6.9c0.7,1.1,1.9,1.8,2.2,3.3c0.6,3.5,3,6.5,2.5,10.3c0.1,0.5,0.3,0.9,0.6,1.3
	c0.3,0.4,0.7,0.6,1.2,0.7c2.1,0,4.2,0.1,6.3,0c0.6,0,0.9-0.5,1-1.1c0.2-1.1,0.6-2.2,1.1-3.2c1.1-1.8,0.7-4.1,1.7-5.9
	c1.2-2.5,2.6-5,4.2-7.4c2.7-3.6,5.3-7.3,9.5-9.6c2.2-1.1,4.1-2.6,6.2-3.9c0.4-0.3,1-0.7,1.5-0.7c3.1,0.2,5.8-1.6,9-1.4
	c1.3-0.1,2.6-0.4,3.8-0.8c3.1,1.6,6.4,0.7,9.5,0.9c2.3,0.1,4.2,1.8,6.6,1.3c0.4-0.1,1,0.5,1.4,1c0.9,1.2,2.5,0.9,3.5,1.6
	c1.2,0.9,2.2,2.3,3.5,2.8c2.3,0.9,3.6,2.8,5.1,4.4c1.5,1.5,2.7,3.1,3.7,5c0.8,1.6,2.4,2.6,2.8,4.2c0.5,2.4,1.6,4.6,2.4,6.9
	c0.5,1.6-0.2,3.6,0.4,5.1c0.6,1.6,1,3.3,0.9,4.9c0,1.3,0.3,1.6,1.7,1.6c0.4,0,0.7,0,0.9,0c6.3,0.1,5.4,0.2,5.2-4.6
	c-0.2-3.2-0.7-6.3-1.7-9.4c-0.4-2-1-4-1.8-5.9c-1-2-2.2-4-3.4-5.8c-1.8-2.9-3.9-5.6-6.4-8c-1.7-1.6-4.4-2.3-5.3-4.9
	c-3.1-1.4-5.6-3.9-8.9-4.9c-1.1-0.2-2.1-0.7-3-1.5c-0.4-0.3-1-0.8-1.5-0.8c-3.2,0.2-6.1-1.9-9.5-1.4c-1.5,0.2-1.5,0-2.1-1.9
	c-3-9.1-2.9-10.5-8.8-18.1c-0.8-2.3-2.7-3.4-4.3-5.2s-3.8-3.2-5.3-4.9c-1.6-1.7-4.3-2.2-6.2-3.9c-2.5-0.2-4.5-1.8-6.8-2.6
	c-2.3-0.8-4.9-0.7-7-2C180.3,0,180,0,179.7,0c-0.3,0-0.6,0.1-0.8,0.2c-0.6,0.5-1.3,0.7-2.1,0.7c-0.8,0-1.5-0.3-2.1-0.7h-7.4
	c-1.7,1.2-3.7,0.6-5.5,1.2c-1.9,0.8-3.8,1.6-5.6,2.6c-0.6,0.3-1.4,0.4-2.1,0.7c-3,1.2-6.1,2.4-8.5,4.5c-3.8,3.4-7.8,6.7-10.3,11.3
	c-0.7,1.5-1.5,3-2.4,4.4c-2.5,3.3-3.2,7.2-4,11c-0.5,2.3-1,2.9-3.3,3.2c-3.7,0.5-7.3,1.6-10.7,3.2c-1.2,0.6-2.4,1-3.7,1.4
	c-1.6,0.6-3.1,1.3-4.6,2.2c-3.4,2-5.8,4.9-8.6,7.4c-2.3,2.3-4.2,4.9-5.7,7.7c-2.5,3.8-4.2,8.1-4.8,12.6c-0.1,1.3-1.5,2.6-0.8,3.8
	c0.1,0.1,0.2,0.2,0.2,0.3h-5.4c-1.7,1.2-3.7,0.6-5.5,1.2c-1.9,0.8-3.8,1.6-5.6,2.6c-0.6,0.3-1.4,0.4-2.1,0.7c-3,1.2-6.1,2.4-8.5,4.5
	c-3.8,3.4-7.8,6.7-10.3,11.3c-0.7,1.5-1.5,3-2.4,4.4c-2.5,3.3-3.2,7.2-4,11c-0.5,2.3-1,2.9-3.3,3.2c-3.7,0.5-7.3,1.6-10.7,3.2
	c-1.2,0.6-2.4,1-3.7,1.5c-1.6,0.6-3.1,1.3-4.6,2.2c-3.4,2-5.8,4.9-8.6,7.4c-2.3,2.3-4.2,4.9-5.7,7.7c-2.5,3.8-4.2,8.1-4.8,12.6
	c-0.1,1.3-1.5,2.6-0.8,3.8c0.9,1.5,2.8,0.5,4.2,0.9c0.4,0,0.8,0,1.1,0c1.6,0,1.9-0.1,2.4-1.7c0.7-2.1,1.2-4.4,1.9-6.5
	c1-3.1,3.1-5.6,4.8-8.3c1.3-2.1,2.9-4,4.7-5.6c3.4-2.7,7.1-4.9,10.7-7.4c0.3-0.2,0.7-0.4,1.1-0.4c2.7,0.3,5.1-1.3,7.8-1.3
	c4.2,0.1,8.4,0.3,12.6,0c3-0.2,5.4,1.5,8.3,1.4c0.9,0,1.8,1.7,2.7,1.8c2.4,0.2,3.4,2.4,5.2,3.2c2,1,3.8,2.4,5.3,4.2
	c1.8,2.2,3.4,4.5,4.9,6.9c0.7,1.1,1.9,1.8,2.2,3.3c0.6,3.5,3,6.5,2.5,10.3c0.1,0.5,0.3,0.9,0.6,1.3c0.3,0.4,0.7,0.6,1.2,0.7
	c2.1,0,4.2,0.1,6.3,0c0.6,0,0.9-0.5,1.1-1.1c0.2-1.1,0.6-2.2,1.1-3.2c1.1-1.8,0.7-4.1,1.7-5.9c1.2-2.5,2.6-5,4.2-7.4
	c2.7-3.6,5.3-7.3,9.5-9.6c2.2-1.1,4.1-2.6,6.2-4c0.4-0.3,1-0.7,1.5-0.7c3.1,0.2,5.8-1.6,9-1.4c1.3-0.1,2.6-0.4,3.8-0.8
	c3.1,1.6,6.4,0.7,9.5,0.9c2.3,0.1,4.2,1.8,6.6,1.3c0.4-0.1,1,0.5,1.4,1c0.9,1.2,2.5,0.9,3.5,1.7c1.2,0.9,2.2,2.3,3.5,2.8
	c2.3,0.9,3.6,2.8,5.1,4.4c1.5,1.5,2.7,3.1,3.7,5c0.8,1.6,2.4,2.6,2.8,4.2c0.5,2.4,1.6,4.6,2.4,6.9c0.5,1.6-0.2,3.6,0.4,5.1
	c0.4,0.9,0.6,1.9,0.8,2.8c-1.5,0.7-3.3,0.4-4.9,0.9c-1.9,0.8-3.8,1.6-5.6,2.6c-0.6,0.3-1.4,0.4-2.1,0.7c-3,1.2-6.1,2.4-8.5,4.5
	c-3.8,3.4-7.8,6.7-10.3,11.3c-0.7,1.5-1.5,3-2.4,4.4c-2.5,3.3-3.2,7.2-4,11c-0.5,2.3-1,2.9-3.3,3.2c-3.7,0.5-7.3,1.6-10.7,3.2
	c-1.2,0.6-2.4,1-3.7,1.5c-1.6,0.6-3.1,1.3-4.6,2.2c-3.4,2-5.8,4.9-8.6,7.4c-2.3,2.3-4.2,4.9-5.7,7.7c-2.5,3.8-4.2,8.1-4.8,12.6
	c-0.1,1.3-1.5,2.6-0.8,3.8c0.9,1.5,2.8,0.5,4.2,0.9c0.4,0,0.8,0,1.1,0c1.6,0,1.9-0.1,2.4-1.7c0.7-2.1,1.2-4.4,1.9-6.5
	c1-3.1,3.1-5.6,4.8-8.3c1.3-2.1,2.9-4,4.7-5.6c3.4-2.7,7.1-4.9,10.7-7.4c0.3-0.2,0.7-0.4,1.1-0.4c2.7,0.3,5.1-1.3,7.8-1.3
	c4.2,0.1,8.4,0.3,12.6,0c3-0.2,5.4,1.5,8.3,1.4c0.9,0,1.8,1.7,2.7,1.8c2.4,0.2,3.4,2.4,5.2,3.2c2,1,3.8,2.4,5.3,4.2
	c1.8,2.2,3.4,4.5,4.9,6.9c0.7,1.1,1.9,1.8,2.2,3.3c0.6,3.5,3,6.5,2.5,10.3c0.1,0.5,0.3,0.9,0.6,1.3c0.3,0.4,0.7,0.6,1.2,0.7
	c2.1,0,4.2,0.1,6.3,0c0.6,0,0.9-0.5,1-1.1c0.2-1.1,0.6-2.2,1.1-3.2c1.1-1.8,0.7-4.1,1.7-5.9c1.2-2.5,2.6-5,4.2-7.4
	c2.7-3.6,5.3-7.3,9.5-9.6c2.2-1.1,4.1-2.6,6.2-4c0.4-0.3,1-0.7,1.5-0.7c3.1,0.2,5.8-1.6,9-1.4c1.3-0.1,2.6-0.4,3.8-0.8
	c3.1,1.6,6.4,0.7,9.5,0.9c2.3,0.1,4.2,1.8,6.6,1.3c0.4-0.1,1,0.5,1.4,1c0.9,1.2,2.5,0.9,3.5,1.6c1.2,0.9,2.2,2.3,3.5,2.8
	c2.3,0.9,3.6,2.8,5.1,4.4c1.5,1.5,2.7,3.1,3.7,5c0.8,1.6,2.4,2.6,2.8,4.2c0.5,2.4,1.6,4.6,2.4,6.9c0.5,1.6-0.2,3.6,0.4,5.1
	c0.6,1.6,1,3.3,0.9,4.9c0,1.3,0.3,1.7,1.7,1.7c0.4,0,0.7,0,0.9,0C265.7,245.1,264.8,245.2,264.5,240.4z M136.1,36.9
	c0.4-1.2,0.9-2.5,1.2-3.7c1.3-4.4,3.6-8.3,6.8-11.6c0.8-0.8,1.3-1.9,2-2.7c0.9-1.2,2.1-2.2,3.4-3c2.6-1.5,5.1-3.2,7.6-4.8
	c1.8-1.1,3.6-2.2,5.8-1.9c2.2,0.3,4-1.1,6.1-1.1c1.9,0.1,3.8,0.1,5.5-1.1c0.1,0,0.4,0,0.6,0c0.2,0,0.4,0,0.6,0
	c1.4,0.6,2.7,1.4,4.1,1.9c1.1,0.4,2.3-0.8,3.7,0.1c1.2,0.9,2.7,1.4,4.3,1.2c1.4-0.2,2.3,1.2,3.5,1.6c1.1,0.3,2.1,0.9,2.9,1.7
	c2.1,2.2,5.2,3.1,7,5.6c1.1,1.5,2.3,3,3.4,4.5c1.1,1.5,2.7,3,3,4.7c0.7,3.1,2.6,5.5,3.5,8.3c0.1,0.2,0.1,0.5,0.1,0.7
	c0,0.2-0.1,0.5-0.2,0.7c-0.1,0.2-0.3,0.4-0.4,0.5c-0.2,0.1-0.4,0.3-0.6,0.3c-4.1,0.6-8.1,1.8-11.8,3.7c-1.8,0.9-4,1.4-5.7,2.4
	c-2.6,1.6-5.2,3.2-7.1,5.6c-1.8,2.2-4.1,3.7-5.6,6.3c-1.4,2.4-3.3,4.6-4.5,7.1c-0.6,1.2-1.8,1.1-2.5-0.2c-1.1-2.2-2.4-4.3-3.8-6.3
	c-0.8-1.1-1.6-2.1-2.4-3.2c-1.8-2.5-5-3.6-6.7-6c-1.7-2.4-4.7-3-6.9-4.7c-1.9-1.5-4.7-1.3-6.5-3.2c-0.1-0.1-0.3-0.2-0.5-0.2
	c-3.1,0.2-5.7-1.6-8.9-1.4C135.8,38.8,135.6,38.1,136.1,36.9z M125,115.4c-0.1,0.2-0.3,0.4-0.4,0.5c-0.2,0.1-0.4,0.2-0.6,0.3
	c-4.1,0.6-8.1,1.8-11.8,3.7c-1.8,0.9-4,1.4-5.7,2.4c-2.6,1.6-5.2,3.2-7.1,5.6c-1.8,2.2-4.1,3.7-5.6,6.3c-1.4,2.4-3.3,4.6-4.5,7.1
	c-0.6,1.2-1.8,1.1-2.5-0.2c-1.1-2.2-2.4-4.3-3.8-6.3c-0.8-1.1-1.6-2.1-2.4-3.2c-1.8-2.5-5-3.6-6.7-6c-1.7-2.4-4.7-3-6.9-4.7
	c-1.9-1.5-4.7-1.3-6.5-3.2c-0.1-0.1-0.3-0.2-0.5-0.2c-3.1,0.2-5.7-1.7-8.9-1.4c-1.2,0.1-1.3-0.6-0.9-1.9c0.4-1.2,0.9-2.5,1.2-3.7
	c1.3-4.4,3.6-8.3,6.8-11.6c0.8-0.8,1.3-1.9,2-2.7c0.9-1.2,2.1-2.2,3.4-3c2.6-1.5,5.1-3.2,7.6-4.8c1.8-1.1,3.6-2.2,5.8-1.9
	s4-1.1,6.1-1.1c1.9,0.1,3.8,0.1,5.5-1.1c0.1,0,0.4,0,0.6,0c0.2,0,0.4,0,0.6,0c1.4,0.6,2.7,1.4,4.1,1.9c1.1,0.4,2.3-0.8,3.7,0.1
	c1.2,0.9,2.7,1.4,4.3,1.2c1.4-0.2,2.3,1.2,3.6,1.6c1.1,0.3,2.1,0.9,2.9,1.7c2.1,2.2,5.2,3.1,7,5.6c1.1,1.5,2.3,3,3.4,4.5
	c1.1,1.5,2.7,3,3,4.7c0.7,3.1,2.6,5.5,3.5,8.3c0.1,0.2,0.1,0.5,0.1,0.7C125.2,115,125.1,115.2,125,115.4z M213,197.1
	c-0.1,0.2-0.3,0.4-0.4,0.5c-0.2,0.1-0.4,0.3-0.6,0.3c-4.1,0.6-8.1,1.8-11.8,3.7c-1.8,0.9-4,1.4-5.7,2.4c-2.6,1.6-5.2,3.2-7.1,5.6
	c-1.8,2.2-4.1,3.7-5.6,6.3c-1.4,2.4-3.3,4.6-4.5,7.1c-0.6,1.2-1.8,1.1-2.5-0.2c-1.1-2.2-2.4-4.3-3.8-6.3c-0.8-1.1-1.6-2.1-2.4-3.2
	c-1.8-2.5-5-3.6-6.7-6c-1.7-2.4-4.7-3-6.9-4.7c-1.9-1.5-4.7-1.3-6.5-3.2c-0.1-0.1-0.3-0.2-0.5-0.2c-3.1,0.2-5.7-1.7-8.9-1.4
	c-1.2,0.1-1.3-0.6-0.9-1.9c0.4-1.2,0.9-2.5,1.2-3.7c1.3-4.4,3.6-8.3,6.8-11.6c0.8-0.8,1.3-1.9,2-2.7c0.9-1.2,2.1-2.2,3.4-3
	c2.6-1.5,5.1-3.2,7.6-4.8c1.8-1.1,3.6-2.2,5.8-1.9c2.2,0.3,4-1.1,6.1-1.1c1.9,0.1,3.8,0.1,5.5-1c0.1,0,0.4,0,0.6,0
	c0.2,0,0.4,0,0.6,0c1.4,0.6,2.7,1.4,4.1,1.9c1.1,0.4,2.3-0.8,3.7,0.1c1.2,0.9,2.7,1.4,4.3,1.2c1.4-0.2,2.3,1.2,3.6,1.6
	c1.1,0.3,2.1,0.9,2.9,1.7c2.1,2.2,5.2,3.1,7,5.6c1.1,1.5,2.3,3,3.4,4.5c1.1,1.5,2.7,3,3,4.7c0.7,3.1,2.6,5.5,3.5,8.3
	c0.1,0.2,0.1,0.5,0.1,0.7C213.2,196.6,213.2,196.9,213,197.1z"/>
</svg>
