<svg xmlns="http://www.w3.org/2000/svg" xmlns:xlink="http://www.w3.org/1999/xlink" viewBox="0 0 1016 370"><defs><style>.cls-1{fill:url(#名称未設定グラデーション_102);}.cls-2{fill:url(#名称未設定グラデーション_7);}.cls-3{fill:url(#名称未設定グラデーション_102-2);}.cls-4{fill:url(#名称未設定グラデーション_102-3);}.cls-5{fill:url(#名称未設定グラデーション_7-2);}.cls-6{fill:url(#名称未設定グラデーション_100);}</style><linearGradient id="名称未設定グラデーション_102" x1="806.16" y1="159.99" x2="850.24" y2="115.9" gradientUnits="userSpaceOnUse"><stop offset="0" stop-opacity="0"/><stop offset="1" stop-opacity="0.25"/></linearGradient><linearGradient id="名称未設定グラデーション_7" x1="922.61" y1="138.24" x2="941.39" y2="119.46" gradientUnits="userSpaceOnUse"><stop offset="0" stop-opacity="0"/><stop offset="1" stop-opacity="0.3"/></linearGradient><linearGradient id="名称未設定グラデーション_102-2" x1="385.38" y1="146.63" x2="412.06" y2="119.94" xlink:href="#名称未設定グラデーション_102"/><linearGradient id="名称未設定グラデーション_102-3" x1="686.38" y1="147.42" x2="712.95" y2="120.85" xlink:href="#名称未設定グラデーション_102"/><linearGradient id="名称未設定グラデーション_7-2" x1="527.73" y1="56.38" x2="553.74" y2="30.37" xlink:href="#名称未設定グラデーション_7"/><linearGradient id="名称未設定グラデーション_100" x1="490.34" y1="185" x2="490.34" y2="104" gradientUnits="userSpaceOnUse"><stop offset="0.07" stop-opacity="0"/><stop offset="1" stop-opacity="0.25"/></linearGradient></defs><title>blocks13</title><g id="blocks"><polygon class="cls-1" points="791.06 144.89 840.48 117.65 865.34 131 815.34 158 791.06 144.89"/><polygon class="cls-2" points="915.34 130.97 939.58 117.65 939.43 135.97 931.91 139.92 915.34 130.97"/><polygon class="cls-3" points="374.88 136.13 409.25 117.13 422.38 130.63 394.13 146.63 374.88 136.13"/><polygon class="cls-4" points="675.48 136.51 707.69 118.34 723.85 131.75 695.13 147.09 675.48 136.51"/><polygon class="cls-5" points="515.34 44 548.13 26.38 566.13 42.75 540.63 57.63 515.34 44"/><polygon class="cls-6" points="515.36 104 565.34 131 465.34 185 415.34 158 515.36 104"/></g></svg>