<svg xmlns="http://www.w3.org/2000/svg" viewBox="0 0 111.92 74.92"><defs><style>.cls-1{fill:#f4f3e1;opacity:0.2;}</style></defs><title>body-bg</title><g id="footer-bg"><rect class="cls-1" x="62.15" y="37.44" width="6.23" height="6.25"/><rect class="cls-1" x="87.03" y="37.44" width="6.23" height="6.25"/><rect class="cls-1" x="68.37" y="43.69" width="6.23" height="6.25"/><rect class="cls-1" x="80.81" y="43.69" width="6.23" height="6.25"/><rect class="cls-1" x="74.59" y="37.44" width="6.23" height="6.25"/><rect class="cls-1" x="87.03" y="49.95" width="6.23" height="6.25"/><rect class="cls-1" x="74.59" y="49.95" width="6.23" height="6.25"/><rect class="cls-1" x="62.13" y="49.95" width="6.23" height="6.25"/><rect class="cls-1" x="93.25" y="43.69" width="6.23" height="6.25"/><rect class="cls-1" x="105.69" y="43.69" width="6.23" height="6.25"/><rect class="cls-1" x="99.47" y="37.44" width="6.23" height="6.25"/><rect class="cls-1" x="99.47" y="49.95" width="6.23" height="6.25"/><rect class="cls-1" x="12.42" y="37.44" width="6.23" height="6.25"/><rect class="cls-1" x="37.3" y="37.44" width="6.23" height="6.25"/><rect class="cls-1" x="18.64" y="43.69" width="6.23" height="6.25"/><rect class="cls-1" x="31.08" y="43.69" width="6.23" height="6.25"/><rect class="cls-1" x="24.86" y="37.44" width="6.23" height="6.25"/><rect class="cls-1" x="37.3" y="49.95" width="6.23" height="6.25"/><rect class="cls-1" x="24.86" y="49.95" width="6.23" height="6.25"/><rect class="cls-1" x="12.39" y="49.95" width="6.23" height="6.25"/><rect class="cls-1" x="43.51" y="43.69" width="6.23" height="6.25"/><rect class="cls-1" x="55.95" y="43.69" width="6.23" height="6.25"/><rect class="cls-1" x="49.73" y="37.44" width="6.23" height="6.25"/><rect class="cls-1" x="49.73" y="49.95" width="6.23" height="6.25"/><rect class="cls-1" x="6.22" y="43.69" width="6.23" height="6.25"/><rect class="cls-1" y="37.44" width="6.23" height="6.25"/><rect class="cls-1" y="49.95" width="6.23" height="6.25"/><rect class="cls-1" x="68.35" y="56.16" width="6.23" height="6.25"/><rect class="cls-1" x="93.23" y="56.16" width="6.23" height="6.25"/><rect class="cls-1" x="74.57" y="62.4" width="6.23" height="6.25"/><rect class="cls-1" x="87.01" y="62.4" width="6.23" height="6.25"/><rect class="cls-1" x="80.79" y="56.16" width="6.23" height="6.25"/><rect class="cls-1" x="93.23" y="68.66" width="6.23" height="6.25"/><rect class="cls-1" x="80.79" y="68.66" width="6.23" height="6.25"/><rect class="cls-1" x="68.32" y="68.66" width="6.23" height="6.25"/><rect class="cls-1" x="99.44" y="62.4" width="6.23" height="6.25"/><rect class="cls-1" x="0.02" y="62.4" width="6.23" height="6.25"/><rect class="cls-1" x="105.66" y="56.16" width="6.23" height="6.25"/><rect class="cls-1" x="105.66" y="68.66" width="6.23" height="6.25"/><rect class="cls-1" x="18.61" y="56.16" width="6.23" height="6.25"/><rect class="cls-1" x="43.5" y="56.16" width="6.23" height="6.25"/><rect class="cls-1" x="24.84" y="62.4" width="6.23" height="6.25"/><rect class="cls-1" x="37.28" y="62.4" width="6.23" height="6.25"/><rect class="cls-1" x="31.06" y="56.16" width="6.23" height="6.25"/><rect class="cls-1" x="43.5" y="68.66" width="6.23" height="6.25"/><rect class="cls-1" x="31.06" y="68.66" width="6.23" height="6.25"/><rect class="cls-1" x="18.59" y="68.66" width="6.23" height="6.25"/><rect class="cls-1" x="49.71" y="62.4" width="6.23" height="6.25"/><rect class="cls-1" x="62.15" y="62.4" width="6.23" height="6.25"/><rect class="cls-1" x="55.93" y="56.16" width="6.23" height="6.25"/><rect class="cls-1" x="55.93" y="68.66" width="6.23" height="6.25"/><rect class="cls-1" x="12.42" y="62.4" width="6.23" height="6.25"/><rect class="cls-1" x="6.2" y="56.16" width="6.23" height="6.25"/><rect class="cls-1" x="6.2" y="68.66" width="6.23" height="6.25"/><rect class="cls-1" x="62.15" width="6.23" height="6.25"/><rect class="cls-1" x="87.03" width="6.23" height="6.25"/><rect class="cls-1" x="68.37" y="6.25" width="6.23" height="6.25"/><rect class="cls-1" x="80.81" y="6.25" width="6.23" height="6.25"/><rect class="cls-1" x="74.59" width="6.23" height="6.25"/><rect class="cls-1" x="87.03" y="12.51" width="6.23" height="6.25"/><rect class="cls-1" x="74.59" y="12.51" width="6.23" height="6.25"/><rect class="cls-1" x="62.13" y="12.51" width="6.23" height="6.25"/><rect class="cls-1" x="93.25" y="6.25" width="6.23" height="6.25"/><rect class="cls-1" x="105.69" y="6.25" width="6.23" height="6.25"/><rect class="cls-1" x="99.47" width="6.23" height="6.25"/><rect class="cls-1" x="99.47" y="12.51" width="6.23" height="6.25"/><rect class="cls-1" x="12.42" width="6.23" height="6.25"/><rect class="cls-1" x="37.3" width="6.23" height="6.25"/><rect class="cls-1" x="18.64" y="6.25" width="6.23" height="6.25"/><rect class="cls-1" x="31.08" y="6.25" width="6.23" height="6.25"/><rect class="cls-1" x="24.86" width="6.23" height="6.25"/><rect class="cls-1" x="37.3" y="12.51" width="6.23" height="6.25"/><rect class="cls-1" x="24.86" y="12.51" width="6.23" height="6.25"/><rect class="cls-1" x="12.39" y="12.51" width="6.23" height="6.25"/><rect class="cls-1" x="43.51" y="6.25" width="6.23" height="6.25"/><rect class="cls-1" x="55.95" y="6.25" width="6.23" height="6.25"/><rect class="cls-1" x="49.73" width="6.23" height="6.25"/><rect class="cls-1" x="49.73" y="12.51" width="6.23" height="6.25"/><rect class="cls-1" x="6.22" y="6.25" width="6.23" height="6.25"/><rect class="cls-1" width="6.23" height="6.25"/><rect class="cls-1" y="12.51" width="6.23" height="6.25"/><rect class="cls-1" x="68.35" y="18.71" width="6.23" height="6.25"/><rect class="cls-1" x="93.23" y="18.71" width="6.23" height="6.25"/><rect class="cls-1" x="74.57" y="24.96" width="6.23" height="6.25"/><rect class="cls-1" x="87.01" y="24.96" width="6.23" height="6.25"/><rect class="cls-1" x="80.79" y="18.71" width="6.23" height="6.25"/><rect class="cls-1" x="93.23" y="31.22" width="6.23" height="6.25"/><rect class="cls-1" x="80.79" y="31.22" width="6.23" height="6.25"/><rect class="cls-1" x="68.32" y="31.22" width="6.23" height="6.25"/><rect class="cls-1" x="99.44" y="24.96" width="6.23" height="6.25"/><rect class="cls-1" x="0.02" y="24.96" width="6.23" height="6.25"/><rect class="cls-1" x="105.66" y="18.71" width="6.23" height="6.25"/><rect class="cls-1" x="105.66" y="31.22" width="6.23" height="6.25"/><rect class="cls-1" x="18.61" y="18.71" width="6.23" height="6.25"/><rect class="cls-1" x="43.5" y="18.71" width="6.23" height="6.25"/><rect class="cls-1" x="24.84" y="24.96" width="6.23" height="6.25"/><rect class="cls-1" x="37.28" y="24.96" width="6.23" height="6.25"/><rect class="cls-1" x="31.06" y="18.71" width="6.23" height="6.25"/><rect class="cls-1" x="43.5" y="31.22" width="6.23" height="6.25"/><rect class="cls-1" x="31.06" y="31.22" width="6.23" height="6.25"/><rect class="cls-1" x="18.59" y="31.22" width="6.23" height="6.25"/><rect class="cls-1" x="49.71" y="24.96" width="6.23" height="6.25"/><rect class="cls-1" x="62.15" y="24.96" width="6.23" height="6.25"/><rect class="cls-1" x="55.93" y="18.71" width="6.23" height="6.25"/><rect class="cls-1" x="55.93" y="31.22" width="6.23" height="6.25"/><rect class="cls-1" x="12.42" y="24.96" width="6.23" height="6.25"/><rect class="cls-1" x="6.2" y="18.71" width="6.23" height="6.25"/><rect class="cls-1" x="6.2" y="31.22" width="6.23" height="6.25"/></g></svg>