<svg xmlns="http://www.w3.org/2000/svg" viewBox="0 0 620 588"><defs><style>.cls-1{opacity:0.4;}.cls-2{fill:#fff;}</style></defs><title>cloud1</title><g id="footer-bg"><g class="cls-1"><path class="cls-2" d="M394.87,132.51c0,.11,0,.22,0,.33,0,.29.05.59.09.89l0,.25c.05.32.11.63.18,1a1.36,1.36,0,0,0,0,.17c.08.33.17.66.27,1l0,.1c.11.34.24.68.38,1v0c.15.34.31.68.48,1v0a12.2,12.2,0,0,0,2.23,3h0c.27.27.55.52.85.77h0a14.18,14.18,0,0,0,9.13,2.95H591.06c.62,0,1.22,0,1.81-.08h0c5-.44,8.63-2.68,10.78-5.67h0c.22-.3.42-.62.61-.94l0-.06a9.6,9.6,0,0,0,.5-.95s0-.07.05-.1q.21-.46.39-1l0-.12c.11-.32.21-.65.3-1l0-.12a9.07,9.07,0,0,0,.21-1s0-.07,0-.11a8.94,8.94,0,0,0,.12-1v-.07a9.74,9.74,0,0,0,0-1.08v0a12.16,12.16,0,0,0-7.33-11.05l-.26-.11c-.25-.11-.5-.21-.77-.3l-.07,0h0a17.72,17.72,0,0,0-5.91-1H506.45a5.94,5.94,0,0,1-4.39-1.75c-.13-.14-.25-.28-.37-.43l-.06-.08c-.1-.13-.19-.26-.28-.4s0,0,0,0a5.9,5.9,0,0,1-.86-3.25h0a5.09,5.09,0,0,1,1.62-3.68v0a5.47,5.47,0,0,1,2.36-1.27h0l.57-.12.25,0,.4-.05q.34,0,.72,0h51.45c.51,0,1,0,1.49-.07l.7-.08.65-.09q.45-.08.87-.18l.34-.08c.32-.08.64-.17,1-.27h0a12.41,12.41,0,0,0,4.6-2.69h0s0,0,0,0a11.1,11.1,0,0,0,.83-.85l0,0c.26-.3.51-.61.74-.93l0,0c.22-.32.44-.65.63-1a.21.21,0,0,1,0-.06c.19-.33.36-.67.52-1a.3.3,0,0,0,0-.08c.15-.35.3-.69.42-1l0-.1a10.16,10.16,0,0,0,.33-1.07s0-.06,0-.09c.09-.37.17-.73.23-1.11a.11.11,0,0,1,0,0c.06-.42.11-.85.14-1.28v.07c0-.14,0-.29,0-.44,0-.4,0-.8,0-1.21,0-.15,0-.3,0-.45v.07a13.58,13.58,0,0,0-2.18-6.55h0l0,0a12.08,12.08,0,0,0-2.58-2.82l-.19-.15c-.23-.17-.46-.34-.71-.5l-.19-.12a12.81,12.81,0,0,0-2.79-1.32h0a15.65,15.65,0,0,0-5-.78H460.37a16.66,16.66,0,0,0-10.54,3.26c-.25.2-.49.4-.71.61a4.68,4.68,0,0,0-.39.38l-.33.34a12.19,12.19,0,0,0-3.18,9.74h0a12.3,12.3,0,0,0,1.46,4.52l0,0a10,10,0,0,0,.61,1l.12.16a10,10,0,0,0,.64.82,2,2,0,0,0,.2.21,12.28,12.28,0,0,0,2.15,1.89h0l.05,0a14.55,14.55,0,0,0,2.4,1.33l.39.17.73.28.8.25.85.23.88.19.59.1,1.11.14.41,0h0c.58,0,1.16.07,1.77.07h4.64a7.7,7.7,0,0,1,2.28.33v0a5.35,5.35,0,0,1,3.94,5.49h0a5.44,5.44,0,0,1-4,4.86h0a8.6,8.6,0,0,1-1.87.37c-.23,0-.46,0-.71,0H408.63q-.66,0-1.29.06c-.24,0-.48,0-.71.07h-.09a13.18,13.18,0,0,0-7.37,3.23h0l-.23.22a12.21,12.21,0,0,0-1,1.12l0,0h0a13.65,13.65,0,0,0-2.95,7.31h0c0,.16,0,.31,0,.47A12.51,12.51,0,0,0,394.87,132.51Z"/><path class="cls-2" d="M482.46,275.19a10.47,10.47,0,0,0,.6-1h0a11.5,11.5,0,0,0,.5-1.07v0c.15-.36.28-.73.4-1.11h0a14.09,14.09,0,0,0-1-10.67.31.31,0,0,1,0-.1c-.16-.28-.33-.57-.51-.84h0a12.6,12.6,0,0,0-8.68-5.56h0l-.16,0a12.15,12.15,0,0,0-1.23-.16,14.84,14.84,0,0,0-1.51-.07H384.51a8.81,8.81,0,0,1-1.05-.07l-.21,0a6.76,6.76,0,0,1-2.68-.93h0a5.53,5.53,0,0,1-2.31-2.82v0a5.81,5.81,0,0,1,0-3.88v0a5.79,5.79,0,0,1,1.1-1.86h0a6.22,6.22,0,0,1,3.44-1.92l.1,0,.63-.1.16,0c.26,0,.54,0,.83,0H397.8c.46,0,.9,0,1.33-.07l.28,0c.42,0,.82-.11,1.21-.19l.22,0c.35-.08.68-.17,1-.28l.21-.06c.35-.13.7-.26,1-.42l.26-.12a10.62,10.62,0,0,0,.94-.51c7.58-4.62,7.93-17.33.84-22.51l-.47-.33a12.27,12.27,0,0,0-6.86-1.92H319.91c-.24,0-.47,0-.69,0a10.12,10.12,0,0,1-1.75-.3v0a5.89,5.89,0,0,1-4.83-5.75h0a5.24,5.24,0,0,1,.08-.88v0a6.09,6.09,0,0,1,4.73-4.7v0a9.64,9.64,0,0,1,2.44-.3h105.7c11.17,0,14.85-12.21,10.84-20.05h0a11.4,11.4,0,0,0-6.09-5.58h0c-.32-.12-.64-.23-1-.32l-.24-.07c-.29-.07-.59-.15-.89-.21l-.54-.08-.71-.1c-.45,0-.91-.07-1.38-.07H174.7a12.35,12.35,0,0,0-4.86,1h0c-.31.13-.6.28-.89.43l-.08,0q-.44.24-.84.51h0a11.42,11.42,0,0,0-3.38,3.61h0c-.17.29-.33.58-.48.88h0a14.93,14.93,0,0,0-1.34,8.63h0a12,12,0,0,0,7,9.76h0l0,0c.34.14.68.26,1,.37l.09,0c.34.1.7.19,1.06.26l.37.06c.29.05.58.1.88.13.45,0,.91.07,1.38.07H280.23c.24,0,.47,0,.7,0a9,9,0,0,1,1.8.36v0a6.19,6.19,0,0,1,4.54,6.24h0a6.12,6.12,0,0,1-4.53,5.71v0a8.72,8.72,0,0,1-2.5.35H264.59a11.43,11.43,0,0,0-7.68,2.7l-.23.19h0a13.14,13.14,0,0,0-4,8.32h0v0c0,.35-.07.7-.08,1.06v.08c0,.35,0,.69,0,1v.12c0,.33,0,.66.07,1a1,1,0,0,1,0,.17c0,.32.08.63.14.94,0,.07,0,.14,0,.21.06.3.12.6.2.89,0,.08.05.16.07.23.08.29.16.58.26.86a2,2,0,0,1,.08.22c.11.28.21.56.34.84l.08.16a11.66,11.66,0,0,0,2.82,3.86h0l0,0a10.74,10.74,0,0,0,3.14,1.93c.12,0,.24.11.37.15l.63.2.57.16.57.13c.25.05.51.08.78.12l.47.06c.44,0,.88.07,1.35.07h82.12a5.47,5.47,0,0,1,.82.05l.24,0,.54.1.24.06c.17.06.35.11.52.18l.16.06a5.51,5.51,0,0,1,1.77,1.19l0,0a5.64,5.64,0,0,1,.85,1.11h0a5.2,5.2,0,0,1,.32.62v.06a7.19,7.19,0,0,1,0,5.75v0a5.48,5.48,0,0,1-1.73,2.17h0a5.26,5.26,0,0,1-2.24.94l-.14,0a6.13,6.13,0,0,1-.87.07H334.35c-.56,0-1.1,0-1.63.06l-.4,0c-.5,0-1,.11-1.46.19l-.34.06c-.36.07-.71.14-1,.23l-.49.12c-.38.11-.76.23-1.12.36l-.52.2-.68.29-.49.23h0c-9.75,4.9-9.36,18.51,1.15,22.74h0a18.9,18.9,0,0,0,7.07,1.28h37a8.19,8.19,0,0,1,.87,0l.25,0a5.21,5.21,0,0,1,.57.09l.26.06.54.16.18.06c.23.09.45.19.66.29l.11.07a5.55,5.55,0,0,1,.48.29l.16.11.4.33.11.1a5.35,5.35,0,0,1,1.14,6.15h0c-.87,1.84-2.87,3.29-6,3.29H217.34a15.86,15.86,0,0,0-4.08.53h0c-.39.1-.76.22-1.13.35h0a12.71,12.71,0,0,0-4.61,2.87l-.07.07c-.23.23-.44.46-.65.71l-.08.09a13.58,13.58,0,0,0-3.1,7.9h0a13.67,13.67,0,0,0,1.5,7.22h0a11.12,11.12,0,0,0,.62,1.05h0a11.33,11.33,0,0,0,.72,1h0a11.81,11.81,0,0,0,.82.91h0a12.62,12.62,0,0,0,6,3.3h.05c.48.11,1,.21,1.48.28l.55.08.59,0q.69.06,1.41.06H307.9a6.07,6.07,0,0,1,.88.1v0a5.2,5.2,0,0,1,4.21,4.76h0c.38,2.86-1,6.07-4.21,6.73h0a6.43,6.43,0,0,1-1.27.13H258.77a11,11,0,0,0-1.17.06c-.3,0-.6.06-.89.1h0a11.47,11.47,0,0,0-5.67,2.46l-.25.22c-.3.27-.59.55-.86.84l-.19.2A12.57,12.57,0,0,0,248,336h0a14.67,14.67,0,0,0-1.39,4.06h0q-.09.51-.15,1s0,.08,0,.12c0,.32-.06.65-.08,1a1.09,1.09,0,0,1,0,.18c0,.31,0,.63,0,.94v.22c0,.3,0,.6.06.91l0,.23q0,.45.12.9a1.29,1.29,0,0,0,0,.19,14.1,14.1,0,0,0,.83,2.87l0,.13h0a10.64,10.64,0,0,0,.51,1.08h0a11.65,11.65,0,0,0,3.4,4h0a10.56,10.56,0,0,0,1.11.72l0,0a12.48,12.48,0,0,0,1.22.59h0a12.07,12.07,0,0,0,1.36.46h0a13.84,13.84,0,0,0,3.58.47H361.59a11.42,11.42,0,0,0,8-3h0a12.06,12.06,0,0,0,3-4.4l0,0h0a15.13,15.13,0,0,0,.73-8.63h0v0c-.06-.3-.14-.59-.22-.88l0-.12c-.09-.3-.18-.59-.28-.88v0a12.59,12.59,0,0,0-1.85-3.4l0,0c-.19-.25-.38-.48-.59-.71l-.07-.07a8.22,8.22,0,0,0-.66-.66h0A11.16,11.16,0,0,0,363,330.4a13.68,13.68,0,0,0-1.45-.07H345.82q-.33,0-.63,0a6.1,6.1,0,0,1-1.67-.41v0c-2.86-1.13-4-4.33-3.54-7.15h0a5.63,5.63,0,0,1,3.53-4.43v0a6.2,6.2,0,0,1,2.19-.38h76.66c.55,0,1.07,0,1.59-.06l.38,0c.49-.05,1-.11,1.43-.18l.3-.07c.36-.06.71-.14,1.05-.23l.46-.12c.38-.11.75-.23,1.1-.36.18-.06.35-.14.52-.21l.62-.26.53-.26h0a12.86,12.86,0,0,0,2.88-2h0a12.56,12.56,0,0,0,3.95-7.49h0a11.6,11.6,0,0,0,.12-1.17v0h0c.33-6.58-4.42-13.29-14.33-13.29H410.24a5.75,5.75,0,0,1-5.72-4h0a6.86,6.86,0,0,1-.24-1.07v.13a6.19,6.19,0,0,1,0-1.72h0a5.67,5.67,0,0,1,.36-1.28v0a3.59,3.59,0,0,1,.17-.34l0-.09a3,3,0,0,1,.19-.3.75.75,0,0,1,.07-.12l.2-.27.1-.12.21-.24.14-.13.29-.26c.1-.08.21-.17.33-.25l.19-.12.27-.16.21-.11.3-.13.23-.09.34-.11.24-.07c.12,0,.24-.06.37-.09l.25-.05.44-.06.23,0c.23,0,.46,0,.71,0h60.69a16.51,16.51,0,0,0,3.84-.45l.27-.07.9-.26h0a12.84,12.84,0,0,0,1.85-.78h0a12.22,12.22,0,0,0,4.67-4.24Z"/><path class="cls-2" d="M601.74,487.78a13.19,13.19,0,0,0,1.48-2.71v0h0c2.43-6,.79-14-5-17.3l-.62-.33-.5-.23-.65-.25a4.72,4.72,0,0,0-.53-.18c-.28-.09-.56-.17-.85-.24l-.35-.07c-.38-.08-.77-.14-1.17-.19l-.28,0c-.44,0-.89-.07-1.35-.07H500.77a7.89,7.89,0,0,1-5.39-1.8h0a5.54,5.54,0,0,1-1.86-3.82v0c0-.22,0-.43,0-.65v0a5.06,5.06,0,0,1,.1-.68h0a5.71,5.71,0,0,1,1.77-3.08h0a6.83,6.83,0,0,1,2.25-1.34l.09,0,.61-.19.24-.05.52-.11.45-.05.36,0q.42,0,.87,0h45.17a15.5,15.5,0,0,0,1.7-.11c.36,0,.71-.1,1.05-.17l.58-.14c.2,0,.41-.1.61-.17s.41-.14.62-.21l.45-.19c.23-.09.44-.19.66-.29l.27-.15a12,12,0,0,0,5.49-6.47h0a15.08,15.08,0,0,0,.85-3.52v-.08a14.87,14.87,0,0,0-2-9.51h0l0,0a11.38,11.38,0,0,0-8.73-5.35h0a15.4,15.4,0,0,0-1.54-.08H443.26a11.27,11.27,0,0,0-8.66,3.88h0a12.6,12.6,0,0,0-1.09,1.51h0a13.23,13.23,0,0,0-1,2v0c-.13.34-.26.68-.37,1l0,.08c-.1.33-.19.66-.27,1a1.16,1.16,0,0,1,0,.18c-.06.31-.13.62-.17.93,0,.11,0,.22,0,.33s-.07.53-.09.8,0,.38,0,.57,0,.39,0,.58c0,.39,0,.78,0,1.17h0a13.13,13.13,0,0,0,3.93,8.67v0h0a11.49,11.49,0,0,0,7.86,3h.2l17.17,0h.44c.28,0,.55,0,.82,0l.27,0,.49.07.33.07c.13,0,.26.05.38.09l.35.11.31.1.37.15.22.11.4.2.14.09c.14.09.29.18.42.28l.05,0a6.17,6.17,0,0,1,2.43,4.27h0c.4,3.38-1.92,7.05-7,7.05h-66a11.91,11.91,0,0,0-6.16,1.6l0,0h0a12.6,12.6,0,0,0-5.73,9.62s0,.1,0,.14q0,.46-.06.93c0,.07,0,.15,0,.22,0,.3,0,.59,0,.89a2.26,2.26,0,0,1,0,.26c0,.29,0,.58.07.87l0,.26c0,.29.08.58.13.87,0,.08,0,.16.05.23.06.3.12.59.2.88a1.8,1.8,0,0,1,.05.19c.09.3.18.6.28.9l0,.12a11.2,11.2,0,0,0,8.75,7.53l.66.1.48.06c.41,0,.83.06,1.27.06h16.15c.25,0,.48,0,.71,0l.48.07.18,0a5.54,5.54,0,0,1,3,1.66h0a6.38,6.38,0,0,1,1.6,3.33v0a6.91,6.91,0,0,1,0,2.4v0a6.33,6.33,0,0,1-1.19,2.83h0a5.15,5.15,0,0,1-2.94,1.9h0l-.56.1h-.1a5.27,5.27,0,0,1-.7,0H349.11a21.39,21.39,0,0,0-2.59.17l-.18,0a17.23,17.23,0,0,0-4.46,1.16l-.11,0a14.06,14.06,0,0,0-2.68,1.49l0,0h0a12.27,12.27,0,0,0-4,4.74l0,0c-.15.33-.29.66-.41,1a.49.49,0,0,0,0,.11c-.11.31-.21.62-.3.94,0,.07,0,.14-.05.21-.07.29-.14.58-.19.87,0,.11,0,.23-.05.34s-.08.51-.1.77,0,.33,0,.5,0,.42,0,.62,0,.49,0,.73,0,.28,0,.42a11.19,11.19,0,0,0,.18,1.16h0a12.28,12.28,0,0,0,5,7.57h0l.14.09a13.75,13.75,0,0,0,1.49.91l.09.05h0a17.45,17.45,0,0,0,7,1.8h0c.46,0,.92.06,1.4.06h86.74a7.09,7.09,0,0,1,.81,0,2.3,2.3,0,0,1,.26,0,4,4,0,0,1,.5.08l.28.06.43.11.26.09.4.16.23.1.4.21.16.1a3.7,3.7,0,0,1,.5.35h0a5.1,5.1,0,0,1,.89.91h0A5.33,5.33,0,0,1,442,537h0c-.57,2.29-2.67,4.27-6.37,4.27H423.26a14.55,14.55,0,0,0-7.3,1.81h0a13.29,13.29,0,0,0-6.45,12.3v.05c0,.35.05.7.1,1a.77.77,0,0,0,0,.15c0,.33.1.66.17,1a1.06,1.06,0,0,0,0,.19c.07.32.16.64.25.95l.06.18c.1.31.21.63.34.94l.06.14c.13.32.28.63.44.94l0,.09c.17.32.36.64.56,1l0,0a12.15,12.15,0,0,0,5.62,4.64h0l.3.1c.34.13.68.26,1,.37.12,0,.25.05.37.09.36.09.71.19,1.08.26.21,0,.44,0,.65.09s.6.09.92.12c.54,0,1.1.08,1.68.08H546.62a16.33,16.33,0,0,0,9.55-2.74h0a14.07,14.07,0,0,0,1.19-.94l.08-.07a12.61,12.61,0,0,0,4.14-9.7h0v0a11.3,11.3,0,0,0-.08-1.16v0a12.06,12.06,0,0,0-5.87-9l-.45-.27-.61-.31-.5-.22c-.22-.09-.43-.19-.66-.27s-.29-.1-.43-.15c-.45-.15-.91-.28-1.4-.4l-.52-.12-.84-.14-.53-.08a21,21,0,0,0-2.44-.16H474.75a5.75,5.75,0,0,1-5.42-3.28h0a6.08,6.08,0,0,1-.51-1.74h0a5.45,5.45,0,0,1,.53-3.23v0a5.08,5.08,0,0,1,3.41-2.65l.16,0a6.45,6.45,0,0,1,.66-.12l.23,0a8.76,8.76,0,0,1,.91-.05h12.8c.51,0,1,0,1.47-.07l.43,0c.36,0,.7-.09,1-.15l.38-.06c.39-.08.77-.18,1.13-.28l.62-.2.48-.17a12.89,12.89,0,0,0,2.32-1.16h0l.62-.41h0l.09-.08a10.9,10.9,0,0,0,.93-.75l.12-.12a9.94,9.94,0,0,0,.79-.8l.12-.14c.24-.28.48-.57.69-.87l.09-.13c.22-.31.42-.63.61-1l.06-.11c.19-.34.37-.69.53-1,0,0,0-.05,0-.07a11.25,11.25,0,0,0,.45-1.14h0c2.6-7.72-1.72-17.74-13-17.74H449a7.63,7.63,0,0,1-.84,0l-.15,0a6.17,6.17,0,0,1-.64-.09l-.09,0a6.15,6.15,0,0,1-3.44-1.88h0a4.43,4.43,0,0,1-.57-.74h0a5.76,5.76,0,0,1,0-6.05v0a5.59,5.59,0,0,1,1.76-1.8h0a5.86,5.86,0,0,1,.74-.41l.17-.07a6.8,6.8,0,0,1,1.79-.5l.24,0a8.79,8.79,0,0,1,1-.07H591.9a11.93,11.93,0,0,0,7.68-2.57h0l0,0a11.08,11.08,0,0,0,1.06-1l.13-.15a12,12,0,0,0,.9-1.1Z"/><path class="cls-2" d="M40.78,112.32c-.2.27-.4.55-.58.84l-.13.22c-.18.3-.35.61-.51.92a1.86,1.86,0,0,1-.1.2c-.15.33-.3.67-.43,1l-.06.16c-.14.37-.26.75-.37,1.13a.31.31,0,0,0,0,.08A15.09,15.09,0,0,0,40.3,129l0,.05c.2.3.42.59.65.88l.08.1a9.59,9.59,0,0,0,.68.75l.14.15q.34.33.72.63l.21.19c.23.18.48.35.73.51l.29.2c.25.15.5.28.76.41s.24.14.37.2.52.21.78.31l.42.17h0a13.41,13.41,0,0,0,4.29.67H176.9c.47,0,.93,0,1.37-.07l.43-.06c.29,0,.58-.08.86-.14l.47-.11.74-.2.46-.16c.23-.08.45-.17.67-.27l.43-.2c.21-.1.42-.22.62-.33l.4-.23c.2-.13.39-.28.59-.42l.33-.24.64-.55c5.3-4.93,5.4-14.72.16-19.71q-.33-.32-.69-.6l-.31-.23-.61-.43-.28-.18c-.31-.18-.62-.36-1-.51h0a12.45,12.45,0,0,0-5.33-1.12H164.8a5.7,5.7,0,0,1-5.75-4.54v-.08a7.18,7.18,0,0,1-.08-2.92h0c0-.16.06-.31.09-.47v.09a5.86,5.86,0,0,1,2.2-3.44h0a5.45,5.45,0,0,1,1.06-.59l.28-.1.24-.08.34-.09.23,0a2.9,2.9,0,0,1,.41-.06l.21,0q.32,0,.66,0h87.06c.51,0,1,0,1.5-.07s.87-.08,1.3-.14h0c8.29-1.16,12.34-7.37,12.12-13.39h0c0-.38-.05-.75-.1-1.12v-.05c-.05-.36-.11-.72-.19-1.07l0-.08c-.08-.35-.18-.69-.29-1l0-.09c-.12-.34-.24-.67-.38-1l0-.08c-.15-.34-.31-.66-.48-1l0-.06c-.18-.33-.38-.64-.59-.95l0,0a11.76,11.76,0,0,0-1.27-1.55h0A3,3,0,0,0,263,74c-.2-.19-.4-.38-.61-.56s-.3-.23-.45-.35-.33-.25-.51-.37l-.57-.36-.45-.26-.7-.37-.37-.16c-.28-.13-.57-.25-.87-.37h0a16.67,16.67,0,0,0-3.74-.86l-.1,0h0a19.55,19.55,0,0,0-2.21-.14H229.22c-.24,0-.47,0-.69,0v0a5.68,5.68,0,0,1-5-3.91h0c-1-3.05.52-6.79,5-7.11v0c.21,0,.41,0,.64,0h60.69c11.79,0,16-11,12.59-18.79h0a12.3,12.3,0,0,0-5.93-6.24l-.32-.16-.68-.28-.52-.19-.61-.2c-.38-.11-.76-.21-1.16-.29l-.48-.08c-.31-.06-.63-.1-1-.14l-.46-.05c-.48,0-1-.06-1.47-.06H83.72c-.51,0-1,0-1.49.06a15.44,15.44,0,0,0-10,4h0c-.06,0-.11.12-.17.17a12.49,12.49,0,0,0-1.22,1.43l-.07.09c-.2.29-.39.58-.57.88v0A12.21,12.21,0,0,0,69,48.91h0v0a12.16,12.16,0,0,0,.51,1.43l0,0c.19.42.41.84.64,1.25.06.09.11.18.17.26a11.12,11.12,0,0,0,.69,1l.19.26a12.29,12.29,0,0,0,1,1.07.08.08,0,0,0,0,0h0a14.94,14.94,0,0,0,8.67,3.92h0a21.64,21.64,0,0,0,2.86.2h106.6a7.1,7.1,0,0,1,3.43.81v0a5.31,5.31,0,0,1,2.28,7h0a5.44,5.44,0,0,1-2.3,2.39v0a7.13,7.13,0,0,1-2.57.82l-.14,0c-.32,0-.66.06-1,.06H121.88c-.59,0-1.16,0-1.71.08l-.26,0c-.47,0-.92.12-1.36.21l-.13,0c-.48.11-1,.23-1.4.37h0a12.48,12.48,0,0,0-6.42,4.67h0l0,0a13.85,13.85,0,0,0-2.47,8.54v.06h0C108.39,89.88,112.9,96,121.88,96h5a5.54,5.54,0,0,1,.59,0l.19,0a2.2,2.2,0,0,1,.37.06l.21,0,.31.09.21.08a1.69,1.69,0,0,1,.28.12l.2.09.25.14.19.13.21.15.19.15.16.15.21.2h0a6,6,0,0,1,1.51,3.38h0c.41,3.21-1.37,6.83-5.49,6.83h-76c-.47,0-.91,0-1.35.07l-.43,0-.84.13-.48.1-.8.22-.37.11h0a11,11,0,0,0-2.39,1.16h0l-.08.06a11,11,0,0,0-1,.69l-.16.14q-.41.35-.78.72l-.18.19c-.23.25-.46.51-.67.78Z"/><path class="cls-2" d="M257.45,419.74a16.19,16.19,0,0,0,3-.27h0a13.47,13.47,0,0,0,4.55-1.68h0a13.16,13.16,0,0,0,1.22-.84h0a12.38,12.38,0,0,0,2.89-3.21h0v0a12.67,12.67,0,0,0,1.22-2.58l0,0c.15-.43.27-.87.38-1.31a.5.5,0,0,1,0-.12c.1-.42.17-.84.23-1.27a.24.24,0,0,1,0-.08h0a13.94,13.94,0,0,0-1.65-8.63h0l0-.08c-.06-.1-.11-.2-.17-.29l0-.05h0a12.6,12.6,0,0,0-8.69-5.75h0l-.14,0c-.43-.07-.86-.13-1.32-.17s-1-.08-1.57-.08H120.64c-.57,0-1.11,0-1.64.07l-.35,0c-.49.05-1,.11-1.42.18l-.44.08-1,.22-.69.19c-.25.07-.51.15-.75.24l-.61.22c-.3.11-.58.23-.86.36h0a12.92,12.92,0,0,0-5.56,4.79h0v0a12.25,12.25,0,0,0,4.55,17.3h0l.1.05c.29.16.6.32.91.47h0a18.47,18.47,0,0,0,7.82,1.59h4.63a6.74,6.74,0,0,1,.79,0h.14c.21,0,.42.05.62.09l.07,0a5.88,5.88,0,0,1,3.3,1.84v0a5.36,5.36,0,0,1,1.24,4.58h0a5.23,5.23,0,0,1-1.23,2.45v0a6.73,6.73,0,0,1-5.21,2H28.74c-.49,0-1,0-1.43.07s-.81.09-1.2.15H26a12.86,12.86,0,0,0-7.48,3.87h0c-.14.15-.27.32-.41.48s-.17.19-.24.29A13.78,13.78,0,0,0,15,444v.06c0,.35,0,.69.08,1v.08c0,.34.09.69.15,1v0a12.87,12.87,0,0,0,2.37,5.39c.22.28.44.55.68.82s.33.32.49.49l.36.35c.21.18.44.36.66.53l.28.22c.26.19.53.36.81.54l.21.13c.31.18.63.34,1,.5l.15.07c.35.16.71.31,1.09.44l.1,0c.39.14.8.26,1.22.37h.06c.43.11.88.2,1.34.27h0a18,18,0,0,0,2.72.22H214.62c.48,0,.95,0,1.4-.06s.66-.05,1-.09h.06a14.77,14.77,0,0,0,8.69-3.86h0l0,0a13,13,0,0,0,.94-1h0a12.7,12.7,0,0,0,2.85-8.63h0c0-.37-.06-.74-.11-1.11v-.05c-.06-.36-.12-.72-.21-1.08,0,0,0,0,0-.06-.09-.36-.19-.71-.3-1.06l0-.06c-.12-.35-.26-.69-.41-1l0-.05a10.46,10.46,0,0,0-.51-1l0,0c-.19-.33-.39-.65-.61-1l0,0a10.55,10.55,0,0,0-.71-.91l0,0a10.39,10.39,0,0,0-.8-.83l0,0h0l-.32-.29h0l-.71-.56-.19-.14c-.23-.17-.48-.34-.73-.49l-.21-.12a12.13,12.13,0,0,0-1.39-.72l-.43-.19c-.21-.09-.42-.16-.64-.24l-.64-.21-.64-.18-.77-.17-.61-.13c-.39-.06-.8-.11-1.21-.15a18.79,18.79,0,0,0-2-.11H166.71a6.43,6.43,0,0,1-1.75-.25v0a5.68,5.68,0,0,1-4.22-5h0a5.12,5.12,0,0,1,4.21-5.69h0a8.13,8.13,0,0,1,1.7-.18h90.79Z"/></g></g></svg>