<svg xmlns="http://www.w3.org/2000/svg" viewBox="0 0 620 560"><defs><style>.cls-1{opacity:0.35;}.cls-2{fill:#fff;}</style></defs><title>cloud2</title><g id="footer-bg"><g class="cls-1"><path class="cls-2" d="M375,107.73l0,.25c.05.32.11.63.18.94a1.16,1.16,0,0,0,0,.18c.07.33.17.65.27,1l0,.1c.11.34.24.68.37,1l0,0c.15.34.3.68.48,1h0a12.1,12.1,0,0,0,2.24,3h0c.28.27.56.52.86.77h0a14.18,14.18,0,0,0,9.13,3H571.06c.62,0,1.22,0,1.81-.08h0c5-.44,8.63-2.68,10.78-5.67h0c.22-.31.42-.62.61-.94l0-.06c.18-.31.35-.63.5-1l.05-.1q.21-.48.39-1h0l0-.11c.11-.32.21-.65.3-1l0-.13c.08-.33.15-.66.21-1,0,0,0-.07,0-.11,0-.35.1-.69.12-1v-.07c0-.36,0-.72,0-1.08v0a12.16,12.16,0,0,0-7.34-11.05l-.25-.11c-.25-.11-.5-.21-.77-.3l-.07,0h0a17.48,17.48,0,0,0-3.26-.77,20.27,20.27,0,0,0-2.65-.19H486.45a5.94,5.94,0,0,1-4.39-1.75c-.13-.14-.25-.28-.37-.43l-.06-.08c-.1-.13-.19-.26-.28-.4a.08.08,0,0,1,0,0,5.91,5.91,0,0,1-.87-3.25h0a5.14,5.14,0,0,1,1.63-3.68v0a5.37,5.37,0,0,1,2.36-1.27h0a4.78,4.78,0,0,1,.57-.12l.25,0,.4-.05q.34,0,.72,0h51.45c.51,0,1,0,1.49-.07l.7-.08.65-.1.87-.17.33-.08c.33-.09.65-.17,1-.28h0a12.59,12.59,0,0,0,4.61-2.69h0l0,0c.29-.27.57-.56.83-.85l0,0c.26-.3.51-.61.74-.93l0,0c.22-.32.44-.65.63-1l0-.06a9.86,9.86,0,0,0,.53-1l0-.08c.15-.35.3-.69.42-1l0-.1c.1-.27.17-.55.25-.82,0-.09.06-.17.08-.25a.29.29,0,0,1,0-.09c.09-.37.17-.74.23-1.11v0c.07-.42.12-.85.15-1.28v.07c0-.15,0-.29,0-.44,0-.4,0-.81,0-1.21,0-.15,0-.3,0-.45v.07a13.65,13.65,0,0,0-2.18-6.56h0a11.89,11.89,0,0,0-2.58-2.82l-.19-.15c-.23-.18-.46-.34-.71-.5l-.19-.12a12.81,12.81,0,0,0-2.79-1.32h0a15.86,15.86,0,0,0-5-.78H440.37a16.72,16.72,0,0,0-10.55,3.27c-.24.2-.48.4-.7.61s-.27.25-.39.37l-.33.35a12.16,12.16,0,0,0-3.18,9.74h0a12.12,12.12,0,0,0,1.46,4.52l0,0a11.46,11.46,0,0,0,.62,1l.12.16a10,10,0,0,0,.64.82l.2.21a12.71,12.71,0,0,0,2.15,1.89h0l.05,0a13.53,13.53,0,0,0,2.4,1.34l.38.17.74.28.8.25.85.23.87.19.6.1,1.11.14.41,0h0c.57,0,1.16.07,1.77.07H445a7.72,7.72,0,0,1,2.29.33v0a5.62,5.62,0,0,1,2.94,2.07,5.3,5.3,0,0,1,1,3.43h0a5.26,5.26,0,0,1-.55,2,5.54,5.54,0,0,1-3.4,2.83h0a8.6,8.6,0,0,1-1.87.37c-.23,0-.46,0-.71,0H388.63q-.66,0-1.29.06c-.24,0-.48,0-.71.06h-.09a13.18,13.18,0,0,0-7.37,3.23h0l-.22.22a11,11,0,0,0-1,1.12s0,0,0,0h0a13.54,13.54,0,0,0-2.95,7.31h0c0,.15,0,.31,0,.47,0,.5,0,1,0,1.5,0,.11,0,.22,0,.32C374.89,107.13,374.93,107.43,375,107.73Z"/><path class="cls-2" d="M334.83,330.09h26.76a11.42,11.42,0,0,0,8-3h0a12.09,12.09,0,0,0,3-4.41l0,0h0a13.77,13.77,0,0,0,.46-1.37,15.24,15.24,0,0,0,.27-7.26h0v0c-.06-.3-.14-.59-.22-.88l0-.13c-.09-.29-.18-.58-.28-.87v0a12.92,12.92,0,0,0-1.7-3.2l-.15-.21,0,0c-.19-.25-.38-.48-.59-.71l-.07-.07a8.22,8.22,0,0,0-.66-.66h0A11.1,11.1,0,0,0,363,304.4a13.64,13.64,0,0,0-1.45-.08H345.82q-.33,0-.63,0a6.1,6.1,0,0,1-1.67-.41v0c-2.86-1.13-4-4.34-3.54-7.15h0a5.61,5.61,0,0,1,3.53-4.43v0a6.2,6.2,0,0,1,2.19-.38h76.66c.55,0,1.07,0,1.59-.06l.38,0c.49-.05,1-.11,1.43-.19l.3-.06c.36-.07.71-.14,1.05-.23l.46-.12c.38-.11.75-.23,1.1-.36.18-.06.35-.14.52-.21s.42-.17.62-.27l.53-.25h0a13.55,13.55,0,0,0,2.88-2h0a12.63,12.63,0,0,0,3.31-5,12.33,12.33,0,0,0,.64-2.51h0a11.6,11.6,0,0,0,.12-1.17v0h0a12.4,12.4,0,0,0-2-7.42c-2.24-3.4-6.33-5.87-12.33-5.87H410.24a5.75,5.75,0,0,1-5.72-4h0a6.5,6.5,0,0,1-.24-1.06v.13a6.19,6.19,0,0,1,0-1.72h0a5.67,5.67,0,0,1,.36-1.28v0c.05-.12.11-.23.17-.35l0-.08a3.21,3.21,0,0,1,.19-.31l.07-.11.2-.27.1-.12.21-.24.14-.13.29-.26a2.85,2.85,0,0,1,.33-.25l.19-.12.27-.16.21-.11.3-.14.23-.08.34-.12.24-.07.37-.08.25,0,.44-.06.23,0c.23,0,.46,0,.71,0h60.69a16,16,0,0,0,3.84-.46l.27-.06.9-.26h0a12.84,12.84,0,0,0,1.85-.78h0a12.22,12.22,0,0,0,4.67-4.24h0a10.47,10.47,0,0,0,.6-1v0a10.25,10.25,0,0,0,.5-1.06v0c.15-.36.28-.73.4-1.11h0c0-.14.07-.29.11-.43A14,14,0,0,0,483,235.28l0-.1c-.16-.29-.33-.57-.51-.85h0a12.56,12.56,0,0,0-8.68-5.56h0l-.16,0c-.4-.06-.81-.12-1.23-.16s-1-.06-1.51-.06H384.51a8.81,8.81,0,0,1-1.05-.07l-.21,0a6.76,6.76,0,0,1-2.68-.93h0a5.53,5.53,0,0,1-2.31-2.82v0a5.81,5.81,0,0,1,0-3.88v0a5.85,5.85,0,0,1,1.1-1.85h0a6.22,6.22,0,0,1,3.44-1.92l.1,0,.63-.1.16,0c.26,0,.54,0,.83,0H397.8c.46,0,.9,0,1.33-.06l.28,0c.42,0,.82-.11,1.21-.19l.22,0c.35-.08.68-.18,1-.28l.21-.07c.35-.12.7-.26,1-.41l.26-.12a10.62,10.62,0,0,0,.94-.51,12.52,12.52,0,0,0,5.46-7.76,15,15,0,0,0-2-12,11.61,11.61,0,0,0-2.65-2.77l-.47-.33a12.28,12.28,0,0,0-6.86-1.93H319.91l-.69,0a10.12,10.12,0,0,1-1.75-.3v0a5.89,5.89,0,0,1-4.83-5.75h0a5.24,5.24,0,0,1,.08-.88v0a6.09,6.09,0,0,1,4.73-4.7v0a9.64,9.64,0,0,1,2.44-.3h105.7c6.65,0,10.64-4.33,11.94-9.49a15.32,15.32,0,0,0-1.1-10.56h0a11.4,11.4,0,0,0-6.09-5.58h0l0,0-1-.32-.24-.06c-.29-.08-.59-.15-.89-.21l-.54-.08c-.24,0-.47-.08-.71-.1-.45,0-.91-.07-1.38-.07H174.7a12.14,12.14,0,0,0-4.86,1h0a9.13,9.13,0,0,0-.89.43l-.08,0q-.44.24-.84.51h0a11.42,11.42,0,0,0-3.38,3.61h0c-.17.29-.33.58-.48.88h0a14.93,14.93,0,0,0-1.34,8.63h0a12,12,0,0,0,7,9.76h0l0,0c.34.14.68.26,1,.37l.09,0c.34.1.7.2,1.06.27l.37.06c.29,0,.58.1.88.13q.68.06,1.38.06H280.23c.24,0,.47,0,.7,0a9,9,0,0,1,1.8.36v0a6.21,6.21,0,0,1,4.54,6.25h0a6.1,6.1,0,0,1-4.53,5.7v0a8.74,8.74,0,0,1-2.5.34H264.59a11.44,11.44,0,0,0-7.68,2.71l-.23.19h0a10.73,10.73,0,0,0-1.29,1.41,13.56,13.56,0,0,0-2.74,6.91h0c0,.36-.07.71-.08,1.07v.08c0,.34,0,.69,0,1v.12c0,.33,0,.66.07,1a1,1,0,0,1,0,.17c0,.32.08.63.14.94,0,.07,0,.14,0,.21.06.3.12.6.2.89,0,.08.05.16.07.23.08.29.16.58.26.86a1.43,1.43,0,0,1,.08.22c.11.28.21.56.34.83a1.3,1.3,0,0,0,.08.17,11.66,11.66,0,0,0,2.82,3.86h0l0,0a10.74,10.74,0,0,0,3.14,1.93l.37.15.63.2.57.16.57.13.78.12.47.06c.44,0,.88.07,1.35.07h82.12a7.22,7.22,0,0,1,.82,0l.24,0,.54.1.24.06a5.34,5.34,0,0,1,.52.18l.16.06a5.51,5.51,0,0,1,1.77,1.19l0,0a5.64,5.64,0,0,1,.85,1.11h0a5.2,5.2,0,0,1,.32.62v.05a7.19,7.19,0,0,1,0,5.75v0a5.48,5.48,0,0,1-1.73,2.17h0a5.26,5.26,0,0,1-2.24.94l-.14,0a6.13,6.13,0,0,1-.87.07H334.35c-.56,0-1.1,0-1.63.06l-.4,0c-.5,0-1,.11-1.46.18l-.34.07c-.36.07-.71.14-1,.23l-.49.12c-.38.11-.76.23-1.12.36l-.52.2-.68.29-.49.23h0a13.09,13.09,0,0,0-3.71,2.75c-5.69,6-4.07,16.4,4.86,20h0a18.91,18.91,0,0,0,7.07,1.27h37a8.14,8.14,0,0,1,.87.05l.25,0,.57.1.26.06.54.16.18.06a6.58,6.58,0,0,1,.66.29l.11.07a5.55,5.55,0,0,1,.48.29l.16.11c.14.11.27.21.4.33l.11.1a5.34,5.34,0,0,1,1.14,6.14h0c-.87,1.85-2.87,3.3-6,3.3H217.34a16.32,16.32,0,0,0-4.08.52h0c-.39.1-.76.21-1.13.34h0a12.71,12.71,0,0,0-4.61,2.87l-.07.07a8.83,8.83,0,0,0-.65.71l-.08.09a13.55,13.55,0,0,0-3.1,7.89h0a13.69,13.69,0,0,0,1.5,7.22h0a11.12,11.12,0,0,0,.62,1.05h0a11.33,11.33,0,0,0,.72,1h0a11.81,11.81,0,0,0,.82.91h0a12.62,12.62,0,0,0,6,3.3h.05c.48.12,1,.21,1.48.29l.55.08.59,0q.69.06,1.41.06H307.9a4.93,4.93,0,0,1,.88.1v0a5.2,5.2,0,0,1,4.21,4.76h0c.38,2.86-1,6.06-4.21,6.73h0a6.43,6.43,0,0,1-1.27.13H258.77a11,11,0,0,0-1.17.06c-.3,0-.6.06-.89.1h0a11.47,11.47,0,0,0-5.67,2.46l-.25.22a9.73,9.73,0,0,0-.86.84l-.19.2a11.4,11.4,0,0,0-1.06,1.42A10.66,10.66,0,0,0,248,310h0a14.67,14.67,0,0,0-1.39,4.06h0q-.09.51-.15,1s0,.08,0,.12c0,.32-.06.64-.08,1a1.09,1.09,0,0,1,0,.18c0,.31,0,.62,0,.94v.22c0,.3,0,.6.06.9l0,.24q0,.45.12.9a1.29,1.29,0,0,0,0,.19,14.1,14.1,0,0,0,.83,2.87l0,.13h0c.16.37.33.73.52,1.08h0a11.84,11.84,0,0,0,3.4,4h0a10.56,10.56,0,0,0,1.11.72l0,0a12.48,12.48,0,0,0,1.22.59h0a12,12,0,0,0,1.36.45h0a13.84,13.84,0,0,0,3.58.47h76.06Z"/><path class="cls-2" d="M582.2,432.74c-.2-.11-.41-.23-.63-.33l-.5-.23-.64-.26-.53-.18-.85-.23-.35-.08q-.57-.1-1.17-.18l-.28,0q-.66-.06-1.35-.06H484.77a7.84,7.84,0,0,1-5.39-1.81h0a5.54,5.54,0,0,1-1.86-3.82v0c0-.21,0-.43,0-.64v-.06a5.58,5.58,0,0,1,.1-.68h0a5.68,5.68,0,0,1,1.77-3.08h0a6.65,6.65,0,0,1,2.25-1.33l.09,0a6.17,6.17,0,0,1,.61-.19l.24-.05.52-.11.44-.06.37,0q.42,0,.87,0h45.16a15.52,15.52,0,0,0,1.71-.11c.36-.05.71-.1,1.05-.17l.58-.14.61-.17c.21-.06.41-.14.61-.21l.46-.19.66-.3.27-.14a12,12,0,0,0,5.49-6.47v0a14.22,14.22,0,0,0,.48-1.57,14.42,14.42,0,0,0,.37-1.94v-.08a14.9,14.9,0,0,0-2-9.52h0l0,0a11.4,11.4,0,0,0-8.73-5.35,12.92,12.92,0,0,0-1.55-.09H427.48l-.2,0h0a11.27,11.27,0,0,0-8.66,3.88h0a12.6,12.6,0,0,0-1.09,1.51h0a12.35,12.35,0,0,0-1,2v0c-.14.34-.26.68-.37,1l0,.08c-.1.33-.19.66-.27,1a1.16,1.16,0,0,0,0,.18c-.07.31-.13.62-.17.93,0,.11,0,.22,0,.33s-.07.53-.09.8,0,.38,0,.57,0,.38,0,.58c0,.39,0,.78,0,1.17h0a13.19,13.19,0,0,0,3.92,8.67l0,0h0a11.49,11.49,0,0,0,7.86,3h17.81c.28,0,.55,0,.82,0l.27,0,.49.07.33.07c.13,0,.26.05.38.09l.35.1.31.11.37.15.22.1.4.21.14.08.42.29.05,0a6.17,6.17,0,0,1,2.43,4.26h0c.4,3.39-1.92,7.06-7,7.06h-66a11.81,11.81,0,0,0-6.16,1.6s0,0,0,0h0a12.6,12.6,0,0,0-5.73,9.62.68.68,0,0,0,0,.14q0,.46-.06.93a1.62,1.62,0,0,0,0,.22c0,.3,0,.59,0,.89a2.17,2.17,0,0,1,0,.26c0,.29,0,.58.07.87l0,.26c0,.29.08.58.13.87,0,.07,0,.15.05.23.06.3.12.59.2.88,0,.06,0,.13.05.19.09.3.18.6.28.9l0,.11a11.21,11.21,0,0,0,8.75,7.54l.66.1.48.06c.41,0,.83.06,1.27.06h16.15c.25,0,.48,0,.71,0l.47.07.18,0a5.59,5.59,0,0,1,3,1.65h0a6.43,6.43,0,0,1,1.61,3.33v0a7.16,7.16,0,0,1,0,2.4v0a6.33,6.33,0,0,1-1.19,2.83h0a5.09,5.09,0,0,1-2.94,1.89h0l-.57.1h-.09a5.27,5.27,0,0,1-.7,0H333.1a23.66,23.66,0,0,0-2.58.16l-.18,0a17.23,17.23,0,0,0-4.46,1.15l-.11.05a14.06,14.06,0,0,0-2.68,1.49l0,0h0a12.32,12.32,0,0,0-4,4.73l0,0c-.15.33-.29.65-.41,1a.49.49,0,0,0,0,.11c-.11.31-.21.62-.3.94a1.6,1.6,0,0,0-.05.21c-.08.29-.14.58-.19.87,0,.11,0,.23-.05.34,0,.26-.08.51-.1.76s0,.34,0,.51,0,.41,0,.62,0,.49,0,.73,0,.28,0,.41a11.82,11.82,0,0,0,.18,1.17h0a12.24,12.24,0,0,0,5,7.57h0a.71.71,0,0,0,.14.1,12.28,12.28,0,0,0,1.49.9l.09,0h0a17.29,17.29,0,0,0,7,1.81h0c.46,0,.92.05,1.4.05h86.74c.28,0,.55,0,.81,0l.26,0,.5.07.28.07.43.11.26.09.4.15.23.11a2.42,2.42,0,0,1,.39.21,1,1,0,0,1,.17.1c.18.11.34.22.5.34h0a5.4,5.4,0,0,1,.89.9h0A5.35,5.35,0,0,1,426,502h0c-.57,2.28-2.68,4.26-6.38,4.26H407.26a14.52,14.52,0,0,0-7.31,1.82h0a12.39,12.39,0,0,0-4.28,4.1,13.91,13.91,0,0,0-2.17,8.2v.05c0,.35.05.7.1,1,0,0,0,.1,0,.15.05.33.11.66.18,1a1.29,1.29,0,0,0,0,.19c.07.32.16.63.25.95l.06.17c.1.32.21.64.34.95l.06.14c.13.32.28.63.44.94l0,.09c.17.32.36.64.55.94l0,0a12,12,0,0,0,5.62,4.64h0l.3.1c.34.13.68.26,1,.36.12,0,.25.06.37.09.35.1.71.19,1.08.26.21,0,.44.06.65.09s.6.1.92.13c.54,0,1.1.08,1.68.08H530.62a16.35,16.35,0,0,0,9.54-2.74h0a12.3,12.3,0,0,0,1.19-.94l.08-.06a12.61,12.61,0,0,0,3.36-5,12.75,12.75,0,0,0,.78-4.68h0v0c0-.39,0-.78-.08-1.16v0a12.06,12.06,0,0,0-5.87-9l-.45-.27-.61-.31-.5-.22-.66-.28-.43-.14c-.45-.15-.92-.29-1.4-.4l-.52-.12-.84-.15-.54-.07a20.66,20.66,0,0,0-2.43-.16H458.75a5.77,5.77,0,0,1-5.43-3.28v0a5.88,5.88,0,0,1-.5-1.74h0a5.49,5.49,0,0,1,.52-3.22v0a5.16,5.16,0,0,1,3.42-2.66l.16,0a6.45,6.45,0,0,1,.66-.12l.23,0a8.76,8.76,0,0,1,.91-.05h12.8c.51,0,1,0,1.47-.07l.43,0c.35,0,.7-.09,1-.15l.38-.06c.39-.08.77-.18,1.13-.28l.62-.2.48-.18a12.23,12.23,0,0,0,2.32-1.15h0c.21-.13.42-.26.62-.41h0l.09-.07c.32-.24.63-.48.93-.75l.12-.12c.28-.26.54-.52.79-.8l.12-.14c.24-.28.48-.57.69-.87l.09-.13c.22-.31.42-.63.61-.95l.06-.11c.19-.34.37-.69.53-1a.64.64,0,0,1,0-.07,11.25,11.25,0,0,0,.45-1.14h0c.08-.25.16-.49.23-.74a13.93,13.93,0,0,0-2-11.75c-2.24-3.09-6-5.25-11.21-5.25H433c-.29,0-.57,0-.84,0l-.15,0a6.17,6.17,0,0,1-.64-.09l-.1,0a6.21,6.21,0,0,1-3.43-1.88h0a5,5,0,0,1-.56-.74h0a5.76,5.76,0,0,1,0-6.05v0a5.72,5.72,0,0,1,1.76-1.81h0a6.72,6.72,0,0,1,.75-.4l.17-.08a6.8,6.8,0,0,1,1.79-.49l.24,0a8.81,8.81,0,0,1,1-.06H575.9a11.9,11.9,0,0,0,7.68-2.58h0l0,0a12.53,12.53,0,0,0,1.06-1l.13-.14a12,12,0,0,0,.9-1.1l0,0a13.48,13.48,0,0,0,1.48-2.72v0h0a15.23,15.23,0,0,0,.6-1.88C589.28,442.45,587.43,435.74,582.2,432.74Z"/><path class="cls-2" d="M40.33,103c.2.3.42.59.65.87a1,1,0,0,0,.08.11,9.59,9.59,0,0,0,.68.75l.14.15q.34.33.72.63c.07.06.13.13.21.19s.48.34.73.51l.29.2c.25.15.5.28.76.41s.24.14.37.2.52.21.78.31l.42.17h0a13.41,13.41,0,0,0,4.29.67H176.9c.47,0,.93,0,1.37-.07l.43-.06c.29,0,.58-.08.86-.14l.47-.11.74-.2.46-.16c.23-.09.45-.17.67-.27l.43-.2c.21-.1.42-.22.62-.34l.4-.23.59-.41.33-.24c.22-.18.43-.37.64-.56a12.54,12.54,0,0,0,3.49-6,14.75,14.75,0,0,0-1.54-11.54,11.87,11.87,0,0,0-1.79-2.21q-.33-.32-.69-.6l-.31-.24c-.2-.14-.4-.29-.61-.42l-.28-.18c-.31-.18-.62-.36-1-.51h0a12.45,12.45,0,0,0-5.33-1.12H164.8a5.7,5.7,0,0,1-5.75-4.54v-.08a7.19,7.19,0,0,1-.08-2.92h0c0-.16.06-.32.09-.47v.08a5.92,5.92,0,0,1,2.2-3.44h0a5.45,5.45,0,0,1,1.06-.59l.28-.11.24-.07a3.37,3.37,0,0,1,.34-.09l.23,0,.41-.07.21,0q.32,0,.66,0h87.06c.51,0,1,0,1.5-.07s.87-.08,1.3-.14h0c6-.85,9.83-4.38,11.35-8.56a12.71,12.71,0,0,0,.77-4.83v0c0-.37-.05-.74-.1-1.11v0c-.05-.36-.11-.72-.19-1.07l0-.08c-.08-.35-.18-.69-.29-1l0-.08c-.12-.34-.24-.67-.38-1l0-.09c-.15-.33-.31-.65-.48-1l0-.06c-.14-.25-.29-.49-.45-.73l-.14-.22,0,0a12.36,12.36,0,0,0-1.27-1.54h0c-.08-.09-.17-.16-.26-.25l-.61-.55c-.14-.12-.3-.23-.45-.35s-.33-.25-.51-.37l-.57-.36-.45-.27c-.23-.12-.46-.25-.7-.36l-.37-.16c-.28-.13-.57-.26-.87-.37h0a16.67,16.67,0,0,0-3.74-.86l-.1,0h0c-.71-.07-1.44-.13-2.21-.13l-23.15,0q-.36,0-.69,0v0a5.68,5.68,0,0,1-5-3.91h0c-1-3,.52-6.79,5-7.12v0a6.39,6.39,0,0,1,.64,0h60.69c7.41,0,11.81-4.33,13.23-9.49a14.25,14.25,0,0,0-.64-9.31h0a12.3,12.3,0,0,0-5.93-6.24l-.32-.16-.68-.28L295,7.42l-.61-.21c-.38-.11-.76-.2-1.16-.28l-.48-.08a9.64,9.64,0,0,0-1-.14l-.46,0c-.48,0-1-.07-1.47-.07H83.72c-.51,0-1,0-1.49.06a15.44,15.44,0,0,0-10,4h0c-.06.05-.11.11-.17.17a11.69,11.69,0,0,0-1.22,1.43l-.07.09c-.2.28-.39.58-.57.88v0A12.23,12.23,0,0,0,69,22.91h0v0a12.84,12.84,0,0,0,.51,1.43.05.05,0,0,1,0,0c.19.42.41.84.64,1.25l.17.26c.21.34.44.67.69,1,.06.08.12.17.19.25a11.11,11.11,0,0,0,1,1.08s0,0,0,0h0a15,15,0,0,0,8.67,3.92h0a21.64,21.64,0,0,0,2.86.2h106.6a7.1,7.1,0,0,1,3.43.81v0a5.32,5.32,0,0,1,2.28,7h0a5.44,5.44,0,0,1-2.3,2.39v0a7.13,7.13,0,0,1-2.57.82h-.14a8.19,8.19,0,0,1-1,.06H121.88a15.77,15.77,0,0,0-1.71.09l-.26,0c-.47.05-.92.12-1.36.21l-.13,0c-.48.1-1,.23-1.4.37h0a12.55,12.55,0,0,0-6.42,4.68h0l0,0c-.11.15-.2.31-.3.46a13.92,13.92,0,0,0-2.17,8.07v.07h0C108.39,63.88,112.9,70,121.88,70h5a5.54,5.54,0,0,1,.59,0l.19,0,.37.07.21,0,.31.09.21.08.28.11.2.1.25.14.19.13c.07,0,.14.1.21.15l.19.15.16.15.21.2h0A6.06,6.06,0,0,1,132,74.85h0c.41,3.21-1.37,6.83-5.49,6.83h-76c-.47,0-.91,0-1.35.07l-.43,0-.84.13-.48.1-.8.22-.37.11h0a11,11,0,0,0-2.39,1.16h0l-.08.06a11,11,0,0,0-1,.69l-.16.14q-.41.35-.78.72l-.18.19c-.23.25-.46.51-.67.78l-.16.21c-.2.27-.4.55-.58.84l-.13.22c-.18.3-.35.6-.51.92a1.86,1.86,0,0,1-.1.2c-.15.33-.3.67-.43,1l-.06.16c-.14.38-.26.76-.37,1.14a.24.24,0,0,0,0,.08A15.09,15.09,0,0,0,40.3,103Z"/><path class="cls-2" d="M261.41,373.68h0l0-.08c-.06-.1-.11-.2-.18-.3l0,0h0a12.57,12.57,0,0,0-8.69-5.75h0l-.14,0c-.43-.07-.86-.14-1.32-.18s-1-.07-1.57-.07H112.64c-.57,0-1.11,0-1.64.07l-.35,0c-.49.05-1,.11-1.42.18l-.44.08-1,.22-.69.19c-.25.07-.51.15-.75.24l-.61.22c-.3.11-.58.23-.86.36h0a12.92,12.92,0,0,0-5.56,4.79h0v0a12.23,12.23,0,0,0,4.55,17.29h0l.1.05c.29.17.59.33.91.48h0a18.32,18.32,0,0,0,7.82,1.6h4.63c.27,0,.54,0,.79,0l.14,0c.21,0,.42.05.62.09l.07,0a5.88,5.88,0,0,1,3.3,1.84v0c.11.13.21.27.31.4a5.37,5.37,0,0,1,.93,4.18h0a5,5,0,0,1-.45,1.3,5.49,5.49,0,0,1-.78,1.16v0a6.73,6.73,0,0,1-5.21,2H20.74a13.3,13.3,0,0,0-1.43.07,11.57,11.57,0,0,0-1.2.15H18a13,13,0,0,0-7.49,3.86h0l-.41.49c-.08.1-.17.19-.24.29A13.76,13.76,0,0,0,7,418v.06c0,.35,0,.7.08,1.05v.07c0,.35.09.7.15,1v0a12.93,12.93,0,0,0,2.37,5.39c.22.28.44.55.68.81s.33.33.49.49l.36.35c.21.19.44.37.66.54l.28.22c.26.19.53.36.81.53l.21.13q.47.27,1,.51l.14.07c.36.16.72.31,1.1.44l.1,0a11.52,11.52,0,0,0,1.22.36l.06,0c.43.11.88.2,1.34.27h0a18,18,0,0,0,2.72.22H206.62c.48,0,.95,0,1.4-.06s.65-.05,1-.09h.07a14.77,14.77,0,0,0,8.69-3.86h0l0,0c.33-.33.64-.67.94-1h0a12.54,12.54,0,0,0,2.08-3.69,12.85,12.85,0,0,0,.77-4.94h0c0-.37-.06-.74-.11-1.11v-.05c-.06-.36-.12-.73-.21-1.08,0,0,0,0,0-.06-.09-.36-.19-.71-.3-1.06l0-.06c-.12-.35-.26-.69-.41-1l0-.05a9.4,9.4,0,0,0-.51-1l0,0c-.12-.22-.27-.43-.4-.63s-.14-.23-.21-.33l0,0c-.22-.31-.46-.61-.71-.9l0,0a10.45,10.45,0,0,0-.8-.83l0,0h0l-.32-.29h0l-.72-.57-.18-.13c-.24-.17-.48-.34-.73-.49l-.21-.13a12.08,12.08,0,0,0-1.39-.71l-.43-.2-.64-.23c-.21-.07-.42-.15-.64-.21l-.64-.18-.77-.17-.61-.13c-.4-.06-.8-.11-1.21-.15a18.79,18.79,0,0,0-2-.11l-32.8,0H158.71a6.43,6.43,0,0,1-1.75-.25v0a5.68,5.68,0,0,1-4.22-5h0a5.12,5.12,0,0,1,4.21-5.68h0a8.13,8.13,0,0,1,1.7-.18h90.79a17.07,17.07,0,0,0,3-.27h0a13.47,13.47,0,0,0,4.55-1.68l0,0a11.38,11.38,0,0,0,1.22-.83h0a12.18,12.18,0,0,0,2.89-3.2h0v0a12.67,12.67,0,0,0,1.22-2.58l0,0c.09-.27.16-.56.24-.84s.1-.31.14-.47a.5.5,0,0,1,0-.12c.1-.42.17-.84.23-1.27,0,0,0-.06,0-.08h0A13.94,13.94,0,0,0,261.41,373.68Z"/></g></g></svg>