<svg xmlns="http://www.w3.org/2000/svg" viewBox="0 0 87 1200"><defs><style>.cls-1{fill:#9bd1d3;stroke:#eae7b9;stroke-miterlimit:10;stroke-width:2px;}</style></defs><title>footer-bg</title><g id="footer-bg"><circle class="cls-1" cx="0.06" cy="44.6" r="43.1"/><circle class="cls-1" cx="0.06" cy="44.6" r="30.17"/><circle class="cls-1" cx="0.06" cy="44.6" r="15.69"/><circle class="cls-1" cx="87.15" cy="44.6" r="43.1"/><circle class="cls-1" cx="87.15" cy="44.6" r="30.17"/><circle class="cls-1" cx="87.15" cy="44.6" r="15.69"/><circle class="cls-1" cx="87.15" cy="44.6" r="43.1"/><circle class="cls-1" cx="87.15" cy="44.6" r="30.17"/><circle class="cls-1" cx="87.15" cy="44.6" r="15.69"/><circle class="cls-1" cx="-43.92" cy="65.55" r="43.1"/><circle class="cls-1" cx="-43.92" cy="65.55" r="43.1"/><circle class="cls-1" cx="43.17" cy="65.55" r="43.1"/><circle class="cls-1" cx="43.17" cy="65.55" r="30.17"/><circle class="cls-1" cx="43.17" cy="65.55" r="15.69"/><circle class="cls-1" cx="130.26" cy="65.55" r="43.1"/><circle class="cls-1" cx="130.26" cy="65.55" r="43.1"/><circle class="cls-1" cx="0.06" cy="84.6" r="43.1"/><circle class="cls-1" cx="0.06" cy="84.6" r="30.17"/><circle class="cls-1" cx="0.06" cy="84.6" r="15.69"/><circle class="cls-1" cx="87.15" cy="84.6" r="43.1"/><circle class="cls-1" cx="87.15" cy="84.6" r="30.17"/><circle class="cls-1" cx="87.15" cy="84.6" r="15.69"/><circle class="cls-1" cx="87.15" cy="84.6" r="43.1"/><circle class="cls-1" cx="87.15" cy="84.6" r="30.17"/><circle class="cls-1" cx="87.15" cy="84.6" r="15.69"/><circle class="cls-1" cx="-43.92" cy="105.55" r="43.1"/><circle class="cls-1" cx="-43.92" cy="105.55" r="43.1"/><circle class="cls-1" cx="43.17" cy="105.55" r="43.1"/><circle class="cls-1" cx="43.17" cy="105.55" r="30.17"/><circle class="cls-1" cx="43.17" cy="105.55" r="15.69"/><circle class="cls-1" cx="130.26" cy="105.55" r="43.1"/><circle class="cls-1" cx="130.26" cy="105.55" r="43.1"/><circle class="cls-1" cx="0.06" cy="124.6" r="43.1"/><circle class="cls-1" cx="0.06" cy="124.6" r="30.17"/><circle class="cls-1" cx="0.06" cy="124.6" r="15.69"/><circle class="cls-1" cx="87.15" cy="124.6" r="43.1"/><circle class="cls-1" cx="87.15" cy="124.6" r="30.17"/><circle class="cls-1" cx="87.15" cy="124.6" r="15.69"/><circle class="cls-1" cx="87.15" cy="124.6" r="43.1"/><circle class="cls-1" cx="87.15" cy="124.6" r="30.17"/><circle class="cls-1" cx="87.15" cy="124.6" r="15.69"/><circle class="cls-1" cx="-43.92" cy="145.55" r="43.1"/><circle class="cls-1" cx="-43.92" cy="145.55" r="43.1"/><circle class="cls-1" cx="43.17" cy="145.55" r="43.1"/><circle class="cls-1" cx="43.17" cy="145.55" r="30.17"/><circle class="cls-1" cx="43.17" cy="145.55" r="15.69"/><circle class="cls-1" cx="130.26" cy="145.55" r="43.1"/><circle class="cls-1" cx="130.26" cy="145.55" r="43.1"/><circle class="cls-1" cx="0.06" cy="164.6" r="43.1"/><circle class="cls-1" cx="0.06" cy="164.6" r="30.17"/><circle class="cls-1" cx="0.06" cy="164.6" r="15.69"/><circle class="cls-1" cx="87.15" cy="164.6" r="43.1"/><circle class="cls-1" cx="87.15" cy="164.6" r="30.17"/><circle class="cls-1" cx="87.15" cy="164.6" r="15.69"/><circle class="cls-1" cx="87.15" cy="164.6" r="43.1"/><circle class="cls-1" cx="87.15" cy="164.6" r="30.17"/><circle class="cls-1" cx="87.15" cy="164.6" r="15.69"/><circle class="cls-1" cx="-43.92" cy="185.55" r="43.1"/><circle class="cls-1" cx="-43.92" cy="185.55" r="43.1"/><circle class="cls-1" cx="43.17" cy="185.55" r="43.1"/><circle class="cls-1" cx="43.17" cy="185.55" r="30.17"/><circle class="cls-1" cx="43.17" cy="185.55" r="15.69"/><circle class="cls-1" cx="130.26" cy="185.55" r="43.1"/><circle class="cls-1" cx="130.26" cy="185.55" r="43.1"/><circle class="cls-1" cx="0.06" cy="204.6" r="43.1"/><circle class="cls-1" cx="0.06" cy="204.6" r="30.17"/><circle class="cls-1" cx="0.06" cy="204.6" r="15.69"/><circle class="cls-1" cx="87.15" cy="204.6" r="43.1"/><circle class="cls-1" cx="87.15" cy="204.6" r="30.17"/><circle class="cls-1" cx="87.15" cy="204.6" r="15.69"/><circle class="cls-1" cx="87.15" cy="204.6" r="43.1"/><circle class="cls-1" cx="87.15" cy="204.6" r="30.17"/><circle class="cls-1" cx="87.15" cy="204.6" r="15.69"/><circle class="cls-1" cx="-43.92" cy="225.55" r="43.1"/><circle class="cls-1" cx="-43.92" cy="225.55" r="43.1"/><circle class="cls-1" cx="43.17" cy="225.55" r="43.1"/><circle class="cls-1" cx="43.17" cy="225.55" r="30.17"/><circle class="cls-1" cx="43.17" cy="225.55" r="15.69"/><circle class="cls-1" cx="130.26" cy="225.55" r="43.1"/><circle class="cls-1" cx="130.26" cy="225.55" r="43.1"/><circle class="cls-1" cx="0.06" cy="244.6" r="43.1"/><circle class="cls-1" cx="0.06" cy="244.6" r="30.17"/><circle class="cls-1" cx="0.06" cy="244.6" r="15.69"/><circle class="cls-1" cx="87.15" cy="244.6" r="43.1"/><circle class="cls-1" cx="87.15" cy="244.6" r="30.17"/><circle class="cls-1" cx="87.15" cy="244.6" r="15.69"/><circle class="cls-1" cx="87.15" cy="244.6" r="43.1"/><circle class="cls-1" cx="87.15" cy="244.6" r="30.17"/><circle class="cls-1" cx="87.15" cy="244.6" r="15.69"/><circle class="cls-1" cx="-43.92" cy="265.55" r="43.1"/><circle class="cls-1" cx="-43.92" cy="265.55" r="43.1"/><circle class="cls-1" cx="43.17" cy="265.55" r="43.1"/><circle class="cls-1" cx="43.17" cy="265.55" r="30.17"/><circle class="cls-1" cx="43.17" cy="265.55" r="15.69"/><circle class="cls-1" cx="130.26" cy="265.55" r="43.1"/><circle class="cls-1" cx="130.26" cy="265.55" r="43.1"/><circle class="cls-1" cx="0.06" cy="284.6" r="43.1"/><circle class="cls-1" cx="0.06" cy="284.6" r="30.17"/><circle class="cls-1" cx="0.06" cy="284.6" r="15.69"/><circle class="cls-1" cx="87.15" cy="284.6" r="43.1"/><circle class="cls-1" cx="87.15" cy="284.6" r="30.17"/><circle class="cls-1" cx="87.15" cy="284.6" r="15.69"/><circle class="cls-1" cx="87.15" cy="284.6" r="43.1"/><circle class="cls-1" cx="87.15" cy="284.6" r="30.17"/><circle class="cls-1" cx="87.15" cy="284.6" r="15.69"/><circle class="cls-1" cx="-43.92" cy="305.55" r="43.1"/><circle class="cls-1" cx="-43.92" cy="305.55" r="43.1"/><circle class="cls-1" cx="43.17" cy="305.55" r="43.1"/><circle class="cls-1" cx="43.17" cy="305.55" r="30.17"/><circle class="cls-1" cx="43.17" cy="305.55" r="15.69"/><circle class="cls-1" cx="130.26" cy="305.55" r="43.1"/><circle class="cls-1" cx="130.26" cy="305.55" r="43.1"/><circle class="cls-1" cx="0.06" cy="324.6" r="43.1"/><circle class="cls-1" cx="0.06" cy="324.6" r="30.17"/><circle class="cls-1" cx="0.06" cy="324.6" r="15.69"/><circle class="cls-1" cx="87.15" cy="324.6" r="43.1"/><circle class="cls-1" cx="87.15" cy="324.6" r="30.17"/><circle class="cls-1" cx="87.15" cy="324.6" r="15.69"/><circle class="cls-1" cx="87.15" cy="324.6" r="43.1"/><circle class="cls-1" cx="87.15" cy="324.6" r="30.17"/><circle class="cls-1" cx="87.15" cy="324.6" r="15.69"/><circle class="cls-1" cx="-43.92" cy="345.55" r="43.1"/><circle class="cls-1" cx="-43.92" cy="345.55" r="43.1"/><circle class="cls-1" cx="43.17" cy="345.55" r="43.1"/><circle class="cls-1" cx="43.17" cy="345.55" r="30.17"/><circle class="cls-1" cx="43.17" cy="345.55" r="15.69"/><circle class="cls-1" cx="130.26" cy="345.55" r="43.1"/><circle class="cls-1" cx="130.26" cy="345.55" r="43.1"/><circle class="cls-1" cx="0.06" cy="364.6" r="43.1"/><circle class="cls-1" cx="0.06" cy="364.6" r="30.17"/><circle class="cls-1" cx="0.06" cy="364.6" r="15.69"/><circle class="cls-1" cx="87.15" cy="364.6" r="43.1"/><circle class="cls-1" cx="87.15" cy="364.6" r="30.17"/><circle class="cls-1" cx="87.15" cy="364.6" r="15.69"/><circle class="cls-1" cx="87.15" cy="364.6" r="43.1"/><circle class="cls-1" cx="87.15" cy="364.6" r="30.17"/><circle class="cls-1" cx="87.15" cy="364.6" r="15.69"/><circle class="cls-1" cx="-43.92" cy="385.55" r="43.1"/><circle class="cls-1" cx="-43.92" cy="385.55" r="43.1"/><circle class="cls-1" cx="43.17" cy="385.55" r="43.1"/><circle class="cls-1" cx="43.17" cy="385.55" r="30.17"/><circle class="cls-1" cx="43.17" cy="385.55" r="15.69"/><circle class="cls-1" cx="130.26" cy="385.55" r="43.1"/><circle class="cls-1" cx="130.26" cy="385.55" r="43.1"/><circle class="cls-1" cx="0.06" cy="404.6" r="43.1"/><circle class="cls-1" cx="0.06" cy="404.6" r="30.17"/><circle class="cls-1" cx="0.06" cy="404.6" r="15.69"/><circle class="cls-1" cx="87.15" cy="404.6" r="43.1"/><circle class="cls-1" cx="87.15" cy="404.6" r="30.17"/><circle class="cls-1" cx="87.15" cy="404.6" r="15.69"/><circle class="cls-1" cx="87.15" cy="404.6" r="43.1"/><circle class="cls-1" cx="87.15" cy="404.6" r="30.17"/><circle class="cls-1" cx="87.15" cy="404.6" r="15.69"/><circle class="cls-1" cx="-43.92" cy="425.55" r="43.1"/><circle class="cls-1" cx="-43.92" cy="425.55" r="43.1"/><circle class="cls-1" cx="43.17" cy="425.55" r="43.1"/><circle class="cls-1" cx="43.17" cy="425.55" r="30.17"/><circle class="cls-1" cx="43.17" cy="425.55" r="15.69"/><circle class="cls-1" cx="130.26" cy="425.55" r="43.1"/><circle class="cls-1" cx="130.26" cy="425.55" r="43.1"/><circle class="cls-1" cx="0.06" cy="444.6" r="43.1"/><circle class="cls-1" cx="0.06" cy="444.6" r="30.17"/><circle class="cls-1" cx="0.06" cy="444.6" r="15.69"/><circle class="cls-1" cx="87.15" cy="444.6" r="43.1"/><circle class="cls-1" cx="87.15" cy="444.6" r="30.17"/><circle class="cls-1" cx="87.15" cy="444.6" r="15.69"/><circle class="cls-1" cx="87.15" cy="444.6" r="43.1"/><circle class="cls-1" cx="87.15" cy="444.6" r="30.17"/><circle class="cls-1" cx="87.15" cy="444.6" r="15.69"/><circle class="cls-1" cx="-43.92" cy="465.55" r="43.1"/><circle class="cls-1" cx="-43.92" cy="465.55" r="43.1"/><circle class="cls-1" cx="43.17" cy="465.55" r="43.1"/><circle class="cls-1" cx="43.17" cy="465.55" r="30.17"/><circle class="cls-1" cx="43.17" cy="465.55" r="15.69"/><circle class="cls-1" cx="130.26" cy="465.55" r="43.1"/><circle class="cls-1" cx="130.26" cy="465.55" r="43.1"/><circle class="cls-1" cx="0.06" cy="484.6" r="43.1"/><circle class="cls-1" cx="0.06" cy="484.6" r="30.17"/><circle class="cls-1" cx="0.06" cy="484.6" r="15.69"/><circle class="cls-1" cx="87.15" cy="484.6" r="43.1"/><circle class="cls-1" cx="87.15" cy="484.6" r="30.17"/><circle class="cls-1" cx="87.15" cy="484.6" r="15.69"/><circle class="cls-1" cx="87.15" cy="484.6" r="43.1"/><circle class="cls-1" cx="87.15" cy="484.6" r="30.17"/><circle class="cls-1" cx="87.15" cy="484.6" r="15.69"/><circle class="cls-1" cx="-43.92" cy="505.55" r="43.1"/><circle class="cls-1" cx="-43.92" cy="505.55" r="43.1"/><circle class="cls-1" cx="43.17" cy="505.55" r="43.1"/><circle class="cls-1" cx="43.17" cy="505.55" r="30.17"/><circle class="cls-1" cx="43.17" cy="505.55" r="15.69"/><circle class="cls-1" cx="130.26" cy="505.55" r="43.1"/><circle class="cls-1" cx="130.26" cy="505.55" r="43.1"/><circle class="cls-1" cx="0.06" cy="524.6" r="43.1"/><circle class="cls-1" cx="0.06" cy="524.6" r="30.17"/><circle class="cls-1" cx="0.06" cy="524.6" r="15.69"/><circle class="cls-1" cx="87.15" cy="524.6" r="43.1"/><circle class="cls-1" cx="87.15" cy="524.6" r="30.17"/><circle class="cls-1" cx="87.15" cy="524.6" r="15.69"/><circle class="cls-1" cx="87.15" cy="524.6" r="43.1"/><circle class="cls-1" cx="87.15" cy="524.6" r="30.17"/><circle class="cls-1" cx="87.15" cy="524.6" r="15.69"/><circle class="cls-1" cx="-43.92" cy="545.55" r="43.1"/><circle class="cls-1" cx="-43.92" cy="545.55" r="43.1"/><circle class="cls-1" cx="43.17" cy="545.55" r="43.1"/><circle class="cls-1" cx="43.17" cy="545.55" r="30.17"/><circle class="cls-1" cx="43.17" cy="545.55" r="15.69"/><circle class="cls-1" cx="130.26" cy="545.55" r="43.1"/><circle class="cls-1" cx="130.26" cy="545.55" r="43.1"/><circle class="cls-1" cx="0.06" cy="564.6" r="43.1"/><circle class="cls-1" cx="0.06" cy="564.6" r="30.17"/><circle class="cls-1" cx="0.06" cy="564.6" r="15.69"/><circle class="cls-1" cx="87.15" cy="564.6" r="43.1"/><circle class="cls-1" cx="87.15" cy="564.6" r="30.17"/><circle class="cls-1" cx="87.15" cy="564.6" r="15.69"/><circle class="cls-1" cx="87.15" cy="564.6" r="43.1"/><circle class="cls-1" cx="87.15" cy="564.6" r="30.17"/><circle class="cls-1" cx="87.15" cy="564.6" r="15.69"/><circle class="cls-1" cx="-43.92" cy="585.55" r="43.1"/><circle class="cls-1" cx="-43.92" cy="585.55" r="43.1"/><circle class="cls-1" cx="43.17" cy="585.55" r="43.1"/><circle class="cls-1" cx="43.17" cy="585.55" r="30.17"/><circle class="cls-1" cx="43.17" cy="585.55" r="15.69"/><circle class="cls-1" cx="130.26" cy="585.55" r="43.1"/><circle class="cls-1" cx="130.26" cy="585.55" r="43.1"/><circle class="cls-1" cx="0.06" cy="604.6" r="43.1"/><circle class="cls-1" cx="0.06" cy="604.6" r="30.17"/><circle class="cls-1" cx="0.06" cy="604.6" r="15.69"/><circle class="cls-1" cx="87.15" cy="604.6" r="43.1"/><circle class="cls-1" cx="87.15" cy="604.6" r="30.17"/><circle class="cls-1" cx="87.15" cy="604.6" r="15.69"/><circle class="cls-1" cx="87.15" cy="604.6" r="43.1"/><circle class="cls-1" cx="87.15" cy="604.6" r="30.17"/><circle class="cls-1" cx="87.15" cy="604.6" r="15.69"/><circle class="cls-1" cx="-43.92" cy="625.55" r="43.1"/><circle class="cls-1" cx="-43.92" cy="625.55" r="43.1"/><circle class="cls-1" cx="43.17" cy="625.55" r="43.1"/><circle class="cls-1" cx="43.17" cy="625.55" r="30.17"/><circle class="cls-1" cx="43.17" cy="625.55" r="15.69"/><circle class="cls-1" cx="130.26" cy="625.55" r="43.1"/><circle class="cls-1" cx="130.26" cy="625.55" r="43.1"/><circle class="cls-1" cx="0.06" cy="644.6" r="43.1"/><circle class="cls-1" cx="0.06" cy="644.6" r="30.17"/><circle class="cls-1" cx="0.06" cy="644.6" r="15.69"/><circle class="cls-1" cx="87.15" cy="644.6" r="43.1"/><circle class="cls-1" cx="87.15" cy="644.6" r="30.17"/><circle class="cls-1" cx="87.15" cy="644.6" r="15.69"/><circle class="cls-1" cx="87.15" cy="644.6" r="43.1"/><circle class="cls-1" cx="87.15" cy="644.6" r="30.17"/><circle class="cls-1" cx="87.15" cy="644.6" r="15.69"/><circle class="cls-1" cx="-43.92" cy="665.55" r="43.1"/><circle class="cls-1" cx="-43.92" cy="665.55" r="43.1"/><circle class="cls-1" cx="43.17" cy="665.55" r="43.1"/><circle class="cls-1" cx="43.17" cy="665.55" r="30.17"/><circle class="cls-1" cx="43.17" cy="665.55" r="15.69"/><circle class="cls-1" cx="130.26" cy="665.55" r="43.1"/><circle class="cls-1" cx="130.26" cy="665.55" r="43.1"/><circle class="cls-1" cx="0.06" cy="644.6" r="43.1"/><circle class="cls-1" cx="0.06" cy="644.6" r="30.17"/><circle class="cls-1" cx="0.06" cy="644.6" r="15.69"/><circle class="cls-1" cx="87.15" cy="644.6" r="43.1"/><circle class="cls-1" cx="87.15" cy="644.6" r="30.17"/><circle class="cls-1" cx="87.15" cy="644.6" r="15.69"/><circle class="cls-1" cx="87.15" cy="644.6" r="43.1"/><circle class="cls-1" cx="87.15" cy="644.6" r="30.17"/><circle class="cls-1" cx="87.15" cy="644.6" r="15.69"/><circle class="cls-1" cx="-43.92" cy="665.55" r="43.1"/><circle class="cls-1" cx="-43.92" cy="665.55" r="43.1"/><circle class="cls-1" cx="43.17" cy="665.55" r="43.1"/><circle class="cls-1" cx="43.17" cy="665.55" r="30.17"/><circle class="cls-1" cx="43.17" cy="665.55" r="15.69"/><circle class="cls-1" cx="130.26" cy="665.55" r="43.1"/><circle class="cls-1" cx="130.26" cy="665.55" r="43.1"/><circle class="cls-1" cx="0.06" cy="644.6" r="43.1"/><circle class="cls-1" cx="0.06" cy="644.6" r="30.17"/><circle class="cls-1" cx="0.06" cy="644.6" r="15.69"/><circle class="cls-1" cx="87.15" cy="644.6" r="43.1"/><circle class="cls-1" cx="87.15" cy="644.6" r="30.17"/><circle class="cls-1" cx="87.15" cy="644.6" r="15.69"/><circle class="cls-1" cx="87.15" cy="644.6" r="43.1"/><circle class="cls-1" cx="87.15" cy="644.6" r="30.17"/><circle class="cls-1" cx="87.15" cy="644.6" r="15.69"/><circle class="cls-1" cx="-43.92" cy="665.55" r="43.1"/><circle class="cls-1" cx="-43.92" cy="665.55" r="43.1"/><circle class="cls-1" cx="43.17" cy="665.55" r="43.1"/><circle class="cls-1" cx="43.17" cy="665.55" r="30.17"/><circle class="cls-1" cx="43.17" cy="665.55" r="15.69"/><circle class="cls-1" cx="130.26" cy="665.55" r="43.1"/><circle class="cls-1" cx="130.26" cy="665.55" r="43.1"/><circle class="cls-1" cx="0.06" cy="684.6" r="43.1"/><circle class="cls-1" cx="0.06" cy="684.6" r="30.17"/><circle class="cls-1" cx="0.06" cy="684.6" r="15.69"/><circle class="cls-1" cx="87.15" cy="684.6" r="43.1"/><circle class="cls-1" cx="87.15" cy="684.6" r="30.17"/><circle class="cls-1" cx="87.15" cy="684.6" r="15.69"/><circle class="cls-1" cx="87.15" cy="684.6" r="43.1"/><circle class="cls-1" cx="87.15" cy="684.6" r="30.17"/><circle class="cls-1" cx="87.15" cy="684.6" r="15.69"/><circle class="cls-1" cx="-43.92" cy="705.55" r="43.1"/><circle class="cls-1" cx="-43.92" cy="705.55" r="43.1"/><circle class="cls-1" cx="43.17" cy="705.55" r="43.1"/><circle class="cls-1" cx="43.17" cy="705.55" r="30.17"/><circle class="cls-1" cx="43.17" cy="705.55" r="15.69"/><circle class="cls-1" cx="130.26" cy="705.55" r="43.1"/><circle class="cls-1" cx="130.26" cy="705.55" r="43.1"/><circle class="cls-1" cx="0.06" cy="724.6" r="43.1"/><circle class="cls-1" cx="0.06" cy="724.6" r="30.17"/><circle class="cls-1" cx="0.06" cy="724.6" r="15.69"/><circle class="cls-1" cx="87.15" cy="724.6" r="43.1"/><circle class="cls-1" cx="87.15" cy="724.6" r="30.17"/><circle class="cls-1" cx="87.15" cy="724.6" r="15.69"/><circle class="cls-1" cx="87.15" cy="724.6" r="43.1"/><circle class="cls-1" cx="87.15" cy="724.6" r="30.17"/><circle class="cls-1" cx="87.15" cy="724.6" r="15.69"/><circle class="cls-1" cx="-43.92" cy="745.55" r="43.1"/><circle class="cls-1" cx="-43.92" cy="745.55" r="43.1"/><circle class="cls-1" cx="43.17" cy="745.55" r="43.1"/><circle class="cls-1" cx="43.17" cy="745.55" r="30.17"/><circle class="cls-1" cx="43.17" cy="745.55" r="15.69"/><circle class="cls-1" cx="130.26" cy="745.55" r="43.1"/><circle class="cls-1" cx="130.26" cy="745.55" r="43.1"/><circle class="cls-1" cx="0.06" cy="764.6" r="43.1"/><circle class="cls-1" cx="0.06" cy="764.6" r="30.17"/><circle class="cls-1" cx="0.06" cy="764.6" r="15.69"/><circle class="cls-1" cx="87.15" cy="764.6" r="43.1"/><circle class="cls-1" cx="87.15" cy="764.6" r="30.17"/><circle class="cls-1" cx="87.15" cy="764.6" r="15.69"/><circle class="cls-1" cx="87.15" cy="764.6" r="43.1"/><circle class="cls-1" cx="87.15" cy="764.6" r="30.17"/><circle class="cls-1" cx="87.15" cy="764.6" r="15.69"/><circle class="cls-1" cx="-43.92" cy="785.55" r="43.1"/><circle class="cls-1" cx="-43.92" cy="785.55" r="43.1"/><circle class="cls-1" cx="43.17" cy="785.55" r="43.1"/><circle class="cls-1" cx="43.17" cy="785.55" r="30.17"/><circle class="cls-1" cx="43.17" cy="785.55" r="15.69"/><circle class="cls-1" cx="130.26" cy="785.55" r="43.1"/><circle class="cls-1" cx="130.26" cy="785.55" r="43.1"/><circle class="cls-1" cx="0.06" cy="804.6" r="43.1"/><circle class="cls-1" cx="0.06" cy="804.6" r="30.17"/><circle class="cls-1" cx="0.06" cy="804.6" r="15.69"/><circle class="cls-1" cx="87.15" cy="804.6" r="43.1"/><circle class="cls-1" cx="87.15" cy="804.6" r="30.17"/><circle class="cls-1" cx="87.15" cy="804.6" r="15.69"/><circle class="cls-1" cx="87.15" cy="804.6" r="43.1"/><circle class="cls-1" cx="87.15" cy="804.6" r="30.17"/><circle class="cls-1" cx="87.15" cy="804.6" r="15.69"/><circle class="cls-1" cx="-43.92" cy="825.55" r="43.1"/><circle class="cls-1" cx="-43.92" cy="825.55" r="43.1"/><circle class="cls-1" cx="43.17" cy="825.55" r="43.1"/><circle class="cls-1" cx="43.17" cy="825.55" r="30.17"/><circle class="cls-1" cx="43.17" cy="825.55" r="15.69"/><circle class="cls-1" cx="130.26" cy="825.55" r="43.1"/><circle class="cls-1" cx="130.26" cy="825.55" r="43.1"/><circle class="cls-1" cx="0.06" cy="844.6" r="43.1"/><circle class="cls-1" cx="0.06" cy="844.6" r="30.17"/><circle class="cls-1" cx="0.06" cy="844.6" r="15.69"/><circle class="cls-1" cx="87.15" cy="844.6" r="43.1"/><circle class="cls-1" cx="87.15" cy="844.6" r="30.17"/><circle class="cls-1" cx="87.15" cy="844.6" r="15.69"/><circle class="cls-1" cx="87.15" cy="844.6" r="43.1"/><circle class="cls-1" cx="87.15" cy="844.6" r="30.17"/><circle class="cls-1" cx="87.15" cy="844.6" r="15.69"/><circle class="cls-1" cx="-43.92" cy="865.55" r="43.1"/><circle class="cls-1" cx="-43.92" cy="865.55" r="43.1"/><circle class="cls-1" cx="43.17" cy="865.55" r="43.1"/><circle class="cls-1" cx="43.17" cy="865.55" r="30.17"/><circle class="cls-1" cx="43.17" cy="865.55" r="15.69"/><circle class="cls-1" cx="130.26" cy="865.55" r="43.1"/><circle class="cls-1" cx="130.26" cy="865.55" r="43.1"/><circle class="cls-1" cx="0.06" cy="844.6" r="43.1"/><circle class="cls-1" cx="0.06" cy="844.6" r="30.17"/><circle class="cls-1" cx="0.06" cy="844.6" r="15.69"/><circle class="cls-1" cx="87.15" cy="844.6" r="43.1"/><circle class="cls-1" cx="87.15" cy="844.6" r="30.17"/><circle class="cls-1" cx="87.15" cy="844.6" r="15.69"/><circle class="cls-1" cx="87.15" cy="844.6" r="43.1"/><circle class="cls-1" cx="87.15" cy="844.6" r="30.17"/><circle class="cls-1" cx="87.15" cy="844.6" r="15.69"/><circle class="cls-1" cx="-43.92" cy="865.55" r="43.1"/><circle class="cls-1" cx="-43.92" cy="865.55" r="43.1"/><circle class="cls-1" cx="43.17" cy="865.55" r="43.1"/><circle class="cls-1" cx="43.17" cy="865.55" r="30.17"/><circle class="cls-1" cx="43.17" cy="865.55" r="15.69"/><circle class="cls-1" cx="130.26" cy="865.55" r="43.1"/><circle class="cls-1" cx="130.26" cy="865.55" r="43.1"/><circle class="cls-1" cx="0.06" cy="884.6" r="43.1"/><circle class="cls-1" cx="0.06" cy="884.6" r="30.17"/><circle class="cls-1" cx="0.06" cy="884.6" r="15.69"/><circle class="cls-1" cx="87.15" cy="884.6" r="43.1"/><circle class="cls-1" cx="87.15" cy="884.6" r="30.17"/><circle class="cls-1" cx="87.15" cy="884.6" r="15.69"/><circle class="cls-1" cx="87.15" cy="884.6" r="43.1"/><circle class="cls-1" cx="87.15" cy="884.6" r="30.17"/><circle class="cls-1" cx="87.15" cy="884.6" r="15.69"/><circle class="cls-1" cx="-43.92" cy="905.55" r="43.1"/><circle class="cls-1" cx="-43.92" cy="905.55" r="43.1"/><circle class="cls-1" cx="43.17" cy="905.55" r="43.1"/><circle class="cls-1" cx="43.17" cy="905.55" r="30.17"/><circle class="cls-1" cx="43.17" cy="905.55" r="15.69"/><circle class="cls-1" cx="130.26" cy="905.55" r="43.1"/><circle class="cls-1" cx="130.26" cy="905.55" r="43.1"/><circle class="cls-1" cx="0.06" cy="924.6" r="43.1"/><circle class="cls-1" cx="0.06" cy="924.6" r="30.17"/><circle class="cls-1" cx="0.06" cy="924.6" r="15.69"/><circle class="cls-1" cx="87.15" cy="924.6" r="43.1"/><circle class="cls-1" cx="87.15" cy="924.6" r="30.17"/><circle class="cls-1" cx="87.15" cy="924.6" r="15.69"/><circle class="cls-1" cx="87.15" cy="924.6" r="43.1"/><circle class="cls-1" cx="87.15" cy="924.6" r="30.17"/><circle class="cls-1" cx="87.15" cy="924.6" r="15.69"/><circle class="cls-1" cx="-43.92" cy="945.55" r="43.1"/><circle class="cls-1" cx="-43.92" cy="945.55" r="43.1"/><circle class="cls-1" cx="43.17" cy="945.55" r="43.1"/><circle class="cls-1" cx="43.17" cy="945.55" r="30.17"/><circle class="cls-1" cx="43.17" cy="945.55" r="15.69"/><circle class="cls-1" cx="130.26" cy="945.55" r="43.1"/><circle class="cls-1" cx="130.26" cy="945.55" r="43.1"/><circle class="cls-1" cx="0.06" cy="964.6" r="43.1"/><circle class="cls-1" cx="0.06" cy="964.6" r="30.17"/><circle class="cls-1" cx="0.06" cy="964.6" r="15.69"/><circle class="cls-1" cx="87.15" cy="964.6" r="43.1"/><circle class="cls-1" cx="87.15" cy="964.6" r="30.17"/><circle class="cls-1" cx="87.15" cy="964.6" r="15.69"/><circle class="cls-1" cx="87.15" cy="964.6" r="43.1"/><circle class="cls-1" cx="87.15" cy="964.6" r="30.17"/><circle class="cls-1" cx="87.15" cy="964.6" r="15.69"/><circle class="cls-1" cx="-43.92" cy="985.55" r="43.1"/><circle class="cls-1" cx="-43.92" cy="985.55" r="43.1"/><circle class="cls-1" cx="43.17" cy="985.55" r="43.1"/><circle class="cls-1" cx="43.17" cy="985.55" r="30.17"/><circle class="cls-1" cx="43.17" cy="985.55" r="15.69"/><circle class="cls-1" cx="130.26" cy="985.55" r="43.1"/><circle class="cls-1" cx="130.26" cy="985.55" r="43.1"/><circle class="cls-1" cx="0.06" cy="1004.6" r="43.1"/><circle class="cls-1" cx="0.06" cy="1004.6" r="30.17"/><circle class="cls-1" cx="0.06" cy="1004.6" r="15.69"/><circle class="cls-1" cx="87.15" cy="1004.6" r="43.1"/><circle class="cls-1" cx="87.15" cy="1004.6" r="30.17"/><circle class="cls-1" cx="87.15" cy="1004.6" r="15.69"/><circle class="cls-1" cx="87.15" cy="1004.6" r="43.1"/><circle class="cls-1" cx="87.15" cy="1004.6" r="30.17"/><circle class="cls-1" cx="87.15" cy="1004.6" r="15.69"/><circle class="cls-1" cx="-43.92" cy="1025.55" r="43.1"/><circle class="cls-1" cx="-43.92" cy="1025.55" r="43.1"/><circle class="cls-1" cx="43.17" cy="1025.55" r="43.1"/><circle class="cls-1" cx="43.17" cy="1025.55" r="30.17"/><circle class="cls-1" cx="43.17" cy="1025.55" r="15.69"/><circle class="cls-1" cx="130.26" cy="1025.55" r="43.1"/><circle class="cls-1" cx="130.26" cy="1025.55" r="43.1"/><circle class="cls-1" cx="0.06" cy="1044.6" r="43.1"/><circle class="cls-1" cx="0.06" cy="1044.6" r="30.17"/><circle class="cls-1" cx="0.06" cy="1044.6" r="15.69"/><circle class="cls-1" cx="87.15" cy="1044.6" r="43.1"/><circle class="cls-1" cx="87.15" cy="1044.6" r="30.17"/><circle class="cls-1" cx="87.15" cy="1044.6" r="15.69"/><circle class="cls-1" cx="87.15" cy="1044.6" r="43.1"/><circle class="cls-1" cx="87.15" cy="1044.6" r="30.17"/><circle class="cls-1" cx="87.15" cy="1044.6" r="15.69"/><circle class="cls-1" cx="-43.92" cy="1065.55" r="43.1"/><circle class="cls-1" cx="-43.92" cy="1065.55" r="43.1"/><circle class="cls-1" cx="43.17" cy="1065.55" r="43.1"/><circle class="cls-1" cx="43.17" cy="1065.55" r="30.17"/><circle class="cls-1" cx="43.17" cy="1065.55" r="15.69"/><circle class="cls-1" cx="130.26" cy="1065.55" r="43.1"/><circle class="cls-1" cx="130.26" cy="1065.55" r="43.1"/><circle class="cls-1" cx="0.06" cy="1084.6" r="43.1"/><circle class="cls-1" cx="0.06" cy="1084.6" r="30.17"/><circle class="cls-1" cx="0.06" cy="1084.6" r="15.69"/><circle class="cls-1" cx="87.15" cy="1084.6" r="43.1"/><circle class="cls-1" cx="87.15" cy="1084.6" r="30.17"/><circle class="cls-1" cx="87.15" cy="1084.6" r="15.69"/><circle class="cls-1" cx="87.15" cy="1084.6" r="43.1"/><circle class="cls-1" cx="87.15" cy="1084.6" r="30.17"/><circle class="cls-1" cx="87.15" cy="1084.6" r="15.69"/><circle class="cls-1" cx="-43.92" cy="1105.55" r="43.1"/><circle class="cls-1" cx="-43.92" cy="1105.55" r="43.1"/><circle class="cls-1" cx="43.17" cy="1105.55" r="43.1"/><circle class="cls-1" cx="43.17" cy="1105.55" r="30.17"/><circle class="cls-1" cx="43.17" cy="1105.55" r="15.69"/><circle class="cls-1" cx="130.26" cy="1105.55" r="43.1"/><circle class="cls-1" cx="130.26" cy="1105.55" r="43.1"/><circle class="cls-1" cx="0.06" cy="1124.6" r="43.1"/><circle class="cls-1" cx="0.06" cy="1124.6" r="30.17"/><circle class="cls-1" cx="0.06" cy="1124.6" r="15.69"/><circle class="cls-1" cx="87.15" cy="1124.6" r="43.1"/><circle class="cls-1" cx="87.15" cy="1124.6" r="30.17"/><circle class="cls-1" cx="87.15" cy="1124.6" r="15.69"/><circle class="cls-1" cx="87.15" cy="1124.6" r="43.1"/><circle class="cls-1" cx="87.15" cy="1124.6" r="30.17"/><circle class="cls-1" cx="87.15" cy="1124.6" r="15.69"/><circle class="cls-1" cx="-43.92" cy="1145.55" r="43.1"/><circle class="cls-1" cx="-43.92" cy="1145.55" r="43.1"/><circle class="cls-1" cx="43.17" cy="1145.55" r="43.1"/><circle class="cls-1" cx="43.17" cy="1145.55" r="30.17"/><circle class="cls-1" cx="43.17" cy="1145.55" r="15.69"/><circle class="cls-1" cx="130.26" cy="1145.55" r="43.1"/><circle class="cls-1" cx="130.26" cy="1145.55" r="43.1"/><circle class="cls-1" cx="0.06" cy="1164.6" r="43.1"/><circle class="cls-1" cx="0.06" cy="1164.6" r="30.17"/><circle class="cls-1" cx="0.06" cy="1164.6" r="15.69"/><circle class="cls-1" cx="87.15" cy="1164.6" r="43.1"/><circle class="cls-1" cx="87.15" cy="1164.6" r="30.17"/><circle class="cls-1" cx="87.15" cy="1164.6" r="15.69"/><circle class="cls-1" cx="87.15" cy="1164.6" r="43.1"/><circle class="cls-1" cx="87.15" cy="1164.6" r="30.17"/><circle class="cls-1" cx="87.15" cy="1164.6" r="15.69"/><circle class="cls-1" cx="-43.92" cy="1185.55" r="43.1"/><circle class="cls-1" cx="-43.92" cy="1185.55" r="43.1"/><circle class="cls-1" cx="43.17" cy="1185.55" r="43.1"/><circle class="cls-1" cx="43.17" cy="1185.55" r="30.17"/><circle class="cls-1" cx="43.17" cy="1185.55" r="15.69"/><circle class="cls-1" cx="130.26" cy="1185.55" r="43.1"/><circle class="cls-1" cx="130.26" cy="1185.55" r="43.1"/><circle class="cls-1" cx="0.06" cy="1204.6" r="43.1"/><circle class="cls-1" cx="0.06" cy="1204.6" r="30.17"/><circle class="cls-1" cx="0.06" cy="1204.6" r="15.69"/><circle class="cls-1" cx="87.15" cy="1204.6" r="43.1"/><circle class="cls-1" cx="87.15" cy="1204.6" r="30.17"/><circle class="cls-1" cx="87.15" cy="1204.6" r="15.69"/><circle class="cls-1" cx="87.15" cy="1204.6" r="43.1"/><circle class="cls-1" cx="87.15" cy="1204.6" r="30.17"/><circle class="cls-1" cx="87.15" cy="1204.6" r="15.69"/><circle class="cls-1" cx="-43.92" cy="1225.55" r="43.1"/><circle class="cls-1" cx="-43.92" cy="1225.55" r="43.1"/><circle class="cls-1" cx="43.17" cy="1225.55" r="43.1"/><circle class="cls-1" cx="43.17" cy="1225.55" r="30.17"/><circle class="cls-1" cx="130.26" cy="1225.55" r="43.1"/><circle class="cls-1" cx="130.26" cy="1225.55" r="43.1"/></g></svg>