<svg id="logo" xmlns="http://www.w3.org/2000/svg" viewBox="0 0 420 62"><defs><style>.cls-1{fill:#424133;}</style></defs><title>logo</title><path class="cls-1" d="M18.2,4.21c3.27,0,7.51.44,10.65,3.72a11.38,11.38,0,0,1,3,8.21,12.65,12.65,0,0,1-3.53,9.24,15.53,15.53,0,0,1-7.89,3.73L31.36,47h-10L12,29.81H11L8.9,47H.55L5.81,4.21Zm-6.48,19.7h2.95c2.25,0,5.07-.64,6.68-2.25a6.68,6.68,0,0,0,1.86-4.88,5.28,5.28,0,0,0-1.74-4.17c-1-.9-2.76-1.6-5.52-1.6H13.32Z"/><path class="cls-1" d="M45.05,19.22,43.39,33.09c-.26,2.24-.33,2.95-.33,3.33a4.55,4.55,0,0,0,1.16,3.4,5.38,5.38,0,0,0,3.91,1.42,6.16,6.16,0,0,0,4.3-1.54c1.48-1.42,1.8-3.34,2.12-5.84l1.8-14.64h7.83L62.32,34.56c-.64,5.14-1.86,9.12-6,11.49A17.38,17.38,0,0,1,48,47.91c-3.47,0-6.94-.77-9.18-2.37a9.11,9.11,0,0,1-3.72-7.64,34.59,34.59,0,0,1,.38-4.37l1.73-14.31Z"/><path class="cls-1" d="M78,22.82a9.61,9.61,0,0,1,3.47-3.08,11,11,0,0,1,5.84-1.42,11.64,11.64,0,0,1,8.54,3.08,12.88,12.88,0,0,1,3.78,9.76,18,18,0,0,1-4.81,12.77c-3.15,3.15-6.68,4-10.59,4a10.91,10.91,0,0,1-5.91-1.35,7.67,7.67,0,0,1-2.82-3.14L75.05,47H67.22L73,.23h7.83Zm.32,4.81A8.39,8.39,0,0,0,76,33.73,7.05,7.05,0,0,0,77.88,39a7.55,7.55,0,0,0,5.32,2A8.49,8.49,0,0,0,89,38.73a9.71,9.71,0,0,0,2.5-6.8,6.31,6.31,0,0,0-1.92-4.75,7.06,7.06,0,0,0-5.14-1.92A7.83,7.83,0,0,0,78.32,27.63Z"/><path class="cls-1" d="M112.07,42.84l-9.33-23.62h8.86L118.27,35l9.63-15.79H137l-27.6,42.49h-8.85Z"/><path class="cls-1" d="M150,21.28,167.56,4.21h9.69l-20.47,20L173,47H163L150.68,28.47,149.08,30,147,47h-8.35l5.27-42.8h8.34Z"/><path class="cls-1" d="M197.69,19.22h7.83L202.11,47h-7.83l.45-3.59a12.47,12.47,0,0,1-3.53,3.14A9.76,9.76,0,0,1,186,47.91a12.27,12.27,0,0,1-9.12-3.53,13.3,13.3,0,0,1-3.72-9.82,17,17,0,0,1,4.3-11.87,14.9,14.9,0,0,1,11-4.37A11.17,11.17,0,0,1,194,19.67a8.18,8.18,0,0,1,3.28,3.15Zm-13.61,8a8.86,8.86,0,0,0-2.76,6.41,7.51,7.51,0,0,0,2.12,5.52,7.17,7.17,0,0,0,5.13,1.8,8,8,0,0,0,5.52-2,9.12,9.12,0,0,0,2.76-6.67,7.2,7.2,0,0,0-1.92-4.95,7.09,7.09,0,0,0-5.4-2.11A7.94,7.94,0,0,0,184.08,27.25Z"/><path class="cls-1" d="M220.79,19.22,217.39,47h-7.83L213,19.22ZM215.14,4.4a5,5,0,0,1,3.72-1.61,4.13,4.13,0,0,1,3,1.16A4.27,4.27,0,0,1,223,7a5.1,5.1,0,0,1-1.54,3.59,5.26,5.26,0,0,1-3.73,1.6,4.24,4.24,0,0,1-3-1.15,3.91,3.91,0,0,1-1.22-2.95A5.16,5.16,0,0,1,215.14,4.4Z"/><path class="cls-1" d="M249.16,19.22H257l-3.28,26.51c-.38,3.27-.9,8.6-4.23,12-2.06,2.12-5.84,4-11.94,4-3.34,0-7.44-.57-10.4-3.72a13.55,13.55,0,0,1-3.4-7.76H232a5.77,5.77,0,0,0,1.6,3.4,5.88,5.88,0,0,0,4.24,1.41,7.67,7.67,0,0,0,5.39-1.86c1.73-1.67,2.24-4.17,2.5-6l.51-3.91a12.07,12.07,0,0,1-3.46,3.27,9.79,9.79,0,0,1-5.2,1.35,12.17,12.17,0,0,1-9.11-3.4c-2.06-2-3.66-5.33-3.66-9.95a16.8,16.8,0,0,1,5-12.38,13.86,13.86,0,0,1,9.89-3.86,11.43,11.43,0,0,1,5.84,1.35,9.26,9.26,0,0,1,3.21,3.15Zm-13.61,8a9,9,0,0,0-2.69,6.67,7.07,7.07,0,0,0,2,5.13A6.68,6.68,0,0,0,239.79,41a8.48,8.48,0,0,0,6-2,9.69,9.69,0,0,0,2.7-6.74,6.89,6.89,0,0,0-2.12-5.14,7.8,7.8,0,0,0-5.2-1.79A7.91,7.91,0,0,0,235.55,27.25Z"/><path class="cls-1" d="M271.26,19.22,267.86,47H260l3.4-27.79ZM265.61,4.4a5,5,0,0,1,3.73-1.61,4.12,4.12,0,0,1,3,1.16,4.27,4.27,0,0,1,1.22,3A5.1,5.1,0,0,1,272,10.56a5.26,5.26,0,0,1-3.73,1.6A4.26,4.26,0,0,1,265.29,11a3.91,3.91,0,0,1-1.22-2.95A5.16,5.16,0,0,1,265.61,4.4Z"/><path class="cls-1" d="M303.87,32.7c2-2,6.87-7.06,8.41-8.92s3.46-4.36,3.46-7.64a5.49,5.49,0,0,0-1.79-4.3,6.79,6.79,0,0,0-4.3-1.41,6.6,6.6,0,0,0-4.69,1.8,9.64,9.64,0,0,0-2.31,5.32h-8.6a16.5,16.5,0,0,1,4.05-9.49c3.46-3.85,7.89-4.82,12.13-4.82,3.59,0,7.57.71,10.65,3.85a11.34,11.34,0,0,1,3.27,8.28,14.89,14.89,0,0,1-2.82,8.86,52.91,52.91,0,0,1-6.93,7.57l-8.35,8h15.47l-.9,7.19H289.69Z"/><path class="cls-1" d="M333.65,44.38c-4.49-4.43-5-10.78-5-14.63,0-8.47,3-16.94,8.15-21.82a16.54,16.54,0,0,1,11.29-4.69A13.33,13.33,0,0,1,357.59,7c4.23,4.17,4.81,10.33,4.81,14,0,7.83-2.18,16.75-7.76,22.46-3.53,3.6-6.68,4.5-11.23,4.5C339.43,48,336.47,47.2,333.65,44.38Zm8.73-31.64c-3.53,3.6-5.26,11.42-5.26,17,0,2.89.51,7.25,2.76,9.43a5.52,5.52,0,0,0,4,1.61,6.8,6.8,0,0,0,4.94-2.19c3-3.14,5.07-10.91,5.07-16.81,0-3.47-.58-8.09-2.63-10.08a4.46,4.46,0,0,0-3.53-1.28A7.15,7.15,0,0,0,342.38,12.74Z"/><path class="cls-1" d="M374.44,11.39h-6.16l.89-7.18h14.51L378.42,47h-8.35Z"/><path class="cls-1" d="M416.43,27.76a9.43,9.43,0,0,1,1.93,6,14,14,0,0,1-3.79,10c-3.46,3.53-8.28,4.18-11.81,4.18s-8-.58-11.23-3.92a10.84,10.84,0,0,1-3.08-7.77,12.27,12.27,0,0,1,3.4-8.66,12,12,0,0,1,5.65-2.95,11.32,11.32,0,0,1-3.66-3.34,8.86,8.86,0,0,1-1.48-5.2A12.35,12.35,0,0,1,396,7c1.92-1.86,5.2-3.79,10.72-3.79a13.8,13.8,0,0,1,9.11,2.89,10,10,0,0,1,3.66,8.15A10.51,10.51,0,0,1,412,24.68,8.54,8.54,0,0,1,416.43,27.76ZM408,39.63a8.1,8.1,0,0,0,2.12-5.58A5.48,5.48,0,0,0,408,29.49a7.15,7.15,0,0,0-4.23-1.41,6.63,6.63,0,0,0-5,2.12,7.65,7.65,0,0,0-1.92,5.26,5.85,5.85,0,0,0,1.6,4.3,5.71,5.71,0,0,0,4.43,1.67A6.85,6.85,0,0,0,408,39.63Zm2-20a7.35,7.35,0,0,0,1.92-5.07,5.06,5.06,0,0,0-1.79-4.11,6.07,6.07,0,0,0-3.85-1.21A5.8,5.8,0,0,0,401.8,11,6.81,6.81,0,0,0,399.87,16a5.08,5.08,0,0,0,1.54,3.85,5.31,5.31,0,0,0,3.92,1.41A7,7,0,0,0,410,19.67Z"/></svg>