<svg xmlns="http://www.w3.org/2000/svg" viewBox="0 0 1404 190"><defs><style>.cls-1{fill:#424133;}.cls-2{fill:#3f3f3f;}.cls-3{fill:#ed74a3;}.cls-4{fill:none;stroke:#3f3f3f;stroke-linecap:round;stroke-linejoin:round;stroke-width:3px;}</style></defs><title>logo-simple</title><g id="blocks"><path class="cls-1" d="M434.9,35.31c7.77,0,17.82,1.07,25.29,8.84,3.5,3.65,7.16,9.75,7.16,19.5,0,9.59-3.51,17.21-8.38,21.93-4.57,4.42-12,7.77-18.74,8.84l25.9,42.5H442.36L420.27,96.1h-2.44l-5,40.82H393L405.49,35.31ZM419.51,82.08h7c5.33,0,12-1.52,15.84-5.33a15.87,15.87,0,0,0,4.42-11.58,12.53,12.53,0,0,0-4.11-9.9c-2.44-2.14-6.56-3.81-13.11-3.81h-6.24Z"/><path class="cls-1" d="M501,71l-4,32.9c-.61,5.34-.76,7-.76,7.93,0,4.26,1.37,6.7,2.74,8.07,2,2.14,5.49,3.35,9.3,3.35a14.61,14.61,0,0,0,10.2-3.65c3.51-3.36,4.27-7.92,5-13.87L527.83,71h18.58L542,107.37c-1.53,12.19-4.42,21.63-14.33,27.27-5.94,3.35-13.4,4.42-19.65,4.42-8.22,0-16.45-1.83-21.78-5.64-3.51-2.59-8.84-8.07-8.84-18.13a83.71,83.71,0,0,1,.91-10.36l4.12-34Z"/><path class="cls-1" d="M581.61,79.49a22.83,22.83,0,0,1,8.22-7.31,26,26,0,0,1,13.86-3.35c6.71,0,13.87,1.21,20.27,7.31,7.77,7.31,9,16.6,9,23.16,0,12-4.12,23-11.43,30.31-7.47,7.47-15.84,9.45-25.14,9.45-4.57,0-9.6-.46-14-3.2a18.16,18.16,0,0,1-6.71-7.47l-1.06,8.53H556L569.72,25.86h18.59Zm.76,11.43a19.86,19.86,0,0,0-5.64,14.47c0,5.79,1.83,9.75,4.57,12.49a18,18,0,0,0,12.64,4.72,20.14,20.14,0,0,0,13.72-5.33c4.11-4,5.94-10.51,5.94-16.15A14.93,14.93,0,0,0,609,89.85a16.76,16.76,0,0,0-12.19-4.57C590.44,85.28,586,87.11,582.37,90.92Z"/><path class="cls-1" d="M664.85,127,642.7,71h21l15.84,37.48L702.42,71h21.63L658.54,171.81h-21Z"/><path class="cls-1" d="M755,75.83l41.59-40.52h23L771,82.69l38.55,54.23H785.75l-29.25-44-3.81,3.65-5,40.37h-19.8L740.35,35.31h19.81Z"/><path class="cls-1" d="M870.46,71H889l-8.07,66H862.38l1.07-8.53a29.93,29.93,0,0,1-8.38,7.47,23.4,23.4,0,0,1-12.34,3.2c-7.92,0-15.39-2.14-21.64-8.38-6.39-6.4-8.83-14.48-8.83-23.31,0-11.88,4-21.63,10.21-28.18,5.33-5.49,13.86-10.36,26-10.36A26.53,26.53,0,0,1,861.62,72a19.34,19.34,0,0,1,7.77,7.47Zm-32.3,19a21.11,21.11,0,0,0-6.55,15.24c0,5.79,2.13,10.36,5,13.1,2.75,2.59,6.71,4.26,12.19,4.26a19.07,19.07,0,0,0,13.1-4.72c4.42-4,6.55-10.21,6.55-15.84a17,17,0,0,0-4.56-11.73c-2.14-2.29-6.1-5-12.8-5A18.93,18.93,0,0,0,838.16,90Z"/><path class="cls-1" d="M925.3,71l-8.07,66H898.64l8.08-66ZM911.89,35.77A11.75,11.75,0,0,1,920.73,32a9.77,9.77,0,0,1,7,2.74,10.13,10.13,0,0,1,2.89,7.16A12.1,12.1,0,0,1,927,50.39a12.43,12.43,0,0,1-8.84,3.81,10.08,10.08,0,0,1-7-2.74,9.27,9.27,0,0,1-2.89-7A12.22,12.22,0,0,1,911.89,35.77Z"/><path class="cls-1" d="M992.64,71h18.58l-7.77,62.92c-.91,7.77-2.13,20.41-10.05,28.49-4.88,5-13.86,9.6-28.34,9.6-7.92,0-17.67-1.38-24.68-8.84-4.26-4.42-7.31-11.27-8.07-18.44h19.5a13.72,13.72,0,0,0,3.81,8.08c1.67,1.68,4.87,3.35,10,3.35,5.79,0,10.06-1.83,12.8-4.42,4.11-4,5.33-9.9,5.94-14.32l1.22-9.29a28.72,28.72,0,0,1-8.23,7.77,23.4,23.4,0,0,1-12.34,3.2c-8.07,0-15.54-2-21.63-8.08-4.88-4.87-8.69-12.64-8.69-23.61,0-12.49,4.88-22.85,11.89-29.4a32.92,32.92,0,0,1,23.46-9.14C976,68.83,980.6,70,984,72a21.81,21.81,0,0,1,7.62,7.47Zm-32.3,19c-4.42,4-6.4,10.21-6.4,15.85A16.82,16.82,0,0,0,958.82,118a15.85,15.85,0,0,0,11.57,4.57c7.47,0,11.89-2.74,14.17-4.87,4-3.81,6.4-10.06,6.4-16a16.27,16.27,0,0,0-5-12.18,18.45,18.45,0,0,0-12.34-4.27C967,85.28,962.78,87.72,960.34,90Z"/><path class="cls-1" d="M1047.48,71l-8.07,66h-18.59l8.08-66Zm-13.4-35.19a11.71,11.71,0,0,1,8.83-3.81,9.75,9.75,0,0,1,7,2.74,10.13,10.13,0,0,1,2.89,7.16,12.1,12.1,0,0,1-3.65,8.53,12.4,12.4,0,0,1-8.84,3.81,10.08,10.08,0,0,1-7-2.74,9.31,9.31,0,0,1-2.89-7A12.23,12.23,0,0,1,1034.08,35.77Z"/><path class="cls-1" d="M1120.15,103c4.72-4.72,16.3-16.76,20-21.18,3.65-4.26,8.22-10.36,8.22-18.12a13,13,0,0,0-4.26-10.21,16.09,16.09,0,0,0-10.21-3.35,15.62,15.62,0,0,0-11.12,4.26c-2.9,2.9-5,8.23-5.49,12.65h-20.41a39.12,39.12,0,0,1,9.6-22.55c8.23-9.14,18.74-11.43,28.79-11.43,8.53,0,18,1.68,25.29,9.14a26.86,26.86,0,0,1,7.77,19.66,35.27,35.27,0,0,1-6.7,21c-2.29,3.2-6.25,8.23-16.46,18l-19.8,19H1162l-2.13,17.06h-73.43Z"/><path class="cls-1" d="M1190.84,130.68c-10.67-10.51-11.88-25.6-11.88-34.74,0-20.11,7.15-40.22,19.34-51.79A39.33,39.33,0,0,1,1225.12,33a31.61,31.61,0,0,1,22.54,9c10.06,9.9,11.43,24.53,11.43,33.21,0,18.59-5.18,39.77-18.43,53.33-8.38,8.53-15.85,10.66-26.67,10.66C1204.55,139.21,1197.54,137.38,1190.84,130.68Zm20.72-75.11c-8.38,8.53-12.49,27.12-12.49,40.37,0,6.86,1.21,17.22,6.54,22.4a13.22,13.22,0,0,0,9.6,3.81,16.11,16.11,0,0,0,11.73-5.18c7.17-7.47,12-25.9,12-39.92,0-8.22-1.37-19.19-6.25-23.92-2.74-2.74-5.48-3-8.38-3A17,17,0,0,0,1211.56,55.57Z"/><path class="cls-1" d="M1292.41,52.37h-14.63l2.13-17.06h34.43l-12.49,101.61h-19.8Z"/><path class="cls-1" d="M1396.84,91.22a22.37,22.37,0,0,1,4.57,14.32c0,10.06-3.66,18.43-9,23.77-8.22,8.38-19.65,9.9-28,9.9-8.68,0-18.89-1.37-26.66-9.29a25.75,25.75,0,0,1-7.31-18.44c0-8.38,3.35-16,8.07-20.56a28.4,28.4,0,0,1,13.41-7,27,27,0,0,1-8.69-7.92,21,21,0,0,1-3.5-12.34c0-10.06,4-17.22,8.53-21.64s12.34-9,25.44-9c6.4,0,14.78,1.07,21.64,6.86,5.94,4.87,8.68,11.42,8.68,19.35a25,25,0,0,1-17.67,24.68A20.37,20.37,0,0,1,1396.84,91.22Zm-20.11,28.19c3-3,5-8.08,5-13.26,0-4.42-1.53-8.23-4.88-10.82A16.92,16.92,0,0,0,1366.83,92a15.71,15.71,0,0,0-11.89,5,18.12,18.12,0,0,0-4.57,12.49c0,5.18,2,8.38,3.81,10.21,3.2,3.35,7,4,10.52,4C1367.74,123.67,1372.77,123.37,1376.73,119.41ZM1381.45,72c3-2.89,4.57-7.92,4.57-12,0-5.49-2.59-8.38-4.26-9.75-2.9-2.44-6.7-2.89-9.14-2.89a13.73,13.73,0,0,0-10.51,4.11,16.16,16.16,0,0,0-4.58,11.73,12.07,12.07,0,0,0,3.66,9.14c2.74,2.59,5.79,3.35,9.29,3.35A16.65,16.65,0,0,0,1381.45,72Z"/><path class="cls-2" d="M85.19,95,84,92.85l-38.94,21L10.19,95,45.06,76.21,84,97.24,85.19,95,84,92.85,85.19,95l1.19-2.19L46.25,71.17a2.51,2.51,0,0,0-2.38,0L3.74,92.85a2.49,2.49,0,0,0,0,4.39l40.13,21.67a2.46,2.46,0,0,0,2.38,0L86.38,97.24a2.49,2.49,0,0,0,0-4.39Z"/><path class="cls-2" d="M45.06,116.72h-2.5v44l-35.12-19V99.23l36.44,19.68,1.19-2.19h0l1.19-2.2L6.11,92.85A2.49,2.49,0,0,0,2.43,95V143.2a2.49,2.49,0,0,0,1.31,2.2l40.12,21.67a2.5,2.5,0,0,0,3.69-2.2V116.72a2.51,2.51,0,0,0-1.31-2.2Z"/><path class="cls-2" d="M165.46,95l-1.19-2.19-39,21L90.45,95l34.87-18.83,39,21,1.19-2.2-1.19-2.19L165.46,95l1.18-2.19L126.51,71.17a2.49,2.49,0,0,0-2.37,0L84,92.85a2.49,2.49,0,0,0,0,4.39l40.14,21.67a2.44,2.44,0,0,0,2.37,0l40.13-21.67a2.49,2.49,0,0,0,0-4.39Z"/><path class="cls-2" d="M245.72,95l-1.19-2.19-38.94,21L170.71,95l34.88-18.83,38.94,21,1.19-2.2-1.19-2.19L245.72,95l1.19-2.19L206.78,71.17a2.51,2.51,0,0,0-2.38,0L164.27,92.85a2.49,2.49,0,0,0,0,4.39l40.13,21.67a2.46,2.46,0,0,0,2.38,0l40.13-21.67a2.49,2.49,0,0,0,0-4.39Z"/><path class="cls-2" d="M245.72,95h-2.5v46.72l-35.13,18.93V118.21l38.82-21L245.72,95h0l-1.19-2.19L204.4,114.52a2.49,2.49,0,0,0-1.31,2.2v48.15a2.52,2.52,0,0,0,1.22,2.15,2.48,2.48,0,0,0,2.46,0l40.14-21.62a2.53,2.53,0,0,0,1.31-2.2V95a2.5,2.5,0,0,0-3.69-2.19Z"/><path class="cls-2" d="M125.32,116.72l-1.18-2.2-38.95,21L50.32,116.72,85.19,97.88l39,21,1.18-2.19-1.18-2.2,1.18,2.2,1.19-2.2L86.38,92.85a2.46,2.46,0,0,0-2.38,0L43.87,114.52a2.49,2.49,0,0,0,0,4.39L84,140.59a2.51,2.51,0,0,0,2.38,0l40.13-21.68a2.49,2.49,0,0,0,0-4.39Z"/><path class="cls-2" d="M125.32,116.72h-2.49v46.71L87.69,182.36V139.88l38.82-21-1.19-2.19h0l-1.18-2.2L84,136.19a2.51,2.51,0,0,0-1.31,2.2v48.16a2.51,2.51,0,0,0,3.69,2.2l40.13-21.63a2.5,2.5,0,0,0,1.31-2.2v-48.2a2.49,2.49,0,0,0-3.68-2.2Z"/><path class="cls-2" d="M85.19,138.39h-2.5v44l-35.12-19V120.9L84,140.59l1.19-2.2h0l1.19-2.2L46.25,114.52a2.5,2.5,0,0,0-3.69,2.2v48.15a2.51,2.51,0,0,0,1.31,2.2L84,188.74a2.5,2.5,0,0,0,3.69-2.19V138.39a2.49,2.49,0,0,0-1.31-2.2Z"/><path class="cls-2" d="M205.59,116.72l-1.19-2.2-38.94,21-34.88-18.83,34.88-18.84,38.94,21,1.19-2.19-1.19-2.2,1.19,2.2,1.19-2.2L166.64,92.85a2.44,2.44,0,0,0-2.37,0l-40.13,21.67a2.49,2.49,0,0,0,0,4.39l40.13,21.68a2.49,2.49,0,0,0,2.37,0l40.14-21.68a2.49,2.49,0,0,0,0-4.39Z"/><path class="cls-2" d="M205.59,116.72h-2.5v46.71L168,182.36V139.88l38.83-21-1.19-2.19h0l-1.19-2.2-40.13,21.67a2.49,2.49,0,0,0-1.31,2.2v48.16a2.5,2.5,0,0,0,3.68,2.2l40.13-21.63a2.51,2.51,0,0,0,1.32-2.2v-48.2a2.5,2.5,0,0,0-3.69-2.2Z"/><path class="cls-2" d="M165.46,138.39H163v44l-35.13-19V120.9l36.45,19.69,1.19-2.2h0l1.18-2.2-40.13-21.67a2.49,2.49,0,0,0-3.68,2.2v48.15a2.49,2.49,0,0,0,1.31,2.2l40.12,21.67a2.49,2.49,0,0,0,3.68-2.19V138.39a2.49,2.49,0,0,0-1.31-2.2Z"/><path class="cls-2" d="M326,95l-1.19-2.19-38.95,21L251,95l34.87-18.83,38.95,21L326,95l-1.19-2.19L326,95l1.18-2.19L287,71.17a2.49,2.49,0,0,0-2.37,0L244.53,92.85a2.49,2.49,0,0,0,0,4.39l40.14,21.67a2.44,2.44,0,0,0,2.37,0l40.13-21.67a2.49,2.49,0,0,0,0-4.39Z"/><path class="cls-2" d="M326,95h-2.5v46.72l-35.14,18.93V118.21l38.82-21L326,95h0l-1.19-2.19-40.13,21.67a2.5,2.5,0,0,0-1.32,2.2v48.15a2.5,2.5,0,0,0,3.69,2.2l40.13-21.62a2.51,2.51,0,0,0,1.31-2.2V95a2.49,2.49,0,0,0-3.68-2.19Z"/><path class="cls-2" d="M285.85,116.72h-2.5v44l-35.12-19V99.23l36.45,19.68,1.18-2.19h0l1.19-2.2L246.91,92.85A2.5,2.5,0,0,0,243.22,95V143.2a2.5,2.5,0,0,0,1.32,2.2l40.12,21.67a2.49,2.49,0,0,0,3.68-2.2V116.72a2.49,2.49,0,0,0-1.31-2.2Z"/><path class="cls-2" d="M205.59,25.21,204.4,23l-38.94,21L130.58,25.21,165.46,6.38l38.94,21,1.19-2.2L204.4,23l1.19,2.19L206.78,23,166.64,1.34a2.49,2.49,0,0,0-2.37,0L124.14,23a2.49,2.49,0,0,0,0,4.39l40.13,21.67a2.46,2.46,0,0,0,2.37,0l40.14-21.67a2.49,2.49,0,0,0,0-4.39Z"/><path class="cls-2" d="M205.59,25.21h-2.5V71.93L168,90.86V48.38l38.83-21-1.19-2.2h0L204.4,23,164.27,44.69a2.49,2.49,0,0,0-1.31,2.2V95a2.49,2.49,0,0,0,3.68,2.2l40.13-21.62a2.52,2.52,0,0,0,1.32-2.2V25.21A2.5,2.5,0,0,0,204.4,23Z"/><path class="cls-2" d="M165.46,46.89H163v44l-35.13-19V29.4l36.45,19.68,1.19-2.19h0l1.18-2.2L126.51,23a2.49,2.49,0,0,0-3.68,2.19V73.37a2.49,2.49,0,0,0,1.31,2.2l40.12,21.67A2.49,2.49,0,0,0,168,95V46.89a2.49,2.49,0,0,0-1.31-2.2Z"/><polygon class="cls-3" points="33.77 27.73 60.17 27.73 72.92 37.61 90.46 54.76 47.91 98.33 1.72 54.02 20.57 37.16 33.77 27.73"/><polygon class="cls-4" points="2.17 54.16 47.19 98.24 90.46 54.52 73.36 37.16 60.17 27.73 33.77 27.73 20.57 37.16 2.17 54.16"/><polyline class="cls-4" points="21.17 39.02 32.98 48.75 60.8 48.75 73.14 37.02"/><polyline class="cls-4" points="3.18 55.01 29.34 69.77 64.99 68.83 89.13 55.01"/><polygon class="cls-4" points="33 48.92 29.34 69.77 64.99 68.83 60.77 48.92 33 48.92"/><polygon class="cls-4" points="29.34 69.87 47.45 98.43 64.99 68.73 29.34 69.87"/></g></svg>