<svg xmlns="http://www.w3.org/2000/svg" viewBox="0 0 400.78 205.43"><defs><style>.cls-1{fill:#fff;opacity:0.2;}</style></defs><title>ship3</title><g id="ship"><path class="cls-1" d="M21.71,102.85c6.56-3.28,26.76-2.22,59.41,4.68,40.3,8.5,55.34,5.17,64-3,8.83-8.29,1-21.84,10.57-29.85,7.19-6,15.24-1.46,36.61.46,9.42.85,56.64,5.09,85.73-4.56,2.53-.83,8.24-2.88,11.13-.37,3.83,3.34,20.79,1.73,15.67,8.15-6.25,7.81-35.47,21.16-53.49,23.06-50.07,5.27-50.94,3-57,7-18.31,12-10.83,33.18-30.27,43.09-9,4.58-11.08.3-33.13,3.06-16.15,2-36.22,4.52-52.72,17.26-12.32,9.52-10.39,15.27-23.52,23.56-3.33,2.1-21.54,13.59-33.42,9C-4.29,194.46-9.93,118.65,21.71,102.85Z"/></g></svg>