<svg xmlns="http://www.w3.org/2000/svg" xmlns:xlink="http://www.w3.org/1999/xlink" viewBox="0 0 400.78 205.43"><defs><style>.cls-1{fill:url(#名称未設定グラデーション_215);}.cls-2{fill:#c4c4c4;}.cls-3{fill:gray;}.cls-4{fill:#a9a9a9;}.cls-5{fill:url(#名称未設定グラデーション_41);}.cls-6{fill:#969c28;}.cls-7{fill:#62661a;}.cls-8{fill:#427cad;}.cls-9{fill:#3b6f9a;}.cls-10{fill:#274965;}.cls-11{fill:url(#名称未設定グラデーション_215-2);}</style><linearGradient id="名称未設定グラデーション_215" x1="301.2" y1="60.84" x2="378.2" y2="-16.16" gradientUnits="userSpaceOnUse"><stop offset="0" stop-color="#b4b4b5"/><stop offset="1" stop-color="#ebebeb"/></linearGradient><linearGradient id="名称未設定グラデーション_41" x1="300.45" y1="39.09" x2="341.45" y2="-1.91" gradientUnits="userSpaceOnUse"><stop offset="0" stop-color="#939334"/><stop offset="1" stop-color="#a8af2d"/></linearGradient><linearGradient id="名称未設定グラデーション_215-2" x1="295.45" y1="7.53" x2="318.45" y2="7.53" xlink:href="#名称未設定グラデーション_215"/></defs><title>ship</title><g id="ship"><polygon class="cls-1" points="400.45 6.09 391.45 28.09 300.45 59.09 272.45 32.09 363.45 1.09 400.45 6.09"/><polygon class="cls-2" points="391.45 28.09 391.45 57.09 300.45 88.09 300.45 59.09 391.45 28.09"/><polygon class="cls-3" points="300.45 59.09 300.45 88.09 272.45 61.09 272.45 32.09 300.45 59.09"/><polygon class="cls-4" points="400.45 6.09 400.45 35.09 391.45 57.09 391.45 28.09 400.45 6.09"/><polygon class="cls-5" points="340.39 0 362.45 19.09 301.56 39 279.45 18.09 340.39 0"/><polygon class="cls-6" points="362.45 19.09 362.45 34.09 301.45 54.09 301.56 39 362.45 19.09"/><polygon class="cls-7" points="301.56 39 301.45 54.09 279.45 33.09 279.45 18.09 301.56 39"/><polygon class="cls-8" points="317.45 1.09 333.45 16.09 302.45 27.09 285.45 11.09 317.45 1.09"/><polygon class="cls-9" points="333.45 16.09 333.45 23.09 302.45 34.09 302.45 27.09 333.45 16.09"/><polygon class="cls-10" points="302.45 27.09 302.45 34.09 285.45 18.09 285.45 11.09 302.45 27.09"/><polygon class="cls-11" points="310.38 0.97 318.45 9.09 303.45 14.09 295.45 6.09 310.38 0.97"/><polygon class="cls-2" points="318.45 9.09 318.45 16.09 303.45 21.09 303.45 14.09 318.45 9.09"/><polygon class="cls-3" points="303.45 14.09 303.45 21.09 295.45 13.09 295.45 6.09 303.45 14.09"/></g></svg>