<svg xmlns="http://www.w3.org/2000/svg" xmlns:xlink="http://www.w3.org/1999/xlink" viewBox="0 0 400.78 205.43"><defs><style>.cls-1{fill:none;}.cls-2{fill:url(#名称未設定グラデーション_103);}.cls-3{clip-path:url(#clip-path);}.cls-4{fill:url(#名称未設定グラデーション_11);}.cls-5{clip-path:url(#clip-path-2);}.cls-6{fill:url(#名称未設定グラデーション_10);}.cls-7{clip-path:url(#clip-path-3);}.cls-8{fill:url(#名称未設定グラデーション_8);}</style><linearGradient id="名称未設定グラデーション_103" x1="179.49" y1="205.28" x2="179.49" y2="57.09" gradientUnits="userSpaceOnUse"><stop offset="0.1" stop-opacity="0"/><stop offset="1" stop-opacity="0.3"/></linearGradient><clipPath id="clip-path"><polygon class="cls-1" points="400.45 6.09 391.45 28.09 300.45 59.09 272.45 32.09 363.45 1.09 400.45 6.09"/></clipPath><linearGradient id="名称未設定グラデーション_11" x1="318.85" y1="55.6" x2="318.85" y2="33.06" gradientUnits="userSpaceOnUse"><stop offset="0" stop-opacity="0"/><stop offset="1" stop-opacity="0.3"/></linearGradient><clipPath id="clip-path-2"><polygon class="cls-1" points="340.39 0 362.45 19.09 301.56 39 279.45 18.09 340.39 0"/></clipPath><linearGradient id="名称未設定グラデーション_10" x1="307.27" y1="35.7" x2="307.27" y2="18.09" xlink:href="#名称未設定グラデーション_11"/><clipPath id="clip-path-3"><polygon class="cls-1" points="317.45 1.09 333.45 16.09 302.45 27.09 285.45 11.09 317.45 1.09"/></clipPath><linearGradient id="名称未設定グラデーション_8" x1="304.12" y1="22.98" x2="304.12" y2="13.09" xlink:href="#名称未設定グラデーション_11"/></defs><title>ship2</title><g id="ship"><polygon class="cls-2" points="100.3 205.28 -32.48 205.28 272.45 61.09 300.45 88.09 391.45 57.09 100.3 205.28"/><g class="cls-3"><polygon class="cls-4" points="296.86 55.6 275.19 34.65 279.5 33.06 301.45 54.09 362.5 34.06 296.86 55.6"/></g><g class="cls-5"><polygon class="cls-6" points="298.09 35.7 281.09 19.7 285.45 18.09 302.45 34.09 333.45 23.09 298.09 35.7"/></g><g class="cls-7"><polygon class="cls-8" points="298.08 22.98 289.79 15.18 295.45 13.09 303.45 21.09 318.45 16.09 298.08 22.98"/></g></g></svg>