<svg xmlns="http://www.w3.org/2000/svg" xmlns:xlink="http://www.w3.org/1999/xlink" viewBox="0 0 1212 293.99"><defs><style>.cls-1{fill:url(#名称未設定グラデーション_174);}.cls-2,.cls-3{opacity:0.5;}.cls-2{fill:url(#名称未設定グラデーション_96);}.cls-4{fill:url(#名称未設定グラデーション_172);}.cls-5{fill:url(#名称未設定グラデーション_96-2);}.cls-6{fill:url(#名称未設定グラデーション_172-2);}.cls-7{fill:url(#名称未設定グラデーション_172-3);}.cls-8{fill:url(#名称未設定グラデーション_172-4);}.cls-9{fill:url(#名称未設定グラデーション_172-5);}.cls-10{opacity:0.4;}.cls-11{fill:url(#名称未設定グラデーション_174-2);}.cls-12{fill:url(#名称未設定グラデーション_172-6);}.cls-13{fill:url(#名称未設定グラデーション_174-3);}.cls-14{fill:url(#名称未設定グラデーション_174-4);}.cls-15{fill:url(#名称未設定グラデーション_18);}.cls-16{fill:#fff;stroke:#fff;stroke-miterlimit:10;}.cls-17{fill:url(#名称未設定グラデーション_96-3);}.cls-18{fill:url(#名称未設定グラデーション_172-7);}.cls-19{fill:url(#名称未設定グラデーション_96-4);}</style><linearGradient id="名称未設定グラデーション_174" x1="606" x2="606" y2="289" gradientUnits="userSpaceOnUse"><stop offset="0" stop-color="#fffeff"/><stop offset="0.09" stop-color="#f8feff"/><stop offset="0.37" stop-color="#e5fffe"/><stop offset="0.67" stop-color="#dbfffe"/><stop offset="1" stop-color="#d7fffe"/></linearGradient><linearGradient id="名称未設定グラデーション_96" x1="758.11" y1="116.7" x2="758.11" y2="21.7" gradientTransform="matrix(0.82, -0.58, 0.58, 0.82, 94.4, 433.43)" gradientUnits="userSpaceOnUse"><stop offset="0" stop-color="#a1c4fd"/><stop offset="1" stop-color="#c2e9fb"/></linearGradient><linearGradient id="名称未設定グラデーション_172" x1="345.09" y1="101.84" x2="557.65" y2="101.84" gradientUnits="userSpaceOnUse"><stop offset="0" stop-color="#4298d3"/><stop offset="1" stop-color="#c2e9fb"/></linearGradient><linearGradient id="名称未設定グラデーション_96-2" x1="0" y1="156.01" x2="1212" y2="156.01" gradientTransform="matrix(1, 0, 0, 1, 0, 0)" xlink:href="#名称未設定グラデーション_96"/><linearGradient id="名称未設定グラデーション_172-2" x1="642.5" y1="33.66" x2="642.5" y2="65.58" xlink:href="#名称未設定グラデーション_172"/><linearGradient id="名称未設定グラデーション_172-3" x1="880.24" y1="332.13" x2="880.24" y2="364.05" gradientTransform="translate(101.55 769.86) rotate(-71.19)" xlink:href="#名称未設定グラデーション_172"/><linearGradient id="名称未設定グラデーション_172-4" x1="784.13" y1="116.76" x2="784.13" y2="148.69" gradientTransform="matrix(-0.26, -0.97, 0.97, -0.26, 556.77, 861.68)" xlink:href="#名称未設定グラデーション_172"/><linearGradient id="名称未設定グラデーション_172-5" x1="581.61" y1="85.86" x2="581.61" y2="57.57" gradientTransform="matrix(0.98, -0.17, 0.13, 0.75, -1.22, 115.81)" xlink:href="#名称未設定グラデーション_172"/><linearGradient id="名称未設定グラデーション_174-2" x1="99.5" y1="45.21" x2="127.59" y2="45.21" gradientTransform="translate(17.68 -26.02) rotate(13.64)" xlink:href="#名称未設定グラデーション_174"/><linearGradient id="名称未設定グラデーション_172-6" x1="866.79" y1="-55.37" x2="866.79" y2="-23.44" gradientTransform="translate(712.98 795.56) rotate(-116.45)" xlink:href="#名称未設定グラデーション_172"/><linearGradient id="名称未設定グラデーション_174-3" x1="865.61" y1="-47.96" x2="893.66" y2="-47.96" gradientTransform="translate(1644.75 322.63) rotate(-163.39)" xlink:href="#名称未設定グラデーション_174"/><linearGradient id="名称未設定グラデーション_174-4" x1="1127.59" y1="-134.9" x2="1155.64" y2="-134.9" gradientTransform="matrix(0.61, -0.79, 0.79, 0.61, -302.33, 1076.92)" xlink:href="#名称未設定グラデーション_174"/><linearGradient id="名称未設定グラデーション_18" x1="606" y1="45.32" x2="606" y2="293.99" gradientUnits="userSpaceOnUse"><stop offset="0" stop-color="#64b3f4"/><stop offset="0.04" stop-color="#66b4f3"/><stop offset="0.04" stop-color="#68b5f2"/><stop offset="1" stop-color="#c2e5e9"/></linearGradient><linearGradient id="名称未設定グラデーション_96-3" x1="651.06" y1="43.34" x2="706.82" y2="43.34" gradientTransform="translate(0.41 -9.83) rotate(0.69)" xlink:href="#名称未設定グラデーション_96"/><linearGradient id="名称未設定グラデーション_172-7" x1="880.5" y1="48.66" x2="880.5" y2="80.58" xlink:href="#名称未設定グラデーション_172"/><linearGradient id="名称未設定グラデーション_96-4" x1="890.05" y1="55.34" x2="943.97" y2="55.34" gradientTransform="matrix(0.7, 0.01, -0.01, 0.7, 286.61, 1.98)" xlink:href="#名称未設定グラデーション_96"/></defs><title>alps_4</title><g id="レイヤー_2" data-name="レイヤー 2"><g id="haikei"><path class="cls-1" d="M0,0S36,0,53,15,214,34,236,27s24-2,30-1,10-3,18-1,56,31,61,31,14-8,21-8,28,3,36-1,19-10,24-10,14,2,17,2,31,17,37,17,20-5,28-5,10,9,27,2,19,6,32,3,29-14,39-18,43-7,54-13,33-12,36-16,9-12,31,0,39,28,48,34,35,21,46,20,42-9,54-17,20-9,35-8c15-5,30-15,39-14s26,15,32,15,25,1,30,1,13-6,33-1c18,1,33-4,45,1s20,13,40,11,33-6,46,5,37,28,37,28V289H0Z"/><polygon class="cls-2" points="718.5 41.5 724 15.56 799.21 78.76 726.45 34.64 718.5 41.5"/><g class="cls-3"><path class="cls-4" d="M555.15,109.76c2.66-.69,3.3-2.9,1.42-4.91L519.4,65.15a3.53,3.53,0,0,0-5.94.66L493,100.69a3.93,3.93,0,0,1-6.25,1L445.71,64.84a3.91,3.91,0,0,0-6.24,1l-9,15.36a3.38,3.38,0,0,1-5.81.56L410.28,65.26A8.45,8.45,0,0,0,402.2,63l-54.93,16.6c-2.63.8-2.93,2.72-.66,4.28l80.75,55.34a12.51,12.51,0,0,0,9,1.57Z"/></g><path class="cls-5" d="M0,40.61s87-32,176-19.78,250,82.89,292,87.6,165-39.56,178-35.8,118.8-6.77,157,16c27-2.83,78-15.07,98-7.54s79,17.9,107,.94,53-33.91,66-31.08,48,9.42,60,2.83,54-.95,78,30.14V294H0Z"/><g class="cls-3"><path class="cls-6" d="M657.6,34.38c2.42-1.31,2.81-.79.86,1.16L629.54,64.46c-1.95,2-3.68,1.29-3.85-1.45l-.38-6a8.56,8.56,0,0,1,4.09-7.37Z"/></g><g class="cls-3"><path class="cls-7" d="M705.26,29.62c-.46-2.72.16-2.92,1.37-.45l18.06,36.71c1.21,2.47,0,3.9-2.62,3.17l-5.82-1.58a8.52,8.52,0,0,1-5.65-6.24Z"/></g><g class="cls-3"><path class="cls-8" d="M461.74,59.46c-1.89-2-1.49-2.5.89-1.13l35.48,20.38c2.38,1.37,2.2,3.21-.41,4.09L492,84.74a8.54,8.54,0,0,1-8.18-2Z"/></g><g class="cls-3"><path class="cls-9" d="M555.27,73.18c-2.61-.84-2.64-2.32-.07-3.27l42.09-15.62a6.38,6.38,0,0,1,7.31,2.52l3.3,5.35a4.15,4.15,0,0,1-2,6.19L582.05,78.4a15.7,15.7,0,0,1-9.37.4Z"/></g><g class="cls-10"><path class="cls-11" d="M125.83,23.85a7.88,7.88,0,0,0-7.4,3.65L99.1,61.74c-1.35,2.4-.84,2.8,1.14.88l34.65-33.48c2-1.91,1.37-3.79-1.35-4.18Z"/></g><g class="cls-3"><path class="cls-12" d="M271.23,30.33c-2.25-1.58-2-2.16.65-1.29l38.79,13c2.61.87,2.79,2.72.41,4.09l-5.22,3a8.52,8.52,0,0,1-8.42-.38Z"/></g><g class="cls-10"><path class="cls-13" d="M770.27,137.88c1.36,2.39,3.88,2.58,5.59.43l32-40.32c1.71-2.15,1.41-2.44-.66-.63L770.85,129a6.39,6.39,0,0,0-1.29,7.63Z"/></g><g class="cls-10"><path class="cls-14" d="M277.76,68c-2.72.41-3.81,2.68-2.42,5l26,44.41c1.39,2.37,1.76,2.2.83-.39L285.83,71.73a6.36,6.36,0,0,0-6.64-4Z"/></g></g><g id="レイヤー_1-2" data-name="レイヤー 1"><path class="cls-15" d="M0,45.32s253,73.75,301,81.31,121,19.86,149,19.86,88,16.07,119,5.67,90-30.25,114-24.58,113,35.93,126,35,38,0,50,0,25,16.08,45,8.51,13-10.4,29-7.56,183-18,214-29.31,55-12.29,65-11.35V294H0Z"/><polygon class="cls-16" points="693.5 26.5 643.5 58.5 658.5 66.5 693.5 26.5"/><g class="cls-3"><path class="cls-17" d="M674.17,35a25.58,25.58,0,0,1,7.41-6.32l23.31-12c2.45-1.26,2.78-.78.75,1.07L652.36,66.27c-2,1.85-2.36,1.55-.73-.66Z"/></g><g class="cls-3"><path class="cls-18" d="M895.6,49.38c2.42-1.31,2.81-.79.86,1.16L867.54,79.46c-1.95,2-3.68,1.29-3.85-1.45l-.38-6a8.56,8.56,0,0,1,4.09-7.37Z"/></g><g class="cls-3"><path class="cls-19" d="M921.9,45a25.31,25.31,0,0,1,7.41-6.33l13.58-7c2.45-1.26,2.78-.78.75,1.08L908.69,64.63c-2,1.85-2.36,1.56-.73-.66Z"/></g></g></g></svg>
