<svg xmlns="http://www.w3.org/2000/svg" viewBox="0 0 310 351"><defs><style>.cls-1{fill:#37393d;}.cls-2{fill:#f2f2f2;}.cls-3{fill:#99876e;}.cls-4{fill:#fff;}.cls-5{fill:#888d92;}.cls-6{fill:#626466;}.cls-7{fill:#47484c;}.cls-8{fill:#b6b8b9;}</style></defs><title>castle</title><g id="レイヤー_2" data-name="レイヤー 2"><g id="レイヤー_1-2" data-name="レイヤー 1"><path class="cls-1" d="M112.93,137.1h-1.2C112.12,137.12,112.53,137.12,112.93,137.1Z"/><path class="cls-1" d="M218.48,137.1h-1.2Q217.9,137.13,218.48,137.1Z"/><path class="cls-2" d="M120.18,137.1h-1A8.68,8.68,0,0,0,120.18,137.1Z"/><path class="cls-2" d="M210.13,137.1h-1A8.85,8.85,0,0,0,210.13,137.1Z"/><polygon class="cls-3" points="256 270 155.5 270 155 270 154.5 270 54 270 0 351 154.5 351 155 351 155.5 351 310 351 256 270"/><rect class="cls-1" x="101" y="108" width="108" height="14"/><rect class="cls-4" x="101" y="94" width="108" height="14"/><rect class="cls-1" x="110" y="59" width="90" height="14"/><rect class="cls-4" x="110" y="46" width="90" height="13"/><rect class="cls-4" x="54" y="245" width="202" height="11"/><rect class="cls-1" x="54" y="256" width="202" height="14"/><rect class="cls-5" x="209" y="245" width="4" height="11"/><rect class="cls-5" x="201" y="245" width="4" height="11"/><rect class="cls-6" x="205" y="245" width="4" height="11"/><rect class="cls-5" x="193" y="245" width="4" height="11"/><rect class="cls-6" x="197" y="245" width="4" height="11"/><rect class="cls-5" x="185" y="245" width="4" height="11"/><rect class="cls-6" x="189" y="245" width="4" height="11"/><rect class="cls-5" x="112" y="245" width="4" height="11"/><rect class="cls-6" x="108" y="245" width="4" height="11"/><rect class="cls-5" x="120" y="245" width="4" height="11"/><rect class="cls-6" x="116" y="245" width="4" height="11"/><rect class="cls-5" x="104" y="245" width="4" height="11"/><rect class="cls-5" x="96" y="245" width="4" height="11"/><rect class="cls-6" x="100" y="245" width="4" height="11"/><path class="cls-7" d="M213.9,40c-6.13,1.51-8.16-2.37-11.87-5.15S193.9,20.64,193.9,16s.88-16-3.27-16c-2,0-.7,2.84-1.73,6-.93,2.83-4.27,5-4.27,5h-60s-3.34-2.17-4.27-5c-1-3.16.27-6-1.73-6-4.15,0-3.27,11.36-3.27,16S111,32.06,107.23,34.85,101.49,41.51,95.36,40c-7.42-1.86-5.21,6,5,6,9.34,0,47.85,0,54.27,0s44.92,0,54.27,0C219.11,46,221.32,38.14,213.9,40Z"/><path class="cls-7" d="M218.45,88.85C211.35,88,199.54,72,199.54,72H109.75S97.94,88,90.84,88.85c-7.87,1-8.07,5.94-1.57,5.94l65.22.21h.31L220,94.79C226.52,94.79,226.32,89.84,218.45,88.85Z"/><rect class="cls-1" x="83" y="155" width="143" height="19"/><rect class="cls-4" x="83" y="144" width="143" height="11"/><rect class="cls-5" x="149" y="152" width="4" height="13"/><rect class="cls-6" x="153" y="152" width="4" height="13"/><rect class="cls-5" x="141" y="152" width="4" height="13"/><rect class="cls-6" x="145" y="152" width="4" height="13"/><rect class="cls-5" x="133" y="152" width="4" height="13"/><rect class="cls-6" x="137" y="152" width="4" height="13"/><rect class="cls-5" x="125" y="152" width="4" height="13"/><rect class="cls-6" x="129" y="152" width="4" height="13"/><rect class="cls-5" x="181" y="152" width="4" height="13"/><rect class="cls-5" x="173" y="152" width="4" height="13"/><rect class="cls-6" x="177" y="152" width="4" height="13"/><rect class="cls-5" x="165" y="152" width="4" height="13"/><rect class="cls-6" x="169" y="152" width="4" height="13"/><rect class="cls-5" x="157" y="152" width="4" height="13"/><rect class="cls-6" x="161" y="152" width="4" height="13"/><path class="cls-7" d="M231,137.85C222.44,137,208.27,121,208.27,121H102S86.35,137,77.83,137.85c-9.45,1-9.68,5.94-1.89,5.94l78.27.21h.37l78.27-.21C240.64,143.79,240.41,138.84,231,137.85Z"/><rect class="cls-1" x="67" y="207" width="176" height="20"/><rect class="cls-4" x="67" y="196" width="176" height="11"/><rect class="cls-5" x="149" y="207" width="4" height="18"/><rect class="cls-6" x="169" y="207" width="4" height="18"/><rect class="cls-5" x="181" y="207" width="4" height="18"/><rect class="cls-5" x="173" y="207" width="4" height="18"/><rect class="cls-6" x="177" y="207" width="4" height="18"/><rect class="cls-6" x="153" y="207" width="4" height="18"/><rect class="cls-5" x="141" y="207" width="4" height="18"/><rect class="cls-6" x="145" y="207" width="4" height="18"/><rect class="cls-5" x="133" y="207" width="4" height="18"/><rect class="cls-6" x="137" y="207" width="4" height="18"/><rect class="cls-5" x="125" y="207" width="4" height="18"/><rect class="cls-6" x="129" y="207" width="4" height="18"/><rect class="cls-5" x="165" y="207" width="4" height="18"/><rect class="cls-5" x="157" y="207" width="4" height="18"/><rect class="cls-6" x="161" y="207" width="4" height="18"/><path class="cls-7" d="M256,189c-11.3-1-30.11-19-30.11-19H83.26s-19.18,18-30.49,19c-12.54,1.12-12.67,7-2.33,7h104l104.1-.23C268.89,195.77,268.58,190.16,256,189Z"/><path class="cls-1" d="M154.39,83.14S122,129.15,102.22,130H206.57C186.82,129.15,154.39,83.14,154.39,83.14Z"/><path class="cls-2" d="M154.39,90.06S126.76,129.28,109.93,130h88.93C182,129.28,154.39,90.06,154.39,90.06Z"/><path class="cls-1" d="M175.74,122.55c-7.42-4.64-18.56-17.63-21.35-22.28-2.78,4.65-13.92,17.64-21.35,22.28s.93,3.72.93,3.72h40.85S183.17,127.2,175.74,122.55Z"/><path class="cls-8" d="M154.39,100.27,147,109.56s1.85,3.71,4.64.93c0,1.85,1.86,4.64,2.78,3.71.93.93,2.79-1.86,2.79-3.71,2.78,2.78,4.64-.93,4.64-.93Z"/><path class="cls-7" d="M267.21,241c-13.36-2.36-21.07-12.24-23.11-15.22a2,2,0,0,0-1.62-.85l-87.27.07-87.27-.07a2,2,0,0,0-1.61.85c-2,3-9.76,12.86-23.12,15.22-4.64,1.86-1.5,4,5,4h214C268.71,245,271.85,242.86,267.21,241Z"/></g></g></svg>