<svg xmlns="http://www.w3.org/2000/svg" viewBox="0 0 148.52 131.5"><defs><style>.cls-1{fill:none;stroke:#eaa4a4;stroke-miterlimit:10;stroke-width:3.12px;}</style></defs><title>sakura</title><g id="レイヤー_2" data-name="レイヤー 2"><g id="レイヤー_1-2" data-name="レイヤー 1"><path class="cls-1" d="M57,46.72a17.3,17.3,0,0,1-21.76-11A17,17,0,0,1,46.36,14.21a17.3,17.3,0,0,1,21.76,11A17.06,17.06,0,0,1,57,46.72ZM55.57,63.4a17,17,0,0,0,3.82-23.87,17.39,17.39,0,0,0-24.12-3.79,17,17,0,0,0-3.82,23.88A17.39,17.39,0,0,0,55.57,63.4ZM15,63.4a17.4,17.4,0,0,0,24.13-3.78,17,17,0,0,0-3.82-23.88,17.4,17.4,0,0,0-24.13,3.79A17,17,0,0,0,15,63.4ZM2.41,25.18A17.06,17.06,0,0,0,13.5,46.72a17.32,17.32,0,0,0,21.77-11A17.06,17.06,0,0,0,24.18,14.21,17.31,17.31,0,0,0,2.41,25.18ZM35.27,1.56A17.19,17.19,0,0,0,18,18.65,17.28,17.28,0,1,0,35.27,1.56Zm0,0A17.19,17.19,0,0,0,18,18.65,17.28,17.28,0,1,0,35.27,1.56Z"/><path class="cls-1" d="M135,110a17.32,17.32,0,0,1-21.77-11,17.06,17.06,0,0,1,11.09-21.54,17.32,17.32,0,0,1,21.77,11A17.07,17.07,0,0,1,135,110Zm-1.46,16.68a17,17,0,0,0,3.82-23.87A17.39,17.39,0,0,0,113.25,99a17,17,0,0,0-3.82,23.87A17.39,17.39,0,0,0,133.56,126.67Zm-40.61,0a17.38,17.38,0,0,0,24.12-3.78A17,17,0,0,0,113.25,99a17.38,17.38,0,0,0-24.12,3.78A17,17,0,0,0,93,126.67ZM80.4,88.45A17.05,17.05,0,0,0,91.49,110a17.31,17.31,0,0,0,21.76-11,17.06,17.06,0,0,0-11.09-21.54A17.31,17.31,0,0,0,80.4,88.45Zm32.85-23.62a17.1,17.1,0,1,0,17.27,17.1A17.19,17.19,0,0,0,113.25,64.83Zm0,0a17.1,17.1,0,1,0,17.27,17.1A17.19,17.19,0,0,0,113.25,64.83Z"/></g></g></svg>