
<svg width="136px" height="117px" viewBox="-1 -1 136 117" version="1.1" xmlns="http://www.w3.org/2000/svg" xmlns:xlink="http://www.w3.org/1999/xlink">
    <!-- Generator: Sketch 42 (36781) - http://www.bohemiancoding.com/sketch -->
    <desc></desc>
    <defs></defs>
    <path d="M24.2479013,0.221260022 L0.452034891,46.3285725 L24.2479013,0.221260022 Z" id="Stroke-1-Copy-7" stroke="#5E5E5E" stroke-width="1.2" fill="none"></path>
    <path d="M0.452034891,46.3285725 L67.079193,114.413094 L0.452034891,46.3285725 Z" id="Stroke-1-Copy-3" stroke="#5E5E5E" stroke-width="1.2" fill="none"></path>
    <path d="M67.079193,114.413094 L133.706351,46.3285725 L67.079193,114.413094 Z" id="Stroke-1-Copy-4" stroke="#5E5E5E" stroke-width="1.2" fill="none"></path>
    <path d="M109.466768,0.221260022 L133.706351,46.3285725 L109.466768,0.221260022 Z" id="Stroke-1-Copy-5" stroke="#5E5E5E" stroke-width="1.2" fill="none"></path>
    <path d="M109.910485,0.221260022 L24.6916175,0.221260022 L109.910485,0.221260022 Z" id="Stroke-1-Copy-6" stroke="#5E5E5E" stroke-width="1.2" fill="none"></path>
    <path d="M0.452668771,46 L133.704872,46" id="Stroke-3" stroke="#5E5E5E" stroke-width="1" fill="none"></path>
    <path d="M24.2479013,0.221260022 L37.2276568,46.3285725" id="Stroke-5" stroke="#5E5E5E" stroke-width="1" fill="none"></path>
    <path d="M67.0802494,114.412462 L37.2266004,46.3279412" id="Stroke-7" stroke="#5E5E5E" stroke-width="1" fill="none"></path>
    <path d="M67.0802494,0.221260022 L37.2266004,46.3285725" id="Stroke-9" stroke="#5E5E5E" stroke-width="1" fill="none"></path>
    <path d="M109.910485,0.221260022 L96.9307291,46.3285725" id="Stroke-11" stroke="#5E5E5E" stroke-width="1" fill="none"></path>
    <path d="M67.0802494,114.412462 L96.9317856,46.3279412" id="Stroke-13" stroke="#5E5E5E" stroke-width="1" fill="none"></path>
    <path d="M67.0802494,0.221260022 L96.9317856,46.3285725" id="Stroke-15" stroke="#5E5E5E" stroke-width="1" fill="none"></path>
</svg>
