
<svg width="363px" height="47px" viewBox="-1 -1 363 47" version="1.1" xmlns="http://www.w3.org/2000/svg" xmlns:xlink="http://www.w3.org/1999/xlink">
    <!-- Generator: Sketch 42 (36781) - http://www.bohemiancoding.com/sketch -->
    <title>RubyKaigi 2017</title>
    <desc>RubyKaigi 2017</desc>
    <defs></defs>
    <path d="M7.73720225,17.054 C11.1755056,17.054 13.8092949,16.386 15.6416292,15.047 C17.4719242,13.71 18.3886011,11.63 18.3886011,8.807 C18.3886011,5.949 17.4719242,3.933 15.6416292,2.76 C13.8092949,1.587 11.1755056,1 7.73720225,1 L0,1 L0,17.054 L7.73720225,17.054 Z" id="Stroke-2" stroke="#231814" stroke-width="1.4" fill="none"></path>
    <path d="M0,1 L0,33.266" id="Stroke-4" stroke="#231814" stroke-width="1.4" fill="none"></path>
    <path d="M9.17696629,17 L18.9993792,33.083" id="Stroke-6" stroke="#231814" stroke-width="1.4" fill="none"></path>
    <path d="M119.300562,1 L119.300562,33.266" id="Stroke-8" stroke="#231814" stroke-width="1.4" fill="none"></path>
    <path d="M137.994042,1 L119.300562,21.016" id="Stroke-10" stroke="#231814" stroke-width="1.4" fill="none"></path>
    <path d="M127.457865,12 L140.509551,33.083" id="Stroke-12" stroke="#231814" stroke-width="1.4" fill="none"></path>
    <path d="M47.9241573,9 L47.9241573,32.983" id="Stroke-14" stroke="#231814" stroke-width="1.4" fill="none"></path>
    <path d="M28.5505618,9 L28.5505618,24.262 C28.5505618,27.205 29.1501236,29.394 30.3502669,30.829 C31.5493904,32.266 33.4908287,32.983 36.1725421,32.983 C37.125927,32.983 38.0252697,32.863 38.8726096,32.62 C39.7189298,32.378 40.5570927,32.006 41.3860787,31.504 C42.2150646,31.002 43.0542472,30.38 43.9005674,29.635 C44.7468876,28.892 46.5476124,27.272 47.465309,26.233" id="Stroke-16" stroke="#231814" stroke-width="1.4" fill="none"></path>
    <path d="M60.1601124,1 L60.1601124,33.266" id="Stroke-18" stroke="#231814" stroke-width="1.4" fill="none"></path>
    <path d="M60.1601124,28.827 C61.8293006,30.292 63.5168427,31.337 65.2227388,31.961 C66.9286348,32.586 68.3571826,32.899 69.5073624,32.899 C71.0276798,32.899 72.4368539,32.596 73.7359045,31.988 C75.0329157,31.381 76.1555646,30.533 77.1018118,29.442 C78.0470393,28.354 78.7791573,27.05 79.2991854,25.531 C79.8181938,24.013 80.0782079,22.361 80.0782079,20.575 C80.0782079,18.931 79.9007865,17.404 79.5490028,15.993 C79.1961994,14.581 78.6313062,13.358 77.8522837,12.322 C77.0732612,11.286 76.0719522,10.473 74.8483567,9.883 C73.6247612,9.294 72.1411517,9 70.3975281,9 C68.9128989,9 67.2814382,9.41 65.5011067,10.232 C63.7207753,11.055 61.9404438,12.322 60.1601124,14.036 L60.1601124,28.827 Z" id="Stroke-20" stroke="#231814" stroke-width="1.4" fill="none"></path>
    <path d="M86.6713483,9 L98.4739466,33.067" id="Stroke-22" stroke="#231814" stroke-width="1.4" fill="none"></path>
    <path d="M108.543118,9 L96.8169944,35.866 C96.4774466,36.784 96.0349129,37.694 95.4914326,38.596 C94.9479522,39.499 94.2851713,40.309 93.5030899,41.032 C92.7210084,41.752 91.8288034,42.334 90.8264747,42.778 C89.8241461,43.221 88.6933399,43.442 87.4360955,43.442 C86.9599129,43.442 86.4592584,43.401 85.9320927,43.319 C85.404927,43.237 84.9715702,43.114 84.6320225,42.95" id="Stroke-24" stroke="#231814" stroke-width="1.4" fill="none"></path>
    <path d="M145.811798,12.5 C146.220683,12.177 146.756006,11.813 147.417767,11.406 C148.078508,11.001 148.835098,10.621 149.684478,10.264 C150.534876,9.908 151.455632,9.607 152.447764,9.364 C153.439896,9.121 154.438146,9 155.447612,9 C156.957733,9 158.240469,9.235 159.29582,9.704 C160.351171,10.175 161.208708,10.815 161.870469,11.625 C162.531211,12.436 163.011472,13.368 163.311253,14.421 C163.610014,15.475 163.759904,16.584 163.759904,17.752 L163.759904,32.825" id="Stroke-26" stroke="#231814" stroke-width="1.4" fill="none"></path>
    <path d="M163.759904,19 C160.17375,19.326 157.168803,19.734 154.748124,20.224 C152.325404,20.712 150.374789,21.303 148.896278,21.992 C147.417767,22.68 146.363435,23.469 145.735323,24.357 C145.106191,25.247 144.792135,26.252 144.792135,27.375 C144.792135,28.391 145.014421,29.252 145.457975,29.959 C145.901528,30.667 146.483756,31.238 147.205677,31.672 C147.926579,32.108 148.73925,32.425 149.64573,32.624 C150.551191,32.824 151.484183,32.924 152.445725,32.924 C155.958463,32.924 159.729177,31.256 163.759904,27.919" id="Stroke-28" stroke="#231814" stroke-width="1.4" fill="none"></path>
    <path d="M180.480337,9 L180.480337,32.983" id="Stroke-30" stroke="#231814" stroke-width="1.4" fill="none"></path>
    <path d="M180.480337,9 L170.283708,9" id="Stroke-32" stroke="#231814" stroke-width="1.4" fill="none"></path>
    <path d="M181.442899,0.973 C181.442899,1.51 180.998326,1.946 180.450767,1.946 C179.903208,1.946 179.460674,1.51 179.460674,0.973 C179.460674,0.436 179.903208,0 180.450767,0 C180.998326,0 181.442899,0.436 181.442899,0.973 Z" id="Stroke-36" stroke="#231814" stroke-width="1.4" fill="none"></path>
    <path d="M228.404494,9 L228.404494,32.983" id="Stroke-38" stroke="#231814" stroke-width="1.4" fill="none"></path>
    <path d="M228.404494,9 L218.207865,9" id="Stroke-40" stroke="#231814" stroke-width="1.4" fill="none"></path>
    <path d="M229.368076,0.973 C229.368076,1.51 228.923503,1.946 228.375944,1.946 C227.828385,1.946 227.384831,1.51 227.384831,0.973 C227.384831,0.436 227.828385,0 228.375944,0 C228.923503,0 229.368076,0.436 229.368076,0.973 Z" id="Stroke-44" stroke="#231814" stroke-width="1.4" fill="none"></path>
    <path d="M198.728225,24.683 C199.824362,24.683 200.863399,24.489 201.847374,24.099 C202.830329,23.71 203.689904,23.173 204.42814,22.487 C205.165357,21.8 205.741466,20.984 206.157489,20.039 C206.572492,19.093 206.780503,18.046 206.780503,16.897 C206.780503,15.748 206.572492,14.692 206.157489,13.727 C205.741466,12.763 205.165357,11.929 204.42814,11.225 C203.689904,10.521 202.830329,9.974 201.847374,9.584 C200.863399,9.195 199.824362,9 198.728225,9 C197.632087,9 196.593051,9.195 195.609076,9.584 C194.626121,9.974 193.766545,10.521 193.029329,11.225 C192.292112,11.929 191.714983,12.763 191.29998,13.727 C190.883958,14.692 190.676966,15.748 190.676966,16.897 C190.676966,18.046 190.883958,19.093 191.29998,20.039 C191.714983,20.984 192.292112,21.8 193.029329,22.487 C193.766545,23.173 194.626121,23.71 195.609076,24.099 C196.593051,24.489 197.632087,24.683 198.728225,24.683 Z" id="Stroke-46" stroke="#231814" stroke-width="1.4" fill="none"></path>
    <path d="M188.63764,38.33 C188.63764,40.127 189.466626,41.641 191.127657,42.872 C192.787669,44.104 195.350081,44.718 198.815916,44.718 C200.714528,44.718 202.420424,44.494 203.934624,44.044 C205.447803,43.595 206.725441,42.999 207.765497,42.257 C208.803514,41.515 209.598851,40.684 210.14641,39.767 C210.692949,38.848 210.966219,37.92 210.966219,36.982 C210.966219,35.302 210.372775,34.14 209.187927,33.495 C208.001039,32.85 206.205413,32.528 203.797989,32.528 L197.175278,32.528 C196.555323,32.528 195.888463,32.489 195.177758,32.41 C194.466034,32.332 193.800194,32.196 193.180239,32 C191.464146,32.977 190.279298,34.003 189.623654,35.078 C188.965972,36.151 188.63764,37.236 188.63764,38.33 Z" id="Stroke-48" stroke="#231814" stroke-width="1.4" fill="none"></path>
    <path d="M193.672736,24 C192.753,24.565 192.024961,25.222 191.485559,25.968 C190.946157,26.715 190.676966,27.492 190.676966,28.298 C190.676966,29.792 191.306098,30.882 192.563343,31.568 C192.81418,31.705 193.080312,31.828 193.361739,31.937" id="Stroke-50" stroke="#231814" stroke-width="1.4" fill="none"></path>
    <path d="M212.089888,10 L201.893258,10" id="Stroke-52" stroke="#231814" stroke-width="1.4" fill="none"></path>
    <path d="M271.536236,33.2 L249.817416,33.2 L249.817416,32.2 C252.910053,29.433 255.61216,26.968 257.923736,24.8 C260.235312,22.634 262.138003,20.65 263.633848,18.85 C265.129694,17.05 266.250303,15.392 266.998736,13.875 C267.746149,12.358 268.120365,10.867 268.120365,9.4 C268.120365,8.367 267.958239,7.4 267.636025,6.5 C267.312792,5.6 266.811118,4.817 266.132022,4.15 C265.451907,3.483 264.577037,2.959 263.50639,2.575 C262.435744,2.192 261.169323,2 259.708146,2 C257.974719,2 256.351416,2.4 254.839256,3.2 C253.327096,4 251.992357,5.034 250.837079,6.3" id="Stroke-54" stroke="#231814" stroke-width="1.4" fill="none"></path>
    <path d="M318.134831,2.9 C319.767312,2.7 321.201978,2.433 322.443927,2.099 C323.682817,1.767 324.745306,1.4 325.630374,1 L326.801966,1 L326.801966,33.041" id="Stroke-56" stroke="#231814" stroke-width="1.4" fill="none"></path>
    <path d="M335.163202,33.041 L318.44073,33.041" id="Path" stroke="#231814" stroke-width="1.4" fill="none"></path>
    <path d="M339.547753,1 L362.490169,1 L362.490169,1.9 C360.24691,4.467 358.368691,6.942 356.857551,9.325 C355.343351,11.709 354.128933,14.125 353.211236,16.575 C352.293539,19.025 351.613424,21.592 351.17191,24.275 C350.730396,26.959 350.458146,29.909 350.357199,33.042" id="Stroke-58" stroke="#231814" stroke-width="1.4" fill="none"></path>
    <path d="M293.571152,33.598 C295.780761,33.598 297.874129,33.206 299.855334,32.421 C301.836539,31.637 303.568947,30.556 305.055615,29.173 C306.541264,27.79 307.70164,26.146 308.540823,24.242 C309.377966,22.336 309.797048,20.226 309.797048,17.91 C309.797048,15.595 309.377966,13.468 308.540823,11.525 C307.70164,9.581 306.541264,7.9 305.055615,6.482 C303.568947,5.064 301.836539,3.961 299.855334,3.176 C297.874129,2.392 295.780761,2 293.571152,2 C291.362562,2 289.269194,2.392 287.286969,3.176 C285.305764,3.961 283.573357,5.064 282.089747,6.482 C280.604098,7.9 279.441683,9.581 278.604539,11.525 C277.765357,13.468 277.348315,15.595 277.348315,17.91 C277.348315,20.226 277.765357,22.336 278.604539,24.242 C279.441683,26.146 280.604098,27.79 282.089747,29.173 C283.573357,30.556 285.305764,31.637 287.286969,32.421 C289.269194,33.206 291.362562,33.598 293.571152,33.598 Z" id="Stroke-60" stroke="#231814" stroke-width="1.4" fill="none"></path>
</svg>
