
<svg width="242px" height="33px" viewBox="-1 -1 242 33" version="1.1" xmlns="http://www.w3.org/2000/svg" xmlns:xlink="http://www.w3.org/1999/xlink">
    <desc></desc>
    <defs></defs>
    <path d="M192.135785,23.84427 C193.595491,23.84427 194.978752,23.58077 196.287632,23.05067 C197.596512,22.52367 198.741137,21.79517 199.722539,20.8631033 C200.703941,19.9310367 201.470468,18.8243367 202.024185,17.5409367 C202.576869,16.2565033 202.854761,14.8346367 202.854761,13.2743033 C202.854761,11.7150033 202.576869,10.28177 202.024185,8.97150333 C201.470468,7.66330333 200.703941,6.52973667 199.722539,5.57493667 C198.741137,4.62013667 197.596512,3.87613667 196.287632,3.34707 C194.978752,2.81903667 193.595491,2.55450333 192.135785,2.55450333 C190.677112,2.55450333 189.293851,2.81903667 187.983938,3.34707 C186.676091,3.87613667 185.531466,4.62013667 184.551097,5.57493667 C183.569695,6.52973667 182.802135,7.66330333 182.249451,8.97150333 C181.694701,10.28177 181.418875,11.7150033 181.418875,13.2743033 C181.418875,14.8346367 181.694701,16.2565033 182.249451,17.5409367 C182.802135,18.8243367 183.569695,19.9310367 184.551097,20.8631033 C185.531466,21.79517 186.676091,22.52367 187.983938,23.05067 C189.293851,23.58077 190.677112,23.84427 192.135785,23.84427 Z" id="Stroke-1" stroke="#231814" stroke-width="1.4" fill="none"></path>
    <path d="M178.015298,23.2603336 L164.255704,23.2603336 L164.255704,22.614169 C166.214992,20.8262318 167.926867,19.2334362 169.391327,17.8325515 C170.855787,16.4329591 172.061205,15.1509686 173.008873,13.9878725 C173.95654,12.8247763 174.666484,11.7534355 175.140641,10.7732039 C175.614152,9.79297228 175.85123,8.82954095 175.85123,7.88161758 C175.85123,7.21412961 175.748518,6.5892885 175.544385,6.00774042 C175.339606,5.42619233 175.021778,4.9202455 174.591549,4.48925376 C174.160673,4.05826201 173.606414,3.71967179 172.928124,3.47154461 C172.249834,3.22406359 171.447514,3.1 170.52181,3.1 C169.423626,3.1 168.39521,3.35846581 167.437206,3.87539744 C166.479202,4.39232907 165.633601,5.06046321 164.901694,5.87850751" id="Stroke-54" stroke="#231814" stroke-width="1.4" fill="none"></path>
    <path d="M62.6270841,23.5163933 C62.6270841,23.87806 62.3336966,24.1715267 61.9721274,24.1715267 C61.6105582,24.1715267 61.3161376,23.87806 61.3161376,23.5163933 C61.3161376,23.1536933 61.6105582,22.8602267 61.9721274,22.8602267 C62.3336966,22.8602267 62.6270841,23.1536933 62.6270841,23.5163933 Z" id="Stroke-7" stroke="#231814" stroke-width="1.4" fill="none"></path>
    <path d="M0.529337249,23.0400267 C1.43326015,24.0103267 2.5231329,24.79876 3.80205466,25.4042933 C5.07994338,26.01086 6.5561786,26.3136267 8.23179339,26.3136267 C9.33302974,26.3136267 10.3309606,26.1648267 11.2235199,25.8672267 C12.1160792,25.5696267 12.8815728,25.1624933 13.5210337,24.64376 C14.1594615,24.12606 14.6501625,23.50916 14.9921036,22.7920267 C15.3340447,22.0759267 15.5044988,21.29886 15.5044988,20.4608267 C15.5044988,19.6227933 15.3722678,18.9015267 15.1078057,18.29496 C14.8433437,17.6883933 14.4848737,17.1655267 14.0334288,16.7242933 C13.5809508,16.2840933 13.0602912,15.89246 12.4631856,15.5679933 C11.7224854,15.16396 12.0664926,15.2931267 10.4952163,14.5821933 L8.17084316,13.5819267 C8.17084316,13.5819267 7.26692026,13.22646 6.41361705,12.7976267 C5.90638717,12.5992267 5.37746314,12.3563933 4.82684497,12.07016 C4.27519374,11.7828933 3.76899691,11.42536 3.30618839,10.9954933 C2.84337987,10.5656267 2.45701739,10.05826 2.14916708,9.47442667 C1.84028371,8.89059333 1.68635856,8.19102667 1.68635856,7.37469333 C1.68635856,6.58109333 1.85164732,5.85879333 2.18222483,5.20882667 C2.51280235,4.55886 2.97561087,3.99672667 3.5706504,3.52242667 C4.16568993,3.04812667 4.87023327,2.67922667 5.68634651,2.41469333 C6.5014267,2.15016 7.38262239,2.01789333 8.33096664,2.01789333 C9.71939221,2.01789333 10.9590579,2.27726 12.0499637,2.79496 C13.1408695,3.31266 14.0385941,3.92439333 14.7441705,4.63016" id="Stroke-9" stroke="#231814" stroke-width="1.4" fill="none"></path>
    <path d="M34.7336764,22.2761867 C34.0064058,22.73912 33.1685984,23.16382 32.2212873,23.5492533 C31.2739761,23.9346867 30.1055911,24.12792 28.7171656,24.12792 C27.5715079,24.12792 26.4909326,23.9398533 25.4775059,23.5657867 C24.4640792,23.19172 23.5766852,22.6450867 22.8163569,21.9289867 C22.0560286,21.21392 21.4547908,20.3417867 21.0147094,19.31672 C20.5735951,18.2926867 20.3535544,17.1301867 20.3535544,15.8281867 C20.3535544,14.5282533 20.5797934,13.3595533 21.0312383,12.32312 C21.4826832,11.2866867 22.0777228,10.4114533 22.8163569,9.69432 C23.554991,8.97822 24.3979637,8.42745333 25.3452749,8.04202 C26.2925861,7.65658667 27.2739881,7.46232 28.2874148,7.46232 C29.366957,7.46232 30.348359,7.63385333 31.2295547,7.97485333 C32.1107504,8.31688667 32.8607481,8.80152 33.4774818,9.42978667 C34.0942155,10.0580533 34.5683876,10.8247867 34.8989651,11.72792 C35.2295427,12.6320867 35.3948314,13.6571533 35.3948314,14.8041533 L35.3948314,15.39832 C35.3948314,15.59672 35.3731373,15.7961533 35.3287159,15.99352 L20.3535544,15.99352" id="Stroke-11" stroke="#231814" stroke-width="1.4" fill="none"></path>
    <path d="M40,31.0485 L40,8" id="Stroke-13" stroke="#231814" stroke-width="1.4" fill="none"></path>
    <path d="M40,21.8022333 C41.1590874,22.787 42.3243732,23.4927667 43.4968903,23.9216 C44.6694074,24.3483667 45.6549416,24.5622667 46.4555591,24.5622667 C47.5309691,24.5622667 48.5237347,24.3556 49.4348889,23.9402 C50.3450102,23.5258333 51.1311648,22.9430333 51.7933529,22.1897333 C52.455541,21.4385 52.9731014,20.5384667 53.3450011,19.4886 C53.7179339,18.4387333 53.9028507,17.2793333 53.9028507,16.0093667 C53.9028507,14.8685667 53.7788841,13.8063 53.530951,12.8205 C53.2819848,11.8357333 52.890457,10.9873667 52.3522355,10.2743667 C51.814014,9.56136667 51.1105037,9.0044 50.2417047,8.60346667 C49.3718726,8.2015 48.3305534,8 47.1177472,8 C46.0691966,8 44.9307703,8.279 43.7035012,8.83596667 C42.4751992,9.39396667 41.2417318,10.2547333 40,11.4213667 L40,21.8022333 Z" id="Stroke-15" stroke="#231814" stroke-width="1.4" fill="none"></path>
    <path d="M85.0662727,19.2700133 C85.0662727,20.0202133 85.2294954,20.71358 85.5538746,21.35218 C85.8782537,21.9897467 86.3482937,22.5477467 86.9608951,23.0210133 C87.5734966,23.49738 88.3162629,23.8714467 89.1922934,24.1473467 C90.0672907,24.4222133 91.054891,24.5596467 92.1550943,24.5596467 C93.2305043,24.5596467 94.1809147,24.4356467 95.0063254,24.1845467 C95.8317362,23.9355133 96.5187176,23.5852133 97.0693357,23.13468 C97.6189209,22.6841467 98.0383411,22.1592133 98.3255303,21.5578133 C98.6127195,20.95848 98.7573472,20.3209133 98.7573472,19.64408 C98.7573472,18.64588 98.5321413,17.8202467 98.0817294,17.1692467 C97.6323506,16.51928 97.0125177,15.9623133 96.22533,15.49938 C95.4381423,15.0354133 94.5011617,14.69958 93.4867019,14.2986467 C92.4154241,13.87498 91.4825757,13.5009133 90.336918,13.00078 C89.6117136,13.3500467 88.8048978,13.9545467 88.1798997,14.3544467 C87.5549016,14.75538 87.0104817,15.1935133 86.5487063,15.6688467 C86.0848647,16.14418 85.7232955,16.67428 85.4598666,17.2622467 C85.1974707,17.8502133 85.0662727,18.51878 85.0662727,19.2700133 Z" id="Stroke-17" stroke="#231814" stroke-width="1.4" fill="none"></path>
    <path d="M93.9894896,14.4706967 C96.4398955,12.81943 97.7818336,10.8932967 97.7818336,8.84213 C97.7818336,8.16633 97.6630323,7.53496333 97.4254297,6.94699667 C97.1878271,6.35903 96.8314232,5.84029667 96.3572511,5.38976333 C95.8810129,4.93923 95.2880395,4.58376333 94.5752317,4.32129667 C93.8613909,4.05779667 93.0432115,3.92656333 92.1175945,3.92656333 C90.543219,3.92656333 89.2673964,4.34609667 88.2921928,5.18413 C87.3169891,6.02113 86.8293872,7.09063 86.8293872,8.39159667 C86.8293872,9.24203 87.0225685,9.97363 87.4109971,10.5863967 C87.7983926,11.1991633 88.3242175,11.73753 88.9864055,12.2004633 C89.6485936,12.6623633 90.4254508,13.0498633 91.2932168,13.4187633 C92.0628426,13.7483967 93.0049885,14.11523 93.9894896,14.4706967 Z" id="Stroke-19" stroke="#231814" stroke-width="1.4" fill="none"></path>
    <path d="M143.35525,11 L156.908928,11" id="Stroke-21" stroke="#231814" stroke-width="1.4" fill="none"></path>
    <path d="M70.4858519,5.3913156 C71.4909839,5.2448786 72.3821419,5.06699204 73.1583435,4.85667314 C73.9335626,4.64733702 74.6144584,4.40556856 75.2020136,4.13333333 L76.2385866,4.13333333 L76.2385866,24.2296" id="Stroke-23" stroke="#231814" stroke-width="1.4" fill="none"></path>
    <path d="M81.867522,23 L69.8334496,23" id="Path" stroke="#231814" stroke-width="1.4" fill="none"></path>
    <path d="M212.375187,3.30677 L212.375187,8.06217 L212.375187,9.36210333 L212.375187,18.46267 C212.375187,19.2604033 212.443368,19.9734033 212.579732,20.6006367 C212.717128,21.2289033 212.955764,21.7631367 213.298738,22.2085033 C213.641712,22.65387 214.102454,22.9897033 214.683031,23.2191033 C215.264641,23.4454033 216.012573,23.5601033 216.922694,23.5601033 C217.789427,23.5601033 218.576614,23.4867367 219.283224,23.3379367 C219.989833,23.1891367 220.674749,22.9783367 221.336937,22.7045033" id="Stroke-25" stroke="#231814" stroke-width="1.4" fill="none"></path>
    <path d="M227.733818,11.04375 C228.725551,10.00835 229.722449,9.15998333 230.725545,8.49761667 C231.727608,7.83628333 232.869133,7.50561667 234.147022,7.50561667 C237.958994,7.50561667 239.866013,9.63428333 239.866013,13.8874833 L239.866013,23.7744167" id="Stroke-27" stroke="#231814" stroke-width="1.4" fill="none"></path>
    <path d="M226,23.7747267 L226,-0.000206666667" id="Stroke-29" stroke="#231814" stroke-width="1.4" fill="none"></path>
    <path d="M206.427064,7 L221.137764,7" id="Stroke-32" stroke="#231814" stroke-width="1.4" fill="none"></path>
    <path d="M109.069196,3.30677 L109.069196,8.06217 L109.069196,9.36210333 L109.069196,18.46267 C109.069196,19.2604033 109.138411,19.9734033 109.274774,20.6006367 C109.41217,21.2289033 109.650806,21.7631367 109.992747,22.2085033 C110.335721,22.65387 110.796464,22.9897033 111.378074,23.2191033 C111.959683,23.4454033 112.706582,23.5601033 113.617736,23.5601033 C114.484469,23.5601033 115.271657,23.4867367 115.978266,23.3379367 C116.684876,23.1891367 117.369791,22.9783367 118.030946,22.7045033" id="Stroke-34" stroke="#231814" stroke-width="1.4" fill="none"></path>
    <path d="M124.428344,11.04375 C125.420077,10.00835 126.416975,9.15998333 127.420071,8.49761667 C128.422134,7.83628333 129.563659,7.50561667 130.841548,7.50561667 C134.65352,7.50561667 136.560539,9.63428333 136.560539,13.8874833 L136.560539,23.7744167" id="Stroke-36" stroke="#231814" stroke-width="1.4" fill="none"></path>
    <path d="M103.12159,7 L117.83229,7" id="Stroke-41" stroke="#231814" stroke-width="1.4" fill="none"></path>
    <path d="M123,23.7747267 L123,-0.000206666667" id="Stroke-38" stroke="#231814" stroke-width="1.4" fill="none"></path>
</svg>
