
<svg width="107px" height="85px" viewBox="6 -1 107 85" version="1.1" xmlns="http://www.w3.org/2000/svg" xmlns:xlink="http://www.w3.org/1999/xlink">
    <!-- Generator: Sketch 42 (36781) - http://www.bohemiancoding.com/sketch -->
    <desc></desc>
    <defs></defs>
    <path d="M16.5638948,24 L50.1120804,24" id="Stroke-5" stroke="#5E5E5E" stroke-width="1.2" stroke-linecap="round" fill="none"></path>
    <path d="M111.836682,0 C99.0481052,8.32548747 80.3005897,13.5907015 59.3875485,13.5994167 C38.4745072,13.5907015 19.7269918,8.32548747 6.93841443,0" id="Stroke-7" stroke="#5E5E5E" stroke-width="1.2" stroke-linecap="round" fill="none"></path>
    <path d="M64.6638897,24 L98.2120753,24" id="Stroke-9" stroke="#5E5E5E" stroke-width="1.2" stroke-linecap="round" fill="none"></path>
    <path d="M59.4339526,17.9738148 C40.5754165,17.9675897 23.3160763,14.8749457 9.9574268,9.75415457" id="Stroke-11" stroke="#5E5E5E" stroke-width="1.2" stroke-linecap="round" fill="none"></path>
    <path d="M58.4106918,17.9738148 C77.2692278,17.9675897 94.528568,14.8749457 107.88597,9.75415457" id="Stroke-13" stroke="#5E5E5E" stroke-width="1.2" stroke-linecap="round" fill="none"></path>
    <path d="M38.8335082,32.6 L50.1114567,32.6" id="Stroke-15" stroke="#5E5E5E" stroke-width="1.2" stroke-linecap="round" fill="none"></path>
    <path d="M64.5286691,32.6 L77.0540402,32.6" id="Stroke-17" stroke="#5E5E5E" stroke-width="1.2" stroke-linecap="round" fill="none"></path>
    <path d="M38.8335082,40.6 L77.0545392,40.6" id="Stroke-19" stroke="#5E5E5E" stroke-width="1.2" stroke-linecap="round" fill="none"></path>
    <path d="M30,26.668328 L30,50.323818" id="Stroke-21" stroke="#5E5E5E" stroke-width="1.2" stroke-linecap="round" fill="none"></path>
    <path d="M42.0955186,61.3211308 L42.0955186,83 L42.0955186,61.3211308 Z" id="Stroke-25" stroke="#5E5E5E" stroke-width="1.2" stroke-linecap="round" fill="none"></path>
    <path d="M44.3820443,56.548947 L42.0955186,61.3211308 L44.3820443,56.548947 Z" id="Stroke-25-Copy" stroke="#5E5E5E" stroke-width="1.2" stroke-linecap="round" fill="none"></path>
    <path d="M39.6642918,56.548947 L44.3820443,56.548947" id="Stroke-25-Copy-2" stroke="#5E5E5E" stroke-width="1.2" stroke-linecap="round" fill="none"></path>
    <path d="M72.9044814,61.3211308 L72.9044814,83 L72.9044814,61.3211308 Z" id="Stroke-25-Copy-5" stroke="#5E5E5E" stroke-width="1.2" stroke-linecap="round" fill="none" transform="translate(73.404481, 72.160565) scale(-1, 1) translate(-73.404481, -72.160565) "></path>
    <path d="M73.9044814,56.548947 L71.6179557,61.3211308 L73.9044814,56.548947 Z" id="Stroke-25-Copy-4" stroke="#5E5E5E" stroke-width="1.2" stroke-linecap="round" fill="none" transform="translate(72.761219, 58.935039) scale(-1, 1) translate(-72.761219, -58.935039) "></path>
    <path d="M71.6179557,56.548947 L76.3357082,56.548947" id="Stroke-25-Copy-3" stroke="#5E5E5E" stroke-width="1.2" stroke-linecap="round" fill="none" transform="translate(73.976832, 56.548947) scale(-1, 1) translate(-73.976832, -56.548947) "></path>
    <path d="M36.6,26.668328 L36.6,83" id="Stroke-27" stroke="#5E5E5E" stroke-width="1.2" stroke-linecap="round" fill="none"></path>
    <path d="M17.0036113,40.6 L27.6067041,40.6" id="Stroke-29" stroke="#5E5E5E" stroke-width="1.2" stroke-linecap="round" fill="none"></path>
    <path d="M27.6067041,32.6 L17.0036113,32.6" id="Stroke-31" stroke="#5E5E5E" stroke-width="1.2" stroke-linecap="round" fill="none"></path>
    <path d="M87,26.668328 L87,50.323818" id="Stroke-33" stroke="#5E5E5E" stroke-width="1.2" stroke-linecap="round" fill="none"></path>
    <path d="M90.1071887,83 L90.1071887,57.586676" id="Stroke-35" stroke="#5E5E5E" stroke-width="1.2" stroke-linecap="round" fill="none"></path>
    <path d="M90.1071887,57.586676 L92.3937144,52.8144921 L90.1071887,57.586676 Z" id="Stroke-35-Copy" stroke="#5E5E5E" stroke-width="1.2" stroke-linecap="round" fill="none"></path>
    <path d="M92.3937144,52.8144921 L82.3918794,52.8144921 L92.3937144,52.8144921 Z" id="Stroke-35-Copy-2" stroke="#5E5E5E" stroke-width="1.2" stroke-linecap="round" fill="none"></path>
    <path d="M82.3918794,52.8144921 L84.6796526,57.586676" id="Stroke-35-Copy-3" stroke="#5E5E5E" stroke-width="1.2" stroke-linecap="round" fill="none"></path>
    <path d="M84.6796526,57.586676 L84.6796526,83 L84.6796526,57.586676 Z" id="Stroke-35-Copy-4" stroke="#5E5E5E" stroke-width="1.2" stroke-linecap="round" fill="none"></path>
    <path d="M32.1071887,83 L32.1071887,57.586676" id="Stroke-35-Copy-9" stroke="#5E5E5E" stroke-width="1.2" stroke-linecap="round" fill="none"></path>
    <path d="M32.1071887,57.586676 L34.3937144,52.8144921 L32.1071887,57.586676 Z" id="Stroke-35-Copy-8" stroke="#5E5E5E" stroke-width="1.2" stroke-linecap="round" fill="none"></path>
    <path d="M34.3937144,52.8144921 L24.3918794,52.8144921 L34.3937144,52.8144921 Z" id="Stroke-35-Copy-7" stroke="#5E5E5E" stroke-width="1.2" stroke-linecap="round" fill="none"></path>
    <path d="M24.3918794,52.8144921 L26.6796526,57.586676" id="Stroke-35-Copy-6" stroke="#5E5E5E" stroke-width="1.2" stroke-linecap="round" fill="none"></path>
    <path d="M26.6796526,57.586676 L26.6796526,83 L26.6796526,57.586676 Z" id="Stroke-35-Copy-5" stroke="#5E5E5E" stroke-width="1.2" stroke-linecap="round" fill="none"></path>
    <path d="M79.6,26.668328 L79.6,83" id="Stroke-39" stroke="#5E5E5E" stroke-width="1.2" stroke-linecap="round" fill="none"></path>
    <path d="M99.9961392,40.6 L89.3930464,40.6" id="Stroke-41" stroke="#5E5E5E" stroke-width="1.2" stroke-linecap="round" fill="none"></path>
    <path d="M89.3930464,32.6 L99.9961392,32.6" id="Stroke-43" stroke="#5E5E5E" stroke-width="1.2" stroke-linecap="round" fill="none"></path>
</svg>
