<?xml version="1.0" encoding="UTF-8"?>
<svg id="_レイヤー_2" data-name="レイヤー 2" xmlns="http://www.w3.org/2000/svg" viewBox="0 0 195.99 23.81" width="200" height="24">
  <defs>
    <style>
      .cls-1 {
        fill: #333;
      }
    </style>
  </defs>
  <g id="logo">
    <g id="logo-2" data-name="logo">
      <path class="cls-1" d="m10.74,18.95l-3.25-4.69h-3.59v4.69H0V2.09h7.3c1.49,0,2.79.25,3.89.75,1.1.5,1.95,1.2,2.54,2.12.59.92.89,2,.89,3.25s-.3,2.33-.9,3.24c-.6.91-1.46,1.6-2.56,2.08l3.78,5.42h-4.19Zm-.99-12.92c-.61-.51-1.5-.76-2.67-.76h-3.18v5.87h3.18c1.17,0,2.06-.26,2.67-.77.61-.51.92-1.24.92-2.17s-.31-1.67-.92-2.18Z"/>
      <path class="cls-1" d="m30.48,6v12.95h-3.56v-1.54c-.5.56-1.09.99-1.78,1.29-.69.3-1.44.45-2.24.45-1.7,0-3.05-.49-4.04-1.47-1-.98-1.49-2.43-1.49-4.36v-7.32h3.76v6.77c0,2.09.87,3.13,2.62,3.13.9,0,1.62-.29,2.17-.88.55-.59.82-1.46.82-2.61v-6.4h3.76Z"/>
      <path class="cls-1" d="m44.92,6.63c.99.55,1.76,1.33,2.32,2.34.56,1,.84,2.17.84,3.5s-.28,2.5-.84,3.5c-.56,1-1.34,1.78-2.32,2.34-.99.55-2.08.83-3.29.83-1.78,0-3.14-.56-4.07-1.69v1.49h-3.59V1.08h3.76v6.28c.95-1.04,2.25-1.56,3.9-1.56,1.2,0,2.3.28,3.29.83Zm-1.57,8.45c.62-.65.93-1.52.93-2.61s-.31-1.96-.93-2.61c-.62-.65-1.41-.98-2.37-.98s-1.75.33-2.37.98c-.62.65-.93,1.52-.93,2.61s.31,1.96.93,2.61c.62.65,1.41.98,2.37.98s1.75-.33,2.37-.98Z"/>
      <path class="cls-1" d="m63.44,6l-5.85,13.75c-.59,1.49-1.33,2.54-2.2,3.15-.88.61-1.93.92-3.17.92-.67,0-1.34-.1-2-.31-.66-.21-1.2-.5-1.61-.87l1.37-2.67c.29.26.62.46,1,.6.38.14.75.22,1.12.22.51,0,.93-.12,1.25-.37.32-.25.61-.66.87-1.24l.05-.12-5.61-13.05h3.88l3.64,8.79,3.66-8.79h3.61Z"/>
      <path class="cls-1" d="m71.87,12.33l-2.26,2.36v4.26h-3.88V2.09h3.88v7.87l7.46-7.87h4.33l-6.98,7.51,7.39,9.34h-4.55l-5.39-6.62Z"/>
      <path class="cls-1" d="m93.61,7.23c1.08.96,1.61,2.4,1.61,4.32v7.39h-3.51v-1.61c-.71,1.2-2.02,1.81-3.95,1.81-1,0-1.86-.17-2.59-.51-.73-.34-1.29-.8-1.67-1.4-.39-.59-.58-1.27-.58-2.02,0-1.2.45-2.15,1.36-2.84.91-.69,2.31-1.04,4.2-1.04h2.99c0-.82-.25-1.45-.75-1.89-.5-.44-1.24-.66-2.24-.66-.69,0-1.37.11-2.03.33-.67.22-1.23.51-1.7.88l-1.35-2.62c.71-.5,1.55-.88,2.54-1.16.99-.27,2-.41,3.05-.41,2.01,0,3.55.48,4.62,1.43Zm-3.2,8.93c.5-.3.85-.73,1.06-1.31v-1.32h-2.58c-1.54,0-2.31.51-2.31,1.52,0,.48.19.86.57,1.14.38.28.89.42,1.55.42s1.21-.15,1.71-.45Z"/>
      <path class="cls-1" d="m98.81,3.59c-.43-.4-.65-.9-.65-1.49s.22-1.09.65-1.49c.43-.4,1-.6,1.69-.6s1.25.19,1.69.58c.43.39.65.87.65,1.44,0,.63-.22,1.14-.65,1.55-.43.41-1,.61-1.69.61s-1.25-.2-1.69-.6Zm-.19,2.41h3.76v12.95h-3.76V6Z"/>
      <path class="cls-1" d="m119.71,6v10.79c0,2.38-.62,4.14-1.85,5.3-1.24,1.16-3.04,1.73-5.42,1.73-1.25,0-2.44-.15-3.56-.46-1.12-.31-2.05-.75-2.79-1.32l1.49-2.7c.55.45,1.24.81,2.07,1.07.83.26,1.67.4,2.5.4,1.3,0,2.26-.29,2.88-.88.62-.59.93-1.47.93-2.66v-.55c-.98,1.08-2.34,1.61-4.09,1.61-1.19,0-2.28-.26-3.26-.78-.99-.52-1.77-1.26-2.35-2.2-.58-.95-.87-2.04-.87-3.27s.29-2.33.87-3.27c.58-.95,1.36-1.68,2.35-2.2.99-.52,2.07-.78,3.26-.78,1.88,0,3.31.62,4.29,1.85v-1.66h3.56Zm-4.66,8.37c.63-.59.95-1.35.95-2.3s-.32-1.71-.95-2.3c-.63-.59-1.45-.88-2.44-.88s-1.81.29-2.46.88c-.64.59-.96,1.35-.96,2.3s.32,1.71.96,2.3c.64.59,1.46.88,2.46.88s1.81-.29,2.44-.88Z"/>
      <path class="cls-1" d="m123.88,3.59c-.43-.4-.65-.9-.65-1.49s.22-1.09.65-1.49c.43-.4,1-.6,1.69-.6s1.25.19,1.69.58c.43.39.65.87.65,1.44,0,.63-.22,1.14-.65,1.55-.43.41-1,.61-1.69.61s-1.25-.2-1.69-.6Zm-.19,2.41h3.76v12.95h-3.76V6Z"/>
      <path class="cls-1" d="m149.54,15.77v3.18h-12.74v-2.53l6.5-6.14c.69-.66,1.16-1.22,1.4-1.7.24-.47.36-.94.36-1.41,0-.67-.23-1.19-.69-1.55-.46-.36-1.13-.54-2.01-.54-.74,0-1.4.14-2,.42-.59.28-1.09.7-1.49,1.26l-2.84-1.83c.66-.98,1.56-1.75,2.72-2.3s2.48-.83,3.97-.83c1.25,0,2.35.2,3.29.61.94.41,1.67.99,2.19,1.73.52.75.78,1.63.78,2.64,0,.92-.19,1.77-.58,2.58-.38.8-1.13,1.72-2.24,2.74l-3.88,3.66h7.25Z"/>
      <path class="cls-1" d="m155.13,18.2c-1.09-.69-1.95-1.69-2.56-3-.62-1.31-.93-2.87-.93-4.68s.31-3.37.93-4.68c.62-1.31,1.47-2.31,2.56-3,1.09-.69,2.34-1.04,3.73-1.04s2.64.35,3.73,1.04c1.09.69,1.95,1.69,2.56,3,.62,1.31.93,2.87.93,4.68s-.31,3.37-.93,4.68c-.62,1.31-1.47,2.31-2.56,3-1.09.69-2.34,1.04-3.73,1.04s-2.64-.34-3.73-1.04Zm6.15-3.59c.59-.88.88-2.25.88-4.09s-.29-3.21-.88-4.09c-.59-.88-1.39-1.32-2.42-1.32s-1.81.44-2.4,1.32c-.59.88-.88,2.25-.88,4.09s.29,3.21.88,4.09c.59.88,1.38,1.32,2.4,1.32s1.83-.44,2.42-1.32Z"/>
      <path class="cls-1" d="m180.58,15.77v3.18h-12.74v-2.53l6.5-6.14c.69-.66,1.16-1.22,1.4-1.7.24-.47.36-.94.36-1.41,0-.67-.23-1.19-.69-1.55-.46-.36-1.13-.54-2.01-.54-.74,0-1.4.14-2,.42-.59.28-1.09.7-1.49,1.26l-2.84-1.83c.66-.98,1.56-1.75,2.72-2.3,1.16-.55,2.48-.83,3.97-.83,1.25,0,2.35.2,3.29.61.94.41,1.67.99,2.19,1.73.52.75.78,1.63.78,2.64,0,.92-.19,1.77-.58,2.58-.38.8-1.13,1.72-2.24,2.74l-3.88,3.66h7.25Z"/>
      <path class="cls-1" d="m194.81,10.88c.79.86,1.18,1.92,1.18,3.19,0,.98-.26,1.88-.77,2.71-.51.83-1.3,1.49-2.35,1.99-1.05.5-2.34.75-3.86.75-1.19,0-2.36-.16-3.5-.47-1.15-.31-2.12-.76-2.93-1.34l1.52-2.99c.64.48,1.38.85,2.23,1.12.84.27,1.71.4,2.59.4.98,0,1.75-.19,2.31-.57.56-.38.84-.91.84-1.6,0-1.38-1.05-2.07-3.15-2.07h-1.78v-2.58l3.47-3.92h-7.17v-3.13h11.8v2.53l-3.8,4.33c1.48.24,2.61.79,3.39,1.65Z"/>
    </g>
  </g>
</svg>
