<?xml version="1.0" encoding="UTF-8"?><svg id="a" xmlns="http://www.w3.org/2000/svg" viewBox="0 0 348 241"><defs><style>.b{fill:#00458e;}.c{fill:#003f82;}.d{fill:#008faf;}.e{fill:#00913e;}.f{fill:#e8e22b;}.g,.h{fill:#fff;}.i{fill:#f1ece5;}.j{fill:#e83229;}.k{fill:#ee88a7;}.l{fill:#ee7926;}.m{fill:#e5d8de;}.n{fill:#9f9fa0;}.o{fill:#d2d8ad;}.p{fill:#bfd7dd;}.q{fill:#d8dae5;}.r{fill:#bf4545;}.s{fill:#e0cea9;}.t{fill:#1cab48;}.u{fill:#2c2c31;}.v,.w{stroke:#4c4a4b;stroke-width:.25px;}.v,.w,.x,.y{fill:none;}.w{stroke-linecap:round;stroke-linejoin:round;}.x{stroke:#656565;}.x,.y{stroke-width:.721px;}.y{stroke:#7f7f7f;}.h{opacity:.3;}</style></defs><rect class="i" width="348" height="241"/><polygon class="r" points="152.09688 215.34839 140.52385 215.34839 146.35786 204.9364 152.09688 215.34839"/><rect class="r" x="99.81036" y="215" width="93" height="19" rx="6.95829" ry="6.95829"/><rect class="m" x="131.88911" y="87.403" width="104.95099" height="81.06799"/><rect class="x" x="131.88911" y="87.403" width="104.95099" height="81.06799"/><rect class="q" x="126.54808" y="80.43801" width="6.05801" height="85.05499"/><rect class="x" x="126.54808" y="80.43801" width="6.05801" height="85.05499"/><path class="p" d="M81.61149,163.23699v1.25803h-9.52301v3.18298h-4.12799v4.45901h-5.71402v4.76999h-10.79099v22.28099h12.69901v10.18201h54.91199v-6.686h57.45502v6.05099h49.83798l26.98401,18.77501,26.979-45.19299,3.496,.95898,34.91595-58.565-2.22498-2.866,22.85803-41.05499-5.71405-4.772,1.90302-5.73199-46.98099-26.41199-5.71201,8.59-10.79401-6.68201,5.72-9.54901-45.71399-27.05399-3.495,5.09399-6.345-3.82001-21.90302,33.741,7.935,6.043-4.76099,6.68301-4.76401-3.181s-24.12198,20.36899-3.492,46.785c0,0,12.38,15.914,35.55402,10.504l4.444,8.91199-19.63199,33.94302h-4.44101c-.70999-1.742-2.36301-2.966-4.28799-2.966-2.569,0-4.651,2.181-4.651,4.88098,0,2.69302,2.082,4.875,4.651,4.875,1.08899,0,2.07599-.40298,2.86899-1.061h2.55002l-2.45203,4.246H126.04948"/><path class="y" d="M81.61149,163.23699v1.25803h-9.52301v3.18298h-4.12799v4.45901h-5.71402v4.76999h-10.79099v22.28099h12.69901v10.18201h54.91199v-6.686h57.45502v6.05099h49.83798l26.98401,18.77501,26.979-45.19299,3.496,.95898,34.91595-58.565-2.22498-2.866,22.85803-41.05499-5.71405-4.772,1.90302-5.73199-46.98099-26.41199-5.71201,8.59-10.79401-6.68201,5.72-9.54901-45.71399-27.05399-3.495,5.09399-6.345-3.82001-21.90302,33.741,7.935,6.043-4.76099,6.68301-4.76401-3.181s-24.12198,20.36899-3.492,46.785c0,0,12.38,15.914,35.55402,10.504l4.444,8.91199-19.63199,33.94302h-4.44101c-.70999-1.742-2.36301-2.966-4.28799-2.966-2.569,0-4.651,2.181-4.651,4.88098,0,2.69302,2.082,4.875,4.651,4.875,1.08899,0,2.07599-.40298,2.86899-1.061h2.55002l-2.45203,4.246H126.04948"/><line class="y" x1="81.4026" y1="163.86199" x2="126.46959" y2="163.86199"/><path class="o" d="M82.42308,92.70189H36.71608v3.41202c-.14401-.00201-.28-.01001-.425-.01001-14.961,0-28.20599,13.24402-28.20599,28.819s13.245,28.12302,28.20599,28.12302c1.00099,0,1.98799-.05902,2.964-.17603v3.48203h42.53497"/><path class="x" d="M82.42308,92.70189H36.71608v3.41202c-.14401-.00201-.28-.01001-.425-.01001-14.961,0-28.20599,13.24402-28.20599,28.819s13.245,28.12302,28.20599,28.12302c1.00099,0,1.98799-.05902,2.964-.17603v3.48203h42.53497"/><line class="x" x1="81.78929" y1="156.94988" x2="81.78929" y2="92.70189"/><path class="s" d="M177.10368,87.02797V52.33699h-5.39502v-6.68402h-7.617v-4.138c-5.082-3.5-19.36499-3.5-19.36499-3.5h-14.92001v14.957h-12.06299v-6.36398h-20.63199v8.91101h-16.823v3.50098h-4.125v24.18802h3.172v4.77298"/><path class="x" d="M177.10368,87.02797V52.33699h-5.39502v-6.68402h-7.617v-4.138c-5.082-3.5-19.36499-3.5-19.36499-3.5h-14.92001v14.957h-12.06299v-6.36398h-20.63199v8.91101h-16.823v3.50098h-4.125v24.18802h3.172v4.77298"/><line class="x" x1="78.88789" y1="87.61107" x2="177.58888" y2="87.61107"/><polygon class="n" points="109.65648 109.91869 97.88847 109.91869 98.55147 107.2217 109.04747 107.2217 109.65648 109.91869"/><polygon class="v" points="109.65648 109.91869 97.88847 109.91869 98.55147 107.2217 109.04747 107.2217 109.65648 109.91869"/><path class="b" d="M104.55488,101.67058c2.03497,.03601,.86697,3.22,.69498,4.164-.138,.76401-.414,2.29501-1.21899,2.67203-.285,.15698-1.41998,.24698-1.677,.077-.72101-.45401,.09-.80402,.021-1.32001-.04898-.332-.681-.79599-.90399-1.043-.35501-.422-.71301-.86401-1.017-1.33002-.229-.34998-1.01001-1.52298-.78601-1.89999,.21301-.35898,1.83401-.37698,2.314-.547,.78201-.272,1.77402-.798,2.57303-.77301"/><path class="v" d="M104.55488,101.67058c2.03497,.03601,.86697,3.22,.69498,4.164-.138,.76401-.414,2.29501-1.21899,2.67203-.285,.15698-1.41998,.24698-1.677,.077-.72101-.45401,.09-.80402,.021-1.32001-.04898-.332-.681-.79599-.90399-1.043-.35501-.422-.71301-.86401-1.017-1.33002-.229-.34998-1.01001-1.52298-.78601-1.89999,.21301-.35898,1.83401-.37698,2.314-.547,.78201-.272,1.77402-.798,2.57303-.77301Z"/><path class="b" d="M108.93968,103.15499c1.18399-.58197,1.12698-2.168,1.17999-3.258,.379-.108,.746,.09302,1.12698-.078,.173-.73199-.866-1.146-1.42398-1.33298-.90302-.293-1.33002,.026-1.93701,.71799-.508,.55499-.811,1.27701-1.39301,1.79001-.48199,.41199-1.198,.67599-1.70898,1.01099-.06302,.034,1.289,.76102,1.397,.81,.866,.414,1.806,.80002,2.759,.34"/><path class="v" d="M108.93968,103.15499c1.18399-.58197,1.12698-2.168,1.17999-3.258,.379-.108,.746,.09302,1.12698-.078,.173-.73199-.866-1.146-1.42398-1.33298-.90302-.293-1.33002,.026-1.93701,.71799-.508,.55499-.811,1.27701-1.39301,1.79001-.48199,.41199-1.198,.67599-1.70898,1.01099-.06302,.034,1.289,.76102,1.397,.81,.866,.414,1.806,.80002,2.759,.34Z"/><path class="c" d="M100.4543,104.89128c.75198,.40201,1.33798,.522,2.181,.565"/><path class="w" d="M100.4543,104.89128c.75198,.40201,1.33798,.522,2.181,.565"/><path class="c" d="M108.85179,98.364c.22998,.62601,.38898,1.34601,.38498,1.996"/><path class="w" d="M108.85179,98.364c.22998,.62601,.38898,1.34601,.38498,1.996"/><path class="g" d="M98.3889,93.27608c.53897,.02002,.99799-.09598,1.46799-.03,.46899,.07401,.92999,.05502,1.42499,.03,.65802-.05298,1.37302-.073,2.03802,.02002,.52399,.07401,.89697,.15201,1.45297,.108,.569-.034,.94,.04401,1.45203,.42099,.414,.293,1.01199,.63699,1.37299,1.00601,.64499,.646,.92001,1.81998,1.22,2.668,.53,1.53598-1.10501,3.367-2.35501,4.293-.742,.556-1.66199,.974-2.46799,1.42899-.741,.39401-1.39499,.70102-2.25299,.819-.73602,.06201-1.46503-.11798-2.20602-.185-.73898-.095-2.01498,.05301-2.49298-.52301-.51901-.59998-.53702-1.57397-.58002-2.314-.048-.94-.01599-1.86499,.05301-2.81699,.11899-1.69501,.42001-5.29199,3.15601-4.95502"/><path class="v" d="M98.3889,93.27608c.53897,.02002,.99799-.09598,1.46799-.03,.46899,.07401,.92999,.05502,1.42499,.03,.65802-.05298,1.37302-.073,2.03802,.02002,.52399,.07401,.89697,.15201,1.45297,.108,.569-.034,.94,.04401,1.45203,.42099,.414,.293,1.01199,.63699,1.37299,1.00601,.64499,.646,.92001,1.81998,1.22,2.668,.53,1.53598-1.10501,3.367-2.35501,4.293-.742,.556-1.66199,.974-2.46799,1.42899-.741,.39401-1.39499,.70102-2.25299,.819-.73602,.06201-1.46503-.11798-2.20602-.185-.73898-.095-2.01498,.05301-2.49298-.52301-.51901-.59998-.53702-1.57397-.58002-2.314-.048-.94-.01599-1.86499,.05301-2.81699,.11899-1.69501,.42001-5.29199,3.15601-4.95502"/><path class="d" d="M106.3557,97.2488c.58698,.319,.29797,1.32101,.10699,1.785-.23801,.60001-.70001,1.12201-1.28702,1.41202-.63199,.34-1.31998,.37799-2.052,.34-.319-.00201-.922,.03799-1.194-.099-.26898-.15701-.28198-.504-.38599-.78101,1.03299-.05899,1.95999-.272,2.89499-.819,.923-.55798,1.41202-1.022,1.86002-1.92999"/><path class="v" d="M106.3557,97.2488c.58698,.319,.29797,1.32101,.10699,1.785-.23801,.60001-.70001,1.12201-1.28702,1.41202-.63199,.34-1.31998,.37799-2.052,.34-.319-.00201-.922,.03799-1.194-.099-.26898-.15701-.28198-.504-.38599-.78101,1.03299-.05899,1.95999-.272,2.89499-.819,.923-.55798,1.41202-1.022,1.86002-1.92999"/><path class="j" d="M103.88688,99.07588c.45898-.13599,1.16599-.5,1.42499-.90097,.30399-.47501,.19299-1.18201,.40799-1.703-.00699,.009,.155-.07901,.17401-.11002,.745,.548,.306,1.935-.061,2.561-.237,.405-.55099,.73499-.98499,.95001-.64902,.30899-1.57001,.29898-2.28101,.29898-.40701,.01001-.87302,0-1.27802-.11301-.46298-.13397-.95898-.49597-.306-.70898,.883-.27402,1.97601-.022,2.90402-.27402"/><path class="v" d="M103.88688,99.07588c.45898-.13599,1.16599-.5,1.42499-.90097,.30399-.47501,.19299-1.18201,.40799-1.703-.00699,.009,.155-.07901,.17401-.11002,.745,.548,.306,1.935-.061,2.561-.237,.405-.55099,.73499-.98499,.95001-.64902,.30899-1.57001,.29898-2.28101,.29898-.40701,.01001-.87302,0-1.27802-.11301-.46298-.13397-.95898-.49597-.306-.70898,.883-.27402,1.97601-.022,2.90402-.27402Z"/><path class="f" d="M99.5529,99.9157c.41397-.56,1.27298-.64899,1.84598-.35098,.88101,.45401,.18402,.75-.41599,1.02701-.46899,.194-.53,.233-.569,.72-.03601,.39499-.01901,.81998-.26501,1.147-.48099,.668-1.668,.763-2.444,.70099-1.302-.06299-2.138-1.58301-1.04999-2.50699,.405-.32501,1.091-.32501,1.57999-.42203,.478-.10098,.97702-.315,1.466-.401"/><path class="v" d="M99.5529,99.9157c.41397-.56,1.27298-.64899,1.84598-.35098,.88101,.45401,.18402,.75-.41599,1.02701-.46899,.194-.53,.233-.569,.72-.03601,.39499-.01901,.81998-.26501,1.147-.48099,.668-1.668,.763-2.444,.70099-1.302-.06299-2.138-1.58301-1.04999-2.50699,.405-.32501,1.091-.32501,1.57999-.42203,.478-.10098,.97702-.315,1.466-.401"/><path class="f" d="M105.82048,96.79759c.42798,.78802,.81799,.41901,1.33698-.00497,1.18802-.979,2.62701,2.72098,3.46201,.198,.20401-.629,.16-1.103-.18698-1.673-.436-.67001-.83401-.72202-1.60202-.806-.66-.06201-1.04599-.04599-1.53,.36499-.29401,.26001-.431,.44601-.80899,.58499-.36401,.12802-.556,.05402-.70901,.39502-.11798,.25699-.10699,.703,.03802,.94098"/><path class="v" d="M105.82048,96.79759c.42798,.78802,.81799,.41901,1.33698-.00497,1.18802-.979,2.62701,2.72098,3.46201,.198,.20401-.629,.16-1.103-.18698-1.673-.436-.67001-.83401-.72202-1.60202-.806-.66-.06201-1.04599-.04599-1.53,.36499-.29401,.26001-.431,.44601-.80899,.58499-.36401,.12802-.556,.05402-.70901,.39502-.11798,.25699-.10699,.703,.03802,.94098Z"/><path class="f" d="M107.71736,90.22682c-.228,.21698-.686,.58398-1.02698,.62799-.375,.02301-.48102-.276-.466-.577,.03-.392,.228-.63202,.13-1.052-.10602-.505-.08102-.78,.48199-.84,1.14999-.14502,1.745,1.10498,.88098,1.841m-1.936-4.82202c-.13898-.26599-.13898-.836,.18201-1.009,.5-.25598,.82501,.45901,.858,.83102,.03302,.289-.104,.34998-.40601,.34998-.177,.01703-.53998,0-.634-.172m-.25198,1.95203c-.36099,.34299-.44901-.49701-.42999-.729,.05899-.28702,.42999-.521,.62299-.17603,.112,.21301-.026,.73401-.19299,.90503m1.71899-.69202c.233,.215,.129,.80301-.26599,.70901-.526-.125-.224-1.14603,.26599-.70901m.82602,.45499s.48199-1.09299-.11301-2.56299c-.59702-1.47-2.129-2.013-2.129-2.013,0,0-2.23102-1.20499-2.556-.85001-.31702,.35901,1.26498,1.23102,1.52298,1.78601,.25,.56201-.02698,1.909-.02698,1.909l-1.11301,.93799,.90698,1.48001-2.59399,2.358,1.315,.535c-.11099-.42999,.32401-.88199,.69202-1.11499,.245-.147,.54398-.21301,.741-.43701,.17798-.20801,.215-.50601,.32498-.73099,.33401,.10699,.04102,.509,0,.715-.08398,.306-.07599,.60898-.05499,.92398,.004,.41202,.004,.634-.37,.88-.09702,.073-.202,.11502-.33401,.17001l1.302,.50998,2.26501-.543s1.785-.125,1.88998-1.513c.099-1.39099-1.66898-2.44-1.66898-2.44"/><path class="v" d="M107.71736,90.22682c-.228,.21698-.686,.58398-1.02698,.62799-.375,.02301-.48102-.276-.466-.577,.03-.392,.228-.63202,.13-1.052-.10602-.505-.08102-.78,.48199-.84,1.14999-.14502,1.745,1.10498,.88098,1.841Zm-1.936-4.82202c-.13898-.26599-.13898-.836,.18201-1.009,.5-.25598,.82501,.45901,.858,.83102,.03302,.289-.104,.34998-.40601,.34998-.177,.01703-.53998,0-.634-.172m-.25198,1.95203c-.36099,.34299-.44901-.49701-.42999-.729,.05899-.28702,.42999-.521,.62299-.17603,.112,.21301-.026,.73401-.19299,.90503m1.71899-.69202c.233,.215,.129,.80301-.26599,.70901-.526-.125-.224-1.14603,.26599-.70901m.82602,.45499s.48199-1.09299-.11301-2.56299c-.59702-1.47-2.129-2.013-2.129-2.013,0,0-2.23102-1.20499-2.556-.85001-.31702,.35901,1.26498,1.23102,1.52298,1.78601,.25,.56201-.02698,1.909-.02698,1.909l-1.11301,.93799,.90698,1.48001-2.59399,2.358,1.315,.535c-.11099-.42999,.32401-.88199,.69202-1.11499,.245-.147,.54398-.21301,.741-.43701,.17798-.20801,.215-.50601,.32498-.73099,.33401,.10699,.04102,.509,0,.715-.08398,.306-.07599,.60898-.05499,.92398,.004,.41202,.004,.634-.37,.88-.09702,.073-.202,.11502-.33401,.17001l1.302,.50998,2.26501-.543s1.785-.125,1.88998-1.513c.099-1.39099-1.66898-2.44-1.66898-2.44"/><path class="f" d="M97.15877,92.7191c-.14899,.11398-.349,.18198-.51801,.29898-.23599,.186-.465,.362-.69501,.50601-.20499,.13699-.29797,.23999-.521,.22299-.26099-.026-.53299-.202-.73099-.31799-.53-.28-.914-.69199-1.01599-1.297-.078-.414-.02301-1.01599,.548-.84201,.547,.177,1.04099,.47299,1.51498,.754,.448,.24802,.98999,.383,1.418,.67502m-2.56601,2.64301c.01501-.013,.03201-.013,.07101-.013l-.08499,.013h.01398c-.56299,.14297-1.00699,.30499-1.51398-.04102-.30701-.19299-.543-.69-.48801-1.043,.16699-1.00201,1.85699,.05099,2.189,.42001,.16199,.17798,.138,.60898-.18701,.664m-3.58899-2.19702c-.86099-.133,.082-1.086,.30099-1.45499,.108-.155,.172-.30301,.38-.327,.32501-.02502,.76099,.448,.92099,.69598,.25601,.367,.66302,.96701-.022,1.078-.45898,.08801-1.11899,.08801-1.57999,.008m.29401-4.198c.11499-.67499,.63-1.06799,1.23199-1.36899-.616,.39301-.46899,.91-.263,1.46698,.147,.33002,.37701,.67603,.367,1.03201,0,.25699-.22,.54199-.522,.45401,.02899,.008,.03201,.01797,.06,.02798l-.10501-.03101c.02502,.01102,.03302,0,.04501,.00302-.63501-.19702-.90302-1.02701-.814-1.58401m2.92801,.85199c-1.18002-1.36499,.25098-2.504-.20502-3.883-.392-1.242-1.70001,.17001-2.25699,.711-.76001,.69302-1.85901,1.88901-1.81601,2.987,.021,.52502,.36801,1.16901,.19601,1.74902-.12201,.48099-.565,.84-.65302,1.362-.116,.64398,.09299,1.00198,.65302,1.36099,.767,.46298,.79498,.26001,.87399,1.168,.09198,1.034,.92999,1.44598,1.97699,1.57401,.612,.061,2.35199,.242,2.81601-.08701,.62601-.43399,.59601-1.737,.85999-2.354,.43201-1.01199,1.40802-1.71301,2.388-2.254-1.00699-.59-2.27499-.547-3.31198-1.11499-.57901-.31601-1.07501-.715-1.521-1.21902"/><path class="w" d="M97.15877,92.7191c-.14899,.11398-.349,.18198-.51801,.29898-.23599,.186-.465,.362-.69501,.50601-.20499,.13699-.29797,.23999-.521,.22299-.26099-.026-.53299-.202-.73099-.31799-.53-.28-.914-.69199-1.01599-1.297-.078-.414-.02301-1.01599,.548-.84201,.547,.177,1.04099,.47299,1.51498,.754,.448,.24802,.98999,.383,1.418,.67502Zm-2.56601,2.64301c.01501-.013,.03201-.013,.07101-.013l-.08499,.013h.01398c-.56299,.14297-1.00699,.30499-1.51398-.04102-.30701-.19299-.543-.69-.48801-1.043,.16699-1.00201,1.85699,.05099,2.189,.42001,.16199,.17798,.138,.60898-.18701,.664m-3.58899-2.19702c-.86099-.133,.082-1.086,.30099-1.45499,.108-.155,.172-.30301,.38-.327,.32501-.02502,.76099,.448,.92099,.69598,.25601,.367,.66302,.96701-.022,1.078-.45898,.08801-1.11899,.08801-1.57999,.008m.29401-4.198c.11499-.67499,.63-1.06799,1.23199-1.36899-.616,.39301-.46899,.91-.263,1.46698,.147,.33002,.37701,.67603,.367,1.03201,0,.25699-.22,.54199-.522,.45401,.02899,.008,.03201,.01797,.06,.02798l-.10501-.03101c.02502,.01102,.03302,0,.04501,.00302-.63501-.19702-.90302-1.02701-.814-1.58401m2.92801,.85199c-1.18002-1.36499,.25098-2.504-.20502-3.883-.392-1.242-1.70001,.17001-2.25699,.711-.76001,.69302-1.85901,1.88901-1.81601,2.987,.021,.52502,.36801,1.16901,.19601,1.74902-.12201,.48099-.565,.84-.65302,1.362-.116,.64398,.09299,1.00198,.65302,1.36099,.767,.46298,.79498,.26001,.87399,1.168,.09198,1.034,.92999,1.44598,1.97699,1.57401,.612,.061,2.35199,.242,2.81601-.08701,.62601-.43399,.59601-1.737,.85999-2.354,.43201-1.01199,1.40802-1.71301,2.388-2.254-1.00699-.59-2.27499-.547-3.31198-1.11499-.57901-.31601-1.07501-.715-1.521-1.21902"/><path class="g" d="M103.44548,90.97917c.23297,.25803,.556,.233,.84,.12701l-.99701-.40601c.03,.09399,.065,.19299,.15701,.27899"/><path class="v" d="M103.44548,90.97917c.23297,.25803,.556,.233,.84,.12701l-.99701-.40601c.03,.09399,.065,.19299,.15701,.27899Z"/><path class="g" d="M94.66517,95.3503c-.04001,0-.05801,0-.07303,.01202h-.01398l.08701-.01202Z"/><path class="v" d="M94.66517,95.3503c-.04001,0-.05801,0-.07303,.01202h-.01398l.08701-.01202Z"/><path class="g" d="M90.82249,92.5241l.49597-.81299h-.01398c-.00601,.026-.03702,.04102-.043,.05701-.13602,.23999-.38702,.491-.439,.75598"/><path class="v" d="M90.82249,92.5241l.49597-.81299h-.01398c-.00601,.026-.03702,.04102-.043,.05701-.13602,.23999-.38702,.491-.439,.75598Z"/><path class="g" d="M92.1721,90.57878c-.02802-.00998-.03003-.01797-.06201-.02698-.009-.00302-.01801,.009-.04199-.00302l.104,.03Z"/><path class="v" d="M92.1721,90.57878c-.02802-.00998-.03003-.01797-.06201-.02698-.009-.00302-.01801,.009-.04199-.00302l.104,.03Z"/><path class="b" d="M99.44359,87.46749c1.771-.40198,2.599,1.39902,2.06,2.75201,1.82898,.21301,5.57098,.41199,6.30298,2.40601,.34601,.909,.686,2.40698,.19601,3.35001-.70102,1.35199-1.63901-.487-1.901-1.207-.40302-1.086-.49402-1.90402-1.92502-1.996-1.362-.08401-2.74298,.27298-4.04398,.617-.94101,.228-2.40802,.69199-2.99402,1.53098-.80298,1.151,.29501,3.078,1.17001,3.93402,.31799,.30499,.75,.685,1.116,.94098,.336,.237,.646,.237,.48199,.729-.17801,.49402-.67599,.71002-1.19901,.76102-.25,.026-.535,.026-.77798-.06601-.332-.13101-.25601-.13901-.32202-.388-.08798-.35001,.10202-.31699-.31-.53-2.13699-1.12299-3.66299-3.17001-2.33899-5.49399,.55099-.96503,1.58099-1.67401,2.483-2.26202,.44699-.29398,1.203-.63699,1.40799-1.15399,.35101-.82098-.34998-.67599-.759-1.15399-.78-.87399,.32901-2.52002,1.35303-2.77002"/><rect class="h" x="209" y="188" width="44" height="12"/><path class="v" d="M99.44359,87.46749c1.771-.40198,2.599,1.39902,2.06,2.75201,1.82898,.21301,5.57098,.41199,6.30298,2.40601,.34601,.909,.686,2.40698,.19601,3.35001-.70102,1.35199-1.63901-.487-1.901-1.207-.40302-1.086-.49402-1.90402-1.92502-1.996-1.362-.08401-2.74298,.27298-4.04398,.617-.94101,.228-2.40802,.69199-2.99402,1.53098-.80298,1.151,.29501,3.078,1.17001,3.93402,.31799,.30499,.75,.685,1.116,.94098,.336,.237,.646,.237,.48199,.729-.17801,.49402-.67599,.71002-1.19901,.76102-.25,.026-.535,.026-.77798-.06601-.332-.13101-.25601-.13901-.32202-.388-.08798-.35001,.10202-.31699-.31-.53-2.13699-1.12299-3.66299-3.17001-2.33899-5.49399,.55099-.96503,1.58099-1.67401,2.483-2.26202,.44699-.29398,1.203-.63699,1.40799-1.15399,.35101-.82098-.34998-.67599-.759-1.15399-.78-.87399,.32901-2.52002,1.35303-2.77002Z"/><path class="j" d="M100.8625,94.5349c.14899,1.68002-.77802,3.48502-2.815,2.71402-.80801-.27701-1.50803-.75101-1.68802-1.561-.12299-.53699,.01401-1.09299,.33002-1.565,.39297-.564,1.66699-1.08801,2.37299-1.077,.95401,.008,1.72501,.56201,1.80002,1.48898"/><path class="v" d="M100.8625,94.5349c.14899,1.68002-.77802,3.48502-2.815,2.71402-.80801-.27701-1.50803-.75101-1.68802-1.561-.12299-.53699,.01401-1.09299,.33002-1.565,.39297-.564,1.66699-1.08801,2.37299-1.077,.95401,.008,1.72501,.56201,1.80002,1.48898Z"/><path class="f" d="M105.63499,95.04949c-.28403,1.16602-1.54102,1.30502-2.60703,1.11301-.987-.19498-2.04599-1.11301-2.34998-2.01199-.25803-.78101-.15503-1.927,.76599-2.28,2.08499-.789,4.707,1.021,4.19101,3.17899"/><path class="v" d="M105.63499,95.04949c-.28403,1.16602-1.54102,1.30502-2.60703,1.11301-.987-.19498-2.04599-1.11301-2.34998-2.01199-.25803-.78101-.15503-1.927,.76599-2.28,2.08499-.789,4.707,1.021,4.19101,3.17899Z"/><path class="t" d="M102.56657,93.12279c.168-1.37097,2.323-1.32898,2.97098-.44498,.418,.56799,.422,1.66098-.09299,2.15698-1.00702,.953-3.03799-.436-2.87799-1.71201"/><path class="v" d="M102.56657,93.12279c.168-1.37097,2.323-1.32898,2.97098-.44498,.418,.56799,.422,1.66098-.09299,2.15698-1.00702,.953-3.03799-.436-2.87799-1.71201Z"/><path class="j" d="M104.56077,93.48308c-.00601,.16202-.13501,.28101-.31201,.28101-.17502-.00598-.30701-.147-.302-.29898,0-.155,.147-.285,.30499-.285,.186,0,.315,.13998,.30902,.30298"/><path class="v" d="M104.56077,93.48308c-.00601,.16202-.13501,.28101-.31201,.28101-.17502-.00598-.30701-.147-.302-.29898,0-.155,.147-.285,.30499-.285,.186,0,.315,.13998,.30902,.30298Z"/><path class="g" d="M98.93577,93.75847c.41599-.09799,.64499,.78601,.08798,.57001-.30099-.11798-.50198-.47699-.08798-.57001"/><path class="v" d="M98.93577,93.75847c.41599-.09799,.64499,.78601,.08798,.57001-.30099-.11798-.50198-.47699-.08798-.57001Z"/><path class="l" d="M98.18379,95.05928c.12299-.39697,1.13599-.13797,.61298,.22101-.246,.15601-.71698,.14502-.61298-.22101"/><path class="v" d="M98.18379,95.05928c.12299-.39697,1.13599-.13797,.61298,.22101-.246,.15601-.71698,.14502-.61298-.22101Z"/><path class="k" d="M97.53929,95.40108c-.13901,.05103-.70901,.07501-.75201-.08398-.05701-.22501,.53299-.48199,.733-.44101,.28799,.06201,.27701,.44101,.01901,.52499"/><path class="v" d="M97.53929,95.40108c-.13901,.05103-.70901,.07501-.75201-.08398-.05701-.22501,.53299-.48199,.733-.44101,.28799,.06201,.27701,.44101,.01901,.52499Z"/><path class="f" d="M98.84977,96.02019c.16498-.189,.41599,.10001,.47897,.26401,.06702,.151,0,.565-.25598,.51901-.26001-.034-.35001-.64001-.22299-.78302"/><path class="v" d="M98.84977,96.02019c.16498-.189,.41599,.10001,.47897,.26401,.06702,.151,0,.565-.25598,.51901-.26001-.034-.35001-.64001-.22299-.78302Z"/><path class="e" d="M99.71699,95.88738c-.07602-.09998-.20001-.254-.17603-.39099,.026-.173,.17603-.23999,.32202-.146,.30099,.25,0,.77701-.26901,.38501"/><path class="v" d="M99.71699,95.88738c-.07602-.09998-.20001-.254-.17603-.39099,.026-.173,.17603-.23999,.32202-.146,.30099,.25,0,.77701-.26901,.38501"/><path class="e" d="M98.01579,95.98308c.40298-.04498,.32199,.54703-.03702,.46103-.30499-.082-.17999-.58002,.14099-.42401"/><path class="v" d="M98.01579,95.98308c.40298-.04498,.32199,.54703-.03702,.46103-.30499-.082-.17999-.58002,.14099-.42401"/><rect class="h" x="93" y="63" width="72" height="13"/><rect class="n" x="97.88908" y="109.91899" width="11.776" height="1.03101"/><rect class="v" x="97.88908" y="109.91899" width="11.776" height="1.03101"/><rect class="h" x="209" y="72" width="79" height="14"/><rect class="h" x="237" y="103" width="76" height="14"/><rect class="h" x="85" y="179" width="102" height="16"/><rect class="h" x="151" y="115" width="52" height="23"/><rect class="h" x="85" y="115" width="38" height="18"/><rect class="h" x="15" y="115" width="64" height="22"/><g><path class="u" d="M243.20508,111.87109c-.48633-.47754-.73047-1.08203-.73047-1.81445s.24414-1.33691,.73438-1.81445c.48828-.47656,1.08691-.71582,1.7959-.71582,.53809,0,1.0166,.1377,1.43457,.41113,.41797,.27441,.7168,.65918,.89648,1.15527h-1.19727c-.22266-.43457-.59961-.65234-1.13379-.65234-.44922,0-.81348,.14844-1.09473,.44336s-.42188,.6875-.42188,1.17676c0,.48828,.14062,.88086,.42188,1.17578,.28125,.2959,.625,.44336,1.03418,.44336s.72949-.10059,.96387-.30176c.23438-.2002,.37891-.4707,.43555-.81152h-1.64355v-.75781h2.71387v.75781c-.08496,.53906-.34961,1.00977-.79297,1.41406-.44531,.4043-1.00391,.60645-1.67676,.60645s-1.25293-.23926-1.73926-.71582Z"/><path class="u" d="M249.2002,108.61816v.69434c.26465-.50098,.64746-.75098,1.14746-.75098v1.02051h-.24805c-.29688,0-.52148,.07422-.67285,.22266-.15137,.14941-.22656,.40527-.22656,.76953v1.96973h-.99902v-3.92578h.99902Z"/><path class="u" d="M251.30859,112.03027c-.35156-.37988-.52832-.86621-.52832-1.45605,0-.59082,.1748-1.07422,.52441-1.44922,.34961-.37598,.79395-.56348,1.33203-.56348,.53906,0,.9502,.22168,1.2334,.66602v-.60938h.99219v3.92578h-.99219v-.65918c-.29785,.47754-.71094,.71582-1.24023,.71582-.52832,0-.96973-.19043-1.32129-.57031Zm2.25-.60254c.20703-.20508,.31152-.4873,.31152-.84668s-.10449-.6416-.31152-.84668c-.20801-.20605-.45117-.30859-.73047-.30859-.27832,0-.52051,.10156-.72656,.30469-.20508,.20312-.30762,.48438-.30762,.84375,0,.3584,.10449,.64258,.31152,.84961,.20801,.20801,.4502,.3125,.72656,.3125s.51855-.10254,.72656-.30859Z"/><path class="u" d="M256.9248,108.61816v.58789c.25098-.42969,.65723-.64453,1.21875-.64453,.44824,0,.81543,.14746,1.09863,.44238,.2832,.2959,.42578,.70508,.42578,1.22949v2.31055h-.99219v-2.16895c0-.30664-.07812-.54199-.23438-.70508-.15625-.16211-.36914-.24414-.6377-.24414-.26953,0-.4834,.08203-.6416,.24414-.1582,.16309-.2373,.39844-.2373,.70508v2.16895h-.99902v-3.92578h.99902Z"/><path class="u" d="M260.94629,112.03027c-.35254-.37988-.52832-.86621-.52832-1.45605,0-.59082,.1748-1.07422,.52441-1.44922,.34961-.37598,.79395-.56348,1.33301-.56348,.53809,0,.94922,.22168,1.23242,.66602v-1.92773h.99219v5.24414h-.99219v-.65918c-.29688,.47754-.71094,.71582-1.24023,.71582s-.96973-.19043-1.32129-.57031Zm2.25-.60254c.20801-.20508,.31152-.4873,.31152-.84668s-.10352-.6416-.31152-.84668c-.20801-.20605-.45117-.30859-.72949-.30859-.2793,0-.52148,.10156-.72656,.30469-.20605,.20312-.30859,.48438-.30859,.84375,0,.3584,.10352,.64258,.31152,.84961,.20801,.20801,.4502,.3125,.72656,.3125s.51855-.10254,.72656-.30859Z"/><path class="u" d="M270.93555,112.54395l-.31934-.92871h-1.92773l-.31934,.92871h-1.05566l1.75098-4.96094h1.18359l1.74219,4.96094h-1.05469Zm-1.98438-1.69336h1.41016l-.70898-2.0625-.70117,2.0625Z"/><path class="u" d="M275.39258,108.61816h.99902v3.92578h-.99902v-.5957c-.25,.43066-.65918,.64551-1.22656,.64551-.44336,0-.80762-.14746-1.09082-.44336-.28418-.29492-.4248-.70508-.4248-1.22949v-2.30273h.99219v2.16113c0,.30762,.07715,.54297,.2334,.70898,.15527,.16504,.36816,.24805,.6377,.24805s.48242-.08301,.64062-.24805c.1582-.16602,.23828-.40137,.23828-.70898v-2.16113Z"/><path class="u" d="M277.70605,112.03027c-.35254-.37988-.52832-.86621-.52832-1.45605,0-.59082,.1748-1.07422,.52441-1.44922,.34961-.37598,.79395-.56348,1.33301-.56348,.53809,0,.94922,.22168,1.23242,.66602v-1.92773h.99219v5.24414h-.99219v-.65918c-.29688,.47754-.71094,.71582-1.24023,.71582s-.96973-.19043-1.32129-.57031Zm2.25-.60254c.20801-.20508,.31152-.4873,.31152-.84668s-.10352-.6416-.31152-.84668c-.20801-.20605-.45117-.30859-.72949-.30859-.2793,0-.52148,.10156-.72656,.30469-.20605,.20312-.30859,.48438-.30859,.84375,0,.3584,.10352,.64258,.31152,.84961,.20801,.20801,.4502,.3125,.72656,.3125s.51855-.10254,.72656-.30859Z"/><path class="u" d="M283.42871,107.61914c0,.16992-.05957,.31348-.17676,.43164-.11914,.11816-.26172,.17773-.42969,.17773s-.31055-.05957-.42773-.17773c-.11914-.11816-.17773-.26172-.17773-.43164,0-.1709,.05859-.31445,.17773-.43262,.11719-.11816,.25977-.17676,.42773-.17676s.31055,.05859,.42969,.17676c.11719,.11816,.17676,.26172,.17676,.43262Zm-1.10547,4.9248v-3.92578h.99902v3.92578h-.99902Z"/><path class="u" d="M285.9082,111.70801h.47461v.83594h-.62988c-.40137,0-.71191-.0918-.92871-.27637s-.32617-.48926-.32617-.91406v-1.9209h-.41797v-.81445h.41797v-.9707h1v.9707h.87891v.81445h-.87891v1.9209c0,.12695,.03027,.21875,.0918,.27246,.06055,.05469,.16797,.08203,.31836,.08203Z"/><path class="u" d="M287.46777,112.04102c-.38281-.37305-.57422-.8623-.57422-1.4668,0-.60547,.19434-1.0918,.58105-1.45996,.38672-.36914,.86816-.55273,1.44238-.55273,.57324,0,1.05469,.18359,1.44238,.55273,.38672,.36816,.58008,.85449,.58008,1.45996,0,.60449-.19434,1.09375-.58398,1.4668s-.87305,.55957-1.44922,.55957-1.05664-.18652-1.43848-.55957Zm1.43848-.2832c.2793,0,.51855-.10352,.71875-.30859,.20117-.20605,.30176-.49609,.30176-.87207,0-.375-.09863-.66504-.29785-.86816-.19824-.20312-.4375-.30469-.71875-.30469s-.51953,.10156-.71289,.30469-.29102,.49414-.29102,.87207,.09766,.66895,.29102,.87109c.19336,.2041,.42969,.30566,.70898,.30566Z"/><path class="u" d="M292.73242,108.61816v.69434c.26562-.50098,.64746-.75098,1.14844-.75098v1.02051h-.24805c-.29688,0-.52148,.07422-.67383,.22266-.15039,.14941-.22656,.40527-.22656,.76953v1.96973h-.99805v-3.92578h.99805Z"/><path class="u" d="M295.69531,107.61914c0,.16992-.05957,.31348-.17773,.43164-.11719,.11816-.26074,.17773-.42773,.17773-.16797,0-.31152-.05957-.42969-.17773-.11719-.11816-.17676-.26172-.17676-.43164,0-.1709,.05957-.31445,.17676-.43262,.11816-.11816,.26172-.17676,.42969-.17676,.16699,0,.31055,.05859,.42773,.17676,.11816,.11816,.17773,.26172,.17773,.43262Zm-1.10547,4.9248v-3.92578h.99902v3.92578h-.99902Z"/><path class="u" d="M299.35938,108.61816h.99805v3.92578h-.99805v-.5957c-.25098,.43066-.66016,.64551-1.22656,.64551-.44434,0-.80859-.14746-1.0918-.44336-.2832-.29492-.4248-.70508-.4248-1.22949v-2.30273h.99219v2.16113c0,.30762,.07715,.54297,.2334,.70898,.15625,.16504,.36914,.24805,.63867,.24805,.26855,0,.48242-.08301,.64062-.24805,.1582-.16602,.23828-.40137,.23828-.70898v-2.16113Z"/><path class="u" d="M302.41992,108.61816v.58789c.25-.42969,.65625-.64453,1.21875-.64453,.29785,0,.56348,.06836,.79688,.20508,.23438,.1377,.41504,.33301,.54297,.58789,.13672-.24512,.32422-.43848,.5625-.58105,.23926-.1416,.50781-.21191,.80469-.21191,.46777,0,.84473,.14648,1.13086,.43945,.28516,.29297,.42773,.7041,.42773,1.23242v2.31055h-.99219v-2.16895c0-.30664-.07715-.54199-.2334-.70508-.15527-.16211-.36816-.24414-.6377-.24414s-.48242,.08203-.64062,.24414c-.15918,.16309-.23828,.39844-.23828,.70508v2.16895h-.99219v-2.16895c0-.30664-.07812-.54199-.2334-.70508-.15625-.16211-.36816-.24414-.6377-.24414s-.4834,.08203-.6416,.24414c-.1582,.16309-.2373,.39844-.2373,.70508v2.16895h-.99902v-3.92578h.99902Z"/></g><g><path class="u" d="M221.11621,76.50781v4.94629h-.99219v-3.125l-1.3457,3.125h-.71582l-1.33984-3.11133v3.11133h-.99902v-4.94629h1.1123l1.58789,3.66406,1.58691-3.66406h1.10547Z"/><path class="u" d="M223.28516,76.5293c0,.16992-.05957,.31348-.17676,.43164-.11816,.11816-.26172,.17773-.42871,.17773-.16797,0-.31152-.05957-.42871-.17773-.11816-.11816-.17773-.26172-.17773-.43164,0-.1709,.05957-.31445,.17773-.43262,.11719-.11816,.26074-.17676,.42871-.17676,.16699,0,.31055,.05859,.42871,.17676,.11719,.11816,.17676,.26172,.17676,.43262Zm-1.10547,4.9248v-3.92578h.99902v3.92578h-.99902Z"/><path class="u" d="M224.49316,80.94043c-.35156-.37988-.52832-.86621-.52832-1.45605,0-.59082,.1748-1.07422,.52441-1.44922,.34961-.37598,.79395-.56348,1.33301-.56348,.53809,0,.94922,.22168,1.23242,.66602v-1.92773h.99219v5.24414h-.99219v-.65918c-.29688,.47754-.71094,.71582-1.24023,.71582-.52832,0-.96973-.19043-1.32129-.57031Zm2.25-.60254c.20801-.20508,.31152-.4873,.31152-.84668s-.10352-.6416-.31152-.84668c-.20801-.20605-.45117-.30859-.72949-.30859-.2793,0-.52148,.10156-.72656,.30469-.20605,.20312-.30859,.48438-.30859,.84375,0,.3584,.10449,.64258,.31152,.84961,.20801,.20801,.4502,.3125,.72656,.3125s.51855-.10254,.72656-.30859Z"/><path class="u" d="M229.3623,80.94043c-.35254-.37988-.52832-.86621-.52832-1.45605,0-.59082,.1748-1.07422,.52441-1.44922,.34961-.37598,.79395-.56348,1.33203-.56348,.53906,0,.9502,.22168,1.2334,.66602v-1.92773h.99219v5.24414h-.99219v-.65918c-.29785,.47754-.71094,.71582-1.24023,.71582s-.96973-.19043-1.32129-.57031Zm2.25-.60254c.20703-.20508,.31152-.4873,.31152-.84668s-.10449-.6416-.31152-.84668c-.20801-.20605-.45117-.30859-.73047-.30859-.27832,0-.52051,.10156-.72656,.30469-.20508,.20312-.30762,.48438-.30762,.84375,0,.3584,.10352,.64258,.31152,.84961,.20801,.20801,.4502,.3125,.72656,.3125s.51855-.10254,.72656-.30859Z"/><path class="u" d="M233.97949,81.4541v-5.24414h.99902v5.24414h-.99902Z"/><path class="u" d="M237.69922,81.51074c-.57129,0-1.03711-.18555-1.39648-.55664-.3584-.37012-.53809-.86035-.53809-1.46973s.18066-1.09766,.54199-1.46387,.8291-.54883,1.40332-.54883,1.04492,.17773,1.41406,.53516c.36816,.35645,.55273,.83203,.55273,1.42773,0,.13672-.00977,.26465-.02832,.38281h-2.86328c.02344,.25488,.11816,.45996,.2832,.61621,.16602,.15625,.37598,.23438,.63086,.23438,.34473,0,.59961-.14258,.76562-.42578h1.07715c-.11328,.37305-.33301,.67773-.65918,.91406s-.7207,.35449-1.18359,.35449Zm.65527-2.96191c-.17676-.15625-.39062-.23438-.64062-.23438-.25098,0-.45996,.07812-.62793,.23438-.16699,.15527-.26758,.36328-.30078,.62305h1.85645c-.01367-.25977-.10938-.46777-.28711-.62305Z"/><path class="u" d="M245.83496,81.4541l-.31934-.92871h-1.92773l-.31836,.92871h-1.05664l1.75098-4.96094h1.18359l1.74316,4.96094h-1.05566Zm-1.98438-1.69336h1.41016l-.70898-2.0625-.70117,2.0625Z"/><path class="u" d="M250.29199,77.52832h.99902v3.92578h-.99902v-.5957c-.25,.43066-.65918,.64551-1.22559,.64551-.44434,0-.80859-.14746-1.0918-.44336-.2832-.29492-.4248-.70508-.4248-1.22949v-2.30273h.99219v2.16113c0,.30762,.07715,.54297,.2334,.70898,.15625,.16504,.36816,.24805,.6377,.24805s.4834-.08301,.6416-.24805c.1582-.16602,.2373-.40137,.2373-.70898v-2.16113Z"/><path class="u" d="M252.60547,80.94043c-.35156-.37988-.52832-.86621-.52832-1.45605,0-.59082,.1748-1.07422,.52441-1.44922,.34961-.37598,.79395-.56348,1.33301-.56348,.53809,0,.94922,.22168,1.23242,.66602v-1.92773h.99219v5.24414h-.99219v-.65918c-.29688,.47754-.71094,.71582-1.24023,.71582-.52832,0-.96973-.19043-1.32129-.57031Zm2.25-.60254c.20801-.20508,.31152-.4873,.31152-.84668s-.10352-.6416-.31152-.84668c-.20801-.20605-.45117-.30859-.72949-.30859-.2793,0-.52148,.10156-.72656,.30469-.20605,.20312-.30859,.48438-.30859,.84375,0,.3584,.10449,.64258,.31152,.84961,.20801,.20801,.4502,.3125,.72656,.3125s.51855-.10254,.72656-.30859Z"/><path class="u" d="M258.32812,76.5293c0,.16992-.05957,.31348-.17676,.43164-.11816,.11816-.26172,.17773-.42871,.17773-.16797,0-.31152-.05957-.42871-.17773-.11816-.11816-.17773-.26172-.17773-.43164,0-.1709,.05957-.31445,.17773-.43262,.11719-.11816,.26074-.17676,.42871-.17676,.16699,0,.31055,.05859,.42871,.17676,.11719,.11816,.17676,.26172,.17676,.43262Zm-1.10547,4.9248v-3.92578h.99902v3.92578h-.99902Z"/><path class="u" d="M260.80859,80.61816h.47461v.83594h-.63086c-.40137,0-.71094-.0918-.92871-.27637-.2168-.18457-.3252-.48926-.3252-.91406v-1.9209h-.41895v-.81445h.41895v-.9707h.99902v.9707h.87891v.81445h-.87891v1.9209c0,.12695,.03027,.21875,.0918,.27246,.06152,.05469,.16797,.08203,.31934,.08203Z"/><path class="u" d="M262.36719,80.95117c-.38281-.37305-.57422-.8623-.57422-1.4668,0-.60547,.19434-1.0918,.58105-1.45996,.3877-.36914,.86816-.55273,1.44238-.55273s1.05469,.18359,1.44238,.55273c.38672,.36816,.58105,.85449,.58105,1.45996,0,.60449-.19531,1.09375-.58496,1.4668s-.87305,.55957-1.44922,.55957-1.05566-.18652-1.43848-.55957Zm1.43848-.2832c.2793,0,.51855-.10352,.71973-.30859,.2002-.20605,.30078-.49609,.30078-.87207,0-.375-.09863-.66504-.29785-.86816-.19824-.20312-.4375-.30469-.71875-.30469s-.51855,.10156-.71289,.30469c-.19336,.20312-.29004,.49414-.29004,.87207s.09668,.66895,.29004,.87109c.19434,.2041,.43066,.30566,.70898,.30566Z"/><path class="u" d="M267.63281,77.52832v.69434c.26465-.50098,.64648-.75098,1.14746-.75098v1.02051h-.24805c-.29688,0-.52148,.07422-.67285,.22266-.15137,.14941-.22656,.40527-.22656,.76953v1.96973h-.99902v-3.92578h.99902Z"/><path class="u" d="M270.59473,76.5293c0,.16992-.05957,.31348-.17676,.43164-.11816,.11816-.26172,.17773-.42871,.17773-.16797,0-.31152-.05957-.42871-.17773-.11816-.11816-.17773-.26172-.17773-.43164,0-.1709,.05957-.31445,.17773-.43262,.11719-.11816,.26074-.17676,.42871-.17676,.16699,0,.31055,.05859,.42871,.17676,.11719,.11816,.17676,.26172,.17676,.43262Zm-1.10547,4.9248v-3.92578h.99902v3.92578h-.99902Z"/><path class="u" d="M274.25879,77.52832h.99902v3.92578h-.99902v-.5957c-.25098,.43066-.65918,.64551-1.22656,.64551-.44434,0-.80762-.14746-1.09082-.44336-.28418-.29492-.42578-.70508-.42578-1.22949v-2.30273h.99219v2.16113c0,.30762,.07812,.54297,.23438,.70898,.15527,.16504,.36816,.24805,.6377,.24805,.26855,0,.48242-.08301,.64062-.24805,.1582-.16602,.23828-.40137,.23828-.70898v-2.16113Z"/><path class="u" d="M277.31934,77.52832v.58789c.25098-.42969,.65723-.64453,1.21875-.64453,.29785,0,.56348,.06836,.79785,.20508,.2334,.1377,.41406,.33301,.54199,.58789,.13672-.24512,.32422-.43848,.56348-.58105,.23828-.1416,.50684-.21191,.80371-.21191,.46777,0,.84473,.14648,1.13086,.43945,.28516,.29297,.42871,.7041,.42871,1.23242v2.31055h-.99219v-2.16895c0-.30664-.07812-.54199-.23438-.70508-.15527-.16211-.36816-.24414-.6377-.24414-.26855,0-.48242,.08203-.64062,.24414-.15918,.16309-.2373,.39844-.2373,.70508v2.16895h-.99219v-2.16895c0-.30664-.07812-.54199-.23438-.70508-.15625-.16211-.36816-.24414-.6377-.24414s-.4834,.08203-.6416,.24414c-.1582,.16309-.2373,.39844-.2373,.70508v2.16895h-.99902v-3.92578h.99902Z"/></g><g><path class="u" d="M217.27637,192.27344v-.76562h3.66406v.76562h-1.33887v4.18066h-.99219v-4.18066h-1.33301Z"/><path class="u" d="M222.70508,191.20996v1.90625c.25098-.42969,.65723-.64453,1.21875-.64453,.44922,0,.81543,.14746,1.09863,.44238,.2832,.2959,.42578,.70508,.42578,1.22949v2.31055h-.99219v-2.16895c0-.30664-.07812-.54199-.23438-.70508-.15625-.16211-.36816-.24414-.6377-.24414s-.4834,.08203-.6416,.24414c-.1582,.16309-.2373,.39844-.2373,.70508v2.16895h-.99902v-5.24414h.99902Z"/><path class="u" d="M228.13379,196.51074c-.57227,0-1.03711-.18555-1.39648-.55664-.35938-.37012-.53906-.86035-.53906-1.46973s.18164-1.09766,.54297-1.46387,.8291-.54883,1.40234-.54883c.57422,0,1.0459,.17773,1.41406,.53516,.36914,.35645,.55273,.83203,.55273,1.42773,0,.13672-.00977,.26465-.02832,.38281h-2.86328c.02441,.25488,.11816,.45996,.28418,.61621,.16504,.15625,.375,.23438,.63086,.23438,.34473,0,.59961-.14258,.76465-.42578h1.07715c-.11328,.37305-.33301,.67773-.65918,.91406-.3252,.23633-.71973,.35449-1.18262,.35449Zm.65527-2.96191c-.17773-.15625-.3916-.23438-.6416-.23438s-.45898,.07812-.62695,.23438c-.16797,.15527-.26855,.36328-.30176,.62305h1.85742c-.01465-.25977-.11035-.46777-.28711-.62305Z"/><path class="u" d="M231.14844,195.94043c-.35156-.37988-.52832-.86621-.52832-1.45605,0-.59082,.1748-1.07422,.52441-1.44922,.34961-.37598,.79395-.56348,1.33301-.56348,.53809,0,.94922,.22168,1.23242,.66602v-.60938h.99219v3.92578h-.99219v-.65918c-.29688,.47754-.71094,.71582-1.24023,.71582-.52832,0-.96973-.19043-1.32129-.57031Zm2.25-.60254c.20801-.20508,.31152-.4873,.31152-.84668s-.10352-.6416-.31152-.84668c-.20801-.20605-.45117-.30859-.72949-.30859-.2793,0-.52148,.10156-.72656,.30469-.20605,.20312-.30859,.48438-.30859,.84375,0,.3584,.10449,.64258,.31152,.84961,.20801,.20801,.4502,.3125,.72656,.3125s.51855-.10254,.72656-.30859Z"/><path class="u" d="M237.28906,195.61816h.47461v.83594h-.62988c-.40234,0-.71191-.0918-.92871-.27637-.21777-.18457-.32617-.48926-.32617-.91406v-1.9209h-.41797v-.81445h.41797v-.9707h.99902v.9707h.87891v.81445h-.87891v1.9209c0,.12695,.03125,.21875,.09277,.27246,.06055,.05469,.16699,.08203,.31836,.08203Z"/><path class="u" d="M240.20215,196.51074c-.57227,0-1.03711-.18555-1.39648-.55664-.35938-.37012-.53906-.86035-.53906-1.46973s.18164-1.09766,.54297-1.46387,.8291-.54883,1.40234-.54883c.57422,0,1.0459,.17773,1.41406,.53516,.36914,.35645,.55273,.83203,.55273,1.42773,0,.13672-.00977,.26465-.02832,.38281h-2.86328c.02441,.25488,.11816,.45996,.28418,.61621,.16504,.15625,.375,.23438,.63086,.23438,.34473,0,.59961-.14258,.76465-.42578h1.07715c-.11328,.37305-.33301,.67773-.65918,.91406-.3252,.23633-.71973,.35449-1.18262,.35449Zm.65527-2.96191c-.17773-.15625-.3916-.23438-.6416-.23438s-.45898,.07812-.62695,.23438c-.16797,.15527-.26855,.36328-.30176,.62305h1.85742c-.01465-.25977-.11035-.46777-.28711-.62305Z"/><path class="u" d="M243.96484,192.52832v.69434c.26465-.50098,.64648-.75098,1.14746-.75098v1.02051h-.24805c-.29688,0-.52148,.07422-.67285,.22266-.15137,.14941-.22656,.40527-.22656,.76953v1.96973h-.99902v-3.92578h.99902Z"/></g><g><path class="u" d="M158.1084,124.50342c-.71338,0-1.31348-.23828-1.80029-.71582-.48633-.47754-.72998-1.08301-.72998-1.81738,0-.73535,.24463-1.34082,.73389-1.81836,.48877-.47656,1.08887-.71582,1.7998-.71582s1.30957,.23926,1.79639,.71582c.48682,.47754,.72998,1.08301,.72998,1.81836,0,.73438-.24316,1.33984-.72998,1.81738s-1.08643,.71582-1.7998,.71582Zm1.09131-1.35742c.27881-.29492,.41797-.68848,.41797-1.17969s-.13916-.88379-.41797-1.17676-.64258-.43945-1.09131-.43945c-.44922,0-.81396,.14844-1.09521,.44336-.28076,.29492-.42139,.6875-.42139,1.17676,0,.48828,.14062,.88086,.42139,1.17578,.28125,.2959,.646,.44336,1.09521,.44336,.44873,0,.8125-.14746,1.09131-.44336Z"/><path class="u" d="M162.42383,121.13721c.27881-.44434,.6875-.66602,1.22607-.66602s.98242,.1875,1.33203,.56348c.34961,.375,.52441,.85938,.52441,1.45215s-.1748,1.0791-.52441,1.45703-.79004,.56641-1.32178,.56641c-.53125,0-.94336-.23828-1.23633-.71582v2.53027h-.99902v-5.79688h.99902v.60938Zm1.76074,2.19629c.20557-.20703,.30859-.49121,.30859-.84961,0-.35938-.10303-.64062-.30859-.84375-.20508-.20312-.44727-.30469-.72607-.30469s-.521,.10254-.72656,.30859c-.20557,.20508-.30811,.4873-.30811,.84668s.10254,.6416,.30811,.84668c.20557,.20605,.44775,.30859,.72656,.30859s.521-.10449,.72607-.3125Z"/><path class="u" d="M167.95166,124.51025c-.57178,0-1.03711-.18555-1.39648-.55664-.35889-.37012-.53857-.86035-.53857-1.46973s.18115-1.09766,.54248-1.46387,.8291-.54883,1.40283-.54883c.57422,0,1.04541,.17773,1.41406,.53516,.36865,.35645,.55273,.83203,.55273,1.42773,0,.13672-.00977,.26465-.02832,.38281h-2.86328c.02393,.25488,.11816,.45996,.28369,.61621s.37549,.23438,.63086,.23438c.34473,0,.59961-.14258,.76514-.42578h1.07715c-.11328,.37305-.33301,.67773-.65918,.91406-.32568,.23633-.72021,.35449-1.18311,.35449Zm.65527-2.96191c-.17725-.15625-.39111-.23438-.64111-.23438-.25049,0-.45947,.07812-.62744,.23438-.16748,.15527-.26807,.36328-.30127,.62305h1.85693c-.01416-.25977-.10986-.46777-.28711-.62305Z"/><path class="u" d="M171.71436,120.52783v.58789c.25049-.42969,.65674-.64453,1.21875-.64453,.44873,0,.81494,.14746,1.09863,.44238,.2832,.2959,.42529,.70508,.42529,1.22949v2.31055h-.99219v-2.16895c0-.30664-.07812-.54199-.23389-.70508-.15625-.16211-.36865-.24414-.6377-.24414-.26953,0-.4834,.08203-.6416,.24414-.1582,.16309-.2373,.39844-.2373,.70508v2.16895h-.99902v-3.92578h.99902Z"/><path class="u" d="M175.26465,121.67529c0-.33984,.14453-.62598,.43262-.85742s.6709-.34668,1.14746-.34668c.47754,0,.86035,.11426,1.14844,.34375,.28809,.22852,.44141,.53906,.46094,.93164h-1.02051c-.02832-.33105-.23145-.49609-.60938-.49609-.18945,0-.33594,.03809-.43945,.11328-.10449,.07617-.15625,.17969-.15625,.31152,0,.13281,.07812,.23633,.2334,.3125,.15625,.0752,.3457,.13477,.56738,.17676,.22168,.04297,.44336,.0957,.66211,.15918,.21973,.06445,.4082,.17773,.56348,.34082,.15625,.16309,.23438,.37891,.23438,.64844,0,.35449-.15039,.64258-.4502,.86426s-.68262,.33301-1.14844,.33301c-.46484,0-.84668-.10938-1.14453-.3291-.29688-.21973-.45996-.53516-.48828-.94629h1.02051c.03711,.33105,.24805,.49609,.63086,.49609,.18359,0,.33301-.04102,.44629-.12402s.16992-.19141,.16992-.32617-.07812-.24121-.23438-.31934c-.15527-.07715-.34473-.1377-.56641-.18066-.22266-.04199-.44336-.09375-.66309-.15527s-.40723-.17188-.5625-.33008c-.15625-.1582-.23438-.36426-.23438-.62012Z"/><path class="u" d="M180.33887,121.13721c.27832-.44434,.6875-.66602,1.22559-.66602,.53906,0,.98242,.1875,1.33203,.56348,.34961,.375,.52441,.85938,.52441,1.45215s-.1748,1.0791-.52441,1.45703-.79004,.56641-1.32129,.56641-.94336-.23828-1.23633-.71582v2.53027h-.99902v-5.79688h.99902v.60938Zm1.76074,2.19629c.20508-.20703,.30859-.49121,.30859-.84961,0-.35938-.10352-.64062-.30859-.84375s-.44727-.30469-.72656-.30469c-.27832,0-.52051,.10254-.72656,.30859-.20508,.20508-.30762,.4873-.30762,.84668s.10254,.6416,.30762,.84668c.20605,.20605,.44824,.30859,.72656,.30859,.2793,0,.52148-.10449,.72656-.3125Z"/><path class="u" d="M184.45996,123.93994c-.35254-.37988-.52832-.86621-.52832-1.45605,0-.59082,.1748-1.07422,.52441-1.44922,.34961-.37598,.79395-.56348,1.33203-.56348,.53906,0,.9502,.22168,1.2334,.66602v-.60938h.99219v3.92578h-.99219v-.65918c-.29785,.47754-.71094,.71582-1.24023,.71582s-.96973-.19043-1.32129-.57031Zm2.25-.60254c.20703-.20508,.31152-.4873,.31152-.84668s-.10449-.6416-.31152-.84668c-.20801-.20605-.45117-.30859-.73047-.30859-.27832,0-.52051,.10156-.72656,.30469-.20508,.20312-.30762,.48438-.30762,.84375,0,.3584,.10352,.64258,.31152,.84961,.20801,.20801,.4502,.3125,.72656,.3125s.51855-.10254,.72656-.30859Z"/><path class="u" d="M189.33887,123.95752c-.35938-.36816-.53906-.85742-.53906-1.4668s.17969-1.09863,.53906-1.4668c.35938-.36914,.82422-.55273,1.39648-.55273,.47656,0,.87598,.11523,1.19727,.34668s.53613,.56055,.64453,.98535h-1.07715c-.12695-.32617-.38281-.48926-.76465-.48926-.28906,0-.51465,.10547-.67676,.31543-.16309,.21094-.24512,.49707-.24512,.86133,0,.36328,.08203,.65039,.24512,.86133,.16211,.20996,.3877,.31543,.67676,.31543,.37793,0,.63281-.16602,.76465-.49609h1.07715c-.11328,.41016-.33203,.73633-.65527,.97754s-.71875,.36133-1.18652,.36133c-.57227,0-1.03711-.18457-1.39648-.55273Z"/><path class="u" d="M194.9873,124.51025c-.57227,0-1.03711-.18555-1.39648-.55664-.35938-.37012-.53906-.86035-.53906-1.46973s.18164-1.09766,.54297-1.46387,.8291-.54883,1.40234-.54883c.57422,0,1.0459,.17773,1.41406,.53516,.36914,.35645,.55273,.83203,.55273,1.42773,0,.13672-.00977,.26465-.02832,.38281h-2.86328c.02441,.25488,.11816,.45996,.28418,.61621,.16504,.15625,.375,.23438,.63086,.23438,.34473,0,.59961-.14258,.76465-.42578h1.07715c-.11328,.37305-.33301,.67773-.65918,.91406-.3252,.23633-.71973,.35449-1.18262,.35449Zm.65527-2.96191c-.17773-.15625-.3916-.23438-.6416-.23438s-.45898,.07812-.62695,.23438c-.16797,.15527-.26855,.36328-.30176,.62305h1.85742c-.01465-.25977-.11035-.46777-.28711-.62305Z"/><path class="u" d="M156.50684,129.39307h-.82227c-.08008-.25977-.12061-.53027-.12061-.81152s.07471-.50586,.22363-.67285c.14844-.16797,.36963-.25195,.6626-.25195v.39648c-.23633,0-.35449,.14453-.35449,.43262v.13477h.41113v.77246Zm1.19727,0h-.82178c-.08057-.25977-.12061-.53027-.12061-.81152s.07471-.50586,.22314-.67285c.14893-.16797,.36963-.25195,.6626-.25195v.39648c-.23633,0-.354,.14453-.354,.43262v.13477h.41064v.77246Z"/><path class="u" d="M158.47705,133.45361v-4.94629h3.06104v.76562h-2.06201v1.29688h1.57324v.76465h-1.57324v2.11914h-.99902Z"/><path class="u" d="M163.9834,133.51025c-.57178,0-1.03711-.18555-1.39648-.55664-.35889-.37012-.53857-.86035-.53857-1.46973s.18115-1.09766,.54248-1.46387,.8291-.54883,1.40283-.54883c.57422,0,1.04541,.17773,1.41406,.53516,.36865,.35645,.55273,.83203,.55273,1.42773,0,.13672-.00977,.26465-.02832,.38281h-2.86328c.02393,.25488,.11816,.45996,.28369,.61621s.37549,.23438,.63086,.23438c.34473,0,.59961-.14258,.76514-.42578h1.07715c-.11328,.37305-.33301,.67773-.65918,.91406-.32568,.23633-.72021,.35449-1.18311,.35449Zm.65527-2.96191c-.17725-.15625-.39111-.23438-.64111-.23438-.25049,0-.45947,.07812-.62744,.23438-.16748,.15527-.26807,.36328-.30127,.62305h1.85693c-.01416-.25977-.10986-.46777-.28711-.62305Z"/><path class="u" d="M166.52734,130.67529c0-.33984,.14404-.62598,.43213-.85742s.6709-.34668,1.14795-.34668,.85986,.11426,1.14795,.34375c.28809,.22852,.44189,.53906,.46094,.93164h-1.02051c-.02832-.33105-.23145-.49609-.60938-.49609-.18945,0-.33594,.03809-.43945,.11328-.104,.07617-.15625,.17969-.15625,.31152,0,.13281,.07812,.23633,.23389,.3125,.15625,.0752,.34521,.13477,.56689,.17676,.22217,.04297,.44336,.0957,.6626,.15918,.21973,.06445,.40771,.17773,.56348,.34082,.15625,.16309,.23389,.37891,.23389,.64844,0,.35449-.1499,.64258-.44971,.86426-.30029,.22168-.68311,.33301-1.14844,.33301s-.84668-.10938-1.14453-.3291c-.29736-.21973-.46045-.53516-.48877-.94629h1.02051c.0376,.33105,.24805,.49609,.63086,.49609,.18408,0,.33301-.04102,.44629-.12402s.16992-.19141,.16992-.32617-.07764-.24121-.23389-.31934c-.15576-.07715-.34473-.1377-.56689-.18066-.22217-.04199-.44287-.09375-.6626-.15527s-.40723-.17188-.56299-.33008c-.15625-.1582-.23389-.36426-.23389-.62012Z"/><path class="u" d="M172.12549,132.61768h.47461v.83594h-.63037c-.40186,0-.71143-.0918-.92871-.27637s-.32568-.48926-.32568-.91406v-1.9209h-.41846v-.81445h.41846v-.9707h.99902v.9707h.87891v.81445h-.87891v1.9209c0,.12695,.03076,.21875,.09229,.27246,.06104,.05469,.16748,.08203,.31885,.08203Z"/><path class="u" d="M173.63135,132.93994c-.35205-.37988-.52832-.86621-.52832-1.45605,0-.59082,.1748-1.07422,.52441-1.44922,.34961-.37598,.79395-.56348,1.33252-.56348,.53906,0,.9502,.22168,1.2334,.66602v-.60938h.99219v3.92578h-.99219v-.65918c-.29785,.47754-.71094,.71582-1.24072,.71582-.52881,0-.96973-.19043-1.32129-.57031Zm2.25049-.60254c.20703-.20508,.31152-.4873,.31152-.84668s-.10449-.6416-.31152-.84668c-.20801-.20605-.45117-.30859-.73047-.30859-.27881,0-.521,.10156-.72656,.30469s-.30811,.48438-.30811,.84375c0,.3584,.104,.64258,.31152,.84961,.20801,.20801,.4502,.3125,.72705,.3125,.27637,0,.51855-.10254,.72656-.30859Z"/><path class="u" d="M177.95801,127.65674h.82227c.08008,.25977,.12012,.53027,.12012,.81152s-.07422,.50586-.22266,.67285c-.14941,.16797-.37012,.25195-.66309,.25195v-.39648c.23633,0,.35449-.14453,.35449-.43262v-.13477h-.41113v-.77246Zm1.19727,0h.82227c.08008,.25977,.12012,.53027,.12012,.81152s-.07422,.50586-.22266,.67285c-.14844,.16797-.37012,.25195-.66309,.25195v-.39648c.23633,0,.35449-.14453,.35449-.43262v-.13477h-.41113v-.77246Z"/></g><g><path class="u" d="M95.87256,184.18457v4.94629h-.99219v-3.125l-1.34619,3.125h-.71582l-1.33936-3.11133v3.11133h-.99902v-4.94629h1.1123l1.5874,3.66406,1.5874-3.66406h1.10547Z"/><path class="u" d="M98.0415,184.20605c0,.16992-.05957,.31348-.17725,.43164-.11816,.11816-.26123,.17773-.42871,.17773-.16797,0-.31104-.05957-.42871-.17773-.11816-.11816-.17725-.26172-.17725-.43164,0-.1709,.05908-.31445,.17725-.43262,.11768-.11816,.26074-.17676,.42871-.17676,.16748,0,.31055,.05859,.42871,.17676,.11768,.11816,.17725,.26172,.17725,.43262Zm-1.10547,4.9248v-3.92578h.99902v3.92578h-.99902Z"/><path class="u" d="M100.65625,189.1875c-.57178,0-1.03711-.18555-1.39648-.55664-.35889-.37012-.53857-.86035-.53857-1.46973s.18115-1.09766,.54248-1.46387,.8291-.54883,1.40283-.54883c.57422,0,1.04541,.17773,1.41406,.53516,.36865,.35645,.55273,.83203,.55273,1.42773,0,.13672-.00977,.26465-.02832,.38281h-2.86328c.02393,.25488,.11816,.45996,.28369,.61621s.37549,.23438,.63086,.23438c.34473,0,.59961-.14258,.76514-.42578h1.07715c-.11328,.37305-.33301,.67773-.65918,.91406-.32568,.23633-.72021,.35449-1.18311,.35449Zm.65527-2.96191c-.17725-.15625-.39111-.23438-.64111-.23438-.25049,0-.45947,.07812-.62744,.23438-.16748,.15527-.26807,.36328-.30127,.62305h1.85693c-.01416-.25977-.10986-.46777-.28711-.62305Z"/><path class="u" d="M108.77734,186.65039c-.12793,.15625-.31299,.28027-.55664,.37207-.24316,.0918-.52783,.13867-.854,.13867h-.82178v1.96973h-.99902v-4.94629h1.8208c.57178,0,1.01221,.14258,1.32178,.42871s.46436,.62207,.46436,1.00977-.12549,.72949-.37549,1.02734Zm-2.23242-.25488h.82178c.25049,0,.44189-.06543,.57422-.19531s.19824-.30566,.19824-.52734c0-.22266-.06592-.39844-.19824-.52832s-.32373-.19434-.57422-.19434h-.82178v1.44531Z"/><path class="u" d="M110.90332,185.20508v.69434c.26465-.50098,.64697-.75098,1.14795-.75098v1.02051h-.24805c-.29736,0-.52197,.07422-.67334,.22266-.15088,.14941-.22656,.40527-.22656,.76953v1.96973h-.99902v-3.92578h.99902Z"/><path class="u" d="M114.41846,189.1875c-.57178,0-1.03711-.18555-1.39648-.55664-.35889-.37012-.53857-.86035-.53857-1.46973s.18115-1.09766,.54248-1.46387,.8291-.54883,1.40283-.54883c.57422,0,1.04541,.17773,1.41406,.53516,.36865,.35645,.55273,.83203,.55273,1.42773,0,.13672-.00977,.26465-.02832,.38281h-2.86328c.02393,.25488,.11816,.45996,.28369,.61621s.37549,.23438,.63086,.23438c.34473,0,.59961-.14258,.76514-.42578h1.07715c-.11328,.37305-.33301,.67773-.65918,.91406-.32568,.23633-.72021,.35449-1.18311,.35449Zm.65527-2.96191c-.17725-.15625-.39111-.23438-.64111-.23438-.25049,0-.45947,.07812-.62744,.23438-.16748,.15527-.26807,.36328-.30127,.62305h1.85693c-.01416-.25977-.10986-.46777-.28711-.62305Z"/><path class="u" d="M118.86133,185.20508v.81445h-.62354v3.11133h-.99219v-3.11133h-.42529v-.81445h.42529v-.21973c0-.47266,.125-.81738,.37549-1.03516,.25049-.2168,.64502-.3252,1.18359-.3252v.83594c-.20801,0-.35449,.04004-.43945,.12012-.08496,.08105-.12744,.21484-.12744,.4043v.21973h.62354Z"/><path class="u" d="M119.25098,188.48633h.87158c.1748,.48633,.2124,.90625,.11328,1.26074-.05176,.1748-.15234,.31445-.30127,.41797-.14844,.10449-.34131,.15625-.57715,.15625v-.39648c.12256,0,.2124-.02832,.26904-.08496s.08496-.15625,.08496-.29785v-.13477h-.46045v-.9209Z"/><path class="u" d="M123.23389,189.13086v-4.94629h3.06104v.76562h-2.06201v1.29688h1.57324v.76465h-1.57324v2.11914h-.99902Z"/><path class="u" d="M128.1875,184.20605c0,.16992-.05957,.31348-.17725,.43164-.11816,.11816-.26123,.17773-.42871,.17773-.16797,0-.31104-.05957-.42871-.17773-.11816-.11816-.17725-.26172-.17725-.43164,0-.1709,.05908-.31445,.17725-.43262,.11768-.11816,.26074-.17676,.42871-.17676,.16748,0,.31055,.05859,.42871,.17676,.11768,.11816,.17725,.26172,.17725,.43262Zm-1.10547,4.9248v-3.92578h.99902v3.92578h-.99902Z"/><path class="u" d="M130.14307,185.20508v.58789c.25049-.42969,.65674-.64453,1.21875-.64453,.44873,0,.81494,.14746,1.09863,.44238,.2832,.2959,.42529,.70508,.42529,1.22949v2.31055h-.99219v-2.16895c0-.30664-.07812-.54199-.23389-.70508-.15625-.16211-.36865-.24414-.6377-.24414-.26953,0-.4834,.08203-.6416,.24414-.1582,.16309-.2373,.39844-.2373,.70508v2.16895h-.99902v-3.92578h.99902Z"/><path class="u" d="M135.57129,189.1875c-.57178,0-1.03711-.18555-1.39648-.55664-.35889-.37012-.53857-.86035-.53857-1.46973s.18115-1.09766,.54248-1.46387,.8291-.54883,1.40283-.54883c.57422,0,1.04541,.17773,1.41406,.53516,.36865,.35645,.55273,.83203,.55273,1.42773,0,.13672-.00977,.26465-.02832,.38281h-2.86328c.02393,.25488,.11816,.45996,.28369,.61621s.37549,.23438,.63086,.23438c.34473,0,.59961-.14258,.76514-.42578h1.07715c-.11328,.37305-.33301,.67773-.65918,.91406-.32568,.23633-.72021,.35449-1.18311,.35449Zm.65527-2.96191c-.17725-.15625-.39111-.23438-.64111-.23438-.25049,0-.45947,.07812-.62744,.23438-.16748,.15527-.26807,.36328-.30127,.62305h1.85693c-.01416-.25977-.10986-.46777-.28711-.62305Z"/><path class="u" d="M143.70654,189.13086l-.31885-.92871h-1.92773l-.31885,.92871h-1.05615l1.75049-4.96094h1.18359l1.74316,4.96094h-1.05566Zm-1.98438-1.69336h1.41016l-.7085-2.0625-.70166,2.0625Z"/><path class="u" d="M146.45605,185.20508v.69434c.26465-.50098,.64697-.75098,1.14795-.75098v1.02051h-.24805c-.29736,0-.52197,.07422-.67334,.22266-.15088,.14941-.22656,.40527-.22656,.76953v1.96973h-.99902v-3.92578h.99902Z"/><path class="u" d="M149.83643,188.29492h.47461v.83594h-.63037c-.40186,0-.71143-.0918-.92871-.27637s-.32568-.48926-.32568-.91406v-1.9209h-.41846v-.81445h.41846v-.9707h.99902v.9707h.87891v.81445h-.87891v1.9209c0,.12695,.03076,.21875,.09229,.27246,.06104,.05469,.16748,.08203,.31885,.08203Z"/><path class="u" d="M150.87109,186.35254c0-.33984,.14404-.62598,.43213-.85742s.6709-.34668,1.14795-.34668,.85986,.11426,1.14795,.34375c.28809,.22852,.44189,.53906,.46094,.93164h-1.02051c-.02832-.33105-.23145-.49609-.60938-.49609-.18945,0-.33594,.03809-.43945,.11328-.104,.07617-.15625,.17969-.15625,.31152,0,.13281,.07812,.23633,.23389,.3125,.15625,.0752,.34521,.13477,.56689,.17676,.22217,.04297,.44336,.0957,.6626,.15918,.21973,.06445,.40771,.17773,.56348,.34082,.15625,.16309,.23389,.37891,.23389,.64844,0,.35449-.1499,.64258-.44971,.86426-.30029,.22168-.68311,.33301-1.14844,.33301s-.84668-.10938-1.14453-.3291c-.29736-.21973-.46045-.53516-.48877-.94629h1.02051c.0376,.33105,.24805,.49609,.63086,.49609,.18408,0,.33301-.04102,.44629-.12402s.16992-.19141,.16992-.32617-.07764-.24121-.23389-.31934c-.15576-.07715-.34473-.1377-.56689-.18066-.22217-.04199-.44287-.09375-.6626-.15527s-.40723-.17188-.56299-.33008c-.15625-.1582-.23389-.36426-.23389-.62012Z"/><path class="u" d="M157.5249,188.45801c-.48633-.47754-.72998-1.08203-.72998-1.81445s.24463-1.33691,.73389-1.81445c.48877-.47656,1.0874-.71582,1.79639-.71582,.53857,0,1.0166,.1377,1.43506,.41113,.41797,.27441,.7168,.65918,.89648,1.15527h-1.19775c-.22217-.43457-.6001-.65234-1.13379-.65234-.44922,0-.81396,.14844-1.09521,.44336-.28076,.29492-.42139,.6875-.42139,1.17676,0,.48828,.14062,.88086,.42139,1.17578,.28125,.2959,.646,.44336,1.09521,.44336,.52881,0,.90674-.21777,1.13379-.65234h1.19775c-.17969,.49609-.47852,.87988-.89648,1.15137-.41846,.27246-.89648,.4082-1.43506,.4082-.71338,0-1.31348-.23926-1.80029-.71582Z"/><path class="u" d="M164.17969,189.1875c-.57178,0-1.03711-.18555-1.39648-.55664-.35889-.37012-.53857-.86035-.53857-1.46973s.18115-1.09766,.54248-1.46387,.8291-.54883,1.40283-.54883c.57422,0,1.04541,.17773,1.41406,.53516,.36865,.35645,.55273,.83203,.55273,1.42773,0,.13672-.00977,.26465-.02832,.38281h-2.86328c.02393,.25488,.11816,.45996,.28369,.61621s.37549,.23438,.63086,.23438c.34473,0,.59961-.14258,.76514-.42578h1.07715c-.11328,.37305-.33301,.67773-.65918,.91406-.32568,.23633-.72021,.35449-1.18311,.35449Zm.65527-2.96191c-.17725-.15625-.39111-.23438-.64111-.23438-.25049,0-.45947,.07812-.62744,.23438-.16748,.15527-.26807,.36328-.30127,.62305h1.85693c-.01416-.25977-.10986-.46777-.28711-.62305Z"/><path class="u" d="M167.94238,185.20508v.58789c.25049-.42969,.65674-.64453,1.21875-.64453,.44873,0,.81494,.14746,1.09863,.44238,.2832,.2959,.42529,.70508,.42529,1.22949v2.31055h-.99219v-2.16895c0-.30664-.07812-.54199-.23389-.70508-.15625-.16211-.36865-.24414-.6377-.24414-.26953,0-.4834,.08203-.6416,.24414-.1582,.16309-.2373,.39844-.2373,.70508v2.16895h-.99902v-3.92578h.99902Z"/><path class="u" d="M173.23584,188.29492h.47461v.83594h-.63037c-.40186,0-.71143-.0918-.92871-.27637s-.32568-.48926-.32568-.91406v-1.9209h-.41846v-.81445h.41846v-.9707h.99902v.9707h.87891v.81445h-.87891v1.9209c0,.12695,.03076,.21875,.09229,.27246,.06104,.05469,.16748,.08203,.31885,.08203Z"/><path class="u" d="M176.14844,189.1875c-.57129,0-1.03711-.18555-1.39648-.55664-.35889-.37012-.53857-.86035-.53857-1.46973s.18115-1.09766,.54248-1.46387,.8291-.54883,1.40332-.54883,1.04492,.17773,1.41406,.53516c.36816,.35645,.55273,.83203,.55273,1.42773,0,.13672-.00977,.26465-.02832,.38281h-2.86328c.02344,.25488,.11816,.45996,.2832,.61621,.16602,.15625,.37598,.23438,.63086,.23438,.34473,0,.59961-.14258,.76562-.42578h1.07715c-.11328,.37305-.33301,.67773-.65918,.91406s-.7207,.35449-1.18359,.35449Zm.65527-2.96191c-.17676-.15625-.39062-.23438-.64062-.23438-.25098,0-.45996,.07812-.62793,.23438-.16699,.15527-.26758,.36328-.30078,.62305h1.85645c-.01367-.25977-.10938-.46777-.28711-.62305Z"/><path class="u" d="M179.91113,185.20508v.69434c.26465-.50098,.64746-.75098,1.14844-.75098v1.02051h-.24805c-.29785,0-.52246,.07422-.67383,.22266-.15039,.14941-.22656,.40527-.22656,.76953v1.96973h-.99902v-3.92578h.99902Z"/></g><g><path class="u" d="M89.8623,121.41211c-.49951,0-.91943-.16699-1.26025-.50098s-.51074-.75879-.51074-1.27246c0-.51465,.1709-.93848,.51318-1.27246s.76221-.50098,1.26025-.50098c.49756,0,.9165,.16699,1.25732,.50098s.51123,.75781,.51123,1.27246c0,.51367-.17041,.93848-.51123,1.27246s-.76074,.50098-1.25977,.50098Zm.76367-.9502c.19531-.20703,.29297-.48242,.29297-.82617s-.09766-.61816-.29297-.82324-.44971-.30762-.76367-.30762c-.31445,0-.56982,.10352-.7666,.30957-.19678,.20703-.29492,.48145-.29492,.82422,0,.3418,.09814,.61621,.29492,.82324,.19678,.20605,.45215,.30957,.7666,.30957,.31396,0,.56836-.10352,.76367-.30957Z"/><path class="u" d="M92.88281,119.05566c.19531-.31152,.48145-.4668,.8584-.4668s.68799,.13184,.93262,.39453,.36719,.60156,.36719,1.0166-.12256,.75488-.36719,1.01953-.55322,.39746-.92529,.39746-.66064-.16699-.86572-.50098v1.77051h-.69922v-4.05762h.69922v.42676Zm1.23291,1.53711c.14404-.14551,.21582-.34375,.21582-.59473s-.07178-.44824-.21582-.59082c-.14404-.1416-.31348-.21289-.5083-.21289-.19531,0-.36475,.07227-.50879,.21582-.14355,.14355-.21582,.3418-.21582,.59277s.07227,.44922,.21582,.59277c.14404,.14355,.31348,.21582,.50879,.21582,.19482,0,.36426-.07324,.5083-.21875Z"/><path class="u" d="M96.75195,121.41699c-.3999,0-.72607-.12988-.97705-.38965-.25146-.25977-.37695-.60254-.37695-1.0293s.12646-.76855,.37939-1.02441c.25293-.25684,.58057-.38477,.98193-.38477,.40186,0,.73193,.125,.98975,.375,.2583,.24902,.38721,.58301,.38721,.99902,0,.09668-.00684,.18555-.02002,.26855h-2.00391c.01611,.17773,.08252,.32227,.19824,.43164,.11572,.1084,.26318,.16309,.44141,.16309,.2417,0,.41992-.09863,.53564-.29785h.75439c-.07959,.26172-.2334,.47461-.46143,.64062-.22803,.16504-.50439,.24805-.82861,.24805Zm.45898-2.07422c-.12402-.1084-.27393-.16309-.44873-.16309-.17578,0-.32178,.05469-.43945,.16309-.11719,.10938-.1875,.25488-.21045,.43652h1.29932c-.00977-.18164-.07666-.32715-.20068-.43652Z"/><path class="u" d="M99.38574,118.62891v.41113c.17529-.30078,.45996-.45117,.85352-.45117,.31396,0,.57031,.10352,.76904,.31055,.19824,.20605,.29736,.49316,.29736,.86035v1.61719h-.69434v-1.51758c0-.21484-.05469-.37988-.16357-.49414-.10938-.11426-.2583-.1709-.44678-.1709s-.33789,.05664-.44873,.1709-.1665,.2793-.1665,.49414v1.51758h-.69922v-2.74805h.69922Z"/><path class="u" d="M101.87109,119.43262c0-.23828,.10107-.43848,.30273-.60059s.46924-.24316,.80371-.24316c.33398,0,.60156,.08008,.80322,.24121,.20166,.16016,.30957,.37793,.32275,.65234h-.71436c-.02002-.23145-.16211-.34766-.42676-.34766-.13232,0-.23486,.02637-.30762,.0791s-.10889,.12598-.10889,.21875,.0542,.16504,.16357,.21777c.10889,.05273,.24121,.09473,.39697,.12402,.15527,.03027,.31006,.06738,.46387,.1123,.15381,.04395,.28516,.12402,.39404,.2373,.10938,.11426,.16406,.26562,.16406,.4541,0,.24805-.10547,.4502-.31543,.60547s-.47754,.2334-.80322,.2334c-.32617,0-.59277-.07715-.80127-.23145-.2085-.15332-.32275-.37402-.34229-.66211h.71436c.02637,.23145,.17334,.34766,.44141,.34766,.12891,0,.23291-.0293,.3125-.08691s.11914-.13379,.11914-.22852c0-.09375-.05469-.16797-.16357-.22266-.10938-.05469-.2417-.09668-.39697-.12695-.15576-.0293-.31006-.06641-.46387-.10938s-.28516-.11914-.39453-.23047c-.10889-.11035-.16357-.25488-.16357-.43359Z"/><path class="u" d="M105.42285,119.05566c.19531-.31152,.48145-.4668,.8584-.4668s.68799,.13184,.93262,.39453,.36719,.60156,.36719,1.0166-.12256,.75488-.36719,1.01953-.55322,.39746-.92529,.39746-.66064-.16699-.86572-.50098v1.77051h-.69922v-4.05762h.69922v.42676Zm1.23291,1.53711c.14404-.14551,.21582-.34375,.21582-.59473s-.07178-.44824-.21582-.59082c-.14404-.1416-.31348-.21289-.5083-.21289-.19531,0-.36475,.07227-.50879,.21582-.14355,.14355-.21582,.3418-.21582,.59277s.07227,.44922,.21582,.59277c.14404,.14355,.31348,.21582,.50879,.21582,.19482,0,.36426-.07324,.5083-.21875Z"/><path class="u" d="M108.30762,121.01758c-.24658-.2666-.36963-.60645-.36963-1.01953s.12207-.75195,.36719-1.01465c.24463-.2627,.55518-.39453,.93213-.39453,.37744,0,.66504,.15527,.86328,.4668v-.42676h.69482v2.74805h-.69482v-.46094c-.20801,.33398-.49756,.50098-.86816,.50098-.37012,0-.67871-.13379-.9248-.39941Zm1.57471-.42188c.14551-.14355,.21826-.3418,.21826-.59277s-.07275-.44922-.21826-.59277-.31592-.21582-.51074-.21582c-.19531,0-.36475,.07129-.50879,.21289-.14355,.14258-.21533,.33984-.21533,.59082s.07227,.44922,.21826,.59473c.14502,.14551,.31494,.21875,.5083,.21875s.36279-.07227,.5083-.21582Z"/><path class="u" d="M111.72266,121.0293c-.25146-.25781-.37695-.59961-.37695-1.02637s.12549-.76855,.37695-1.02734c.25098-.25781,.57715-.38672,.97705-.38672,.33398,0,.61377,.08105,.83838,.24316,.2251,.16211,.37549,.3916,.45166,.68945h-.75439c-.08887-.22754-.26758-.3418-.53564-.3418-.20166,0-.35938,.07324-.47363,.2207-.11426,.14648-.1709,.34766-.1709,.60254s.05664,.45508,.1709,.60254,.27197,.2207,.47363,.2207c.26465,0,.44336-.11523,.53564-.34668h.75439c-.07959,.28711-.23242,.51562-.45898,.68457-.22656,.16797-.50342,.25293-.83105,.25293-.3999,0-.72607-.12891-.97705-.3877Z"/><path class="u" d="M115.67627,121.41699c-.3999,0-.72607-.12988-.97705-.38965-.25146-.25977-.37695-.60254-.37695-1.0293s.12646-.76855,.37939-1.02441c.25293-.25684,.58057-.38477,.98193-.38477,.40186,0,.73193,.125,.98975,.375,.2583,.24902,.38721,.58301,.38721,.99902,0,.09668-.00684,.18555-.02002,.26855h-2.00391c.01611,.17773,.08252,.32227,.19824,.43164,.11572,.1084,.26318,.16309,.44141,.16309,.2417,0,.41992-.09863,.53564-.29785h.75439c-.07959,.26172-.2334,.47461-.46143,.64062-.22803,.16504-.50439,.24805-.82861,.24805Zm.45898-2.07422c-.12402-.1084-.27393-.16309-.44873-.16309-.17578,0-.32178,.05469-.43945,.16309-.11719,.10938-.1875,.25488-.21045,.43652h1.29932c-.00977-.18164-.07666-.32715-.20068-.43652Z"/><path class="u" d="M88.74121,125.53418h-.57568c-.05615-.18164-.08447-.37109-.08447-.56738,0-.19727,.05225-.35449,.15625-.47168,.10449-.11719,.25879-.17578,.46387-.17578v.27734c-.16504,0-.24805,.10156-.24805,.30273v.09473h.28809v.54004Zm.83838,0h-.57568c-.05615-.18164-.08447-.37109-.08447-.56738,0-.19727,.05225-.35449,.15625-.47168,.10449-.11719,.25879-.17578,.46387-.17578v.27734c-.16504,0-.24805,.10156-.24805,.30273v.09473h.28809v.54004Z"/><path class="u" d="M90.81934,128.37695h-.69922v-3.46289h.69922v1.54785l1.25049-1.54785h.9126l-1.50293,1.73633,1.50293,1.72656h-.90771l-1.25537-1.53809v1.53809Z"/><path class="u" d="M94.1626,125.62891v.41113c.17529-.30078,.45996-.45117,.85352-.45117,.31396,0,.57031,.10352,.76904,.31055,.19824,.20605,.29736,.49316,.29736,.86035v1.61719h-.69434v-1.51758c0-.21484-.05469-.37988-.16357-.49414-.10938-.11426-.2583-.1709-.44678-.1709s-.33789,.05664-.44873,.1709-.1665,.2793-.1665,.49414v1.51758h-.69922v-2.74805h.69922Z"/><path class="u" d="M97.01514,128.02441c-.26807-.26074-.40186-.60352-.40186-1.02637,0-.42383,.13574-.76367,.40674-1.02246,.271-.25781,.60742-.38672,1.00928-.38672s.73828,.12891,1.00977,.38672c.271,.25879,.40674,.59863,.40674,1.02246,0,.42285-.13623,.76562-.40918,1.02637-.27295,.26172-.61133,.39258-1.01465,.39258s-.73926-.13086-1.00684-.39258Zm1.00684-.19824c.19531,0,.36279-.07227,.50342-.21582s.21094-.34668,.21094-.61035c0-.2627-.06934-.46484-.2085-.60742-.13867-.1416-.30664-.21289-.50342-.21289s-.36279,.07129-.49854,.21289c-.13574,.14258-.20312,.3457-.20312,.61035s.06738,.46777,.20312,.61035c.13574,.1416,.30078,.21289,.49609,.21289Z"/><path class="u" d="M103.1167,125.62891h.66992l-.84375,2.74805h-.74365l-.47168-1.8457-.47607,1.8457h-.74414l-.84326-2.74805h.70459l.50586,2.08789,.50586-2.08789h.73438l.49609,2.08301,.50586-2.08301Z"/><path class="u" d="M104.18799,128.37695v-3.6709h.69922v3.6709h-.69922Z"/><path class="u" d="M106.79199,128.41699c-.3999,0-.72607-.12988-.97705-.38965-.25146-.25977-.37695-.60254-.37695-1.0293s.12646-.76855,.37939-1.02441c.25293-.25684,.58057-.38477,.98193-.38477,.40186,0,.73193,.125,.98975,.375,.2583,.24902,.38721,.58301,.38721,.99902,0,.09668-.00684,.18555-.02002,.26855h-2.00391c.01611,.17773,.08252,.32227,.19824,.43164,.11572,.1084,.26318,.16309,.44141,.16309,.2417,0,.41992-.09863,.53564-.29785h.75439c-.07959,.26172-.2334,.47461-.46143,.64062-.22803,.16504-.50439,.24805-.82861,.24805Zm.45898-2.07422c-.12402-.1084-.27393-.16309-.44873-.16309-.17578,0-.32178,.05469-.43945,.16309-.11719,.10938-.1875,.25488-.21045,.43652h1.29932c-.00977-.18164-.07666-.32715-.20068-.43652Z"/><path class="u" d="M108.90283,128.01758c-.24658-.2666-.36963-.60645-.36963-1.01953s.12207-.75195,.36719-1.01465c.24463-.2627,.55518-.39453,.93213-.39453,.37744,0,.66504,.15527,.86328,.4668v-1.34961h.69482v3.6709h-.69482v-.46094c-.20801,.33398-.49756,.50098-.86816,.50098-.37012,0-.67871-.13379-.9248-.39941Zm1.57471-.42188c.14551-.14355,.21826-.3418,.21826-.59277s-.07275-.44922-.21826-.59277-.31592-.21582-.51074-.21582c-.19531,0-.36475,.07129-.50879,.21289-.14355,.14258-.21533,.33984-.21533,.59082s.07227,.44922,.21826,.59473c.14502,.14551,.31494,.21875,.5083,.21875s.36279-.07227,.5083-.21582Z"/><path class="u" d="M112.31055,128.01758c-.24658-.2666-.36963-.60645-.36963-1.01953s.12207-.75195,.36719-1.01465c.24463-.2627,.55518-.39453,.93213-.39453,.37744,0,.66504,.15527,.86328,.4668v-.42676h.69482v2.76758c0,.39355-.11621,.71582-.34766,.96484-.23145,.25-.55615,.375-.97461,.375s-.75049-.08691-.99707-.26074-.38623-.4209-.41895-.74121h.68457c.04248,.12207,.12549,.21875,.24805,.29004,.12207,.07129,.27588,.10645,.46094,.10645,.18555,0,.33984-.06152,.46387-.18359s.18604-.30566,.18604-.55078v-.48047c-.20801,.33398-.49756,.50098-.86816,.50098-.37012,0-.67871-.13379-.9248-.39941Zm1.57471-.42188c.14551-.14355,.21826-.3418,.21826-.59277s-.07275-.44922-.21826-.59277-.31592-.21582-.51074-.21582c-.19531,0-.36475,.07129-.50879,.21289-.14355,.14258-.21533,.33984-.21533,.59082s.07227,.44922,.21826,.59473c.14502,.14551,.31494,.21875,.5083,.21875s.36279-.07227,.5083-.21582Z"/><path class="u" d="M116.70264,128.41699c-.3999,0-.72607-.12988-.97705-.38965-.25146-.25977-.37695-.60254-.37695-1.0293s.12646-.76855,.37939-1.02441c.25293-.25684,.58057-.38477,.98193-.38477,.40186,0,.73193,.125,.98975,.375,.2583,.24902,.38721,.58301,.38721,.99902,0,.09668-.00684,.18555-.02002,.26855h-2.00391c.01611,.17773,.08252,.32227,.19824,.43164,.11572,.1084,.26318,.16309,.44141,.16309,.2417,0,.41992-.09863,.53564-.29785h.75439c-.07959,.26172-.2334,.47461-.46143,.64062-.22803,.16504-.50439,.24805-.82861,.24805Zm.45898-2.07422c-.12402-.1084-.27393-.16309-.44873-.16309-.17578,0-.32178,.05469-.43945,.16309-.11719,.10938-.1875,.25488-.21045,.43652h1.29932c-.00977-.18164-.07666-.32715-.20068-.43652Z"/><path class="u" d="M118.43359,124.31934h.57568c.05615,.18164,.08447,.37109,.08447,.56738,0,.19727-.05225,.35449-.15625,.47168-.10449,.11719-.25879,.17578-.46387,.17578v-.27734c.16504,0,.24805-.10059,.24805-.30273v-.09375h-.28809v-.54102Zm.83838,0h.57568c.05615,.18164,.08447,.37109,.08447,.56738,0,.19727-.05225,.35449-.15625,.47168-.10449,.11719-.25928,.17578-.46387,.17578v-.27734c.16504,0,.24805-.10059,.24805-.30273v-.09375h-.28809v-.54102Z"/></g><g><path class="u" d="M102.23486,66.67676v4.94629h-.99219v-3.125l-1.34619,3.125h-.71582l-1.33936-3.11133v3.11133h-.99902v-4.94629h1.1123l1.5874,3.66406,1.5874-3.66406h1.10547Z"/><path class="u" d="M106.00537,67.69727h.99902v3.92578h-.99902v-.5957c-.25049,.43066-.65918,.64551-1.22607,.64551-.44434,0-.80811-.14746-1.09131-.44336-.28369-.29492-.42529-.70508-.42529-1.22949v-2.30273h.99219v2.16113c0,.30762,.07764,.54297,.23389,.70898,.15576,.16504,.36816,.24805,.6377,.24805,.26904,0,.48291-.08301,.64111-.24805,.1582-.16602,.23779-.40137,.23779-.70898v-2.16113Z"/><path class="u" d="M108.06738,71.62305v-5.24414h.99902v5.24414h-.99902Z"/><path class="u" d="M111.65283,70.78711h.47461v.83594h-.63037c-.40186,0-.71143-.0918-.92871-.27637s-.32568-.48926-.32568-.91406v-1.9209h-.41846v-.81445h.41846v-.9707h.99902v.9707h.87891v.81445h-.87891v1.9209c0,.12695,.03076,.21875,.09229,.27246,.06104,.05469,.16748,.08203,.31885,.08203Z"/><path class="u" d="M114.0127,66.69824c0,.16992-.05957,.31348-.17725,.43164-.11816,.11816-.26123,.17773-.42871,.17773-.16797,0-.31104-.05957-.42871-.17773-.11816-.11816-.17725-.26172-.17725-.43164,0-.1709,.05908-.31445,.17725-.43262,.11768-.11816,.26074-.17676,.42871-.17676,.16748,0,.31055,.05859,.42871,.17676,.11768,.11816,.17725,.26172,.17725,.43262Zm-1.10547,4.9248v-3.92578h.99902v3.92578h-.99902Z"/><path class="u" d="M115.96826,68.30664c.27881-.44434,.6875-.66602,1.22607-.66602s.98242,.1875,1.33203,.56348c.34961,.375,.52441,.85938,.52441,1.45215s-.1748,1.0791-.52441,1.45703-.79004,.56641-1.32178,.56641c-.53125,0-.94336-.23828-1.23633-.71582v2.53027h-.99902v-5.79688h.99902v.60938Zm1.76074,2.19629c.20557-.20703,.30859-.49121,.30859-.84961,0-.35938-.10303-.64062-.30859-.84375-.20508-.20312-.44727-.30469-.72607-.30469s-.521,.10254-.72656,.30859c-.20557,.20508-.30811,.4873-.30811,.84668s.10254,.6416,.30811,.84668c.20557,.20605,.44775,.30859,.72656,.30859s.521-.10449,.72607-.3125Z"/><path class="u" d="M122.54492,67.69727h.99902v3.92578h-.99902v-.5957c-.25049,.43066-.65918,.64551-1.22607,.64551-.44434,0-.80811-.14746-1.09131-.44336-.28369-.29492-.42529-.70508-.42529-1.22949v-2.30273h.99219v2.16113c0,.30762,.07764,.54297,.23389,.70898,.15576,.16504,.36816,.24805,.6377,.24805,.26904,0,.48291-.08301,.64111-.24805,.1582-.16602,.23779-.40137,.23779-.70898v-2.16113Z"/><path class="u" d="M125.60596,67.69727v.69434c.26465-.50098,.64697-.75098,1.14795-.75098v1.02051h-.24805c-.29736,0-.52197,.07422-.67334,.22266-.15088,.14941-.22656,.40527-.22656,.76953v1.96973h-.99902v-3.92578h.99902Z"/><path class="u" d="M128.46191,68.30664c.27881-.44434,.6875-.66602,1.22607-.66602s.98242,.1875,1.33203,.56348c.34961,.375,.52441,.85938,.52441,1.45215s-.1748,1.0791-.52441,1.45703-.79004,.56641-1.32178,.56641c-.53125,0-.94336-.23828-1.23633-.71582v2.53027h-.99902v-5.79688h.99902v.60938Zm1.76074,2.19629c.20557-.20703,.30859-.49121,.30859-.84961,0-.35938-.10303-.64062-.30859-.84375-.20508-.20312-.44727-.30469-.72607-.30469s-.521,.10254-.72656,.30859c-.20557,.20508-.30811,.4873-.30811,.84668s.10254,.6416,.30811,.84668c.20557,.20605,.44775,.30859,.72656,.30859s.521-.10449,.72607-.3125Z"/><path class="u" d="M132.63623,71.12012c-.38281-.37305-.57422-.8623-.57422-1.4668,0-.60547,.19385-1.0918,.58105-1.45996,.38721-.36914,.86816-.55273,1.44238-.55273,.57373,0,1.05469,.18359,1.44189,.55273,.38721,.36816,.58105,.85449,.58105,1.45996,0,.60449-.19482,1.09375-.58447,1.4668s-.87305,.55957-1.44922,.55957c-.57666,0-1.05615-.18652-1.43848-.55957Zm1.43848-.2832c.27881,0,.51855-.10352,.71924-.30859,.20068-.20605,.30127-.49609,.30127-.87207,0-.375-.09912-.66504-.29785-.86816-.19824-.20312-.43799-.30469-.71924-.30469s-.51855,.10156-.7124,.30469c-.19336,.20312-.29053,.49414-.29053,.87207s.09717,.66895,.29053,.87109c.19385,.2041,.43018,.30566,.70898,.30566Z"/><path class="u" d="M136.68262,68.84473c0-.33984,.14404-.62598,.43213-.85742s.6709-.34668,1.14795-.34668,.85986,.11426,1.14795,.34375c.28809,.22852,.44189,.53906,.46094,.93164h-1.02051c-.02832-.33105-.23145-.49609-.60938-.49609-.18945,0-.33594,.03809-.43945,.11328-.104,.07617-.15625,.17969-.15625,.31152,0,.13281,.07812,.23633,.23389,.3125,.15625,.0752,.34521,.13477,.56689,.17676,.22217,.04297,.44336,.0957,.6626,.15918,.21973,.06445,.40771,.17773,.56348,.34082,.15625,.16309,.23389,.37891,.23389,.64844,0,.35449-.1499,.64258-.44971,.86426-.30029,.22168-.68311,.33301-1.14844,.33301s-.84668-.10938-1.14453-.3291c-.29736-.21973-.46045-.53516-.48877-.94629h1.02051c.0376,.33105,.24805,.49609,.63086,.49609,.18408,0,.33301-.04102,.44629-.12402s.16992-.19141,.16992-.32617-.07764-.24121-.23389-.31934c-.15576-.07715-.34473-.1377-.56689-.18066-.22217-.04199-.44287-.09375-.6626-.15527s-.40723-.17188-.56299-.33008c-.15625-.1582-.23389-.36426-.23389-.62012Z"/><path class="u" d="M142.41553,71.67969c-.57178,0-1.03711-.18555-1.39648-.55664-.35889-.37012-.53857-.86035-.53857-1.46973s.18115-1.09766,.54248-1.46387,.8291-.54883,1.40283-.54883c.57422,0,1.04541,.17773,1.41406,.53516,.36865,.35645,.55273,.83203,.55273,1.42773,0,.13672-.00977,.26465-.02832,.38281h-2.86328c.02393,.25488,.11816,.45996,.28369,.61621s.37549,.23438,.63086,.23438c.34473,0,.59961-.14258,.76514-.42578h1.07715c-.11328,.37305-.33301,.67773-.65918,.91406-.32568,.23633-.72021,.35449-1.18311,.35449Zm.65527-2.96191c-.17725-.15625-.39111-.23438-.64111-.23438-.25049,0-.45947,.07812-.62744,.23438-.16748,.15527-.26807,.36328-.30127,.62305h1.85693c-.01416-.25977-.10986-.46777-.28711-.62305Z"/><path class="u" d="M150.43018,66.67676h.99902v4.94629h-.99902v-2.11914h-2.12598v2.11914h-.99902v-4.94629h.99902v2.0625h2.12598v-2.0625Z"/><path class="u" d="M152.74414,71.10938c-.35205-.37988-.52832-.86621-.52832-1.45605,0-.59082,.1748-1.07422,.52441-1.44922,.34961-.37598,.79395-.56348,1.33252-.56348s.94971,.22168,1.23291,.66602v-.60938h.99219v3.92578h-.99219v-.65918c-.29736,.47754-.71094,.71582-1.24023,.71582-.52881,0-.96973-.19043-1.32129-.57031Zm2.25-.60254c.20752-.20508,.31152-.4873,.31152-.84668s-.104-.6416-.31152-.84668c-.20801-.20605-.45117-.30859-.72998-.30859s-.521,.10156-.72656,.30469-.30811,.48438-.30811,.84375c0,.3584,.104,.64258,.31152,.84961,.20801,.20801,.4502,.3125,.72656,.3125s.51855-.10254,.72656-.30859Z"/><path class="u" d="M157.36133,71.62305v-5.24414h.99902v5.24414h-.99902Z"/><path class="u" d="M159.42334,71.62305v-5.24414h.99902v5.24414h-.99902Z"/></g><g><path class="u" d="M25.08496,118.61768v4.94629h-.99219v-3.125l-1.34619,3.125h-.71582l-1.33936-3.11133v3.11133h-.99902v-4.94629h1.1123l1.5874,3.66406,1.5874-3.66406h1.10547Z"/><path class="u" d="M27.25391,118.63916c0,.16992-.05957,.31348-.17725,.43164-.11816,.11816-.26123,.17773-.42871,.17773-.16797,0-.31104-.05957-.42871-.17773-.11816-.11816-.17725-.26172-.17725-.43164,0-.1709,.05908-.31445,.17725-.43262,.11768-.11816,.26074-.17676,.42871-.17676,.16748,0,.31055,.05859,.42871,.17676,.11768,.11816,.17725,.26172,.17725,.43262Zm-1.10547,4.9248v-3.92578h.99902v3.92578h-.99902Z"/><path class="u" d="M29.86865,123.62061c-.57178,0-1.03711-.18555-1.39648-.55664-.35889-.37012-.53857-.86035-.53857-1.46973s.18115-1.09766,.54248-1.46387,.8291-.54883,1.40283-.54883c.57422,0,1.04541,.17773,1.41406,.53516,.36865,.35645,.55273,.83203,.55273,1.42773,0,.13672-.00977,.26465-.02832,.38281h-2.86328c.02393,.25488,.11816,.45996,.28369,.61621s.37549,.23438,.63086,.23438c.34473,0,.59961-.14258,.76514-.42578h1.07715c-.11328,.37305-.33301,.67773-.65918,.91406-.32568,.23633-.72021,.35449-1.18311,.35449Zm.65527-2.96191c-.17725-.15625-.39111-.23438-.64111-.23438-.25049,0-.45947,.07812-.62744,.23438-.16748,.15527-.26807,.36328-.30127,.62305h1.85693c-.01416-.25977-.10986-.46777-.28711-.62305Z"/><path class="u" d="M37.98975,121.0835c-.12793,.15625-.31299,.28027-.55664,.37207-.24316,.0918-.52783,.13867-.854,.13867h-.82178v1.96973h-.99902v-4.94629h1.8208c.57178,0,1.01221,.14258,1.32178,.42871s.46436,.62207,.46436,1.00977-.12549,.72949-.37549,1.02734Zm-2.23242-.25488h.82178c.25049,0,.44189-.06543,.57422-.19531s.19824-.30566,.19824-.52734c0-.22266-.06592-.39844-.19824-.52832s-.32373-.19434-.57422-.19434h-.82178v1.44531Z"/><path class="u" d="M40.11572,119.63818v.69434c.26465-.50098,.64697-.75098,1.14795-.75098v1.02051h-.24805c-.29736,0-.52197,.07422-.67334,.22266-.15088,.14941-.22656,.40527-.22656,.76953v1.96973h-.99902v-3.92578h.99902Z"/><path class="u" d="M43.63086,123.62061c-.57178,0-1.03711-.18555-1.39648-.55664-.35889-.37012-.53857-.86035-.53857-1.46973s.18115-1.09766,.54248-1.46387,.8291-.54883,1.40283-.54883c.57422,0,1.04541,.17773,1.41406,.53516,.36865,.35645,.55273,.83203,.55273,1.42773,0,.13672-.00977,.26465-.02832,.38281h-2.86328c.02393,.25488,.11816,.45996,.28369,.61621s.37549,.23438,.63086,.23438c.34473,0,.59961-.14258,.76514-.42578h1.07715c-.11328,.37305-.33301,.67773-.65918,.91406-.32568,.23633-.72021,.35449-1.18311,.35449Zm.65527-2.96191c-.17725-.15625-.39111-.23438-.64111-.23438-.25049,0-.45947,.07812-.62744,.23438-.16748,.15527-.26807,.36328-.30127,.62305h1.85693c-.01416-.25977-.10986-.46777-.28711-.62305Z"/><path class="u" d="M48.07373,119.63818v.81445h-.62354v3.11133h-.99219v-3.11133h-.42529v-.81445h.42529v-.21973c0-.47266,.125-.81738,.37549-1.03516,.25049-.2168,.64502-.3252,1.18359-.3252v.83594c-.20801,0-.35449,.04004-.43945,.12012-.08496,.08105-.12744,.21484-.12744,.4043v.21973h.62354Z"/><path class="u" d="M50.41943,123.62061c-.57178,0-1.03711-.18555-1.39648-.55664-.35889-.37012-.53857-.86035-.53857-1.46973s.18115-1.09766,.54248-1.46387,.8291-.54883,1.40283-.54883c.57422,0,1.04541,.17773,1.41406,.53516,.36865,.35645,.55273,.83203,.55273,1.42773,0,.13672-.00977,.26465-.02832,.38281h-2.86328c.02393,.25488,.11816,.45996,.28369,.61621s.37549,.23438,.63086,.23438c.34473,0,.59961-.14258,.76514-.42578h1.07715c-.11328,.37305-.33301,.67773-.65918,.91406-.32568,.23633-.72021,.35449-1.18311,.35449Zm.65527-2.96191c-.17725-.15625-.39111-.23438-.64111-.23438-.25049,0-.45947,.07812-.62744,.23438-.16748,.15527-.26807,.36328-.30127,.62305h1.85693c-.01416-.25977-.10986-.46777-.28711-.62305Z"/><path class="u" d="M53.44482,123.06787c-.35889-.36816-.53857-.85742-.53857-1.4668s.17969-1.09863,.53857-1.4668c.35938-.36914,.82471-.55273,1.39648-.55273,.47705,0,.87598,.11523,1.19727,.34668s.53613,.56055,.64502,.98535h-1.07715c-.12744-.32617-.38281-.48926-.76514-.48926-.28857,0-.51416,.10547-.67676,.31543-.16309,.21094-.24463,.49707-.24463,.86133,0,.36328,.08154,.65039,.24463,.86133,.1626,.20996,.38818,.31543,.67676,.31543,.37793,0,.63281-.16602,.76514-.49609h1.07715c-.11328,.41016-.33203,.73633-.65527,.97754-.32373,.24121-.71924,.36133-1.18701,.36133-.57178,0-1.03711-.18457-1.39648-.55273Z"/><path class="u" d="M58.9585,122.72803h.47461v.83594h-.63037c-.40186,0-.71143-.0918-.92871-.27637s-.32568-.48926-.32568-.91406v-1.9209h-.41846v-.81445h.41846v-.9707h.99902v.9707h.87891v.81445h-.87891v1.9209c0,.12695,.03076,.21875,.09229,.27246,.06104,.05469,.16748,.08203,.31885,.08203Z"/><path class="u" d="M62.91992,119.63818h.99902v3.92578h-.99902v-.5957c-.25049,.43066-.65918,.64551-1.22607,.64551-.44434,0-.80811-.14746-1.09131-.44336-.28369-.29492-.42529-.70508-.42529-1.22949v-2.30273h.99219v2.16113c0,.30762,.07764,.54297,.23389,.70898,.15576,.16504,.36816,.24805,.6377,.24805,.26904,0,.48291-.08301,.64111-.24805,.1582-.16602,.23779-.40137,.23779-.70898v-2.16113Z"/><path class="u" d="M65.98096,119.63818v.69434c.26465-.50098,.64697-.75098,1.14795-.75098v1.02051h-.24805c-.29736,0-.52197,.07422-.67334,.22266-.15088,.14941-.22656,.40527-.22656,.76953v1.96973h-.99902v-3.92578h.99902Z"/><path class="u" d="M68.08936,123.05029c-.35205-.37988-.52832-.86621-.52832-1.45605,0-.59082,.1748-1.07422,.52441-1.44922,.34961-.37598,.79395-.56348,1.33252-.56348s.94971,.22168,1.23291,.66602v-.60938h.99219v3.92578h-.99219v-.65918c-.29736,.47754-.71094,.71582-1.24023,.71582-.52881,0-.96973-.19043-1.32129-.57031Zm2.25-.60254c.20752-.20508,.31152-.4873,.31152-.84668s-.104-.6416-.31152-.84668c-.20801-.20605-.45117-.30859-.72998-.30859s-.521,.10156-.72656,.30469-.30811,.48438-.30811,.84375c0,.3584,.104,.64258,.31152,.84961,.20801,.20801,.4502,.3125,.72656,.3125s.51855-.10254,.72656-.30859Z"/><path class="u" d="M72.70654,123.56396v-5.24414h.99902v5.24414h-.99902Z"/><path class="u" d="M19.69238,127.61768h.99902v4.18848h1.5874v.75781h-2.58643v-4.94629Z"/><path class="u" d="M24.05762,127.63916c0,.16992-.05957,.31348-.17725,.43164-.11816,.11816-.26123,.17773-.42871,.17773-.16797,0-.31104-.05957-.42871-.17773-.11816-.11816-.17725-.26172-.17725-.43164,0-.1709,.05908-.31445,.17725-.43262,.11768-.11816,.26074-.17676,.42871-.17676,.16748,0,.31055,.05859,.42871,.17676,.11768,.11816,.17725,.26172,.17725,.43262Zm-1.10547,4.9248v-3.92578h.99902v3.92578h-.99902Z"/><path class="u" d="M26.01318,129.24756c.27881-.44434,.6875-.66602,1.22607-.66602s.98242,.1875,1.33203,.56348c.34961,.375,.52441,.85938,.52441,1.45215s-.1748,1.0791-.52441,1.45703-.79004,.56641-1.32178,.56641c-.53125,0-.94336-.23828-1.23633-.71582v.65918h-.99902v-5.24414h.99902v1.92773Zm1.76074,2.19629c.20557-.20703,.30859-.49121,.30859-.84961,0-.35938-.10303-.64062-.30859-.84375-.20508-.20312-.44727-.30469-.72607-.30469s-.521,.10254-.72656,.30859c-.20557,.20508-.30811,.4873-.30811,.84668s.10254,.6416,.30811,.84668c.20557,.20605,.44775,.30859,.72656,.30859s.521-.10449,.72607-.3125Z"/><path class="u" d="M30.88184,128.63818v.69434c.26465-.50098,.64697-.75098,1.14795-.75098v1.02051h-.24805c-.29736,0-.52197,.07422-.67334,.22266-.15088,.14941-.22656,.40527-.22656,.76953v1.96973h-.99902v-3.92578h.99902Z"/><path class="u" d="M32.99023,132.05029c-.35205-.37988-.52832-.86621-.52832-1.45605,0-.59082,.1748-1.07422,.52441-1.44922,.34961-.37598,.79395-.56348,1.33252-.56348s.94971,.22168,1.23291,.66602v-.60938h.99219v3.92578h-.99219v-.65918c-.29736,.47754-.71094,.71582-1.24023,.71582-.52881,0-.96973-.19043-1.32129-.57031Zm2.25-.60254c.20752-.20508,.31152-.4873,.31152-.84668s-.104-.6416-.31152-.84668c-.20801-.20605-.45117-.30859-.72998-.30859s-.521,.10156-.72656,.30469-.30811,.48438-.30811,.84375c0,.3584,.104,.64258,.31152,.84961,.20801,.20801,.4502,.3125,.72656,.3125s.51855-.10254,.72656-.30859Z"/><path class="u" d="M38.60645,128.63818v.69434c.26465-.50098,.64697-.75098,1.14795-.75098v1.02051h-.24805c-.29736,0-.52197,.07422-.67334,.22266-.15088,.14941-.22656,.40527-.22656,.76953v1.96973h-.99902v-3.92578h.99902Z"/><path class="u" d="M41.51904,132.49268l-1.5376-3.85449h1.11963l.99902,2.79199,1.05615-2.79199h1.0415l-2.45215,5.78223h-1.0415l.81494-1.92773Z"/></g><g><path class="g" d="M121.69531,221.64844v5.93555h-1.19043v-3.75l-1.61523,3.75h-.85938l-1.60742-3.7334v3.7334h-1.19922v-5.93555h1.33594l1.9043,4.39648,1.90527-4.39648h1.32617Z"/><path class="g" d="M123.27246,226.96777c-.42188-.45703-.63281-1.03906-.63281-1.74805,0-.70801,.20898-1.28809,.62891-1.73926,.41992-.4502,.95215-.67578,1.59863-.67578s1.13965,.2666,1.47949,.7998v-.73145h1.19141v4.71094h-1.19141v-.79102c-.35645,.57324-.85254,.85938-1.4873,.85938-.63574,0-1.16406-.22852-1.58691-.68457Zm2.7002-.72363c.25-.24609,.37402-.58496,.37402-1.01562s-.12402-.76953-.37402-1.0166c-.24902-.24609-.54102-.37012-.87598-.37012-.33398,0-.625,.12207-.87109,.36621-.24707,.24414-.37012,.58105-.37012,1.01172s.125,.77148,.37402,1.02051c.25,.25,.54004,.37402,.87207,.37402,.33105,0,.62207-.12305,.87109-.37012Z"/><path class="g" d="M130.13965,221.67383c0,.2041-.07031,.37695-.21191,.51855-.14258,.1416-.31348,.21289-.51465,.21289s-.37305-.07129-.51465-.21289-.21289-.31445-.21289-.51855,.07129-.37695,.21289-.51855,.31348-.21289,.51465-.21289,.37207,.07129,.51465,.21289c.1416,.1416,.21191,.31445,.21191,.51855Zm-1.32617,5.91016v-4.71094h1.19922v4.71094h-1.19922Z"/><path class="g" d="M132.4873,222.87305v.70605c.2998-.5166,.78809-.77441,1.46191-.77441,.53906,0,.97852,.17773,1.31836,.53125,.34082,.35449,.51074,.84668,.51074,1.47559v2.77246h-1.19043v-2.60254c0-.36816-.09375-.65039-.28125-.8457-.18652-.19531-.44238-.29395-.76562-.29395-.32227,0-.5791,.09863-.76953,.29395-.18945,.19531-.28418,.47754-.28418,.8457v2.60254h-1.19922v-4.71094h1.19922Z"/><path class="g" d="M142.98926,221.63086v.91895h-2.22754v1.55566h1.97266v.91895h-1.97266v1.6416h2.22754v.91797h-3.42676v-5.95312h3.42676Z"/><path class="g" d="M145.41309,222.87305v.70605c.30078-.5166,.78809-.77441,1.46289-.77441,.53809,0,.97754,.17773,1.31836,.53125,.33984,.35449,.50977,.84668,.50977,1.47559v2.77246h-1.19043v-2.60254c0-.36816-.09375-.65039-.28027-.8457-.1875-.19531-.44238-.29395-.76562-.29395s-.58008,.09863-.76953,.29395c-.19043,.19531-.28516,.47754-.28516,.8457v2.60254h-1.19922v-4.71094h1.19922Z"/><path class="g" d="M151.76562,226.58008h.57031v1.00391h-.75684c-.48242,0-.85352-.11035-1.11426-.33203-.26074-.2207-.3916-.58594-.3916-1.09668v-2.30469h-.50195v-.97754h.50195v-1.16504h1.19922v1.16504h1.05469v.97754h-1.05469v2.30469c0,.15332,.03711,.2627,.11035,.32715,.07422,.06543,.20117,.09766,.38281,.09766Z"/><path class="g" d="M154.46973,222.87305v.83301c.31738-.60059,.77637-.90137,1.37793-.90137v1.22461h-.29785c-.35742,0-.62598,.08887-.80762,.26758s-.27246,.48633-.27246,.92285v2.36426h-1.19922v-4.71094h1.19922Z"/><path class="g" d="M157,226.96777c-.42285-.45703-.63379-1.03906-.63379-1.74805,0-.70801,.20996-1.28809,.62988-1.73926,.41895-.4502,.95215-.67578,1.59863-.67578s1.13965,.2666,1.47949,.7998v-.73145h1.19043v4.71094h-1.19043v-.79102c-.35742,.57324-.85352,.85938-1.48828,.85938s-1.16406-.22852-1.58594-.68457Zm2.7002-.72363c.24902-.24609,.37402-.58496,.37402-1.01562s-.125-.76953-.37402-1.0166c-.25-.24609-.54199-.37012-.87598-.37012-.33496,0-.625,.12207-.87207,.36621-.24609,.24414-.37012,.58105-.37012,1.01172s.125,.77148,.375,1.02051c.24902,.25,.54004,.37402,.87109,.37402,.33203,0,.62207-.12305,.87207-.37012Z"/><path class="g" d="M163.73926,222.87305v.70605c.30078-.5166,.78809-.77441,1.46289-.77441,.53809,0,.97754,.17773,1.31836,.53125,.33984,.35449,.50977,.84668,.50977,1.47559v2.77246h-1.19043v-2.60254c0-.36816-.09375-.65039-.28027-.8457-.1875-.19531-.44238-.29395-.76562-.29395s-.58008,.09863-.76953,.29395c-.19043,.19531-.28516,.47754-.28516,.8457v2.60254h-1.19922v-4.71094h1.19922Z"/><path class="g" d="M168.57812,226.98828c-.43066-.44141-.64648-1.02832-.64648-1.75977s.21582-1.31836,.64648-1.76074,.98926-.66309,1.67578-.66309c.57227,0,1.05078,.13867,1.43652,.41699,.38574,.27734,.64355,.67188,.77441,1.18164h-1.29297c-.15332-.39062-.45898-.58691-.91797-.58691-.34668,0-.61719,.12695-.8125,.37891s-.29395,.59668-.29395,1.0332,.09863,.78125,.29395,1.0332,.46582,.37793,.8125,.37793c.45312,0,.75879-.19824,.91797-.59473h1.29297c-.13672,.49316-.39844,.88379-.78711,1.17383-.38867,.28906-.86328,.43359-1.42383,.43359-.68652,0-1.24512-.22168-1.67578-.66406Z"/><path class="g" d="M175.35547,227.65234c-.68555,0-1.24414-.22266-1.6748-.66797-.43164-.44531-.64648-1.0332-.64648-1.76465s.2168-1.31641,.65039-1.75586,.99512-.65918,1.68359-.65918,1.25488,.21387,1.69629,.64258c.44238,.42773,.66406,.99902,.66406,1.71289,0,.16504-.01172,.31738-.03418,.45898h-3.43555c.02832,.30664,.1416,.55273,.33984,.74023s.45117,.28027,.75684,.28027c.41406,0,.71973-.16992,.91797-.50977h1.29297c-.13574,.44824-.39941,.81348-.79102,1.09668-.39062,.28418-.86426,.42578-1.41992,.42578Zm.78711-3.55469c-.21289-.1875-.46973-.28125-.77051-.28125-.2998,0-.55078,.09375-.75195,.28125-.20117,.18652-.32227,.43652-.36133,.74805h2.22754c-.0166-.31152-.13184-.56152-.34375-.74805Z"/></g></svg>