<svg width="350" height="51" viewBox="0 0 350 51" fill="none" xmlns="http://www.w3.org/2000/svg">
<mask id="path-1-outside-1_215_3791" maskUnits="userSpaceOnUse" x="225.264" y="12" width="122" height="29" fill="black">
<rect fill="white" x="225.264" y="12" width="122" height="29"/>
<path d="M235.928 33.1882C243.124 32.7897 248.703 32.3469 252.666 31.8599C252.29 33.0111 252.002 34.2288 251.803 35.5129C251.603 36.7971 251.504 37.9594 251.504 39H227.759L227.725 38.3026C227.725 36.1329 228.356 34.251 229.618 32.6569C230.902 31.0628 232.685 29.5905 234.965 28.24C235.629 27.8414 236.67 27.3322 238.087 26.7123C239.925 25.9153 241.342 25.2178 242.338 24.6201C243.334 24.0001 243.832 23.3913 243.832 22.7935C243.832 22.0408 243.522 21.443 242.902 21.0002C242.282 20.5574 241.319 20.336 240.013 20.336C238.574 20.336 237.478 20.7013 236.725 21.4319C235.995 22.1625 235.629 23.0924 235.629 24.2215C235.629 24.5758 235.663 24.9411 235.729 25.3175C232.939 24.9632 230.227 24.7197 227.593 24.5869C227.593 22.705 228.08 21.0112 229.054 19.5057C230.05 17.9781 231.533 16.7714 233.504 15.8858C235.497 15.0002 237.932 14.5574 240.81 14.5574C243.445 14.5574 245.637 14.9227 247.386 15.6534C249.157 16.3619 250.452 17.2696 251.271 18.3766C252.113 19.4614 252.533 20.5795 252.533 21.7308C252.533 23.0592 252.234 24.1994 251.637 25.1514C251.061 26.1034 250.22 26.9558 249.113 27.7086C248.028 28.4392 246.567 29.2363 244.729 30.0997C244.463 30.2326 244.032 30.3875 243.434 30.5647C242.836 30.7196 242.46 30.8193 242.305 30.8636C240.733 31.3285 239.482 31.7159 238.552 32.0259C237.622 32.3359 236.747 32.7233 235.928 33.1882ZM296.568 33.1882C303.763 32.7897 309.342 32.3469 313.305 31.8599C312.929 33.0111 312.641 34.2288 312.442 35.5129C312.243 36.7971 312.143 37.9594 312.143 39H288.398L288.365 38.3026C288.365 36.1329 288.996 34.251 290.258 32.6569C291.542 31.0628 293.324 29.5905 295.605 28.24C296.269 27.8414 297.309 27.3322 298.726 26.7123C300.564 25.9153 301.981 25.2178 302.977 24.6201C303.973 24.0001 304.472 23.3913 304.472 22.7935C304.472 22.0408 304.162 21.443 303.542 21.0002C302.922 20.5574 301.959 20.336 300.652 20.336C299.213 20.336 298.117 20.7013 297.365 21.4319C296.634 22.1625 296.269 23.0924 296.269 24.2215C296.269 24.5758 296.302 24.9411 296.368 25.3175C293.579 24.9632 290.867 24.7197 288.232 24.5869C288.232 22.705 288.719 21.0112 289.693 19.5057C290.689 17.9781 292.173 16.7714 294.143 15.8858C296.136 15.0002 298.571 14.5574 301.45 14.5574C304.084 14.5574 306.276 14.9227 308.025 15.6534C309.796 16.3619 311.091 17.2696 311.911 18.3766C312.752 19.4614 313.173 20.5795 313.173 21.7308C313.173 23.0592 312.874 24.1994 312.276 25.1514C311.7 26.1034 310.859 26.9558 309.752 27.7086C308.667 28.4392 307.206 29.2363 305.368 30.0997C305.103 30.2326 304.671 30.3875 304.073 30.5647C303.475 30.7196 303.099 30.8193 302.944 30.8636C301.372 31.3285 300.121 31.7159 299.191 32.0259C298.261 32.3359 297.387 32.7233 296.568 33.1882ZM345.319 28.5388V34.7823H340.802V39H332.865C332.953 38.0701 333.02 36.6642 333.064 34.7823H317.289V28.0739C322.448 24.1108 327.053 19.7161 331.105 14.8895H340.802V28.5388H345.319ZM333.23 21.4651C331.703 23.0371 330.385 24.3544 329.278 25.4171C328.171 26.4577 326.92 27.4983 325.525 28.5388H333.131L333.23 21.4651Z"/>
</mask>
<path d="M235.928 33.1882C243.124 32.7897 248.703 32.3469 252.666 31.8599C252.29 33.0111 252.002 34.2288 251.803 35.5129C251.603 36.7971 251.504 37.9594 251.504 39H227.759L227.725 38.3026C227.725 36.1329 228.356 34.251 229.618 32.6569C230.902 31.0628 232.685 29.5905 234.965 28.24C235.629 27.8414 236.67 27.3322 238.087 26.7123C239.925 25.9153 241.342 25.2178 242.338 24.6201C243.334 24.0001 243.832 23.3913 243.832 22.7935C243.832 22.0408 243.522 21.443 242.902 21.0002C242.282 20.5574 241.319 20.336 240.013 20.336C238.574 20.336 237.478 20.7013 236.725 21.4319C235.995 22.1625 235.629 23.0924 235.629 24.2215C235.629 24.5758 235.663 24.9411 235.729 25.3175C232.939 24.9632 230.227 24.7197 227.593 24.5869C227.593 22.705 228.08 21.0112 229.054 19.5057C230.05 17.9781 231.533 16.7714 233.504 15.8858C235.497 15.0002 237.932 14.5574 240.81 14.5574C243.445 14.5574 245.637 14.9227 247.386 15.6534C249.157 16.3619 250.452 17.2696 251.271 18.3766C252.113 19.4614 252.533 20.5795 252.533 21.7308C252.533 23.0592 252.234 24.1994 251.637 25.1514C251.061 26.1034 250.22 26.9558 249.113 27.7086C248.028 28.4392 246.567 29.2363 244.729 30.0997C244.463 30.2326 244.032 30.3875 243.434 30.5647C242.836 30.7196 242.46 30.8193 242.305 30.8636C240.733 31.3285 239.482 31.7159 238.552 32.0259C237.622 32.3359 236.747 32.7233 235.928 33.1882ZM296.568 33.1882C303.763 32.7897 309.342 32.3469 313.305 31.8599C312.929 33.0111 312.641 34.2288 312.442 35.5129C312.243 36.7971 312.143 37.9594 312.143 39H288.398L288.365 38.3026C288.365 36.1329 288.996 34.251 290.258 32.6569C291.542 31.0628 293.324 29.5905 295.605 28.24C296.269 27.8414 297.309 27.3322 298.726 26.7123C300.564 25.9153 301.981 25.2178 302.977 24.6201C303.973 24.0001 304.472 23.3913 304.472 22.7935C304.472 22.0408 304.162 21.443 303.542 21.0002C302.922 20.5574 301.959 20.336 300.652 20.336C299.213 20.336 298.117 20.7013 297.365 21.4319C296.634 22.1625 296.269 23.0924 296.269 24.2215C296.269 24.5758 296.302 24.9411 296.368 25.3175C293.579 24.9632 290.867 24.7197 288.232 24.5869C288.232 22.705 288.719 21.0112 289.693 19.5057C290.689 17.9781 292.173 16.7714 294.143 15.8858C296.136 15.0002 298.571 14.5574 301.45 14.5574C304.084 14.5574 306.276 14.9227 308.025 15.6534C309.796 16.3619 311.091 17.2696 311.911 18.3766C312.752 19.4614 313.173 20.5795 313.173 21.7308C313.173 23.0592 312.874 24.1994 312.276 25.1514C311.7 26.1034 310.859 26.9558 309.752 27.7086C308.667 28.4392 307.206 29.2363 305.368 30.0997C305.103 30.2326 304.671 30.3875 304.073 30.5647C303.475 30.7196 303.099 30.8193 302.944 30.8636C301.372 31.3285 300.121 31.7159 299.191 32.0259C298.261 32.3359 297.387 32.7233 296.568 33.1882ZM345.319 28.5388V34.7823H340.802V39H332.865C332.953 38.0701 333.02 36.6642 333.064 34.7823H317.289V28.0739C322.448 24.1108 327.053 19.7161 331.105 14.8895H340.802V28.5388H345.319ZM333.23 21.4651C331.703 23.0371 330.385 24.3544 329.278 25.4171C328.171 26.4577 326.92 27.4983 325.525 28.5388H333.131L333.23 21.4651Z" fill="white"/>
<path d="M235.928 33.1882L234.997 31.5473C234.235 31.9797 233.871 32.8797 234.118 33.7201C234.365 34.5606 235.158 35.1206 236.033 35.0722L235.928 33.1882ZM252.666 31.8599L254.459 32.4461C254.66 31.8327 254.533 31.1593 254.123 30.6609C253.713 30.1626 253.077 29.9084 252.436 29.9871L252.666 31.8599ZM251.803 35.5129L249.938 35.2236L249.938 35.2236L251.803 35.5129ZM251.504 39V40.8868C252.546 40.8868 253.391 40.042 253.391 39H251.504ZM227.759 39L225.874 39.0897C225.922 40.0958 226.751 40.8868 227.759 40.8868V39ZM227.725 38.3026H225.839C225.839 38.3325 225.839 38.3624 225.841 38.3923L227.725 38.3026ZM229.618 32.6569L228.149 31.4732C228.146 31.4774 228.142 31.4816 228.139 31.4858L229.618 32.6569ZM234.965 28.24L235.927 29.8634L235.936 29.8579L234.965 28.24ZM238.087 26.7123L237.336 24.9813L237.331 24.9837L238.087 26.7123ZM242.338 24.6201L243.309 26.238C243.317 26.2327 243.326 26.2274 243.335 26.2221L242.338 24.6201ZM242.902 21.0002L243.999 19.4648L243.999 19.4648L242.902 21.0002ZM236.725 21.4319L235.411 20.078C235.404 20.0845 235.398 20.0911 235.391 20.0977L236.725 21.4319ZM235.729 25.3175L235.491 27.1892C236.086 27.2648 236.681 27.0531 237.095 26.619C237.509 26.1849 237.691 25.58 237.587 24.9896L235.729 25.3175ZM227.593 24.5869H225.706C225.706 25.592 226.494 26.4206 227.498 26.4713L227.593 24.5869ZM229.054 19.5057L227.473 18.475L227.47 18.4807L229.054 19.5057ZM233.504 15.8858L232.738 14.1617L232.73 14.1649L233.504 15.8858ZM247.386 15.6534L246.658 17.3944C246.667 17.3981 246.676 17.4017 246.685 17.4052L247.386 15.6534ZM251.271 18.3766L249.755 19.4989C249.763 19.5103 249.772 19.5216 249.78 19.5329L251.271 18.3766ZM251.637 25.1514L250.039 24.1481C250.033 24.1571 250.027 24.1661 250.022 24.1752L251.637 25.1514ZM249.113 27.7086L250.167 29.2736L250.174 29.2688L249.113 27.7086ZM244.729 30.0997L243.927 28.392C243.913 28.3986 243.899 28.4053 243.885 28.4121L244.729 30.0997ZM243.434 30.5647L243.907 32.3911C243.928 32.3856 243.949 32.3799 243.97 32.3737L243.434 30.5647ZM242.305 30.8636L241.786 29.0494C241.781 29.051 241.775 29.0526 241.769 29.0542L242.305 30.8636ZM238.552 32.0259L237.955 30.2359L237.955 30.2359L238.552 32.0259ZM236.033 35.0722C243.243 34.6728 248.871 34.2273 252.896 33.7326L252.436 29.9871C248.535 30.4666 243.005 30.9066 235.824 31.3043L236.033 35.0722ZM250.873 31.2736C250.462 32.5285 250.152 33.846 249.938 35.2236L253.667 35.8023C253.852 34.6117 254.117 33.4938 254.459 32.4461L250.873 31.2736ZM249.938 35.2236C249.728 36.581 249.617 37.8422 249.617 39H253.391C253.391 38.0766 253.479 37.0131 253.667 35.8023L249.938 35.2236ZM251.504 37.1132H227.759V40.8868H251.504V37.1132ZM229.643 38.9103L229.61 38.2128L225.841 38.3923L225.874 39.0897L229.643 38.9103ZM229.612 38.3026C229.612 36.5274 230.118 35.0656 231.098 33.828L228.139 31.4858C226.595 33.4364 225.839 35.7383 225.839 38.3026H229.612ZM231.088 33.8405C232.195 32.4655 233.786 31.1311 235.927 29.8634L234.004 26.6165C231.583 28.0499 229.61 29.6601 228.149 31.4732L231.088 33.8405ZM235.936 29.8579C236.493 29.5238 237.443 29.0537 238.843 28.4409L237.331 24.9837C235.897 25.6108 234.766 26.159 233.994 26.622L235.936 29.8579ZM238.838 28.4433C240.705 27.6332 242.209 26.8979 243.309 26.238L241.367 23.0022C240.474 23.5378 239.144 24.1973 237.336 24.9813L238.838 28.4433ZM243.335 26.2221C244.38 25.5714 245.719 24.4721 245.719 22.7935H241.945C241.945 22.5358 242.06 22.429 241.998 22.5037C241.928 22.5897 241.741 22.7691 241.341 23.0181L243.335 26.2221ZM245.719 22.7935C245.719 21.4227 245.108 20.2567 243.999 19.4648L241.806 22.5355C241.905 22.6065 241.924 22.6481 241.925 22.6491C241.925 22.6493 241.945 22.6833 241.945 22.7935H245.719ZM243.999 19.4648C242.902 18.6813 241.461 18.4492 240.013 18.4492V22.2228C241.177 22.2228 241.663 22.4334 241.806 22.5355L243.999 19.4648ZM240.013 18.4492C238.269 18.4492 236.63 18.8951 235.411 20.078L238.039 22.7858C238.326 22.5075 238.879 22.2228 240.013 22.2228V18.4492ZM235.391 20.0977C234.272 21.2168 233.743 22.6431 233.743 24.2215H237.516C237.516 23.5417 237.717 23.1083 238.059 22.7661L235.391 20.0977ZM233.743 24.2215C233.743 24.694 233.787 25.1692 233.871 25.6454L237.587 24.9896C237.538 24.713 237.516 24.4576 237.516 24.2215H233.743ZM235.967 23.4457C233.133 23.0859 230.373 22.8379 227.688 22.7025L227.498 26.4713C230.082 26.6015 232.746 26.8406 235.491 27.1892L235.967 23.4457ZM229.479 24.5869C229.479 23.0497 229.871 21.7154 230.638 20.5307L227.47 18.4807C226.288 20.3071 225.706 22.3602 225.706 24.5869H229.479ZM230.634 20.5364C231.399 19.3634 232.575 18.372 234.277 17.6068L232.73 14.1649C230.492 15.1708 228.701 16.5927 227.473 18.475L230.634 20.5364ZM234.27 17.61C235.958 16.8601 238.116 16.4442 240.81 16.4442V12.6706C237.748 12.6706 235.035 13.1404 232.738 14.1617L234.27 17.61ZM240.81 16.4442C243.286 16.4442 245.211 16.7897 246.658 17.3944L248.113 13.9124C246.062 13.0558 243.604 12.6706 240.81 12.6706V16.4442ZM246.685 17.4052C248.251 18.0317 249.209 18.7619 249.755 19.4989L252.788 17.2542C251.695 15.7773 250.063 14.692 248.086 13.9015L246.685 17.4052ZM249.78 19.5329C250.416 20.3528 250.646 21.0745 250.646 21.7308H254.42C254.42 20.0845 253.809 18.5701 252.762 17.2203L249.78 19.5329ZM250.646 21.7308C250.646 22.7696 250.416 23.5476 250.039 24.1481L253.235 26.1548C254.053 24.8512 254.42 23.3488 254.42 21.7308H250.646ZM250.022 24.1752C249.612 24.8527 248.979 25.5177 248.052 26.1484L250.174 29.2688C251.46 28.394 252.51 27.3542 253.251 26.1277L250.022 24.1752ZM248.059 26.1436C247.085 26.7994 245.719 27.5499 243.927 28.392L245.531 31.8074C247.414 30.9226 248.971 30.079 250.167 29.2736L248.059 26.1436ZM243.885 28.4121C243.776 28.4666 243.478 28.5835 242.898 28.7556L243.97 32.3737C244.585 32.1916 245.15 31.9986 245.573 31.7873L243.885 28.4121ZM242.96 28.7383C242.37 28.8912 241.968 28.9973 241.786 29.0494L242.823 32.6777C242.951 32.6412 243.302 32.5481 243.907 32.3911L242.96 28.7383ZM241.769 29.0542C240.189 29.5218 238.914 29.9162 237.955 30.2359L239.149 33.8159C240.049 33.5157 241.277 33.1352 242.84 32.6729L241.769 29.0542ZM237.955 30.2359C236.914 30.583 235.927 31.0196 234.997 31.5473L236.86 34.8292C237.568 34.427 238.33 34.0887 239.149 33.8159L237.955 30.2359ZM296.568 33.1882L295.636 31.5473C294.874 31.9797 294.51 32.8797 294.757 33.7201C295.004 34.5606 295.797 35.1206 296.672 35.0722L296.568 33.1882ZM313.305 31.8599L315.099 32.4461C315.299 31.8327 315.173 31.1593 314.762 30.6609C314.352 30.1626 313.716 29.9084 313.075 29.9871L313.305 31.8599ZM312.442 35.5129L310.578 35.2236L310.578 35.2236L312.442 35.5129ZM312.143 39V40.8868C313.185 40.8868 314.03 40.042 314.03 39H312.143ZM288.398 39L286.513 39.0897C286.561 40.0958 287.391 40.8868 288.398 40.8868V39ZM288.365 38.3026H286.478C286.478 38.3325 286.479 38.3624 286.48 38.3923L288.365 38.3026ZM290.258 32.6569L288.788 31.4732C288.785 31.4774 288.782 31.4816 288.778 31.4858L290.258 32.6569ZM295.605 28.24L296.566 29.8634L296.575 29.8579L295.605 28.24ZM298.726 26.7123L297.976 24.9813L297.97 24.9837L298.726 26.7123ZM302.977 24.6201L303.948 26.238C303.957 26.2327 303.965 26.2274 303.974 26.2221L302.977 24.6201ZM303.542 21.0002L304.638 19.4648L304.638 19.4648L303.542 21.0002ZM297.365 21.4319L296.051 20.078C296.044 20.0845 296.037 20.0911 296.031 20.0977L297.365 21.4319ZM296.368 25.3175L296.131 27.1892C296.726 27.2648 297.321 27.0531 297.734 26.619C298.148 26.1849 298.331 25.58 298.226 24.9896L296.368 25.3175ZM288.232 24.5869H286.345C286.345 25.592 287.133 26.4206 288.137 26.4713L288.232 24.5869ZM289.693 19.5057L288.113 18.475L288.109 18.4807L289.693 19.5057ZM294.143 15.8858L293.377 14.1617L293.37 14.1649L294.143 15.8858ZM308.025 15.6534L307.298 17.3944C307.307 17.3981 307.315 17.4017 307.324 17.4052L308.025 15.6534ZM311.911 18.3766L310.394 19.4989C310.402 19.5103 310.411 19.5216 310.42 19.5329L311.911 18.3766ZM312.276 25.1514L310.678 24.1481C310.672 24.1571 310.667 24.1661 310.661 24.1752L312.276 25.1514ZM309.752 27.7086L310.806 29.2736L310.813 29.2688L309.752 27.7086ZM305.368 30.0997L304.566 28.392C304.552 28.3986 304.538 28.4053 304.525 28.4121L305.368 30.0997ZM304.073 30.5647L304.547 32.3911C304.568 32.3856 304.588 32.3799 304.609 32.3737L304.073 30.5647ZM302.944 30.8636L302.426 29.0494C302.42 29.051 302.414 29.0526 302.409 29.0542L302.944 30.8636ZM299.191 32.0259L298.595 30.2359L298.595 30.2359L299.191 32.0259ZM296.672 35.0722C303.882 34.6728 309.51 34.2273 313.536 33.7326L313.075 29.9871C309.175 30.4666 303.644 30.9066 296.463 31.3043L296.672 35.0722ZM311.512 31.2736C311.102 32.5285 310.791 33.846 310.578 35.2236L314.307 35.8023C314.491 34.6117 314.756 33.4938 315.099 32.4461L311.512 31.2736ZM310.578 35.2236C310.367 36.581 310.256 37.8422 310.256 39H314.03C314.03 38.0766 314.119 37.0131 314.307 35.8023L310.578 35.2236ZM312.143 37.1132H288.398V40.8868H312.143V37.1132ZM290.283 38.9103L290.249 38.2128L286.48 38.3923L286.513 39.0897L290.283 38.9103ZM290.252 38.3026C290.252 36.5274 290.757 35.0656 291.737 33.828L288.778 31.4858C287.234 33.4364 286.478 35.7383 286.478 38.3026H290.252ZM291.727 33.8405C292.835 32.4655 294.425 31.1311 296.566 29.8634L294.643 26.6165C292.223 28.0499 290.249 29.6601 288.788 31.4732L291.727 33.8405ZM296.575 29.8579C297.132 29.5238 298.082 29.0537 299.483 28.4409L297.97 24.9837C296.537 25.6108 295.405 26.159 294.634 26.622L296.575 29.8579ZM299.477 28.4433C301.345 27.6332 302.848 26.8979 303.948 26.238L302.006 23.0022C301.114 23.5378 299.783 24.1973 297.976 24.9813L299.477 28.4433ZM303.974 26.2221C305.02 25.5714 306.358 24.4721 306.358 22.7935H302.585C302.585 22.5358 302.699 22.429 302.638 22.5037C302.567 22.5897 302.38 22.7691 301.98 23.0181L303.974 26.2221ZM306.358 22.7935C306.358 21.4227 305.747 20.2567 304.638 19.4648L302.445 22.5355C302.544 22.6065 302.564 22.6481 302.564 22.6491C302.564 22.6493 302.585 22.6833 302.585 22.7935H306.358ZM304.638 19.4648C303.542 18.6813 302.101 18.4492 300.652 18.4492V22.2228C301.817 22.2228 302.302 22.4334 302.445 22.5355L304.638 19.4648ZM300.652 18.4492C298.908 18.4492 297.269 18.8951 296.051 20.078L298.679 22.7858C298.966 22.5075 299.518 22.2228 300.652 22.2228V18.4492ZM296.031 20.0977C294.911 21.2168 294.382 22.6431 294.382 24.2215H298.156C298.156 23.5417 298.357 23.1083 298.699 22.7661L296.031 20.0977ZM294.382 24.2215C294.382 24.694 294.426 25.1692 294.51 25.6454L298.226 24.9896C298.178 24.713 298.156 24.4576 298.156 24.2215H294.382ZM296.606 23.4457C293.772 23.0859 291.012 22.8379 288.327 22.7025L288.137 26.4713C290.721 26.6015 293.385 26.8406 296.131 27.1892L296.606 23.4457ZM290.119 24.5869C290.119 23.0497 290.511 21.7154 291.277 20.5307L288.109 18.4807C286.927 20.3071 286.345 22.3602 286.345 24.5869H290.119ZM291.274 20.5364C292.039 19.3634 293.214 18.372 294.917 17.6068L293.37 14.1649C291.132 15.1708 289.34 16.5927 288.113 18.475L291.274 20.5364ZM294.91 17.61C296.597 16.8601 298.755 16.4442 301.45 16.4442V12.6706C298.388 12.6706 295.675 13.1404 293.377 14.1617L294.91 17.61ZM301.45 16.4442C303.925 16.4442 305.85 16.7897 307.298 17.3944L308.752 13.9124C306.702 13.0558 304.243 12.6706 301.45 12.6706V16.4442ZM307.324 17.4052C308.891 18.0317 309.849 18.7619 310.394 19.4989L313.427 17.2542C312.334 15.7773 310.702 14.692 308.726 13.9015L307.324 17.4052ZM310.42 19.5329C311.056 20.3528 311.286 21.0745 311.286 21.7308H315.059C315.059 20.0845 314.448 18.5701 313.402 17.2203L310.42 19.5329ZM311.286 21.7308C311.286 22.7696 311.055 23.5476 310.678 24.1481L313.874 26.1548C314.692 24.8512 315.059 23.3488 315.059 21.7308H311.286ZM310.661 24.1752C310.252 24.8527 309.619 25.5177 308.691 26.1484L310.813 29.2688C312.1 28.394 313.149 27.3542 313.891 26.1277L310.661 24.1752ZM308.698 26.1436C307.724 26.7994 306.358 27.5499 304.566 28.392L306.171 31.8074C308.054 30.9226 309.61 30.079 310.806 29.2736L308.698 26.1436ZM304.525 28.4121C304.416 28.4666 304.118 28.5835 303.537 28.7556L304.609 32.3737C305.224 32.1916 305.79 31.9986 306.212 31.7873L304.525 28.4121ZM303.6 28.7383C303.01 28.8912 302.608 28.9973 302.426 29.0494L303.462 32.6777C303.59 32.6412 303.941 32.5481 304.547 32.3911L303.6 28.7383ZM302.409 29.0542C300.828 29.5218 299.554 29.9162 298.595 30.2359L299.788 33.8159C300.688 33.5157 301.916 33.1352 303.479 32.6729L302.409 29.0542ZM298.595 30.2359C297.553 30.583 296.566 31.0196 295.636 31.5473L297.499 34.8292C298.207 34.427 298.969 34.0887 299.788 33.8159L298.595 30.2359ZM345.319 28.5388H347.205C347.205 27.4968 346.361 26.6521 345.319 26.6521V28.5388ZM345.319 34.7823V36.6691C346.361 36.6691 347.205 35.8244 347.205 34.7823H345.319ZM340.802 34.7823V32.8955C339.76 32.8955 338.915 33.7403 338.915 34.7823H340.802ZM340.802 39V40.8868C341.844 40.8868 342.689 40.042 342.689 39H340.802ZM332.865 39L330.987 38.8211C330.936 39.3502 331.111 39.8761 331.469 40.2693C331.826 40.6626 332.333 40.8868 332.865 40.8868V39ZM333.064 34.7823L334.95 34.8267C334.962 34.3188 334.769 33.8274 334.414 33.464C334.059 33.1005 333.572 32.8955 333.064 32.8955V34.7823ZM317.289 34.7823H315.403C315.403 35.8244 316.247 36.6691 317.289 36.6691V34.7823ZM317.289 28.0739L316.14 26.5777C315.675 26.9348 315.403 27.4877 315.403 28.0739H317.289ZM331.105 14.8895V13.0027C330.547 13.0027 330.018 13.2494 329.66 13.6764L331.105 14.8895ZM340.802 14.8895H342.689C342.689 13.8475 341.844 13.0027 340.802 13.0027V14.8895ZM340.802 28.5388H338.915C338.915 29.5809 339.76 30.4256 340.802 30.4256V28.5388ZM333.23 21.4651L335.117 21.4917C335.128 20.7189 334.666 20.0176 333.952 19.7219C333.238 19.4262 332.416 19.5959 331.877 20.1502L333.23 21.4651ZM329.278 25.4171L330.57 26.7919C330.575 26.7874 330.58 26.7828 330.585 26.7782L329.278 25.4171ZM325.525 28.5388L324.397 27.0265C323.746 27.5127 323.479 28.3616 323.735 29.1332C323.991 29.9048 324.712 30.4256 325.525 30.4256V28.5388ZM333.131 28.5388V30.4256C334.162 30.4256 335.003 29.597 335.017 28.5654L333.131 28.5388ZM343.432 28.5388V34.7823H347.205V28.5388H343.432ZM345.319 32.8955H340.802V36.6691H345.319V32.8955ZM338.915 34.7823V39H342.689V34.7823H338.915ZM340.802 37.1132H332.865V40.8868H340.802V37.1132ZM334.743 39.1789C334.838 38.1792 334.906 36.7182 334.95 34.8267L331.178 34.7379C331.134 36.6103 331.069 37.961 330.987 38.8211L334.743 39.1789ZM333.064 32.8955H317.289V36.6691H333.064V32.8955ZM319.176 34.7823V28.0739H315.403V34.7823H319.176ZM318.439 29.5701C323.702 25.5264 328.407 21.0373 332.55 16.1026L329.66 13.6764C325.699 18.3948 321.194 22.6953 316.14 26.5777L318.439 29.5701ZM331.105 16.7763H340.802V13.0027H331.105V16.7763ZM338.915 14.8895V28.5388H342.689V14.8895H338.915ZM340.802 30.4256H345.319V26.6521H340.802V30.4256ZM331.877 20.1502C330.359 21.7125 329.058 23.0133 327.972 24.056L330.585 26.7782C331.713 25.6955 333.046 24.3617 334.583 22.7801L331.877 20.1502ZM327.986 24.0423C326.938 25.0276 325.743 26.0227 324.397 27.0265L326.654 30.0512C328.098 28.9739 329.405 27.8878 330.57 26.7919L327.986 24.0423ZM325.525 30.4256H333.131V26.6521H325.525V30.4256ZM335.017 28.5654L335.117 21.4917L331.344 21.4385L331.244 28.5123L335.017 28.5654Z" fill="black" mask="url(#path-1-outside-1_215_3791)"/>
<path d="M31.8622 23.2808C31.8622 25.4041 31.3375 27.198 30.288 28.6624C29.2629 30.1268 27.4934 31.1885 24.9796 31.8475C25.2724 32.238 25.4799 32.5431 25.6019 32.7627L31.5327 41H21.5748C20.5009 38.9987 18.8047 36.1675 16.486 32.5065H11.1044V41H2.4644C2.65965 36.2651 2.75728 31.8353 2.75728 27.7106C2.75728 23.5858 2.65965 19.156 2.4644 14.4211H11.1044V14.4577H18.6094C23.5396 14.4577 26.9809 15.251 28.9334 16.8374C30.886 18.4238 31.8622 20.5716 31.8622 23.2808ZM11.1044 21.4869V25.6604H16.0467C18.1213 25.6604 19.6833 25.5994 20.7328 25.4774C21.8067 25.3309 22.5511 25.1113 22.966 24.8184C23.3809 24.5255 23.5884 24.0984 23.5884 23.537C23.5884 23.0001 23.3931 22.5852 23.0026 22.2923C22.6121 21.9994 21.8799 21.792 20.806 21.6699C19.7321 21.5479 18.1457 21.4869 16.0467 21.4869H11.1044ZM57.2993 21.0109C57.1285 24.0862 57.043 27.4055 57.043 30.9689C57.043 34.5566 57.1285 37.9004 57.2993 41C55.7373 40.9268 54.5048 40.8902 53.6017 40.8902C52.7475 40.8902 51.5149 40.9268 49.9041 41L48.8424 35.6183C48.2811 37.5709 47.4024 39.0231 46.2065 39.9749C45.0106 40.9024 43.6194 41.3661 42.0329 41.3661C40.5685 41.3661 39.2994 41.0488 38.2255 40.4142C37.1516 39.7553 36.334 38.8766 35.7726 37.7783C35.2357 36.68 34.9672 35.4475 34.9672 34.0807V28.8089C34.9672 25.5628 34.9062 22.9635 34.7842 21.0109H43.0214C42.875 24.5987 42.8018 28.1499 42.8018 31.6644C42.8018 32.7383 43.058 33.5926 43.5706 34.2271C44.1075 34.8617 44.7787 35.179 45.5841 35.179C46.3407 35.179 46.9997 34.8495 47.5611 34.1905C48.1468 33.5072 48.5007 32.5797 48.6227 31.4082V30.5661C48.6716 28.6624 48.696 27.3445 48.696 26.6123C48.696 24.9282 48.6472 23.0611 48.5495 21.0109H57.2993ZM76.1283 20.6448C77.7635 20.6448 79.2157 21.1452 80.4849 22.1458C81.7784 23.1221 82.7791 24.4279 83.4869 26.0631C84.1947 27.674 84.5486 29.3946 84.5486 31.2251C84.5486 33.08 84.1947 34.7885 83.4869 36.3505C82.7791 37.8881 81.7906 39.1085 80.5215 40.0115C79.2524 40.9146 77.8246 41.3661 76.2381 41.3661C74.3832 41.3661 72.7724 40.9756 71.4056 40.1946C70.0388 39.3892 69.0138 38.1322 68.3304 36.4237L67.2687 41H60.2396C60.386 36.4115 60.4592 31.6644 60.4592 26.7587C60.4592 21.8042 60.386 17.0571 60.2396 12.5174H68.5134L68.4036 17.0204C68.2816 20.1933 68.2205 23.0245 68.2205 25.514C68.8795 23.8543 69.8802 22.634 71.2226 21.853C72.5893 21.0475 74.2246 20.6448 76.1283 20.6448ZM72.3941 35.2156C73.5656 35.2156 74.4931 34.8251 75.1764 34.0441C75.8598 33.2631 76.2015 32.2502 76.2015 31.0055C76.2015 29.8828 75.8232 28.9797 75.0666 28.2963C74.3344 27.5885 73.4192 27.2346 72.3209 27.2346C71.7595 27.2346 71.1737 27.3689 70.5636 27.6373C69.9534 27.8814 69.4287 28.2963 68.9893 28.8821C68.55 29.4434 68.3304 30.1512 68.3304 31.0055C68.3304 32.5187 68.6721 33.6048 69.3554 34.2638C70.0388 34.8983 71.0517 35.2156 72.3941 35.2156ZM109.391 21.0109L108.549 23.1343C106.23 29.3092 103.802 35.2644 101.264 41C99.9457 43.9288 98.042 46.2718 95.5525 48.0291C93.063 49.8108 89.9389 50.665 86.1803 50.5918C85.7166 48.5661 85.3261 46.9796 85.0088 45.8325C84.7159 44.7098 84.3254 43.5749 83.8373 42.4278C85.1796 42.7451 86.4366 42.9037 87.6081 42.9037C89.5118 42.9037 91.025 42.501 92.1478 41.6956C91.2691 39.0841 90.2318 36.2773 89.0359 33.2753C87.84 30.2733 86.1071 26.1852 83.8373 21.0109H92.5139C92.8067 22.2313 93.2094 23.6469 93.722 25.2577C94.2345 26.8685 94.7471 28.4184 95.2596 29.9072C95.406 30.3709 95.6379 31.0787 95.9552 32.0305C96.2969 32.958 96.5654 33.739 96.7606 34.3736L97.7125 31.4814C99.543 26.1852 100.629 22.695 100.971 21.0109H109.391ZM129.975 41C128.828 38.9254 126.924 35.7526 124.264 31.4814L119.98 35.7282V41H110.864C111.06 36.2651 111.157 31.8353 111.157 27.7106C111.157 23.5858 111.06 19.156 110.864 14.4211H119.98V25.1479C124.471 20.7059 127.668 17.1303 129.572 14.4211H141.434L129.902 25.8435C131.61 28.2353 133.526 30.8346 135.649 33.6414C137.797 36.4482 139.737 38.901 141.47 41H129.975ZM167.152 34.9227C167.152 35.7526 167.249 36.3383 167.445 36.68C167.64 37.0217 168.03 37.2658 168.616 37.4122L168.47 40.8536C167.689 40.9756 167.005 41.061 166.419 41.1098C165.858 41.1586 165.101 41.1831 164.15 41.1831C162.051 41.1831 160.659 40.7193 159.976 39.7919C159.293 38.84 158.951 37.6319 158.951 36.1675V35.2522C158.243 37.2536 157.206 38.7424 155.839 39.7186C154.497 40.6949 152.776 41.1831 150.677 41.1831C148.236 41.1831 146.394 40.6949 145.149 39.7186C143.929 38.7424 143.319 37.2902 143.319 35.3621C143.319 33.7756 143.843 32.5309 144.893 31.6278C145.942 30.7248 147.565 30.1024 149.762 29.7607C147.907 28.4428 146.052 27.2957 144.197 26.3194C145.662 24.4645 147.333 23.0611 149.213 22.1092C151.092 21.133 153.374 20.6448 156.059 20.6448C159.817 20.6448 162.6 21.4625 164.406 23.0977C166.236 24.7085 167.152 27.198 167.152 30.5661V34.9227ZM156.828 27.0882C155.583 27.0882 154.485 27.2957 153.533 27.7106C152.581 28.1255 151.727 28.7479 150.97 29.5777C152.434 29.4068 154.265 29.3214 156.462 29.3214C157.365 29.3214 157.999 29.2116 158.365 28.9919C158.731 28.7723 158.914 28.4916 158.914 28.1499C158.914 27.857 158.731 27.6129 158.365 27.4177C157.999 27.198 157.487 27.0882 156.828 27.0882ZM152.984 35.2156C154.35 35.2156 155.583 34.9593 156.681 34.4468C157.779 33.9099 158.536 33.2143 158.951 32.36V31.4082C158.365 31.7011 157.718 31.9329 157.011 32.1038C156.303 32.2502 155.449 32.3966 154.448 32.5431L153.13 32.7627C151.763 33.0312 151.08 33.4949 151.08 34.1539C151.08 34.8617 151.714 35.2156 152.984 35.2156ZM175.726 18.8509C174.188 18.8509 173.041 18.4726 172.285 17.716C171.553 16.9594 171.186 15.971 171.186 14.7506C171.186 13.5547 171.553 12.5662 172.285 11.7852C173.041 11.0042 174.188 10.6137 175.726 10.6137C177.19 10.6137 178.313 11.0164 179.094 11.8218C179.875 12.6028 180.266 13.5791 180.266 14.7506C180.266 15.971 179.887 16.9594 179.131 17.716C178.374 18.4726 177.239 18.8509 175.726 18.8509ZM171.479 41C171.65 37.0705 171.736 33.8244 171.736 31.2617C171.736 28.2109 171.638 24.794 171.443 21.0109H180.229C180.034 24.6475 179.936 28.0645 179.936 31.2617C179.936 33.9465 180.022 37.1926 180.193 41H171.479ZM200.828 21.0109H207.857C207.735 25.0136 207.674 30.7004 207.674 38.0712C207.674 40.9756 207.088 43.3552 205.917 45.2102C204.77 47.0651 203.244 48.4074 201.341 49.2373C199.437 50.0915 197.313 50.5186 194.97 50.5186C192.652 50.5186 190.577 50.1769 188.747 49.4935C186.916 48.8345 185.525 47.9437 184.573 46.821L186.221 41.2197C187.539 41.9763 188.783 42.5132 189.955 42.8305C191.126 43.1722 192.347 43.343 193.616 43.343C197.765 43.343 199.839 41.5858 199.839 38.0712C199.839 37.5587 199.852 37.1926 199.876 36.9729C199.876 36.8265 199.876 36.6312 199.876 36.3871C199.901 36.1431 199.901 35.8258 199.876 35.4353C198.631 38.901 195.995 40.6339 191.968 40.6339C190.333 40.6339 188.869 40.1946 187.575 39.3159C186.306 38.4373 185.318 37.2536 184.61 35.7648C183.902 34.2516 183.548 32.5919 183.548 30.7858C183.548 28.9309 183.902 27.2346 184.61 25.697C185.318 24.135 186.306 22.9025 187.575 21.9994C188.844 21.0964 190.272 20.6448 191.859 20.6448C195.983 20.6448 198.668 22.097 199.913 25.0014L200.828 21.0109ZM195.776 34.7763C196.337 34.7763 196.923 34.6543 197.533 34.4102C198.143 34.1417 198.668 33.7268 199.107 33.1655C199.547 32.5797 199.766 31.8597 199.766 31.0055C199.766 29.4923 199.425 28.4184 198.741 27.7838C198.058 27.1248 197.045 26.7953 195.703 26.7953C194.531 26.7953 193.604 27.1858 192.92 27.9668C192.237 28.7479 191.895 29.7607 191.895 31.0055C191.895 32.1282 192.261 33.0434 192.993 33.7512C193.75 34.4346 194.677 34.7763 195.776 34.7763ZM215.697 18.8509C214.159 18.8509 213.012 18.4726 212.255 17.716C211.523 16.9594 211.157 15.971 211.157 14.7506C211.157 13.5547 211.523 12.5662 212.255 11.7852C213.012 11.0042 214.159 10.6137 215.697 10.6137C217.161 10.6137 218.284 11.0164 219.065 11.8218C219.846 12.6028 220.236 13.5791 220.236 14.7506C220.236 15.971 219.858 16.9594 219.102 17.716C218.345 18.4726 217.21 18.8509 215.697 18.8509ZM211.45 41C211.621 37.0705 211.706 33.8244 211.706 31.2617C211.706 28.2109 211.609 24.794 211.413 21.0109H220.2C220.005 24.6475 219.907 28.0645 219.907 31.2617C219.907 33.9465 219.992 37.1926 220.163 41H211.45Z" fill="black"/>
<path d="M270.499 41.7726C278.381 41.7726 284.77 35.3833 284.77 27.5017C284.77 19.6201 278.381 13.2309 270.499 13.2309C262.618 13.2309 256.229 19.6201 256.229 27.5017C256.229 35.3833 262.618 41.7726 270.499 41.7726Z" fill="#80F142" stroke="black" stroke-width="1.54279" stroke-miterlimit="10"/>
<path d="M270.499 38.3179C276.472 38.3179 281.315 33.4753 281.315 27.5017C281.315 21.528 276.472 16.6854 270.499 16.6854C264.525 16.6854 259.683 21.528 259.683 27.5017C259.683 33.4753 264.525 38.3179 270.499 38.3179Z" stroke="white" stroke-width="2.49003" stroke-miterlimit="10"/>
<path d="M278.462 27.5008C278.462 31.899 274.896 35.4644 270.498 35.4644C266.1 35.4644 262.535 31.899 262.535 27.5008C262.535 23.1027 266.1 19.5373 270.498 19.5373C274.896 19.5373 278.462 23.1027 278.462 27.5008Z" fill="white" stroke="black" stroke-width="0.350101"/>
<path d="M260.463 24.8657C260.548 24.4705 260.693 24.0945 260.833 23.7167L261.666 24.0421C261.539 24.3873 261.404 24.7301 261.328 25.0915L260.463 24.8657Z" fill="black"/>
<path d="M258.733 24.4141C258.835 23.9513 259.002 23.5089 259.168 23.0659L260.001 23.3913C259.848 23.8017 259.691 24.211 259.598 24.6399L258.733 24.4141Z" fill="black"/>
<path d="M259.341 25.9262L259.441 25.2772C259.484 25.063 259.546 24.8525 259.598 24.64L260.463 24.8657C260.416 25.0613 260.358 25.2547 260.318 25.4519L260.227 26.0495L259.341 25.9262Z" fill="black"/>
<path d="M260.001 23.3914L260.116 23.0839L260.258 22.788L260.543 22.1966L261.332 22.6169L261.07 23.1614L260.939 23.4336L260.834 23.7168L260.001 23.3914Z" fill="black"/>
<path d="M264.902 18.7523C265.247 18.5439 265.584 18.3224 265.956 18.1627L266.348 18.9659C266.008 19.1104 265.701 19.3148 265.385 19.5043L264.902 18.7523Z" fill="black"/>
<path d="M263.036 20.2804C263.311 19.9856 263.625 19.7297 263.921 19.4569L264.487 20.148C264.218 20.399 263.93 20.6314 263.679 20.9014L263.036 20.2804Z" fill="black"/>
<path d="M263.353 18.7659L263.879 18.3724C264.053 18.2404 264.227 18.1072 264.419 18.0001L264.902 18.7522C264.725 18.8499 264.565 18.9734 264.405 19.0952L263.921 19.4569L263.353 18.7659Z" fill="black"/>
<path d="M263.935 17.248C264.339 17.0021 264.737 16.7467 265.171 16.5563L265.563 17.3595C265.161 17.5346 264.793 17.773 264.419 18.0001L263.935 17.248Z" fill="black"/>
<path d="M261.75 19.0381C262.072 18.6938 262.437 18.3909 262.786 18.0744L263.353 18.7656C263.03 19.0601 262.691 19.3396 262.393 19.6591L261.75 19.0381Z" fill="black"/>
<path d="M258.209 27.494C258.227 26.2085 258.425 24.9246 258.814 23.6953C259.204 22.465 259.818 21.3151 260.567 20.2716C260.765 20.0188 260.939 19.7451 261.161 19.5121L261.811 18.7987L262.524 18.1489C262.757 17.9266 263.03 17.7532 263.283 17.5546C264.327 16.8059 265.477 16.1913 266.707 15.8013" stroke="black" stroke-width="0.371484" stroke-miterlimit="10"/>
<path d="M261.186 27.4944C261.203 26.5152 261.353 25.5451 261.645 24.6147C261.937 23.6836 262.408 22.8154 262.973 22.0229C263.126 21.8329 263.251 21.6203 263.423 21.446L263.915 20.9032L264.458 20.4112C264.632 20.2391 264.845 20.1139 265.035 19.9611C265.827 19.3952 266.696 18.9249 267.627 18.6318" stroke="black" stroke-width="0.371484" stroke-miterlimit="10"/>
<path d="M269.902 17.1325L270.506 17.1014L271.11 17.1324L271.059 18.0249L270.506 17.9954L269.954 18.0249L269.902 17.1325Z" fill="black"/>
<path d="M269.8 15.3476L270.506 15.3136L271.213 15.3475L271.162 16.2401L270.506 16.2076L269.851 16.2401L269.8 15.3476Z" fill="black"/>
<path d="M268.549 16.3882C268.981 16.3211 269.413 16.2449 269.851 16.2401L269.903 17.1326C269.498 17.1354 269.101 17.2077 268.703 17.2687L268.549 16.3882Z" fill="black"/>
<path d="M271.162 16.2401C271.6 16.2448 272.032 16.321 272.465 16.388L272.31 17.2686C271.912 17.2076 271.515 17.1353 271.111 17.1325L271.162 16.2401Z" fill="black"/>
<path d="M277.093 19.456C277.389 19.7287 277.703 19.9847 277.977 20.2794L277.334 20.9005C277.084 20.6305 276.795 20.3981 276.526 20.1472L277.093 19.456Z" fill="black"/>
<path d="M275.058 18.1621C275.429 18.3218 275.767 18.5432 276.112 18.7516L275.629 19.5037C275.313 19.3142 275.005 19.1097 274.665 18.9654L275.058 18.1621Z" fill="black"/>
<path d="M276.595 17.9995C276.786 18.1065 276.96 18.2398 277.135 18.3717L277.66 18.7651L277.093 19.4563L276.609 19.0946C276.448 18.9728 276.289 18.8494 276.112 18.7517L276.595 17.9995Z" fill="black"/>
<path d="M278.227 18.0738C278.576 18.3902 278.941 18.693 279.263 19.0373L278.62 19.6585C278.322 19.3389 277.982 19.0595 277.66 18.765L278.227 18.0738Z" fill="black"/>
<path d="M275.843 16.5557C276.277 16.7461 276.675 17.0015 277.078 17.2474L276.595 17.9995C276.221 17.7724 275.853 17.534 275.45 17.359L275.843 16.5557Z" fill="black"/>
<path d="M266.708 15.8012C267.937 15.4124 269.221 15.2142 270.506 15.1965C271.792 15.2141 273.076 15.4122 274.305 15.8008C275.535 16.1908 276.685 16.8052 277.729 17.5539C277.981 17.7523 278.255 17.9258 278.488 18.1481L279.201 18.7977L279.851 19.511C280.074 19.744 280.247 20.0177 280.445 20.2706" stroke="black" stroke-width="0.371484" stroke-miterlimit="10"/>
<path d="M267.627 18.632C268.557 18.3406 269.527 18.1908 270.507 18.1729C271.486 18.1907 272.456 18.3404 273.386 18.6317C274.317 18.9247 275.186 19.3949 275.978 19.9607C276.168 20.1135 276.381 20.2387 276.555 20.4108L277.098 20.9026L277.59 21.4455C277.762 21.6197 277.887 21.8323 278.04 22.0223" stroke="black" stroke-width="0.371484" stroke-miterlimit="10"/>
<path d="M280.18 23.7156C280.321 24.0933 280.467 24.4694 280.551 24.8645L279.686 25.0903C279.61 24.729 279.475 24.3862 279.348 24.041L280.18 23.7156Z" fill="black"/>
<path d="M281.846 23.0647C282.011 23.5077 282.179 23.9501 282.281 24.4129L281.416 24.6387C281.322 24.2097 281.166 23.8005 281.013 23.3902L281.846 23.0647Z" fill="black"/>
<path d="M280.471 22.1956L280.756 22.7869L280.898 23.0829L281.013 23.3903L280.181 23.7158L280.076 23.4326L279.944 23.1605L279.682 22.616L280.471 22.1956Z" fill="black"/>
<path d="M281.416 24.6385C281.468 24.851 281.53 25.0615 281.573 25.2757L281.673 25.9247L280.787 26.0482L280.696 25.4505C280.656 25.2533 280.598 25.0599 280.551 24.8644L281.416 24.6385Z" fill="black"/>
<path d="M280.181 31.2721L280.076 31.5553L279.944 31.8273L279.683 32.372L278.893 31.9517L279.132 31.4539L279.253 31.2057L279.348 30.9467L280.181 31.2721Z" fill="black"/>
<path d="M280.788 28.9393L280.697 29.5368C280.657 29.734 280.599 29.9275 280.551 30.1231L279.686 29.8973C279.729 29.7186 279.784 29.5423 279.82 29.3621L279.902 28.8159L280.788 28.9393Z" fill="black"/>
<path d="M281.416 30.3488C281.323 30.7778 281.167 31.187 281.014 31.5973L280.181 31.272C280.321 30.8942 280.467 30.5182 280.551 30.123L281.416 30.3488Z" fill="black"/>
<path d="M281.846 31.9225L281.721 32.2542L281.569 32.5741L281.26 33.2123L280.471 32.792L280.757 32.2006L280.899 31.9046L281.014 31.5971L281.846 31.9225Z" fill="black"/>
<path d="M282.559 29.186L282.45 29.8863C282.404 30.1176 282.338 30.3452 282.281 30.5745L281.416 30.3488C281.468 30.1363 281.53 29.9258 281.574 29.7115L281.673 29.0626L282.559 29.186Z" fill="black"/>
<path d="M280.447 20.2711C281.196 21.3145 281.81 22.4643 282.2 23.6945C282.589 24.9238 282.787 26.2077 282.805 27.4932C282.787 28.7787 282.589 30.0625 282.201 31.2918C281.811 32.5221 281.196 33.672 280.448 34.7154" stroke="black" stroke-width="0.371484" stroke-miterlimit="10"/>
<path d="M278.04 22.0226C278.606 22.8149 279.076 23.6831 279.369 24.6141C279.661 25.5446 279.811 26.5147 279.828 27.4939C279.811 28.473 279.661 29.4432 279.37 30.3737C279.077 31.3048 278.606 32.173 278.041 32.9653" stroke="black" stroke-width="0.371484" stroke-miterlimit="10"/>
<path d="M277.094 35.532L276.61 35.8937C276.449 36.0155 276.289 36.139 276.113 36.2367L275.629 35.4846C275.792 35.3963 275.937 35.2826 276.084 35.1709L276.527 34.8408L277.094 35.532Z" fill="black"/>
<path d="M278.228 36.9142L277.662 37.3394C277.473 37.4815 277.285 37.6244 277.079 37.7409L276.596 36.9888C276.787 36.8817 276.961 36.7485 277.136 36.6166L277.661 36.2231L278.228 36.9142Z" fill="black"/>
<path d="M278.621 35.3295C278.323 35.649 277.984 35.9285 277.661 36.2231L277.094 35.532C277.39 35.2592 277.704 35.0032 277.978 34.7085L278.621 35.3295Z" fill="black"/>
<path d="M276.596 36.9888C276.222 37.2159 275.854 37.4544 275.451 37.6295L275.059 36.8263C275.43 36.6665 275.768 36.4451 276.113 36.2368L276.596 36.9888Z" fill="black"/>
<path d="M269.904 37.8559C269.499 37.8532 269.102 37.7809 268.704 37.7199L268.858 36.8394C269.222 36.8944 269.585 36.9626 269.955 36.9635L269.904 37.8559Z" fill="black"/>
<path d="M272.311 37.7197C271.913 37.7808 271.516 37.8531 271.111 37.8559L271.06 36.9634C271.43 36.9625 271.793 36.8943 272.157 36.8392L272.311 37.7197Z" fill="black"/>
<path d="M271.163 38.7485L270.508 38.7811L269.852 38.7486L269.904 37.856L270.508 37.8871L271.112 37.856L271.163 38.7485Z" fill="black"/>
<path d="M269.801 39.6414C269.329 39.6346 268.862 39.5544 268.395 39.4813L268.55 38.6008C268.982 38.6679 269.414 38.7441 269.852 38.7488L269.801 39.6414Z" fill="black"/>
<path d="M272.62 39.4811C272.154 39.5542 271.687 39.6345 271.215 39.6412L271.163 38.7487C271.602 38.744 272.033 38.6676 272.466 38.6006L272.62 39.4811Z" fill="black"/>
<path d="M280.446 34.7167C280.248 34.9696 280.074 35.2433 279.852 35.4763L279.202 36.1897L278.489 36.8394C278.256 37.0618 277.983 37.2353 277.73 37.4337C276.686 38.1824 275.536 38.797 274.306 39.1872C273.077 39.5758 271.793 39.7741 270.507 39.7918C269.222 39.7743 267.938 39.5761 266.709 39.1876" stroke="black" stroke-width="0.371484" stroke-miterlimit="10"/>
<path d="M278.041 32.9655C277.888 33.1556 277.763 33.3682 277.591 33.5424L277.099 34.0852L276.556 34.5773C276.382 34.7493 276.169 34.8746 275.979 35.0274C275.187 35.5933 274.319 36.0635 273.388 36.3566C272.457 36.6479 271.487 36.7977 270.508 36.8157C269.529 36.7979 268.558 36.6481 267.628 36.3568" stroke="black" stroke-width="0.371484" stroke-miterlimit="10"/>
<path d="M264.903 36.2373C264.726 36.1396 264.566 36.0162 264.406 35.8943L263.921 35.5327L264.488 34.8415L264.932 35.1715C265.078 35.283 265.224 35.3968 265.386 35.4852L264.903 36.2373Z" fill="black"/>
<path d="M263.936 37.7416C263.73 37.6251 263.542 37.4821 263.354 37.34L262.787 36.9149L263.354 36.2238L263.88 36.6172C264.054 36.7491 264.228 36.8823 264.42 36.9894L263.936 37.7416Z" fill="black"/>
<path d="M265.564 37.63C265.162 37.455 264.794 37.2166 264.42 36.9895L264.903 36.2373C265.248 36.4456 265.585 36.667 265.957 36.8267L265.564 37.63Z" fill="black"/>
<path d="M263.354 36.2239C263.032 35.9292 262.692 35.6499 262.394 35.3304L263.037 34.7093C263.312 35.004 263.625 35.2599 263.921 35.5327L263.354 36.2239Z" fill="black"/>
<path d="M260.464 30.1241C260.416 29.9286 260.358 29.7351 260.318 29.5379L260.227 28.9404L261.112 28.8169L261.194 29.3631C261.231 29.5433 261.285 29.7196 261.329 29.8983L260.464 30.1241Z" fill="black"/>
<path d="M261.332 32.3726L261.07 31.828L260.939 31.5559L260.834 31.2728L261.666 30.9473L261.761 31.2062L261.882 31.4544L262.121 31.9522L261.332 32.3726Z" fill="black"/>
<path d="M260.001 31.5985C259.848 31.1881 259.692 30.7789 259.599 30.3499L260.464 30.124C260.548 30.5192 260.694 30.8952 260.834 31.273L260.001 31.5985Z" fill="black"/>
<path d="M258.734 30.5758C258.677 30.3463 258.611 30.1188 258.564 29.8875L258.456 29.1872L259.342 29.0638L259.441 29.7127C259.484 29.9269 259.547 30.1375 259.599 30.3499L258.734 30.5758Z" fill="black"/>
<path d="M259.755 33.2134L259.446 32.5752L259.293 32.2553L259.169 31.9236L260.001 31.5982L260.116 31.9056L260.258 32.2015L260.543 32.793L259.755 33.2134Z" fill="black"/>
<path d="M266.708 39.187C265.478 38.797 264.328 38.1825 263.285 37.4339C263.032 37.2355 262.758 37.062 262.525 36.8397L261.812 36.19L261.162 35.4767C260.939 35.2437 260.766 34.97 260.568 34.7172C259.819 33.6738 259.204 32.524 258.814 31.2937C258.425 30.0645 258.227 28.7807 258.209 27.4952" stroke="black" stroke-width="0.371484" stroke-miterlimit="10"/>
<path d="M267.628 36.3568C266.697 36.0638 265.828 35.5937 265.036 35.0278C264.846 34.8751 264.633 34.7499 264.459 34.5778L263.916 34.0859L263.424 33.5432C263.252 33.3689 263.127 33.1563 262.974 32.9663C262.408 32.1739 261.938 31.3058 261.645 30.3747C261.353 29.4442 261.204 28.4741 261.186 27.4949" stroke="black" stroke-width="0.371484" stroke-miterlimit="10"/>
<path d="M274.979 23.5812C273.486 23.5812 271.993 23.5812 270.499 23.5812C271.354 24.5334 272.208 25.4855 273.062 26.4376L274.979 23.5812Z" fill="#FF5450" stroke="black" stroke-width="0.272199" stroke-linecap="round" stroke-linejoin="round"/>
<path d="M266.02 23.5812C265.454 24.5333 264.887 25.4853 264.321 26.4373L267.937 26.4376C267.298 25.4855 266.659 24.5334 266.02 23.5812Z" fill="#FF5450" stroke="black" stroke-width="0.272199" stroke-linecap="round" stroke-linejoin="round"/>
<path d="M267.937 26.4376C268.791 25.4855 269.645 24.5334 270.499 23.5812C269.006 23.5812 267.513 23.5812 266.02 23.5812C266.659 24.5334 267.298 25.4855 267.937 26.4376Z" fill="#FF5450" stroke="black" stroke-width="0.272199" stroke-linecap="round" stroke-linejoin="round"/>
<path d="M274.979 23.5812L273.062 26.4376C273.062 26.4378 273.062 26.4379 273.062 26.4381L276.677 26.4384C276.677 26.438 276.677 26.4377 276.677 26.4373C276.111 25.4853 275.545 24.5333 274.979 23.5812Z" fill="#FF5450" stroke="black" stroke-width="0.272199" stroke-linecap="round" stroke-linejoin="round"/>
<path d="M267.937 26.4377L264.321 26.4374C266.381 28.8334 268.44 31.2295 270.499 33.6255C269.645 31.2296 268.791 28.8336 267.937 26.4377Z" fill="#FF5450" stroke="black" stroke-width="0.272199" stroke-linecap="round" stroke-linejoin="round"/>
<path d="M270.499 33.6256C272.558 31.2299 274.617 28.8342 276.676 26.4385L273.062 26.4382C272.208 28.834 271.354 31.2298 270.499 33.6256Z" fill="#FF5450" stroke="black" stroke-width="0.272199" stroke-linecap="round" stroke-linejoin="round"/>
<path d="M267.937 26.4382C268.791 28.8342 269.645 31.2301 270.499 33.6261C271.354 31.2303 272.208 28.8345 273.062 26.4387L267.937 26.4382Z" fill="#FF5450" stroke="black" stroke-width="0.272199" stroke-linecap="round" stroke-linejoin="round"/>
<path d="M273.062 26.4381C273.062 26.4379 273.062 26.4378 273.062 26.4376C272.208 25.4855 271.354 24.5334 270.499 23.5812C269.645 24.5334 268.791 25.4855 267.937 26.4376L273.062 26.4381Z" fill="#FF5450" stroke="black" stroke-width="0.272199" stroke-linecap="round" stroke-linejoin="round"/>
</svg>
