<svg width="570" height="180" viewBox="0 0 570 180" fill="none" xmlns="http://www.w3.org/2000/svg">
<path d="M286.384 144.829V159.731H275.604V169.797H256.659C256.871 167.578 257.029 164.222 257.135 159.731H219.484V143.719C231.796 134.26 242.788 123.771 252.458 112.251H275.604V144.829H286.384ZM257.531 127.945C253.885 131.697 250.741 134.841 248.099 137.378C245.456 139.862 242.471 142.345 239.142 144.829H257.293L257.531 127.945Z" fill="white"/>
<path d="M170.196 155.926C187.37 154.974 200.687 153.918 210.146 152.755C209.248 155.503 208.561 158.409 208.085 161.474C207.609 164.539 207.372 167.313 207.372 169.797H150.697L150.618 168.132C150.618 162.954 152.124 158.462 155.136 154.657C158.201 150.853 162.455 147.339 167.898 144.115C169.483 143.164 171.967 141.949 175.349 140.469C179.735 138.567 183.117 136.902 185.494 135.475C187.872 133.996 189.061 132.542 189.061 131.116C189.061 129.319 188.322 127.892 186.842 126.835C185.362 125.778 183.064 125.25 179.946 125.25C176.511 125.25 173.895 126.122 172.099 127.866C170.355 129.61 169.483 131.829 169.483 134.524C169.483 135.37 169.562 136.241 169.721 137.14C163.062 136.294 156.589 135.713 150.301 135.396C150.301 130.904 151.463 126.862 153.788 123.268C156.166 119.622 159.707 116.742 164.41 114.628C169.166 112.515 174.979 111.458 181.848 111.458C188.137 111.458 193.368 112.33 197.543 114.074C201.77 115.765 204.862 117.931 206.817 120.573C208.825 123.163 209.829 125.831 209.829 128.579C209.829 131.75 209.116 134.471 207.689 136.743C206.315 139.016 204.307 141.05 201.665 142.847C199.075 144.591 195.588 146.493 191.202 148.554C190.567 148.871 189.537 149.241 188.11 149.664C186.683 150.034 185.785 150.271 185.415 150.377C181.663 151.487 178.678 152.412 176.458 153.151C174.239 153.891 172.152 154.816 170.196 155.926Z" fill="white"/>
<path d="M27.6704 155.926C44.8446 154.974 58.1611 153.918 67.6201 152.755C66.7217 155.503 66.0348 158.409 65.5592 161.474C65.0836 164.539 64.8458 167.313 64.8458 169.797H8.17122L8.09196 168.132C8.09196 162.954 9.598 158.462 12.6101 154.657C15.675 150.853 19.9289 147.339 25.3718 144.115C26.9571 143.164 29.4407 141.949 32.8227 140.469C37.2087 138.567 40.5907 136.902 42.9686 135.475C45.3466 133.996 46.5355 132.542 46.5355 131.116C46.5355 129.319 45.7957 127.892 44.3161 126.835C42.8365 125.778 40.5378 125.25 37.4201 125.25C33.9852 125.25 31.3695 126.122 29.5728 127.866C27.829 129.61 26.9571 131.829 26.9571 134.524C26.9571 135.37 27.0363 136.241 27.1949 137.14C20.5366 136.294 14.0633 135.713 7.7749 135.396C7.7749 130.904 8.93745 126.862 11.2626 123.268C13.6405 119.622 17.181 116.742 21.8841 114.628C26.64 112.515 32.4528 111.458 39.3224 111.458C45.6108 111.458 50.8423 112.33 55.0169 114.074C59.2444 115.765 62.3357 117.931 64.2909 120.573C66.299 123.163 67.303 125.831 67.303 128.579C67.303 131.75 66.5896 134.471 65.1628 136.743C63.7889 139.016 61.7809 141.05 59.1387 142.847C56.5494 144.591 53.0617 146.493 48.6757 148.554C48.0416 148.871 47.0111 149.241 45.5844 149.664C44.1576 150.034 43.2593 150.271 42.8893 150.377C39.1375 151.487 36.1518 152.412 33.9324 153.151C31.713 153.891 29.6257 154.816 27.6704 155.926Z" fill="white"/>
<path fill-rule="evenodd" clip-rule="evenodd" d="M290.158 141.054V163.506H279.378V173.573H252.508L252.901 169.44C253.037 168.015 253.153 166.044 253.247 163.506H215.709V141.859L217.184 140.726C229.287 131.429 240.078 121.128 249.567 109.824L250.698 108.476H279.378V141.054H290.158ZM257.135 159.731C257.103 161.094 257.066 162.352 257.024 163.506C256.991 164.409 256.956 165.248 256.917 166.023C256.842 167.521 256.756 168.779 256.659 169.798H275.604V159.731H286.384V144.829H275.604V112.251H252.458C242.788 123.771 231.796 134.261 219.484 143.72V159.731H257.135ZM250.698 140.115L250.684 140.129C250.355 140.438 250.022 140.746 249.684 141.054H253.571L253.625 137.262C252.597 138.278 251.626 139.224 250.713 140.101L250.698 140.115ZM253.701 131.85C251.633 133.935 249.766 135.778 248.099 137.378C246.795 138.604 245.408 139.829 243.937 141.054C242.427 142.313 240.828 143.571 239.142 144.829H257.293L257.531 127.946C256.186 129.33 254.909 130.631 253.701 131.85Z" fill="black"/>
<path fill-rule="evenodd" clip-rule="evenodd" d="M150.589 131.631C151.066 128.616 152.132 125.828 153.788 123.269C156.166 119.623 159.707 116.743 164.41 114.629C169.166 112.515 174.979 111.458 181.848 111.458C188.137 111.458 193.368 112.33 197.543 114.074C201.77 115.765 204.862 117.932 206.817 120.574C208.825 123.163 209.829 125.832 209.829 128.58C209.829 131.75 209.115 134.472 207.689 136.744C206.315 139.016 204.307 141.051 201.665 142.847C199.075 144.591 195.588 146.493 191.202 148.554C190.567 148.871 189.537 149.241 188.11 149.664C186.683 150.034 185.785 150.272 185.415 150.377C184.144 150.754 182.96 151.108 181.865 151.442C179.728 152.093 177.925 152.663 176.458 153.152C174.239 153.892 172.151 154.816 170.196 155.926C172.623 155.792 174.973 155.655 177.246 155.516C179.063 155.406 180.83 155.293 182.549 155.18C191.813 154.568 199.646 153.917 206.049 153.226C207.487 153.071 208.852 152.914 210.146 152.755C209.728 154.033 209.356 155.345 209.03 156.691C208.654 158.24 208.339 159.835 208.085 161.475C207.609 164.54 207.372 167.314 207.372 169.797H150.697L150.618 168.133C150.618 167.447 150.644 166.773 150.697 166.111C150.699 166.082 150.702 166.052 150.704 166.023C151.063 161.724 152.541 157.936 155.136 154.658C158.201 150.853 162.455 147.339 167.898 144.116C169.138 143.371 170.93 142.465 173.272 141.396C173.581 141.255 173.9 141.111 174.229 140.964C174.59 140.803 174.964 140.638 175.348 140.469C179.734 138.567 183.116 136.902 185.494 135.476C187.872 133.996 189.061 132.543 189.061 131.116C189.061 129.319 188.322 127.893 186.842 126.836C185.362 125.779 183.064 125.25 179.946 125.25C176.511 125.25 173.895 126.122 172.099 127.866C170.623 129.342 169.772 131.157 169.545 133.313C169.504 133.706 169.483 134.11 169.483 134.524C169.483 135.37 169.562 136.242 169.721 137.14C168.419 136.975 167.125 136.82 165.838 136.675C160.539 136.078 155.36 135.651 150.301 135.396C150.301 134.538 150.343 133.696 150.428 132.871C150.471 132.453 150.525 132.04 150.589 131.631ZM174.747 130.556C173.793 131.52 173.258 132.741 173.258 134.524C173.258 135.134 173.315 135.786 173.438 136.484L173.553 137.135C173.647 137.094 173.741 137.052 173.835 137.011L173.846 137.006C178.155 135.138 181.355 133.554 183.525 132.255C184.502 131.645 185.013 131.173 185.248 130.886C185.257 130.874 185.266 130.864 185.274 130.854C185.23 130.456 185.065 130.205 184.648 129.907C184.123 129.532 182.78 129.025 179.946 129.025C177.142 129.025 175.615 129.725 174.747 130.556ZM166.515 140.552C160.905 139.897 155.437 139.435 150.111 139.166L146.526 138.986V135.396C146.526 130.215 147.879 125.453 150.619 121.218L150.627 121.207C153.467 116.851 157.624 113.54 162.862 111.186L162.87 111.183L162.877 111.179C168.243 108.794 174.611 107.683 181.848 107.683C188.442 107.683 194.198 108.592 198.971 110.58C203.581 112.427 207.327 114.935 209.825 118.294C212.229 121.404 213.604 124.855 213.604 128.58C213.604 132.318 212.759 135.755 210.902 138.724C209.197 141.534 206.779 143.934 203.787 145.969L203.78 145.974L203.773 145.978C201.677 147.39 199.099 148.858 196.068 150.386C201.277 149.944 205.815 149.484 209.685 149.009L215.579 148.284L213.734 153.928C212.903 156.469 212.262 159.176 211.815 162.053C211.362 164.972 211.146 167.548 211.146 169.797V173.572H147.098L146.843 168.223V168.133C146.843 162.165 148.599 156.833 152.176 152.315L152.186 152.302L152.196 152.29C155.613 148.049 160.247 144.26 165.966 140.872C166.141 140.767 166.324 140.661 166.515 140.552Z" fill="black"/>
<path fill-rule="evenodd" clip-rule="evenodd" d="M8.06348 131.631C8.53995 128.616 9.60629 125.828 11.2625 123.269C13.6404 119.623 17.181 116.743 21.884 114.629C26.6399 112.515 32.4527 111.458 39.3223 111.458C45.6107 111.458 50.8422 112.33 55.0168 114.074C59.2443 115.765 62.3357 117.932 64.2909 120.574C66.2989 123.163 67.3029 125.832 67.3029 128.58C67.3029 131.75 66.5896 134.472 65.1628 136.744C63.7889 139.016 61.7808 141.051 59.1386 142.847C56.5493 144.591 53.0616 146.493 48.6756 148.554C48.0415 148.871 47.0111 149.241 45.5843 149.664C44.1575 150.034 43.2592 150.272 42.8893 150.377C41.6178 150.754 40.4343 151.108 39.3388 151.442C37.2018 152.093 35.3996 152.663 33.9323 153.152C31.7129 153.892 29.6256 154.816 27.6704 155.926C30.0975 155.792 32.4475 155.655 34.7205 155.516C36.5371 155.406 38.3045 155.293 40.0227 155.18C49.2868 154.568 57.1203 153.917 63.5232 153.226C64.9609 153.071 66.3265 152.914 67.62 152.755C67.2024 154.033 66.8304 155.345 66.5041 156.691C66.1286 158.24 65.8136 159.835 65.5591 161.475C65.0835 164.54 64.8457 167.314 64.8457 169.797H8.17116L8.09189 168.133C8.09189 167.447 8.11831 166.773 8.17116 166.111C8.17352 166.082 8.17593 166.052 8.1784 166.023C8.53751 161.724 10.0147 157.936 12.61 154.658C15.6749 150.853 19.9288 147.339 25.3717 144.116C26.6126 143.371 28.4039 142.465 30.7456 141.396C31.0551 141.255 31.3741 141.111 31.7028 140.964C32.0644 140.803 32.4377 140.638 32.8226 140.469C37.2086 138.567 40.5906 136.902 42.9685 135.476C45.3465 133.996 46.5355 132.543 46.5355 131.116C46.5355 129.319 45.7957 127.893 44.3161 126.836C42.8364 125.779 40.5378 125.25 37.42 125.25C33.9852 125.25 31.3694 126.122 29.5727 127.866C28.0974 129.342 27.2461 131.157 27.019 133.313C26.9777 133.706 26.957 134.11 26.957 134.524C26.957 135.37 27.0363 136.242 27.1948 137.14C25.8933 136.975 24.599 136.82 23.3117 136.675C18.013 136.078 12.8341 135.651 7.77483 135.396C7.77483 134.538 7.81728 133.696 7.90217 132.871C7.94509 132.453 7.99886 132.04 8.06348 131.631ZM32.2212 130.556C31.2674 131.52 30.7318 132.741 30.7318 134.524C30.7318 135.134 30.7889 135.786 30.9122 136.484L31.027 137.135C31.1206 137.094 31.2148 137.052 31.3096 137.011L31.3205 137.006C35.6287 135.138 38.829 133.554 40.9995 132.255C41.9759 131.645 42.4872 131.173 42.7222 130.886C42.7314 130.874 42.74 130.864 42.7478 130.854C42.704 130.456 42.539 130.205 42.122 129.907C41.5966 129.532 40.2537 129.025 37.42 129.025C34.6162 129.025 33.089 129.725 32.2212 130.556ZM23.9888 140.552C18.3789 139.897 12.911 139.435 7.58474 139.166L4 138.986V135.396C4 130.215 5.35278 125.453 8.09326 121.218L8.10063 121.207C10.9414 116.851 15.0977 113.54 20.3366 111.186L20.3437 111.183L20.3509 111.179C25.7175 108.794 32.0854 107.683 39.3223 107.683C45.9164 107.683 51.6725 108.592 56.445 110.58C61.0547 112.427 64.8013 114.935 67.2995 118.294C69.7028 121.404 71.0778 124.855 71.0778 128.58C71.0778 132.318 70.2332 135.755 68.3767 138.724C66.6716 141.534 64.2531 143.934 61.2613 145.969L61.2543 145.974L61.2473 145.978C59.1511 147.39 56.5733 148.858 53.5421 150.386C58.751 149.944 63.2892 149.484 67.1595 149.009L73.0531 148.284L71.208 153.928C70.3774 156.469 69.7359 159.176 69.2893 162.053C68.8365 164.972 68.6206 167.548 68.6206 169.797V173.572H4.5718L4.31706 168.223V168.133C4.31706 162.165 6.07356 156.833 9.65036 152.315L9.66029 152.302L9.67034 152.29C13.0866 148.049 17.7207 144.261 23.4393 140.873C23.6143 140.768 23.7975 140.661 23.9888 140.552Z" fill="black"/>
<path d="M548.373 21.2334C544.409 21.2334 541.452 20.2583 539.502 18.3079C537.615 16.3576 536.671 13.8096 536.671 10.6639C536.671 7.58113 537.615 5.03311 539.502 3.01987C541.452 1.00663 544.409 0 548.373 0C552.148 0 555.042 1.03808 557.055 3.11423C559.068 5.12748 560.075 7.64404 560.075 10.6639C560.075 13.8096 559.1 16.3576 557.149 18.3079C555.199 20.2583 552.274 21.2334 548.373 21.2334ZM537.426 78.3278C537.866 68.1987 538.086 59.8311 538.086 53.2251C538.086 45.3609 537.835 36.553 537.331 26.8013H559.98C559.477 36.1755 559.226 44.9834 559.226 53.2251C559.226 60.1457 559.446 68.5132 559.886 78.3278H537.426Z" fill="black"/>
<path d="M510.045 26.8011H528.165C527.85 37.119 527.693 51.7779 527.693 70.7779C527.693 78.2647 526.183 84.3988 523.163 89.1802C520.206 93.9617 516.274 97.422 511.367 99.5611C506.459 101.763 500.986 102.864 494.946 102.864C488.969 102.864 483.622 101.983 478.903 100.222C474.185 98.523 470.598 96.2266 468.145 93.3326L472.392 78.8938C475.789 80.8442 478.997 82.2283 482.017 83.0461C485.037 83.9269 488.183 84.3673 491.454 84.3673C502.15 84.3673 507.497 79.8375 507.497 70.7779C507.497 69.4567 507.529 68.513 507.592 67.9468V66.4369C507.655 65.8077 507.655 64.9899 507.592 63.9832C504.383 72.917 497.589 77.3839 487.208 77.3839C482.992 77.3839 479.218 76.2514 475.883 73.9865C472.612 71.7216 470.064 68.6703 468.239 64.8326C466.415 60.9319 465.502 56.6538 465.502 51.9981C465.502 47.2167 466.415 42.8442 468.239 38.8806C470.064 34.8541 472.612 31.6769 475.883 29.3491C479.155 27.0213 482.835 25.8574 486.925 25.8574C497.557 25.8574 504.478 29.6008 507.686 37.0875L510.045 26.8011ZM497.022 62.2846C498.469 62.2846 499.979 61.97 501.552 61.3408C503.125 60.6488 504.478 59.5793 505.61 58.1322C506.742 56.6223 507.309 54.7663 507.309 52.5644C507.309 48.6637 506.428 45.8955 504.666 44.2597C502.905 42.561 500.294 41.7117 496.834 41.7117C493.814 41.7117 491.423 42.7183 489.661 44.7316C487.9 46.7448 487.019 49.3557 487.019 52.5644C487.019 55.4584 487.963 57.8177 489.85 59.6422C491.8 61.4038 494.191 62.2846 497.022 62.2846Z" fill="black"/>
<path d="M445.339 21.2334C441.376 21.2334 438.419 20.2583 436.468 18.3079C434.581 16.3576 433.637 13.8096 433.637 10.6639C433.637 7.58113 434.581 5.03311 436.468 3.01987C438.419 1.00663 441.376 0 445.339 0C449.114 0 452.008 1.03808 454.021 3.11423C456.035 5.12748 457.041 7.64404 457.041 10.6639C457.041 13.8096 456.066 16.3576 454.116 18.3079C452.165 20.2583 449.24 21.2334 445.339 21.2334ZM434.392 78.3278C434.833 68.1987 435.053 59.8311 435.053 53.2251C435.053 45.3609 434.801 36.553 434.298 26.8013H456.947C456.443 36.1755 456.192 44.9834 456.192 53.2251C456.192 60.1457 456.412 68.5132 456.852 78.3278H434.392Z" fill="black"/>
<path d="M423.237 62.662C423.237 64.8011 423.488 66.311 423.992 67.1918C424.495 68.0726 425.502 68.7018 427.012 69.0793L426.634 77.9501C424.621 78.2647 422.859 78.4849 421.349 78.6107C419.902 78.7365 417.952 78.7995 415.498 78.7995C410.088 78.7995 406.502 77.6041 404.74 75.2134C402.978 72.7597 402.098 69.6455 402.098 65.8706V63.5114C400.273 68.6703 397.599 72.5081 394.076 75.0246C390.616 77.5412 386.18 78.7995 380.77 78.7995C374.478 78.7995 369.728 77.5412 366.52 75.0246C363.374 72.5081 361.801 68.7647 361.801 63.7945C361.801 59.7051 363.154 56.4965 365.859 54.1687C368.565 51.8408 372.748 50.2365 378.411 49.3557C373.629 45.9584 368.848 43.0014 364.066 40.4849C367.841 35.7034 372.151 32.0859 376.995 29.6322C381.839 27.1157 387.722 25.8574 394.642 25.8574C404.331 25.8574 411.503 27.965 416.159 32.1802C420.877 36.3326 423.237 42.7498 423.237 51.4319V62.662ZM396.624 42.4667C393.416 42.4667 390.584 43.0014 388.131 44.071C385.677 45.1405 383.475 46.7448 381.525 48.8839C385.3 48.4435 390.018 48.2233 395.68 48.2233C398.008 48.2233 399.644 47.9402 400.588 47.374C401.531 46.8077 402.003 46.0842 402.003 45.2034C402.003 44.4485 401.531 43.8193 400.588 43.316C399.644 42.7498 398.323 42.4667 396.624 42.4667ZM386.715 63.417C390.238 63.417 393.416 62.7564 396.247 61.4352C399.078 60.0511 401.028 58.2581 402.098 56.0561V53.6024C400.588 54.3574 398.92 54.9551 397.096 55.3955C395.271 55.773 393.069 56.1504 390.49 56.5279L387.093 57.0942C383.569 57.7862 381.808 58.9816 381.808 60.6802C381.808 62.5048 383.444 63.417 386.715 63.417Z" fill="black"/>
<path d="M333.067 78.3278C330.11 72.9801 325.203 64.8013 318.345 53.7914L307.304 64.7384V78.3278H283.805C284.308 66.1225 284.56 54.7036 284.56 44.0712C284.56 33.4387 284.308 22.0198 283.805 9.81445H307.304V37.4652C318.88 26.0149 327.121 16.798 332.029 9.81445H362.605L332.878 39.2582C337.282 45.4238 342.221 52.1241 347.694 59.3591C353.231 66.5942 358.232 72.9172 362.699 78.3278H333.067Z" fill="black"/>
<path d="M280.008 26.8017L277.837 32.2752C271.86 48.1925 265.6 63.5435 259.057 78.3282C255.66 85.8779 250.753 91.9176 244.335 96.4474C237.918 101.04 229.865 103.242 220.176 103.053C218.981 97.8315 217.974 93.7421 217.157 90.7852C216.402 87.8911 215.395 84.9656 214.137 82.0087C217.597 82.8266 220.837 83.2355 223.857 83.2355C228.764 83.2355 232.665 82.1974 235.559 80.1213C233.294 73.3895 230.62 66.1544 227.537 58.416C224.455 50.6776 219.988 40.1395 214.137 26.8017H236.503C237.258 29.9474 238.296 33.5964 239.617 37.7488C240.938 41.9011 242.259 45.8961 243.58 49.7339C243.958 50.9292 244.556 52.7537 245.373 55.2074C246.254 57.5981 246.946 59.6113 247.45 61.2471L249.903 53.7918C254.622 40.1395 257.421 31.1428 258.302 26.8017H280.008Z" fill="black"/>
<path d="M194.265 25.8575C198.48 25.8575 202.224 27.1473 205.495 29.7267C208.83 32.2433 211.409 35.6092 213.234 39.8244C215.058 43.9767 215.97 48.4122 215.97 53.1307C215.97 57.9122 215.058 62.3161 213.234 66.3426C211.409 70.3062 208.861 73.4519 205.59 75.7797C202.318 78.1075 198.638 79.2714 194.548 79.2714C189.767 79.2714 185.614 78.2648 182.091 76.2516C178.568 74.1754 175.926 70.9354 174.164 66.5314L171.427 78.3277H153.308C153.686 66.4999 153.874 54.2632 153.874 41.6175C153.874 28.8459 153.686 16.6092 153.308 4.90723H174.636L174.353 16.5148C174.038 24.6936 173.881 31.9916 173.881 38.4089C175.58 34.1307 178.159 30.985 181.619 28.9718C185.143 26.8956 189.358 25.8575 194.265 25.8575ZM184.639 63.4171C187.659 63.4171 190.05 62.4105 191.811 60.3973C193.573 58.384 194.454 55.7731 194.454 52.5645C194.454 49.6705 193.479 47.3426 191.528 45.581C189.641 43.7565 187.282 42.8443 184.45 42.8443C183.003 42.8443 181.494 43.1903 179.921 43.8824C178.348 44.5115 176.995 45.581 175.863 47.091C174.73 48.538 174.164 50.3625 174.164 52.5645C174.164 56.4652 175.045 59.2648 176.806 60.9635C178.568 62.5993 181.179 63.4171 184.639 63.4171Z" fill="black"/>
<path d="M145.729 26.8017C145.289 34.7289 145.068 43.2852 145.068 52.4706C145.068 61.7189 145.289 70.3382 145.729 78.3282C141.703 78.1395 138.525 78.0451 136.198 78.0451C133.996 78.0451 130.818 78.1395 126.666 78.3282L123.929 64.4557C122.482 69.4888 120.217 73.2322 117.135 75.6858C114.052 78.0766 110.466 79.2719 106.376 79.2719C102.602 79.2719 99.33 78.454 96.5618 76.8183C93.7936 75.1196 91.6859 72.8547 90.2389 70.0236C88.8548 67.1925 88.1628 64.0153 88.1628 60.4921V46.9027C88.1628 38.5352 88.0055 31.8348 87.6909 26.8017H108.924C108.547 36.0501 108.358 45.2041 108.358 54.2637C108.358 57.0319 109.019 59.2339 110.34 60.8696C111.724 62.5054 113.454 63.3233 115.53 63.3233C117.481 63.3233 119.179 62.4739 120.626 60.7752C122.136 59.0137 123.049 56.6229 123.363 53.6031V51.4325C123.489 46.5252 123.552 43.1279 123.552 41.2405C123.552 36.8994 123.426 32.0865 123.174 26.8017H145.729Z" fill="black"/>
<path d="M80.1587 32.6523C80.1587 38.1258 78.8061 42.75 76.1008 46.5248C73.4584 50.2996 68.8971 53.0364 62.417 54.7351C63.172 55.7417 63.7067 56.5281 64.0213 57.0943L79.3094 78.3278H53.6405C50.8723 73.1688 46.4998 65.8708 40.5229 56.4337H26.6504V78.3278H4.37891C4.88222 66.1225 5.13388 54.7036 5.13388 44.0712C5.13388 33.4387 4.88222 22.0198 4.37891 9.81445H26.6504V9.90885H45.9965C58.7051 9.90885 67.5759 11.9536 72.609 16.043C77.6421 20.1324 80.1587 25.6688 80.1587 32.6523ZM26.6504 28.0281V38.7864H39.3905C44.7382 38.7864 48.7647 38.6291 51.47 38.3145C54.2382 37.937 56.157 37.3708 57.2266 36.6159C58.2961 35.8609 58.8309 34.7599 58.8309 33.3129C58.8309 31.9288 58.3276 30.8592 57.321 30.1043C56.3143 29.3493 54.4269 28.8145 51.6587 28.5C48.8905 28.1854 44.8011 28.0281 39.3905 28.0281H26.6504Z" fill="black"/>
<path d="M531.006 110.434H563.204V116.17C557.393 124.975 552.901 133.841 549.729 142.765H537.722C540.954 134.73 545.208 126.74 550.485 118.795C542.273 118.795 535.78 118.942 531.006 119.239V110.434Z" fill="black"/>
<path d="M526.722 134.538C529.391 134.478 531.363 134.419 532.638 134.36V142.765H509.112V134.36C512.314 134.478 514.73 134.538 516.361 134.538V119.194C515.294 121.537 513.115 123.049 509.823 123.73C509.734 120.232 509.408 117.045 508.845 114.169C511.216 113.843 512.862 113.443 513.781 112.968C514.73 112.464 515.456 111.916 515.961 111.323C516.494 110.73 516.85 110.33 517.028 110.123V110.033H526.722V134.538Z" fill="black"/>
<path d="M505.713 131.958H486.59V123.286H505.713V131.958Z" fill="black"/>
<path d="M468.098 120.04C471.479 120.04 474.31 120.514 476.593 121.463C478.906 122.382 480.625 123.642 481.752 125.243C482.908 126.815 483.486 128.579 483.486 130.535C483.486 134.982 481.93 138.214 478.817 140.23C475.733 142.217 471.598 143.21 466.409 143.21C462.051 143.21 458.211 142.483 454.89 141.031C451.6 139.549 449.213 137.073 447.731 133.604C449.362 133.367 451.14 132.981 453.067 132.447C455.024 131.914 456.788 131.366 458.359 130.802C458.982 132.077 459.857 133.011 460.984 133.604C462.11 134.167 463.622 134.449 465.52 134.449C467.536 134.449 469.196 134.123 470.5 133.471C471.835 132.819 472.502 131.914 472.502 130.758C472.502 129.571 471.923 128.579 470.768 127.778C469.611 126.977 467.847 126.578 465.475 126.578C463.934 126.578 462.525 126.858 461.25 127.422C459.976 127.956 459.056 128.727 458.492 129.735H448.219C448.931 126.681 449.554 123.39 450.088 119.862C450.65 116.334 450.992 113.206 451.11 110.479H482.33V119.106C479.039 118.898 475.926 118.779 472.99 118.75C470.085 118.691 466.009 118.661 460.761 118.661L460.316 121.152C462.57 120.41 465.164 120.04 468.098 120.04Z" fill="black"/>
<path d="M440.353 134.538C443.021 134.478 444.993 134.419 446.268 134.36V142.765H422.742V134.36C425.944 134.478 428.361 134.538 429.991 134.538V119.194C428.924 121.537 426.744 123.049 423.453 123.73C423.365 120.232 423.038 117.045 422.475 114.169C424.847 113.843 426.493 113.443 427.411 112.968C428.36 112.464 429.087 111.916 429.59 111.323C430.124 110.73 430.48 110.33 430.658 110.123V110.033H440.353V134.538Z" fill="black"/>
<path d="M420.769 110.479L419.924 111.768C416.752 116.69 414.024 121.048 411.741 124.843C409.488 128.608 407.605 132.077 406.093 135.25V142.765H394.486V134.493C393.389 132.269 392.099 129.986 390.617 127.645C389.135 125.273 387.029 122.027 384.302 117.906C382.167 114.762 380.536 112.286 379.41 110.479H391.862C392.751 112.286 394.204 114.97 396.22 118.528C398.236 122.145 399.615 124.695 400.356 126.177C401.394 124.012 402.787 121.359 404.537 118.217C406.583 114.541 407.961 111.961 408.672 110.479H420.769Z" fill="black"/>
<path d="M374.394 142.765C373.83 141.076 373.074 138.956 372.126 136.405H357.939L355.716 142.765H344.553L357.005 110.479H373.371L385.912 142.765H374.394ZM369.591 129.468C368.464 126.355 367.308 123.242 366.123 120.128L365.054 117.238C364.017 119.936 362.49 124.012 360.474 129.468H369.591Z" fill="black"/>
<path d="M339.315 110.479L342.784 142.765H331.266L330.554 119.729L326.107 142.765H314.455L309.92 119.907L309.252 142.765H297.734L301.203 110.479H316.323L320.193 131.513L323.572 110.479H339.315Z" fill="black"/>
<path d="M556.988 170.922C556.684 170.01 556.276 168.866 555.764 167.49H548.108L546.908 170.922H540.884L547.604 153.498H556.436L563.204 170.922H556.988ZM554.396 163.746C553.788 162.066 553.164 160.386 552.524 158.706L551.948 157.146C551.388 158.602 550.564 160.802 549.476 163.746H554.396Z" fill="black"/>
<path d="M534.749 164.37L535.997 153.498H541.853L538.637 170.922H531.269L529.637 161.202L527.741 170.922H520.685L517.469 153.498H523.325L524.549 164.226L526.469 153.498H532.877L534.749 164.37Z" fill="black"/>
<path d="M511.894 170.922C511.59 170.01 511.182 168.866 510.67 167.49H503.014L501.814 170.922H495.79L502.51 153.498H511.342L518.11 170.922H511.894ZM509.302 163.746C508.694 162.066 508.07 160.386 507.43 158.706L506.854 157.146C506.294 158.602 505.47 160.802 504.382 163.746H509.302Z" fill="black"/>
<path d="M494.831 153.522C494.719 156.226 494.663 159.122 494.663 162.21C494.663 165.314 494.719 168.218 494.831 170.922H486.239L480.431 157.818L480.863 170.922H474.695C474.823 167.818 474.887 164.914 474.887 162.21C474.887 159.522 474.823 156.626 474.695 153.522H483.527L489.359 166.986L488.951 153.522H494.831Z" fill="black"/>
<path d="M472.772 158.274C470.868 158.178 469.46 158.122 468.548 158.106V166.314C469.476 166.298 470.884 166.242 472.772 166.146V170.922H458.828V166.146C460.668 166.242 462.068 166.298 463.028 166.314V158.106C462.068 158.122 460.668 158.178 458.828 158.274V153.498H472.772V158.274Z" fill="black"/>
<path d="M449.372 170.922C448.62 169.562 447.372 167.482 445.628 164.682L442.82 167.466V170.922H436.844C436.972 167.818 437.036 164.914 437.036 162.21C437.036 159.506 436.972 156.602 436.844 153.498H442.82V160.53C445.764 157.618 447.86 155.274 449.108 153.498H456.884L449.324 160.986C450.444 162.554 451.7 164.258 453.092 166.098C454.5 167.938 455.772 169.546 456.908 170.922H449.372Z" fill="black"/>
<path d="M424.227 171.162C420.563 171.162 417.867 170.37 416.139 168.786C414.411 167.186 413.547 164.946 413.547 162.066C413.547 159.218 414.403 156.994 416.115 155.394C417.843 153.794 420.547 152.994 424.227 152.994C427.923 152.994 430.627 153.794 432.339 155.394C434.067 156.994 434.931 159.218 434.931 162.066C434.931 164.962 434.075 167.202 432.363 168.786C430.651 170.37 427.939 171.162 424.227 171.162ZM424.227 166.266C426.003 166.266 427.283 165.93 428.067 165.258C428.851 164.57 429.243 163.506 429.243 162.066C429.243 160.658 428.851 159.61 428.067 158.922C427.283 158.234 426.003 157.89 424.227 157.89C422.467 157.89 421.195 158.234 420.411 158.922C419.627 159.61 419.235 160.658 419.235 162.066C419.235 163.49 419.627 164.546 420.411 165.234C421.195 165.922 422.467 166.266 424.227 166.266Z" fill="black"/>
<path d="M409.312 166.05C410.032 166.05 410.632 166.33 411.112 166.89C411.608 167.434 411.856 168.194 411.856 169.17C411.856 169.97 411.712 170.81 411.424 171.69C411.152 172.57 410.768 173.282 410.272 173.826H408.232C408.904 172.914 409.328 172.018 409.504 171.138C408.672 171.138 408.008 170.89 407.512 170.394C407.016 169.898 406.768 169.298 406.768 168.594C406.768 167.89 407.016 167.29 407.512 166.794C408.008 166.298 408.608 166.05 409.312 166.05Z" fill="black"/>
<path d="M399.511 170.922C399.207 170.01 398.799 168.866 398.287 167.49H390.631L389.431 170.922H383.407L390.127 153.498H398.959L405.727 170.922H399.511ZM396.919 163.746C396.311 162.066 395.687 160.386 395.047 158.706L394.471 157.146C393.911 158.602 393.087 160.802 391.999 163.746H396.919Z" fill="black"/>
<path d="M382.448 153.498C382.336 156.202 382.28 159.106 382.28 162.21C382.28 165.314 382.336 168.218 382.448 170.922H376.808V164.394H367.976V170.922H362.336C362.464 167.818 362.528 164.914 362.528 162.21C362.528 159.506 362.464 156.602 362.336 153.498H367.976V160.026H376.808V153.498H382.448Z" fill="black"/>
<path d="M354.839 170.922C354.535 170.01 354.127 168.866 353.615 167.49H345.959L344.759 170.922H338.735L345.455 153.498H354.287L361.055 170.922H354.839ZM352.247 163.746C351.639 162.066 351.015 160.386 350.375 158.706L349.799 157.146C349.239 158.602 348.415 160.802 347.327 163.746H352.247Z" fill="black"/>
<path d="M337.777 153.522C337.665 156.226 337.609 159.122 337.609 162.21C337.609 165.314 337.665 168.218 337.777 170.922H329.185L323.377 157.818L323.809 170.922H317.641C317.769 167.818 317.833 164.914 317.833 162.21C317.833 159.522 317.769 156.626 317.641 153.522H326.473L332.305 166.986L331.897 153.522H337.777Z" fill="black"/>
<path d="M306.329 155.178C308.249 155.178 309.977 155.562 311.513 156.33C313.049 157.098 314.249 158.162 315.113 159.522C315.993 160.866 316.433 162.386 316.433 164.082C316.433 165.33 316.185 166.45 315.689 167.442C315.209 168.434 314.545 169.218 313.697 169.794C312.849 170.354 311.889 170.634 310.817 170.634C310.097 170.634 309.465 170.49 308.921 170.202C308.393 169.898 307.985 169.49 307.697 168.978C307.425 168.466 307.297 167.906 307.313 167.298C306.673 167.842 305.905 168.114 305.009 168.114C303.921 168.114 302.993 167.802 302.225 167.178C301.457 166.554 301.073 165.682 301.073 164.562C301.073 163.682 301.297 162.914 301.745 162.258C302.209 161.586 302.849 161.074 303.665 160.722C304.497 160.354 305.433 160.17 306.473 160.17C307.529 160.17 308.433 160.282 309.185 160.506C309.361 160.026 309.465 159.746 309.497 159.666L309.569 159.69C308.641 159.242 307.561 159.018 306.329 159.018C305.129 159.018 304.065 159.274 303.137 159.786C302.209 160.282 301.481 160.962 300.953 161.826C300.441 162.674 300.185 163.602 300.185 164.61C300.185 166.13 300.633 167.314 301.529 168.162C302.441 169.01 303.657 169.434 305.177 169.434C306.009 169.434 306.865 169.306 307.745 169.05C307.537 169.562 307.433 170.786 307.433 172.722C306.857 172.786 306.233 172.818 305.561 172.818C303.689 172.818 302.049 172.49 300.641 171.834C299.233 171.194 298.145 170.258 297.377 169.026C296.609 167.794 296.225 166.322 296.225 164.61C296.225 162.738 296.657 161.09 297.521 159.666C298.385 158.226 299.585 157.122 301.121 156.354C302.657 155.57 304.393 155.178 306.329 155.178ZM310.745 166.794C310.745 166.906 310.777 167.002 310.841 167.082C310.921 167.146 311.025 167.178 311.153 167.178C311.361 167.178 311.577 167.074 311.801 166.866C312.041 166.642 312.241 166.298 312.401 165.834C312.561 165.37 312.641 164.786 312.641 164.082C312.641 163.442 312.513 162.858 312.257 162.33C311.249 164.906 310.745 166.394 310.745 166.794ZM304.961 164.298C304.961 164.65 305.081 164.922 305.321 165.114C305.561 165.29 305.857 165.378 306.209 165.378C306.689 165.378 307.057 165.29 307.313 165.114C307.569 164.938 307.753 164.65 307.865 164.25C307.929 164.058 307.961 163.858 307.961 163.65C307.961 163.362 307.873 163.146 307.697 163.002C307.537 162.858 307.313 162.786 307.025 162.786C306.481 162.786 306.001 162.938 305.585 163.242C305.169 163.53 304.961 163.882 304.961 164.298Z" fill="black"/>
<path d="M109 176.455C127.476 176.455 142.455 161.476 142.455 143C142.455 124.524 127.476 109.545 109 109.545C90.5236 109.545 75.5455 124.524 75.5455 143C75.5455 161.476 90.5236 176.455 109 176.455Z" fill="#80F142" stroke="black" stroke-width="2.90909" stroke-miterlimit="10"/>
<path d="M109 168.642C123.161 168.642 134.641 157.162 134.641 143.001C134.641 128.84 123.161 117.36 109 117.36C94.8386 117.36 83.3588 128.84 83.3588 143.001C83.3588 157.162 94.8386 168.642 109 168.642Z" stroke="white" stroke-width="5.90253" stroke-miterlimit="10"/>
<path d="M127.879 143C127.879 153.427 119.427 161.88 109 161.88C98.5732 161.88 90.1207 153.427 90.1207 143C90.1207 132.574 98.5732 124.121 109 124.121C119.427 124.121 127.879 132.574 127.879 143Z" fill="white" stroke="black" stroke-width="0.829904"/>
<path d="M85.2097 136.752C85.4093 135.815 85.7549 134.924 86.0872 134.028L88.0607 134.799C87.7589 135.618 87.4389 136.43 87.2602 137.287L85.2097 136.752Z" fill="black"/>
<path d="M81.1086 135.681C81.3503 134.584 81.7469 133.535 82.1394 132.485L84.1133 133.257C83.7509 134.23 83.3798 135.2 83.1592 136.216L81.1086 135.681Z" fill="black"/>
<path d="M82.5501 139.265L82.7863 137.727C82.8888 137.219 83.0356 136.72 83.1592 136.217L85.2097 136.752C85.0967 137.215 84.959 137.674 84.8642 138.141L84.649 139.558L82.5501 139.265Z" fill="black"/>
<path d="M84.1133 133.257L84.386 132.528L84.7224 131.826L85.3989 130.425L87.2689 131.421L86.648 132.712L86.3362 133.357L86.0873 134.028L84.1133 133.257Z" fill="black"/>
<path d="M95.731 122.259C96.5484 121.766 97.3494 121.241 98.2292 120.862L99.1597 122.766C98.3542 123.108 97.6247 123.593 96.8766 124.042L95.731 122.259Z" fill="black"/>
<path d="M91.3089 125.882C91.9594 125.183 92.7034 124.577 93.405 123.93L94.749 125.568C94.1107 126.163 93.4269 126.714 92.8329 127.354L91.3089 125.882Z" fill="black"/>
<path d="M92.0607 122.292L93.3061 121.359C93.7201 121.046 94.1317 120.731 94.5858 120.477L95.731 122.26C95.312 122.491 94.9336 122.784 94.553 123.073L93.4051 123.93L92.0607 122.292Z" fill="black"/>
<path d="M93.4402 118.694C94.3962 118.111 95.3398 117.505 96.3683 117.054L97.2988 118.958C96.3446 119.373 95.4725 119.938 94.5858 120.477L93.4402 118.694Z" fill="black"/>
<path d="M88.26 122.938C89.0241 122.122 89.8889 121.404 90.7163 120.654L92.0607 122.292C91.2962 122.99 90.4915 123.653 89.7845 124.41L88.26 122.938Z" fill="black"/>
<path d="M79.8668 142.984C79.9083 139.937 80.3783 136.893 81.2992 133.979C82.2237 131.062 83.6807 128.336 85.4555 125.862C85.9259 125.263 86.3371 124.614 86.8641 124.062L88.4041 122.371L90.0954 120.83C90.6475 120.303 91.2962 119.892 91.8957 119.421C94.3693 117.646 97.095 116.189 100.012 115.265" stroke="black" stroke-width="0.880592" stroke-miterlimit="10"/>
<path d="M86.9229 142.984C86.9649 140.663 87.32 138.363 88.0106 136.157C88.7049 133.95 89.8196 131.892 91.1608 130.014C91.5227 129.563 91.8195 129.059 92.2275 128.646L93.3937 127.359L94.6802 126.193C95.0932 125.785 95.5974 125.488 96.0478 125.126C97.926 123.785 99.9839 122.67 102.191 121.975" stroke="black" stroke-width="0.880592" stroke-miterlimit="10"/>
<path d="M107.586 118.421L109.017 118.347L110.449 118.42L110.327 120.536L109.017 120.466L107.707 120.536L107.586 118.421Z" fill="black"/>
<path d="M107.342 114.189L109.017 114.109L110.693 114.189L110.571 116.305L109.017 116.228L107.464 116.305L107.342 114.189Z" fill="black"/>
<path d="M104.375 116.656C105.401 116.497 106.424 116.316 107.463 116.305L107.586 118.421C106.627 118.427 105.686 118.599 104.741 118.743L104.375 116.656Z" fill="black"/>
<path d="M110.571 116.305C111.61 116.316 112.634 116.497 113.659 116.656L113.293 118.743C112.349 118.598 111.408 118.427 110.449 118.42L110.571 116.305Z" fill="black"/>
<path d="M124.63 123.929C125.332 124.575 126.076 125.182 126.727 125.88L125.202 127.353C124.608 126.713 123.924 126.162 123.286 125.567L124.63 123.929Z" fill="black"/>
<path d="M119.806 120.861C120.685 121.24 121.486 121.764 122.304 122.258L121.159 124.041C120.41 123.592 119.681 123.107 118.876 122.765L119.806 120.861Z" fill="black"/>
<path d="M123.449 120.475C123.903 120.729 124.315 121.045 124.729 121.358L125.974 122.29L124.63 123.929L123.482 123.071C123.101 122.782 122.723 122.49 122.304 122.258L123.449 120.475Z" fill="black"/>
<path d="M127.318 120.652C128.146 121.402 129.011 122.12 129.775 122.936L128.251 124.408C127.543 123.651 126.739 122.988 125.974 122.29L127.318 120.652Z" fill="black"/>
<path d="M121.666 117.053C122.694 117.504 123.639 118.11 124.595 118.692L123.449 120.475C122.562 119.937 121.69 119.372 120.736 118.957L121.666 117.053Z" fill="black"/>
<path d="M100.012 115.265C102.926 114.343 105.97 113.873 109.017 113.831C112.065 113.873 115.108 114.342 118.023 115.264C120.939 116.188 123.665 117.645 126.139 119.42C126.738 119.89 127.387 120.301 127.939 120.828L129.631 122.368L131.171 124.059C131.698 124.612 132.109 125.261 132.58 125.86" stroke="black" stroke-width="0.880592" stroke-miterlimit="10"/>
<path d="M102.191 121.975C104.397 121.285 106.696 120.93 109.018 120.887C111.338 120.929 113.638 121.284 115.844 121.975C118.051 122.669 120.109 123.784 121.987 125.125C122.438 125.487 122.942 125.784 123.355 126.192L124.641 127.358L125.808 128.645C126.216 129.058 126.513 129.562 126.875 130.012" stroke="black" stroke-width="0.880592" stroke-miterlimit="10"/>
<path d="M131.949 134.026C132.282 134.921 132.627 135.813 132.827 136.749L130.776 137.285C130.598 136.428 130.278 135.615 129.975 134.797L131.949 134.026Z" fill="black"/>
<path d="M135.896 132.483C136.289 133.533 136.686 134.581 136.927 135.679L134.877 136.214C134.656 135.197 134.285 134.227 133.923 133.254L135.896 132.483Z" fill="black"/>
<path d="M132.637 130.422L133.313 131.824L133.65 132.525L133.923 133.254L131.949 134.026L131.7 133.355L131.388 132.709L130.767 131.419L132.637 130.422Z" fill="black"/>
<path d="M134.877 136.214C135 136.718 135.148 137.217 135.25 137.724L135.486 139.263L133.388 139.555L133.172 138.139C133.078 137.671 132.94 137.213 132.827 136.749L134.877 136.214Z" fill="black"/>
<path d="M131.95 151.938L131.701 152.609L131.389 153.254L130.768 154.545L128.898 153.548L129.464 152.368L129.751 151.78L129.976 151.166L131.95 151.938Z" fill="black"/>
<path d="M133.388 146.408L133.173 147.824C133.078 148.292 132.94 148.75 132.827 149.214L130.777 148.679C130.879 148.255 131.008 147.837 131.094 147.41L131.289 146.115L133.388 146.408Z" fill="black"/>
<path d="M134.878 149.749C134.657 150.766 134.286 151.736 133.924 152.709L131.95 151.938C132.282 151.042 132.628 150.151 132.827 149.214L134.878 149.749Z" fill="black"/>
<path d="M135.898 153.48L135.601 154.266L135.24 155.025L134.509 156.537L132.639 155.541L133.315 154.139L133.651 153.438L133.924 152.709L135.898 153.48Z" fill="black"/>
<path d="M137.586 146.993L137.329 148.653C137.219 149.201 137.062 149.74 136.928 150.284L134.878 149.749C135.001 149.245 135.148 148.746 135.251 148.238L135.487 146.7L137.586 146.993Z" fill="black"/>
<path d="M132.58 125.86C134.355 128.334 135.812 131.059 136.737 133.976C137.658 136.89 138.128 139.934 138.17 142.981C138.129 146.029 137.659 149.072 136.738 151.987C135.813 154.903 134.356 157.629 132.582 160.103" stroke="black" stroke-width="0.880592" stroke-miterlimit="10"/>
<path d="M126.875 130.012C128.216 131.89 129.331 133.948 130.026 136.155C130.717 138.361 131.072 140.66 131.114 142.982C131.072 145.303 130.717 147.602 130.026 149.808C129.332 152.015 128.217 154.073 126.876 155.952" stroke="black" stroke-width="0.880592" stroke-miterlimit="10"/>
<path d="M124.632 162.035L123.484 162.893C123.103 163.182 122.725 163.474 122.306 163.706L121.16 161.923C121.545 161.714 121.889 161.444 122.237 161.18L123.288 160.397L124.632 162.035Z" fill="black"/>
<path d="M127.321 165.312L125.978 166.32C125.531 166.657 125.086 166.996 124.597 167.272L123.452 165.489C123.905 165.235 124.317 164.919 124.731 164.606L125.976 163.674L127.321 165.312Z" fill="black"/>
<path d="M128.253 161.556C127.545 162.313 126.741 162.975 125.976 163.674L124.632 162.036C125.334 161.389 126.078 160.782 126.728 160.083L128.253 161.556Z" fill="black"/>
<path d="M123.452 165.489C122.565 166.027 121.692 166.593 120.738 167.008L119.808 165.104C120.688 164.725 121.489 164.2 122.306 163.706L123.452 165.489Z" fill="black"/>
<path d="M107.588 167.545C106.629 167.539 105.688 167.367 104.744 167.223L105.109 165.135C105.972 165.266 106.832 165.428 107.71 165.43L107.588 167.545Z" fill="black"/>
<path d="M113.296 167.222C112.351 167.367 111.411 167.538 110.451 167.545L110.33 165.429C111.208 165.427 112.067 165.265 112.93 165.135L113.296 167.222Z" fill="black"/>
<path d="M110.574 169.661L109.02 169.738L107.466 169.661L107.588 167.545L109.02 167.619L110.451 167.545L110.574 169.661Z" fill="black"/>
<path d="M107.344 171.777C106.224 171.761 105.119 171.571 104.012 171.397L104.378 169.31C105.403 169.469 106.427 169.65 107.466 169.661L107.344 171.777Z" fill="black"/>
<path d="M114.028 171.397C112.921 171.57 111.815 171.76 110.695 171.776L110.573 169.661C111.613 169.649 112.636 169.468 113.662 169.31L114.028 171.397Z" fill="black"/>
<path d="M132.582 160.103C132.111 160.703 131.7 161.352 131.173 161.904L129.633 163.595L127.942 165.135C127.39 165.663 126.741 166.074 126.141 166.544C123.668 168.319 120.942 169.776 118.025 170.701C115.111 171.622 112.067 172.092 109.02 172.134C105.972 172.093 102.929 171.623 100.014 170.702" stroke="black" stroke-width="0.880592" stroke-miterlimit="10"/>
<path d="M126.876 155.952C126.514 156.402 126.218 156.906 125.81 157.319L124.643 158.606L123.357 159.772C122.944 160.18 122.44 160.477 121.989 160.839C120.111 162.181 118.053 163.295 115.846 163.99C113.64 164.681 111.341 165.036 109.02 165.079C106.699 165.036 104.399 164.681 102.193 163.991" stroke="black" stroke-width="0.880592" stroke-miterlimit="10"/>
<path d="M95.7333 163.707C95.3139 163.476 94.9359 163.183 94.5553 162.894L93.4069 162.037L94.7509 160.399L95.8021 161.181C96.1495 161.445 96.4941 161.715 96.8784 161.925L95.7333 163.707Z" fill="black"/>
<path d="M93.4424 167.273C92.9542 166.997 92.5084 166.658 92.0616 166.321L90.7186 165.314L92.063 163.676L93.3084 164.608C93.7224 164.921 94.134 165.236 94.5881 165.49L93.4424 167.273Z" fill="black"/>
<path d="M97.301 167.009C96.3468 166.594 95.4747 166.029 94.588 165.49L95.7332 163.708C96.5506 164.201 97.3516 164.726 98.2314 165.105L97.301 167.009Z" fill="black"/>
<path d="M92.063 163.676C91.298 162.977 90.4938 162.315 89.7863 161.558L91.3103 160.085C91.9613 160.784 92.7053 161.39 93.4069 162.037L92.063 163.676Z" fill="black"/>
<path d="M85.2101 149.216C85.0971 148.753 84.9594 148.294 84.865 147.827L84.6494 146.41L86.7483 146.118L86.9429 147.412C87.0296 147.839 87.1581 148.257 87.2607 148.681L85.2101 149.216Z" fill="black"/>
<path d="M87.2703 154.547L86.6489 153.256L86.3371 152.611L86.0882 151.94L88.0617 151.168L88.2874 151.782L88.5741 152.37L89.1403 153.55L87.2703 154.547Z" fill="black"/>
<path d="M84.1143 152.711C83.7519 151.739 83.3808 150.769 83.1602 149.752L85.2102 149.216C85.4099 150.153 85.7559 151.044 86.0883 151.94L84.1143 152.711Z" fill="black"/>
<path d="M81.1096 150.287C80.9755 149.743 80.8192 149.204 80.7084 148.655L80.4517 146.996L82.5506 146.703L82.7867 148.241C82.8893 148.749 83.0366 149.248 83.1601 149.752L81.1096 150.287Z" fill="black"/>
<path d="M83.5299 156.54L82.7986 155.027L82.4367 154.269L82.1408 153.483L84.1143 152.711L84.3869 153.44L84.7238 154.142L85.3999 155.544L83.5299 156.54Z" fill="black"/>
<path d="M100.014 170.702C97.0977 169.778 94.372 168.321 91.8984 166.546C91.2989 166.076 90.6497 165.664 90.0977 165.137L88.4064 163.597L86.8659 161.906C86.3389 161.354 85.9277 160.705 85.4573 160.106C83.6821 157.632 82.2251 154.906 81.3001 151.99C80.3788 149.075 79.9088 146.032 79.8668 142.984" stroke="black" stroke-width="0.880592" stroke-miterlimit="10"/>
<path d="M102.193 163.991C99.9861 163.296 97.9279 162.182 96.0496 160.84C95.5992 160.478 95.095 160.182 94.682 159.774L93.3955 158.607L92.2289 157.321C91.8213 156.908 91.5241 156.404 91.1621 155.954C89.8205 154.075 88.7059 152.017 88.0111 149.81C87.3204 147.605 86.9653 145.305 86.9229 142.984" stroke="black" stroke-width="0.880592" stroke-miterlimit="10"/>
<path d="M119.619 133.706C116.079 133.706 112.54 133.706 109 133.706C111.025 135.963 113.05 138.22 115.075 140.477L119.619 133.706Z" fill="#FF5450" stroke="black" stroke-width="0.645239" stroke-linecap="round" stroke-linejoin="round"/>
<path d="M98.3807 133.706C97.0388 135.963 95.697 138.22 94.3551 140.477L102.925 140.477C101.41 138.22 99.8955 135.963 98.3807 133.706Z" fill="#FF5450" stroke="black" stroke-width="0.645239" stroke-linecap="round" stroke-linejoin="round"/>
<path d="M102.925 140.477C104.95 138.22 106.975 135.963 109 133.706C105.46 133.706 101.921 133.706 98.3808 133.706C99.8956 135.963 101.41 138.22 102.925 140.477Z" fill="#FF5450" stroke="black" stroke-width="0.645239" stroke-linecap="round" stroke-linejoin="round"/>
<path d="M119.619 133.706L115.075 140.477C115.075 140.478 115.075 140.478 115.074 140.478L123.643 140.479C123.643 140.478 123.644 140.478 123.645 140.477C122.303 138.22 120.961 135.963 119.619 133.706Z" fill="#FF5450" stroke="black" stroke-width="0.645239" stroke-linecap="round" stroke-linejoin="round"/>
<path d="M102.925 140.478L94.3551 140.477C99.2367 146.157 104.118 151.837 109 157.517C106.975 151.837 104.95 146.157 102.925 140.478Z" fill="#FF5450" stroke="black" stroke-width="0.645239" stroke-linecap="round" stroke-linejoin="round"/>
<path d="M109 157.517C113.881 151.838 118.762 146.159 123.642 140.48L115.074 140.479C113.049 146.158 111.025 151.837 109 157.517Z" fill="#FF5450" stroke="black" stroke-width="0.645239" stroke-linecap="round" stroke-linejoin="round"/>
<path d="M102.925 140.479C104.95 146.158 106.975 151.838 109 157.518C111.025 151.838 113.049 146.159 115.074 140.48L102.925 140.479Z" fill="#FF5450" stroke="black" stroke-width="0.645239" stroke-linecap="round" stroke-linejoin="round"/>
<path d="M115.074 140.478C115.074 140.478 115.074 140.478 115.075 140.477C113.05 138.22 111.025 135.963 109 133.706C106.975 135.963 104.95 138.22 102.925 140.477L115.074 140.478Z" fill="#FF5450" stroke="black" stroke-width="0.645239" stroke-linecap="round" stroke-linejoin="round"/>
</svg>
