<svg width="192" height="192" viewBox="0 0 192 192" fill="none" xmlns="http://www.w3.org/2000/svg">
<rect width="192" height="192" fill="#0B374D"/>
<path fill-rule="evenodd" clip-rule="evenodd" d="M69.5451 24C63.4018 24 57.4363 25.2203 51.8132 27.6273C46.3886 29.9494 41.5187 33.2712 37.34 37.5007C33.1608 41.7298 29.8786 46.6583 27.5841 52.1484C25.2058 57.8392 24 63.8766 24 70.0939V121.906C24 128.123 25.2058 134.161 27.5841 139.852C29.8786 145.342 33.1608 150.27 37.34 154.499C41.5187 158.729 46.3886 162.051 51.8132 164.373C57.4363 166.78 63.4018 168 69.5451 168H120.74C126.884 168 132.85 166.78 138.472 164.373C143.897 162.051 148.767 158.729 152.946 154.499C157.125 150.27 160.407 145.342 162.701 139.852C165.08 134.161 166.286 128.123 166.286 121.906V70.0939C166.286 63.8766 165.08 57.8392 162.701 52.1484C160.407 46.6583 157.125 41.7298 152.946 37.5007C148.767 33.2712 143.897 29.9494 138.472 27.6273C132.85 25.2203 126.884 24 120.74 24H69.5451ZM154.408 70.0939V121.906C154.408 140.724 139.335 155.98 120.74 155.98H69.5451C50.9508 155.98 35.8773 140.724 35.8773 121.906V70.0939C35.8773 51.2756 50.9508 36.0204 69.5451 36.0204H120.74C139.335 36.0204 154.408 51.2756 154.408 70.0939ZM78.115 127.795C72.904 124.366 69.0826 119.372 67.3552 113.731C66.4719 110.845 68.3159 107.851 71.4745 107.044C74.6331 106.236 77.9101 107.922 78.7935 110.807C79.8123 114.135 81.9779 116.964 85.0557 118.989C92.459 123.86 102.82 122.32 108.152 115.556C113.483 108.791 111.797 99.3255 104.394 94.4543C103.48 93.8528 102.501 93.3367 101.486 92.92C98.4944 91.6922 97.1589 88.4806 98.5027 85.7473C99.847 83.0135 103.362 81.7933 106.354 83.0215C108.097 83.7367 109.773 84.6209 111.335 85.6483C124.052 94.016 126.949 110.277 117.79 121.897C112.242 128.935 103.525 132.681 94.6866 132.681C88.9334 132.681 83.1295 131.094 78.115 127.795ZM79.4291 106.017C82.1282 107.984 85.1077 109.444 88.2846 110.355C88.8259 110.511 89.3707 110.585 89.9072 110.585C92.4961 110.585 94.8766 108.858 95.6176 106.212C96.5123 103.018 94.6787 99.6956 91.5236 98.7906C89.6791 98.2613 87.9452 97.4111 86.3698 96.2629C78.9665 90.867 77.2806 80.3816 82.6118 72.8887C85.1946 69.2592 89.0194 66.8646 93.3816 66.1465C97.7438 65.428 102.121 66.4719 105.708 69.0859C108.168 70.8792 110.09 73.3092 111.266 76.1146C112.546 79.1702 116.033 80.5961 119.052 79.3006C122.072 78.0043 123.481 74.4764 122.2 71.4204C120.176 66.5904 116.873 62.41 112.649 59.3314C106.487 54.841 98.9675 53.0477 91.4742 54.2817C83.9805 55.5157 77.4103 59.6289 72.9739 65.8644C63.8152 78.7356 66.7108 96.7483 79.4291 106.017Z" fill="#00C4CC"/>
</svg>
