<?xml version="1.0" encoding="utf-8"?>
<!-- Generator: Adobe Illustrator 18.0.0, SVG Export Plug-In . SVG Version: 6.00 Build 0)  -->
<!DOCTYPE svg PUBLIC "-//W3C//DTD SVG 1.1//EN" "http://www.w3.org/Graphics/SVG/1.1/DTD/svg11.dtd">
<svg version="1.1" id="レイヤー_1" xmlns="http://www.w3.org/2000/svg" xmlns:xlink="http://www.w3.org/1999/xlink" x="0px"
	 y="0px" viewBox="0 0 700 30" enable-background="new 0 0 700 30" xml:space="preserve">
<g>
	
		<rect x="105.9" y="12.4" transform="matrix(0.7071 0.7071 -0.7071 0.7071 42.3924 -72.344)" fill="#5B4A40" width="5.2" height="5.2"/>
	
		<rect x="93.3" y="13.2" transform="matrix(0.7071 0.7071 -0.7071 0.7071 38.4816 -62.9026)" fill="#5B4A40" width="3.7" height="3.7"/>
	
		<rect x="80.5" y="13.7" transform="matrix(0.7071 0.7071 -0.7071 0.7071 34.5709 -53.4612)" fill="#5B4A40" width="2.6" height="2.6"/>
	
		<polygon fill="#5B4A40" stroke="#5B4A40" stroke-width="2" stroke-linecap="round" stroke-linejoin="round" stroke-miterlimit="10" points="
		121.9,15 214.8,10.1 221.9,15 	"/>
	
		<polygon fill="none" stroke="#5B4A40" stroke-width="2" stroke-linecap="round" stroke-linejoin="round" stroke-miterlimit="10" points="
		121.9,15 214.8,19.9 221.9,15 	"/>
	
		<rect x="588.9" y="12.4" transform="matrix(-0.7071 0.7071 -0.7071 -0.7071 1020.3202 -392.6317)" fill="#5B4A40" width="5.2" height="5.2"/>
	
		<rect x="603" y="13.2" transform="matrix(-0.7071 0.7071 -0.7071 -0.7071 1043.1138 -402.0732)" fill="#5B4A40" width="3.7" height="3.7"/>
	
		<rect x="616.9" y="13.7" transform="matrix(-0.7071 0.7071 -0.7071 -0.7071 1065.9073 -411.5146)" fill="#5B4A40" width="2.6" height="2.6"/>
	
		<polygon fill="#5B4A40" stroke="#5B4A40" stroke-width="2" stroke-linecap="round" stroke-linejoin="round" stroke-miterlimit="10" points="
		578.1,15 485.2,10.1 478.1,15 	"/>
	
		<polygon fill="none" stroke="#5B4A40" stroke-width="2" stroke-linecap="round" stroke-linejoin="round" stroke-miterlimit="10" points="
		578.1,15 485.2,19.9 478.1,15 	"/>
</g>
</svg>
