<?xml version="1.0" encoding="utf-8"?>
<!-- Generator: Adobe Illustrator 16.0.0, SVG Export Plug-In . SVG Version: 6.00 Build 0)  -->
<!DOCTYPE svg PUBLIC "-//W3C//DTD SVG 1.1//EN" "http://www.w3.org/Graphics/SVG/1.1/DTD/svg11.dtd">
<svg version="1.1" id="レイヤー_1" xmlns="http://www.w3.org/2000/svg" xmlns:xlink="http://www.w3.org/1999/xlink" x="0px"
	 y="0px" width="137.521px" height="54.875px" viewBox="-31.761 24.458 137.521 54.875"
	 enable-background="new -31.761 24.458 137.521 54.875" xml:space="preserve">
<g>
	<polygon fill="#5B4A40" points="105.761,49.458 42,49.458 37,61.208 32,49.458 -31.761,49.458 -31.761,24.458 105.761,24.458 	"/>
	<g>
		<g>
			<path fill="#DDF1F2" d="M-12.455,41.835c-0.457,0.184-1.027,0.277-1.708,0.277c-0.691,0-1.215-0.139-1.57-0.416
				s-0.532-0.768-0.532-1.467c0-0.643-0.052-1.094-0.154-1.352c-0.102-0.258-0.24-0.455-0.416-0.592
				c-0.175-0.137-0.419-0.203-0.729-0.203h-0.847v3.883h-2.994V31.949h5.622c0.75,0,1.393,0.225,1.928,0.672
				c0.564,0.488,0.847,1.092,0.847,1.811c0,0.537-0.173,1.039-0.519,1.512c-0.345,0.473-0.771,0.758-1.277,0.855v0.072
				c0.564,0.166,0.974,0.484,1.227,0.957s0.38,1.01,0.38,1.613c0,0.711,0.106,1.217,0.321,1.52c0.097,0.135,0.238,0.229,0.424,0.275
				L-12.455,41.835L-12.455,41.835z M-18.413,35.849h1.548c0.204,0,0.378-0.07,0.519-0.213c0.141-0.141,0.211-0.314,0.211-0.518
				v-0.146c0-0.203-0.07-0.377-0.211-0.518c-0.141-0.143-0.314-0.213-0.519-0.213h-1.548V35.849z"/>
			<path fill="#DDF1F2" d="M-11.521,38.783v-6.834h3.082v6.791c0,0.32,0.114,0.584,0.344,0.789c0.228,0.203,0.508,0.307,0.839,0.307
				s0.611-0.104,0.84-0.307c0.229-0.205,0.344-0.469,0.344-0.789v-6.791h3.066v6.836c0,1.002-0.36,1.811-1.081,2.424
				c-0.701,0.604-1.654,0.904-2.862,0.904h-0.628c-1.208,0-2.161-0.301-2.862-0.904C-11.16,40.593-11.521,39.787-11.521,38.783z"/>
			<path fill="#DDF1F2" d="M5.024,36.798c1.275,0.281,1.913,1.113,1.913,2.496c0,0.74-0.271,1.371-0.811,1.891
				c-0.54,0.521-1.194,0.783-1.964,0.783h-5.578v-10.02h5.49c0.73,0,1.349,0.24,1.855,0.717c0.516,0.477,0.773,1.057,0.773,1.736
				c0,1.004-0.345,1.695-1.036,2.074c-0.205,0.107-0.419,0.195-0.643,0.264L5.024,36.798L5.024,36.798z M1.403,35.791h1.679
				c0.204,0,0.377-0.07,0.519-0.213c0.141-0.141,0.212-0.312,0.212-0.518v-0.248c0-0.205-0.071-0.377-0.212-0.52
				c-0.142-0.141-0.313-0.211-0.519-0.211H1.403V35.791z M1.403,39.646h1.854c0.204,0,0.377-0.072,0.519-0.213
				c0.141-0.141,0.211-0.314,0.211-0.518v-0.264c0-0.205-0.07-0.377-0.211-0.518c-0.142-0.143-0.314-0.213-0.519-0.213H1.403V39.646
				z"/>
			<path fill="#DDF1F2" d="M7.2,31.949h3.446l1.504,3.287h0.073l1.533-3.287h3.14l-3.314,6.191v3.828h-3.053V38.14L7.2,31.949z"/>
			<path fill="#DDF1F2" d="M17.598,41.968v-10.02h2.979v3.959l2.862-3.959h3.389l-3.053,4.018l3.14,6.002h-3.432l-1.738-3.623
				l-1.168,1.402v2.221H17.598z"/>
			<path fill="#DDF1F2" d="M27.276,41.968l3.344-10.02h3.812l3.344,10.02h-3.183l-0.599-1.783h-3.184l-0.584,1.783H27.276z
				 M31.512,38.068h1.781l-0.847-3.037h-0.073L31.512,38.068z"/>
			<path fill="#DDF1F2" d="M38.229,41.968v-2.162h1.182v-5.711h-1.182v-2.146h5.461v2.146h-1.183v5.711h1.183v2.162H38.229
				L38.229,41.968z"/>
			<path fill="#DDF1F2" d="M53.795,39.865c0,0.818,0.034,1.518,0.103,2.104h-1.635l-0.41-1.066c-0.302,0.34-0.721,0.627-1.256,0.859
				c-0.516,0.234-1.052,0.352-1.605,0.352h-0.146c-1.197,0-2.195-0.428-2.993-1.285c-0.788-0.836-1.184-1.869-1.184-3.096v-1.547
				c0-0.605,0.114-1.174,0.345-1.709c0.229-0.535,0.547-0.998,0.956-1.389c0.886-0.855,2.005-1.285,3.358-1.285h0.408
				c1.11,0,2.06,0.342,2.849,1.023c0.808,0.701,1.212,1.576,1.212,2.629v0.102h-2.833c0-0.516-0.144-0.891-0.432-1.125
				c-0.287-0.232-0.629-0.35-1.028-0.35H49.43c-0.409,0-0.755,0.141-1.037,0.424c-0.282,0.281-0.424,0.629-0.424,1.037v2.816
				c0,0.41,0.142,0.756,0.424,1.037c0.282,0.283,0.628,0.424,1.037,0.424h0.263c0.409,0,0.723-0.131,0.941-0.395
				c0.22-0.262,0.329-0.621,0.329-1.08H49.27v-1.986h4.526L53.795,39.865L53.795,39.865z"/>
			<path fill="#DDF1F2" d="M54.949,41.968v-2.162h1.183v-5.711h-1.183v-2.146h5.461v2.146h-1.183v5.711h1.183v2.162H54.949
				L54.949,41.968z"/>
			<path fill="#DDF1F2" d="M61.447,41.968v-0.527c0-0.555,0.085-1.029,0.255-1.424c0.172-0.395,0.476-0.762,0.913-1.102l2.892-2.279
				c0.526-0.418,0.789-0.93,0.789-1.533c0-0.281-0.101-0.523-0.3-0.723s-0.441-0.299-0.724-0.299h-0.189
				c-0.282,0-0.523,0.098-0.723,0.291c-0.199,0.195-0.3,0.439-0.3,0.73v0.41h-2.57v-0.277c0-0.994,0.321-1.807,0.964-2.439
				c0.69-0.662,1.611-0.994,2.76-0.994h0.453c1.071,0,1.937,0.303,2.6,0.906c0.651,0.604,0.979,1.383,0.979,2.336
				c0,0.508-0.088,0.945-0.263,1.314c-0.322,0.672-0.979,1.354-1.972,2.045l-1.592,1.109h3.84v2.453h-7.812V41.968L61.447,41.968z"
				/>
			<path fill="#DDF1F2" d="M70.427,38.462v-3.008c0-1.014,0.356-1.875,1.066-2.586c0.711-0.709,1.572-1.064,2.585-1.064h0.658
				c1.011,0,1.873,0.355,2.583,1.064c0.711,0.711,1.067,1.572,1.067,2.586v3.008c0,1.012-0.355,1.873-1.067,2.584
				c-0.71,0.711-1.571,1.066-2.583,1.066h-0.658c-1.013,0-1.874-0.355-2.585-1.066C70.783,40.337,70.427,39.474,70.427,38.462z
				 M73.319,38.828c0,0.32,0.104,0.596,0.312,0.824c0.21,0.229,0.47,0.344,0.782,0.344c0.302,0,0.557-0.115,0.767-0.344
				c0.209-0.229,0.313-0.504,0.313-0.824v-3.754c0-0.32-0.104-0.596-0.313-0.824c-0.21-0.229-0.465-0.342-0.767-0.342
				c-0.312,0-0.572,0.113-0.782,0.342c-0.209,0.229-0.312,0.504-0.312,0.824V38.828z"/>
			<path fill="#DDF1F2" d="M79.435,41.968v-2.236h2.22V35.06h-2.22v-1.68c0.954-0.059,2.02-0.398,3.197-1.021
				c0.331-0.186,0.633-0.371,0.906-0.555h0.978v7.928h2.132v2.236H79.435L79.435,41.968z"/>
			<path fill="#DDF1F2" d="M87.142,39.761v-2.176c0.224-0.379,0.512-0.963,0.861-1.752l0.438-1.08
				c0.496-1.197,0.822-2.182,0.979-2.949h2.585c-0.108,0.721-0.502,1.729-1.184,3.021c-0.662,1.256-1.256,2.186-1.781,2.791h2.19
				v-1.49c0.389-0.537,0.817-1.398,1.285-2.586c0.117-0.311,0.199-0.568,0.248-0.773h1.212v4.848h1.431v2.146h-1.431v2.205H91.23
				v-2.205H87.142z"/>
		</g>
	</g>
</g>
</svg>
