<?xml version="1.0" encoding="utf-8"?>
<!-- Generator: Adobe Illustrator 18.0.0, SVG Export Plug-In . SVG Version: 6.00 Build 0)  -->
<!DOCTYPE svg PUBLIC "-//W3C//DTD SVG 1.1//EN" "http://www.w3.org/Graphics/SVG/1.1/DTD/svg11.dtd">
<svg version="1.1" id="レイヤー_1" xmlns="http://www.w3.org/2000/svg" xmlns:xlink="http://www.w3.org/1999/xlink" x="0px"
	 y="0px" viewBox="0 0 1280 1280" enable-background="new 0 0 1280 1280" xml:space="preserve">
<rect x="0" fill="#E9D8BF" width="1280" height="1280"/>
<g>
	<path fill="#5A4A40" d="M368.1,897.5c-0.3-3.7-0.6-7.4-0.8-11.3c-7.7-156.2-73.6-431.8-83.5-472.7c20.6-1.9,98-9,157.3-15
		c100.2-10.1,182.3-49.8,196.4-56.9c14.1,7.1,96.2,46.8,196.4,56.9c59.3,6,136.7,13.1,157.3,15c-9.9,40.9-75.8,316.5-83.5,472.7
		c-0.2,4.6-0.6,9.1-1,13.5c1.2,0.2,2.5,0.4,3.8,0.5l5.2,0.8c0.4-4.7,0.8-9.5,1-14.4c8.2-167.3,83.7-473,84.5-476l1.3-5.1l-5.2-0.5
		c-1-0.1-93.8-8.6-162.4-15.5c-107.8-10.9-194.3-56.5-195.2-57l-2.1-1.1l-2.1,1.1c-0.9,0.4-87.3,46.1-195.2,57
		c-68.6,6.9-161.5,15.4-162.4,15.5l-5.3,0.5l1.3,5.1c0.8,3.1,76.2,308.7,84.5,476c0.2,4.2,0.5,8.2,0.8,12.1l3.5-0.5
		C364.4,898,366.2,897.8,368.1,897.5z"/>
	<path fill="#5A4A40" d="M637.5,1140.6l3.3-3.4c0.4-0.4,38.8-40,84.2-47.3c32.8-5.3,101.3-16.4,147-72.2c0.2-2,0.4-4,0.5-6.1
		c-0.8-0.2-1.6-0.4-2.3-0.6l-3.7-0.2c-42.9,54-108.2,64.5-142.8,70.1c-41.1,6.6-75.5,36.7-86.1,46.8c-10.5-10.1-45-40.1-86.1-46.8
		c-34.3-5.5-98.7-15.9-141.6-68.6l-6.3,0.4c-0.8,0.2-1.7,0.4-2.5,0.7c0,0.7,0.1,1.3,0.2,2c45.7,57.8,115.6,69.1,148.8,74.5
		c45.4,7.3,83.8,46.9,84.2,47.3L637.5,1140.6"/>
	<path fill="#5A4A40" d="M712.5,1034.4c-33.8,5.5-62.8,27.9-75.8,39.5c-13-11.6-42-34-75.8-39.5c-20.3-3.3-52.7-8.5-83-26l-33,1.9
		c39.6,32.3,87.6,40.1,112.8,44.1c38.4,6.2,71.4,40.1,71.7,40.4l7.3,7.6l7.3-7.6c0.3-0.3,33.3-34.2,71.7-40.4
		c25.5-4.1,74.5-12,114.4-45.5l-32.7-1.7C766.6,1025.7,733.2,1031,712.5,1034.4z"/>
	<path fill="#5A4A40" d="M401.7,866.4c-6.5-133-60.1-362.3-73-416c25.2-2.3,85.8-8,133.4-12.8c86.3-8.8,156-40.8,174.6-50
		c18.6,9.2,88.3,41.3,174.6,50c47.5,4.8,108.2,10.4,133.3,12.8c-12.9,53.7-66.4,283-73,416c-0.5,10-1.5,19.4-2.9,28.2
		c6.7,0.9,13.5,1.8,20.2,2.7c1.5-9.4,2.5-19.3,3-29.9c7.3-148.7,74.5-420.9,75.2-423.6l2.9-11.5l-11.8-1.1
		c-0.8-0.1-83.7-7.6-144.9-13.8c-94.9-9.6-171.1-49.7-171.8-50.2l-4.8-2.6l-4.8,2.6c-0.7,0.4-77,40.6-171.8,50.2
		c-61.2,6.2-144.1,13.8-144.9,13.8l-11.8,1.1l2.8,11.5c0.7,2.7,67.9,274.9,75.2,423.6c0.5,9.8,1.4,19.1,2.7,27.9
		c6.7-0.9,13.4-1.8,20.2-2.6C403.1,884.4,402.2,875.7,401.7,866.4z"/>
	<path fill="#5A4A40" d="M501,604.7c-2.3-4.7-3.4-19-3.4-42.8c0-13.9,1.4-24,4.2-30.2c-2.3,0.4-4.4,2.1-6.1,5c-1,1.6-2,3.8-2.8,6.6
		c-0.9,2.8-1.8,6.4-2.6,11c-0.9,4.6-1.8,7.8-2.9,9.7c-1,1.6-3.2,3-6.8,4.2c4.8,1.6,7.7,5.4,8.7,11.2l1.1,5.5
		C492.5,597.1,496.1,603.7,501,604.7z"/>
	<path fill="#5A4A40" d="M526.7,880c14.2-1.1,28.4-2,42.6-2.7l36.7-36.7c0.8-0.8,2-1.3,3.2-1.3h55.1c1.2,0,2.4,0.5,3.2,1.3
		l37.5,37.5c13.9,0.9,27.7,1.9,41.6,3.1c36.6,3.1,73,7.1,109.4,11.7c1.8,0.2,3.6,0.5,5.3,0.7c2.5-11.7,4.2-24.4,4.9-38.4
		c6.7-135.9,68-384.3,68.6-386.8l1.3-5.1l-5.2-0.5c-0.7-0.1-76.3-7-132-12.6c-87.5-8.9-157.6-45.9-158.3-46.2l-2.1-1.1l-2.1,1.1
		c-0.7,0.4-70.8,37.4-158.3,46.2c-55.8,5.6-131.3,12.5-132,12.6l-5.2,0.5l1.3,5.1c0.6,2.5,62,250.9,68.6,386.8c0.6,13,2.1,25,4.4,36
		c0.7-0.1,1.5-0.2,2.2-0.3C453.6,886.7,490.1,882.9,526.7,880z M568.3,790c0,0-1.8,0.1-5,0.4c-1.6,0.1-3.6,0.2-5.8,0.4
		c-2.2,0.1-4.8,0.3-7.5,0.5c-2.8,0.2-5.8,0.3-8.9,0.5c-3.1,0.1-6.5,0.3-9.9,0.5c-3.5,0.2-7,0.4-10.6,0.5c-3.6,0.1-7.3,0.3-11,0.5
		c-3.7,0.2-7.3,0.3-11,0.4c-1.8,0.1-3.6,0.2-5.4,0.2c-1.8,0.1-3.5,0.2-5.3,0.3c-0.4,0-0.8,0.1-1.3,0.1l-0.3,0h-0.1h0h0.1l0,0h-0.2
		l-0.3,0.1c-0.1,0-0.1,0-0.2,0l-0.1,0.1l-0.2,0c-0.1,0-0.2,0.1-0.3,0.1c-0.2,0.1-0.4,0.2-0.6,0.3c-0.8,0.5-1.5,1-2,1.6
		c-1.1,1.2-1.9,2.4-2.3,3.9c-0.4,1.5-0.4,3.1,0.1,4.6c0.4,1.5,1.3,2.8,2.2,3.8c0.9,1,1.9,1.7,2.6,2.1c0.4,0.2,0.7,0.4,0.9,0.5
		c0.2,0.1,0.3,0.1,0.3,0.1v1.1c0,0-0.1,0.1-0.4,0.1c-0.2,0.1-0.6,0.2-1.1,0.4c-1,0.2-2.5,0.5-4.5,0.1c-2-0.4-4.4-1.4-6.5-3.7
		c-1.1-1.1-2-2.5-2.8-4.1c-0.3-0.8-0.6-1.7-0.8-2.7l-0.1-0.3l-0.1-0.4c-0.1-0.2-0.1-0.5-0.1-0.7l0-0.2l0-0.1c0,0,0-0.3,0-0.2v-0.1
		v-0.1c0-0.2,0-0.5,0-0.8c-0.1-1.9,0.3-4,1.1-6c-1.9,1.3-3.9,2.4-5.4,2.4c-3.7,0-6.7-3-6.7-6.7s3-6.7,6.7-6.7c1.5,0,3.5,1.1,5.4,2.4
		c-0.8-2-1.1-4.1-1.1-6c0-0.3,0-0.5,0-0.8v-0.1v-0.1c0,0.1,0-0.2,0-0.2l0-0.1l0-0.3c0-0.2,0.1-0.5,0.1-0.7l0.1-0.4l0.1-0.3
		c0.2-0.9,0.5-1.8,0.8-2.6c0.7-1.6,1.7-3,2.8-4.1c2.1-2.2,4.6-3.3,6.5-3.7c2-0.4,3.6-0.2,4.5,0.1c0.5,0.1,0.8,0.3,1.1,0.4
		c0.2,0.1,0.4,0.1,0.4,0.1v1.1c0,0-0.1,0-0.3,0.2c-0.2,0.1-0.5,0.3-0.9,0.5c-0.7,0.4-1.7,1.1-2.6,2.1c-0.9,1-1.8,2.3-2.2,3.8
		c-0.5,1.5-0.5,3.1-0.1,4.5c0.4,1.5,1.2,2.8,2.3,3.9c0.6,0.6,1.2,1.2,2,1.6c0.2,0.1,0.4,0.2,0.6,0.3c0.1,0.1,0.2,0.1,0.3,0.1l0.2,0
		l0.1,0c0.1,0,0.1,0,0.2,0.1l0.3,0l0.2,0h0h-0.1h0h0.1l0.3,0c0.4,0.1,0.9,0.1,1.3,0.1c1.7,0.1,3.5,0.2,5.3,0.3
		c1.8,0.1,3.6,0.2,5.4,0.2c3.6,0.1,7.3,0.3,11,0.4c3.7,0.1,7.3,0.3,11,0.5c3.6,0.2,7.2,0.4,10.6,0.5c3.4,0.2,6.8,0.4,9.9,0.5
		c3.2,0.2,6.2,0.3,8.9,0.5c2.8,0.2,5.3,0.3,7.5,0.4c2.2,0.2,4.2,0.3,5.8,0.4c3.2,0.2,5,0.3,5,0.3V790z M631.1,766l-3.1,3.2
		l-7.7,18.1l8.7,22l2.1,3.2v2.1H629h-6.4v-2.1h1.1l1-1v-1.1l-6.8-17.5l-6.9,16.4l2.1,3.2v2.1h-7.4v-2.1h1l1.1-1l9-21.2l-9-23.2
		l-1.1-1h-1v-2.1h7.4h2.1v2.1l-2.1,3.2l6.2,15.6l7.5-17.7l-1-1h-1.1v-2.1h2.1h2.2h2.1V766z M674.4,766l-2.6,3.2l-8.9,45.3h-2.2h-3.1
		L646.9,767l-1.1-1.1h-1v-2.1h7.4h2.1v2.1l-2.1,3.2l9.3,40.5l8.6-42.6l-1-1.1H668v-2.1h2.1h2.1h2.2V766z M811.3,796.2
		c-1.5,0-3.5-1.1-5.4-2.4c0.8,2,1.1,4.1,1.1,6c0,0.3,0,0.5,0,0.8v0.1l0,0.1c0-0.1,0,0.2,0,0.2v0.1l-0.1,0.2c0,0.2-0.1,0.5-0.1,0.7
		l-0.1,0.4l-0.1,0.3c-0.2,1-0.5,1.8-0.8,2.7c-0.7,1.6-1.7,3-2.8,4.1c-2.1,2.2-4.6,3.3-6.5,3.7c-2,0.4-3.5,0.2-4.5-0.1
		c-0.5-0.1-0.8-0.3-1.1-0.4c-0.2-0.1-0.4-0.1-0.4-0.1v-1.1c0,0,0.1,0,0.3-0.1c0.2-0.1,0.5-0.3,0.9-0.5c0.7-0.4,1.7-1.1,2.7-2.1
		c0.9-1,1.7-2.3,2.2-3.8c0.5-1.5,0.5-3,0.1-4.6c-0.4-1.5-1.2-2.7-2.3-3.9c-0.5-0.6-1.2-1.1-2-1.6c-0.2-0.1-0.4-0.2-0.6-0.3
		c-0.1,0-0.2-0.1-0.3-0.1l-0.2,0l-0.1-0.1c0,0,0,0-0.2,0l-0.3-0.1h-0.2l-0.1,0c0,0,0,0,0.1,0h0h-0.1l-0.3,0c-0.4,0-0.9-0.1-1.3-0.1
		c-1.7-0.1-3.5-0.2-5.2-0.3c-1.8-0.1-3.6-0.1-5.4-0.2c-3.6-0.1-7.3-0.3-11-0.4s-7.3-0.3-11-0.5c-3.6-0.2-7.2-0.4-10.6-0.5
		c-3.4-0.2-6.8-0.4-9.9-0.5c-3.1-0.2-6.1-0.4-8.9-0.5c-2.8-0.2-5.3-0.3-7.5-0.5c-2.2-0.1-4.2-0.3-5.8-0.4c-3.2-0.2-5.1-0.4-5.1-0.4
		V789c0,0,1.8-0.1,5.1-0.3c1.6-0.1,3.6-0.2,5.8-0.4c2.2-0.1,4.8-0.3,7.5-0.4c2.8-0.1,5.7-0.3,8.9-0.5c3.2-0.2,6.5-0.4,9.9-0.5
		c3.5-0.2,7-0.3,10.6-0.5c3.6-0.2,7.3-0.4,11-0.5c3.7-0.1,7.4-0.3,11-0.4c1.8-0.1,3.6-0.2,5.4-0.2c1.8-0.1,3.5-0.2,5.2-0.3
		c0.4,0,0.9,0,1.3-0.1l0.3,0h0.1h0h-0.1h0.1l0.2,0l0.3,0c0.1,0,0.1,0,0.2-0.1l0.1,0l0.2,0c0.1,0,0.2-0.1,0.3-0.1
		c0.2-0.1,0.4-0.2,0.6-0.3c0.8-0.4,1.5-1,2-1.6c1.1-1.2,1.9-2.4,2.3-3.9c0.4-1.5,0.4-3.1-0.1-4.5c-0.5-1.5-1.3-2.8-2.2-3.8
		c-0.9-1-1.9-1.7-2.7-2.1c-0.4-0.2-0.7-0.4-0.9-0.5c-0.2-0.1-0.3-0.2-0.3-0.2v-1.1c0,0,0.1-0.1,0.4-0.2c0.3-0.1,0.6-0.2,1.1-0.3
		c1-0.2,2.5-0.4,4.5-0.1c2,0.4,4.4,1.4,6.5,3.7c1.1,1.1,2,2.5,2.8,4.1c0.4,0.8,0.7,1.7,0.8,2.6l0.1,0.3l0.1,0.4
		c0,0.3,0.1,0.5,0.1,0.7l0.1,0.3v0.1c0,0,0,0.3,0,0.1l0,0.1v0.1c0,0.3,0,0.5,0,0.8c0,1.9-0.3,4-1.1,6c1.9-1.3,4-2.4,5.4-2.4
		c3.7,0,6.7,3,6.7,6.7S815.1,796.2,811.3,796.2z M657.6,611.2l-5.9-3.1c8-3.7,13-7.7,15-12c1-2,1.5-4.4,1.5-7.3v-57
		c-3.1-6.9-8.6-10.4-16.6-10.4c-3,0-5.6,0.8-7.6,2.3c-1-1.3-1.5-2.9-1.5-4.7c0-1.8,0.5-3.4,1.5-4.9c1-1.5,2.5-2.8,4.3-3.9
		c4.1-2.5,8.8-3.8,14.1-3.8c5.3,0,10.2,1.4,14.8,4.3c4-2.9,8.9-4.3,14.7-4.3c5.7,0,10.8,1.4,15.2,4.3c4.2-2.9,9-4.3,14.2-4.3
		c7.7,0,13.2,2.6,16.5,7.7c1,1.6,1.5,3.3,1.5,5.1c0,1.8-0.5,3.3-1.6,4.5c-2-1.5-4.4-2.3-7.4-2.3c-6.9,0-11.5,3.4-13.9,10.1v69.4
		l62.1-73.6c0-4.1-2.2-6.1-6.8-6.1c-4.5,0-8.2,0.9-11.2,2.6c-1-1.6-1.5-3.7-1.5-6.3c0-2.6,1.3-5.1,4-7.5c2.7-2.4,6.4-3.6,11.3-3.6
		c4.8,0,8.8,1.2,12,3.5c3.2-2.3,6.7-3.5,10.6-3.5c3.9,0,7.3,1.2,10.4,3.6c3.1-2.4,6.2-3.6,9.3-3.6c3.2,0,5.7,0.3,7.5,0.9
		c1.8,0.6,3.4,1.4,4.8,2.3c3.1,2.4,4.7,5,4.7,7.9c0,2.9-0.5,5-1.4,6.3c-1.9-0.6-4.1-0.9-6.5-0.9c-4.9,0-8.6,0.5-10.9,1.5
		c-2.3,1-4.5,2.1-6.6,3.4c-2.1,1.3-4.3,2.7-6.4,4.3l-6.2,4.6c-2.1,1.6-3.7,3.1-5,4.4l-30.9,36.3l56.8,103.5
		c7,12.6,12.7,19.8,16.9,21.6c1.5,0.6,3.5,1,5.9,1c2.5,0,4.7-0.8,6.6-2.3c1,1.3,1.5,2.9,1.5,4.7c0,1.8-0.5,3.4-1.5,4.9
		c-1,1.5-2.3,2.8-3.9,3.9c-3.7,2.5-8.4,3.8-14.1,3.8c-5.7,0-10.8-1.5-15.4-4.3c-4.6,2.9-9.8,4.3-15.7,4.3c-5.9,0-11.1-1.5-15.7-4.3
		c-4.6,2.9-9.6,4.3-15.1,4.3c-5.4,0-9.7-1.3-12.7-3.7c-3-2.5-4.5-5.4-4.5-8.9c0-1.8,0.5-3.4,1.5-4.7c2,1.5,4.5,2.3,7.6,2.3
		c5.7,0,9.8-2.2,12.6-6.6l-41.7-83.5l-12.6,14.7v65.2c2.3,6.8,7,10.1,13.9,10.1c3,0,5.5-0.8,7.4-2.3c1.1,1.2,1.6,2.7,1.6,4.5
		c0,1.8-0.5,3.5-1.6,5.1c-1,1.6-2.4,3-4,4.2c-3.4,2.3-7.6,3.5-12.4,3.5c-5.1,0-9.9-1.4-14.2-4.2c-4.5,2.8-9.6,4.2-15.3,4.2
		c-5.7,0-10.5-1.5-14.6-4.3c-4.6,2.9-8.8,4.3-12.7,4.3c-3.9,0-7.1-0.3-9.6-1c-2.5-0.7-4.7-1.6-6.6-2.8c-3.9-2.3-5.8-5.3-5.8-8.8
		c0-1.8,0.5-3.4,1.5-4.7c2,1.5,4.5,2.3,7.6,2.3c8,0,13.6-3.4,16.6-10.3v-66C668.1,620.1,664.6,614.8,657.6,611.2z M642.7,763.9v2.2
		l-2,3.1v6.4v9.1v5.6v5.3v13.7l2,3.1v2.2h-9.5v-2.2h1.1l1.1-2V767l-1.1-1h-1.1v-2.2H642.7z M434.2,701.2c2,1.5,4.5,2.3,7.4,2.3
		c3,0,5.7-0.6,8.2-1.8c8.4-3.8,12.6-12.2,12.6-25.1v-13.5c0-10.6,3-19.9,8.9-27.7c5.8-7.6,13.2-12.6,22.3-15
		c-17.6-4.4-28.7-15.5-33.1-33.4c-2.2-8.7-6.8-15-13.8-18.9c7.4-3.4,11.7-8.5,12.8-15.1c3-14.9,10.5-26.6,22.7-35
		c6-4.1,13.2-7.3,21.6-9.6c8.4-2.3,18.8-3.4,31.1-3.4c12.4,0,23.7,1.9,33.8,5.8c4.7-3,9.9-4.5,15.7-4.5c5.8,0,11,1.5,15.7,4.5
		c4.5-3,9.4-4.5,14.8-4.5c5.3,0,10.1,1.3,14.2,3.8c1.8,1.1,3.2,2.4,4.3,3.9c1,1.5,1.6,3.2,1.6,4.9c0,1.7-0.5,3.3-1.5,4.7
		c-2-1.5-4.5-2.3-7.6-2.3c-8,0-13.6,3.5-16.6,10.4v57c0,4.4,1.5,8.4,4.6,11.9c1.8,2.1,5.8,4.6,11.9,7.4c-6.6,3.2-11.2,6.5-13.9,9.8
		c-1.7,2-2.6,5.1-2.6,9.2v66c3.1,6.8,8.6,10.3,16.6,10.3c3,0,5.6-0.8,7.6-2.3c1,1.3,1.5,2.9,1.5,4.7c0,3.5-1.9,6.4-5.8,8.8
		c-1.9,1.2-4.1,2.1-6.6,2.8c-2.5,0.7-5.7,1-9.7,1c-3.9,0-8.2-1.5-12.8-4.3c-4.6,2.9-9.8,4.3-15.7,4.3c-5.9,0-11.1-1.5-15.7-4.3
		c-4.4,2.9-9.5,4.3-15.1,4.3c-5.7,0-9.9-1.3-12.8-3.7c-2.9-2.5-4.3-5-4.3-7.6c0-2.6,0.5-4.6,1.5-5.9c2,1.5,4.5,2.3,7.6,2.3
		c6.8,0,11.5-3.2,13.9-9.6v-65.8h-15.8c-5.3,0-9.9,1-13.9,3.1c-11.9,6.2-17.8,19.7-17.8,40.5v10c0,12.9-2.1,22.4-6.4,28.6
		c-2,2.9-4.2,5-6.8,6.2c-2.6,1.3-5.3,1.9-8,1.9c-2.8,0-5.4-0.8-8-2.3c-6.6,3.3-13.6,2.9-21.2-1.2c-4.2,2.3-8.4,3.5-12.7,3.5
		c-4.3,0-8.1-1.3-11.4-3.8c-1.5-1.1-2.7-2.4-3.6-3.9c-0.9-1.6-1.3-3.2-1.3-4.9C432.7,704.1,433.2,702.5,434.2,701.2z"/>
	<path fill="#5A4A40" d="M524,609c2.8,0.8,7.6,1.2,14.5,1.2c6.9,0,12.1-0.8,15.6-2.3c3.7-1.6,5.5-4.8,5.5-9.4v-55.2
		c0-13.4-8.6-20.1-25.9-20.1c-3.1,0-6,0.5-8.8,1.5c-9.4,3.2-14,10.4-14,21.6v39.4c0,9.1,2,15.6,6,19.4
		C518.9,606.9,521.3,608.2,524,609z"/>
	<path fill="#5A4A40" d="M695.1,1002.2c-2.1-0.1-4.2-0.2-6.3-0.3l-21.3,21.3c-0.9,0.8-2,1.3-3.2,1.3h-55.1c-1.2,0-2.4-0.5-3.2-1.3
		l-20.9-20.9c-2.2,0.1-4.4,0.2-6.6,0.3l-58.4,3.2l-10.7,0.6c22.6,9,44.1,12.5,57.9,14.7c36.6,5.9,67.7,37.9,68,38.2l3.3,3.4l3.3-3.4
		c0.3-0.3,31.3-32.2,68-38.2c14.1-2.3,36.3-5.9,59.7-15.4l-15.9-0.8L695.1,1002.2z"/>
	<path fill="#5A4A40" d="M679.2,615c1.1,4.3,1.6,20.1,1.6,47.4v17.6c4.5-1.7,7-7.6,7.4-17.7c0.5-10.1,0.8-24,0.8-41.9
		c0-17.8,0-29.7-0.1-35.6c-0.1-5.9-0.1-10.6-0.2-14.2c-0.3-10.6-1.3-17.1-3-19.3c-1.8-2.2-3.4-3.7-4.9-4.4c0,31.3-0.6,49.2-1.6,53.5
		c-1.3,3.6-4.3,6.2-9.2,7.7C675.4,610,678.5,612.3,679.2,615z"/>
	<path fill="#5A4A40" d="M777.6,673.6c0-6.1-2.1-13.1-6.3-21l-26.4-54l-6.1,6.3l37.1,75C777.1,678.5,777.6,676.4,777.6,673.6z"/>
	<path fill="#5A4A40" d="M596.4,679.9v-17.6c0-27.3,0.5-43.1,1.6-47.4c0.7-2.7,3.8-5,9.2-6.9c-4.9-1.5-7.9-4.1-9.2-7.7
		c-1.1-4.3-1.6-22.1-1.6-53.5c-1.5,0.7-3.2,2.2-4.9,4.4c-1.8,2.2-2.8,8.6-3,19.3c-0.1,3.6-0.2,8.3-0.2,14.2c0,5.9-0.1,17.8-0.1,35.6
		c0,17.8,0.3,31.8,0.8,41.9C589.4,672.4,591.9,678.2,596.4,679.9z"/>
	<path fill="#5A4A40" d="M488.9,699.5c5.9-1,8.9-9,8.9-23.9v-17.8c0-5.9,1.8-10.8,5.4-14.9c-4-0.7-7.8,1.4-11.2,6.5c-2,3-3,8-3,15.1
		v18.9c0,5.6-1.6,10.9-4.9,15.9C485.7,699.8,487.2,699.8,488.9,699.5z"/>
	<path fill="#5A4A40" d="M958.4,798.1l-2.1-1.7l-1.7,1.7c-4.8,5-8.5,10.5-11.5,16.6c-2.9,6-4.8,12.8-4.7,19.5
		c0.2,6.9,2.4,13.4,5.6,19.1c3.2,5.8,7.2,11,12,15.4l0.2,0.2l0.3-0.2c5.3-4,9.8-9,13.3-14.8c3.5-5.7,5.9-12.6,6.2-19.5
		c0.2-7.3-1.8-14.2-5-20.3C967.8,808,963.6,802.7,958.4,798.1z M969.2,834.3c0.2,5.9-1.3,11.8-3.7,17.6c-2.4,5.6-5.5,11-9.3,16.1
		c-4.2-4.6-7.8-9.9-10.4-15.5c-2.7-5.7-4.3-12-4-18.1c0.2-6.2,2.3-12.2,5.2-17.6c2.5-4.5,5.7-8.8,9.2-12.5c-0.5-0.7-1.1-1.4-1.7-2.1
		h3.7c-0.7,0.7-1.4,1.4-2.1,2.1c3.2,4.1,6.1,8.6,8.3,13.2C967.3,822.8,969.1,828.6,969.2,834.3z"/>
	<path fill="#5A4A40" d="M954.6,802.1c0.6,0.7,1.1,1.4,1.7,2.1c0.7-0.7,1.4-1.4,2.1-2.1H954.6z"/>
	<path fill="#5A4A40" d="M1031.3,878.8V875c-0.7,0.6-1.4,1.1-2.1,1.7C1029.9,877.4,1030.7,878,1031.3,878.8z"/>
	<path fill="#5A4A40" d="M1018.6,863.6c-6.1-2.9-12.8-4.7-19.6-4.5c-6.8,0.3-13.3,2.6-19,5.8c-5.7,3.2-10.9,7.3-15.4,12l-0.2,0.2
		l0.2,0.3c4,5.3,9,9.7,14.8,13.2c5.8,3.5,12.6,5.8,19.7,6c7.2,0.1,14.1-1.9,20.2-5.2c6.1-3.2,11.4-7.4,16-12.7l1.8-2.1l-1.8-1.7
		C1030.2,870.2,1024.7,866.5,1018.6,863.6z M1031.3,878.8c-0.6-0.7-1.4-1.4-2.1-2.1c-4.1,3.2-8.6,6.1-13.1,8.4
		c-5.4,2.7-11.1,4.6-17,4.7c-5.8,0.3-11.8-1.2-17.5-3.5c-5.6-2.4-11.1-5.5-16.1-9.2c4.6-4.3,9.9-7.8,15.5-10.4
		c5.7-2.7,12-4.4,18.1-4.2c6.1,0.1,12.2,2.1,17.6,5c4.6,2.5,8.8,5.7,12.5,9.1c0.7-0.5,1.5-1.1,2.1-1.7V878.8z"/>
	<path fill="#5A4A40" d="M990.7,765c0.7,0.6,1.3,1.2,2,1.8c0.6-0.8,1.1-1.7,1.7-2.4L990.7,765z"/>
	<path fill="#5A4A40" d="M993.7,760.5l-2.3-1.4l-1.3,2c-3.8,5.8-6.6,11.8-8.4,18.3c-1.8,6.4-2.5,13.4-1.2,20
		c1.4,6.8,4.7,12.7,8.8,17.9c4.2,5.1,9.1,9.5,14.5,13.1l0.2,0.2l0.2-0.2c4.5-4.8,8.1-10.5,10.5-16.9c2.5-6.2,3.7-13.4,2.7-20.3
		c-1.1-7.2-4.2-13.7-8.4-19.1C1004.7,768.5,999.7,764,993.7,760.5z M1010.1,812.1c-1.4,5.9-3.5,11.8-6.3,17.5
		c-5-3.8-9.4-8.4-12.9-13.5c-3.6-5.2-6.3-11.1-7-17.1c-0.9-6.2,0.1-12.4,2.1-18.3c1.7-4.9,4.1-9.6,6.9-13.9c-0.7-0.6-1.3-1.2-2-1.8
		l3.7-0.6c-0.6,0.8-1.1,1.6-1.7,2.4c3.9,3.5,7.5,7.4,10.5,11.5c3.5,4.9,6.3,10.3,7.4,15.8C1011.9,800,1011.4,806,1010.1,812.1z"/>
	<path fill="#5A4A40" d="M1078.9,823.5c-0.6,0.7-1.2,1.3-1.8,2c0.8,0.5,1.7,1.1,2.4,1.7L1078.9,823.5z"/>
	<path fill="#5A4A40" d="M1064.4,814.4c-6.5-1.8-13.4-2.4-20.1-1c-6.7,1.5-12.6,4.8-17.8,9c-5.1,4.2-9.5,9.1-13,14.5l-0.2,0.2
		l0.2,0.2c4.8,4.5,10.5,8.1,16.9,10.5c6.3,2.4,13.4,3.5,20.5,2.5c7.1-1.1,13.5-4.4,18.9-8.6c5.5-4.2,9.9-9.3,13.5-15.3l1.4-2.3
		l-2-1.3C1077,819,1070.9,816.3,1064.4,814.4z M1065.6,836.1c-4.9,3.6-10.2,6.4-15.8,7.6c-5.7,1.3-11.8,0.9-17.9-0.4
		c-5.9-1.4-11.8-3.5-17.5-6.3c3.8-5,8.4-9.4,13.5-13c5.2-3.6,11-6.3,17.1-7.2c6.1-0.9,12.3-0.1,18.2,1.9c4.9,1.6,9.7,4,13.9,6.8
		c0.6-0.7,1.2-1.3,1.8-2l0.6,3.7c-0.8-0.6-1.6-1.1-2.4-1.7C1073.6,829.3,1069.7,833,1065.6,836.1z"/>
	<path fill="#5A4A40" d="M1018.2,768.7c4.9,4.3,10.5,7.8,16.5,10.4l0.3,0.1l0.2-0.3c3.6-5.5,6.1-11.8,7.4-18.4
		c1.3-6.6,1.3-13.8-0.9-20.5c-2.3-6.9-6.5-12.7-11.6-17.4c-5.1-4.7-10.8-8.2-17.4-10.7l-2.5-0.9l-1,2.2c-2.8,6.3-4.4,12.8-5.1,19.5
		c-0.6,6.6-0.1,13.7,2.3,19.9C1008.9,759,1013.2,764.3,1018.2,768.7z M1008.5,733.2c0.8-5.1,2.4-10.2,4.4-14.9
		c-0.7-0.5-1.5-1-2.3-1.4l3.5-1.3c-0.4,0.9-0.8,1.8-1.2,2.7c4.4,2.7,8.7,6,12.3,9.5c4.3,4.2,8,9.1,10.1,14.3
		c2.2,5.5,2.8,11.6,2.5,17.8c-0.3,6.1-1.4,12.3-3.2,18.3c-5.6-2.9-10.7-6.6-15.1-11.1c-4.4-4.5-8.1-9.9-9.9-15.6
		C1007.7,745.6,1007.6,739.3,1008.5,733.2z"/>
	<path fill="#5A4A40" d="M1010.6,716.8c0.7,0.4,1.5,0.9,2.3,1.4c0.4-0.9,0.8-1.8,1.2-2.7L1010.6,716.8z"/>
	<path fill="#5A4A40" d="M1107.6,759.1c-0.4,0.8-0.9,1.5-1.4,2.3c0.9,0.4,1.8,0.8,2.7,1.2L1107.6,759.1z"/>
	<path fill="#5A4A40" d="M1091.7,752.7c-6.7-0.6-13.6,0-19.9,2.5c-6.3,2.6-11.6,6.9-15.9,11.9c-4.3,5-7.8,10.6-10.3,16.6l-0.1,0.3
		l0.3,0.2c5.5,3.6,11.8,6.1,18.4,7.4c6.6,1.3,13.8,1.2,20.6-1.1c6.8-2.4,12.6-6.7,17.2-11.8c4.6-5.1,8.2-10.9,10.6-17.4l1-2.5
		l-2.2-1C1104.9,755.1,1098.5,753.4,1091.7,752.7z M1096.7,773.8c-4.2,4.4-8.9,8.1-14.3,10.3c-5.4,2.2-11.5,3-17.6,2.7
		c-6.1-0.3-12.3-1.4-18.3-3.2c2.9-5.5,6.6-10.7,11-15.1c4.5-4.5,9.7-8.2,15.6-10.1c5.8-2,12.1-2.2,18.3-1.3
		c5.1,0.8,10.2,2.3,14.9,4.3c0.5-0.8,1-1.5,1.4-2.3l1.3,3.5c-0.9-0.4-1.8-0.8-2.7-1.2C1103.4,765.8,1100.2,770.1,1096.7,773.8z"/>
	<path fill="#5A4A40" d="M1032.7,667.9l-3.2,1.9c0.8,0.3,1.7,0.7,2.5,1.1C1032.2,669.9,1032.4,668.9,1032.7,667.9z"/>
	<path fill="#5A4A40" d="M1031.2,701c3.2,5.2,7.7,9.1,12.6,12.1c4.9,3,10.3,5.1,15.9,6.3l0.3,0l0.1-0.3c2.4-5.3,3.7-11.1,3.9-17
		c0.2-5.9-0.9-12.2-3.8-17.7c-3.1-5.7-7.6-10.1-12.8-13.4c-5.2-3.3-10.7-5.5-16.7-6.5l-2.7-0.5l-0.6,2.3c-1.5,5.9-1.9,11.7-1.4,17.6
		C1026.6,689.9,1028.1,695.9,1031.2,701z M1032.7,667.9c-0.3,0.9-0.5,1.9-0.7,2.9c4,1.7,8,3.8,11.6,6.2c4.3,2.9,8.2,6.5,10.7,10.6
		c2.8,4.4,4.2,9.4,5,14.7c0.7,5.2,0.8,10.7,0.3,16.2c-5.2-1.7-10.1-4.2-14.5-7.3c-4.5-3.2-8.4-7.3-10.8-11.9
		c-2.5-4.8-3.5-10.1-3.6-15.5c0-4.3,0.5-8.8,1.4-13c-0.8-0.4-1.6-0.7-2.5-1.1L1032.7,667.9z"/>
	<path fill="#5A4A40" d="M1122.6,689.1c-6-1.4-11.7-1.9-17.7-1.4c-5.9,0.5-11.8,2.1-16.9,5.3c-5.1,3.2-9,7.8-11.9,12.8
		c-2.9,5-5.1,10.3-6.3,15.9l0,0.3l0.3,0.1c5.3,2.3,11.1,3.7,17,3.8c5.9,0.2,12.1-1,17.7-4c5.6-3.1,10-7.7,13.2-12.9
		c3.2-5.2,5.4-10.7,6.5-16.7l0.5-2.7L1122.6,689.1z M1111.9,705.2c-2.9,4.3-6.4,8.2-10.6,10.9c-4.2,2.7-9.3,4.3-14.6,5.1
		c-5.2,0.7-10.7,0.8-16.2,0.3c1.7-5.2,4.2-10.1,7.2-14.5c3.2-4.5,7.2-8.5,11.9-11c4.7-2.5,10.1-3.6,15.4-3.8c4.3-0.1,8.8,0.4,13,1.4
		c0.3-0.8,0.7-1.7,1-2.5l1.9,3.2c-1-0.3-1.9-0.5-2.9-0.7C1116.4,697.6,1114.3,701.6,1111.9,705.2z"/>
	<path fill="#5A4A40" d="M1119.2,691.1c-0.3,0.8-0.7,1.7-1,2.5c1,0.2,2,0.4,2.9,0.7L1119.2,691.1z"/>
	<path fill="#5A4A40" d="M1047.4,620.5l-2.9,2.4c0.9,0.2,1.7,0.4,2.6,0.7C1047.2,622.6,1047.3,621.6,1047.4,620.5z"/>
	<path fill="#5A4A40" d="M1049.9,646.5c3.3,3.6,7.4,6,11.7,7.6c4.3,1.6,8.8,2.5,13.3,2.6l0.3,0l0.1-0.3c1.3-4.4,1.6-9.1,1.1-13.8
		c-0.5-4.7-2.3-9.6-5.3-13.6c-3.3-4.2-7.5-7-12-8.9c-4.6-1.9-9.2-2.8-14.1-2.7l-2.7,0.1l-0.1,2.3c-0.3,4.9,0.2,9.5,1.4,14.1
		C1044.6,638.5,1046.7,643,1049.9,646.5z M1047.4,620.5c-0.1,1-0.2,2-0.3,3.1c3.1,0.8,6.2,1.9,9.1,3.2c3.6,1.6,7,3.8,9.5,6.5
		c2.7,2.9,4.5,6.4,5.9,10.4c1.3,3.8,2.2,8,2.8,12.3c-4.2-0.7-8.3-1.9-12.1-3.8c-3.9-1.9-7.4-4.5-9.8-7.8c-2.5-3.4-4-7.3-4.8-11.4
		c-0.6-3.1-0.8-6.3-0.7-9.4c-0.9-0.3-1.7-0.5-2.6-0.7L1047.4,620.5z"/>
	<path fill="#5A4A40" d="M1085.4,643.9c-1.6,4.3-2.4,8.8-2.6,13.3v0.3l0.3,0.1c4.4,1.3,9.1,1.6,13.9,1c4.7-0.6,9.5-2.3,13.5-5.5
		c4-3.2,6.9-7.5,8.7-12c1.8-4.5,2.7-9.2,2.6-14.1l-0.1-2.7l-2.3-0.1c-4.9-0.3-9.5,0.2-14.1,1.4c-4.6,1.3-9,3.4-12.5,6.6
		C1089.3,635.4,1087,639.6,1085.4,643.9z M1106.4,629.9c3-0.5,6.2-0.8,9.3-0.6c0.2-0.9,0.5-1.8,0.7-2.6l2.4,2.9
		c-1-0.1-2.1-0.2-3.1-0.2c-0.8,3.1-1.8,6.2-3.1,9.1c-1.7,3.7-3.7,7-6.5,9.6c-2.7,2.6-6.3,4.6-10.3,6c-3.8,1.3-8,2.3-12.3,2.8
		c0.7-4.2,1.9-8.3,3.7-12.1c1.9-3.9,4.5-7.5,7.7-10C1098.3,632.2,1102.3,630.6,1106.4,629.9z"/>
	<path fill="#5A4A40" d="M1116.4,626.6c-0.2,0.9-0.5,1.7-0.7,2.6c1,0,2.1,0.1,3.1,0.2L1116.4,626.6z"/>
	<path fill="#5A4A40" d="M1083.6,572.7c0.5,0.8,0.9,1.5,1.4,2.3c0.8-0.7,1.5-1.4,2.3-2L1083.6,572.7z"/>
	<path fill="#5A4A40" d="M1081.4,618l0.2,0.2l0.3-0.1c4.1-2.2,7.6-5.3,10.5-9.1c2.9-3.7,5.1-8.3,5.7-13.5c0.6-5.1-0.4-10.2-2.4-14.6
		c-1.9-4.5-4.5-8.4-8.1-11.8l-2-1.9l-1.7,1.5c-3.7,3.3-6.5,6.9-8.9,11c-2.3,4.1-4,8.7-4.2,13.5c-0.2,4.8,1.1,9.4,3,13.6
		C1075.8,611,1078.3,614.7,1081.4,618z M1074.2,593.5c0.5-4.1,2.2-8,4.6-11.4c1.8-2.6,3.9-5,6.2-7.1c-0.5-0.8-0.9-1.6-1.4-2.3
		l3.7,0.3c-0.8,0.6-1.6,1.3-2.3,2c1.6,2.8,3.1,5.7,4.2,8.6c1.4,3.8,2.4,7.6,2.2,11.4c-0.1,3.8-1.3,7.7-3,11.5
		c-1.8,3.7-4.1,7.2-6.7,10.7c-2.5-3.5-4.5-7.2-5.9-11.2C1074.4,602,1073.7,597.6,1074.2,593.5z"/>
	<path fill="#5A4A40" d="M321.6,802.1c0.7,0.7,1.4,1.4,2.1,2.1c0.5-0.7,1.1-1.4,1.7-2.1H321.6z"/>
	<path fill="#5A4A40" d="M323.5,868.8l0.2,0.2l0.2-0.2c4.8-4.5,8.8-9.7,12-15.4c3.2-5.8,5.3-12.2,5.6-19.1
		c0.1-6.7-1.8-13.5-4.7-19.5c-3-6.1-6.7-11.5-11.5-16.6l-1.7-1.7l-2,1.7c-5.3,4.6-9.5,9.9-12.6,16c-3.2,6.1-5.2,13-5,20.3
		c0.3,7,2.7,13.8,6.2,19.5C313.8,859.8,318.3,864.8,323.5,868.8z M310.8,834.3c0.1-5.7,1.9-11.5,4.6-16.9c2.3-4.6,5.2-9.1,8.3-13.2
		c-0.7-0.7-1.4-1.4-2.1-2.1h3.7c-0.6,0.7-1.1,1.4-1.7,2.1c3.5,3.7,6.7,8,9.2,12.5c3,5.5,5,11.4,5.2,17.6c0.3,6.1-1.3,12.4-4,18.1
		c-2.6,5.6-6.2,10.9-10.4,15.5c-3.8-5.1-6.9-10.5-9.3-16.1C312.1,846.1,310.6,840.2,310.8,834.3z"/>
	<path fill="#5A4A40" d="M280.9,896.6c7.1-0.2,13.9-2.5,19.7-6c5.8-3.5,10.8-8,14.8-13.2l0.2-0.3l-0.2-0.2c-4.5-4.7-9.6-8.8-15.4-12
		c-5.7-3.2-12.2-5.5-19-5.8c-6.8-0.2-13.5,1.6-19.6,4.5c-6.1,2.9-11.6,6.7-16.6,11.4l-1.8,1.7l1.8,2.1c4.6,5.2,9.8,9.4,15.9,12.7
		C266.8,894.7,273.7,896.7,280.9,896.6z M248.7,875c0.7,0.6,1.4,1.1,2.1,1.7c3.7-3.5,8-6.7,12.5-9.1c5.5-3,11.5-4.9,17.6-5
		c6.1-0.2,12.4,1.5,18.1,4.2c5.6,2.7,10.9,6.2,15.5,10.4c-5.1,3.7-10.6,6.9-16.2,9.2c-5.7,2.3-11.7,3.8-17.5,3.5
		c-5.8-0.2-11.5-2.1-17-4.7c-4.5-2.3-9.1-5.2-13.1-8.4c-0.7,0.7-1.5,1.4-2.1,2.1V875z"/>
	<path fill="#5A4A40" d="M248.7,875v3.7c0.7-0.7,1.4-1.4,2.1-2.1C250.1,876.1,249.4,875.6,248.7,875z"/>
	<path fill="#5A4A40" d="M262.7,793.2c-0.9,6.9,0.3,14.1,2.7,20.3c2.4,6.3,6,12,10.5,16.9l0.2,0.2l0.2-0.2c5.5-3.6,10.4-8,14.5-13.1
		c4.1-5.1,7.4-11.1,8.8-17.9c1.3-6.6,0.6-13.6-1.2-20c-1.9-6.5-4.6-12.5-8.4-18.3l-1.3-2l-2.3,1.4c-6,3.6-11,8.1-15.3,13.6
		C266.8,779.5,263.7,785.9,262.7,793.2z M276.8,778.3c3-4.1,6.6-8,10.5-11.5c-0.5-0.8-1.1-1.7-1.6-2.4l3.7,0.6
		c-0.7,0.6-1.3,1.2-2,1.8c2.8,4.3,5.3,9,6.9,13.9c2,5.9,3,12.1,2.1,18.3c-0.8,6-3.4,11.9-7.1,17.1c-3.5,5.1-8,9.7-12.9,13.5
		c-2.8-5.7-5-11.6-6.4-17.5c-1.4-6.1-1.8-12.1-0.6-18C270.5,788.6,273.3,783.1,276.8,778.3z"/>
	<path fill="#5A4A40" d="M285.6,764.4c0.6,0.8,1.1,1.6,1.6,2.4c0.7-0.6,1.3-1.2,2-1.8L285.6,764.4z"/>
	<path fill="#5A4A40" d="M200.5,827.2c0.8-0.6,1.6-1.1,2.4-1.7c-0.6-0.7-1.2-1.3-1.8-2L200.5,827.2z"/>
	<path fill="#5A4A40" d="M266.4,837.4l0.2-0.2l-0.2-0.2c-3.6-5.5-8-10.4-13.1-14.5c-5.1-4.2-11.1-7.5-17.7-9
		c-6.7-1.4-13.6-0.8-20.1,1c-6.5,1.8-12.6,4.5-18.4,8.4l-2,1.3l1.4,2.3c3.6,6,8,11,13.5,15.3c5.4,4.2,11.9,7.5,19,8.6
		c7.1,1.1,14.1-0.1,20.4-2.5C255.8,845.4,261.6,841.9,266.4,837.4z M230.3,843.7c-5.7-1.2-11-4-15.9-7.6c-4.1-3.1-8-6.7-11.5-10.6
		c-0.8,0.5-1.7,1.1-2.4,1.7l0.6-3.7c0.6,0.7,1.2,1.3,1.8,2c4.3-2.8,9.1-5.2,14-6.8c5.9-2,12.1-2.8,18.2-1.9
		c6.1,0.9,11.9,3.6,17.1,7.2c5.1,3.6,9.6,8,13.5,13c-5.7,2.8-11.6,4.9-17.5,6.3C242.1,844.6,236,844.9,230.3,843.7z"/>
	<path fill="#5A4A40" d="M238.3,740c-2.1,6.7-2.2,13.9-0.9,20.5c1.3,6.6,3.8,12.9,7.4,18.4l0.2,0.3l0.3-0.1
		c6-2.6,11.6-6.1,16.5-10.4c4.9-4.4,9.2-9.7,11.8-16.1c2.4-6.3,2.9-13.3,2.3-19.9c-0.7-6.7-2.4-13.1-5.1-19.5l-1-2.2l-2.5,0.9
		c-6.5,2.5-12.3,6-17.3,10.7C244.8,727.2,240.6,733,238.3,740z M265.9,715.6l3.5,1.3c-0.8,0.4-1.5,0.9-2.3,1.4
		c2,4.7,3.6,9.8,4.4,14.9c0.9,6.1,0.8,12.4-1.1,18.3c-1.8,5.8-5.5,11.2-9.9,15.6c-4.4,4.4-9.5,8.2-15.1,11.1
		c-1.8-6.1-2.9-12.3-3.2-18.3c-0.3-6.2,0.3-12.2,2.6-17.8c2.1-5.3,5.7-10.2,10.1-14.3c3.7-3.5,8-6.7,12.3-9.5
		C266.7,717.4,266.3,716.4,265.9,715.6z"/>
	<path fill="#5A4A40" d="M265.9,715.6c0.4,0.9,0.8,1.8,1.2,2.7c0.7-0.5,1.5-1,2.3-1.4L265.9,715.6z"/>
	<path fill="#5A4A40" d="M171.2,762.6c0.9-0.4,1.8-0.8,2.7-1.2c-0.5-0.8-1-1.5-1.4-2.3L171.2,762.6z"/>
	<path fill="#5A4A40" d="M215.9,791.5c6.6-1.3,12.9-3.8,18.4-7.4l0.3-0.2l-0.1-0.3c-2.6-6-6-11.6-10.3-16.6
		c-4.3-5-9.6-9.3-15.9-11.9c-6.3-2.5-13.3-3.1-19.9-2.5c-6.7,0.7-13.2,2.3-19.5,5.1l-2.2,1l1,2.5c2.5,6.5,6,12.2,10.6,17.4
		c4.6,5.1,10.4,9.4,17.2,11.8C202.1,792.7,209.3,792.8,215.9,791.5z M173.9,761.4c-0.9,0.4-1.8,0.8-2.7,1.2l1.3-3.5
		C172.9,759.9,173.4,760.7,173.9,761.4c4.7-2,9.8-3.6,14.9-4.3c6.1-0.9,12.4-0.7,18.3,1.3c5.8,1.9,11.1,5.6,15.6,10.1
		c4.4,4.4,8.1,9.6,11,15.1c-6.1,1.8-12.3,2.8-18.3,3.2c-6.2,0.2-12.3-0.5-17.7-2.7c-5.4-2.2-10.1-5.9-14.3-10.3
		C179.9,770.1,176.6,765.8,173.9,761.4z"/>
	<path fill="#5A4A40" d="M247.3,667.9c0.3,0.9,0.5,1.9,0.7,2.9c0.8-0.4,1.7-0.7,2.5-1.1L247.3,667.9z"/>
	<path fill="#5A4A40" d="M219.8,684.4c-2.8,5.5-4,11.8-3.8,17.7c0.2,6,1.5,11.7,3.8,17l0.1,0.3l0.3,0c5.6-1.3,11-3.4,15.9-6.3
		c4.9-3,9.5-6.9,12.6-12.1c3.1-5.1,4.6-11.1,5.1-16.9c0.5-5.9,0-11.7-1.4-17.6l-0.5-2.3l-2.7,0.5c-6.1,1.1-11.6,3.3-16.7,6.5
		C227.4,674.3,222.8,678.7,219.8,684.4z M247.3,667.9l3.2,1.9c-0.8,0.3-1.7,0.7-2.5,1.1c1,4.2,1.5,8.6,1.4,13
		c-0.1,5.4-1.1,10.7-3.6,15.5c-2.4,4.7-6.3,8.7-10.8,11.9c-4.4,3.1-9.4,5.6-14.5,7.3c-0.5-5.5-0.4-11,0.2-16.2
		c0.8-5.3,2.2-10.3,5-14.7c2.6-4.1,6.4-7.7,10.7-10.6c3.6-2.4,7.6-4.5,11.6-6.2C247.8,669.9,247.6,668.9,247.3,667.9z"/>
	<path fill="#5A4A40" d="M175.2,721.9c5.6,3,11.8,4.2,17.7,4c6-0.1,11.7-1.5,17-3.8l0.3-0.1l-0.1-0.3c-1.2-5.6-3.3-10.9-6.3-15.9
		c-3-5-6.8-9.5-11.9-12.8c-5.1-3.2-11-4.8-16.9-5.3c-5.9-0.5-11.7-0.1-17.7,1.4l-2.3,0.6l0.5,2.7c1.1,6.1,3.3,11.6,6.5,16.7
		C165.3,714.2,169.7,718.9,175.2,721.9z M159,694.3l1.8-3.2c0.3,0.8,0.7,1.7,1,2.5c4.2-1,8.7-1.5,13-1.4c5.4,0.1,10.7,1.2,15.5,3.8
		c4.7,2.5,8.7,6.4,11.8,11c3.1,4.4,5.5,9.4,7.2,14.5c-5.5,0.5-11,0.4-16.2-0.3c-5.3-0.8-10.4-2.4-14.6-5.1
		c-4.2-2.7-7.7-6.5-10.6-10.9c-2.4-3.6-4.4-7.6-6.2-11.6C160.9,693.8,159.9,694,159,694.3z"/>
	<path fill="#5A4A40" d="M203.8,642.6c-0.6,4.7-0.3,9.4,1.1,13.8l0.1,0.3l0.3,0c4.5-0.1,9-1,13.3-2.6c4.3-1.6,8.3-4,11.7-7.6
		c3.2-3.5,5.2-8,6.4-12.5c1.2-4.6,1.7-9.1,1.4-14.1l-0.1-2.3l-2.7-0.1c-5-0.1-9.6,0.8-14.2,2.7c-4.5,1.8-8.7,4.7-12,8.9
		C206.1,633.1,204.3,638,203.8,642.6z M214.4,633.3c2.4-2.7,5.9-4.9,9.5-6.5c2.8-1.3,6-2.3,9-3.2c0-1-0.1-2.1-0.2-3.1l2.9,2.4
		c-0.9,0.2-1.7,0.4-2.6,0.7c0.1,3.1-0.1,6.3-0.6,9.4c-0.8,4.1-2.2,8-4.8,11.4c-2.4,3.3-6,5.9-9.8,7.8c-3.8,1.8-7.9,3.1-12.1,3.8
		c0.6-4.3,1.5-8.4,2.8-12.3C209.9,639.7,211.7,636.2,214.4,633.3z"/>
	<path fill="#5A4A40" d="M232.6,620.5c0.1,1,0.2,2,0.2,3.1c0.9-0.3,1.8-0.5,2.6-0.7L232.6,620.5z"/>
	<path fill="#5A4A40" d="M169.5,653.1c4.1,3.1,8.9,4.9,13.6,5.5c4.7,0.6,9.4,0.3,13.9-1l0.3-0.1v-0.3c-0.1-4.5-1-9-2.6-13.3
		c-1.6-4.3-3.9-8.4-7.5-11.7c-3.5-3.2-8-5.4-12.5-6.6c-4.6-1.2-9.1-1.8-14.1-1.4l-2.3,0.1l-0.1,2.7c-0.1,5,0.8,9.6,2.6,14.1
		C162.6,645.6,165.5,649.9,169.5,653.1z M163.6,626.6c0.2,0.9,0.5,1.7,0.7,2.6c3.1-0.1,6.3,0.1,9.3,0.6c4.1,0.8,8.1,2.3,11.3,4.9
		c3.3,2.5,5.9,6,7.7,10c1.8,3.8,3,7.9,3.7,12.1c-4.3-0.6-8.4-1.5-12.3-2.8c-3.9-1.4-7.5-3.4-10.3-6c-2.8-2.6-4.9-6-6.5-9.6
		c-1.3-2.8-2.2-6-3.1-9.1c-1.1,0-2.1,0.1-3.1,0.2L163.6,626.6z"/>
	<path fill="#5A4A40" d="M163.6,626.6l-2.4,2.9c1-0.1,2.1-0.2,3.1-0.2C164.1,628.3,163.8,627.5,163.6,626.6z"/>
	<path fill="#5A4A40" d="M192.7,573c0.8,0.6,1.6,1.3,2.3,2c0.4-0.8,0.9-1.6,1.4-2.3L192.7,573z"/>
	<path fill="#5A4A40" d="M187.6,609c2.9,3.8,6.4,6.9,10.5,9.1l0.3,0.1l0.2-0.2c3.1-3.3,5.6-7.1,7.6-11.2c1.9-4.1,3.2-8.7,3-13.6
		c-0.2-4.8-1.8-9.4-4.2-13.5c-2.4-4.1-5.2-7.7-8.9-11l-1.7-1.5l-2,1.9c-3.6,3.4-6.2,7.3-8.1,11.8c-1.9,4.4-2.9,9.5-2.4,14.6
		C182.5,600.7,184.7,605.3,187.6,609z M190.8,583.6c1.1-2.9,2.6-5.8,4.2-8.6c-0.8-0.7-1.5-1.4-2.3-2l3.7-0.3
		c-0.4,0.8-0.9,1.5-1.4,2.3c2.3,2.1,4.4,4.5,6.2,7.1c2.3,3.5,4.1,7.3,4.6,11.4c0.5,4.1-0.1,8.4-1.6,12.5c-1.4,3.9-3.4,7.7-5.9,11.2
		c-2.6-3.5-4.9-7-6.7-10.7c-1.8-3.8-3-7.7-3-11.5C188.5,591.2,189.4,587.4,190.8,583.6z"/>
	<path fill="#5A4A40" d="M312.2,1139.1l1.6-0.9c1.2-0.6,2.4-1.2,3.6-1.7c2.4-1.1,4.7-2.1,7.1-3c19-7.7,38.1-14.4,57.1-21.7
		c9.5-3.6,19-7.2,27.7-12.3c4.3-2.6,8.6-5.5,11.8-9.2c1.6-1.9,2.9-4,3.4-6.4c0-0.2,0-0.4,0-0.6c-1.9,2.6-8.9,6-14.1,8.6
		c-7,3.6-13.2,5.7-26.7,7.3c16.1-4.7,29-11.3,37-18c-1.3-2.7-3.6-5.5-6.1-7.7c-3.6,1.9-8.7,3.9-12.9,5.9
		c-8.5,4.1-32.4,11.5-48.9,13.2c18-4.8,44.1-14.4,57.4-22.3c-1.6-0.9-3.3-1.7-5.1-2.2c-5.9-1.9-12.2-1.9-18.5-0.9
		c-2.6,1.2-5.5,2.3-7.9,3.5c-8.5,4.1-32.4,11.5-48.9,13.2c12.2-3.2,28.1-8.7,41.2-14.3c-3.7,0.4-7.4,0.6-11.2,0.6
		c-1.7,0-3.5-0.1-5.2-0.2c-11.1,3.8-27.1,8.2-39.2,9.4c9.4-2.5,20.9-6.3,31.8-10.5c-2-0.4-4.1-1-6.2-2c-0.7-0.4-1.5-0.8-2.3-1.3
		c-10.2,3.1-22.6,6.2-32.4,7.2c8.7-2.3,19.4-5.8,29.6-9.6c-0.3-0.3-0.7-0.7-1-1.1c-0.9-1.2-1.6-2.5-2-4l0,0
		c-7.1,1.8-14.4,3.3-20.6,3.9c6-1.6,12.9-3.7,19.9-6.2c-0.5-3.9-1.2-7.9-1.9-11.9c-4.6,1-9.2,1.8-13.2,2.2c4-1.1,8.4-2.4,13-3.8
		c-0.4-2.1-0.7-4.3-1.2-6.3c-0.1-0.3-0.1-0.6-0.2-0.8c-4.7,1-9.2,1.8-13.3,2.2c4-1.1,8.4-2.4,13-3.9c-0.6-2.5-1.2-5-1.8-7.4
		c-0.9-3.1-2-6.4-3.3-8.7l0-0.1c-0.1-0.1-0.1-0.2-0.2-0.3l-0.1-0.2c-10.5,4.8-20.8,9.9-30.6,15.8c-5.5,3.3-10.8,7-15.6,11.1
		c-3.6,3.1-6.9,6.4-9.8,10c3.6,1.2,6.9,2.7,10.2,4.5c4.7,2.7,9.1,6.1,12.7,10.3c3.6,4.2,6.3,9.2,7.8,14.4c0.8,2.6,1.3,5.5,1.6,8
		c0.3,2.5,0.6,5,0.9,7.5c1.4,9.9,3.2,19.9,6.2,29.4c0.8,2.3,1.6,4.6,2.7,6.8c0.5,1.1,1.1,2.1,1.7,2.9c0.6,0.9,1.4,1.5,1.6,1.6"/>
	<polygon fill="#5A4A40" points="399.9,1013.8 399.9,1013.8 399.9,1013.8 	"/>
	<path fill="#5A4A40" d="M418.7,1069.8c0-0.1,0-0.2,0-0.3c-0.3-1.5-0.7-3-1.1-4.5c-0.2-0.8-0.5-1.7-0.7-2.6
		c-0.2-0.8-0.5-1.4-0.8-2.2c-0.5-0.5-1-0.9-1.5-1.4c-1-0.9-2.1-1.8-3.2-2.7c-1.1-0.8-2.2-1.6-3.4-2.3c-4.6-2.8-10.1-4.9-17.9-6.2
		c6.8-0.6,10.9-0.3,14.6,0.8c1,0.3,2.1,0.7,3.1,1.2c1,0.4,1.9,0.9,2.9,1.4c0.3,0.2,0.6,0.3,0.9,0.5c0.2,0.1,0.3,0.1,0.4,0.2
		c-1.1-1.9-2.3-3.8-3.7-5.6c-0.1-0.1-0.2-0.2-0.3-0.4c-0.4-0.5-0.8-1.1-1.2-1.6c-1.1-1-2.3-1.8-3.6-2.5c-1.3-0.8-2.6-1.5-4.1-2.1
		c-3.8-1.6-8.3-2.9-13.4-4c5.2,0.1,8.6,0.1,11.4,0.6c1.3,0.2,2.5,0.5,3.6,1c0.8,0.3,1.7,0.7,2.5,1.2c0.2,0.1,0.4,0.2,0.5,0.3
		c-0.1-0.3-0.3-0.7-0.4-1c-0.3-0.7-0.4-1.5-0.6-2.2c-0.7-2.4-1.2-4.8-1.7-7.3c-0.7-4.8-1.1-9.5-1.2-14.3c-2.4,0.7-4.8,1.5-7.2,2.3
		c-1.1,0.4-2.1,0.7-3.2,1.1c-1.1,0.4-2.1,0.8-3.2,1.3c-0.6,0.2-1.1,0.4-1.7,0.7c-1.2,0.5-2.4,1.1-3.6,1.6c-5,2.3-9.8,4.8-14.3,7.8
		c-3.2,2.1-6.3,4.4-9.1,6.8c0.6,0.1,1.3,0.1,1.9,0.1c3.2,0.2,6.4,0.2,9.7-0.2c-6.3,2.4-10.9,3.3-15.1,3.3c-1.9,1.9-3.8,3.9-5.4,5.9
		c2.6,0.7,5.3,1.3,8.1,1.6c2.8,0.4,5.7,0.6,8.6,0.6c1.1,0,2.3,0.1,3.4,0c0.1-0.1,0.8,0,0.8,0c1.9-0.1,3.8-0.3,5.8-0.5
		c-1.7,0.7-3.3,1.3-4.8,1.7c-2,0.7-3.8,1.2-5.6,1.6c-2.9,0.6-5.5,0.9-7.9,0.9c-2.7,0-5.2-0.3-8-0.8c-0.1,0-0.2-0.1-0.3-0.1
		c-0.9-0.2-2-0.4-3.3-0.8c-0.6,0.9-1,1.8-1.5,2.7c-0.8,1.3-1.5,2.7-2.1,4.1c-0.1,0.3-0.3,0.5-0.4,0.8c0.1,0.2,0.1,0.4,0.3,0.6
		c0.5,0.9,1.7,1.8,3.1,2.5c1.2,0.7,2.7,1.2,4.3,1.6c0.5,0.1,1,0.2,1.5,0.3c3,0.6,6,1,9.2,1.2c0.7,0.1,1.4,0,2,0.1
		c3.6,0.1,7.2,0,10.8-0.3c3.2-0.3,6.4-0.6,9.6-1.2c2.2-0.3,4.4-0.6,6.6-0.8c2.1-0.1,4.1-0.2,6.2,0c4,0.2,7.9,0.9,11.8,2.3
		c2.9,1.1,5.6,2.5,8.1,4.3c0.7,0.5,1.4,1.1,2.2,1.7c0.5,0.5,1.1,1,1.6,1.5c0-0.1,0.1-0.1,0.1-0.2
		C418.8,1069.9,418.7,1069.9,418.7,1069.8"/>
	<path fill="#5A4A40" d="M961.3,1139.1c0.2-0.1,1-0.7,1.6-1.6c0.6-0.9,1.2-1.9,1.7-2.9c1.1-2.1,1.9-4.4,2.7-6.8
		c3-9.4,4.8-19.4,6.2-29.4c0.4-2.5,0.6-5,0.9-7.5c0.3-2.5,0.8-5.4,1.6-8c1.6-5.3,4.3-10.2,7.8-14.4c3.6-4.2,7.9-7.6,12.6-10.3
		c3.3-1.8,6.6-3.3,10.2-4.5c-2.8-3.7-6.2-6.9-9.8-10c-4.8-4.1-10.1-7.8-15.6-11.1c-10.4-6.3-21.4-11.7-32.6-16.7c0,0,0,0.1-0.1,0.2
		l0,0.1l0,0.1c-1.5,2.6-2.5,6-3.5,9.2c-0.7,2.4-1.2,4.9-1.8,7.3c5.3,1.8,10.5,3.3,15.1,4.5c-4.7-0.5-10.1-1.5-15.5-2.7
		c0,0.3-0.1,0.5-0.2,0.8c-0.4,2-0.7,4.1-1.1,6.1c5.3,1.7,10.4,3.3,15,4.5c-4.6-0.5-9.8-1.4-15-2.6c0.1,1.5,0.2,3.1,0.2,4.6
		c0,2.1-0.1,4.2-0.4,6.3l-0.1,1.3c7.1,2.4,14.1,4.6,20.1,6.2c-6.2-0.6-13.5-2.1-20.6-3.9l0,0c-0.4,1.4-1.1,2.8-2,4
		c-0.3,0.4-0.6,0.8-1,1.1c10.2,3.8,20.8,7.3,29.6,9.6c-9.8-1-22.2-4.1-32.4-7.2c-0.8,0.5-1.5,1-2.3,1.3c-2.1,1-4.2,1.6-6.2,2
		c10.9,4.2,22.5,8,31.8,10.5c-12.1-1.3-28.2-5.6-39.2-9.4c-1.8,0.1-3.5,0.2-5.2,0.2c-3.8,0-7.5-0.2-11.2-0.6
		c13.1,5.6,29.1,11.1,41.2,14.3c-16.5-1.7-40.5-9.2-48.9-13.2c-2.5-1.2-5.3-2.4-7.9-3.5c-6.3-1-12.7-1-18.5,0.9
		c-1.8,0.6-3.5,1.3-5.1,2.2c13.3,8,39.4,17.5,57.4,22.3c-16.5-1.7-40.4-9.1-48.9-13.2c-4.2-2.1-9.4-4-12.9-5.9
		c-2.5,2.2-4.8,5-6.1,7.7c7.9,6.7,20.8,13.4,36.9,18c-13.6-1.7-19.7-3.8-26.7-7.3c-5.2-2.6-12.3-6-14.1-8.6c0,0.2,0,0.4,0,0.6
		c0.4,2.4,1.8,4.5,3.4,6.4c3.2,3.8,7.5,6.6,11.8,9.2c8.7,5.1,18.2,8.8,27.7,12.3c19,7.2,38.2,14,57.2,21.7c2.4,1,4.7,2,7.1,3
		c1.2,0.5,2.3,1.1,3.5,1.7l1.7,0.9"/>
	<path fill="#5A4A40" d="M854.6,1070c0,0.1,0,0.3-0.1,0.4c0.1,0,0.1-0.1,0.2-0.2C854.7,1070.1,854.7,1070.1,854.6,1070z"/>
	<path fill="#5A4A40" d="M904.7,1046.8c-0.2-0.1-0.4-0.3-0.5-0.4l-0.3,0.4C904.1,1046.7,904.4,1046.8,904.7,1046.8z"/>
	<path fill="#5A4A40" d="M930.1,1048.2c-2.1,0.6-4,1.1-5.4,1.4c-0.1,0-0.2,0-0.3,0.1c-2.7,0.5-5.3,0.8-8,0.8c-2.5,0-5-0.3-7.9-0.9
		c-1.7-0.4-3.6-0.9-5.6-1.6c-1.5-0.5-3.1-1.1-4.8-1.7c1.9,0.2,3.9,0.4,5.8,0.5l0.3-0.4c0.1,0.1,0.4,0.3,0.5,0.4c1.2,0,2.3,0,3.4,0
		c2.9,0,5.8-0.3,8.6-0.6c3.6-0.5,7.1-1.2,10.4-2.2c-1.5-2-3.2-3.8-4.9-5.5c-0.1-0.1-0.1-0.1-0.2-0.2c-1.1-1.1-2.2-2.2-3.3-3.2
		c-1.5-1.3-3.1-2.6-4.7-3.8c-2-1.5-4-3-6.2-4.3c-5.8-3.7-11.9-6.8-18.3-9.4c-0.5-0.2-0.9-0.4-1.4-0.6c-1.1-0.4-2.1-0.9-3.2-1.3
		c-1.1-0.4-2.1-0.8-3.2-1.1c-1.9-0.7-3.8-1.3-5.6-1.8c-0.8-0.3-1.7-0.5-2.5-0.7c0,1.3-0.1,2.7-0.1,4c-0.2,4-0.5,8.1-1.1,12.1
		c-0.4,2.4-0.9,4.9-1.6,7.3c-0.2,0.7-0.4,1.5-0.6,2.2c-0.1,0.3-0.3,0.7-0.4,1c0.2-0.1,0.4-0.2,0.5-0.3c0.9-0.5,1.7-0.9,2.5-1.2
		c1.1-0.4,2.3-0.7,3.6-1c2.8-0.4,6.2-0.4,11.4-0.6c-5.2,1.1-9.6,2.4-13.4,4c-1.4,0.6-2.8,1.3-4.1,2.1c-1.3,0.8-2.5,1.6-3.6,2.5
		c-0.4,0.5-0.7,1-1.1,1.6c-0.1,0.1-0.2,0.2-0.3,0.4c-1.4,1.8-2.6,3.7-3.7,5.6c0.1-0.1,0.2-0.1,0.4-0.2c0.3-0.2,0.7-0.3,1-0.5
		c1-0.5,2-1,2.9-1.4c1-0.5,2.1-0.8,3.1-1.2c3.7-1.1,7.8-1.4,14.6-0.8c-7.8,1.3-13.3,3.4-18,6.2c-1.2,0.7-2.3,1.5-3.4,2.3
		c-1.1,0.8-2.2,1.7-3.2,2.6c-0.5,0.5-1,0.9-1.5,1.4c-0.3,0.7-0.6,1.4-0.8,2.2c-0.3,0.9-0.5,1.7-0.8,2.6c-0.4,1.5-0.8,3-1.1,4.5
		c0,0.1,0,0.2-0.1,0.3c0,0.1,0,0.1-0.1,0.2c0,0.1,0.1,0.1,0.1,0.2c0.5-0.5,1-1,1.6-1.5c0.7-0.6,1.4-1.2,2.2-1.7
		c2.5-1.8,5.2-3.2,8.1-4.3c3.9-1.4,7.8-2.1,11.8-2.3c2.1-0.1,4.1-0.1,6.2,0c2.2,0.2,4.4,0.4,6.6,0.8c3.2,0.5,6.4,0.9,9.6,1.2
		c3.6,0.3,7.2,0.4,10.8,0.3c0.7,0,1.4,0,2-0.1c3.2-0.1,6.3-0.5,9.2-1.2c0.5-0.1,1-0.2,1.5-0.3c1.5-0.4,3-1,4.3-1.6
		c1.4-0.8,2.6-1.6,3.1-2.5c0.3-0.4,0.4-0.8,0.5-1.2v0c0.1-0.2,0.1-0.4,0.1-0.8l0.1-1.4c0-0.3,0-0.7,0-1.1c0,0,0-0.1,0-0.2
		C931.8,1050.9,930.9,1049.6,930.1,1048.2z"/>
	<path fill="#5A4A40" d="M331.1,1013L331.1,1013c-0.1-0.1-0.1-0.3-0.2-0.4L331.1,1013z"/>
	<path fill="#5A4A40" d="M336.9,1030.5c0.2,0.8,0.4,1.6,0.6,2.4c0.1,0.3,0.1,0.7,0.2,1.1c0.1,0.4,0.5,1.9,0.4,2.1
		c0.2,1,0.4,2.1,0.6,3.1c0.2,0.7,0.3,1.4,0.4,2.1c0,0,0.1,0,0.1,0c0.8-1.1,1.6-2.2,2.4-3.2c0.4-0.5,0.8-0.9,1.1-1.3
		c0.1-0.1,0.1-0.1,0.2-0.2c0.5-0.6,1.1-1.3,1.6-1.9c0.5-0.5,1-1,1.5-1.5c1.4-1.4,2.8-2.8,4.3-4c3.6-3.2,7.4-6,11.4-8.6
		c0.1-0.1,0.3-0.2,0.4-0.2c4.1-2.6,8.4-4.9,12.8-7c0.2-0.1,0.3-0.1,0.4-0.2c1.2-0.6,2.4-1.1,3.7-1.7c0.7-0.3,1.4-0.6,2.2-0.9
		c0.9-0.4,1.8-0.7,2.7-1.1c1.4-0.5,2.8-1.1,4.2-1.6c2.1-0.8,4.2-1.5,6.3-2.1c0.7-0.2,1.4-0.5,2.2-0.7c0.4-0.1,0.7-0.2,1-0.3
		c0.3-0.1,0.6-0.2,0.9-0.3c1.2-0.3,2.4-0.6,3.5-0.9c0.2-0.1,0.4-0.1,0.6-0.1h0.1c0.2,0,0.4,0,0.7,0c10.7-0.6,21.5-1.2,32.2-1.7
		c10-0.5,20-1.1,30-1.6c9.1-0.5,18.3-0.9,27.5-1.4c8.9-0.4,17.8-0.9,26.6-1.3l58.1-2.7L567,984.3c-0.8-0.8-1.3-2-1.3-3.2v-98.3
		c0-0.7,0.2-1.4,0.6-2c-13,1.1-26.1,2.2-39.1,3.6c-36.4,3.7-72.8,8.2-109.1,13.3c-0.5,0.1-1,0.2-1.5,0.2c-3.7,0.5-7.4,1-11,1.6
		c-6.7,0.9-13.4,1.9-20.2,2.9c-5.5,0.8-11,1.6-16.5,2.5c-1.7,0.3-3.4,0.5-5.1,0.8l-3.8,0.6l-9.7,1.6l-1.7,0.3l-0.4,0.1l-0.1,0
		l-0.1,0l-0.8,0.2l-3.2,0.8c-2.1,0.6-4.3,1.3-6.4,2c-8.4,2.9-16.6,6.6-23.8,11.4c-7.1,4.8-13.5,11.1-14.8,18.3
		c-0.3,1.8-0.3,3.5,0,5.5c0.3,2,0.7,4.1,1.3,6.2c0.2,0.7,0.5,1.5,0.7,2.2c1.4-2.1,3.4-4,5.2-5.5c6.8-5.7,16.3-12.1,24.9-12.4
		c-15.6,5.4-22.5,14.1-27,26.1c0.3,0.6,0.5,1.2,0.8,1.8c2.2,4.7,4.6,9.3,7.2,13.8c2.3-4.5,6.8-9.5,9-11.3c6-5,16.6-11.6,24.2-11.9
		c-13.2,4.5-25,16.8-30.1,28.5c0.9,1.5,1.8,3.1,2.7,4.6l1.7,2.8c2.1-3.5,5.3-7,7-8.4c5.2-4.4,32.1-21.7,38.7-23.8
		c-15.3,8.4-35.6,25.4-42.9,37l2.5,4.3c0.3,0.5,0.6,1,0.9,1.5c1.9-4.1,6.1-8.7,8.1-10.4c5.2-4.4,13.5-11.2,20-13.3
		c-8.9,6.4-20.2,17.4-25.1,27.5c-0.2,0.4-0.3,0.7-0.5,1l0.7,1.4l0.8,1.7l0.2,0.5l1.2,2.6c0.2,0.4,0.4,0.8,0.6,1.2
		c0.8-1.4,1.8-2.7,2.8-4c1.6-1.9,3.1-3.5,4.1-4.3c0.1-0.1,0.3-0.3,0.4-0.4c5.2-4.4,13.2-10.9,19.6-12.9c-4.7,3.3-9.9,7.9-14.6,12.9
		c-1.4,1.5-2.8,3.1-4,4.7c-1.2,1.6-2.4,3.1-3.4,4.7c-1.1,1.6-2,3.2-2.8,4.8c0.4,1.3,0.8,2.6,1.2,3.9c0.4,1.5,0.8,3,1.1,4.5
		c0.2,0.7,0.3,1.4,0.5,2.1"/>
	<path fill="#5A4A40" d="M976.6,940.6c-0.7-4.1-2.9-7.9-5.8-11.1c-2.8-3.3-6.3-6.1-10-8.6c-7.4-5-15.7-8.7-24.3-11.6
		c-4.3-1.4-8.7-2.8-13-3.5l-8.2-1.3l-5.3-0.8c-1.2-0.2-2.4-0.4-3.6-0.5c-6-0.9-12-1.8-18-2.7c-6.7-1-13.4-1.9-20.1-2.9
		c-2.5-0.3-5.1-0.7-7.6-1.1c-1.7-0.2-3.4-0.5-5.1-0.7c-36.3-4.9-72.7-9.2-109.2-12.6c-13.3-1.2-26.6-2.4-39.8-3.3
		c0.7,0.8,1.2,1.9,1.2,3v98.3c0,1.2-0.5,2.4-1.3,3.2l-11.1,11.1h0l58.5,3.2l27.9,1.6l24.5,1.5l30.2,1.8l34.1,2l0.2,0h0.1
		c0.1,0,0.3,0,0.4,0c1,0.2,2,0.5,3,0.8c0.2,0.1,0.5,0.1,0.8,0.2c0.3,0.1,0.6,0.1,0.8,0.2c1.3,0.4,2.5,0.8,3.8,1.2
		c1.7,0.5,3.3,1.1,5,1.7c1.1,0.4,2.3,0.8,3.4,1.3c1.3,0.5,2.5,1,3.8,1.5c0.6,0.2,1.1,0.5,1.7,0.7c0.1,0,0.2,0.1,0.4,0.1
		c5.9,2.6,11.6,5.6,17.1,9.1c2.4,1.5,4.8,3.3,7.1,5.1c2.6,2,5,4.2,7.3,6.5c0.8,0.8,1.5,1.5,2.3,2.3c0.2,0.2,3,3.5,3.9,4.7
		c0.1,0,2.8,4.1,3.6,5.5c0.2,0.3,0.4,0.6,0.5,0.9c0.1-0.4,0.1-0.8,0.2-1.2c0.2-1.3,0.4-2.5,0.7-3.8c0.1-0.3,0.1-0.7,0.2-1
		c-0.1-0.2,0.1-1.3,0.2-1.3c0.4-1.8,0.7-3.7,1.1-5.5c0-0.1,0-0.2,0.1-0.3c0.1-0.2,0.1-0.4,0.2-0.7c0.2-0.7,0.3-1.5,0.5-2.2v-0.1
		c0.2-0.7,0.3-1.4,0.5-2.1c0.4-1.7,0.8-3.3,1.3-4.9c0.1-0.5,0.3-0.9,0.4-1.4c-0.9-2.6-2.4-5.2-4.1-7.9c-1-1.6-2.2-3.1-3.4-4.7
		c-1.3-1.6-2.6-3.1-4-4.7c-4.7-5-10-9.6-14.6-12.9c6.3,2,14.4,8.6,19.6,12.9c0.1,0.1,0.3,0.3,0.4,0.4c1,0.8,2.6,2.4,4.1,4.3
		c1.2,1.5,2.4,3.1,3.3,4.7c0.3,0.6,0.6,1.1,0.8,1.6c0.2-0.5,0.5-1,0.8-1.6c0.2-0.5,0.4-0.9,0.7-1.3l-0.1,0.2
		c0.5-1.2,1.1-2.3,1.7-3.5c0.1-0.3,0.2-0.5,0.4-0.8c-0.4-1.3-0.9-2.6-1.5-3.9c-4.8-10.2-16.1-21.2-25.1-27.5
		c6.5,2.1,14.9,8.9,20,13.3c2.5,2.1,8.4,8.8,9.1,13.3c1.2-2.2,2.4-4.3,3.6-6.4c-5.9-11.6-27.8-30.3-44.1-39.2
		c6.5,2.1,33.5,19.5,38.7,23.8c2.1,1.7,6.3,6.5,8.2,10.7c0.8-1.3,1.6-2.7,2.4-4c0.6-1.1,1.2-2.1,1.8-3.1
		c-4.4-12.4-17-26.3-31.2-31.1c7.5,0.3,18.2,6.8,24.2,11.9c2.6,2.3,8.5,8.9,10.1,13.9c2.9-5.1,5.7-10.2,8.1-15.5
		c0.1-0.1,0.1-0.3,0.2-0.4l-0.5,0.5c-4.4-13.5-11.2-23.1-27.9-28.9c8.6,0.3,18.1,6.7,24.8,12.4c2.6,2.2,5.7,5.2,6.6,8.4
		c0.5-1.5,1.1-3,1.5-4.5C976.4,949,977.4,944.6,976.6,940.6z"/>
	<path fill="#5A4A40" d="M706.6,879.8c-0.1-0.1-0.1-0.2-0.1-0.2l-0.6-0.6l-0.8-0.8l-37.5-37.5c-0.9-0.8-2-1.3-3.2-1.3h-55.1
		c-1.2,0-2.4,0.5-3.2,1.3l-36.7,36.7l-1.7,1.7l-0.6,0.6c-0.3,0.3-0.5,0.8-0.8,1.2c-0.3,0.6-0.6,1.3-0.6,2v98.3
		c0,1.2,0.5,2.4,1.3,3.2l10.7,10.7l3.7,3.7l3.7,3.7l20.9,20.9c0.8,0.8,2,1.3,3.2,1.3h55.1c1.2,0,2.4-0.5,3.2-1.3l21.3-21.3l3.3-3.3
		l3.3-3.3l11.1-11.1c0.8-0.8,1.3-2,1.3-3.2v-98.3C707.8,881.7,707.3,880.7,706.6,879.8z M676.5,1001.5l-14.1,14.1H611l-13.8-13.8
		l-3.6-3.6l-3.7-3.6l-15.2-15.2v-94.6l5-5l1.5-1.5l1.5-1.5l28.3-28.3h51.4l29,29.1l0.8,0.7l0.7,0.8l5.8,5.8v94.6l-15.6,15.6
		l-3.3,3.3L676.5,1001.5z"/>
	<path fill="#5A4A40" d="M696.9,887.1l-8.4-8.5l-0.7-0.7l-0.7-0.7l-24.5-24.4c-0.4-0.4-1-0.7-1.6-0.7h-48.6c-0.6,0-1.2,0.2-1.6,0.7
		l-23.8,23.8l-1.4,1.4l-1.4,1.4l-7.7,7.7c-0.4,0.4-0.7,1-0.7,1.6v86.6c0,0.6,0.3,1.2,0.7,1.6l17.5,17.5l3.6,3.6l3.6,3.6l9.6,9.6
		c0.4,0.4,1,0.7,1.6,0.7H661c0.6,0,1.2-0.2,1.6-0.7l9.9-9.9l3.4-3.4l3.3-3.3l17.8-17.8c0.4-0.4,0.7-1,0.7-1.6v-86.6
		C697.6,888.1,697.3,887.5,696.9,887.1z M693,974.3l-20,20l-3.4,3.3l-3.4,3.4l-6.3,6.3h-46.7l-6-6l-3.6-3.6l-3.6-3.6l-19.7-19.7
		v-84.7l10.7-10.7l1.4-1.4l1.3-1.3l19.6-19.6H660l20.3,20.3l0.7,0.7l0.7,0.7l11.3,11.4V974.3z"/>
	<path fill="#5A4A40" d="M690.7,891.8l-7.5-7.9c-2.3-1.8-24.1-23.2-24.1-23.2h-45.3c0,0-10.4,11-15.2,15.4c-0.1,0.1-0.2,0.2-0.4,0.3
		c-0.3,0.3-0.6,0.6-0.9,0.9c-0.5,0.4-0.9,0.9-1.4,1.3c-1.9,1.7-3.8,3.5-5.6,5.3c-2.6,2.5-5.1,5.1-7.6,7.8l-0.5,80.1l30.4,31.3
		l48.4,0.2l29.4-31.5C690.4,971.7,690.2,916.5,690.7,891.8z M659.6,864.3c3.3,4.2,6.7,8.2,10.2,12.2c0.2,0.2,0.4,0.4,0.5,0.6
		c0.2,0.2,0.4,0.4,0.6,0.7c0.4,0.5,0.9,1.1,1.4,1.6c2.5,2.7,4.9,5.3,7.5,7.9c1.9,2,3.9,4,6,5.9l-0.9,0.7l-10.1,7.2
		c-7-6.6-13.9-13.3-20.9-19.8l1.4-4.2l0.2-0.5l0.2-0.5L659.6,864.3z M652,982.2l-0.4,0.3l-30.8-0.9c-6.7-7.2-13.5-14.2-20.2-21.3
		c0.1-4.7-0.1-9.4-0.1-14.2l-0.4-14.2c-0.1-4.7-0.4-9.4-0.6-14.2c-0.2-4.1-0.5-8.1-0.8-12.1l0.8-0.8c7.3-7.7,14.7-15.3,21.9-23.1
		l0.3-0.3l30.8,0.9c6.7,7.1,13.5,14.2,20.2,21.3c-0.1,4.7,0,9.4,0,14.2l0.4,14.2c0.1,4.7,0.4,9.5,0.6,14.2c0.2,4,0.5,8.1,0.8,12.1
		l-0.8,0.8C666.6,966.8,659.2,974.4,652,982.2z M654.3,992.5c0.1,0.4,0.2,0.8,0.2,1.1c0.3,1.2,0.6,2.4,0.8,3.6
		c0.2,0.8,0.4,1.5,0.6,2.3c-6.4-0.3-12.9-0.5-19.3-0.3l-19.5,0.5l0.7-2.6l1.1-3.7l2.7-9.5l30-0.9h0
		C651.8,983,653.9,990.6,654.3,992.5z M636.7,864.8l19.5-0.6l-3.4,11.7l-0.1,0.5l-0.1,0.5l-0.9,3.1l-30,0.9l-1.2-3.7l-0.1-0.3
		c0-0.2-0.1-0.3-0.1-0.5c-0.1-0.3-0.1-0.5-0.2-0.8c-0.3-1.4-0.6-2.8-0.9-4.2c-0.5-2.3-1.1-4.7-1.7-7
		C623.9,864.8,630.3,864.9,636.7,864.8z M593.6,887.2c2.5-2.6,5-5.2,7.5-7.9c0.3-0.3,0.6-0.7,1-1.1c0.3-0.4,0.7-0.8,1-1.2
		c0.3-0.4,0.6-0.7,0.9-1.1c3.3-3.7,6.6-7.6,9.7-11.5c1,2.6,2,5.2,3,7.8c0.5,1.2,0.9,2.3,1.4,3.5c0.1,0.3,0.2,0.5,0.3,0.8
		c0.1,0.3,0.2,0.6,0.4,0.9l0,0l1,3.5c-7.3,6.8-14.4,13.7-21.6,20.5l-10.7-8.3C589.6,891.1,591.7,889.2,593.6,887.2z M584.9,896.3
		l12.4,8.7l0.6,0.4c-0.3,4.1-0.6,8.3-0.8,12.4c-0.2,4.7-0.5,9.4-0.6,14.2l-0.4,14.2c0,4.3-0.1,8.7-0.1,13l-9.8,7.5
		C585.8,943.2,585.5,919.8,584.9,896.3z M612,997.4c-1-1.2-2-2.4-3-3.6c-2.6-3.1-5.2-6.1-7.9-9.1c-2.5-2.7-4.9-5.3-7.5-7.9
		c-1.9-2-4-4-6-5.9l1-0.8l10.1-7.2c6.9,6.6,13.9,13.3,20.9,19.8l-3.7,10.8l-1.3,3.8l-0.8,2.4C613.2,998.9,612.6,998.1,612,997.4z
		 M661.5,997.4c-0.6,0.7-1.2,1.4-1.7,2.1c-0.3-0.8-0.6-1.5-0.9-2.2c-0.5-1.2-0.9-2.4-1.4-3.6c-0.2-0.7-3.9-10.7-3.9-10.7
		c7.3-6.8,14.4-13.7,21.6-20.5l10.6,8.3C683.8,972.8,662.4,996.2,661.5,997.4z M676.1,958.9l-0.6-0.4c0.4-4.1,0.6-8.2,0.8-12.4
		c0.2-4.7,0.5-9.4,0.6-14.2l0.4-14.2c0-4.3,0.1-8.7,0.1-13l9.8-7.6c0.4,23.5,0.7,46.9,1.3,70.4L676.1,958.9z"/>
</g>
<g>
	<path fill="#5B4A40" d="M200.5,208.7c-4,1.6-9.1,2.5-15.1,2.5c-6.1,0-10.7-1.2-13.9-3.7c-3.1-2.5-4.7-6.8-4.7-13
		c0-5.7-0.5-9.7-1.4-12c-0.9-2.3-2.1-4-3.7-5.2c-1.5-1.2-3.7-1.8-6.5-1.8h-7.5v34.4h-26.5v-88.6H171c6.6,0,12.3,2,17.1,5.9
		c5,4.3,7.5,9.6,7.5,16c0,4.7-1.5,9.2-4.6,13.4c-3.1,4.2-6.8,6.7-11.3,7.6v0.6c5,1.5,8.6,4.3,10.9,8.5c2.2,4.2,3.4,8.9,3.4,14.3
		c0,6.3,0.9,10.8,2.8,13.4c0.9,1.2,2.1,2,3.7,2.5V208.7z M147.8,155.8h13.7c1.8,0,3.3-0.6,4.6-1.9c1.2-1.2,1.9-2.8,1.9-4.6V148
		c0-1.8-0.6-3.3-1.9-4.6c-1.3-1.2-2.8-1.9-4.6-1.9h-13.7V155.8z"/>
	<path fill="#5B4A40" d="M208.7,181.7v-60.4H236v60.1c0,2.8,1,5.2,3,7c2,1.8,4.5,2.7,7.4,2.7c2.9,0,5.4-0.9,7.4-2.7c2-1.8,3-4.1,3-7
		v-60.1H284v60.4c0,8.9-3.2,16-9.6,21.4c-6.2,5.3-14.6,8-25.3,8h-5.6c-10.7,0-19.1-2.7-25.3-8C211.9,197.8,208.7,190.6,208.7,181.7z
		"/>
	<path fill="#5B4A40" d="M355.1,164.2c11.3,2.5,16.9,9.9,16.9,22.1c0,6.5-2.4,12.1-7.2,16.7c-4.8,4.6-10.6,6.9-17.4,6.9h-49.3v-88.6
		h48.6c6.5,0,11.9,2.1,16.4,6.3c4.6,4.2,6.8,9.3,6.8,15.4c0,8.9-3.1,15-9.2,18.3c-1.8,0.9-3.7,1.7-5.7,2.3V164.2z M323,155.3h14.9
		c1.8,0,3.3-0.6,4.6-1.9c1.2-1.2,1.9-2.8,1.9-4.6v-2.2c0-1.8-0.6-3.3-1.9-4.6c-1.3-1.2-2.8-1.9-4.6-1.9H323V155.3z M323,189.4h16.4
		c1.8,0,3.3-0.6,4.6-1.9c1.2-1.2,1.9-2.8,1.9-4.6v-2.3c0-1.8-0.6-3.3-1.9-4.6c-1.2-1.2-2.8-1.9-4.6-1.9H323V189.4z"/>
	<path fill="#5B4A40" d="M374.3,121.3h30.5l13.3,29.1h0.7l13.6-29.1h27.8l-29.3,54.8v33.8h-27v-33.8L374.3,121.3z"/>
	<path fill="#5B4A40" d="M466.3,209.9v-88.6h26.4v35l25.3-35h30l-27,35.5l27.8,53.1h-30.4l-15.4-32l-10.3,12.4v19.6H466.3z"/>
	<path fill="#5B4A40" d="M546.7,209.9l29.6-88.6H610l29.6,88.6h-28.2l-5.3-15.8H578l-5.2,15.8H546.7z M584.2,175.4H600l-7.5-26.9
		h-0.6L584.2,175.4z"/>
	<path fill="#5B4A40" d="M643.6,209.9v-19.1h10.5v-50.5h-10.5v-19h48.3v19h-10.5v50.5h10.5v19.1H643.6z"/>
	<path fill="#5B4A40" d="M781.3,191.3c0,7.2,0.3,13.4,0.9,18.6h-14.5l-3.6-9.4c-2.7,3-6.4,5.6-11.1,7.6c-4.6,2.1-9.3,3.1-14.2,3.1
		h-1.3c-10.6,0-19.4-3.8-26.5-11.4c-7-7.4-10.5-16.5-10.5-27.4v-13.7c0-5.3,1-10.4,3-15.1c2-4.7,4.8-8.8,8.5-12.3
		c7.8-7.6,17.7-11.4,29.7-11.4h3.6c9.8,0,18.2,3,25.2,9c7.1,6.2,10.7,13.9,10.7,23.2v0.9h-25.1c0-4.6-1.3-7.9-3.8-9.9
		c-2.5-2.1-5.6-3.1-9.1-3.1h-0.6c-3.6,0-6.7,1.3-9.2,3.7c-2.5,2.5-3.7,5.6-3.7,9.2V178c0,3.6,1.2,6.7,3.7,9.2
		c2.5,2.5,5.6,3.7,9.2,3.7h2.3c3.6,0,6.4-1.2,8.3-3.5c1.9-2.3,2.9-5.5,2.9-9.6h-15v-17.6h40V191.3z"/>
	<path fill="#5B4A40" d="M791.5,209.9v-19.1H802v-50.5h-10.5v-19h48.3v19h-10.5v50.5h10.5v19.1H791.5z"/>
	<path fill="#5B4A40" d="M849,209.9v-4.6c0-4.9,0.8-9.1,2.3-12.6s4.2-6.7,8.1-9.8l25.6-20.2c4.7-3.7,7-8.2,7-13.6
		c0-2.5-0.9-4.6-2.6-6.4c-1.8-1.8-3.9-2.6-6.4-2.6h-1.7c-2.5,0-4.6,0.9-6.4,2.6c-1.8,1.7-2.7,3.9-2.7,6.5v3.6h-22.7v-2.5
		c0-8.8,2.8-16,8.5-21.6c6.1-5.9,14.2-8.8,24.4-8.8h4c9.5,0,17.1,2.7,23,8c5.8,5.3,8.7,12.2,8.7,20.7c0,4.5-0.8,8.4-2.3,11.6
		c-2.8,5.9-8.7,12-17.4,18.1l-14.1,9.8h34v21.7H849z"/>
	<path fill="#5B4A40" d="M928.4,178.9v-26.6c0-9,3.1-16.6,9.4-22.9c6.3-6.3,13.9-9.4,22.9-9.4h5.8c9,0,16.6,3.1,22.9,9.4
		c6.3,6.3,9.4,13.9,9.4,22.9v26.6c0,9-3.1,16.6-9.4,22.9c-6.3,6.3-13.9,9.4-22.9,9.4h-5.8c-9,0-16.6-3.1-22.9-9.4
		C931.6,195.5,928.4,187.9,928.4,178.9z M954,182.1c0,2.8,0.9,5.3,2.8,7.3c1.9,2,4.2,3,6.9,3c2.7,0,4.9-1,6.8-3
		c1.9-2,2.8-4.5,2.8-7.3v-33.2c0-2.8-0.9-5.3-2.8-7.3c-1.9-2-4.1-3-6.8-3c-2.8,0-5.1,1-6.9,3c-1.9,2-2.8,4.5-2.8,7.3V182.1z"/>
	<path fill="#5B4A40" d="M1012.8,209.9v-19.8h19.6v-41.3h-19.6v-14.9c8.4-0.5,17.9-3.5,28.3-9c2.9-1.6,5.6-3.3,8-4.9h8.7v70.1h18.9
		v19.8H1012.8z"/>
	<path fill="#5B4A40" d="M1085.6,190.4v-19.2c2-3.4,4.5-8.5,7.6-15.5l3.9-9.6c4.4-10.6,7.3-19.3,8.7-26.1h22.9
		c-1,6.4-4.4,15.3-10.5,26.7c-5.9,11.1-11.1,19.3-15.8,24.7h19.4v-13.2c3.4-4.7,7.2-12.4,11.4-22.9c1-2.8,1.8-5,2.2-6.8h10.7v42.9
		h12.7v19h-12.7v19.5h-24.3v-19.5H1085.6z"/>
</g>
<path fill="#5B4A40" d="M1240,40v1200H40V40H1240 M1280,0H0v1280h1280V0L1280,0z"/>
</svg>
