<?xml version="1.0" encoding="utf-8"?>
<!-- Generator: Adobe Illustrator 18.0.0, SVG Export Plug-In . SVG Version: 6.00 Build 0)  -->
<!DOCTYPE svg PUBLIC "-//W3C//DTD SVG 1.1//EN" "http://www.w3.org/Graphics/SVG/1.1/DTD/svg11.dtd">
<svg version="1.1" id="レイヤー_1" xmlns="http://www.w3.org/2000/svg" xmlns:xlink="http://www.w3.org/1999/xlink" x="0px"
	 y="0px" viewBox="228 927.9 600 500" enable-background="new 228 927.9 600 500" xml:space="preserve">
<g>
	<path fill="#5A4A40" d="M367,1273.5c-0.2-2.2-0.3-4.4-0.4-6.7c-4.5-92.5-43.6-255.7-49.4-279.9c12.2-1.1,58-5.3,93.2-8.9
		c59.3-6,107.9-29.5,116.3-33.7c8.3,4.2,56.9,27.7,116.3,33.7c35.1,3.6,80.9,7.8,93.2,8.9c-5.9,24.2-44.9,187.4-49.4,279.9
		c-0.1,2.7-0.3,5.4-0.6,8c0.7,0.1,1.5,0.2,2.2,0.3l3.1,0.5c0.2-2.8,0.5-5.6,0.6-8.5c4.9-99.1,49.6-280.1,50-281.9l0.7-3l-3.1-0.3
		c-0.6,0-55.6-5.1-96.2-9.2c-63.8-6.4-115.1-33.5-115.6-33.7l-1.2-0.7l-1.3,0.7c-0.5,0.3-51.7,27.3-115.6,33.7
		c-40.6,4.1-95.6,9.1-96.2,9.2l-3.1,0.3l0.8,3c0.5,1.8,45.1,182.8,50,281.9c0.1,2.5,0.3,4.8,0.5,7.2l2-0.3
		C364.8,1273.8,365.9,1273.7,367,1273.5z"/>
	<path fill="#5A4A40" d="M526.5,1417.5l1.9-2c0.2-0.2,23-23.7,49.9-28c19.4-3.1,60-9.7,87-42.7c0.1-1.2,0.2-2.4,0.3-3.6
		c-0.5-0.1-0.9-0.3-1.4-0.4l-2.2-0.1c-25.4,32-64.1,38.2-84.6,41.5c-24.3,3.9-44.7,21.7-51,27.7c-6.2-6-26.7-23.8-51-27.7
		c-20.3-3.3-58.4-9.4-83.8-40.6l-3.7,0.2c-0.5,0.1-1,0.3-1.5,0.4c0,0.4,0.1,0.8,0.1,1.2c27.1,34.2,68.4,40.9,88.1,44.1
		c26.9,4.3,49.6,27.8,49.9,28L526.5,1417.5"/>
	<path fill="#5A4A40" d="M570.9,1354.6c-20,3.2-37.2,16.5-44.9,23.4c-7.7-6.8-24.8-20.1-44.9-23.4c-12-1.9-31.2-5.1-49.2-15.4
		l-19.5,1.2c23.4,19.1,51.9,23.7,66.8,26.1c22.7,3.7,42.3,23.7,42.5,23.9l4.3,4.5l4.3-4.5c0.2-0.2,19.7-20.2,42.5-23.9
		c15.1-2.4,44.1-7.1,67.7-26.9l-19.3-1C603,1349.4,583.2,1352.6,570.9,1354.6z"/>
	<path fill="#5A4A40" d="M386.9,1255.1c-3.9-78.8-35.6-214.5-43.2-246.3c14.9-1.4,50.8-4.7,79-7.6c51.1-5.2,92.4-24.2,103.4-29.6
		c11,5.5,52.3,24.4,103.4,29.6c28.2,2.8,64.1,6.2,78.9,7.6c-7.6,31.8-39.3,167.6-43.2,246.3c-0.3,5.9-0.9,11.5-1.7,16.7
		c4,0.5,8,1,12,1.6c0.9-5.6,1.5-11.4,1.8-17.7c4.3-88.1,44.1-249.2,44.5-250.8l1.7-6.8l-7-0.6c-0.5,0-49.6-4.5-85.8-8.2
		c-56.2-5.7-101.3-29.5-101.8-29.7l-2.8-1.5l-2.8,1.5c-0.4,0.3-45.6,24-101.8,29.7c-36.2,3.7-85.3,8.1-85.8,8.2l-7,0.6l1.7,6.8
		c0.4,1.6,40.2,162.8,44.5,250.8c0.3,5.8,0.8,11.3,1.6,16.5c4-0.5,8-1.1,11.9-1.6C387.7,1265.8,387.2,1260.6,386.9,1255.1z"/>
	<path fill="#5A4A40" d="M445.7,1100.1c-1.3-2.8-2-11.2-2-25.4c0-8.2,0.8-14.2,2.5-17.9c-1.4,0.3-2.6,1.3-3.6,3
		c-0.6,1-1.2,2.3-1.7,3.9c-0.5,1.7-1.1,3.8-1.6,6.5c-0.5,2.7-1.1,4.6-1.7,5.7c-0.6,1-1.9,1.8-4,2.5c2.8,1,4.5,3.2,5.1,6.6l0.6,3.3
		C440.7,1095.6,442.8,1099.6,445.7,1100.1z"/>
	<path fill="#5A4A40" d="M460.9,1263.2c8.4-0.6,16.8-1.2,25.2-1.6l21.7-21.7c0.5-0.5,1.2-0.8,1.9-0.8h32.6c0.7,0,1.4,0.3,1.9,0.8
		l22.2,22.2c8.2,0.5,16.4,1.1,24.6,1.8c21.7,1.8,43.2,4.2,64.8,6.9c1.1,0.1,2.1,0.3,3.2,0.4c1.5-6.9,2.5-14.5,2.9-22.7
		c4-80.5,40.3-227.6,40.6-229l0.7-3l-3.1-0.3c-0.4,0-45.2-4.1-78.2-7.5c-51.8-5.2-93.3-27.2-93.7-27.4l-1.3-0.7l-1.3,0.7
		c-0.4,0.2-42,22.1-93.8,27.4c-33,3.3-77.7,7.4-78.2,7.5l-3.1,0.3l0.8,3c0.4,1.5,36.7,148.6,40.6,229c0.4,7.7,1.3,14.8,2.6,21.3
		c0.4,0,0.9-0.1,1.3-0.2C417.6,1267.1,439.3,1264.9,460.9,1263.2z M485.6,1209.9c0,0-1.1,0.1-3,0.2c-1,0.1-2.1,0.1-3.4,0.2
		c-1.3,0.1-2.8,0.2-4.5,0.3c-1.6,0.1-3.4,0.2-5.3,0.3c-1.9,0.1-3.8,0.2-5.9,0.3c-2,0.1-4.1,0.2-6.3,0.3c-2.2,0.1-4.3,0.2-6.5,0.3
		c-2.2,0.1-4.3,0.2-6.5,0.3c-1.1,0.1-2.1,0.1-3.2,0.1c-1,0-2.1,0.1-3.1,0.2c-0.2,0-0.5,0-0.8,0.1l-0.2,0H437h0h0l0,0h-0.1l-0.2,0
		c-0.1,0,0,0-0.1,0l-0.1,0l-0.1,0c-0.1,0-0.1,0.1-0.2,0.1c-0.1,0.1-0.3,0.1-0.4,0.2c-0.5,0.3-0.9,0.6-1.2,0.9
		c-0.6,0.7-1.1,1.4-1.4,2.3c-0.2,0.9-0.2,1.8,0.1,2.7c0.3,0.9,0.8,1.6,1.3,2.2c0.5,0.6,1.1,1,1.6,1.3c0.2,0.1,0.4,0.2,0.5,0.3
		c0.1,0.1,0.2,0.1,0.2,0.1v0.6c0,0-0.1,0-0.2,0.1c-0.1,0.1-0.3,0.1-0.6,0.2c-0.6,0.1-1.5,0.3-2.7,0c-1.2-0.2-2.6-0.8-3.9-2.2
		c-0.6-0.6-1.2-1.5-1.6-2.4c-0.2-0.5-0.4-1-0.5-1.6l0-0.2l0-0.2c0-0.1,0-0.3-0.1-0.4l0-0.1l0-0.1c0,0,0-0.2,0-0.1v0v0
		c0-0.1,0-0.3,0-0.4c0-1.1,0.2-2.4,0.6-3.6c-1.1,0.8-2.3,1.4-3.2,1.4c-2.2,0-4-1.8-4-4s1.8-4,4-4c0.9,0,2.1,0.6,3.2,1.4
		c-0.5-1.2-0.7-2.4-0.6-3.6c0-0.2,0-0.3,0-0.4v0v0c0,0.1,0-0.1,0-0.1l0-0.1l0-0.2c0-0.1,0-0.3,0.1-0.4l0-0.2l0-0.2
		c0.1-0.6,0.3-1.1,0.5-1.6c0.4-1,1-1.8,1.6-2.4c1.3-1.3,2.7-1.9,3.9-2.2c1.2-0.2,2.1-0.1,2.7,0c0.3,0.1,0.5,0.2,0.6,0.2
		c0.1,0,0.2,0.1,0.2,0.1v0.6c0,0-0.1,0-0.2,0.1c-0.1,0.1-0.3,0.2-0.5,0.3c-0.4,0.3-1,0.7-1.6,1.3c-0.5,0.6-1,1.4-1.3,2.2
		c-0.3,0.9-0.3,1.8-0.1,2.7c0.3,0.9,0.7,1.6,1.4,2.3c0.3,0.3,0.7,0.7,1.2,0.9c0.1,0,0.2,0.1,0.4,0.2c0.1,0,0.1,0.1,0.2,0.1l0.1,0
		l0.1,0c0,0,0,0,0.1,0l0.2,0l0.1,0h0h0h0h0.1l0.2,0c0.3,0,0.5,0,0.8,0.1c1,0.1,2.1,0.1,3.1,0.2c1,0,2.1,0.1,3.2,0.1
		c2.1,0.1,4.3,0.2,6.5,0.3c2.2,0.1,4.4,0.2,6.5,0.3c2.1,0.1,4.2,0.2,6.3,0.3c2,0.1,4,0.2,5.9,0.3c1.9,0.1,3.6,0.2,5.3,0.3
		c1.6,0.1,3.1,0.2,4.5,0.3c1.3,0.1,2.5,0.2,3.4,0.2c1.9,0.1,3,0.2,3,0.2V1209.9z M522.7,1195.6l-1.8,1.9l-4.5,10.7l5.1,13l1.2,1.9
		v1.2h-1.2h-3.8v-1.2h0.6l0.6-0.6v-0.7l-4-10.3l-4.1,9.7l1.3,1.9v1.2h-4.4v-1.2h0.6l0.6-0.6l5.3-12.5l-5.3-13.7l-0.6-0.6h-0.6v-1.2
		h4.4h1.2v1.2l-1.2,1.9l3.6,9.2l4.4-10.5l-0.6-0.6h-0.6v-1.2h1.2h1.3h1.2V1195.6z M548.4,1195.6l-1.6,1.9l-5.3,26.8h-1.3h-1.8
		l-6.3-28.1l-0.6-0.6h-0.6v-1.2h4.4h1.2v1.2l-1.2,1.9l5.5,24l5.1-25.2l-0.6-0.6h-0.6v-1.2h1.2h1.2h1.3V1195.6z M629.5,1213.6
		c-0.9,0-2.1-0.6-3.2-1.4c0.5,1.2,0.7,2.4,0.7,3.6c0,0.2,0,0.3,0,0.4v0l0,0c0-0.1,0,0.1,0,0.1v0.1l0,0.1c0,0.1,0,0.3-0.1,0.4l0,0.2
		l0,0.2c-0.1,0.6-0.3,1.1-0.5,1.6c-0.4,1-1,1.8-1.6,2.4c-1.3,1.3-2.7,1.9-3.9,2.2c-1.2,0.2-2.1,0.1-2.7,0c-0.3-0.1-0.5-0.2-0.7-0.2
		c-0.1-0.1-0.2-0.1-0.2-0.1v-0.6c0,0,0.1,0,0.2-0.1c0.1-0.1,0.3-0.2,0.5-0.3c0.4-0.3,1-0.7,1.6-1.3c0.5-0.6,1-1.4,1.3-2.2
		c0.3-0.9,0.3-1.8,0-2.7c-0.3-0.9-0.7-1.6-1.4-2.3c-0.3-0.3-0.7-0.7-1.2-0.9c-0.1-0.1-0.3-0.1-0.4-0.2c-0.1,0-0.1-0.1-0.2-0.1
		l-0.1,0l-0.1,0c0,0,0,0-0.1,0l-0.2,0h-0.1l0,0c0,0,0,0,0,0h0h0l-0.2,0c-0.3,0-0.5,0-0.8-0.1c-1-0.1-2.1-0.1-3.1-0.2
		c-1,0-2.1-0.1-3.2-0.1c-2.1-0.1-4.3-0.2-6.5-0.3c-2.2-0.1-4.4-0.2-6.5-0.3c-2.1-0.1-4.2-0.2-6.3-0.3c-2-0.1-4-0.2-5.9-0.3
		c-1.9-0.1-3.6-0.2-5.3-0.3c-1.6-0.1-3.1-0.2-4.4-0.3c-1.3-0.1-2.5-0.2-3.4-0.2c-1.9-0.1-3-0.2-3-0.2v-0.6c0,0,1.1-0.1,3-0.2
		c0.9-0.1,2.1-0.1,3.4-0.2c1.3-0.1,2.8-0.2,4.4-0.3c1.6-0.1,3.4-0.2,5.3-0.3c1.9-0.1,3.8-0.2,5.9-0.3c2-0.1,4.1-0.2,6.3-0.3
		c2.1-0.1,4.3-0.2,6.5-0.3c2.2-0.1,4.4-0.2,6.5-0.3c1.1,0,2.1-0.1,3.2-0.1c1.1,0,2.1-0.1,3.1-0.2c0.3,0,0.5,0,0.8-0.1l0.2,0h0h0h0h0
		l0.1,0l0.2,0c0.1,0,0.1,0,0.1,0l0.1,0l0.1,0c0.1,0,0.1,0,0.2-0.1c0.1,0,0.3-0.1,0.4-0.2c0.5-0.3,0.9-0.6,1.2-0.9
		c0.7-0.7,1.1-1.4,1.4-2.3c0.2-0.9,0.2-1.8,0-2.7c-0.3-0.9-0.8-1.7-1.3-2.2c-0.5-0.6-1.1-1-1.6-1.3c-0.2-0.1-0.4-0.2-0.5-0.3
		c-0.1-0.1-0.2-0.1-0.2-0.1v-0.6c0,0,0.1,0,0.2-0.1c0.2,0,0.4-0.1,0.7-0.2c0.6-0.1,1.5-0.3,2.7,0c1.2,0.2,2.6,0.9,3.9,2.2
		c0.6,0.6,1.2,1.5,1.6,2.4c0.2,0.5,0.4,1,0.5,1.6l0,0.2l0,0.2c0,0.2,0.1,0.3,0.1,0.4l0,0.2v0.1c0,0,0,0.1,0,0.1l0,0v0
		c0,0.2,0,0.3,0,0.4c0,1.1-0.2,2.4-0.7,3.6c1.1-0.8,2.3-1.4,3.2-1.4c2.2,0,4,1.8,4,4S631.7,1213.6,629.5,1213.6z M538.4,1104
		l-3.5-1.8c4.7-2.2,7.7-4.6,8.9-7.1c0.6-1.2,0.9-2.6,0.9-4.3V1057c-1.8-4.1-5.1-6.2-9.9-6.2c-1.8,0-3.3,0.5-4.5,1.4
		c-0.6-0.8-0.9-1.7-0.9-2.8c0-1,0.3-2,0.9-2.9c0.6-0.9,1.5-1.7,2.5-2.3c2.4-1.5,5.2-2.2,8.4-2.2c3.1,0,6,0.9,8.8,2.6
		c2.4-1.7,5.3-2.6,8.7-2.6c3.4,0,6.4,0.9,9,2.6c2.5-1.7,5.3-2.6,8.4-2.6c4.5,0,7.8,1.5,9.8,4.6c0.6,1,0.9,2,0.9,3
		c0,1.1-0.3,1.9-1,2.6c-1.2-0.9-2.6-1.4-4.4-1.4c-4.1,0-6.8,2-8.2,6v41.1l36.8-43.6c0-2.4-1.3-3.6-4-3.6c-2.7,0-4.9,0.5-6.6,1.5
		c-0.6-1-0.9-2.2-0.9-3.7c0-1.5,0.8-3,2.4-4.4c1.6-1.4,3.8-2.2,6.7-2.2c2.9,0,5.2,0.7,7.1,2.1c1.9-1.4,4-2.1,6.3-2.1
		c2.3,0,4.3,0.7,6.1,2.2c1.8-1.4,3.7-2.2,5.5-2.2c1.9,0,3.4,0.2,4.4,0.5c1.1,0.3,2,0.8,2.8,1.4c1.9,1.4,2.8,2.9,2.8,4.7
		c0,1.7-0.3,3-0.8,3.8c-1.1-0.4-2.4-0.6-3.8-0.6c-2.9,0-5.1,0.3-6.4,0.9c-1.4,0.6-2.7,1.3-3.9,2c-1.3,0.7-2.5,1.6-3.8,2.6l-3.7,2.7
		c-1.2,1-2.2,1.8-3,2.6l-18.3,21.5l33.7,61.3c4.2,7.5,7.5,11.7,10,12.8c0.9,0.4,2.1,0.6,3.5,0.6c1.5,0,2.8-0.4,3.9-1.4
		c0.6,0.8,0.9,1.7,0.9,2.8c0,1-0.3,2-0.9,2.9c-0.6,0.9-1.4,1.7-2.3,2.3c-2.2,1.5-5,2.2-8.3,2.2c-3.4,0-6.4-0.9-9.1-2.6
		c-2.7,1.7-5.8,2.6-9.3,2.6c-3.5,0-6.6-0.9-9.3-2.6c-2.7,1.7-5.7,2.6-8.9,2.6c-3.2,0-5.7-0.7-7.5-2.2c-1.8-1.5-2.7-3.2-2.7-5.2
		c0-1.1,0.3-2,0.9-2.8c1.2,0.9,2.7,1.4,4.5,1.4c3.4,0,5.8-1.3,7.4-3.9l-24.7-49.4l-7.4,8.7v38.6c1.4,4,4.1,6,8.2,6
		c1.8,0,3.2-0.4,4.4-1.4c0.6,0.7,1,1.6,1,2.6c0,1.1-0.3,2.1-0.9,3c-0.6,1-1.4,1.8-2.4,2.5c-2,1.4-4.5,2.1-7.4,2.1
		c-3,0-5.8-0.8-8.4-2.5c-2.7,1.6-5.7,2.5-9,2.5c-3.4,0-6.2-0.9-8.6-2.6c-2.7,1.7-5.2,2.6-7.5,2.6c-2.3,0-4.2-0.2-5.7-0.6
		c-1.5-0.4-2.8-0.9-3.9-1.6c-2.3-1.4-3.4-3.1-3.4-5.2c0-1.1,0.3-2,0.9-2.8c1.2,0.9,2.7,1.4,4.5,1.4c4.8,0,8-2,9.9-6.1v-39.1
		C544.7,1109.3,542.6,1106.1,538.4,1104z M529.6,1194.4v1.3l-1.2,1.8v3.8v5.4v3.3v3.1v8.1l1.2,1.8v1.3H524v-1.3h0.6l0.6-1.2v-25.6
		l-0.6-0.6H524v-1.3H529.6z M406.1,1157.3c1.2,0.9,2.6,1.4,4.4,1.4c1.8,0,3.4-0.3,4.9-1c5-2.2,7.4-7.2,7.4-14.9v-8
		c0-6.3,1.8-11.8,5.3-16.4c3.4-4.5,7.8-7.4,13.2-8.9c-10.4-2.6-17-9.2-19.6-19.8c-1.3-5.1-4-8.9-8.2-11.2c4.4-2,6.9-5,7.6-9
		c1.8-8.8,6.2-15.7,13.4-20.7c3.6-2.4,7.8-4.3,12.8-5.7c4.9-1.3,11.1-2,18.4-2c7.3,0,14,1.2,20,3.4c2.8-1.8,5.9-2.6,9.3-2.6
		c3.4,0,6.5,0.9,9.3,2.6c2.7-1.8,5.6-2.6,8.8-2.6c3.2,0,6,0.7,8.4,2.2c1.1,0.7,1.9,1.4,2.5,2.3c0.6,0.9,0.9,1.9,0.9,2.9
		c0,1-0.3,2-0.9,2.8c-1.2-0.9-2.7-1.4-4.5-1.4c-4.8,0-8,2.1-9.8,6.2v33.7c0,2.6,0.9,5,2.7,7c1.1,1.3,3.4,2.7,7,4.4
		c-3.9,1.9-6.6,3.9-8.2,5.8c-1,1.2-1.5,3-1.5,5.4v39.1c1.8,4.1,5.1,6.1,9.8,6.1c1.8,0,3.3-0.4,4.5-1.4c0.6,0.8,0.9,1.7,0.9,2.8
		c0,2.1-1.1,3.8-3.4,5.2c-1.1,0.7-2.4,1.2-3.9,1.6c-1.5,0.4-3.4,0.6-5.7,0.6c-2.3,0-4.8-0.9-7.6-2.6c-2.7,1.7-5.8,2.6-9.3,2.6
		c-3.5,0-6.6-0.9-9.3-2.6c-2.6,1.7-5.6,2.6-9,2.6c-3.4,0-5.9-0.7-7.6-2.2c-1.7-1.5-2.5-3-2.5-4.5c0-1.5,0.3-2.7,0.9-3.5
		c1.2,0.9,2.7,1.4,4.5,1.4c4.1,0,6.8-1.9,8.2-5.7v-39h-9.4c-3.1,0-5.9,0.6-8.2,1.8c-7,3.7-10.6,11.7-10.6,24v5.9
		c0,7.6-1.3,13.3-3.8,17c-1.2,1.7-2.5,2.9-4,3.7c-1.5,0.7-3.1,1.1-4.8,1.1c-1.7,0-3.2-0.5-4.7-1.4c-3.9,2-8.1,1.7-12.5-0.7
		c-2.5,1.4-5,2.1-7.5,2.1c-2.6,0-4.8-0.7-6.7-2.2c-0.9-0.6-1.6-1.4-2.2-2.3c-0.5-0.9-0.8-1.9-0.8-2.9
		C405.2,1159,405.5,1158,406.1,1157.3z"/>
	<path fill="#5A4A40" d="M459.3,1102.7c1.6,0.4,4.5,0.7,8.6,0.7c4.1,0,7.2-0.5,9.2-1.4c2.2-1,3.3-2.8,3.3-5.6v-32.7
		c0-8-5.1-11.9-15.3-11.9c-1.8,0-3.6,0.3-5.2,0.9c-5.5,1.9-8.3,6.1-8.3,12.8v23.4c0,5.4,1.2,9.2,3.6,11.5
		C456.3,1101.4,457.7,1102.2,459.3,1102.7z"/>
	<path fill="#5A4A40" d="M560.6,1335.5c-1.2,0-2.5-0.1-3.7-0.2l-12.6,12.6c-0.5,0.5-1.2,0.8-1.9,0.8h-32.6c-0.7,0-1.4-0.3-1.9-0.8
		l-12.4-12.4c-1.3,0.1-2.6,0.1-3.9,0.2l-34.6,1.9l-6.3,0.4c13.4,5.3,26.1,7.4,34.3,8.7c21.7,3.5,40.1,22.4,40.3,22.6l1.9,2l1.9-2
		c0.2-0.2,18.5-19.1,40.3-22.6c8.4-1.3,21.5-3.5,35.3-9.1l-9.4-0.5L560.6,1335.5z"/>
	<path fill="#5A4A40" d="M551.2,1106.2c0.6,2.6,1,11.9,1,28.1v10.4c2.7-1,4.1-4.5,4.4-10.5c0.3-6,0.5-14.2,0.5-24.8
		c0-10.6,0-17.6,0-21.1c0-3.5-0.1-6.3-0.1-8.4c-0.2-6.3-0.8-10.1-1.8-11.4c-1-1.3-2-2.2-2.9-2.6c0,18.6-0.3,29.1-1,31.7
		c-0.7,2.1-2.6,3.6-5.4,4.6C549,1103.3,550.8,1104.6,551.2,1106.2z"/>
	<path fill="#5A4A40" d="M609.5,1140.9c0-3.6-1.2-7.8-3.7-12.4l-15.6-32l-3.6,3.8l22,44.4C609.2,1143.8,609.5,1142.6,609.5,1140.9z"
		/>
	<path fill="#5A4A40" d="M502.2,1144.7v-10.4c0-16.2,0.3-25.5,1-28.1c0.4-1.6,2.3-3,5.4-4.1c-2.9-0.9-4.7-2.4-5.4-4.6
		c-0.6-2.6-1-13.1-1-31.7c-0.9,0.4-1.9,1.3-2.9,2.6c-1,1.3-1.6,5.1-1.8,11.4c-0.1,2.1-0.1,4.9-0.1,8.4c0,3.5,0,10.5,0,21.1
		c0,10.6,0.2,18.8,0.5,24.8C498,1140.2,499.5,1143.7,502.2,1144.7z"/>
	<path fill="#5A4A40" d="M438.5,1156.3c3.5-0.6,5.3-5.3,5.3-14.1v-10.6c0-3.5,1.1-6.4,3.2-8.8c-2.4-0.4-4.6,0.8-6.6,3.8
		c-1.2,1.8-1.8,4.7-1.8,9v11.2c0,3.3-1,6.4-2.9,9.4C436.6,1156.4,437.5,1156.5,438.5,1156.3z"/>
	<path fill="#5A4A40" d="M716.5,1214.7l-1.2-1l-1,1c-2.8,3-5,6.2-6.8,9.8c-1.7,3.6-2.8,7.6-2.8,11.5c0.1,4.1,1.4,7.9,3.3,11.3
		c1.9,3.4,4.3,6.5,7.1,9.1l0.1,0.1l0.1-0.1c3.1-2.3,5.8-5.3,7.9-8.7c2.1-3.4,3.5-7.4,3.7-11.6c0.1-4.3-1.1-8.4-3-12
		C722.1,1220.5,719.6,1217.4,716.5,1214.7z M722.9,1236.1c0.1,3.5-0.8,7-2.2,10.4c-1.4,3.3-3.3,6.5-5.5,9.5
		c-2.5-2.7-4.6-5.9-6.1-9.2c-1.6-3.4-2.5-7.1-2.4-10.7c0.1-3.7,1.3-7.2,3.1-10.4c1.5-2.7,3.4-5.2,5.5-7.4c-0.3-0.4-0.6-0.8-1-1.3
		h2.2c-0.4,0.4-0.8,0.8-1.2,1.3c1.9,2.4,3.6,5.1,4.9,7.8C721.8,1229.3,722.9,1232.7,722.9,1236.1z"/>
	<path fill="#5A4A40" d="M714.3,1217c0.3,0.4,0.7,0.8,1,1.3c0.4-0.4,0.8-0.8,1.2-1.3H714.3z"/>
	<path fill="#5A4A40" d="M759.7,1262.4v-2.2c-0.4,0.3-0.8,0.7-1.3,1C758.9,1261.6,759.3,1262,759.7,1262.4z"/>
	<path fill="#5A4A40" d="M752.2,1253.4c-3.6-1.7-7.6-2.8-11.6-2.7c-4,0.2-7.9,1.5-11.3,3.4c-3.4,1.9-6.5,4.3-9.1,7.1l-0.1,0.1
		l0.1,0.2c2.4,3.1,5.3,5.8,8.8,7.8c3.4,2,7.4,3.5,11.7,3.6c4.2,0.1,8.4-1.1,11.9-3.1c3.6-1.9,6.7-4.4,9.4-7.5l1-1.2l-1-1
		C759.1,1257.4,755.8,1255.2,752.2,1253.4z M759.7,1262.4c-0.4-0.4-0.8-0.8-1.3-1.2c-2.4,1.9-5.1,3.6-7.8,5c-3.2,1.6-6.6,2.7-10,2.8
		c-3.4,0.2-7-0.7-10.4-2.1c-3.3-1.4-6.5-3.2-9.6-5.5c2.7-2.5,5.8-4.6,9.2-6.2c3.4-1.6,7.1-2.6,10.7-2.5c3.6,0.1,7.2,1.2,10.4,3
		c2.7,1.5,5.2,3.3,7.4,5.4c0.4-0.3,0.9-0.6,1.3-1V1262.4z"/>
	<path fill="#5A4A40" d="M735.7,1195c0.4,0.3,0.8,0.7,1.2,1.1c0.3-0.5,0.6-1,1-1.4L735.7,1195z"/>
	<path fill="#5A4A40" d="M737.5,1192.4l-1.4-0.8l-0.8,1.2c-2.3,3.4-3.9,7-5,10.8c-1.1,3.8-1.5,8-0.7,11.9c0.8,4,2.8,7.5,5.2,10.6
		c2.5,3,5.4,5.7,8.6,7.8l0.1,0.1l0.1-0.1c2.6-2.9,4.8-6.2,6.2-10c1.5-3.7,2.2-7.9,1.6-12c-0.6-4.3-2.5-8.1-5-11.3
		C744,1197.2,741,1194.5,737.5,1192.4z M747.1,1222.9c-0.8,3.5-2.1,7-3.8,10.4c-2.9-2.3-5.6-5-7.7-8c-2.1-3.1-3.7-6.6-4.2-10.1
		c-0.5-3.6,0.1-7.3,1.2-10.8c1-2.9,2.4-5.7,4.1-8.2c-0.4-0.4-0.8-0.7-1.2-1.1l2.2-0.4c-0.3,0.5-0.7,1-1,1.4c2.3,2,4.4,4.4,6.2,6.8
		c2.1,2.9,3.7,6.1,4.4,9.4C748.2,1215.8,747.9,1219.3,747.1,1222.9z"/>
	<path fill="#5A4A40" d="M787.9,1229.7c-0.3,0.4-0.7,0.8-1.1,1.2c0.5,0.3,1,0.6,1.4,1L787.9,1229.7z"/>
	<path fill="#5A4A40" d="M779.3,1224.3c-3.8-1.1-7.9-1.4-11.9-0.6c-3.9,0.9-7.5,2.8-10.5,5.3c-3,2.5-5.6,5.4-7.7,8.6l-0.1,0.1
		l0.1,0.1c2.9,2.7,6.2,4.8,10,6.2c3.7,1.4,7.9,2.1,12.1,1.5c4.2-0.7,8-2.6,11.2-5.1c3.2-2.5,5.9-5.5,8-9l0.8-1.4l-1.2-0.8
		C786.8,1227,783.2,1225.4,779.3,1224.3z M780,1237.1c-2.9,2.1-6,3.8-9.4,4.5c-3.4,0.8-7,0.5-10.6-0.2c-3.5-0.8-7-2.1-10.4-3.7
		c2.3-2.9,5-5.6,8-7.7c3.1-2.1,6.5-3.8,10.1-4.3c3.6-0.6,7.3,0,10.8,1.1c2.9,1,5.7,2.4,8.3,4.1c0.4-0.4,0.7-0.8,1.1-1.2l0.4,2.2
		c-0.5-0.3-1-0.7-1.4-1C784.8,1233.2,782.5,1235.3,780,1237.1z"/>
	<path fill="#5A4A40" d="M751.9,1197.2c2.9,2.5,6.2,4.6,9.8,6.1l0.2,0.1l0.1-0.2c2.1-3.3,3.6-7,4.4-10.9c0.8-3.9,0.7-8.2-0.5-12.1
		c-1.4-4.1-3.9-7.5-6.9-10.3c-3-2.8-6.4-4.9-10.3-6.3l-1.5-0.6l-0.6,1.3c-1.6,3.8-2.6,7.6-3,11.5c-0.4,3.9-0.1,8.1,1.3,11.8
		C746.5,1191.5,749,1194.6,751.9,1197.2z M746.2,1176.2c0.5-3,1.4-6.1,2.6-8.8c-0.4-0.3-0.9-0.6-1.3-0.8l2.1-0.8
		c-0.3,0.5-0.5,1.1-0.7,1.6c2.6,1.6,5.1,3.5,7.3,5.6c2.6,2.5,4.7,5.4,6,8.5c1.3,3.3,1.7,6.8,1.5,10.5c-0.2,3.6-0.8,7.3-1.9,10.9
		c-3.3-1.7-6.3-3.9-8.9-6.5c-2.6-2.6-4.8-5.8-5.9-9.3C745.7,1183.6,745.7,1179.8,746.2,1176.2z"/>
	<path fill="#5A4A40" d="M747.5,1166.5c0.4,0.3,0.9,0.5,1.3,0.8c0.2-0.5,0.5-1.1,0.7-1.6L747.5,1166.5z"/>
	<path fill="#5A4A40" d="M804.9,1191.6c-0.3,0.5-0.6,0.9-0.8,1.4c0.5,0.2,1.1,0.5,1.6,0.7L804.9,1191.6z"/>
	<path fill="#5A4A40" d="M795.5,1187.8c-4-0.4-8.1,0-11.8,1.5c-3.8,1.5-6.9,4.1-9.4,7.1c-2.5,3-4.6,6.3-6.1,9.8l-0.1,0.1l0.2,0.1
		c3.3,2.1,7,3.6,10.9,4.4c3.9,0.8,8.2,0.7,12.2-0.6c4-1.4,7.5-4,10.2-7c2.7-3,4.8-6.4,6.3-10.3l0.6-1.5l-1.3-0.6
		C803.3,1189.2,799.5,1188.2,795.5,1187.8z M798.4,1200.3c-2.5,2.6-5.3,4.8-8.5,6.1c-3.2,1.3-6.8,1.7-10.4,1.6
		c-3.6-0.2-7.3-0.8-10.9-1.9c1.7-3.3,3.9-6.3,6.5-8.9c2.6-2.7,5.8-4.8,9.2-6c3.4-1.2,7.2-1.3,10.8-0.8c3,0.4,6.1,1.3,8.8,2.6
		c0.3-0.5,0.6-0.9,0.8-1.4l0.8,2.1c-0.5-0.3-1.1-0.5-1.6-0.7C802.4,1195.5,800.5,1198.1,798.4,1200.3z"/>
	<path fill="#5A4A40" d="M760.6,1137.6l-1.9,1.1c0.5,0.2,1,0.4,1.5,0.6C760.3,1138.7,760.4,1138.1,760.6,1137.6z"/>
	<path fill="#5A4A40" d="M759.7,1157.1c1.9,3.1,4.6,5.4,7.5,7.2c2.9,1.8,6.1,3,9.4,3.8l0.2,0l0.1-0.2c1.4-3.1,2.2-6.5,2.3-10.1
		c0.1-3.5-0.6-7.2-2.2-10.5c-1.8-3.4-4.5-6-7.6-7.9c-3.1-1.9-6.3-3.3-9.9-3.9l-1.6-0.3l-0.3,1.4c-0.9,3.5-1.1,6.9-0.8,10.5
		C756.9,1150.6,757.8,1154.1,759.7,1157.1z M760.6,1137.6c-0.2,0.6-0.3,1.2-0.4,1.7c2.4,1,4.7,2.2,6.9,3.7c2.5,1.7,4.8,3.9,6.3,6.3
		c1.6,2.6,2.5,5.6,2.9,8.7c0.4,3.1,0.5,6.3,0.2,9.6c-3.1-1-6-2.5-8.6-4.3c-2.7-1.9-5-4.3-6.4-7.1c-1.5-2.8-2.1-6-2.1-9.2
		c0-2.6,0.3-5.2,0.8-7.7c-0.5-0.2-1-0.4-1.5-0.6L760.6,1137.6z"/>
	<path fill="#5A4A40" d="M813.7,1150.1c-3.5-0.8-7-1.1-10.5-0.8c-3.5,0.3-7,1.3-10,3.1c-3,1.9-5.3,4.6-7.1,7.6
		c-1.7,2.9-3,6.1-3.7,9.4l0,0.2l0.2,0.1c3.1,1.4,6.6,2.2,10.1,2.3c3.5,0.1,7.2-0.6,10.5-2.4c3.3-1.8,5.9-4.6,7.8-7.6
		c1.9-3.1,3.2-6.3,3.8-9.9l0.3-1.6L813.7,1150.1z M807.5,1159.7c-1.7,2.6-3.8,4.9-6.3,6.4c-2.5,1.6-5.5,2.5-8.6,3
		c-3.1,0.4-6.3,0.5-9.6,0.2c1-3.1,2.5-6,4.3-8.6c1.9-2.7,4.2-5,7-6.5c2.8-1.5,6-2.1,9.1-2.2c2.6,0,5.2,0.3,7.7,0.8
		c0.2-0.5,0.4-1,0.6-1.5l1.1,1.9c-0.6-0.2-1.1-0.3-1.7-0.4C810.1,1155.2,808.9,1157.5,807.5,1159.7z"/>
	<path fill="#5A4A40" d="M811.7,1151.3c-0.2,0.5-0.4,1-0.6,1.5c0.6,0.1,1.2,0.3,1.7,0.4L811.7,1151.3z"/>
	<path fill="#5A4A40" d="M769.2,1109.5l-1.7,1.4c0.5,0.1,1,0.2,1.5,0.4C769.1,1110.7,769.2,1110.1,769.2,1109.5z"/>
	<path fill="#5A4A40" d="M770.7,1124.9c1.9,2.2,4.4,3.6,6.9,4.5c2.5,1,5.2,1.5,7.9,1.5l0.2,0l0.1-0.2c0.8-2.6,1-5.4,0.6-8.2
		c-0.3-2.8-1.4-5.7-3.1-8c-1.9-2.5-4.4-4.2-7.1-5.3c-2.7-1.1-5.4-1.7-8.4-1.6l-1.6,0l-0.1,1.4c-0.2,2.9,0.1,5.6,0.8,8.3
		C767.6,1120.2,768.8,1122.8,770.7,1124.9z M769.2,1109.5c-0.1,0.6-0.1,1.2-0.2,1.8c1.8,0.5,3.7,1.1,5.4,1.9c2.1,1,4.2,2.3,5.6,3.9
		c1.6,1.7,2.7,3.8,3.5,6.2c0.8,2.3,1.3,4.7,1.7,7.3c-2.5-0.4-4.9-1.1-7.2-2.2c-2.3-1.1-4.4-2.7-5.8-4.6c-1.5-2-2.4-4.3-2.8-6.8
		c-0.3-1.8-0.5-3.7-0.4-5.6c-0.5-0.1-1-0.3-1.5-0.4L769.2,1109.5z"/>
	<path fill="#5A4A40" d="M791.7,1123.3c-0.9,2.5-1.4,5.2-1.5,7.9v0.2l0.2,0.1c2.6,0.8,5.4,1,8.2,0.6c2.8-0.4,5.6-1.4,8-3.2
		c2.4-1.9,4.1-4.5,5.1-7.1c1.1-2.7,1.6-5.4,1.6-8.4l0-1.6l-1.4-0.1c-2.9-0.2-5.6,0.1-8.3,0.9c-2.7,0.7-5.3,2-7.4,3.9
		C794.1,1118.3,792.7,1120.8,791.7,1123.3z M804.2,1115c1.8-0.3,3.7-0.4,5.5-0.4c0.1-0.5,0.3-1,0.4-1.6l1.4,1.7
		c-0.6-0.1-1.2-0.1-1.8-0.1c-0.5,1.8-1.1,3.7-1.8,5.4c-1,2.2-2.2,4.2-3.9,5.7c-1.6,1.6-3.7,2.7-6.1,3.6c-2.3,0.8-4.7,1.3-7.3,1.7
		c0.4-2.5,1.1-4.9,2.2-7.1c1.1-2.3,2.6-4.4,4.6-5.9C799.4,1116.4,801.7,1115.5,804.2,1115z"/>
	<path fill="#5A4A40" d="M810.1,1113.1c-0.1,0.5-0.3,1-0.4,1.6c0.6,0,1.2,0.1,1.8,0.1L810.1,1113.1z"/>
	<path fill="#5A4A40" d="M790.7,1081.2c0.3,0.4,0.5,0.9,0.8,1.4c0.5-0.4,0.9-0.8,1.4-1.2L790.7,1081.2z"/>
	<path fill="#5A4A40" d="M789.4,1108l0.1,0.1l0.2-0.1c2.4-1.3,4.5-3.1,6.2-5.4c1.7-2.2,3-4.9,3.4-8c0.3-3-0.3-6-1.4-8.7
		c-1.1-2.7-2.7-5-4.8-7l-1.2-1.1l-1,0.9c-2.2,1.9-3.9,4.1-5.3,6.5c-1.4,2.4-2.3,5.2-2.5,8c-0.1,2.8,0.6,5.6,1.8,8
		C786.1,1103.9,787.6,1106.1,789.4,1108z M785.1,1093.5c0.3-2.4,1.3-4.7,2.7-6.8c1-1.5,2.3-3,3.6-4.2c-0.3-0.5-0.5-0.9-0.8-1.4
		l2.2,0.2c-0.5,0.4-0.9,0.8-1.4,1.2c0.9,1.6,1.8,3.4,2.5,5.1c0.8,2.2,1.4,4.5,1.3,6.8c-0.1,2.2-0.8,4.6-1.8,6.8
		c-1,2.2-2.4,4.3-4,6.3c-1.5-2.1-2.7-4.3-3.5-6.6C785.2,1098.5,784.8,1095.9,785.1,1093.5z"/>
	<path fill="#5A4A40" d="M339.5,1217c0.4,0.4,0.8,0.8,1.2,1.3c0.3-0.4,0.6-0.8,1-1.3H339.5z"/>
	<path fill="#5A4A40" d="M340.6,1256.5l0.1,0.1l0.1-0.1c2.8-2.6,5.2-5.7,7.1-9.1c1.9-3.4,3.2-7.2,3.3-11.3c0.1-4-1.1-8-2.8-11.5
		c-1.8-3.6-4-6.8-6.8-9.8l-1-1l-1.2,1c-3.1,2.7-5.6,5.8-7.5,9.5c-1.9,3.6-3.1,7.7-2.9,12c0.2,4.1,1.6,8.2,3.7,11.6
		C334.8,1251.2,337.5,1254.1,340.6,1256.5z M333.1,1236.1c0.1-3.4,1.1-6.8,2.7-10c1.3-2.7,3.1-5.4,4.9-7.8c-0.4-0.4-0.8-0.8-1.2-1.3
		h2.2c-0.3,0.4-0.7,0.8-1,1.3c2.1,2.2,4,4.7,5.5,7.4c1.8,3.2,3,6.7,3.1,10.4c0.2,3.6-0.8,7.3-2.4,10.7c-1.5,3.3-3.6,6.5-6.1,9.2
		c-2.2-3-4.1-6.2-5.5-9.5C333.9,1243.1,333,1239.6,333.1,1236.1z"/>
	<path fill="#5A4A40" d="M315.4,1273c4.2-0.1,8.2-1.5,11.7-3.6c3.4-2.1,6.4-4.7,8.8-7.8l0.1-0.2l-0.1-0.1c-2.6-2.8-5.7-5.2-9.1-7.1
		c-3.4-1.9-7.2-3.3-11.3-3.4c-4-0.1-8,0.9-11.6,2.7c-3.6,1.7-6.9,3.9-9.8,6.8l-1,1l1,1.2c2.7,3.1,5.8,5.6,9.4,7.5
		C307,1271.8,311.1,1273,315.4,1273z M296.3,1260.2c0.4,0.3,0.8,0.7,1.3,1c2.2-2.1,4.7-4,7.4-5.4c3.2-1.7,6.8-2.9,10.4-3
		c3.6-0.1,7.3,0.9,10.7,2.5c3.3,1.6,6.5,3.7,9.2,6.2c-3,2.2-6.3,4.1-9.6,5.5c-3.4,1.4-6.9,2.2-10.4,2.1c-3.4-0.1-6.8-1.2-10-2.8
		c-2.7-1.4-5.4-3.1-7.8-5c-0.4,0.4-0.9,0.8-1.3,1.2V1260.2z"/>
	<path fill="#5A4A40" d="M296.3,1260.2v2.2c0.4-0.4,0.8-0.8,1.3-1.2C297.1,1260.9,296.7,1260.5,296.3,1260.2z"/>
	<path fill="#5A4A40" d="M304.6,1211.7c-0.6,4.1,0.1,8.3,1.6,12c1.4,3.7,3.6,7.1,6.2,10l0.1,0.1l0.1-0.1c3.2-2.1,6.1-4.7,8.6-7.8
		c2.4-3,4.4-6.6,5.2-10.6c0.8-3.9,0.3-8-0.7-11.9c-1.1-3.8-2.7-7.4-5-10.8l-0.8-1.2l-1.4,0.8c-3.5,2.1-6.5,4.8-9,8
		C307,1203.6,305.2,1207.4,304.6,1211.7z M312.9,1202.9c1.8-2.4,3.9-4.8,6.2-6.8c-0.3-0.5-0.6-1-1-1.4l2.2,0.4
		c-0.4,0.3-0.8,0.7-1.2,1.1c1.7,2.5,3.1,5.4,4.1,8.2c1.2,3.5,1.7,7.2,1.2,10.8c-0.5,3.6-2,7.1-4.2,10.1c-2.1,3-4.7,5.7-7.6,8
		c-1.7-3.4-2.9-6.9-3.8-10.4c-0.8-3.6-1.1-7.2-0.3-10.6C309.2,1209,310.8,1205.8,312.9,1202.9z"/>
	<path fill="#5A4A40" d="M318.2,1194.7c0.3,0.5,0.7,1,1,1.4c0.4-0.4,0.8-0.7,1.2-1.1L318.2,1194.7z"/>
	<path fill="#5A4A40" d="M267.8,1231.9c0.5-0.3,1-0.7,1.4-1c-0.4-0.4-0.7-0.8-1.1-1.2L267.8,1231.9z"/>
	<path fill="#5A4A40" d="M306.8,1237.9l0.1-0.1l-0.1-0.1c-2.1-3.2-4.7-6.2-7.7-8.6c-3-2.5-6.5-4.4-10.5-5.3c-4-0.8-8.1-0.5-11.9,0.6
		c-3.9,1.1-7.4,2.7-10.9,5l-1.2,0.8l0.8,1.4c2.1,3.5,4.8,6.5,8,9c3.2,2.5,7,4.4,11.2,5.1c4.2,0.6,8.4-0.1,12.1-1.5
		C300.5,1242.7,303.9,1240.6,306.8,1237.9z M285.4,1241.6c-3.4-0.7-6.5-2.4-9.4-4.5c-2.4-1.8-4.7-4-6.8-6.2c-0.5,0.3-1,0.6-1.4,1
		l0.4-2.2c0.3,0.4,0.7,0.8,1.1,1.2c2.5-1.7,5.4-3.1,8.3-4.1c3.5-1.2,7.2-1.7,10.8-1.1c3.6,0.5,7,2.1,10.1,4.3c3,2.1,5.7,4.8,8,7.7
		c-3.4,1.7-6.9,2.9-10.4,3.7C292.4,1242.2,288.8,1242.4,285.4,1241.6z"/>
	<path fill="#5A4A40" d="M290.2,1180.2c-1.3,3.9-1.3,8.2-0.5,12.1c0.8,3.9,2.3,7.6,4.4,10.9l0.1,0.2l0.2-0.1
		c3.5-1.5,6.8-3.6,9.8-6.1c2.9-2.6,5.5-5.7,7-9.5c1.4-3.7,1.7-7.9,1.3-11.8c-0.4-4-1.4-7.8-3-11.5l-0.6-1.3l-1.5,0.6
		c-3.9,1.5-7.3,3.6-10.3,6.3C294,1172.7,291.5,1176.1,290.2,1180.2z M306.5,1165.8l2.1,0.8c-0.5,0.3-0.9,0.5-1.3,0.8
		c1.2,2.8,2.1,5.8,2.6,8.8c0.6,3.6,0.5,7.4-0.7,10.9c-1.1,3.4-3.2,6.6-5.9,9.3c-2.6,2.6-5.6,4.8-8.9,6.5c-1.1-3.6-1.7-7.3-1.9-10.9
		c-0.2-3.7,0.2-7.2,1.5-10.5c1.2-3.1,3.4-6,6-8.5c2.2-2.1,4.7-4,7.3-5.6C307,1166.8,306.8,1166.3,306.5,1165.8z"/>
	<path fill="#5A4A40" d="M306.5,1165.8c0.3,0.5,0.5,1.1,0.7,1.6c0.4-0.3,0.9-0.6,1.3-0.8L306.5,1165.8z"/>
	<path fill="#5A4A40" d="M250.4,1193.7c0.5-0.3,1.1-0.5,1.6-0.7c-0.3-0.5-0.6-0.9-0.9-1.4L250.4,1193.7z"/>
	<path fill="#5A4A40" d="M276.9,1210.8c3.9-0.7,7.6-2.2,10.9-4.4l0.2-0.1l-0.1-0.1c-1.5-3.6-3.6-6.9-6.1-9.8
		c-2.6-2.9-5.7-5.5-9.4-7.1c-3.7-1.5-7.9-1.8-11.8-1.5c-4,0.4-7.8,1.4-11.6,3l-1.3,0.6l0.6,1.5c1.5,3.9,3.5,7.3,6.3,10.3
		c2.7,3,6.2,5.6,10.2,7C268.7,1211.5,273,1211.5,276.9,1210.8z M252,1192.9c-0.6,0.2-1.1,0.5-1.6,0.7l0.8-2.1
		C251.4,1192.1,251.7,1192.5,252,1192.9c2.8-1.2,5.8-2.1,8.8-2.6c3.6-0.5,7.4-0.4,10.8,0.8c3.5,1.1,6.6,3.3,9.2,6
		c2.6,2.6,4.8,5.7,6.5,8.9c-3.6,1.1-7.3,1.7-10.9,1.9c-3.7,0.1-7.3-0.3-10.5-1.6c-3.2-1.3-6-3.5-8.5-6.1
		C255.5,1198.1,253.6,1195.5,252,1192.9z"/>
	<path fill="#5A4A40" d="M295.5,1137.6c0.2,0.6,0.3,1.2,0.4,1.7c0.5-0.2,1-0.4,1.5-0.6L295.5,1137.6z"/>
	<path fill="#5A4A40" d="M279.2,1147.4c-1.7,3.3-2.4,7-2.2,10.5c0.1,3.5,0.9,6.9,2.3,10.1l0.1,0.2l0.2,0c3.3-0.7,6.5-2,9.4-3.8
		c2.9-1.8,5.6-4.1,7.5-7.2c1.8-3,2.7-6.5,3-10c0.3-3.5,0-6.9-0.8-10.5l-0.3-1.4l-1.6,0.3c-3.6,0.6-6.8,1.9-9.9,3.9
		C283.7,1141.4,281,1144,279.2,1147.4z M295.5,1137.6l1.9,1.1c-0.5,0.2-1,0.4-1.5,0.6c0.6,2.5,0.9,5.1,0.8,7.7
		c-0.1,3.2-0.7,6.4-2.2,9.2c-1.4,2.8-3.7,5.2-6.4,7.1c-2.6,1.8-5.5,3.3-8.6,4.3c-0.3-3.3-0.3-6.5,0.1-9.6c0.5-3.2,1.3-6.1,2.9-8.7
		c1.5-2.4,3.8-4.6,6.4-6.3c2.1-1.4,4.5-2.6,6.9-3.7C295.8,1138.7,295.6,1138.1,295.5,1137.6z"/>
	<path fill="#5A4A40" d="M252.8,1169.6c3.3,1.8,7,2.5,10.5,2.4c3.5-0.1,6.9-0.9,10.1-2.3l0.2-0.1l0-0.2c-0.7-3.3-2-6.5-3.7-9.4
		c-1.7-2.9-4.1-5.7-7.1-7.6c-3-1.9-6.5-2.8-10-3.1c-3.5-0.3-6.9,0-10.5,0.8l-1.4,0.3l0.3,1.6c0.6,3.6,1.9,6.8,3.8,9.9
		C246.9,1165,249.5,1167.7,252.8,1169.6z M243.2,1153.2l1.1-1.9c0.2,0.5,0.4,1,0.6,1.5c2.5-0.6,5.1-0.9,7.7-0.8
		c3.2,0.1,6.4,0.7,9.1,2.2c2.8,1.5,5.1,3.8,7,6.5c1.8,2.6,3.3,5.6,4.3,8.6c-3.2,0.3-6.5,0.2-9.6-0.2c-3.1-0.5-6.1-1.4-8.6-3
		c-2.5-1.6-4.5-3.9-6.3-6.4c-1.4-2.1-2.6-4.5-3.6-6.9C244.3,1152.9,243.8,1153,243.2,1153.2z"/>
	<path fill="#5A4A40" d="M269.7,1122.6c-0.3,2.8-0.2,5.6,0.6,8.2l0.1,0.2l0.2,0c2.7-0.1,5.3-0.6,7.9-1.5c2.5-0.9,4.9-2.4,6.9-4.5
		c1.9-2.1,3.1-4.7,3.8-7.4c0.7-2.7,1-5.4,0.8-8.3l-0.1-1.4l-1.6,0c-2.9-0.1-5.7,0.5-8.4,1.6c-2.7,1.1-5.2,2.8-7.1,5.3
		C271.1,1116.9,270,1119.8,269.7,1122.6z M276,1117.1c1.4-1.6,3.5-2.9,5.6-3.9c1.7-0.8,3.5-1.4,5.4-1.9c0-0.6-0.1-1.2-0.1-1.8
		l1.7,1.4c-0.5,0.1-1,0.2-1.5,0.4c0.1,1.8,0,3.8-0.4,5.6c-0.4,2.4-1.3,4.8-2.8,6.8c-1.4,1.9-3.5,3.5-5.8,4.6
		c-2.2,1.1-4.7,1.8-7.1,2.2c0.4-2.5,0.9-5,1.7-7.3C273.3,1120.9,274.4,1118.8,276,1117.1z"/>
	<path fill="#5A4A40" d="M286.8,1109.5c0.1,0.6,0.1,1.2,0.1,1.8c0.5-0.1,1-0.3,1.5-0.4L286.8,1109.5z"/>
	<path fill="#5A4A40" d="M249.4,1128.8c2.4,1.9,5.3,2.9,8,3.2c2.8,0.4,5.6,0.2,8.2-0.6l0.2-0.1v-0.2c-0.1-2.7-0.6-5.3-1.5-7.9
		c-0.9-2.5-2.3-5-4.4-6.9c-2.1-1.9-4.7-3.2-7.4-3.9c-2.7-0.7-5.4-1-8.3-0.9l-1.4,0.1l0,1.6c-0.1,2.9,0.5,5.7,1.5,8.4
		C245.3,1124.3,247,1126.9,249.4,1128.8z M245.9,1113.1c0.1,0.5,0.3,1,0.4,1.6c1.8-0.1,3.7,0.1,5.5,0.4c2.4,0.5,4.8,1.4,6.7,2.9
		c1.9,1.5,3.5,3.6,4.6,5.9c1.1,2.2,1.8,4.7,2.2,7.1c-2.5-0.3-5-0.9-7.3-1.7c-2.3-0.9-4.5-2-6.1-3.6c-1.7-1.5-2.9-3.5-3.9-5.7
		c-0.8-1.7-1.3-3.5-1.8-5.4c-0.6,0-1.2,0.1-1.9,0.1L245.9,1113.1z"/>
	<path fill="#5A4A40" d="M245.9,1113.1l-1.4,1.7c0.6-0.1,1.2-0.1,1.9-0.1C246.2,1114.1,246,1113.6,245.9,1113.1z"/>
	<path fill="#5A4A40" d="M263.2,1081.4c0.5,0.4,0.9,0.8,1.4,1.2c0.3-0.5,0.6-0.9,0.8-1.4L263.2,1081.4z"/>
	<path fill="#5A4A40" d="M260.1,1102.7c1.7,2.2,3.8,4.1,6.2,5.4l0.2,0.1l0.1-0.1c1.8-2,3.3-4.2,4.5-6.6c1.1-2.4,1.9-5.2,1.8-8
		c-0.1-2.8-1.1-5.6-2.5-8c-1.4-2.5-3.1-4.6-5.3-6.5l-1-0.9l-1.2,1.1c-2.1,2-3.7,4.3-4.8,7c-1.1,2.6-1.7,5.6-1.4,8.7
		C257.1,1097.8,258.4,1100.5,260.1,1102.7z M262,1087.6c0.7-1.7,1.5-3.4,2.5-5.1c-0.5-0.4-0.9-0.8-1.4-1.2l2.2-0.2
		c-0.3,0.4-0.5,0.9-0.8,1.4c1.3,1.2,2.6,2.7,3.6,4.2c1.4,2.1,2.4,4.3,2.7,6.8c0.3,2.4-0.1,5-0.9,7.4c-0.8,2.3-2,4.6-3.5,6.6
		c-1.5-2.1-2.9-4.2-3.9-6.3c-1.1-2.2-1.8-4.6-1.8-6.8C260.6,1092.2,261.2,1089.9,262,1087.6z"/>
	<path fill="#5A4A40" d="M333.9,1416.6l1-0.5c0.7-0.4,1.4-0.7,2.1-1c1.4-0.6,2.8-1.2,4.2-1.8c11.2-4.5,22.6-8.5,33.8-12.8
		c5.6-2.1,11.2-4.3,16.4-7.3c2.6-1.5,5.1-3.2,7-5.5c0.9-1.1,1.7-2.4,2-3.8c0-0.1,0-0.2,0-0.3c-1.1,1.5-5.3,3.5-8.4,5.1
		c-4.2,2.1-7.8,3.4-15.8,4.3c9.5-2.8,17.2-6.7,21.9-10.7c-0.8-1.6-2.1-3.3-3.6-4.5c-2.1,1.1-5.2,2.3-7.7,3.5c-5,2.4-19.2,6.8-29,7.8
		c10.6-2.9,26.1-8.5,34-13.2c-1-0.5-2-1-3-1.3c-3.5-1.1-7.3-1.2-11-0.5c-1.5,0.7-3.2,1.4-4.7,2.1c-5,2.4-19.2,6.8-29,7.8
		c7.2-1.9,16.6-5.1,24.4-8.5c-2.2,0.2-4.4,0.3-6.6,0.3c-1,0-2.1,0-3.1-0.1c-6.6,2.3-16.1,4.8-23.2,5.6c5.5-1.5,12.4-3.7,18.8-6.2
		c-1.2-0.3-2.4-0.6-3.7-1.2c-0.4-0.2-0.9-0.5-1.4-0.8c-6.1,1.9-13.4,3.6-19.2,4.3c5.2-1.4,11.5-3.4,17.5-5.7
		c-0.2-0.2-0.4-0.4-0.6-0.7c-0.5-0.7-0.9-1.5-1.2-2.4l0,0c-4.2,1.1-8.5,1.9-12.2,2.3c3.6-1,7.6-2.2,11.8-3.7c-0.3-2.3-0.7-4.7-1.1-7
		c-2.7,0.6-5.4,1.1-7.8,1.3c2.4-0.6,5-1.4,7.7-2.3c-0.2-1.3-0.4-2.5-0.7-3.7c0-0.2-0.1-0.3-0.1-0.5c-2.8,0.6-5.5,1.1-7.9,1.3
		c2.4-0.6,5-1.4,7.7-2.3c-0.3-1.5-0.7-3-1.1-4.4c-0.5-1.9-1.2-3.8-1.9-5.1l0-0.1c0-0.1-0.1-0.1-0.1-0.2l0-0.1
		c-6.2,2.8-12.3,5.9-18.1,9.4c-3.3,2-6.4,4.2-9.3,6.6c-2.1,1.8-4.1,3.8-5.8,5.9c2.1,0.7,4.1,1.6,6,2.7c2.8,1.6,5.4,3.6,7.5,6.1
		c2.1,2.5,3.7,5.4,4.6,8.5c0.5,1.5,0.8,3.2,0.9,4.7c0.2,1.5,0.3,3,0.5,4.4c0.8,5.9,1.9,11.8,3.7,17.4c0.5,1.4,1,2.8,1.6,4
		c0.3,0.6,0.6,1.2,1,1.7C333.2,1416.1,333.7,1416.5,333.9,1416.6"/>
	<polygon fill="#5A4A40" points="385.8,1342.4 385.8,1342.4 385.8,1342.4 	"/>
	<path fill="#5A4A40" d="M397,1375.5c0-0.1,0-0.1,0-0.2c-0.2-0.9-0.4-1.8-0.7-2.6c-0.1-0.5-0.3-1-0.4-1.5c-0.1-0.4-0.3-0.9-0.5-1.3
		c-0.3-0.3-0.6-0.6-0.9-0.8c-0.6-0.5-1.2-1.1-1.9-1.6c-0.7-0.5-1.3-1-2-1.4c-2.7-1.7-6-2.9-10.6-3.7c4-0.3,6.5-0.2,8.6,0.5
		c0.6,0.2,1.2,0.4,1.8,0.7c0.6,0.2,1.1,0.5,1.7,0.8c0.2,0.1,0.4,0.2,0.6,0.3c0.1,0,0.2,0.1,0.2,0.1c-0.7-1.1-1.4-2.2-2.2-3.3
		c0-0.1-0.1-0.1-0.2-0.2c-0.2-0.3-0.5-0.6-0.7-0.9c-0.7-0.6-1.4-1.1-2.1-1.5c-0.8-0.5-1.6-0.9-2.4-1.2c-2.3-1-4.9-1.7-7.9-2.4
		c3.1,0.1,5.1,0.1,6.7,0.4c0.8,0.1,1.5,0.3,2.1,0.6c0.5,0.2,1,0.4,1.5,0.7c0.1,0.1,0.2,0.1,0.3,0.2c-0.1-0.2-0.2-0.4-0.2-0.6
		c-0.1-0.4-0.3-0.9-0.4-1.3c-0.4-1.4-0.7-2.9-1-4.3c-0.4-2.8-0.6-5.6-0.7-8.5c-1.4,0.4-2.9,0.9-4.3,1.4c-0.6,0.2-1.3,0.4-1.9,0.7
		c-0.6,0.2-1.2,0.5-1.9,0.7c-0.3,0.1-0.7,0.3-1,0.4c-0.7,0.3-1.4,0.6-2.2,1c-2.9,1.3-5.8,2.9-8.5,4.6c-1.9,1.2-3.7,2.6-5.4,4
		c0.4,0,0.8,0,1.1,0.1c1.9,0.1,3.8,0.1,5.7-0.1c-3.7,1.4-6.5,1.9-9,1.9c-1.1,1.1-2.2,2.3-3.2,3.5c1.5,0.4,3.2,0.7,4.8,1
		c1.7,0.2,3.4,0.3,5.1,0.4c0.7,0,1.3,0,2,0c0.1-0.1,0.5,0,0.5,0c1.1-0.1,2.3-0.1,3.4-0.3c-1,0.4-1.9,0.7-2.8,1
		c-1.2,0.4-2.3,0.7-3.3,0.9c-1.7,0.4-3.2,0.5-4.7,0.5c-1.6,0-3.1-0.2-4.7-0.5c-0.1,0-0.1,0-0.2,0c-0.5-0.1-1.2-0.3-1.9-0.5
		c-0.3,0.5-0.6,1-0.9,1.6c-0.5,0.8-0.9,1.6-1.2,2.4c-0.1,0.2-0.2,0.3-0.2,0.5c0.1,0.1,0.1,0.2,0.2,0.4c0.3,0.5,1,1,1.8,1.5
		c0.7,0.4,1.6,0.7,2.5,1c0.3,0.1,0.6,0.1,0.9,0.2c1.8,0.4,3.6,0.6,5.4,0.7c0.4,0,0.8,0,1.2,0c2.1,0.1,4.3,0,6.4-0.2
		c1.9-0.2,3.8-0.4,5.7-0.7c1.3-0.2,2.6-0.4,3.9-0.4c1.2-0.1,2.4-0.1,3.7,0c2.3,0.1,4.7,0.5,7,1.4c1.7,0.6,3.3,1.5,4.8,2.5
		c0.4,0.3,0.8,0.7,1.3,1c0.3,0.3,0.6,0.6,0.9,0.9c0,0,0-0.1,0.1-0.1C397,1375.6,397,1375.6,397,1375.5"/>
	<path fill="#5A4A40" d="M718.3,1416.6c0.1,0,0.6-0.4,1-0.9c0.4-0.5,0.7-1.1,1-1.7c0.6-1.3,1.1-2.6,1.6-4c1.8-5.6,2.9-11.5,3.7-17.4
		c0.2-1.5,0.4-3,0.5-4.4c0.2-1.5,0.5-3.2,0.9-4.7c0.9-3.1,2.5-6.1,4.6-8.5c2.1-2.5,4.7-4.5,7.5-6.1c1.9-1.1,3.9-2,6-2.7
		c-1.7-2.2-3.7-4.1-5.8-5.9c-2.9-2.4-6-4.6-9.3-6.6c-6.2-3.7-12.7-6.9-19.3-9.9c0,0,0,0.1,0,0.1l0,0.1l0,0.1
		c-0.9,1.5-1.5,3.5-2.1,5.5c-0.4,1.4-0.7,2.9-1.1,4.3c3.2,1,6.2,1.9,8.9,2.7c-2.8-0.3-6-0.9-9.2-1.6c0,0.2-0.1,0.3-0.1,0.5
		c-0.2,1.2-0.4,2.4-0.7,3.6c3.1,1,6.2,1.9,8.9,2.7c-2.7-0.3-5.8-0.8-8.9-1.5c0.1,0.9,0.1,1.8,0.1,2.7c0,1.3-0.1,2.5-0.2,3.7
		l-0.1,0.8c4.2,1.4,8.3,2.7,11.9,3.7c-3.7-0.4-8-1.2-12.2-2.3l0,0c-0.2,0.9-0.7,1.7-1.2,2.4c-0.2,0.2-0.4,0.5-0.6,0.7
		c6,2.3,12.3,4.3,17.5,5.7c-5.8-0.6-13.1-2.4-19.2-4.3c-0.5,0.3-0.9,0.6-1.4,0.8c-1.2,0.6-2.5,0.9-3.7,1.2
		c6.4,2.5,13.3,4.7,18.8,6.2c-7.2-0.8-16.7-3.3-23.2-5.6c-1,0.1-2.1,0.1-3.1,0.1c-2.2,0-4.4-0.1-6.6-0.3c7.8,3.3,17.2,6.6,24.4,8.5
		c-9.8-1-24-5.4-29-7.8c-1.5-0.7-3.2-1.4-4.7-2.1c-3.7-0.6-7.5-0.6-11,0.5c-1.1,0.3-2.1,0.8-3,1.3c7.8,4.7,23.3,10.4,34,13.2
		c-9.8-1-23.9-5.4-29-7.8c-2.5-1.2-5.5-2.4-7.7-3.5c-1.5,1.3-2.8,2.9-3.6,4.5c4.7,4,12.3,7.9,21.9,10.7c-8-1-11.6-2.2-15.8-4.3
		c-3.1-1.6-7.3-3.6-8.4-5.1c0,0.1,0,0.2,0,0.3c0.3,1.4,1.1,2.7,2,3.8c1.9,2.2,4.4,3.9,7,5.5c5.2,3,10.8,5.2,16.4,7.3
		c11.3,4.3,22.6,8.3,33.8,12.8c1.4,0.6,2.8,1.2,4.2,1.8c0.7,0.3,1.4,0.7,2.1,1L718.3,1416.6"/>
	<path fill="#5A4A40" d="M655.1,1375.6c0,0.1,0,0.2,0,0.2c0,0,0.1-0.1,0.1-0.1C655.2,1375.7,655.1,1375.7,655.1,1375.6z"/>
	<path fill="#5A4A40" d="M684.8,1361.9c-0.1-0.1-0.2-0.2-0.3-0.3l-0.2,0.2C684.4,1361.9,684.6,1361.9,684.8,1361.9z"/>
	<path fill="#5A4A40" d="M699.8,1362.7c-1.2,0.4-2.4,0.6-3.2,0.8c-0.1,0-0.1,0-0.2,0c-1.6,0.3-3.1,0.5-4.7,0.5c-1.5,0-3-0.2-4.7-0.5
		c-1-0.2-2.1-0.5-3.3-0.9c-0.9-0.3-1.8-0.6-2.8-1c1.1,0.1,2.3,0.2,3.4,0.3l0.2-0.2c0.1,0.1,0.2,0.2,0.3,0.3c0.7,0,1.3,0,2,0
		c1.7,0,3.4-0.1,5.1-0.4c2.1-0.3,4.2-0.7,6.1-1.3c-0.9-1.2-1.9-2.2-2.9-3.3c0,0-0.1-0.1-0.1-0.1c-0.6-0.6-1.3-1.3-2-1.9
		c-0.9-0.8-1.8-1.6-2.8-2.3c-1.2-0.9-2.4-1.8-3.6-2.6c-3.4-2.2-7.1-4-10.8-5.6c-0.3-0.1-0.5-0.2-0.8-0.3c-0.6-0.3-1.3-0.5-1.9-0.8
		c-0.6-0.2-1.3-0.5-1.9-0.7c-1.1-0.4-2.2-0.7-3.3-1.1c-0.5-0.1-1-0.3-1.5-0.4c0,0.8,0,1.6-0.1,2.4c-0.1,2.4-0.3,4.8-0.7,7.2
		c-0.2,1.4-0.6,2.9-1,4.3c-0.1,0.4-0.2,0.9-0.4,1.3c-0.1,0.2-0.2,0.4-0.2,0.6c0.1-0.1,0.2-0.1,0.3-0.2c0.5-0.3,1-0.5,1.5-0.7
		c0.7-0.3,1.4-0.4,2.1-0.6c1.6-0.3,3.6-0.3,6.7-0.4c-3.1,0.7-5.7,1.4-7.9,2.4c-0.8,0.4-1.7,0.8-2.4,1.2c-0.8,0.5-1.5,0.9-2.1,1.5
		c-0.2,0.3-0.4,0.6-0.7,0.9c-0.1,0.1-0.1,0.1-0.2,0.2c-0.8,1.1-1.5,2.2-2.2,3.3c0.1,0,0.1-0.1,0.2-0.1c0.2-0.1,0.4-0.2,0.6-0.3
		c0.6-0.3,1.2-0.6,1.7-0.8c0.6-0.3,1.2-0.5,1.8-0.7c2.2-0.6,4.6-0.8,8.6-0.5c-4.6,0.8-7.9,2-10.6,3.7c-0.7,0.4-1.4,0.9-2,1.4
		c-0.7,0.5-1.3,1-1.9,1.6c-0.3,0.3-0.6,0.6-0.9,0.8c-0.2,0.4-0.3,0.8-0.5,1.3c-0.2,0.5-0.3,1-0.4,1.5c-0.2,0.9-0.5,1.8-0.7,2.6
		c0,0.1,0,0.1,0,0.2c0,0,0,0.1,0,0.1c0,0,0.1,0.1,0.1,0.1c0.3-0.3,0.6-0.6,0.9-0.9c0.4-0.4,0.8-0.7,1.3-1c1.5-1.1,3.1-1.9,4.8-2.5
		c2.3-0.8,4.6-1.2,7-1.4c1.2-0.1,2.5,0,3.7,0c1.3,0.1,2.6,0.2,3.9,0.4c1.9,0.3,3.8,0.5,5.7,0.7c2.1,0.2,4.3,0.2,6.4,0.2
		c0.4,0,0.8,0,1.2,0c1.9-0.1,3.7-0.3,5.5-0.7c0.3-0.1,0.6-0.1,0.9-0.2c0.9-0.2,1.8-0.6,2.5-1c0.8-0.4,1.5-1,1.8-1.5
		c0.2-0.2,0.2-0.5,0.3-0.7v0c0-0.1,0-0.2,0.1-0.5l0.1-0.8c0-0.2,0-0.4,0-0.6c0,0,0,0,0-0.1C700.8,1364.4,700.3,1363.6,699.8,1362.7z
		"/>
	<path fill="#5A4A40" d="M345.1,1341.9L345.1,1341.9c0-0.1-0.1-0.2-0.1-0.3L345.1,1341.9z"/>
	<path fill="#5A4A40" d="M348.5,1352.3c0.1,0.5,0.2,1,0.3,1.4c0,0.2,0.1,0.4,0.1,0.6c0.1,0.3,0.3,1.1,0.2,1.3
		c0.1,0.6,0.2,1.2,0.4,1.9c0.1,0.4,0.2,0.8,0.2,1.3c0,0,0,0,0.1,0c0.5-0.6,0.9-1.3,1.4-1.9c0.2-0.3,0.4-0.5,0.7-0.8
		c0,0,0.1-0.1,0.1-0.1c0.3-0.4,0.6-0.8,0.9-1.1c0.3-0.3,0.6-0.6,0.9-0.9c0.8-0.8,1.7-1.6,2.5-2.4c2.1-1.9,4.4-3.6,6.7-5.1
		c0.1,0,0.1-0.1,0.2-0.1c2.4-1.5,5-2.9,7.6-4.2c0.1,0,0.2-0.1,0.3-0.1c0.7-0.3,1.4-0.7,2.2-1c0.4-0.2,0.8-0.4,1.3-0.6
		c0.5-0.2,1.1-0.4,1.6-0.6c0.8-0.3,1.6-0.6,2.5-0.9c1.2-0.5,2.5-0.9,3.7-1.2c0.4-0.1,0.8-0.3,1.3-0.4c0.2-0.1,0.4-0.1,0.6-0.2
		c0.2-0.1,0.4-0.1,0.6-0.1c0.7-0.2,1.4-0.4,2.1-0.5c0.1,0,0.2,0,0.4-0.1h0c0.1,0,0.3,0,0.4,0c6.4-0.4,12.7-0.7,19.1-1
		c5.9-0.3,11.8-0.6,17.7-0.9c5.4-0.3,10.8-0.5,16.3-0.8c5.3-0.3,10.5-0.5,15.8-0.8l34.4-1.6l-6.3-6.3c-0.5-0.5-0.8-1.2-0.8-1.9
		v-58.2c0-0.4,0.1-0.8,0.3-1.2c-7.7,0.6-15.4,1.3-23.2,2.1c-21.6,2.2-43.1,4.8-64.6,7.9c-0.3,0-0.6,0.1-0.9,0.1
		c-2.2,0.3-4.4,0.6-6.5,0.9c-4,0.6-8,1.1-12,1.7c-3.2,0.5-6.5,1-9.8,1.5c-1,0.1-2,0.3-3,0.5l-2.3,0.4l-5.8,0.9l-1,0.2l-0.3,0l-0.1,0
		l0,0l-0.5,0.1l-1.9,0.5c-1.3,0.4-2.5,0.7-3.8,1.2c-5,1.7-9.8,3.9-14.1,6.7c-4.2,2.8-8,6.6-8.8,10.8c-0.2,1.1-0.2,2.1,0,3.3
		c0.2,1.2,0.4,2.4,0.8,3.6c0.1,0.4,0.3,0.9,0.4,1.3c0.8-1.2,2-2.4,3.1-3.3c4-3.4,9.7-7.2,14.7-7.4c-9.2,3.2-13.4,8.4-16,15.5
		c0.2,0.4,0.3,0.7,0.4,1.1c1.3,2.8,2.7,5.5,4.2,8.2c1.4-2.7,4-5.6,5.3-6.7c3.5-3,9.8-6.9,14.3-7c-7.8,2.7-14.8,9.9-17.8,16.9
		c0.5,0.9,1.1,1.8,1.6,2.7l1,1.7c1.3-2,3.1-4.1,4.1-4.9c3.1-2.6,19-12.9,22.9-14.1c-9.1,5-21.1,15-25.4,21.9l1.5,2.5
		c0.2,0.3,0.3,0.6,0.5,0.9c1.2-2.4,3.6-5.2,4.8-6.2c3.1-2.6,8-6.6,11.9-7.9c-5.3,3.8-12,10.3-14.8,16.3c-0.1,0.2-0.2,0.4-0.3,0.6
		l0.4,0.8l0.5,1l0.1,0.3l0.7,1.6c0.1,0.2,0.3,0.5,0.4,0.7c0.5-0.8,1.1-1.6,1.7-2.4c0.9-1.1,1.8-2.1,2.4-2.6c0.1-0.1,0.2-0.2,0.3-0.2
		c3.1-2.6,7.8-6.5,11.6-7.7c-2.8,2-5.9,4.7-8.7,7.6c-0.8,0.9-1.6,1.8-2.4,2.8c-0.7,0.9-1.4,1.8-2,2.8c-0.6,0.9-1.2,1.9-1.7,2.8
		c0.2,0.8,0.5,1.5,0.7,2.3c0.2,0.9,0.5,1.8,0.7,2.7c0.1,0.4,0.2,0.8,0.3,1.2"/>
	<path fill="#5A4A40" d="M727.3,1299c-0.4-2.4-1.7-4.7-3.4-6.6c-1.7-1.9-3.7-3.6-5.9-5.1c-4.4-2.9-9.3-5.1-14.4-6.9
		c-2.5-0.8-5.1-1.7-7.7-2.1l-4.9-0.8l-3.2-0.5c-0.7-0.1-1.4-0.2-2.1-0.3c-3.5-0.5-7.1-1.1-10.6-1.6c-4-0.6-7.9-1.1-11.9-1.7
		c-1.5-0.2-3-0.4-4.5-0.6c-1-0.1-2-0.3-3-0.4c-21.5-2.9-43.1-5.5-64.7-7.5c-7.9-0.7-15.7-1.4-23.6-2c0.4,0.5,0.7,1.1,0.7,1.8v58.2
		c0,0.7-0.3,1.4-0.8,1.9l-6.6,6.6h0l34.6,1.9l16.5,1l14.5,0.9l17.9,1l20.2,1.2l0.1,0h0c0.1,0,0.1,0,0.2,0c0.6,0.1,1.2,0.3,1.8,0.5
		c0.1,0,0.3,0.1,0.4,0.1c0.2,0,0.3,0.1,0.5,0.1c0.8,0.2,1.5,0.5,2.2,0.7c1,0.3,2,0.7,2.9,1c0.7,0.2,1.3,0.5,2,0.7
		c0.7,0.3,1.5,0.6,2.2,0.9c0.3,0.1,0.7,0.3,1,0.4c0.1,0,0.1,0.1,0.2,0.1c3.5,1.5,6.9,3.3,10.1,5.4c1.4,0.9,2.8,1.9,4.2,3
		c1.5,1.2,3,2.5,4.3,3.8c0.5,0.4,0.9,0.9,1.4,1.4c0.1,0.1,1.8,2.1,2.3,2.8c0.1,0,1.7,2.4,2.2,3.2c0.1,0.2,0.2,0.4,0.3,0.5
		c0.1-0.2,0.1-0.5,0.1-0.7c0.1-0.8,0.3-1.5,0.4-2.3c0-0.2,0.1-0.4,0.1-0.6c0-0.1,0-0.8,0.1-0.8c0.2-1.1,0.4-2.2,0.6-3.3
		c0,0,0-0.1,0-0.2c0-0.1,0.1-0.3,0.1-0.4c0.1-0.4,0.2-0.9,0.3-1.3v0c0.1-0.4,0.2-0.8,0.3-1.3c0.2-1,0.5-2,0.8-2.9
		c0.1-0.3,0.2-0.6,0.3-0.8c-0.6-1.5-1.4-3.1-2.4-4.7c-0.6-0.9-1.3-1.9-2-2.8c-0.7-0.9-1.5-1.8-2.4-2.8c-2.8-3-5.9-5.7-8.6-7.6
		c3.7,1.2,8.5,5.1,11.6,7.7c0.1,0.1,0.2,0.2,0.3,0.2c0.6,0.5,1.5,1.4,2.4,2.6c0.7,0.9,1.4,1.8,2,2.8c0.2,0.3,0.4,0.7,0.5,1
		c0.1-0.3,0.3-0.6,0.4-0.9c0.1-0.3,0.3-0.5,0.4-0.8l-0.1,0.1c0.3-0.7,0.7-1.4,1-2.1c0.1-0.2,0.1-0.3,0.2-0.5
		c-0.2-0.8-0.5-1.5-0.9-2.3c-2.8-6-9.6-12.5-14.8-16.3c3.9,1.2,8.8,5.3,11.8,7.9c1.5,1.3,5,5.2,5.4,7.9c0.7-1.3,1.4-2.5,2.2-3.8
		c-3.5-6.9-16.4-18-26.1-23.2c3.9,1.2,19.8,11.5,22.9,14.1c1.2,1,3.8,3.9,4.9,6.3c0.5-0.8,1-1.6,1.4-2.4c0.4-0.6,0.7-1.2,1.1-1.8
		c-2.6-7.4-10.1-15.6-18.5-18.4c4.5,0.2,10.8,4,14.3,7c1.6,1.3,5,5.3,6,8.3c1.7-3,3.4-6,4.8-9.2c0-0.1,0.1-0.2,0.1-0.3l-0.3,0.3
		c-2.6-8-6.6-13.7-16.5-17.1c5.1,0.2,10.7,4,14.7,7.4c1.6,1.3,3.4,3.1,3.9,5c0.3-0.9,0.6-1.8,0.9-2.7
		C727.2,1304,727.8,1301.4,727.3,1299z"/>
	<path fill="#5A4A40" d="M567.4,1263.1c0,0,0-0.1-0.1-0.1l-0.4-0.3l-0.5-0.5l-22.2-22.2c-0.5-0.5-1.2-0.8-1.9-0.8h-32.6
		c-0.7,0-1.4,0.3-1.9,0.8l-21.7,21.7l-1,1l-0.4,0.3c-0.2,0.2-0.3,0.4-0.4,0.7c-0.2,0.4-0.3,0.8-0.3,1.2v58.2c0,0.7,0.3,1.4,0.8,1.9
		l6.3,6.3l2.2,2.2l2.2,2.2l12.4,12.4c0.5,0.5,1.2,0.8,1.9,0.8h32.6c0.7,0,1.4-0.3,1.9-0.8l12.6-12.6l2-2l1.9-1.9l6.6-6.6
		c0.5-0.5,0.8-1.2,0.8-1.9v-58.2C568.1,1264.2,567.9,1263.5,567.4,1263.1z M549.6,1335.1l-8.3,8.4h-30.4l-8.2-8.2l-2.2-2.1l-2.2-2.2
		l-9-9v-56l3-3l0.9-0.9l0.9-0.9l16.8-16.8h30.4l17.2,17.2l0.4,0.4l0.4,0.4l3.4,3.4v56l-9.2,9.2l-1.9,2L549.6,1335.1z"/>
	<path fill="#5A4A40" d="M561.7,1267.3l-5-5l-0.4-0.4l-0.4-0.4l-14.5-14.5c-0.2-0.3-0.6-0.4-0.9-0.4h-28.7c-0.4,0-0.7,0.1-1,0.4
		l-14.1,14.1l-0.8,0.8l-0.9,0.8l-4.6,4.6c-0.3,0.3-0.4,0.6-0.4,0.9v51.3c0,0.3,0.1,0.7,0.4,0.9l10.3,10.3l2.2,2.2l2.1,2.1l5.7,5.7
		c0.2,0.3,0.6,0.4,1,0.4h28.7c0.3,0,0.7-0.1,0.9-0.4l5.8-5.8l2-2l2-2l10.5-10.5c0.3-0.2,0.4-0.6,0.4-0.9v-51.3
		C562.1,1267.9,562,1267.6,561.7,1267.3z M559.4,1319l-11.8,11.9l-2,2l-2,2l-3.7,3.7h-27.6l-3.6-3.6l-2.1-2.1l-2.2-2.1l-11.7-11.7
		v-50.2l6.3-6.3l0.8-0.8l0.8-0.8l11.6-11.6h27.6l12,12l0.4,0.4l0.4,0.4l6.7,6.7V1319z"/>
	<path fill="#5A4A40" d="M558,1270.1l-4.5-4.7c-1.3-1-14.3-13.7-14.3-13.7h-26.8c0,0-6.2,6.5-9,9.1c-0.1,0.1-0.1,0.1-0.2,0.2
		c-0.2,0.2-0.4,0.3-0.5,0.5c-0.3,0.3-0.5,0.5-0.8,0.8c-1.1,1-2.2,2.1-3.3,3.1c-1.6,1.5-3,3-4.5,4.6l-0.3,47.4l18,18.5l28.6,0.1
		l17.4-18.6C557.9,1317.5,557.7,1284.8,558,1270.1z M539.6,1253.8c1.9,2.5,4,4.9,6.1,7.2c0.1,0.1,0.2,0.2,0.3,0.4
		c0.1,0.1,0.2,0.3,0.4,0.4c0.3,0.3,0.5,0.6,0.8,0.9c1.5,1.6,2.9,3.2,4.4,4.7c1.1,1.2,2.3,2.3,3.5,3.5l-0.5,0.4l-6,4.3
		c-4.1-3.9-8.2-7.9-12.4-11.7l0.8-2.5l0.1-0.3l0.1-0.3L539.6,1253.8z M535.1,1323.6l-0.2,0.2l-18.2-0.6c-4-4.2-8-8.4-12-12.6
		c0-2.8,0-5.6-0.1-8.4l-0.2-8.4c-0.1-2.8-0.2-5.6-0.4-8.4c-0.1-2.4-0.3-4.8-0.5-7.2l0.5-0.5c4.3-4.6,8.7-9.1,13-13.7l0.2-0.2
		l18.2,0.6c3.9,4.2,8,8.4,12,12.6c-0.1,2.8,0,5.6,0,8.4l0.2,8.4c0.1,2.8,0.2,5.6,0.4,8.4c0.1,2.4,0.3,4.8,0.5,7.2l-0.5,0.5
		C543.7,1314.5,539.4,1319,535.1,1323.6z M536.5,1329.7c0,0.2,0.1,0.4,0.1,0.7c0.2,0.7,0.3,1.4,0.5,2.1c0.1,0.5,0.2,0.9,0.3,1.4
		c-3.8-0.2-7.6-0.3-11.4-0.2l-11.5,0.3l0.4-1.5l0.6-2.2l1.6-5.6l17.8-0.5h0C535,1324.1,536.2,1328.7,536.5,1329.7z M526.1,1254.1
		l11.5-0.3l-2,6.9l-0.1,0.3l-0.1,0.3l-0.5,1.8l-17.8,0.5l-0.7-2.2l-0.1-0.2c0-0.1,0-0.2-0.1-0.3c0-0.2-0.1-0.3-0.1-0.5
		c-0.2-0.8-0.3-1.7-0.5-2.5c-0.3-1.4-0.6-2.8-1-4.1C518.4,1254.1,522.3,1254.2,526.1,1254.1z M500.5,1267.4c1.5-1.5,3-3.1,4.4-4.7
		c0.2-0.2,0.4-0.4,0.6-0.6c0.2-0.2,0.4-0.5,0.6-0.7c0.2-0.2,0.4-0.4,0.6-0.6c2-2.2,3.9-4.5,5.8-6.8c0.6,1.5,1.2,3.1,1.8,4.6
		c0.3,0.7,0.6,1.4,0.9,2.1c0.1,0.2,0.1,0.3,0.2,0.4c0.1,0.2,0.1,0.3,0.2,0.5l0,0l0.6,2.1c-4.3,4-8.5,8.1-12.8,12.1l-6.3-4.9
		C498.2,1269.7,499.4,1268.6,500.5,1267.4z M495.4,1272.8l7.4,5.1l0.4,0.2c-0.2,2.5-0.4,4.9-0.5,7.3c-0.1,2.8-0.3,5.6-0.4,8.4
		l-0.2,8.4c0,2.6-0.1,5.1,0,7.7l-5.8,4.5C495.9,1300.6,495.7,1286.7,495.4,1272.8z M511.4,1332.7c-0.6-0.7-1.2-1.4-1.8-2.1
		c-1.5-1.8-3.1-3.6-4.7-5.4c-1.5-1.6-2.9-3.2-4.4-4.7c-1.1-1.2-2.3-2.3-3.5-3.5l0.6-0.4l6-4.3c4.1,3.9,8.2,7.8,12.4,11.7l-2.2,6.4
		l-0.7,2.2l-0.5,1.4C512.1,1333.6,511.8,1333.1,511.4,1332.7z M540.7,1332.7c-0.3,0.4-0.7,0.8-1,1.3c-0.2-0.4-0.3-0.9-0.5-1.3
		c-0.3-0.7-0.6-1.4-0.8-2.1c-0.1-0.4-2.3-6.3-2.3-6.3c4.3-4,8.5-8.1,12.8-12.1l6.3,4.9C553.9,1318.1,541.3,1332,540.7,1332.7z
		 M549.4,1309.9l-0.4-0.3c0.2-2.4,0.4-4.9,0.5-7.3c0.1-2.8,0.3-5.6,0.4-8.4l0.3-8.4c0-2.6,0.1-5.1,0-7.7l5.8-4.5
		c0.3,13.9,0.4,27.8,0.8,41.7L549.4,1309.9z"/>
</g>
</svg>
