<?xml version="1.0" encoding="utf-8"?>
<!-- Generator: Adobe Illustrator 15.1.0, SVG Export Plug-In . SVG Version: 6.00 Build 0)  -->
<!DOCTYPE svg PUBLIC "-//W3C//DTD SVG 1.1//EN" "http://www.w3.org/Graphics/SVG/1.1/DTD/svg11.dtd">
<svg version="1.1" id="レイヤー_1" xmlns="http://www.w3.org/2000/svg" xmlns:xlink="http://www.w3.org/1999/xlink" x="0px"
	 y="0px" width="600px" height="100px" viewBox="0 0 600 100" enable-background="new 0 0 600 100" xml:space="preserve">
<g>
	<g>
		<path fill="#DDF1F2" d="M46.31,75.021c-2.348,0.944-5.27,1.422-8.765,1.422c-3.547,0-6.229-0.711-8.052-2.135
			c-1.823-1.425-2.733-3.933-2.733-7.527c0-3.297-0.264-5.605-0.787-6.93c-0.524-1.322-1.237-2.334-2.136-3.033
			s-2.147-1.049-3.744-1.049h-4.345v19.926H0.392V24.308h28.839c3.846,0,7.142,1.15,9.89,3.445c2.895,2.499,4.344,5.593,4.344,9.29
			c0,2.746-0.888,5.33-2.658,7.752c-1.773,2.423-3.959,3.884-6.556,4.382v0.374c2.896,0.85,4.995,2.484,6.293,4.906
			c1.299,2.424,1.947,5.184,1.947,8.277c0,3.646,0.549,6.244,1.648,7.793c0.498,0.699,1.223,1.172,2.172,1.422L46.31,75.021
			L46.31,75.021z M15.747,44.308h7.94c1.047,0,1.935-0.361,2.659-1.085c0.723-0.725,1.085-1.612,1.085-2.66v-0.749
			c0-1.049-0.363-1.935-1.085-2.66c-0.725-0.724-1.611-1.085-2.659-1.085h-7.94V44.308z"/>
		<path fill="#DDF1F2" d="M51.104,59.365V24.308h15.806v34.833c0,1.648,0.587,2.994,1.762,4.043
			c1.172,1.051,2.608,1.574,4.308,1.574c1.696,0,3.133-0.523,4.307-1.574c1.174-1.049,1.762-2.395,1.762-4.043V24.308h15.729v35.058
			c0,5.145-1.847,9.289-5.543,12.436c-3.595,3.097-8.489,4.644-14.683,4.644H71.33c-6.195,0-11.087-1.547-14.683-4.644
			C52.95,68.654,51.104,64.51,51.104,59.365z"/>
		<path fill="#DDF1F2" d="M135.975,49.177c6.542,1.451,9.813,5.72,9.813,12.81c0,3.795-1.388,7.031-4.158,9.701
			c-2.771,2.674-6.13,4.01-10.076,4.01h-28.613v-51.39h28.166c3.745,0,6.915,1.225,9.514,3.671c2.646,2.447,3.97,5.418,3.97,8.913
			c0,5.145-1.773,8.689-5.319,10.638c-1.048,0.551-2.146,0.999-3.296,1.349V49.177L135.975,49.177z M117.397,44.009h8.614
			c1.048,0,1.934-0.362,2.66-1.087c0.724-0.723,1.085-1.61,1.085-2.659v-1.272c0-1.049-0.363-1.937-1.085-2.66
			c-0.727-0.723-1.611-1.085-2.66-1.085h-8.614V44.009z M117.397,63.785h9.514c1.049,0,1.935-0.363,2.659-1.086
			c0.724-0.725,1.085-1.611,1.085-2.66v-1.35c0-1.049-0.361-1.933-1.085-2.656c-0.726-0.727-1.611-1.088-2.659-1.088h-9.514V63.785z
			"/>
		<path fill="#DDF1F2" d="M147.135,24.308h17.679l7.715,16.855h0.374l7.865-16.855h16.105l-17.003,31.76v19.63h-15.656v-19.63
			L147.135,24.308z"/>
		<path fill="#DDF1F2" d="M200.47,75.697v-51.39h15.28v20.301l14.681-20.301h17.381l-15.657,20.601l16.105,30.789h-17.603
			l-8.915-18.58l-5.992,7.191v11.389H200.47z"/>
		<path fill="#DDF1F2" d="M250.12,75.697l17.154-51.39h19.552l17.151,51.39H287.65l-3.07-9.141h-16.33l-2.997,9.141H250.12z
			 M271.845,55.693h9.139l-4.344-15.581h-0.375L271.845,55.693z"/>
		<path fill="#DDF1F2" d="M306.303,75.697V64.609h6.067V35.32h-6.067V24.308h28.016V35.32h-6.067v29.29h6.067v11.089L306.303,75.697
			L306.303,75.697z"/>
		<path fill="#DDF1F2" d="M386.153,64.908c0,4.197,0.176,7.789,0.527,10.789h-8.389l-2.101-5.471
			c-1.549,1.75-3.695,3.221-6.443,4.418c-2.646,1.198-5.395,1.799-8.237,1.799h-0.75c-6.144,0-11.26-2.197-15.357-6.592
			c-4.041-4.293-6.065-9.588-6.065-15.882v-7.938c0-3.097,0.584-6.019,1.762-8.765c1.172-2.746,2.807-5.119,4.906-7.117
			c4.543-4.394,10.284-6.592,17.229-6.592h2.096c5.693,0,10.562,1.748,14.607,5.244c4.145,3.595,6.217,8.089,6.217,13.483v0.526
			h-14.531c0-2.647-0.735-4.57-2.211-5.767c-1.473-1.2-3.231-1.798-5.28-1.798h-0.375c-2.097,0-3.871,0.725-5.318,2.173
			c-1.447,1.448-2.172,3.221-2.172,5.317v14.456c0,2.099,0.725,3.873,2.172,5.318c1.447,1.451,3.223,2.174,5.318,2.174h1.348
			c2.1,0,3.711-0.674,4.832-2.021c1.123-1.349,1.688-3.195,1.688-5.543h-8.688V46.93h23.219L386.153,64.908L386.153,64.908z"/>
		<path fill="#DDF1F2" d="M392.073,75.697V64.609h6.068V35.32h-6.068V24.308h28.013V35.32h-6.066v29.29h6.066v11.089L392.073,75.697
			L392.073,75.697z"/>
		<path fill="#DDF1F2" d="M425.405,75.697V73c0-2.848,0.438-5.283,1.312-7.307c0.875-2.021,2.436-3.906,4.68-5.654l14.834-11.686
			c2.699-2.147,4.045-4.768,4.045-7.865c0-1.448-0.514-2.685-1.535-3.708c-1.024-1.024-2.262-1.536-3.709-1.536h-0.973
			c-1.449,0-2.688,0.499-3.709,1.497c-1.021,1.001-1.539,2.249-1.539,3.747v2.097h-13.18v-1.423c0-5.094,1.646-9.264,4.942-12.511
			c3.543-3.395,8.265-5.094,14.156-5.094h2.324c5.492,0,9.936,1.549,13.334,4.645c3.344,3.096,5.02,7.091,5.02,11.985
			c0,2.597-0.451,4.845-1.348,6.743c-1.65,3.445-5.021,6.941-10.115,10.486l-8.164,5.693h19.699v12.586h-40.074V75.697
			L425.405,75.697z"/>
		<path fill="#DDF1F2" d="M471.471,57.717V42.285c0-5.192,1.824-9.612,5.471-13.258c3.646-3.645,8.062-5.469,13.258-5.469h3.373
			c5.191,0,9.611,1.824,13.256,5.469c3.646,3.646,5.472,8.065,5.472,13.258v15.432c0,5.193-1.824,9.613-5.472,13.258
			c-3.645,3.646-8.063,5.469-13.256,5.469h-3.373c-5.194,0-9.612-1.823-13.258-5.469C473.295,67.332,471.471,62.91,471.471,57.717z
			 M486.305,59.588c0,1.648,0.535,3.062,1.608,4.234c1.074,1.174,2.408,1.762,4.009,1.762c1.547,0,2.856-0.588,3.932-1.762
			c1.074-1.172,1.611-2.586,1.611-4.234v-19.25c0-1.649-0.537-3.059-1.611-4.231c-1.074-1.173-2.385-1.759-3.932-1.759
			c-1.601,0-2.935,0.586-4.009,1.759c-1.073,1.174-1.608,2.583-1.608,4.231V59.588z"/>
		<path fill="#DDF1F2" d="M517.676,75.697V64.234h11.387v-23.97h-11.387V31.65c4.895-0.3,10.36-2.047,16.403-5.243
			c1.697-0.948,3.244-1.899,4.646-2.848h5.016v40.675h10.938v11.464L517.676,75.697L517.676,75.697z"/>
		<path fill="#DDF1F2" d="M557.211,64.385V53.223c1.147-1.947,2.623-4.944,4.42-8.99l2.246-5.543
			c2.547-6.14,4.221-11.185,5.021-15.131h13.258c-0.551,3.697-2.572,8.866-6.067,15.505c-3.396,6.444-6.441,11.212-9.14,14.31
			h11.236V45.73c1.996-2.746,4.193-7.164,6.592-13.258c0.601-1.598,1.023-2.921,1.273-3.97h6.219v24.871h7.338v11.01h-7.338v11.312
			h-14.084V64.385H557.211z"/>
	</g>
</g>
</svg>
