<?xml version="1.0" encoding="utf-8"?>
<!-- Generator: Adobe Illustrator 23.0.3, SVG Export Plug-In . SVG Version: 6.00 Build 0)  -->
<svg version="1.1" id="レイヤー_1" xmlns="http://www.w3.org/2000/svg" xmlns:xlink="http://www.w3.org/1999/xlink" x="0px"
	 y="0px" viewBox="0 0 148.5 131.5" style="enable-background:new 0 0 148.5 131.5;" xml:space="preserve">
<style type="text/css">
	.st0{opacity:0.6;}
	.st1{opacity:0.3;}
	.st2{fill:none;stroke:#EAA4A4;stroke-width:3.12;stroke-miterlimit:10;}
</style>
<title>hana30</title>
<g class="st0">
	<g id="レイヤー_1-2">
		<g class="st1">
			<path class="st2" d="M57,46.7c-9,2.9-18.8-2-21.8-11c-2.9-8.9,2-18.5,10.9-21.4c0.1,0,0.2-0.1,0.2-0.1c9-2.9,18.8,2,21.8,11
				c2.9,9-2,18.6-11,21.5C57.1,46.7,57,46.7,57,46.7z M55.6,63.4c7.6-5.5,9.4-16.1,3.9-23.7c0-0.1-0.1-0.1-0.1-0.2
				c-5.7-7.6-16.4-9.3-24.1-3.8c-7.6,5.5-9.4,16.1-3.9,23.7c0,0.1,0.1,0.1,0.1,0.2C37.1,67.3,47.8,68.9,55.6,63.4z M15,63.4
				c7.7,5.5,18.5,3.9,24.1-3.8c5.6-7.6,3.9-18.2-3.7-23.8c-0.1,0-0.1-0.1-0.2-0.1c-7.7-5.5-18.5-3.9-24.1,3.8
				c-5.5,7.6-3.9,18.2,3.7,23.8C14.9,63.3,14.9,63.4,15,63.4z M2.4,25.2c-2.9,9,2,18.6,11,21.5c0,0,0.1,0,0.1,0
				c9,2.9,18.8-2,21.8-11c2.9-9-2-18.6-11-21.5c0,0-0.1,0-0.1,0C15.1,11.3,5.4,16.2,2.4,25.2z M35.3,1.6c-9.5,0-17.2,7.6-17.3,17.1
				c-0.1,9.5,7.5,17.4,17.1,17.5c9.5,0.1,17.4-7.5,17.5-17.1C52.7,9.5,45,1.7,35.5,1.6C35.4,1.6,35.3,1.6,35.3,1.6z M35.3,1.6
				c-9.5,0-17.2,7.6-17.3,17.1c-0.1,9.5,7.5,17.4,17.1,17.5c9.5,0.1,17.4-7.5,17.5-17.1C52.7,9.5,45,1.7,35.5,1.6
				C35.4,1.6,35.3,1.6,35.3,1.6z"/>
		</g>
		<g class="st1">
			<path class="st2" d="M135,110c-9,2.9-18.8-2-21.8-11c-2.9-9,2-18.6,11-21.5c0,0,0.1,0,0.1,0c9-2.9,18.8,2,21.8,11
				c2.9,9-2,18.6-11,21.5C135.1,110,135,110,135,110z M133.5,126.7c7.6-5.5,9.4-16.1,3.9-23.7c0-0.1-0.1-0.1-0.1-0.2
				c-5.6-7.6-16.4-9.3-24.1-3.8c-7.6,5.5-9.4,16.1-3.9,23.7c0,0.1,0.1,0.1,0.1,0.2C115.1,130.5,125.8,132.2,133.5,126.7L133.5,126.7
				z M92.9,126.7c7.7,5.5,18.5,3.9,24.1-3.8c5.6-7.6,3.9-18.2-3.6-23.8c-0.1,0-0.1-0.1-0.2-0.1c-7.7-5.5-18.5-3.9-24.1,3.8
				c-5.5,7.6-3.9,18.2,3.7,23.8C92.9,126.6,92.9,126.6,92.9,126.7L92.9,126.7z M80.4,88.4c-2.9,9,2,18.6,10.9,21.5
				c0.1,0,0.1,0,0.2,0.1c9,2.9,18.8-2,21.8-11c2.9-9-2-18.6-11-21.5c0,0-0.1,0-0.1,0C93.1,74.5,83.4,79.4,80.4,88.4z M113.2,64.8
				c-9.4,0.1-17,7.8-16.9,17.3c0.1,9.4,7.8,17,17.3,16.9c9.4-0.1,16.9-7.7,16.9-17.1C130.5,72.4,122.7,64.8,113.2,64.8z M113.2,64.8
				c-9.4,0.1-17,7.8-16.9,17.3c0.1,9.4,7.8,17,17.3,16.9c9.4-0.1,16.9-7.7,16.9-17.1C130.5,72.4,122.7,64.8,113.2,64.8z"/>
		</g>
	</g>
</g>
</svg>
