<svg xmlns="http://www.w3.org/2000/svg" viewBox="0 0 580.55 71.53"><defs><style>.cls-1{fill:#1e3549;}</style></defs><title>logo</title><g id="レイヤー_2" data-name="レイヤー 2"><g id="レイヤー_1-2" data-name="レイヤー 1"><path class="cls-1" d="M32.26,56.92l-9.77-14.1H11.72v14.1H0V6.29H21.92A28.15,28.15,0,0,1,33.59,8.53a17.41,17.41,0,0,1,7.64,6.37,17.56,17.56,0,0,1,2.67,9.76,17.17,17.17,0,0,1-2.71,9.73,17.22,17.22,0,0,1-7.7,6.26L44.84,56.92Zm-3-38.8q-2.74-2.28-8-2.28H11.72V33.49h9.54q5.28,0,8-2.32A8,8,0,0,0,32,24.66,8,8,0,0,0,29.29,18.12Z"/><path class="cls-1" d="M90.12,18V56.92H79.41V52.29a14.89,14.89,0,0,1-5.35,3.87,16.85,16.85,0,0,1-6.73,1.34q-7.66,0-12.15-4.41T50.7,40V18H62V38.33q0,9.41,7.89,9.4a8.44,8.44,0,0,0,6.51-2.64q2.45-2.64,2.45-7.84V18Z"/><path class="cls-1" d="M133.48,19.93a18,18,0,0,1,7,7A21.27,21.27,0,0,1,143,37.46,21.28,21.28,0,0,1,140.46,48a18,18,0,0,1-7,7,19.8,19.8,0,0,1-9.88,2.5q-8,0-12.22-5.06v4.48H100.6V3.25h11.29V22.13q4.26-4.69,11.71-4.7A19.8,19.8,0,0,1,133.48,19.93Zm-4.71,25.38a10.91,10.91,0,0,0,2.79-7.85,10.9,10.9,0,0,0-2.79-7.84,10.12,10.12,0,0,0-14.24,0,10.9,10.9,0,0,0-2.79,7.84,10.91,10.91,0,0,0,2.79,7.85,10.12,10.12,0,0,0,14.24,0Z"/><path class="cls-1" d="M187.68,18l-17.57,41.3q-2.69,6.72-6.62,9.47A16.24,16.24,0,0,1,154,71.53a19.58,19.58,0,0,1-6-.94,13.4,13.4,0,0,1-4.85-2.6l4.12-8a9.89,9.89,0,0,0,3,1.81,9.5,9.5,0,0,0,3.37.65,6,6,0,0,0,3.76-1.12,9.55,9.55,0,0,0,2.6-3.73l.15-.36L143.28,18h11.64l10.92,26.4,11-26.4Z"/><path class="cls-1" d="M211.55,37l-6.8,7.09v12.8H193.11V6.29h11.64V29.94L227.17,6.29h13l-21,22.57,22.2,28.06H227.75Z"/><path class="cls-1" d="M274,21.73q4.85,4.31,4.85,13v22.2H268.25V52.07q-3.18,5.43-11.86,5.43A18.49,18.49,0,0,1,248.61,56a11.61,11.61,0,0,1-5-4.19,10.92,10.92,0,0,1-1.74-6.08,10.14,10.14,0,0,1,4.09-8.54q4.08-3.11,12.62-3.1h9a7.2,7.2,0,0,0-2.24-5.68q-2.25-2-6.73-2a19.38,19.38,0,0,0-6.11,1,16.36,16.36,0,0,0-5.1,2.63l-4-7.88a24.48,24.48,0,0,1,7.63-3.47,34.11,34.11,0,0,1,9.15-1.23Q269.11,17.43,274,21.73Zm-9.62,26.84a7.36,7.36,0,0,0,3.19-4v-4h-7.74q-6.95,0-6.94,4.55a4.06,4.06,0,0,0,1.69,3.44,7.71,7.71,0,0,0,4.67,1.26A9.81,9.81,0,0,0,264.34,48.57Z"/><path class="cls-1" d="M289.59,10.78a5.85,5.85,0,0,1-2-4.49,5.83,5.83,0,0,1,2-4.48A7.13,7.13,0,0,1,294.65,0a7.32,7.32,0,0,1,5.06,1.74,5.55,5.55,0,0,1,2,4.34,6.14,6.14,0,0,1-2,4.66,7.06,7.06,0,0,1-5.06,1.84A7.17,7.17,0,0,1,289.59,10.78ZM289,18h11.28V56.92H289Z"/><path class="cls-1" d="M352.36,18v32.4q0,10.71-5.56,15.91t-16.28,5.21a40.9,40.9,0,0,1-10.7-1.37,23.55,23.55,0,0,1-8.39-4l4.48-8.1a18.52,18.52,0,0,0,6.22,3.22,25,25,0,0,0,7.52,1.19q5.87,0,8.65-2.64t2.78-8V50.19Q336.67,55,328.79,55a20.59,20.59,0,0,1-9.8-2.35,17.92,17.92,0,0,1-7.06-6.62,18.53,18.53,0,0,1-2.6-9.83,18.54,18.54,0,0,1,2.6-9.84A17.92,17.92,0,0,1,319,19.78a20.59,20.59,0,0,1,9.8-2.35q8.46,0,12.87,5.57V18Zm-14,25.13a9,9,0,0,0,2.86-6.9,9,9,0,0,0-2.86-6.91A10.4,10.4,0,0,0,331,26.69a10.53,10.53,0,0,0-7.38,2.64,8.9,8.9,0,0,0-2.89,6.91,8.9,8.9,0,0,0,2.89,6.9A10.53,10.53,0,0,0,331,45.78,10.4,10.4,0,0,0,338.37,43.14Z"/><path class="cls-1" d="M363.43,10.78a5.88,5.88,0,0,1-1.95-4.49,5.86,5.86,0,0,1,1.95-4.48A7.13,7.13,0,0,1,368.49,0a7.32,7.32,0,0,1,5.06,1.74,5.53,5.53,0,0,1,2,4.34,6.11,6.11,0,0,1-2,4.66,7.06,7.06,0,0,1-5.06,1.84A7.17,7.17,0,0,1,363.43,10.78ZM362.85,18h11.28V56.92H362.85Z"/><path class="cls-1" d="M440.53,47.37v9.55H402.27V49.33l19.52-18.45a20.3,20.3,0,0,0,4.2-5.1,9.29,9.29,0,0,0,1.08-4.23A5.57,5.57,0,0,0,425,16.89c-1.37-1.09-3.39-1.63-6-1.63a13.75,13.75,0,0,0-6,1.27,11.49,11.49,0,0,0-4.48,3.79L400,14.83a20,20,0,0,1,8.17-6.91,27.38,27.38,0,0,1,11.94-2.5,24.51,24.51,0,0,1,9.87,1.85,15.13,15.13,0,0,1,6.58,5.21,13.44,13.44,0,0,1,2.35,7.92,17.74,17.74,0,0,1-1.73,7.73c-1.16,2.42-3.4,5.16-6.73,8.25l-11.64,11Z"/><path class="cls-1" d="M455.86,54.68a20.81,20.81,0,0,1-7.7-9,32.59,32.59,0,0,1-2.79-14.06,32.64,32.64,0,0,1,2.79-14.07,20.87,20.87,0,0,1,7.7-9,21.76,21.76,0,0,1,22.42,0,20.87,20.87,0,0,1,7.7,9,32.64,32.64,0,0,1,2.79,14.07A32.59,32.59,0,0,1,486,45.67a20.81,20.81,0,0,1-7.7,9,21.76,21.76,0,0,1-22.42,0ZM474.34,43.9q2.64-4,2.64-12.29t-2.64-12.3a8.57,8.57,0,0,0-14.47,0q-2.64,4-2.64,12.3t2.64,12.29a8.57,8.57,0,0,0,14.47,0Z"/><path class="cls-1" d="M532.31,47.37v9.55H494.05V49.33l19.52-18.45a20.52,20.52,0,0,0,4.2-5.1,9.29,9.29,0,0,0,1.08-4.23,5.57,5.57,0,0,0-2.06-4.66c-1.37-1.09-3.39-1.63-6-1.63a13.75,13.75,0,0,0-6,1.27,11.49,11.49,0,0,0-4.48,3.79l-8.54-5.49a20,20,0,0,1,8.17-6.91,27.38,27.38,0,0,1,11.94-2.5,24.51,24.51,0,0,1,9.87,1.85,15.18,15.18,0,0,1,6.58,5.21,13.44,13.44,0,0,1,2.35,7.92,17.74,17.74,0,0,1-1.73,7.73c-1.16,2.42-3.4,5.16-6.73,8.25l-11.64,11Z"/><path class="cls-1" d="M547.64,54.68a20.81,20.81,0,0,1-7.7-9,32.59,32.59,0,0,1-2.79-14.06,32.64,32.64,0,0,1,2.79-14.07,20.87,20.87,0,0,1,7.7-9,21.76,21.76,0,0,1,22.42,0,20.87,20.87,0,0,1,7.7,9,32.64,32.64,0,0,1,2.79,14.07,32.59,32.59,0,0,1-2.79,14.06,20.81,20.81,0,0,1-7.7,9,21.76,21.76,0,0,1-22.42,0ZM566.12,43.9q2.64-4,2.64-12.29t-2.64-12.3a8.57,8.57,0,0,0-14.47,0q-2.64,4-2.64,12.3t2.64,12.29a8.57,8.57,0,0,0,14.47,0Z"/></g></g></svg>