<?xml version="1.0" encoding="UTF-8"?><svg id="_レイヤー_2" xmlns="http://www.w3.org/2000/svg" viewBox="0 0 689.9 98.9"><g id="_レイヤー_1-2"><path d="M47.5,5.5C24.3,5.5,5.5,24.3,5.5,47.5s18.9,42,42,42,42-18.9,42-42S70.7,5.5,47.5,5.5h0ZM47.5,95C21.3,95,0,73.7,0,47.5S21.3,0,47.5,0s47.5,21.3,47.5,47.5-21.3,47.5-47.5,47.5h0Z"/><path d="M61.7,31.6l1-1c-3.7-3.3-8.6-5.4-13.9-5.7v1.4c4.9.3,9.4,2.2,12.9,5.3Z"/><path d="M72.4,20.9c.5-.5.7-1.1.7-1.7,0-.6-.3-1.2-.8-1.6-6-5-13.3-8-21-8.7-.6,0-1.3.2-1.7.6-.5.4-.8,1.1-.8,1.7v12.5c5.7.3,10.9,2.5,14.9,6.1l8.8-8.8Z"/><path d="M31.6,33.3l-1-1c-3.4,3.7-5.6,8.6-5.9,13.9h1.4c.3-5,2.4-9.5,5.5-12.9Z"/><path d="M20.9,22.6c-.5-.5-1.1-.7-1.7-.7-.6,0-1.2.3-1.6.8-5,6-8,13.3-8.7,21,0,.6.2,1.3.6,1.7.4.5,1.1.8,1.7.8h12.2c.4-5.7,2.7-10.9,6.3-14.9l-8.8-8.8Z"/><path d="M46.3,11.1c0-.6-.3-1.3-.8-1.7-.5-.4-1.1-.6-1.7-.6-7.7.7-15,3.8-21,8.7-.5.4-.8,1-.8,1.6,0,.6.2,1.3.7,1.7l8.8,8.8c4-3.6,9.2-5.8,14.9-6.1v-12.5Z"/><path d="M46.3,26.3v-1.4c-5.3.3-10.1,2.4-13.9,5.7l1,1c3.5-3.1,8-5,12.9-5.3Z"/><path d="M26,48.7h-1.4c.2,5.4,2.3,10.3,5.7,14.1l1-1c-3.1-3.6-5.1-8.2-5.3-13.2Z"/><path d="M11.1,48.7c-.6,0-1.3.3-1.7.8-.4.5-.6,1.1-.6,1.7.7,7.7,3.8,15,8.7,21,.4.5,1,.8,1.6.8,0,0,0,0,.1,0,.6,0,1.2-.2,1.6-.7l8.5-8.5c-3.6-4.1-5.9-9.3-6.1-15.1h-12.2Z"/><path d="M33,63.7l-1,1c3.8,3.5,8.7,5.7,14.2,6v-1.4c-5.1-.3-9.7-2.3-13.2-5.5Z"/><path d="M22.6,74.1c-.5.5-.7,1.1-.7,1.7,0,.6.3,1.2.8,1.6,6,5,13.3,8,21,8.7,0,0,.1,0,.2,0,.6,0,1.1-.2,1.5-.6.5-.4.8-1.1.8-1.7v-11.9c-5.8-.3-11.1-2.7-15.2-6.4l-8.5,8.5Z"/><path d="M69,46.3h1.4c-.4-5.3-2.5-10.2-5.9-13.9l-1,1c3.1,3.5,5.2,8,5.5,12.9Z"/><path d="M83.9,46.3c.6,0,1.3-.3,1.7-.8.4-.5.6-1.1.6-1.7-.7-7.7-3.8-15-8.7-21-.4-.5-1-.8-1.6-.8-.6,0-1.3.2-1.7.7l-8.8,8.8c3.6,4,6,9.2,6.3,14.9h12.2Z"/><path d="M83.9,48.7h-12.2c-.2,5.8-2.5,11.1-6.1,15.1l8.5,8.5c.4.4,1,.7,1.6.7s0,0,.1,0c.6,0,1.2-.3,1.6-.8,5-6,8-13.3,8.7-21,0-.6-.2-1.3-.6-1.7-.4-.5-1.1-.8-1.7-.8Z"/><path d="M63.7,61.9l1,1c3.4-3.8,5.5-8.7,5.7-14.1h-1.4c-.2,5-2.2,9.6-5.3,13.2Z"/><path d="M48.7,69.3v1.4c5.4-.3,10.4-2.5,14.2-6l-1-1c-3.5,3.2-8.1,5.3-13.2,5.5Z"/><path d="M48.7,83.9c0,.6.3,1.3.8,1.7.4.4,1,.6,1.5.6s.1,0,.2,0c7.7-.7,15-3.8,21-8.7.5-.4.8-1,.8-1.6,0-.6-.2-1.3-.7-1.7l-8.5-8.5c-4,3.7-9.3,6.1-15.2,6.4v11.9Z"/><polygon points="45.2 37.8 36 37.8 29.9 44.5 39.2 44.5 45.2 37.8"/><polygon points="53.5 44.5 47.4 37.8 41.1 44.5 53.5 44.5"/><polygon points="65 44.5 59.2 37.8 49.5 37.8 55.6 44.5 65 44.5"/><polygon points="41.4 46.1 47.4 63.6 53.5 46.1 41.4 46.1"/><polygon points="49.3 62.2 65.1 46.1 55.5 46.1 49.3 62.2"/><polygon points="29.8 46.1 45.5 62.2 39.4 46.1 29.8 46.1"/><path d="M162,74.8c.2.3.9.5,2,.5v1.4h-15.1v-1.4c.7,0,1.2-.1,1.4-.4.2-.2.3-.5,0-.7l-12.5-21h-7.7v21.3c0,.2.2.4.6.6.4.1.8.2,1.1.2v1.4h-13.4v-1.4c.3,0,.7,0,1.1-.2.4-.1.6-.3.6-.6V23.2c0-.2-.2-.4-.6-.6s-.7-.2-1.1-.2v-1.4h22.7c6.5,0,11.5,1.5,14.8,4.4,3.3,2.9,5,6.7,5,11.4s-1.2,7.8-3.5,10.4c-2.4,2.6-5.4,4.4-9.1,5.3l13.4,22.3ZM130.3,29.6v14.6h12.2c3.1,0,5.4-.7,6.9-2.2,1.5-1.4,2.3-3.2,2.3-5.2s-.9-3.7-2.6-5.1c-1.7-1.4-3.9-2.1-6.4-2.1h-12.4Z"/><path d="M203,74.5c0,.2.2.4.6.6s.7.2,1.1.2v1.4h-9.2v-2.7c-2.6,2.3-5.7,3.4-9.1,3.4-5.2,0-9-1.5-11.4-4.5-2.4-3-3.6-6.7-3.6-11.3v-16.9c0-.2-.2-.4-.6-.6s-.7-.2-1.1-.2v-1.4h12.6v1.4c-.3,0-.7,0-1.1.2-.4.1-.6.3-.6.6v16.3c0,2.1.5,3.9,1.6,5.4,1.1,1.5,2.8,2.2,5.1,2.2s3.8-.7,4.9-2c1.1-1.3,1.6-3,1.6-5.1v-16.7c0-.2-.2-.4-.6-.6s-.7-.2-1.1-.2v-1.4h12.5v1.4c-.3,0-.7,0-1.1.2s-.6.3-.6.6v29.7Z"/><path d="M244.4,43.9c2.9,1.5,5.1,3.6,6.8,6.4,1.7,2.7,2.5,5.9,2.5,9.4s-.8,6.8-2.5,9.5c-1.6,2.7-3.9,4.8-6.7,6.3-2.8,1.5-6.1,2.2-9.7,2.2s-7.8-1.2-10.8-3.7v2.7h-10.8v-1.4c.3,0,.7,0,1.1-.2s.6-.3.6-.6V23.2c0-.2-.2-.4-.6-.6s-.7-.2-1.1-.2v-1.4h12.5v1.4c-.3,0-.7,0-1.1.2s-.6.3-.6.6v21.9c3-2.3,6.6-3.5,10.8-3.5s6.7.8,9.6,2.3ZM241.7,67c2-1.8,3-4.3,3-7.4s-1-5.3-3-7.2c-2-1.9-4.5-2.9-7.5-2.9s-5.6,1-7.6,2.9c-2,1.9-3,4.4-3,7.4s.5,3.4,1.4,4.9c.9,1.5,2.2,2.7,3.8,3.6,1.6.9,3.4,1.4,5.3,1.4,3,0,5.5-.9,7.5-2.7Z"/><path d="M298,43.9c-1,0-1.7.2-1.9.6l-26,51.2c0,0,0,.1,0,.2,0,.3.2.5.5.7.3.2.8.3,1.3.3v1.4h-14v-1.4c1,0,1.7-.2,1.9-.6l12.1-23.8-15.2-28.1c-.2-.3-.8-.5-1.9-.5v-1.4h13.7v1.4c-.6,0-1,.1-1.1.4-.1.2,0,.5.1.8l9.4,17.5,8.8-17.4s0-.1,0-.2c0-.3-.2-.5-.5-.7-.3-.2-.8-.3-1.3-.3v-1.4h14v1.4Z"/><path d="M351.7,75.1c.2.2.6.3,1.1.3.5,0,.8,0,.9,0v1.4h-16.8v-1.4c.7,0,1.1,0,1.2-.2,0-.1,0-.3-.2-.6l-19.1-21.2-2.5,2.5v18.7c0,.2.2.4.6.6.4.1.7.2,1.1.2v1.4h-12.8v-1.4c.3,0,.7,0,1.1-.2s.6-.3.6-.6V23.2c0-.2-.2-.4-.6-.6s-.7-.2-1.1-.2v-1.4h12.8v1.4c-.3,0-.7,0-1.1.2-.4.1-.6.3-.6.6v19.5l19.5-19.6c0,0,.1-.2.1-.3,0-.2-.4-.4-1.2-.4v-1.4h16.9v1.4h-1.4c-.4,0-.8,0-1,.1l-23.4,23.7,26,28.8Z"/><path d="M395.3,43.9c-.3,0-.7,0-1.1.2-.4.1-.6.3-.6.6v29.7c0,.2.2.4.6.6.4.1.7.2,1.1.2v1.4h-11v-4.1c-3.1,3.4-7.1,5.1-11.8,5.1s-6.8-.7-9.5-2.2c-2.7-1.5-4.9-3.6-6.4-6.3-1.5-2.7-2.3-5.9-2.3-9.5s.8-6.6,2.5-9.4c1.7-2.7,3.9-4.9,6.6-6.4,2.8-1.5,5.8-2.3,9.1-2.3,4.8,0,8.7,1.8,11.8,5.5v-4.6h11v1.4ZM379.1,68.4c1.6-.9,2.9-2.1,3.8-3.6.9-1.5,1.3-3.1,1.3-4.9,0-3-1-5.4-2.9-7.4-2-1.9-4.5-2.9-7.6-2.9s-5.5.9-7.5,2.8c-2,1.9-2.9,4.3-2.9,7.2s1,5.5,3,7.4c2,1.8,4.5,2.7,7.4,2.7s3.9-.5,5.5-1.4Z"/><path d="M404.9,44.2c-.4-.1-.7-.2-1.1-.2v-1.4h12.8v1.4c-.3,0-.7,0-1.1.2s-.6.3-.6.6v29.7c0,.2.2.4.6.6s.7.2,1.1.2v1.4h-12.8v-1.4c.3,0,.7,0,1.1-.2.4-.1.6-.3.6-.6v-29.7c0-.2-.2-.4-.6-.6ZM406.2,34.6c-1.1-1.1-1.7-2.5-1.7-4.1s.6-2.9,1.7-4,2.5-1.7,4-1.7,2.9.6,4,1.7c1.1,1.1,1.6,2.4,1.6,4s-.5,3-1.6,4.1-2.4,1.6-4,1.6-2.9-.5-4-1.6Z"/><path d="M463.4,42.5v1.4c-.3,0-.7,0-1.1.2s-.6.3-.6.6v34.7c0,6.2-1.7,11-5.3,14.4s-8.4,5.1-14.6,5.1-5.2-.7-8-2.1c-2.8-1.4-5.4-3.5-7.8-6.3,0-.1-.2-.2-.4-.2-.4,0-.8.2-1.3.5l-.8-1.1,9.3-7.4.9,1.1c-.2.2-.5.5-.7.8-.2.3-.3.6-.1.9,1.2,1.7,2.6,3,4,3.9,1.4.8,3.2,1.3,5.2,1.3,3.2,0,5.7-.8,7.6-2.3,1.8-1.6,2.7-3.9,2.7-7.1v-6.8c-3.1,2.4-6.7,3.6-10.8,3.6s-6.9-.8-9.8-2.3c-2.8-1.5-5.1-3.6-6.7-6.4-1.6-2.7-2.4-5.9-2.4-9.5s.8-6.7,2.5-9.4c1.7-2.7,4-4.8,6.8-6.2,2.9-1.5,6-2.2,9.5-2.2s7.8,1.1,10.8,3.4v-2.7h10.9ZM450,67.1c1.8-1.8,2.7-4.2,2.7-7.2s-1-5.4-3-7.4c-2-1.9-4.5-2.9-7.6-2.9s-5.4.9-7.4,2.8c-2,1.9-2.9,4.3-2.9,7.3s1,5.5,3,7.3c2,1.8,4.4,2.7,7.4,2.7s6-.9,7.8-2.7Z"/><path d="M473.3,44.2c-.4-.1-.7-.2-1.1-.2v-1.4h12.8v1.4c-.3,0-.7,0-1.1.2s-.6.3-.6.6v29.7c0,.2.2.4.6.6s.7.2,1.1.2v1.4h-12.8v-1.4c.3,0,.7,0,1.1-.2.4-.1.6-.3.6-.6v-29.7c0-.2-.2-.4-.6-.6ZM474.7,34.6c-1.1-1.1-1.7-2.5-1.7-4.1s.6-2.9,1.7-4,2.5-1.7,4-1.7,2.9.6,4,1.7c1.1,1.1,1.6,2.4,1.6,4s-.5,3-1.6,4.1-2.4,1.6-4,1.6-2.9-.5-4-1.6Z"/><path d="M543.1,66.2v12h-1.4c0-.3,0-.7-.2-1-.1-.3-.3-.5-.6-.5h-37.8v-2.3l22.1-24.1c2.1-2.3,3.8-4.4,5.1-6.3,1.3-1.9,1.9-3.9,1.9-5.9s-.9-5.2-2.6-7c-1.7-1.8-4-2.7-6.7-2.7s-4.6.8-6.4,2.5c-1.9,1.7-2.8,3.8-2.9,6.4,0,.2.3.4.7.6.4.1.9.2,1.3.2v1.4h-14v-1.4c.3,0,.7,0,1.2-.2.4-.1.7-.3.7-.6.3-3.3,1.3-6.3,2.9-9,1.6-2.7,3.9-4.8,6.8-6.4,2.9-1.6,6.3-2.4,10.2-2.4s7.6.9,10.4,2.7c2.8,1.8,4.9,4.2,6.4,7.1,1.4,2.9,2.1,5.9,2.1,9.1s-.4,4.3-1.1,6.2c-.7,1.8-1.8,3.7-3.2,5.5-1.4,1.8-3.4,4.2-6.2,7.2l-9.7,10.6h18.7c.2,0,.4-.2.6-.5.1-.3.2-.7.2-1h1.4Z"/><path d="M562.5,76c-3.2-1.6-5.7-4-7.6-7.1-1.9-3.1-2.9-6.9-2.9-11.2v-16.9c0-3.6.7-7.1,2.2-10.4,1.5-3.3,3.8-6,6.9-8.1,3.1-2.1,7-3.2,11.5-3.2s9,1,12.1,3.1c3.1,2.1,5.4,4.8,6.8,8.1,1.4,3.3,2.1,6.8,2.1,10.5v17.2c0,6.6-1.9,11.6-5.7,15.2-3.8,3.5-8.9,5.3-15.2,5.3s-7.1-.8-10.3-2.4ZM580.4,65.3c1.8-2.2,2.7-5.9,2.7-11v-12.8c0-3.9-.9-7-2.7-9.1-1.8-2.2-4.5-3.3-8-3.3s-5.7,1.1-7.5,3.2c-1.8,2.1-2.7,5.2-2.7,9.4v13.4c0,4.4.9,7.8,2.8,10.1,1.9,2.3,4.5,3.5,7.8,3.5s5.8-1.1,7.6-3.3Z"/><path d="M642.5,66.2v12h-1.4c0-.3,0-.7-.2-1-.1-.3-.3-.5-.6-.5h-37.8v-2.3l22.1-24.1c2.1-2.3,3.8-4.4,5.1-6.3,1.3-1.9,1.9-3.9,1.9-5.9s-.9-5.2-2.6-7c-1.7-1.8-4-2.7-6.7-2.7s-4.6.8-6.4,2.5c-1.9,1.7-2.8,3.8-2.9,6.4,0,.2.3.4.7.6.4.1.9.2,1.3.2v1.4h-14v-1.4c.3,0,.7,0,1.2-.2.4-.1.7-.3.7-.6.3-3.3,1.3-6.3,2.9-9,1.6-2.7,3.9-4.8,6.8-6.4,2.9-1.6,6.3-2.4,10.2-2.4s7.6.9,10.4,2.7c2.8,1.8,4.9,4.2,6.4,7.1,1.4,2.9,2.1,5.9,2.1,9.1s-.4,4.3-1.1,6.2c-.7,1.8-1.8,3.7-3.2,5.5-1.4,1.8-3.4,4.2-6.2,7.2l-9.7,10.6h18.7c.2,0,.4-.2.6-.5.1-.3.2-.7.2-1h1.4Z"/><path d="M680.4,41.6c3,1.6,5.4,3.9,7,6.8,1.7,2.9,2.5,6.3,2.5,10.1s-.9,7.5-2.6,10.6c-1.7,3-4.1,5.4-7.2,7.1-3.1,1.7-6.7,2.5-10.8,2.5s-6.6-.7-9.3-2.1c-2.7-1.4-5.5-3.5-8.4-6.5,0,0-.2-.1-.4-.1-.4,0-.9.2-1.5.7l-.9-1,10-8.6,1,1c-.3.2-.6.6-.8,1-.2.4-.3.7-.1.9,1.3,1.6,2.8,2.9,4.6,3.8,1.8,1,3.7,1.4,5.8,1.4,3.6,0,6.2-1,8-3,1.8-2,2.7-4.6,2.7-7.9s-1-5.4-2.9-7.3c-2-1.9-4.4-2.8-7.5-2.8s-3.7.4-5.2,1.2c-1.5.8-2.7,1.7-3.5,2.9l-10.2-1.9.3-1.4c0,0,.3,0,.7,0,.7,0,1.1-.2,1.2-.5l5.6-25.5h0c0-.3-.1-.5-.3-.6-.2,0-.5-.1-.8-.1v-1.4h26.7c.2,0,.4-.2.6-.5s.2-.7.2-1h1.4v12h-1.4c0-.3,0-.7-.2-1-.1-.3-.3-.5-.6-.5h-17.4l-2.2,10.1c1.8-.5,3.7-.8,5.8-.8,4,0,7.5.8,10.5,2.4Z"/></g></svg>