<svg xmlns="http://www.w3.org/2000/svg" xmlns:xlink="http://www.w3.org/1999/xlink" viewBox="0 0 530.27 520.58"><defs><style>.cls-1{fill:url(#名称未設定グラデーション_25);}.cls-2{fill:#e9e9e9;}.cls-3{fill:url(#名称未設定グラデーション_25-2);}.cls-4{fill:#f3d35b;}.cls-5{fill:url(#名称未設定グラデーション_36);}.cls-6{fill:url(#名称未設定グラデーション_13);}.cls-7,.cls-9{fill:#8b0016;}.cls-7{stroke:#f8f8f8;stroke-width:1.79px;}.cls-10,.cls-7{stroke-linecap:round;stroke-linejoin:round;}.cls-8{fill:#fff;}.cls-10{fill:none;stroke:#e5bd3e;stroke-width:8.19px;}.cls-11{fill:#544347;}.cls-12{fill:url(#名称未設定グラデーション_34);}</style><linearGradient id="名称未設定グラデーション_25" x1="127.14" y1="8.22" x2="285.12" y2="8.22" gradientTransform="matrix(0.98, 0.1, -0.1, 0.99, 180, 133.89)" gradientUnits="userSpaceOnUse"><stop offset="0" stop-color="#bfbfbf"/><stop offset="1" stop-color="#fff"/></linearGradient><linearGradient id="名称未設定グラデーション_25-2" x1="-102.4" y1="187.64" x2="165.24" y2="187.64" gradientTransform="translate(177.35 134.61) rotate(5.86)" xlink:href="#名称未設定グラデーション_25"/><linearGradient id="名称未設定グラデーション_36" x1="-69.61" y1="146.39" x2="-69.61" y2="24.84" gradientTransform="matrix(0.99, 0.1, -0.1, 0.99, 177.37, 134.57)" gradientUnits="userSpaceOnUse"><stop offset="0" stop-color="#dbdbdb"/><stop offset="1" stop-color="#fff"/></linearGradient><linearGradient id="名称未設定グラデーション_13" x1="-102.4" y1="242.98" x2="82.55" y2="242.98" gradientTransform="translate(177.35 134.61) rotate(5.86)" gradientUnits="userSpaceOnUse"><stop offset="0" stop-color="#e6e6e6"/><stop offset="1" stop-color="#fff"/></linearGradient><linearGradient id="名称未設定グラデーション_34" x1="158.13" y1="146.39" x2="158.13" y2="-44.79" gradientTransform="matrix(0.99, 0.1, -0.1, 0.99, 177.37, 134.57)" xlink:href="#名称未設定グラデーション_13"/></defs><title>アセット 18</title><g id="レイヤー_2" data-name="レイヤー 2"><g id="レイヤー_1-2" data-name="レイヤー 1"><polygon class="cls-1" points="404.24 100.15 446.4 112.54 456.02 200.53 440.74 234.22 301.01 184.05 311.56 156.63 404.24 100.15"/><polygon class="cls-2" points="111.73 61.65 181.84 47.8 289.7 124.98 301.05 184.66 64.59 230.06 50.28 166.02 111.73 61.65"/><polygon class="cls-3" points="64.63 230.04 117.59 468.36 313.99 421.97 301.05 184.66 64.63 230.04"/><ellipse class="cls-4" cx="237.56" cy="238.28" rx="148.6" ry="46.2" transform="translate(-15.3 16.3) rotate(-3.81)"/><polygon class="cls-5" points="0 141.32 6.46 172.15 64.67 230.03 198.73 283.93 147.37 225.62 42.37 155.59 0 141.32"/><polygon class="cls-6" points="64.63 230.04 117.59 468.36 220.74 520.58 198.74 283.94 64.63 230.04"/><path class="cls-7" d="M167.79,372l11-20.34a5.57,5.57,0,0,0-1.73-.91l-25-6.89,15.31,28.05Z"/><polygon class="cls-7" points="167.45 371.87 152.14 343.81 130.02 361.52 167.45 371.87"/><path class="cls-7" d="M130,361.52l22.12-17.7L127.38,337a4.58,4.58,0,0,0-1.74-.1l4,24.56Z"/><path class="cls-7" d="M167.79,372l-.34-.09L130,361.52l-.34-.09.18,1.12,9,54.86c.8,1.62,2.42,2,3.63.95l.23-.21,24.54-45.25Z"/><path class="cls-7" d="M178.83,351.62a8.6,8.6,0,0,1,3.08,4.09l6,19.15a6.21,6.21,0,0,1-.41,2.6L167.77,372Z"/><path class="cls-7" d="M187.52,377.46a1.54,1.54,0,0,1-.16.38l-44.73,40.6s0,0,0,0L167.77,372Z"/><path class="cls-7" d="M125.64,336.87a6.13,6.13,0,0,0-4,2.12l-11.26,14.38a6.3,6.3,0,0,0-.4,2.6l19.75,5.46Z"/><path class="cls-7" d="M109.93,356a2.23,2.23,0,0,0,0,.42l28.89,61,0,.06-9.21-56Z"/><polygon class="cls-7" points="167.79 371.96 167.29 372.9 142.75 418.15 167.79 371.96 167.79 371.96"/><polygon class="cls-7" points="167.79 371.96 178.82 351.62 167.79 371.96 167.79 371.96"/><polygon class="cls-7" points="129.68 361.43 129.68 361.43 138.89 417.41 129.86 362.55 129.68 361.43"/><polygon class="cls-7" points="129.68 361.43 125.64 336.87 129.68 361.43 129.68 361.43"/><polygon class="cls-8" points="198.73 283.93 220.64 520.54 412.02 474.68 440.88 234.28 198.73 283.93"/><path class="cls-9" d="M271.38,316.24c.76,4.28-2.86,7.61-6.19,8.87,2.91.68,3.84,7.64,7,7.08a2.73,2.73,0,0,0,1.79-1.3c.22-.31.34-.45.57-.49a.4.4,0,0,1,.48.34,3.94,3.94,0,0,1-.43,1.71,6.62,6.62,0,0,1-4.88,4.14c-6.71,1.21-4.84-10.64-8.25-10-.17,2.7-.88,8.18-.43,10.7.11.63-.08.82-.64.92-1.11.21-3.33.84-3.92.95s-.75-.1-.86-.74c-.38-2.14,1.15-15,1.55-19.24a6.26,6.26,0,0,1,2-4.54c-4.8,1.18-7.67,5.46-7.22,8,.21,1.2.87,1.67,1.83,1.49a7.32,7.32,0,0,0,1.21-.49c.26,0,.4.08.45.35.18,1.05-1.4,4.2-4.32,4.73a3.83,3.83,0,0,1-4.7-3.41c-1.05-5.9,5.92-11.42,15.41-13.14C266.77,311.22,270.67,312.29,271.38,316.24Zm-5.22.13c-.34-1.92-1.43-2.85-2.87-2.59a7.83,7.83,0,0,0-1.1,3.54c-.38,3-.69,7.26-.66,7.25C265.16,323.45,266.71,319.45,266.16,316.37Z"/><path class="cls-9" d="M283,331.82a8.69,8.69,0,0,1-5.19,3.3,2.83,2.83,0,0,1-3.44-2.36c-.41-2.33.36-5.3.12-6.65-.11-.64-.39-.67-.47-1.16-.15-.82,1.75-1.75,3.9-2.14.82-.15,1.32.11,1.43.75.31,1.73-.61,4.49-.12,7.23a.87.87,0,0,0,1.05.78,2.83,2.83,0,0,0,1.95-1.94,10.8,10.8,0,0,0,.45-5c-.11-.64-.39-.67-.47-1.16-.15-.83,1.75-1.75,3.9-2.14.82-.15,1.32.11,1.43.75.27,1.46-.52,4.59-.16,6.58.17,1,.79,1.45,1.46,1.33s.87-.47,1.26-1.05c.22-.31.35-.45.57-.49a.54.54,0,0,1,.61.44,2.08,2.08,0,0,1-.38,1.3,6.05,6.05,0,0,1-4.23,3.33C283.72,334.05,283,331.82,283,331.82Z"/><path class="cls-9" d="M294.55,321.35a5.31,5.31,0,0,1,3.25-2.14c2.34-.42,4.08.35,4.58,3.13.64,3.64-1.13,8.54-6.28,9.47-3.78.68-5.84-1-6.34-3.85-.65-3.61,1.16-8.32.29-13.2-.22-1.24-1-1.73-1.74-1.59-.37.07-.58,0-.63-.35-.14-.78,1.6-2.38,3.71-2.76s3.34.48,3.67,2.36S294.58,319.56,294.55,321.35Zm1.36,8.71c1.81-.33,2-5.48,1.72-7.09-.17-.94-.76-1.26-1.43-1.14s-1.26.65-1.44,2a19.5,19.5,0,0,0-.12,5.1C294.77,329.69,295.2,330.19,295.91,330.06Z"/><path class="cls-9" d="M303.91,319.54c-.15-.82,1.75-1.75,3.86-2.13.86-.15,1.32.11,1.44.75.29,1.65-.51,4.67-.1,7,.12.64.58,1.1,1.17,1a3.3,3.3,0,0,0,2.06-2,10.47,10.47,0,0,0,.23-4.92c-.11-.64-.39-.67-.47-1.16-.15-.82,1.75-1.75,3.86-2.13.86-.16,1.32.11,1.44.75.16.94-.17,1.42-.11,7.77.06,5.92.35,14.44-6.36,15.65-2.71.49-5.32-.67-5.79-3.3a4.13,4.13,0,0,1,2.47-4.82c.26-.05.43,0,.47.26.06.38-.24.63-.09,1.45.19,1.09,1.17,1.61,2.43,1.38,2.7-.48,2.91-4.9,2.81-8.68a8,8,0,0,1-5.23,3.27,3,3,0,0,1-3.7-2.32c-.45-2.51.32-5.29.08-6.64C304.27,320.06,304,320,303.91,319.54Z"/><path class="cls-9" d="M316.25,319.89c-2.22.4-4.18-.95-4.65-3.58-1.13-6.39,4.87-11.78,10.21-12.74,3.55-.64,5.95.55,6.5,3.63a25.2,25.2,0,0,1-.11,6.07c3.1-2.35,2.68-10.72,6.24-11.37a9.12,9.12,0,0,1,4,.1c.45.15.63.27.68.57s-.1.49-.44.55a3.56,3.56,0,0,0-2.19,1.67c-1.77,2.73-2.53,7.48-6.16,9.41a4.38,4.38,0,0,1,3.36,2.77c1.22,2.57,2.09,5.75,4,5.4a2.88,2.88,0,0,0,1.65-1c.25-.28.38-.42.61-.46a.47.47,0,0,1,.56.4,3.43,3.43,0,0,1-.58,1.85c-.6,1.2-1.81,3.39-4.18,3.82-4,.73-5.29-3.07-6-6.94-.42-2.33-.77-4.09-1.86-4a47.72,47.72,0,0,0-.25,11.52c.11.64-.12.84-.64.93-1.15.21-3.33.84-3.92.95s-.78-.1-.9-.73c-.56-3.2,2-15.88,1-21.55a1.45,1.45,0,0,0-1.91-1.28c-2.49.45-5,5-4.43,8C316.9,313.84,318.26,319.52,316.25,319.89Z"/><path class="cls-9" d="M351.58,323.89a3,3,0,0,1-3.21-1.47,7.36,7.36,0,0,1-4.31,2.83c-2.19.4-4.24-.78-4.75-3.67-.66-3.72.89-7.92,6.19-8.88,2-.35,2.64.26,3.24.16s2.09-1.12,2.95-1.27a.49.49,0,0,1,.65.46c.16.9-.61,4.06-.09,7,.17,1,.87,1.44,1.53,1.32s.87-.47,1.27-1.05c.21-.31.34-.45.56-.49a.55.55,0,0,1,.62.43,2.09,2.09,0,0,1-.38,1.31A6.14,6.14,0,0,1,351.58,323.89Zm-5.46-9.59c-2.11.38-2.33,4.49-2,6.56.18,1,.76,1.68,1.58,1.53s1.33-.9,1.61-2.11a16.19,16.19,0,0,0,.09-5.1A1,1,0,0,0,346.12,314.3Z"/><path class="cls-9" d="M355.21,320c-.42-2.4.36-5.07.12-6.42-.11-.64-.34-.67-.43-1.16-.15-.83,1.72-1.75,3.86-2.13.82-.15,1.33.1,1.44.74.27,1.51-.5,4.09-.06,6.57.18,1,.83,1.44,1.5,1.31s.87-.46,1.27-1c.21-.31.34-.45.56-.49a.54.54,0,0,1,.61.43,2,2,0,0,1-.38,1.31,6.11,6.11,0,0,1-4.26,3.33C357,322.92,355.52,321.75,355.21,320Zm2.11-16.78a1.94,1.94,0,0,1,2.43,1.62,3.26,3.26,0,0,1-2.19,3.61,2.08,2.08,0,0,1-2.44-1.65A3.21,3.21,0,0,1,357.32,303.24Z"/><path class="cls-9" d="M367.78,321a4.11,4.11,0,0,1-5-3.64c-.66-3.68.88-7.92,6.18-8.87,2-.36,2.8.23,3.39.12.78-.14,1.84-1.07,2.88-1.26.37-.06.58.05.65.47a76.11,76.11,0,0,0-.26,8.22c.14,5.91.47,14.42-6.21,15.62-2.7.49-5.32-.66-5.78-3.29a4.14,4.14,0,0,1,2.46-4.83c.26-.05.43,0,.47.27s-.23.62-.08,1.45c.19,1.09,1.16,1.61,2.42,1.38,3.19-.58,2.73-7.24,2.62-8.07A5.75,5.75,0,0,1,367.78,321Zm1.67-11c-1.89.34-2.16,4.62-1.82,6.53.17,1,.8,1.68,1.61,1.53s1.38-.86,1.62-2.11a20.72,20.72,0,0,0,.05-5.09C370.79,310.15,370.27,309.81,369.45,310Z"/><path class="cls-9" d="M384,315.12a1.45,1.45,0,0,0,.9-.55c.22-.23.28-.36.5-.4s.4.12.44.35a1.67,1.67,0,0,1-.28,1A4.92,4.92,0,0,1,382,318.4c-2.44.44-3.77-.75-4.07-2.48-.43-2.4.36-5.07.12-6.42-.12-.64-.35-.67-.44-1.16-.15-.83,1.72-1.74,3.87-2.13.81-.15,1.32.11,1.43.75.27,1.5-.43,4.45,0,6.93C383,314.83,383.49,315.22,384,315.12Zm-4-16a1.93,1.93,0,0,1,2.43,1.62,3.24,3.24,0,0,1-2.19,3.61,2.07,2.07,0,0,1-2.43-1.65A3.21,3.21,0,0,1,380,299.14Z"/><path class="cls-9" d="M258,360.05a9.23,9.23,0,0,1-6.37,5.2c-5,5.09,8.49,43.81-15.43,48.22-7.38,1.36-13.72-2.36-14.91-8.91-1.36-7.47,4.25-12.13,9.44-13.09,2-.36,2.61-.17,2.73.45s-.22,1-.79,1.24a5.51,5.51,0,0,0-2.74,5.47,4.43,4.43,0,0,0,5.4,3.65c10.08-1.86,5.34-22,7.23-31.74a8.57,8.57,0,0,1,2.63-4.81,22.27,22.27,0,0,0-8.63,0c-4.29.79-6.8,4.09-6.29,6.91.41,2.21,1.89,3.12,3.77,2.77,1.2-.22,1.59-1.08,2.19-1.19a.74.74,0,0,1,.91.7c.51,2.82-2.22,8.36-7.48,9.33A8.58,8.58,0,0,1,219.5,377c-1.49-8.23,5.46-14.48,14-16s13.09-.68,16.93-1.39c5-.93,6.18-3.66,7.23-3.85.53-.1.87.07,1,.61A7.74,7.74,0,0,1,258,360.05Z"/><path class="cls-9" d="M279.47,405.1a6.16,6.16,0,0,1-6.52-3s-3.26,4.77-8.75,5.79c-4.44.81-8.6-1.57-9.66-7.44-1.37-7.55,1.75-16.08,12.5-18.06,4-.74,5.38.5,6.59.28s4.25-2.28,6-2.6a1,1,0,0,1,1.33.94c.33,1.83-1.22,8.26-.14,14.21.36,2,1.77,2.9,3.12,2.65s1.77-1,2.57-2.13c.43-.63.69-.91,1.14-1a1.11,1.11,0,0,1,1.25.88,4.17,4.17,0,0,1-.77,2.66A12.46,12.46,0,0,1,279.47,405.1Zm-11.14-19.45c-4.29.79-4.72,9.14-4,13.33.36,2,1.55,3.42,3.21,3.11,1.43-.26,2.7-1.83,3.26-4.3a32.8,32.8,0,0,0,.15-10.35A2,2,0,0,0,268.33,385.65Z"/><path class="cls-9" d="M312.89,390.91c.43-.63.69-.92,1.14-1a1.09,1.09,0,0,1,1.25.87,4.21,4.21,0,0,1-.76,2.66c-1.27,2.44-4,5.93-8.27,6.73-6.54,1.2-8.83-8.85-9.58-8.72,0,0-.59,7.05-.33,8.49s-.16,1.69-1.29,1.9c-2.26.41-5.2,1.35-6.4,1.57-.9.17-1.5-.12-1.73-1.41-1.21-6.64,2.51-23.86.45-35.22-.45-2.52-1.95-3.5-3.53-3.21-.68.12-1.19-.1-1.3-.71-.29-1.6,3.24-4.85,7.53-5.64,4-.74,6.78.95,7.47,4.77.87,4.8-1.44,22.48-.89,25.53,2.26-.42,4-3.43,3.71-5.26-.15-.83-.7-.89-.84-1.65-.29-1.6,3.93-4.9,7.39-5.54,1.51-.28,2.29.21,2.5,1.35.58,3.2-1.91,7.91-6.91,12.07,1.31,2.51,4.44,5.17,7.6,4.59A4.11,4.11,0,0,0,312.89,390.91Z"/><path class="cls-9" d="M337.31,385.38a3,3,0,0,1,1.41-1.21.89.89,0,0,1,1.07.75c.14.77-.13,1.44-1,2.87-2,3.13-5,7.54-12.31,8.89-7.07,1.3-12.61-1-13.94-8.3s3.32-15.11,13.33-17c5.11-.94,7.86.92,8.45,4.2.79,4.34-3.49,9.46-10.9,11.46.48,2.67,2.89,4.35,6.5,3.69C333.73,390.06,335.9,387.06,337.31,385.38Zm-8.6-9.28a1.61,1.61,0,0,0-2.13-1.43c-2.25.42-4.59,4.71-3.77,9.21C327,382.25,329,377.92,328.71,376.1Z"/><path class="cls-9" d="M361.88,373.84c1.55,8.54-2.47,16.84-11.72,18.55-6.62,1.22-11.61-1.88-12.72-8-1.34-7.39,3.11-15.86,13.42-17.76C356.43,365.63,360.93,368.58,361.88,373.84Zm-6.78,2.9c-2.5-.48-3.33-1.19-3.58-2.57-.34-1.9.67-2.72.59-3.18a.59.59,0,0,0-.79-.48,4.17,4.17,0,0,0-1.91,1.45c-1.6,1.87-2.9,5-2.11,9.37.62,3.43,3,5.28,5.91,4.74s4.4-4,3.92-6.71A3,3,0,0,0,355.1,376.74Z"/><path class="cls-9" d="M382.28,381.35a17.69,17.69,0,0,1-10.51,6.74,5.76,5.76,0,0,1-7-4.78c-.86-4.72.69-10.76.19-13.5-.23-1.3-.78-1.35-1-2.34-.31-1.68,3.55-3.57,7.91-4.38,1.65-.3,2.68.22,2.92,1.51.63,3.51-1.23,9.13-.22,14.69a1.8,1.8,0,0,0,2.15,1.58,5.78,5.78,0,0,0,3.95-4,22.18,22.18,0,0,0,.88-10.17c-.24-1.29-.79-1.35-1-2.34-.3-1.68,3.55-3.57,7.91-4.37,1.66-.31,2.69.21,2.92,1.51.54,3-1,9.33-.3,13.37.36,2,1.62,2.93,3,2.68s1.77-1,2.56-2.13c.44-.63.69-.91,1.15-1a1.1,1.1,0,0,1,1.24.88,4.23,4.23,0,0,1-.76,2.66,12.36,12.36,0,0,1-8.57,6.78C383.8,385.87,382.28,381.35,382.28,381.35Z"/><path class="cls-9" d="M407,363.09a39.59,39.59,0,0,0,0,8.91c.41,2.28,1.69,2.91,3.5,2.58,1.5-.28,2.74-2,3.77-3.22.44-.55.76-.92,1.21-1a1,1,0,0,1,1.15.74,2.69,2.69,0,0,1-.33,1.63c-1.48,2.95-5.66,8.21-10.32,9.08-5.42,1-8.35-1.86-9.08-5.9-.88-4.87.76-9.12.07-12.93-.18-1-2.1,0-2.35-1.38-.14-.76.05-2.29.88-2.44,4-.74,6.95-5.38,8.33-8.94.53-1.36,1.05-1.93,1.72-2a1.16,1.16,0,0,1,1.43,1c.3,1.68-.18,5,.05,6.3.18,1,.58,1.47,2.83,1.05.61-.11,1.1,0,1.21.64.28,1.53-.36,2.75-1.26,2.92C407.87,360.4,407.15,361.16,407,363.09Z"/><path class="cls-9" d="M281.34,454.94c-1,.16-2.17-1.83-2.34-2.84-.2-1.25.41-1.82,1.29-3.06,4.13-5.66,8.95-12.28,8.19-17-.37-2.27-1.57-3.06-3.62-2.73a3,3,0,0,0-2.41,3.34c.21,1.29,1.54,1.12,1.83,2.92a2.38,2.38,0,0,1-1.9,2.69c-2,.32-3.47-.9-3.85-3.21-.62-3.83,2.5-7.67,7.33-8.46s8.94.85,9.7,5.56c.93,5.73-6.92,11.81-9.2,16a10.47,10.47,0,0,1,1.17-.29c1.55-.26,3.06-.22,4.33-.43,2.05-.34,2.52-.89,3.29-2.2.33-.58.52-.85.84-.9.5-.08.74.21.82.72.32,1.94-1.13,7.77-5.73,8.53-3.1.51-4-.62-6.95-.14C283,453.61,282.34,454.77,281.34,454.94Z"/><path class="cls-9" d="M316.43,431c1.35,8.31-2,19-9.77,20.24-4.28.71-7.9-1.68-8.93-8.06-1.66-10.2,3.07-19.14,9.77-20.24C311.74,422.24,315.38,424.48,316.43,431Zm-11.77,14.26c.31,1.9,1.38,3.33,2.75,3.11,3.69-.61,3.39-13.13,2.32-19.73-.27-1.71-.83-3.42-2.29-3.18C304.07,426,302.84,434,304.66,445.26Z"/><path class="cls-9" d="M320.76,448.44c-1,.17-2.17-1.82-2.33-2.84-.21-1.24.4-1.82,1.28-3.05,4.14-5.66,9-12.29,8.19-17-.37-2.26-1.57-3.06-3.62-2.72a3,3,0,0,0-2.41,3.33c.21,1.3,1.54,1.13,1.83,2.93a2.36,2.36,0,0,1-1.9,2.68c-2,.32-3.47-.9-3.84-3.21-.63-3.83,2.5-7.66,7.33-8.46s8.93.85,9.7,5.56c.92,5.73-6.93,11.81-9.21,16,.41-.11.81-.23,1.18-.29,1.55-.25,3.05-.22,4.32-.43,2.06-.33,2.53-.88,3.3-2.2.32-.57.52-.84.83-.89.51-.09.74.21.82.71.32,1.95-1.12,7.78-5.73,8.54-3.09.51-4-.63-6.94-.14C322.46,447.12,321.76,448.28,320.76,448.44Z"/><path class="cls-9" d="M355.85,424.5c1.35,8.31-2,19-9.77,20.25-4.28.7-7.9-1.69-8.93-8.06-1.66-10.21,3.07-19.14,9.77-20.25C351.16,415.74,354.8,418,355.85,424.5Zm-11.77,14.27c.31,1.89,1.39,3.33,2.75,3.1,3.7-.61,3.4-13.12,2.32-19.73-.27-1.71-.83-3.42-2.29-3.17C343.49,419.52,342.26,427.55,344.08,438.77Z"/><path class="cls-10" d="M205.83,141.37s33.28,24.45,33,38.37"/><path class="cls-10" d="M243.09,128.52c10,5.84,30,30.83,32.06,37"/><path class="cls-10" d="M223.49,135.9c11.24,2.46,30.86,28.68,32.27,34.61"/><path class="cls-11" d="M517.18,48.63S153.56,191.36,148.39,193.76s-11.09,10.58-10.26,12.72,14,3,22.86.05S524,66.28,524,66.28,541.89,50.61,517.18,48.63Z"/><path class="cls-11" d="M492.12,0S141.51,168.21,136.56,171s-10.18,11.34-9.17,13.41,14.18,2,22.8-1.57S500.43,17.1,500.43,17.1,516.92.21,492.12,0Z"/><path class="cls-10" d="M200.94,135.88c-8.49,4.9-18,83.65-16.91,107"/><path class="cls-10" d="M216.79,128.51c-8.17,4.41-18.87,91.64-17.81,115"/><path class="cls-10" d="M234.73,121.37c-9.43,4-20.3,98.86-19.24,122.19"/><polygon class="cls-12" points="198.73 283.93 205.22 229.13 312.36 125.11 389.03 111.3 454.09 178.16 440.88 234.28 198.73 283.93"/></g></g></svg>