<?xml version="1.0" encoding="utf-8"?>
<!-- Generator: Adobe Illustrator 15.1.0, SVG Export Plug-In . SVG Version: 6.00 Build 0)  -->
<!DOCTYPE svg PUBLIC "-//W3C//DTD SVG 1.1//EN" "http://www.w3.org/Graphics/SVG/1.1/DTD/svg11.dtd">
<svg version="1.1" id="レイヤー_1" xmlns="http://www.w3.org/2000/svg" xmlns:xlink="http://www.w3.org/1999/xlink" x="0px"
	 y="0px" width="500px" height="500px" viewBox="0 0 500 500" enable-background="new 0 0 500 500" xml:space="preserve">
<g>
	<defs>
		<rect id="SVGID_1_" width="500" height="500"/>
	</defs>
	<clipPath id="SVGID_2_">
		<use xlink:href="#SVGID_1_"  overflow="visible"/>
	</clipPath>
	<rect x="-228.219" y="-229.328" clip-path="url(#SVGID_2_)" fill="#EDFDBF" width="956.434" height="956.433"/>
	<radialGradient id="SVGID_3_" cx="249.998" cy="248.8887" r="200.8037" gradientUnits="userSpaceOnUse">
		<stop  offset="0" style="stop-color:#FFFFFF;stop-opacity:0.95"/>
		<stop  offset="0.4335" style="stop-color:#FFFFFF;stop-opacity:0.6512"/>
		<stop  offset="0.9375" style="stop-color:#FFFFFF;stop-opacity:0"/>
	</radialGradient>
	<path clip-path="url(#SVGID_2_)" fill="url(#SVGID_3_)" d="M450.802,248.89c0,110.901-89.903,200.802-200.804,200.802
		c-110.901,0-200.804-89.901-200.804-200.802c0-110.903,89.902-200.805,200.804-200.805
		C360.898,48.085,450.802,137.987,450.802,248.89z"/>
	<g opacity="0.07" clip-path="url(#SVGID_2_)">
		<radialGradient id="SVGID_4_" cx="281.376" cy="-57.9985" r="218.1333" gradientUnits="userSpaceOnUse">
			<stop  offset="0" style="stop-color:#1A0B08;stop-opacity:0.95"/>
			<stop  offset="0.4335" style="stop-color:#1A0B08;stop-opacity:0.6512"/>
			<stop  offset="0.9375" style="stop-color:#1A0B08;stop-opacity:0"/>
		</radialGradient>
		<polygon opacity="0.7" fill="url(#SVGID_4_)" points="249.999,-364.886 249.999,248.889 312.753,-361.717 		"/>
		<radialGradient id="SVGID_5_" cx="341.2578" cy="-51.7637" r="222.1709" gradientUnits="userSpaceOnUse">
			<stop  offset="0" style="stop-color:#1A0B08;stop-opacity:0.95"/>
			<stop  offset="0.4335" style="stop-color:#1A0B08;stop-opacity:0.6512"/>
			<stop  offset="0.9375" style="stop-color:#1A0B08;stop-opacity:0"/>
		</radialGradient>
		<polygon opacity="0.7" fill="url(#SVGID_5_)" points="373.696,-352.416 249.999,248.889 432.516,-337.292 		"/>
		<radialGradient id="SVGID_6_" cx="396.2793" cy="-33.8828" r="225.1199" gradientUnits="userSpaceOnUse">
			<stop  offset="0" style="stop-color:#1A0B08;stop-opacity:0.95"/>
			<stop  offset="0.4335" style="stop-color:#1A0B08;stop-opacity:0.6512"/>
			<stop  offset="0.9375" style="stop-color:#1A0B08;stop-opacity:0"/>
		</radialGradient>
		<polygon opacity="0.7" fill="url(#SVGID_6_)" points="488.907,-316.654 249.999,248.889 542.561,-290.807 		"/>
		<radialGradient id="SVGID_7_" cx="445.207" cy="-5.5874" r="226.7865" gradientUnits="userSpaceOnUse">
			<stop  offset="0" style="stop-color:#1A0B08;stop-opacity:0.95"/>
			<stop  offset="0.4335" style="stop-color:#1A0B08;stop-opacity:0.6512"/>
			<stop  offset="0.9375" style="stop-color:#1A0B08;stop-opacity:0"/>
		</radialGradient>
		<polygon opacity="0.7" fill="url(#SVGID_7_)" points="593.166,-260.063 249.999,248.889 640.415,-224.73 		"/>
		<radialGradient id="SVGID_8_" cx="486.8086" cy="31.8867" r="227.1213" gradientUnits="userSpaceOnUse">
			<stop  offset="0" style="stop-color:#1A0B08;stop-opacity:0.95"/>
			<stop  offset="0.4335" style="stop-color:#1A0B08;stop-opacity:0.6512"/>
			<stop  offset="0.9375" style="stop-color:#1A0B08;stop-opacity:0"/>
		</radialGradient>
		<polygon opacity="0.7" fill="url(#SVGID_8_)" points="684.002,-185.115 249.999,248.889 723.617,-141.53 		"/>
		<radialGradient id="SVGID_9_" cx="519.8457" cy="77.3047" r="226.1181" gradientUnits="userSpaceOnUse">
			<stop  offset="0" style="stop-color:#1A0B08;stop-opacity:0.95"/>
			<stop  offset="0.4335" style="stop-color:#1A0B08;stop-opacity:0.6512"/>
			<stop  offset="0.9375" style="stop-color:#1A0B08;stop-opacity:0"/>
		</radialGradient>
		<polygon opacity="0.7" fill="url(#SVGID_9_)" points="758.949,-94.28 249.999,248.889 789.693,-43.675 		"/>
		<radialGradient id="SVGID_10_" cx="543.0898" cy="129.4336" r="223.7981" gradientUnits="userSpaceOnUse">
			<stop  offset="0" style="stop-color:#1A0B08;stop-opacity:0.95"/>
			<stop  offset="0.4335" style="stop-color:#1A0B08;stop-opacity:0.6512"/>
			<stop  offset="0.9375" style="stop-color:#1A0B08;stop-opacity:0"/>
		</radialGradient>
		<polygon opacity="0.7" fill="url(#SVGID_10_)" points="815.541,9.979 249.999,248.889 836.18,66.371 		"/>
		<radialGradient id="SVGID_11_" cx="555.3018" cy="187.041" r="220.2668" gradientUnits="userSpaceOnUse">
			<stop  offset="0" style="stop-color:#1A0B08;stop-opacity:0.95"/>
			<stop  offset="0.4335" style="stop-color:#1A0B08;stop-opacity:0.6512"/>
			<stop  offset="0.9375" style="stop-color:#1A0B08;stop-opacity:0"/>
		</radialGradient>
		<polygon opacity="0.7" fill="url(#SVGID_11_)" points="851.303,125.193 249.999,248.889 860.604,186.134 		"/>
		<radialGradient id="SVGID_12_" cx="556.8848" cy="280.2656" r="218.133" gradientUnits="userSpaceOnUse">
			<stop  offset="0" style="stop-color:#1A0B08;stop-opacity:0.95"/>
			<stop  offset="0.4335" style="stop-color:#1A0B08;stop-opacity:0.6512"/>
			<stop  offset="0.9375" style="stop-color:#1A0B08;stop-opacity:0"/>
		</radialGradient>
		<polygon opacity="0.7" fill="url(#SVGID_12_)" points="863.771,248.889 249.997,248.889 860.604,311.643 		"/>
		<radialGradient id="SVGID_13_" cx="550.6494" cy="340.1475" r="222.1711" gradientUnits="userSpaceOnUse">
			<stop  offset="0" style="stop-color:#1A0B08;stop-opacity:0.95"/>
			<stop  offset="0.4335" style="stop-color:#1A0B08;stop-opacity:0.6512"/>
			<stop  offset="0.9375" style="stop-color:#1A0B08;stop-opacity:0"/>
		</radialGradient>
		<polygon opacity="0.7" fill="url(#SVGID_13_)" points="851.302,372.585 249.997,248.889 836.18,431.406 		"/>
		<radialGradient id="SVGID_14_" cx="532.7686" cy="395.1689" r="225.1196" gradientUnits="userSpaceOnUse">
			<stop  offset="0" style="stop-color:#1A0B08;stop-opacity:0.95"/>
			<stop  offset="0.4335" style="stop-color:#1A0B08;stop-opacity:0.6512"/>
			<stop  offset="0.9375" style="stop-color:#1A0B08;stop-opacity:0"/>
		</radialGradient>
		<polygon opacity="0.7" fill="url(#SVGID_14_)" points="815.54,487.795 249.997,248.889 789.693,541.449 		"/>
		<radialGradient id="SVGID_15_" cx="504.4727" cy="444.0957" r="226.7868" gradientUnits="userSpaceOnUse">
			<stop  offset="0" style="stop-color:#1A0B08;stop-opacity:0.95"/>
			<stop  offset="0.4335" style="stop-color:#1A0B08;stop-opacity:0.6512"/>
			<stop  offset="0.9375" style="stop-color:#1A0B08;stop-opacity:0"/>
		</radialGradient>
		<polygon opacity="0.7" fill="url(#SVGID_15_)" points="758.949,592.056 249.997,248.889 723.617,639.304 		"/>
		<radialGradient id="SVGID_16_" cx="467" cy="485.6973" r="227.1218" gradientUnits="userSpaceOnUse">
			<stop  offset="0" style="stop-color:#1A0B08;stop-opacity:0.95"/>
			<stop  offset="0.4335" style="stop-color:#1A0B08;stop-opacity:0.6512"/>
			<stop  offset="0.9375" style="stop-color:#1A0B08;stop-opacity:0"/>
		</radialGradient>
		<polygon opacity="0.7" fill="url(#SVGID_16_)" points="684.002,682.892 249.997,248.889 640.415,722.507 		"/>
		<radialGradient id="SVGID_17_" cx="421.582" cy="518.7363" r="226.1181" gradientUnits="userSpaceOnUse">
			<stop  offset="0" style="stop-color:#1A0B08;stop-opacity:0.95"/>
			<stop  offset="0.4335" style="stop-color:#1A0B08;stop-opacity:0.6512"/>
			<stop  offset="0.9375" style="stop-color:#1A0B08;stop-opacity:0"/>
		</radialGradient>
		<polygon opacity="0.7" fill="url(#SVGID_17_)" points="593.166,757.841 249.997,248.889 542.561,788.584 		"/>
		<radialGradient id="SVGID_18_" cx="369.4521" cy="541.9785" r="223.7981" gradientUnits="userSpaceOnUse">
			<stop  offset="0" style="stop-color:#1A0B08;stop-opacity:0.95"/>
			<stop  offset="0.4335" style="stop-color:#1A0B08;stop-opacity:0.6512"/>
			<stop  offset="0.9375" style="stop-color:#1A0B08;stop-opacity:0"/>
		</radialGradient>
		<polygon opacity="0.7" fill="url(#SVGID_18_)" points="488.907,814.433 249.997,248.889 432.515,835.068 		"/>
		<radialGradient id="SVGID_19_" cx="311.8447" cy="554.1914" r="220.2668" gradientUnits="userSpaceOnUse">
			<stop  offset="0" style="stop-color:#1A0B08;stop-opacity:0.95"/>
			<stop  offset="0.4335" style="stop-color:#1A0B08;stop-opacity:0.6512"/>
			<stop  offset="0.9375" style="stop-color:#1A0B08;stop-opacity:0"/>
		</radialGradient>
		<polygon opacity="0.7" fill="url(#SVGID_19_)" points="373.692,850.194 249.997,248.889 312.752,859.494 		"/>
		<radialGradient id="SVGID_20_" cx="218.6216" cy="555.7764" r="218.1337" gradientUnits="userSpaceOnUse">
			<stop  offset="0" style="stop-color:#1A0B08;stop-opacity:0.95"/>
			<stop  offset="0.4335" style="stop-color:#1A0B08;stop-opacity:0.6512"/>
			<stop  offset="0.9375" style="stop-color:#1A0B08;stop-opacity:0"/>
		</radialGradient>
		<polygon opacity="0.7" fill="url(#SVGID_20_)" points="249.999,862.664 249.999,248.889 187.244,859.494 		"/>
		<radialGradient id="SVGID_21_" cx="158.7397" cy="549.541" r="222.1719" gradientUnits="userSpaceOnUse">
			<stop  offset="0" style="stop-color:#1A0B08;stop-opacity:0.95"/>
			<stop  offset="0.4335" style="stop-color:#1A0B08;stop-opacity:0.6512"/>
			<stop  offset="0.9375" style="stop-color:#1A0B08;stop-opacity:0"/>
		</radialGradient>
		<polygon opacity="0.7" fill="url(#SVGID_21_)" points="126.302,850.194 249.999,248.889 67.48,835.07 		"/>
		<radialGradient id="SVGID_22_" cx="103.7173" cy="531.6602" r="225.1207" gradientUnits="userSpaceOnUse">
			<stop  offset="0" style="stop-color:#1A0B08;stop-opacity:0.95"/>
			<stop  offset="0.4335" style="stop-color:#1A0B08;stop-opacity:0.6512"/>
			<stop  offset="0.9375" style="stop-color:#1A0B08;stop-opacity:0"/>
		</radialGradient>
		<polygon opacity="0.7" fill="url(#SVGID_22_)" points="11.09,814.433 249.999,248.889 -42.564,788.584 		"/>
		<radialGradient id="SVGID_23_" cx="54.7896" cy="503.3652" r="226.7869" gradientUnits="userSpaceOnUse">
			<stop  offset="0" style="stop-color:#1A0B08;stop-opacity:0.95"/>
			<stop  offset="0.4335" style="stop-color:#1A0B08;stop-opacity:0.6512"/>
			<stop  offset="0.9375" style="stop-color:#1A0B08;stop-opacity:0"/>
		</radialGradient>
		<polygon opacity="0.7" fill="url(#SVGID_23_)" points="-93.169,757.841 249.999,248.889 -140.42,722.508 		"/>
		<radialGradient id="SVGID_24_" cx="13.1895" cy="465.8906" r="227.1223" gradientUnits="userSpaceOnUse">
			<stop  offset="0" style="stop-color:#1A0B08;stop-opacity:0.95"/>
			<stop  offset="0.4335" style="stop-color:#1A0B08;stop-opacity:0.6512"/>
			<stop  offset="0.9375" style="stop-color:#1A0B08;stop-opacity:0"/>
		</radialGradient>
		<polygon opacity="0.7" fill="url(#SVGID_24_)" points="-184.006,682.894 249.999,248.889 -223.62,639.306 		"/>
		<radialGradient id="SVGID_25_" cx="-19.8491" cy="420.4727" r="226.1181" gradientUnits="userSpaceOnUse">
			<stop  offset="0" style="stop-color:#1A0B08;stop-opacity:0.95"/>
			<stop  offset="0.4335" style="stop-color:#1A0B08;stop-opacity:0.6512"/>
			<stop  offset="0.9375" style="stop-color:#1A0B08;stop-opacity:0"/>
		</radialGradient>
		<polygon opacity="0.7" fill="url(#SVGID_25_)" points="-258.953,592.056 249.999,248.889 -289.697,541.451 		"/>
		<radialGradient id="SVGID_26_" cx="-43.0918" cy="368.3428" r="223.7985" gradientUnits="userSpaceOnUse">
			<stop  offset="0" style="stop-color:#1A0B08;stop-opacity:0.95"/>
			<stop  offset="0.4335" style="stop-color:#1A0B08;stop-opacity:0.6512"/>
			<stop  offset="0.9375" style="stop-color:#1A0B08;stop-opacity:0"/>
		</radialGradient>
		<polygon opacity="0.7" fill="url(#SVGID_26_)" points="-315.544,487.797 249.999,248.889 -336.183,431.406 		"/>
		<radialGradient id="SVGID_27_" cx="-55.3042" cy="310.7363" r="220.2672" gradientUnits="userSpaceOnUse">
			<stop  offset="0" style="stop-color:#1A0B08;stop-opacity:0.95"/>
			<stop  offset="0.4335" style="stop-color:#1A0B08;stop-opacity:0.6512"/>
			<stop  offset="0.9375" style="stop-color:#1A0B08;stop-opacity:0"/>
		</radialGradient>
		<polygon opacity="0.7" fill="url(#SVGID_27_)" points="-351.307,372.585 249.999,248.889 -360.607,311.643 		"/>
		<radialGradient id="SVGID_28_" cx="-56.8877" cy="217.5112" r="218.1337" gradientUnits="userSpaceOnUse">
			<stop  offset="0" style="stop-color:#1A0B08;stop-opacity:0.95"/>
			<stop  offset="0.4335" style="stop-color:#1A0B08;stop-opacity:0.6512"/>
			<stop  offset="0.9375" style="stop-color:#1A0B08;stop-opacity:0"/>
		</radialGradient>
		<polygon opacity="0.7" fill="url(#SVGID_28_)" points="-363.775,248.889 250,248.889 -360.607,186.134 		"/>
		<radialGradient id="SVGID_29_" cx="-50.6523" cy="157.6299" r="222.1711" gradientUnits="userSpaceOnUse">
			<stop  offset="0" style="stop-color:#1A0B08;stop-opacity:0.95"/>
			<stop  offset="0.4335" style="stop-color:#1A0B08;stop-opacity:0.6512"/>
			<stop  offset="0.9375" style="stop-color:#1A0B08;stop-opacity:0"/>
		</radialGradient>
		<polygon opacity="0.7" fill="url(#SVGID_29_)" points="-351.305,125.193 250,248.889 -336.183,66.371 		"/>
		<radialGradient id="SVGID_30_" cx="-32.771" cy="102.6074" r="225.1196" gradientUnits="userSpaceOnUse">
			<stop  offset="0" style="stop-color:#1A0B08;stop-opacity:0.95"/>
			<stop  offset="0.4335" style="stop-color:#1A0B08;stop-opacity:0.6512"/>
			<stop  offset="0.9375" style="stop-color:#1A0B08;stop-opacity:0"/>
		</radialGradient>
		<polygon opacity="0.7" fill="url(#SVGID_30_)" points="-315.542,9.981 250,248.889 -289.697,-43.673 		"/>
		<radialGradient id="SVGID_31_" cx="-4.4761" cy="53.6807" r="226.7865" gradientUnits="userSpaceOnUse">
			<stop  offset="0" style="stop-color:#1A0B08;stop-opacity:0.95"/>
			<stop  offset="0.4335" style="stop-color:#1A0B08;stop-opacity:0.6512"/>
			<stop  offset="0.9375" style="stop-color:#1A0B08;stop-opacity:0"/>
		</radialGradient>
		<polygon opacity="0.7" fill="url(#SVGID_31_)" points="-258.952,-94.28 250,248.889 -223.62,-141.528 		"/>
		<radialGradient id="SVGID_32_" cx="32.9971" cy="12.0801" r="227.1217" gradientUnits="userSpaceOnUse">
			<stop  offset="0" style="stop-color:#1A0B08;stop-opacity:0.95"/>
			<stop  offset="0.4335" style="stop-color:#1A0B08;stop-opacity:0.6512"/>
			<stop  offset="0.9375" style="stop-color:#1A0B08;stop-opacity:0"/>
		</radialGradient>
		<polygon opacity="0.7" fill="url(#SVGID_32_)" points="-184.006,-185.115 250,248.889 -140.42,-224.728 		"/>
		<radialGradient id="SVGID_33_" cx="78.416" cy="-20.959" r="226.1181" gradientUnits="userSpaceOnUse">
			<stop  offset="0" style="stop-color:#1A0B08;stop-opacity:0.95"/>
			<stop  offset="0.4335" style="stop-color:#1A0B08;stop-opacity:0.6512"/>
			<stop  offset="0.9375" style="stop-color:#1A0B08;stop-opacity:0"/>
		</radialGradient>
		<polygon opacity="0.7" fill="url(#SVGID_33_)" points="-93.168,-260.063 250,248.889 -42.564,-290.807 		"/>
		<radialGradient id="SVGID_34_" cx="130.5449" cy="-44.2007" r="223.7978" gradientUnits="userSpaceOnUse">
			<stop  offset="0" style="stop-color:#1A0B08;stop-opacity:0.95"/>
			<stop  offset="0.4335" style="stop-color:#1A0B08;stop-opacity:0.6512"/>
			<stop  offset="0.9375" style="stop-color:#1A0B08;stop-opacity:0"/>
		</radialGradient>
		<polygon opacity="0.7" fill="url(#SVGID_34_)" points="11.09,-316.654 250,248.889 67.481,-337.29 		"/>
		<radialGradient id="SVGID_35_" cx="188.1523" cy="-56.4131" r="220.2661" gradientUnits="userSpaceOnUse">
			<stop  offset="0" style="stop-color:#1A0B08;stop-opacity:0.95"/>
			<stop  offset="0.4335" style="stop-color:#1A0B08;stop-opacity:0.6512"/>
			<stop  offset="0.9375" style="stop-color:#1A0B08;stop-opacity:0"/>
		</radialGradient>
		<polygon opacity="0.7" fill="url(#SVGID_35_)" points="126.305,-352.416 250,248.889 187.245,-361.715 		"/>
	</g>
	<g clip-path="url(#SVGID_2_)">
		<path fill="none" d="M380.342,130.935c-0.37-0.14-0.751-0.273-1.139-0.402C379.582,130.664,379.963,130.796,380.342,130.935z"/>
		<path fill="none" d="M154.892,214.967h-1.224v8.038h1.357c1.143,0.015,1.993-0.301,2.55-0.946
			c0.557-0.646,0.835-1.703,0.835-3.172c0-1.425-0.286-2.438-0.857-3.04C156.981,215.246,156.095,214.953,154.892,214.967z"/>
		<path fill="none" d="M321.873,142.339l-40.729-20.365v47.412h-14.375l-47.916-23.959v-3.087h-35.938
			c-10.704,0-25.324,8.441-30.674,17.71l-31.146,53.945c-4.904,8.491-3.667,23.1,2.6,30.646l125.7,151.43l55.102-66.378h6.359v-4.66
			c2.539,1.747,5.427,3.112,8.618,4.055c3.649,1.073,7.921,1.616,12.695,1.616c9.893,0,15.957-1.663,19.052-5.195
			c2.667-2.976,4.341-5.66,5.111-8.204c0.775-2.366,1.169-5.019,1.169-7.884c0-5.068-1.035-8.92-3.163-11.774
			c-0.28-0.377-0.569-0.738-0.867-1.082c0.426-0.521,0.792-1.069,1.096-1.645c0.528-0.958,0.941-1.816,1.266-2.628
			c0.354-0.887,0.621-1.744,0.792-2.53c0.177-0.793,0.297-1.611,0.358-2.447c0.05-0.708,0.074-1.478,0.074-2.293
			c0-5.25-1.594-9.704-4.641-13.057l17.28-20.818c1.59,0.228,3.393,0.34,5.447,0.34h0.02h0.021
			c4.077-0.035,7.436-0.486,10.267-1.382c0.954-0.302,1.85-0.652,2.694-1.037v1.683h24.338v-14.134l-1.313-0.922l-0.001-18.4
			l1.314-0.842v-14.287h-16.18c-0.104-6.922-1.724-13.722-4.953-19.316l-18.897-39.355c-2.579-0.729-5.113-1.153-7.456-1.153
			H321.873z M392.933,239.104c0.459-0.282,0.794-0.649,1.002-1.104c0.208-0.452,0.312-1.101,0.312-1.947v-19.482
			c-0.016-0.713-0.146-1.292-0.39-1.737c-0.245-0.445-0.554-0.779-0.925-1.002v-6.879h14.762v6.879
			c-0.371,0.237-0.679,0.562-0.924,0.97c-0.244,0.409-0.376,1.012-0.39,1.813v19.571c0,0.817,0.119,1.437,0.357,1.859
			c0.236,0.423,0.556,0.777,0.956,1.059v6.857h-14.762V239.104z M242.017,206.952h13.916v5.388c0.03,1.38,0.269,2.631,0.713,3.752
			c0.446,1.121,0.936,2.148,1.469,3.083h0.089c0.654-1.068,1.188-2.177,1.604-3.328c0.415-1.15,0.63-2.334,0.646-3.55v-5.345h12.224
			v6.879c-0.237,0.179-0.468,0.36-0.69,0.546c-0.222,0.185-0.452,0.464-0.689,0.834l-7.927,15.363v5.745
			c0,0.742,0.118,1.329,0.355,1.76c0.237,0.43,0.557,0.771,0.958,1.024v6.857h-14.763v-6.857c0.431-0.282,0.757-0.653,0.98-1.113
			c0.222-0.46,0.334-0.958,0.334-1.493v-5.054l-7.348-15.006c-0.312-0.772-0.627-1.339-0.946-1.703
			c-0.32-0.363-0.629-0.666-0.925-0.903V206.952z M171.591,245.961h-13.047c-0.356-1.366-0.572-2.794-0.646-4.286
			c-0.073-1.492-0.104-2.623-0.089-3.396c0-0.386,0.008-0.843,0.022-1.369c0.014-0.527,0.022-0.999,0.022-1.415
			c0.059-1.736-0.183-2.968-0.724-3.696c-0.542-0.728-1.696-1.077-3.462-1.046v5.053c-0.016,0.847,0.066,1.515,0.243,2.004
			c0.18,0.49,0.535,0.92,1.069,1.292v6.857h-14.762v-6.857c0.49-0.327,0.835-0.713,1.035-1.158c0.201-0.446,0.293-1.077,0.278-1.893
			v-18.881c0.015-0.831-0.063-1.503-0.233-2.015c-0.171-0.513-0.531-0.954-1.08-1.326v-6.879h18.837
			c2.656-0.149,5.236,0.416,7.737,1.692c2.5,1.276,3.841,4.149,4.019,8.617c0.104,1.425-0.187,3.105-0.867,5.042
			c-0.685,1.938-2.339,3.292-4.966,4.064v0.155c2.049,0.431,3.421,1.188,4.119,2.271c0.697,1.083,1.023,2.419,0.979,4.007
			c-0.029,2.406,0.045,3.975,0.223,4.709c0.179,0.734,0.608,1.266,1.292,1.592V245.961z M183.648,245.927
			c-1.745-0.512-3.248-1.406-4.51-2.683c-0.965-0.905-1.719-2.085-2.26-3.54c-0.542-1.455-0.82-3.451-0.835-5.99v-17.144
			c-0.015-0.743-0.145-1.325-0.39-1.748c-0.244-0.424-0.553-0.755-0.924-0.992v-6.879h14.762v6.879
			c-0.312,0.194-0.605,0.494-0.88,0.903c-0.273,0.407-0.419,1.035-0.434,1.88v18.748c0,1.024,0.211,1.774,0.635,2.249
			c0.424,0.476,1.013,0.713,1.77,0.713c0.847,0,1.47-0.256,1.871-0.769c0.4-0.512,0.602-1.301,0.602-2.37v-18.058
			c-0.03-1.144-0.201-1.937-0.513-2.382c-0.312-0.446-0.632-0.735-0.958-0.869v-6.924h14.095v6.879
			c-0.387,0.223-0.728,0.543-1.024,0.958c-0.298,0.417-0.452,1.024-0.468,1.825v17.279c0.03,1.87-0.182,3.592-0.635,5.165
			c-0.452,1.574-1.296,2.984-2.527,4.23c-1.084,1.127-2.479,1.974-4.185,2.538c-1.707,0.564-3.911,0.854-6.613,0.869
			C187.585,246.696,185.393,246.439,183.648,245.927z M213.47,313.84c0.418,0,0.8-0.008,1.139-0.029
			c0.336-0.022,0.651-0.062,0.945-0.126c0.295-0.067,0.601-0.169,0.92-0.316c0.314-0.146,0.703-0.35,1.165-0.602
			c0.972-0.505,1.456-2.106,1.456-4.803h15.801v16.94h-39.694v-14.224c0-4.379,1.159-7.669,3.476-9.857
			c2.404-2.277,5.773-4.449,10.116-6.512c2.232-1.053,4.053-1.98,5.467-2.78c1.411-0.803,2.432-1.478,3.064-2.023
			c1.308-1.054,1.896-2.316,1.771-3.795c0-1.388-0.338-2.422-1.011-3.093c-0.549-0.804-1.415-1.204-2.593-1.204
			c-0.421,0-0.83,0.064-1.231,0.19c-0.404,0.126-0.758,0.379-1.076,0.757c-0.314,0.38-0.566,0.908-0.758,1.582
			c-0.19,0.675-0.284,1.56-0.284,2.654v3.54h-15.989v-14.666c2.781-2.021,5.866-3.485,9.259-4.392
			c3.391-0.905,7.13-1.358,11.218-1.358c0.677,0,1.33,0.01,1.962,0.031c0.629,0.022,1.294,0.073,1.991,0.16
			c0.692,0.082,1.44,0.196,2.241,0.346c0.802,0.148,1.708,0.349,2.719,0.601c2.024,0.506,4.129,1.748,6.32,3.729
			c1.896,2.025,2.992,3.751,3.287,5.184c0.167,0.717,0.305,1.366,0.412,1.958c0.103,0.592,0.176,1.116,0.221,1.581
			c0.039,0.464,0.07,0.915,0.095,1.359c0.019,0.441,0.03,0.892,0.03,1.357c0,2.909-0.346,5.332-1.043,7.268
			c-0.695,1.938-1.823,3.689-3.381,5.248c-1.348,1.222-3.183,2.445-5.499,3.665l-6.574,3.288c-2.316,1.011-4.214,2.075-5.688,3.191
			c-1.474,1.118-2.213,2.266-2.213,3.444v1.705H213.47z M228.502,245.961h-19.838v-6.857c0.696-0.372,1.135-0.843,1.312-1.415
			c0.179-0.572,0.252-1.243,0.223-2.015v-18.413c0-1.039-0.123-1.807-0.368-2.305c-0.243-0.497-0.633-0.872-1.167-1.125v-6.879
			h19.637c3.563-0.03,6.282,0.745,8.161,2.327c1.877,1.582,2.823,4.1,2.839,7.559c-0.045,2.657-0.636,4.668-1.771,6.034
			c-1.136,1.365-2.579,2.255-4.329,2.673v0.154c2.3,0.313,3.995,1.292,5.087,2.939c1.09,1.648,1.627,3.734,1.613,6.257
			c0.059,3.311-0.761,5.967-2.46,7.972C235.741,244.87,232.762,245.901,228.502,245.961z M280.152,308.22
			c0,5.98-1.498,10.428-4.487,13.33c-2.994,2.912-8.154,4.364-15.488,4.364c-7.245,0-12.43-1.347-15.548-4.045
			c-3.161-2.697-4.739-7.248-4.739-13.649v-21.176c0-7.164,1.473-11.589,4.424-13.274c2.948-1.684,5.647-2.78,8.091-3.288
			c2.443-0.507,5.056-0.758,7.84-0.758c3.032,0,5.653,0.242,7.868,0.725c2.211,0.489,4.267,1.319,6.164,2.5
			c1.893,1.18,3.348,2.938,4.359,5.279c1.01,2.338,1.517,5.211,1.517,8.625V308.22z M306.066,324.904h-20.479v-9.547
			c0.673-0.378,1.181-0.947,1.518-1.706c0.21-0.76,0.314-1.557,0.314-2.399v-26.864c0-1.181-0.17-2.054-0.505-2.623
			c-0.339-0.57-0.778-1.02-1.327-1.359v-9.544h18.645v40.517c0,1.263,0.191,2.169,0.569,2.717c0.506,0.589,0.928,1.012,1.266,1.263
			V324.904z M307.745,245.961h-13.916v-5.166c-0.029-0.891-0.156-1.736-0.378-2.538c-0.224-0.802-0.558-1.637-1.002-2.505
			c-0.445-0.868-0.958-1.844-1.536-2.928c-0.579-1.083-1.204-2.338-1.871-3.764h-0.178v7.125c0,0.817,0.118,1.437,0.355,1.859
			c0.237,0.423,0.564,0.777,0.979,1.059v6.857h-14.784v-6.857c0.431-0.282,0.758-0.646,0.98-1.092
			c0.223-0.445,0.333-1.098,0.333-1.958v-19.482c-0.014-0.713-0.145-1.292-0.39-1.737c-0.245-0.445-0.553-0.779-0.924-1.002v-6.879
			h14.784v6.879c-0.371,0.237-0.684,0.562-0.935,0.97c-0.253,0.409-0.386,1.012-0.4,1.813v6.124c0.949-1.499,1.743-2.74,2.382-3.729
			c0.638-0.988,1.14-1.822,1.503-2.505c0.363-0.682,0.635-1.262,0.812-1.736c0.179-0.475,0.268-0.92,0.268-1.336v-6.479h13.182
			v6.879c-0.52,0.253-0.977,0.532-1.371,0.835c-0.392,0.305-0.767,0.79-1.124,1.458l-5.254,8.416
			c1.425,2.866,2.564,5.155,3.418,6.87c0.854,1.715,1.506,3.02,1.959,3.918c0.453,0.899,0.794,1.537,1.023,1.916
			c0.231,0.378,0.457,0.665,0.68,0.858c0.253,0.237,0.512,0.441,0.78,0.611c0.266,0.171,0.475,0.301,0.623,0.391V245.961z
			 M308.591,245.961v-6.857c0.356-0.238,0.676-0.635,0.957-1.191c0.282-0.556,0.572-1.651,0.869-3.285l5.166-27.675h17.277
			l5.834,29.034c0.268,1.068,0.541,1.8,0.824,2.192c0.281,0.394,0.646,0.702,1.091,0.925v6.857h-15.32v-6.902
			c0.521-0.178,0.883-0.464,1.093-0.857c0.207-0.394,0.312-0.827,0.312-1.302c0-0.222-0.02-0.423-0.056-0.602
			c-0.037-0.177-0.095-0.356-0.167-0.534h-5.879c-0.045,0.178-0.086,0.375-0.122,0.59c-0.037,0.215-0.056,0.435-0.056,0.656
			c0,0.49,0.133,0.917,0.4,1.281c0.267,0.364,0.668,0.635,1.202,0.813v6.857H308.591z M352.713,309.419
			c0,2.397-0.319,4.549-0.948,6.445c-0.549,1.856-1.919,4.004-4.109,6.447c-2.107,2.404-7.269,3.603-15.486,3.603
			c-4.34,0-8.124-0.476-11.345-1.422c-3.225-0.952-6.035-2.372-8.438-4.268v-15.044h16.37v3.92c0,1.643,0.251,2.928,0.756,3.854
			c0.509,0.928,1.31,1.391,2.405,1.391c1.389,0,2.378-0.482,2.97-1.454c0.674-0.925,1.013-2.337,1.013-4.232
			c0-1.981-0.403-3.496-1.202-4.553c-0.845-1.136-2.677-1.708-5.501-1.708h-5.498v-10.743h4.867c3.159,0,5.119-0.528,5.878-1.58
			c0.799-0.927,1.138-2.169,1.01-3.729c-0.122-1.896-0.505-3.213-1.136-3.951c-0.633-0.734-1.433-1.061-2.4-0.979
			c-1.308,0-2.174,0.593-2.592,1.77c-0.382,1.224-0.569,2.51-0.569,3.858v1.767h-16.119v-13.147
			c2.277-1.766,5.109-3.199,8.501-4.296c3.394-1.096,7.322-1.644,11.789-1.644c6.065,0,10.81,1.296,14.221,3.887
			c3.414,2.59,5.12,6.396,5.12,11.409c0,0.715-0.021,1.369-0.062,1.958c-0.043,0.594-0.128,1.169-0.255,1.74
			c-0.124,0.565-0.316,1.169-0.567,1.801c-0.253,0.632-0.59,1.326-1.011,2.088c-0.803,1.514-2.507,2.822-5.121,3.915
			c2.025,0.677,3.771,2.004,5.246,3.982C351.976,302.487,352.713,305.456,352.713,309.419z M357.53,213.831
			c-0.371,0.237-0.679,0.562-0.924,0.97c-0.245,0.409-0.376,1.012-0.39,1.813v19.571c0,0.817,0.118,1.437,0.356,1.859
			c0.237,0.423,0.557,0.777,0.957,1.059v6.857h-14.762v-6.857c0.46-0.282,0.794-0.649,1.001-1.104
			c0.208-0.452,0.313-1.101,0.313-1.947v-19.482c-0.015-0.713-0.146-1.292-0.391-1.737c-0.245-0.445-0.554-0.779-0.924-1.002v-6.879
			h14.762V213.831z M374.542,206.172c3.057,0,5.836,0.387,8.338,1.158c2.501,0.773,4.724,1.879,6.669,3.319v9.841h-11.668v-2.65
			c-0.014-1.143-0.233-1.977-0.656-2.506c-0.424-0.526-0.998-0.782-1.726-0.767c-0.787,0-1.396,0.278-1.825,0.835
			c-0.431,0.557-0.646,1.421-0.646,2.594v17.367c0,0.95,0.2,1.686,0.602,2.204c0.4,0.521,1.023,0.787,1.87,0.802
			c0.86-0.015,1.477-0.326,1.849-0.935c0.37-0.608,0.549-1.454,0.533-2.538v-3.406h-2.114v-7.571h13.782v18.592
			c-1.352,1.276-3.199,2.286-5.545,3.028c-2.345,0.742-5.299,1.128-8.86,1.158c-2.852,0-5.141-0.237-6.869-0.712
			c-1.73-0.476-3.167-1.299-4.309-2.472c-1.039-1.024-1.808-2.249-2.305-3.673c-0.497-1.425-0.746-3.192-0.746-5.3v-17.01
			c0.178-4.646,1.671-7.73,4.475-9.251C368.195,206.755,371.246,206.053,374.542,206.172z"/>
		<path fill="none" d="M225.908,221.624c0.883-0.385,1.332-1.403,1.347-3.049c-0.015-1.575-0.45-2.576-1.302-3.007
			c-0.854-0.43-2.06-0.615-3.618-0.557v7.081C223.834,222.167,225.025,222.011,225.908,221.624z"/>
		<polygon fill="none" points="323.42,216.571 323.287,216.571 321.371,228.193 325.424,228.193 		"/>
		<path fill="none" d="M226.197,230.075c-0.839-0.512-2.127-0.738-3.862-0.68v8.528c1.766,0.059,3.063-0.181,3.896-0.724
			c0.831-0.542,1.239-1.748,1.225-3.618C227.455,231.755,227.035,230.586,226.197,230.075z"/>
		<path fill="none" d="M259.925,281.416c-1.263,0-2.116,0.435-2.558,1.295c-0.444,0.866-0.664,1.909-0.664,3.134v23.574
			c0,1.894,0.284,3.19,0.852,3.886c0.568,0.695,1.381,1.041,2.434,1.041c1.137,0,1.981-0.336,2.528-1.013
			c0.546-0.795,0.823-2.081,0.823-3.852v-23.705c0-1.348-0.267-2.413-0.792-3.189C262.021,281.808,261.146,281.416,259.925,281.416z
			"/>
		<path fill="#BF4E79" d="M261.355,431.271c0,0-0.001,0-0.002,0c8.208,5.491,18.356,5.216,26.369-0.827
			c-4.197,3.165-8.979,4.755-13.767,4.755C269.607,435.198,265.263,433.883,261.355,431.271z"/>
		<path fill="#BF4E79" d="M396.303,202.164h16.18v14.287l-1.314,0.842l0.001,18.4l1.313,0.922v14.134h-24.338v-1.683
			c-0.845,0.385-1.74,0.734-2.694,1.037c-2.831,0.896-6.189,1.347-10.267,1.382h-0.021h-0.02c-2.055,0-3.857-0.112-5.447-0.34
			l-17.28,20.818c3.047,3.353,4.641,7.807,4.641,13.057c0,0.815-0.024,1.585-0.074,2.293c-0.062,0.836-0.182,1.654-0.358,2.447
			c-0.171,0.786-0.438,1.644-0.792,2.53c-0.324,0.812-0.737,1.67-1.266,2.628c-0.304,0.575-0.67,1.123-1.096,1.645
			c0.298,0.344,0.587,0.705,0.867,1.082c2.128,2.854,3.163,6.706,3.163,11.774c0,2.865-0.394,5.518-1.169,7.884
			c-0.771,2.544-2.444,5.229-5.111,8.204c-3.095,3.532-9.159,5.195-19.052,5.195c-4.774,0-9.046-0.543-12.695-1.616
			c-3.191-0.942-6.079-2.308-8.618-4.055v4.66h-6.359l-55.102,66.378l17.258,20.791c2.124,2.553,4.719,3.962,7.304,3.962
			s5.181-1.409,7.305-3.968l142.958-172.211c6.264-7.549,7.503-22.158,2.598-30.649l-31.146-53.945
			c-4.179-7.24-14.01-13.955-23.219-16.557l18.897,39.355C394.579,188.441,396.198,195.242,396.303,202.164z"/>
		<path fill="#FFA4C7" d="M321.873,127.964h43.123c4.569,0,9.422,0.927,14.207,2.569c0.388,0.129,0.769,0.262,1.139,0.402
			c0.153,0.057,0.307,0.117,0.459,0.175c-0.912-0.516-47.996-27.104-63.721-27.104h-35.937v3.594L321.873,127.964z"/>
		<polygon fill="#BF4E79" points="226.04,142.339 218.853,142.339 218.853,145.427 266.769,169.386 266.769,127.964 266.769,86.539 
			218.853,62.581 218.853,104.006 218.853,124.37 226.04,127.964 		"/>
		<polygon fill="#BF4E79" points="321.873,127.964 281.144,107.6 281.144,121.974 321.873,142.339 		"/>
		<polygon fill="#FFC3D9" points="281.144,86.539 233.227,62.581 218.853,62.581 266.769,86.539 		"/>
		<path fill="#FFA4C7" d="M259.667,430.048c0.552,0.439,1.116,0.839,1.687,1.223c0.001,0,0.002,0,0.002,0
			C260.783,430.887,260.219,430.487,259.667,430.048z"/>
		<path fill="#FFA4C7" d="M112.633,253.823c-10.141-12.211-11.925-33.266-3.987-47.016l31.145-53.944
			c7.939-13.752,27.246-24.899,43.125-24.899h43.125l-47.916-23.958h-43.125c-15.88,0-35.186,11.147-43.123,24.899l-31.147,53.942
			c-7.938,13.753-6.152,34.804,3.99,47.017c0,0,132.873,160.073,142.957,172.217c10.079,12.141,19.447,15.369,53.678,29.188
			C260.877,430.658,112.633,253.823,112.633,253.823z"/>
		<path fill="#EA6597" d="M287.723,430.443c1.632-1.23,3.178-2.693,4.598-4.402C290.9,427.75,289.354,429.212,287.723,430.443z"/>
		<path fill="#EA6597" d="M380.822,131.122c0,0-0.013-0.007-0.021-0.012c-0.152-0.058-0.306-0.118-0.459-0.175
			C380.504,130.997,380.666,131.059,380.822,131.122z"/>
		<path fill="#EA6597" d="M379.203,130.533c-4.785-1.642-9.638-2.569-14.207-2.569C364.996,127.964,373.059,128.505,379.203,130.533
			z"/>
		<path fill="#FF68A1" d="M439.266,206.807l-31.146-53.944c-5.399-9.353-16.057-17.497-27.319-21.753
			c0.009,0.005,0.021,0.012,0.021,0.012c-0.156-0.063-0.318-0.125-0.48-0.187c-0.379-0.139-0.76-0.271-1.139-0.402
			c-6.145-2.027-14.207-2.569-14.207-2.569h-43.123v14.375h43.123c2.343,0,4.877,0.424,7.456,1.153
			c9.209,2.602,19.04,9.316,23.219,16.557l31.146,53.945c4.905,8.491,3.666,23.1-2.598,30.649L281.261,416.854
			c-2.124,2.559-4.72,3.968-7.305,3.968s-5.18-1.409-7.304-3.962l-17.258-20.791l-125.7-151.43
			c-6.267-7.545-7.504-22.154-2.6-30.646l31.146-53.945c5.35-9.269,19.97-17.71,30.674-17.71h35.938h7.188v-14.375h-7.188h-35.938
			c-15.879,0-35.186,11.146-43.125,24.899l-31.145,53.944c-7.938,13.75-6.153,34.805,3.987,47.016l127.628,152.245l21.145,25.222
			c-0.017-0.006-0.032-0.012-0.05-0.02c3.907,2.612,8.252,3.928,12.601,3.928c4.787,0,9.569-1.59,13.767-4.755
			c1.632-1.231,3.178-2.693,4.598-4.402l142.956-172.218C445.42,241.612,447.206,220.557,439.266,206.807z"/>
		<polygon fill="#FF68A1" points="281.144,86.539 266.769,86.539 266.769,127.964 266.769,169.386 281.144,169.386 		"/>
		<path fill="#FF68A1" d="M213.722,308.69c1.475-1.116,3.372-2.181,5.688-3.191l6.574-3.288c2.316-1.22,4.151-2.443,5.499-3.665
			c1.558-1.559,2.686-3.31,3.381-5.248c0.697-1.936,1.043-4.358,1.043-7.268c0-0.466-0.012-0.916-0.03-1.357
			c-0.024-0.444-0.056-0.896-0.095-1.359c-0.045-0.465-0.118-0.989-0.221-1.581c-0.107-0.592-0.245-1.241-0.412-1.958
			c-0.295-1.433-1.392-3.158-3.287-5.184c-2.191-1.981-4.296-3.224-6.32-3.729c-1.011-0.252-1.917-0.452-2.719-0.601
			c-0.801-0.149-1.549-0.264-2.241-0.346c-0.697-0.087-1.362-0.138-1.991-0.16c-0.632-0.021-1.285-0.031-1.962-0.031
			c-4.088,0-7.827,0.453-11.218,1.358c-3.393,0.906-6.478,2.371-9.259,4.392v14.666h15.989v-3.54c0-1.095,0.094-1.979,0.284-2.654
			c0.191-0.674,0.443-1.202,0.758-1.582c0.318-0.378,0.672-0.631,1.076-0.757c0.401-0.126,0.811-0.19,1.231-0.19
			c1.178,0,2.044,0.4,2.593,1.204c0.673,0.671,1.011,1.705,1.011,3.093c0.125,1.479-0.463,2.741-1.771,3.795
			c-0.633,0.546-1.653,1.221-3.064,2.023c-1.414,0.8-3.234,1.728-5.467,2.78c-4.343,2.062-7.712,4.234-10.116,6.512
			c-2.316,2.188-3.476,5.479-3.476,9.857v14.224h39.694v-16.94h-15.801c0,2.696-0.484,4.298-1.456,4.803
			c-0.462,0.252-0.851,0.456-1.165,0.602c-0.319,0.147-0.625,0.249-0.92,0.316c-0.294,0.063-0.609,0.104-0.945,0.126
			c-0.339,0.021-0.721,0.029-1.139,0.029h-1.961v-1.705C211.509,310.956,212.248,309.809,213.722,308.69z"/>
		<path fill="#FF68A1" d="M274.276,272.948c-1.897-1.181-3.953-2.011-6.164-2.5c-2.215-0.482-4.836-0.725-7.868-0.725
			c-2.784,0-5.396,0.251-7.84,0.758c-2.443,0.508-5.143,1.604-8.091,3.288c-2.951,1.686-4.424,6.11-4.424,13.274v21.176
			c0,6.401,1.578,10.952,4.739,13.649c3.118,2.698,8.303,4.045,15.548,4.045c7.334,0,12.494-1.452,15.488-4.364
			c2.989-2.902,4.487-7.35,4.487-13.33v-21.367c0-3.414-0.507-6.287-1.517-8.625C277.624,275.886,276.169,274.128,274.276,272.948z
			 M263.34,309.481c0,1.771-0.277,3.057-0.823,3.852c-0.547,0.677-1.392,1.013-2.528,1.013c-1.053,0-1.865-0.346-2.434-1.041
			c-0.567-0.695-0.852-1.992-0.852-3.886v-23.574c0-1.225,0.22-2.268,0.664-3.134c0.441-0.86,1.295-1.295,2.558-1.295
			c1.221,0,2.097,0.392,2.623,1.171c0.525,0.776,0.792,1.842,0.792,3.189V309.481z"/>
		<path fill="#FF68A1" d="M304.801,314.095c-0.378-0.548-0.569-1.454-0.569-2.717v-40.517h-18.645v9.544
			c0.549,0.34,0.988,0.789,1.327,1.359c0.335,0.569,0.505,1.442,0.505,2.623v26.864c0,0.843-0.104,1.64-0.314,2.399
			c-0.337,0.759-0.845,1.328-1.518,1.706v9.547h20.479v-9.547C305.729,315.106,305.307,314.684,304.801,314.095z"/>
		<path fill="#FF68A1" d="M345.252,296.521c2.614-1.093,4.318-2.401,5.121-3.915c0.421-0.762,0.758-1.456,1.011-2.088
			c0.251-0.632,0.443-1.235,0.567-1.801c0.127-0.571,0.212-1.146,0.255-1.74c0.041-0.589,0.062-1.243,0.062-1.958
			c0-5.013-1.706-8.819-5.12-11.409c-3.411-2.591-8.155-3.887-14.221-3.887c-4.467,0-8.396,0.548-11.789,1.644
			c-3.392,1.097-6.224,2.53-8.501,4.296v13.147h16.119v-1.767c0-1.349,0.188-2.635,0.569-3.858c0.418-1.177,1.284-1.77,2.592-1.77
			c0.968-0.082,1.768,0.244,2.4,0.979c0.631,0.738,1.014,2.056,1.136,3.951c0.128,1.561-0.211,2.803-1.01,3.729
			c-0.759,1.052-2.719,1.58-5.878,1.58h-4.867v10.743h5.498c2.824,0,4.656,0.572,5.501,1.708c0.799,1.057,1.202,2.571,1.202,4.553
			c0,1.896-0.339,3.308-1.013,4.232c-0.592,0.972-1.581,1.454-2.97,1.454c-1.096,0-1.896-0.463-2.405-1.391
			c-0.505-0.927-0.756-2.212-0.756-3.854v-3.92h-16.37v15.044c2.402,1.896,5.213,3.315,8.438,4.268
			c3.221,0.946,7.005,1.422,11.345,1.422c8.218,0,13.379-1.198,15.486-3.603c2.19-2.443,3.561-4.591,4.109-6.447
			c0.629-1.896,0.948-4.048,0.948-6.445c0-3.963-0.737-6.932-2.215-8.915C349.023,298.525,347.277,297.198,345.252,296.521z"/>
		<path fill="#BD6AB4" d="M170.299,237.511c-0.178-0.734-0.252-2.304-0.223-4.709c0.045-1.588-0.281-2.924-0.979-4.007
			c-0.698-1.084-2.07-1.84-4.119-2.271v-0.155c2.627-0.772,4.281-2.126,4.966-4.064c0.681-1.937,0.971-3.617,0.867-5.042
			c-0.178-4.468-1.519-7.341-4.019-8.617c-2.501-1.276-5.081-1.841-7.737-1.692h-18.837v6.879c0.549,0.372,0.909,0.813,1.08,1.326
			c0.17,0.512,0.248,1.184,0.233,2.015v18.881c0.015,0.816-0.077,1.447-0.278,1.893c-0.2,0.445-0.545,0.831-1.035,1.158v6.857
			h14.762v-6.857c-0.534-0.372-0.89-0.802-1.069-1.292c-0.177-0.49-0.259-1.158-0.243-2.004v-5.053
			c1.766-0.03,2.92,0.318,3.462,1.046c0.541,0.728,0.782,1.959,0.724,3.696c0,0.416-0.009,0.888-0.022,1.415
			c-0.015,0.526-0.022,0.983-0.022,1.369c-0.015,0.773,0.016,1.904,0.089,3.396c0.074,1.491,0.29,2.92,0.646,4.286h13.047v-6.857
			C170.907,238.777,170.478,238.246,170.299,237.511z M157.575,222.059c-0.557,0.646-1.407,0.961-2.55,0.946h-1.357v-8.038h1.224
			c1.203-0.014,2.09,0.278,2.661,0.879c0.571,0.602,0.857,1.614,0.857,3.04C158.41,220.356,158.132,221.413,157.575,222.059z"/>
		<path fill="#BD6AB4" d="M201.025,243.289c1.231-1.247,2.075-2.657,2.527-4.23c0.453-1.573,0.665-3.295,0.635-5.165v-17.279
			c0.016-0.801,0.17-1.409,0.468-1.825c0.297-0.415,0.638-0.735,1.024-0.958v-6.879h-14.095v6.924
			c0.326,0.134,0.646,0.423,0.958,0.869c0.312,0.445,0.482,1.239,0.513,2.382v18.058c0,1.069-0.201,1.858-0.602,2.37
			c-0.401,0.513-1.024,0.769-1.871,0.769c-0.757,0-1.346-0.237-1.77-0.713c-0.424-0.475-0.635-1.225-0.635-2.249v-18.748
			c0.015-0.845,0.16-1.473,0.434-1.88c0.274-0.409,0.568-0.708,0.88-0.903v-6.879H174.73v6.879c0.371,0.237,0.68,0.568,0.924,0.992
			c0.245,0.422,0.375,1.004,0.39,1.748v17.144c0.015,2.539,0.293,4.535,0.835,5.99c0.541,1.455,1.295,2.635,2.26,3.54
			c1.262,1.277,2.765,2.171,4.51,2.683c1.744,0.512,3.937,0.769,6.579,0.769c2.702-0.015,4.906-0.305,6.613-0.869
			C198.547,245.263,199.941,244.417,201.025,243.289z"/>
		<path fill="#BD6AB4" d="M238.288,228.638c-1.092-1.648-2.787-2.626-5.087-2.939v-0.154c1.75-0.418,3.193-1.308,4.329-2.673
			c1.135-1.366,1.726-3.377,1.771-6.034c-0.016-3.459-0.962-5.977-2.839-7.559c-1.879-1.582-4.598-2.356-8.161-2.327h-19.637v6.879
			c0.534,0.253,0.924,0.628,1.167,1.125c0.245,0.498,0.368,1.266,0.368,2.305v18.413c0.029,0.772-0.044,1.443-0.223,2.015
			c-0.178,0.572-0.616,1.042-1.312,1.415v6.857h19.838c4.26-0.06,7.239-1.091,8.939-3.094c1.699-2.004,2.519-4.661,2.46-7.972
			C239.915,232.372,239.378,230.287,238.288,228.638z M222.335,215.011c1.559-0.058,2.764,0.127,3.618,0.557
			c0.852,0.431,1.287,1.433,1.302,3.007c-0.015,1.646-0.464,2.664-1.347,3.049c-0.883,0.387-2.074,0.543-3.573,0.468V215.011z
			 M226.23,237.199c-0.832,0.543-2.13,0.783-3.896,0.724v-8.528c1.735-0.059,3.023,0.167,3.862,0.68
			c0.838,0.512,1.258,1.681,1.258,3.506C227.47,235.451,227.062,236.657,226.23,237.199z"/>
		<path fill="#BD6AB4" d="M242.941,214.734c0.319,0.364,0.634,0.931,0.946,1.703l7.348,15.006v5.054
			c0,0.535-0.112,1.033-0.334,1.493c-0.224,0.46-0.55,0.831-0.98,1.113v6.857h14.763v-6.857c-0.401-0.253-0.721-0.594-0.958-1.024
			c-0.237-0.431-0.355-1.018-0.355-1.76v-5.745l7.927-15.363c0.237-0.371,0.468-0.649,0.689-0.834
			c0.223-0.186,0.453-0.368,0.69-0.546v-6.879h-12.224v5.345c-0.016,1.216-0.23,2.399-0.646,3.55
			c-0.416,1.151-0.95,2.26-1.604,3.328h-0.089c-0.533-0.935-1.022-1.962-1.469-3.083c-0.444-1.121-0.683-2.373-0.713-3.752v-5.388
			h-13.916v6.879C242.312,214.068,242.621,214.371,242.941,214.734z"/>
		<path fill="#BD6AB4" d="M306.342,238.102c-0.223-0.193-0.448-0.479-0.68-0.858c-0.229-0.378-0.57-1.017-1.023-1.916
			c-0.453-0.898-1.105-2.203-1.959-3.918c-0.854-1.714-1.993-4.004-3.418-6.87l5.254-8.416c0.357-0.668,0.732-1.154,1.124-1.458
			c0.395-0.304,0.852-0.583,1.371-0.835v-6.879h-13.182v6.479c0,0.416-0.089,0.861-0.268,1.336
			c-0.178,0.475-0.449,1.054-0.812,1.736c-0.363,0.683-0.865,1.518-1.503,2.505c-0.639,0.989-1.433,2.23-2.382,3.729v-6.124
			c0.015-0.801,0.147-1.405,0.4-1.813c0.251-0.408,0.563-0.732,0.935-0.97v-6.879h-14.784v6.879
			c0.371,0.223,0.679,0.558,0.924,1.002c0.245,0.446,0.376,1.024,0.39,1.737v19.482c0,0.861-0.11,1.514-0.333,1.958
			c-0.223,0.447-0.55,0.811-0.98,1.092v6.857h14.784v-6.857c-0.415-0.282-0.742-0.635-0.979-1.059
			c-0.237-0.422-0.355-1.042-0.355-1.859v-7.125h0.178c0.667,1.426,1.292,2.681,1.871,3.764c0.578,1.084,1.091,2.06,1.536,2.928
			c0.444,0.868,0.778,1.703,1.002,2.505c0.222,0.802,0.349,1.647,0.378,2.538v5.166h13.916v-6.857
			c-0.148-0.089-0.357-0.219-0.623-0.391C306.854,238.543,306.595,238.339,306.342,238.102z"/>
		<path fill="#BD6AB4" d="M322.017,239.104c-0.534-0.178-0.936-0.449-1.202-0.813c-0.268-0.364-0.4-0.791-0.4-1.281
			c0-0.222,0.019-0.441,0.056-0.656c0.036-0.215,0.077-0.412,0.122-0.59h5.879c0.072,0.178,0.13,0.357,0.167,0.534
			c0.036,0.179,0.056,0.38,0.056,0.602c0,0.475-0.104,0.908-0.312,1.302c-0.21,0.393-0.572,0.679-1.093,0.857v6.902h15.32v-6.857
			c-0.445-0.223-0.81-0.531-1.091-0.925c-0.283-0.393-0.557-1.124-0.824-2.192l-5.834-29.034h-17.277l-5.166,27.675
			c-0.297,1.634-0.587,2.729-0.869,3.285c-0.281,0.556-0.601,0.953-0.957,1.191v6.857h13.426V239.104z M323.287,216.571h0.133
			l2.004,11.622h-4.053L323.287,216.571z"/>
		<path fill="#BD6AB4" d="M342.769,213.831c0.37,0.223,0.679,0.558,0.924,1.002c0.245,0.446,0.376,1.024,0.391,1.737v19.482
			c0,0.847-0.105,1.495-0.313,1.947c-0.207,0.454-0.541,0.822-1.001,1.104v6.857h14.762v-6.857c-0.4-0.282-0.72-0.635-0.957-1.059
			c-0.238-0.422-0.356-1.042-0.356-1.859v-19.571c0.014-0.801,0.145-1.405,0.39-1.813c0.245-0.408,0.553-0.732,0.924-0.97v-6.879
			h-14.762V213.831z"/>
		<path fill="#BD6AB4" d="M360.915,217.528v17.01c0,2.108,0.249,3.875,0.746,5.3c0.497,1.424,1.266,2.649,2.305,3.673
			c1.142,1.173,2.578,1.997,4.309,2.472c1.729,0.475,4.018,0.712,6.869,0.712c3.562-0.029,6.516-0.416,8.86-1.158
			c2.346-0.742,4.193-1.752,5.545-3.028v-18.592h-13.782v7.571h2.114v3.406c0.016,1.084-0.163,1.93-0.533,2.538
			c-0.372,0.609-0.988,0.92-1.849,0.935c-0.847-0.015-1.47-0.281-1.87-0.802c-0.401-0.519-0.602-1.254-0.602-2.204v-17.367
			c0-1.172,0.216-2.037,0.646-2.594c0.43-0.557,1.038-0.835,1.825-0.835c0.728-0.015,1.302,0.241,1.726,0.767
			c0.423,0.529,0.643,1.363,0.656,2.506v2.65h11.668v-9.841c-1.945-1.44-4.168-2.546-6.669-3.319
			c-2.502-0.771-5.281-1.158-8.338-1.158c-3.296-0.119-6.347,0.583-9.152,2.105C362.586,209.798,361.093,212.882,360.915,217.528z"
			/>
		<path fill="#BD6AB4" d="M407.694,239.104c-0.4-0.282-0.72-0.635-0.956-1.059c-0.238-0.422-0.357-1.042-0.357-1.859v-19.571
			c0.014-0.801,0.146-1.405,0.39-1.813c0.245-0.408,0.553-0.732,0.924-0.97v-6.879h-14.762v6.879
			c0.371,0.223,0.68,0.558,0.925,1.002c0.244,0.446,0.374,1.024,0.39,1.737v19.482c0,0.847-0.104,1.495-0.312,1.947
			c-0.208,0.454-0.543,0.822-1.002,1.104v6.857h14.762V239.104z"/>
	</g>
	<rect x="-228.219" y="-229.328" clip-path="url(#SVGID_2_)" fill="none" width="956.434" height="956.433"/>
</g>
<g>
	<path fill="#F4F7E2" d="M476.197,23.802v452.739H23.949V23.802H476.197 M500,0H0.147v500.344H500V0L500,0z"/>
</g>
</svg>
