<?xml version="1.0" encoding="utf-8"?>
<!-- Generator: Adobe Illustrator 15.1.0, SVG Export Plug-In . SVG Version: 6.00 Build 0)  -->
<!DOCTYPE svg PUBLIC "-//W3C//DTD SVG 1.1//EN" "http://www.w3.org/Graphics/SVG/1.1/DTD/svg11.dtd">
<svg version="1.1" id="レイヤー_1" xmlns="http://www.w3.org/2000/svg" xmlns:xlink="http://www.w3.org/1999/xlink" x="0px"
	 y="0px" width="1280px" height="720px" viewBox="0 0 1280 720" enable-background="new 0 0 1280 720" xml:space="preserve">
<g>
	<defs>
		<rect id="SVGID_1_" x="0.003" width="1280" height="720"/>
	</defs>
	<clipPath id="SVGID_2_">
		<use xlink:href="#SVGID_1_"  overflow="visible"/>
	</clipPath>
	<rect x="-45.585" y="-325.586" clip-path="url(#SVGID_2_)" fill="#EDFDBF" width="1371.171" height="1371.172"/>
	<radialGradient id="SVGID_3_" cx="640" cy="360" r="287.8779" gradientUnits="userSpaceOnUse">
		<stop  offset="0" style="stop-color:#FFFFFF;stop-opacity:0.95"/>
		<stop  offset="0.4335" style="stop-color:#FFFFFF;stop-opacity:0.6512"/>
		<stop  offset="0.9375" style="stop-color:#FFFFFF;stop-opacity:0"/>
	</radialGradient>
	<path clip-path="url(#SVGID_2_)" fill="url(#SVGID_3_)" d="M927.878,360.002c0,158.99-128.888,287.876-287.878,287.876
		c-158.991,0-287.878-128.886-287.878-287.876c0-158.994,128.887-287.88,287.878-287.88
		C798.99,72.122,927.878,201.008,927.878,360.002z"/>
	<g opacity="0.07" clip-path="url(#SVGID_2_)">
		<radialGradient id="SVGID_4_" cx="684.9844" cy="-79.9629" r="312.7225" gradientUnits="userSpaceOnUse">
			<stop  offset="0" style="stop-color:#1A0B08;stop-opacity:0.95"/>
			<stop  offset="0.4335" style="stop-color:#1A0B08;stop-opacity:0.6512"/>
			<stop  offset="0.9375" style="stop-color:#1A0B08;stop-opacity:0"/>
		</radialGradient>
		<polygon opacity="0.7" fill="url(#SVGID_4_)" points="640.001,-519.926 640.001,360 729.967,-515.383 		"/>
		<radialGradient id="SVGID_5_" cx="770.832" cy="-71.0244" r="318.5114" gradientUnits="userSpaceOnUse">
			<stop  offset="0" style="stop-color:#1A0B08;stop-opacity:0.95"/>
			<stop  offset="0.4335" style="stop-color:#1A0B08;stop-opacity:0.6512"/>
			<stop  offset="0.9375" style="stop-color:#1A0B08;stop-opacity:0"/>
		</radialGradient>
		<polygon opacity="0.7" fill="url(#SVGID_5_)" points="817.338,-502.049 640.001,360 901.664,-480.366 		"/>
		<radialGradient id="SVGID_6_" cx="849.7139" cy="-45.3896" r="322.7385" gradientUnits="userSpaceOnUse">
			<stop  offset="0" style="stop-color:#1A0B08;stop-opacity:0.95"/>
			<stop  offset="0.4335" style="stop-color:#1A0B08;stop-opacity:0.6512"/>
			<stop  offset="0.9375" style="stop-color:#1A0B08;stop-opacity:0"/>
		</radialGradient>
		<polygon opacity="0.7" fill="url(#SVGID_6_)" points="982.508,-450.779 640.001,360 1059.427,-413.725 		"/>
		<radialGradient id="SVGID_7_" cx="919.8574" cy="-4.8252" r="325.1285" gradientUnits="userSpaceOnUse">
			<stop  offset="0" style="stop-color:#1A0B08;stop-opacity:0.95"/>
			<stop  offset="0.4335" style="stop-color:#1A0B08;stop-opacity:0.6512"/>
			<stop  offset="0.9375" style="stop-color:#1A0B08;stop-opacity:0"/>
		</radialGradient>
		<polygon opacity="0.7" fill="url(#SVGID_7_)" points="1131.976,-369.65 640.001,360 1199.714,-318.995 		"/>
		<radialGradient id="SVGID_8_" cx="979.498" cy="48.8994" r="325.6085" gradientUnits="userSpaceOnUse">
			<stop  offset="0" style="stop-color:#1A0B08;stop-opacity:0.95"/>
			<stop  offset="0.4335" style="stop-color:#1A0B08;stop-opacity:0.6512"/>
			<stop  offset="0.9375" style="stop-color:#1A0B08;stop-opacity:0"/>
		</radialGradient>
		<polygon opacity="0.7" fill="url(#SVGID_8_)" points="1262.202,-262.202 640.001,360 1318.995,-199.716 		"/>
		<radialGradient id="SVGID_9_" cx="1026.8623" cy="114.0112" r="324.1698" gradientUnits="userSpaceOnUse">
			<stop  offset="0" style="stop-color:#1A0B08;stop-opacity:0.95"/>
			<stop  offset="0.4335" style="stop-color:#1A0B08;stop-opacity:0.6512"/>
			<stop  offset="0.9375" style="stop-color:#1A0B08;stop-opacity:0"/>
		</radialGradient>
		<polygon opacity="0.7" fill="url(#SVGID_9_)" points="1369.647,-131.978 640.001,360 1413.724,-59.428 		"/>
		<radialGradient id="SVGID_10_" cx="1060.1836" cy="188.7456" r="320.8444" gradientUnits="userSpaceOnUse">
			<stop  offset="0" style="stop-color:#1A0B08;stop-opacity:0.95"/>
			<stop  offset="0.4335" style="stop-color:#1A0B08;stop-opacity:0.6512"/>
			<stop  offset="0.9375" style="stop-color:#1A0B08;stop-opacity:0"/>
		</radialGradient>
		<polygon opacity="0.7" fill="url(#SVGID_10_)" points="1450.779,17.491 640.001,360 1480.367,98.337 		"/>
		<radialGradient id="SVGID_11_" cx="1077.6924" cy="271.333" r="315.7812" gradientUnits="userSpaceOnUse">
			<stop  offset="0" style="stop-color:#1A0B08;stop-opacity:0.95"/>
			<stop  offset="0.4335" style="stop-color:#1A0B08;stop-opacity:0.6512"/>
			<stop  offset="0.9375" style="stop-color:#1A0B08;stop-opacity:0"/>
		</radialGradient>
		<polygon opacity="0.7" fill="url(#SVGID_11_)" points="1502.049,182.666 640.001,360 1515.384,270.032 		"/>
		<radialGradient id="SVGID_12_" cx="1079.9609" cy="404.9824" r="312.7225" gradientUnits="userSpaceOnUse">
			<stop  offset="0" style="stop-color:#1A0B08;stop-opacity:0.95"/>
			<stop  offset="0.4335" style="stop-color:#1A0B08;stop-opacity:0.6512"/>
			<stop  offset="0.9375" style="stop-color:#1A0B08;stop-opacity:0"/>
		</radialGradient>
		<polygon opacity="0.7" fill="url(#SVGID_12_)" points="1519.924,360 639.998,360 1515.384,449.965 		"/>
		<radialGradient id="SVGID_13_" cx="1071.0225" cy="490.832" r="318.5112" gradientUnits="userSpaceOnUse">
			<stop  offset="0" style="stop-color:#1A0B08;stop-opacity:0.95"/>
			<stop  offset="0.4335" style="stop-color:#1A0B08;stop-opacity:0.6512"/>
			<stop  offset="0.9375" style="stop-color:#1A0B08;stop-opacity:0"/>
		</radialGradient>
		<polygon opacity="0.7" fill="url(#SVGID_13_)" points="1502.047,537.334 639.998,360 1480.367,621.663 		"/>
		<radialGradient id="SVGID_14_" cx="1045.3877" cy="569.7109" r="322.7382" gradientUnits="userSpaceOnUse">
			<stop  offset="0" style="stop-color:#1A0B08;stop-opacity:0.95"/>
			<stop  offset="0.4335" style="stop-color:#1A0B08;stop-opacity:0.6512"/>
			<stop  offset="0.9375" style="stop-color:#1A0B08;stop-opacity:0"/>
		</radialGradient>
		<polygon opacity="0.7" fill="url(#SVGID_14_)" points="1450.777,702.503 639.998,360 1413.723,779.423 		"/>
		<radialGradient id="SVGID_15_" cx="1004.8223" cy="639.8555" r="325.1281" gradientUnits="userSpaceOnUse">
			<stop  offset="0" style="stop-color:#1A0B08;stop-opacity:0.95"/>
			<stop  offset="0.4335" style="stop-color:#1A0B08;stop-opacity:0.6512"/>
			<stop  offset="0.9375" style="stop-color:#1A0B08;stop-opacity:0"/>
		</radialGradient>
		<polygon opacity="0.7" fill="url(#SVGID_15_)" points="1369.647,851.975 639.998,360 1318.995,919.711 		"/>
		<radialGradient id="SVGID_16_" cx="951.0996" cy="699.4961" r="325.609" gradientUnits="userSpaceOnUse">
			<stop  offset="0" style="stop-color:#1A0B08;stop-opacity:0.95"/>
			<stop  offset="0.4335" style="stop-color:#1A0B08;stop-opacity:0.6512"/>
			<stop  offset="0.9375" style="stop-color:#1A0B08;stop-opacity:0"/>
		</radialGradient>
		<polygon opacity="0.7" fill="url(#SVGID_16_)" points="1262.202,982.199 639.998,360 1199.714,1038.992 		"/>
		<radialGradient id="SVGID_17_" cx="885.9863" cy="746.8613" r="324.1694" gradientUnits="userSpaceOnUse">
			<stop  offset="0" style="stop-color:#1A0B08;stop-opacity:0.95"/>
			<stop  offset="0.4335" style="stop-color:#1A0B08;stop-opacity:0.6512"/>
			<stop  offset="0.9375" style="stop-color:#1A0B08;stop-opacity:0"/>
		</radialGradient>
		<polygon opacity="0.7" fill="url(#SVGID_17_)" points="1131.976,1089.647 639.998,360 1059.427,1133.722 		"/>
		<radialGradient id="SVGID_18_" cx="811.2529" cy="780.1816" r="320.8439" gradientUnits="userSpaceOnUse">
			<stop  offset="0" style="stop-color:#1A0B08;stop-opacity:0.95"/>
			<stop  offset="0.4335" style="stop-color:#1A0B08;stop-opacity:0.6512"/>
			<stop  offset="0.9375" style="stop-color:#1A0B08;stop-opacity:0"/>
		</radialGradient>
		<polygon opacity="0.7" fill="url(#SVGID_18_)" points="982.508,1170.779 639.998,360 901.661,1200.364 		"/>
		<radialGradient id="SVGID_19_" cx="728.665" cy="797.6904" r="315.7806" gradientUnits="userSpaceOnUse">
			<stop  offset="0" style="stop-color:#1A0B08;stop-opacity:0.95"/>
			<stop  offset="0.4335" style="stop-color:#1A0B08;stop-opacity:0.6512"/>
			<stop  offset="0.9375" style="stop-color:#1A0B08;stop-opacity:0"/>
		</radialGradient>
		<polygon opacity="0.7" fill="url(#SVGID_19_)" points="817.332,1222.049 639.998,360 729.966,1235.381 		"/>
		<radialGradient id="SVGID_20_" cx="595.0176" cy="799.9629" r="312.7226" gradientUnits="userSpaceOnUse">
			<stop  offset="0" style="stop-color:#1A0B08;stop-opacity:0.95"/>
			<stop  offset="0.4335" style="stop-color:#1A0B08;stop-opacity:0.6512"/>
			<stop  offset="0.9375" style="stop-color:#1A0B08;stop-opacity:0"/>
		</radialGradient>
		<polygon opacity="0.7" fill="url(#SVGID_20_)" points="640.001,1239.926 640.001,360 550.034,1235.381 		"/>
		<radialGradient id="SVGID_21_" cx="509.1689" cy="791.0244" r="318.5114" gradientUnits="userSpaceOnUse">
			<stop  offset="0" style="stop-color:#1A0B08;stop-opacity:0.95"/>
			<stop  offset="0.4335" style="stop-color:#1A0B08;stop-opacity:0.6512"/>
			<stop  offset="0.9375" style="stop-color:#1A0B08;stop-opacity:0"/>
		</radialGradient>
		<polygon opacity="0.7" fill="url(#SVGID_21_)" points="462.665,1222.049 640.001,360 378.337,1200.366 		"/>
		<radialGradient id="SVGID_22_" cx="430.2871" cy="765.3896" r="322.7388" gradientUnits="userSpaceOnUse">
			<stop  offset="0" style="stop-color:#1A0B08;stop-opacity:0.95"/>
			<stop  offset="0.4335" style="stop-color:#1A0B08;stop-opacity:0.6512"/>
			<stop  offset="0.9375" style="stop-color:#1A0B08;stop-opacity:0"/>
		</radialGradient>
		<polygon opacity="0.7" fill="url(#SVGID_22_)" points="297.493,1170.779 640.001,360 220.573,1133.722 		"/>
		<radialGradient id="SVGID_23_" cx="360.1436" cy="724.8242" r="325.1278" gradientUnits="userSpaceOnUse">
			<stop  offset="0" style="stop-color:#1A0B08;stop-opacity:0.95"/>
			<stop  offset="0.4335" style="stop-color:#1A0B08;stop-opacity:0.6512"/>
			<stop  offset="0.9375" style="stop-color:#1A0B08;stop-opacity:0"/>
		</radialGradient>
		<polygon opacity="0.7" fill="url(#SVGID_23_)" points="148.025,1089.647 640.001,360 80.286,1038.994 		"/>
		<radialGradient id="SVGID_24_" cx="300.5039" cy="671.1016" r="325.6085" gradientUnits="userSpaceOnUse">
			<stop  offset="0" style="stop-color:#1A0B08;stop-opacity:0.95"/>
			<stop  offset="0.4335" style="stop-color:#1A0B08;stop-opacity:0.6512"/>
			<stop  offset="0.9375" style="stop-color:#1A0B08;stop-opacity:0"/>
		</radialGradient>
		<polygon opacity="0.7" fill="url(#SVGID_24_)" points="17.799,982.202 640.001,360 -38.993,919.713 		"/>
		<radialGradient id="SVGID_25_" cx="253.1392" cy="605.9873" r="324.1696" gradientUnits="userSpaceOnUse">
			<stop  offset="0" style="stop-color:#1A0B08;stop-opacity:0.95"/>
			<stop  offset="0.4335" style="stop-color:#1A0B08;stop-opacity:0.6512"/>
			<stop  offset="0.9375" style="stop-color:#1A0B08;stop-opacity:0"/>
		</radialGradient>
		<polygon opacity="0.7" fill="url(#SVGID_25_)" points="-89.647,851.975 640.001,360 -133.723,779.426 		"/>
		<radialGradient id="SVGID_26_" cx="219.8174" cy="531.2529" r="320.8441" gradientUnits="userSpaceOnUse">
			<stop  offset="0" style="stop-color:#1A0B08;stop-opacity:0.95"/>
			<stop  offset="0.4335" style="stop-color:#1A0B08;stop-opacity:0.6512"/>
			<stop  offset="0.9375" style="stop-color:#1A0B08;stop-opacity:0"/>
		</radialGradient>
		<polygon opacity="0.7" fill="url(#SVGID_26_)" points="-170.777,702.506 640.001,360 -200.366,621.663 		"/>
		<radialGradient id="SVGID_27_" cx="202.3091" cy="448.667" r="315.7816" gradientUnits="userSpaceOnUse">
			<stop  offset="0" style="stop-color:#1A0B08;stop-opacity:0.95"/>
			<stop  offset="0.4335" style="stop-color:#1A0B08;stop-opacity:0.6512"/>
			<stop  offset="0.9375" style="stop-color:#1A0B08;stop-opacity:0"/>
		</radialGradient>
		<polygon opacity="0.7" fill="url(#SVGID_27_)" points="-222.048,537.334 640.001,360 -235.383,449.965 		"/>
		<radialGradient id="SVGID_28_" cx="200.0396" cy="315.0161" r="312.723" gradientUnits="userSpaceOnUse">
			<stop  offset="0" style="stop-color:#1A0B08;stop-opacity:0.95"/>
			<stop  offset="0.4335" style="stop-color:#1A0B08;stop-opacity:0.6512"/>
			<stop  offset="0.9375" style="stop-color:#1A0B08;stop-opacity:0"/>
		</radialGradient>
		<polygon opacity="0.7" fill="url(#SVGID_28_)" points="-239.924,360 640.003,360 -235.383,270.032 		"/>
		<radialGradient id="SVGID_29_" cx="208.9785" cy="229.1685" r="318.5113" gradientUnits="userSpaceOnUse">
			<stop  offset="0" style="stop-color:#1A0B08;stop-opacity:0.95"/>
			<stop  offset="0.4335" style="stop-color:#1A0B08;stop-opacity:0.6512"/>
			<stop  offset="0.9375" style="stop-color:#1A0B08;stop-opacity:0"/>
		</radialGradient>
		<polygon opacity="0.7" fill="url(#SVGID_29_)" points="-222.046,182.666 640.003,360 -200.366,98.337 		"/>
		<radialGradient id="SVGID_30_" cx="234.6138" cy="150.2871" r="322.7382" gradientUnits="userSpaceOnUse">
			<stop  offset="0" style="stop-color:#1A0B08;stop-opacity:0.95"/>
			<stop  offset="0.4335" style="stop-color:#1A0B08;stop-opacity:0.6512"/>
			<stop  offset="0.9375" style="stop-color:#1A0B08;stop-opacity:0"/>
		</radialGradient>
		<polygon opacity="0.7" fill="url(#SVGID_30_)" points="-170.775,17.494 640.003,360 -133.723,-59.426 		"/>
		<radialGradient id="SVGID_31_" cx="275.1787" cy="80.1436" r="325.1279" gradientUnits="userSpaceOnUse">
			<stop  offset="0" style="stop-color:#1A0B08;stop-opacity:0.95"/>
			<stop  offset="0.4335" style="stop-color:#1A0B08;stop-opacity:0.6512"/>
			<stop  offset="0.9375" style="stop-color:#1A0B08;stop-opacity:0"/>
		</radialGradient>
		<polygon opacity="0.7" fill="url(#SVGID_31_)" points="-89.646,-131.978 640.003,360 -38.993,-199.713 		"/>
		<radialGradient id="SVGID_32_" cx="328.9009" cy="20.5039" r="325.6087" gradientUnits="userSpaceOnUse">
			<stop  offset="0" style="stop-color:#1A0B08;stop-opacity:0.95"/>
			<stop  offset="0.4335" style="stop-color:#1A0B08;stop-opacity:0.6512"/>
			<stop  offset="0.9375" style="stop-color:#1A0B08;stop-opacity:0"/>
		</radialGradient>
		<polygon opacity="0.7" fill="url(#SVGID_32_)" points="17.799,-262.202 640.003,360 80.286,-318.992 		"/>
		<radialGradient id="SVGID_33_" cx="394.0151" cy="-26.8623" r="324.17" gradientUnits="userSpaceOnUse">
			<stop  offset="0" style="stop-color:#1A0B08;stop-opacity:0.95"/>
			<stop  offset="0.4335" style="stop-color:#1A0B08;stop-opacity:0.6512"/>
			<stop  offset="0.9375" style="stop-color:#1A0B08;stop-opacity:0"/>
		</radialGradient>
		<polygon opacity="0.7" fill="url(#SVGID_33_)" points="148.027,-369.65 640.003,360 220.573,-413.725 		"/>
		<radialGradient id="SVGID_34_" cx="468.748" cy="-60.1816" r="320.8433" gradientUnits="userSpaceOnUse">
			<stop  offset="0" style="stop-color:#1A0B08;stop-opacity:0.95"/>
			<stop  offset="0.4335" style="stop-color:#1A0B08;stop-opacity:0.6512"/>
			<stop  offset="0.9375" style="stop-color:#1A0B08;stop-opacity:0"/>
		</radialGradient>
		<polygon opacity="0.7" fill="url(#SVGID_34_)" points="297.493,-450.779 640.003,360 378.339,-480.364 		"/>
		<radialGradient id="SVGID_35_" cx="551.3359" cy="-77.6904" r="315.7806" gradientUnits="userSpaceOnUse">
			<stop  offset="0" style="stop-color:#1A0B08;stop-opacity:0.95"/>
			<stop  offset="0.4335" style="stop-color:#1A0B08;stop-opacity:0.6512"/>
			<stop  offset="0.9375" style="stop-color:#1A0B08;stop-opacity:0"/>
		</radialGradient>
		<polygon opacity="0.7" fill="url(#SVGID_35_)" points="462.669,-502.049 640.003,360 550.035,-515.381 		"/>
	</g>
	<g clip-path="url(#SVGID_2_)">
		<path fill="none" d="M826.865,190.897c-0.531-0.201-1.077-0.392-1.633-0.577C825.776,190.508,826.322,190.699,826.865,190.897z"/>
		<path fill="none" d="M503.653,311.369h-1.755v11.522h1.947c1.638,0.021,2.857-0.43,3.655-1.355
			c0.798-0.926,1.197-2.441,1.197-4.549c0-2.043-0.41-3.495-1.229-4.357C506.648,311.768,505.377,311.348,503.653,311.369z"/>
		<path fill="none" d="M743.042,207.248l-58.392-29.197v67.972h-20.607l-68.694-34.349v-4.426h-51.521
			c-15.345,0-36.306,12.101-43.976,25.389l-44.651,77.337c-7.031,12.173-5.257,33.117,3.727,43.934l180.208,217.094l78.995-95.161
			h9.117v-6.681c3.641,2.504,7.78,4.462,12.355,5.812c5.231,1.539,11.354,2.317,18.2,2.317c14.182,0,22.876-2.386,27.312-7.448
			c3.824-4.266,6.224-8.115,7.328-11.763c1.111-3.392,1.676-7.193,1.676-11.302c0-7.266-1.484-12.787-4.534-16.881
			c-0.402-0.54-0.816-1.057-1.244-1.551c0.611-0.748,1.136-1.533,1.571-2.357c0.758-1.373,1.35-2.604,1.813-3.768
			c0.507-1.271,0.892-2.501,1.138-3.627c0.253-1.137,0.425-2.311,0.512-3.51c0.071-1.014,0.107-2.117,0.107-3.287
			c0-7.526-2.285-13.911-6.652-18.717l24.772-29.846c2.28,0.325,4.865,0.486,7.81,0.486h0.028h0.029
			c5.846-0.05,10.66-0.697,14.718-1.98c1.369-0.434,2.652-0.935,3.863-1.487v2.413h34.893v-20.262l-1.883-1.323l-0.002-26.379
			l1.885-1.207v-20.482h-23.196c-0.149-9.924-2.471-19.673-7.101-27.692l-27.092-56.42c-3.697-1.045-7.331-1.653-10.689-1.653
			H743.042z M844.915,345.971c0.659-0.404,1.139-0.931,1.438-1.581c0.298-0.649,0.446-1.579,0.446-2.792v-27.93
			c-0.021-1.021-0.208-1.852-0.559-2.49s-0.793-1.118-1.325-1.437v-9.862h21.163v9.862c-0.531,0.34-0.973,0.804-1.324,1.389
			c-0.35,0.586-0.538,1.452-0.558,2.601v28.059c0,1.171,0.17,2.06,0.511,2.666c0.339,0.606,0.798,1.113,1.371,1.517v9.832h-21.163
			V345.971z M628.558,299.878h19.951v7.724c0.043,1.979,0.384,3.773,1.021,5.379c0.639,1.607,1.341,3.08,2.105,4.42h0.128
			c0.938-1.531,1.703-3.122,2.3-4.771c0.595-1.649,0.903-3.346,0.925-5.089v-7.662h17.524v9.862c-0.34,0.256-0.67,0.516-0.989,0.783
			c-0.318,0.266-0.648,0.665-0.989,1.196l-11.364,22.025v8.236c0,1.064,0.171,1.905,0.511,2.522
			c0.341,0.617,0.798,1.106,1.373,1.468v9.832H639.89v-9.832c0.617-0.404,1.085-0.936,1.405-1.596
			c0.318-0.66,0.479-1.373,0.479-2.14v-7.246l-10.534-21.514c-0.447-1.106-0.899-1.92-1.356-2.441
			c-0.459-0.521-0.901-0.954-1.325-1.294V299.878z M527.593,355.802h-18.705c-0.511-1.958-0.82-4.006-0.926-6.145
			c-0.106-2.139-0.149-3.761-0.127-4.868c0-0.553,0.011-1.208,0.032-1.963c0.02-0.755,0.032-1.431,0.032-2.027
			c0.084-2.49-0.262-4.255-1.038-5.298c-0.778-1.043-2.432-1.543-4.963-1.5v7.245c-0.021,1.213,0.095,2.171,0.35,2.874
			c0.256,0.702,0.767,1.319,1.533,1.852v9.832h-21.164v-9.832c0.703-0.468,1.197-1.022,1.484-1.66
			c0.288-0.638,0.421-1.543,0.399-2.713v-27.068c0.021-1.192-0.091-2.155-0.335-2.889c-0.245-0.735-0.762-1.368-1.549-1.9v-9.862
			h27.005c3.809-0.213,7.507,0.595,11.093,2.425c3.583,1.83,5.506,5.949,5.761,12.354c0.148,2.043-0.267,4.452-1.244,7.229
			c-0.98,2.778-3.352,4.719-7.119,5.827v0.223c2.938,0.618,4.905,1.703,5.906,3.257c1,1.552,1.468,3.468,1.404,5.745
			c-0.043,3.449,0.064,5.698,0.319,6.752c0.256,1.053,0.873,1.814,1.852,2.282V355.802z M544.878,355.754
			c-2.501-0.733-4.656-2.015-6.465-3.847c-1.383-1.298-2.463-2.988-3.239-5.075c-0.777-2.086-1.176-4.947-1.197-8.587v-24.578
			c-0.021-1.064-0.208-1.899-0.559-2.505c-0.35-0.607-0.792-1.081-1.325-1.421v-9.862h21.163v9.862
			c-0.446,0.277-0.868,0.708-1.26,1.294c-0.394,0.584-0.602,1.484-0.622,2.696v26.877c0,1.468,0.303,2.543,0.909,3.225
			c0.607,0.681,1.453,1.021,2.538,1.021c1.213,0,2.106-0.367,2.681-1.102c0.574-0.733,0.862-1.866,0.862-3.398v-25.888
			c-0.042-1.638-0.288-2.776-0.734-3.415c-0.446-0.64-0.905-1.054-1.373-1.246v-9.927h20.206v9.862
			c-0.554,0.319-1.043,0.778-1.468,1.373c-0.426,0.596-0.649,1.468-0.67,2.617v24.771c0.043,2.681-0.261,5.149-0.91,7.405
			c-0.649,2.256-1.857,4.278-3.623,6.065c-1.554,1.617-3.554,2.83-6.001,3.639s-5.607,1.224-9.48,1.246
			C550.523,356.856,547.379,356.488,544.878,355.754z M587.631,453.115c0.601,0,1.148-0.012,1.633-0.043
			c0.481-0.031,0.933-0.088,1.355-0.181c0.422-0.095,0.861-0.241,1.318-0.452c0.452-0.21,1.008-0.501,1.67-0.863
			c1.393-0.723,2.087-3.02,2.087-6.885h22.653v24.285H561.44v-20.391c0-6.277,1.663-10.993,4.985-14.132
			c3.446-3.265,8.276-6.378,14.501-9.335c3.2-1.51,5.811-2.84,7.838-3.985c2.023-1.151,3.487-2.118,4.394-2.901
			c1.875-1.512,2.717-3.322,2.538-5.44c0-1.989-0.483-3.472-1.448-4.435c-0.787-1.152-2.029-1.727-3.718-1.727
			c-0.604,0-1.19,0.094-1.766,0.273c-0.58,0.182-1.087,0.543-1.543,1.086c-0.45,0.543-0.811,1.301-1.086,2.268
			c-0.272,0.967-0.407,2.235-0.407,3.805v5.076h-22.923v-21.026c3.987-2.897,8.411-4.997,13.273-6.296
			c4.861-1.298,10.222-1.947,16.082-1.947c0.971,0,1.906,0.014,2.812,0.045c0.902,0.031,1.855,0.104,2.854,0.229
			c0.994,0.119,2.066,0.282,3.213,0.496c1.151,0.214,2.449,0.5,3.899,0.861c2.9,0.725,5.918,2.506,9.06,5.347
			c2.718,2.903,4.29,5.378,4.713,7.432c0.24,1.026,0.437,1.959,0.591,2.808c0.147,0.848,0.252,1.6,0.316,2.266
			c0.057,0.665,0.101,1.312,0.136,1.949c0.026,0.633,0.044,1.277,0.044,1.945c0,4.172-0.496,7.645-1.495,10.42
			c-0.998,2.779-2.614,5.289-4.848,7.523c-1.932,1.751-4.563,3.506-7.884,5.254l-9.425,4.715c-3.321,1.449-6.04,2.975-8.154,4.574
			c-2.113,1.604-3.172,3.248-3.172,4.938v2.445H587.631z M609.182,355.802h-28.44v-9.832c0.999-0.533,1.627-1.208,1.882-2.027
			c0.256-0.819,0.362-1.782,0.319-2.889v-26.397c0-1.49-0.175-2.59-0.527-3.304c-0.35-0.713-0.909-1.251-1.674-1.613v-9.862h28.153
			c5.107-0.043,9.006,1.068,11.698,3.335c2.692,2.268,4.049,5.878,4.07,10.837c-0.064,3.809-0.91,6.691-2.538,8.65
			c-1.628,1.958-3.697,3.234-6.207,3.832v0.221c3.298,0.448,5.729,1.852,7.293,4.214c1.563,2.362,2.334,5.352,2.314,8.969
			c0.084,4.747-1.092,8.555-3.527,11.429C619.561,354.237,615.29,355.717,609.182,355.802z M683.229,445.058
			c0,8.574-2.146,14.949-6.433,19.11c-4.292,4.176-11.689,6.258-22.204,6.258c-10.387,0-17.82-1.932-22.29-5.799
			c-4.532-3.867-6.795-10.391-6.795-19.569v-30.358c0-10.27,2.111-16.613,6.343-19.029c4.227-2.414,8.096-3.986,11.598-4.715
			c3.503-0.727,7.249-1.086,11.239-1.086c4.348,0,8.104,0.348,11.28,1.038c3.171,0.702,6.117,1.892,8.837,3.584
			c2.714,1.692,4.8,4.212,6.251,7.569c1.447,3.352,2.173,7.471,2.173,12.365V445.058z M720.382,468.977h-29.361v-13.686
			c0.965-0.543,1.693-1.357,2.176-2.446c0.302-1.089,0.452-2.232,0.452-3.44v-38.512c0-1.693-0.243-2.945-0.725-3.762
			c-0.486-0.817-1.116-1.462-1.903-1.947V391.5h26.729v58.087c0,1.809,0.275,3.108,0.816,3.894c0.726,0.844,1.33,1.451,1.815,1.811
			V468.977z M722.787,355.802h-19.949v-7.406c-0.043-1.276-0.225-2.49-0.543-3.639c-0.32-1.149-0.798-2.347-1.437-3.591
			c-0.638-1.245-1.373-2.644-2.202-4.198c-0.83-1.552-1.725-3.352-2.682-5.395h-0.255v10.215c0,1.171,0.169,2.06,0.511,2.666
			c0.339,0.606,0.809,1.113,1.403,1.517v9.832h-21.195v-9.832c0.617-0.404,1.086-0.925,1.405-1.565
			c0.319-0.638,0.479-1.574,0.479-2.809v-27.93c-0.021-1.021-0.208-1.852-0.559-2.49c-0.352-0.638-0.793-1.118-1.325-1.437v-9.862
			h21.195v9.862c-0.532,0.34-0.979,0.804-1.341,1.389c-0.361,0.586-0.553,1.452-0.573,2.601v8.779
			c1.36-2.149,2.499-3.93,3.415-5.347c0.914-1.416,1.633-2.612,2.153-3.592c0.522-0.978,0.911-1.809,1.166-2.49
			c0.256-0.68,0.384-1.319,0.384-1.915v-9.289h18.897v9.862c-0.746,0.362-1.4,0.761-1.965,1.197
			c-0.562,0.437-1.101,1.133-1.611,2.091l-7.533,12.065c2.043,4.108,3.676,7.39,4.9,9.848c1.223,2.459,2.159,4.331,2.808,5.617
			c0.65,1.289,1.139,2.203,1.469,2.746s0.654,0.953,0.974,1.229c0.362,0.34,0.734,0.633,1.118,0.877
			c0.382,0.245,0.68,0.432,0.893,0.559V355.802z M724,355.802v-9.832c0.512-0.341,0.969-0.911,1.372-1.708
			c0.405-0.796,0.821-2.366,1.246-4.708l7.406-39.676h24.77l8.363,41.624c0.384,1.532,0.775,2.581,1.182,3.144
			c0.403,0.564,0.925,1.005,1.564,1.325v9.832H747.94v-9.896c0.746-0.255,1.266-0.665,1.565-1.228
			c0.297-0.564,0.446-1.187,0.446-1.868c0-0.318-0.027-0.605-0.079-0.862c-0.054-0.254-0.135-0.511-0.24-0.766h-8.427
			c-0.064,0.255-0.123,0.538-0.176,0.846c-0.054,0.309-0.08,0.622-0.08,0.941c0,0.702,0.191,1.313,0.575,1.835
			c0.382,0.522,0.957,0.911,1.723,1.166v9.832H724z M787.255,446.777c0,3.438-0.457,6.521-1.359,9.24
			c-0.787,2.66-2.751,5.74-5.892,9.242c-3.021,3.447-10.42,5.166-22.201,5.166c-6.222,0-11.646-0.682-16.264-2.038
			c-4.623-1.366-8.653-3.401-12.097-6.119v-21.567h23.469v5.619c0,2.355,0.359,4.198,1.083,5.527
			c0.729,1.33,1.878,1.992,3.448,1.992c1.992,0,3.409-0.691,4.258-2.084c0.966-1.326,1.451-3.35,1.451-6.068
			c0-2.84-0.577-5.012-1.723-6.526c-1.212-1.628-3.838-2.448-7.887-2.448h-7.882v-15.402h6.978c4.53,0,7.339-0.758,8.428-2.266
			c1.145-1.327,1.63-3.109,1.447-5.346c-0.175-2.717-0.725-4.606-1.629-5.664c-0.907-1.055-2.053-1.521-3.441-1.404
			c-1.874,0-3.116,0.85-3.715,2.537c-0.549,1.754-0.816,3.598-0.816,5.531v2.533h-23.109v-18.848
			c3.265-2.531,7.326-4.588,12.188-6.16c4.865-1.57,10.498-2.355,16.901-2.355c8.695,0,15.496,1.857,20.388,5.571
			c4.894,3.714,7.34,9.171,7.34,16.356c0,1.025-0.031,1.963-0.09,2.809c-0.062,0.85-0.183,1.676-0.365,2.494
			c-0.177,0.811-0.453,1.676-0.813,2.581c-0.362,0.907-0.846,1.901-1.448,2.993c-1.151,2.172-3.595,4.047-7.342,5.613
			c2.903,0.971,5.407,2.873,7.521,5.71C786.198,436.84,787.255,441.096,787.255,446.777z M794.162,309.74
			c-0.532,0.34-0.974,0.804-1.324,1.389c-0.352,0.586-0.539,1.452-0.56,2.601v28.059c0,1.171,0.17,2.06,0.511,2.666
			s0.798,1.113,1.373,1.517v9.832h-21.163v-9.832c0.659-0.404,1.138-0.931,1.436-1.581c0.298-0.649,0.448-1.579,0.448-2.792v-27.93
			c-0.021-1.021-0.208-1.852-0.56-2.49c-0.351-0.638-0.794-1.118-1.324-1.437v-9.862h21.163V309.74z M818.55,298.76
			c4.383,0,8.367,0.554,11.954,1.66c3.585,1.107,6.771,2.692,9.561,4.757v14.108h-16.727v-3.798
			c-0.021-1.638-0.336-2.835-0.941-3.592c-0.607-0.754-1.432-1.122-2.474-1.101c-1.129,0-2.002,0.399-2.618,1.197
			c-0.617,0.798-0.926,2.038-0.926,3.719v24.897c0,1.362,0.287,2.416,0.862,3.16c0.574,0.746,1.468,1.129,2.682,1.149
			c1.233-0.02,2.117-0.468,2.649-1.34c0.53-0.872,0.787-2.085,0.766-3.639v-4.883h-3.033v-10.853h19.76v26.654
			c-1.938,1.83-4.587,3.276-7.949,4.341c-3.362,1.063-7.597,1.617-12.703,1.66c-4.087,0-7.369-0.341-9.848-1.022
			c-2.48-0.681-4.539-1.862-6.177-3.543c-1.489-1.468-2.592-3.224-3.304-5.266c-0.713-2.043-1.07-4.576-1.07-7.598V315.04
			c0.255-6.661,2.395-11.083,6.416-13.264S813.825,298.589,818.55,298.76z"/>
		<path fill="none" d="M605.463,320.913c1.266-0.553,1.91-2.011,1.932-4.372c-0.021-2.257-0.645-3.692-1.867-4.311
			c-1.225-0.617-2.952-0.882-5.188-0.798v10.15C602.49,321.69,604.198,321.466,605.463,320.913z"/>
		<polygon fill="none" points="745.26,313.667 745.068,313.667 742.323,330.33 748.133,330.33 		"/>
		<path fill="none" d="M605.878,333.027c-1.202-0.735-3.049-1.059-5.538-0.975v12.226c2.532,0.086,4.394-0.26,5.585-1.038
			c1.192-0.776,1.777-2.506,1.757-5.187C607.682,335.437,607.08,333.761,605.878,333.027z"/>
		<path fill="none" d="M654.231,406.631c-1.811,0-3.034,0.624-3.667,1.857c-0.637,1.242-0.951,2.736-0.951,4.492v33.797
			c0,2.715,0.406,4.574,1.221,5.571c0.814,0.996,1.979,1.491,3.488,1.491c1.63,0,2.842-0.481,3.625-1.451
			c0.783-1.141,1.18-2.984,1.18-5.521v-33.984c0-1.932-0.382-3.459-1.135-4.572C657.237,407.193,655.982,406.631,654.231,406.631z"
			/>
		<path fill="#BF4E79" d="M656.282,621.467c0,0-0.001,0-0.003,0c11.767,7.873,26.316,7.479,37.804-1.186
			c-6.018,4.537-12.874,6.816-19.735,6.816C668.113,627.098,661.884,625.213,656.282,621.467z"/>
		<path fill="#BF4E79" d="M849.747,293.013h23.196v20.482l-1.885,1.207l0.002,26.379l1.883,1.323v20.262h-34.893v-2.413
			c-1.211,0.552-2.494,1.053-3.863,1.487c-4.058,1.283-8.872,1.931-14.718,1.98h-0.029h-0.028c-2.944,0-5.529-0.161-7.81-0.486
			L786.83,393.08c4.367,4.806,6.652,11.19,6.652,18.717c0,1.17-0.036,2.273-0.107,3.287c-0.087,1.199-0.259,2.373-0.512,3.51
			c-0.246,1.126-0.631,2.356-1.138,3.627c-0.464,1.163-1.056,2.395-1.813,3.768c-0.436,0.824-0.96,1.609-1.571,2.357
			c0.428,0.494,0.842,1.011,1.244,1.551c3.05,4.094,4.534,9.615,4.534,16.881c0,4.108-0.564,7.91-1.676,11.302
			c-1.104,3.647-3.504,7.497-7.328,11.763c-4.437,5.062-13.131,7.448-27.312,7.448c-6.846,0-12.969-0.778-18.2-2.317
			c-4.575-1.351-8.715-3.309-12.355-5.812v6.681h-9.117l-78.995,95.161l24.741,29.807c3.045,3.66,6.766,5.68,10.472,5.68
			c3.705,0,7.426-2.02,10.471-5.688l204.949-246.888c8.981-10.822,10.757-31.766,3.725-43.939l-44.65-77.337
			c-5.991-10.38-20.086-20.006-33.287-23.736l27.092,56.42C847.276,273.34,849.598,283.089,849.747,293.013z"/>
		<path fill="#FFA4C7" d="M743.042,186.638h61.823c6.551,0,13.508,1.329,20.367,3.683c0.556,0.185,1.102,0.375,1.633,0.577
			c0.22,0.082,0.438,0.167,0.658,0.25c-1.308-0.74-68.809-38.856-91.353-38.856H684.65v5.152L743.042,186.638z"/>
		<polygon fill="#BF4E79" points="605.654,207.248 595.349,207.248 595.349,211.673 664.043,246.022 664.043,186.638 
			664.043,127.25 595.349,92.903 595.349,152.292 595.349,181.485 605.654,186.638 		"/>
		<polygon fill="#BF4E79" points="743.042,186.638 684.65,157.444 684.65,178.051 743.042,207.248 		"/>
		<polygon fill="#FFC3D9" points="684.65,127.25 615.956,92.903 595.349,92.903 664.043,127.25 		"/>
		<path fill="#FFA4C7" d="M653.861,619.715c0.791,0.629,1.601,1.203,2.418,1.752c0.002,0,0.003,0,0.003,0
			C655.462,620.918,654.652,620.344,653.861,619.715z"/>
		<path fill="#FFA4C7" d="M443.07,367.074c-14.539-17.506-17.097-47.691-5.717-67.404l44.65-77.336
			c11.381-19.715,39.061-35.696,61.825-35.696h61.826l-68.695-34.346h-61.825c-22.766,0-50.443,15.98-61.823,35.696l-44.653,77.333
			c-11.38,19.717-8.82,49.896,5.72,67.405c0,0,190.491,229.485,204.948,246.897c14.449,17.404,27.879,22.033,76.954,41.844
			C655.596,620.59,443.07,367.074,443.07,367.074z"/>
		<path fill="#EA6597" d="M694.083,620.281c2.339-1.764,4.557-3.861,6.592-6.311C698.639,616.42,696.422,618.516,694.083,620.281z"
			/>
		<path fill="#EA6597" d="M827.554,191.166c0,0-0.019-0.011-0.03-0.018c-0.22-0.083-0.438-0.169-0.658-0.25
			C827.097,190.986,827.329,191.074,827.554,191.166z"/>
		<path fill="#EA6597" d="M825.232,190.321c-6.859-2.354-13.816-3.683-20.367-3.683
			C804.865,186.638,816.424,187.414,825.232,190.321z"/>
		<path fill="#FF68A1" d="M911.341,299.67l-44.651-77.336c-7.74-13.409-23.02-25.084-39.166-31.186
			c0.012,0.007,0.03,0.018,0.03,0.018c-0.225-0.091-0.457-0.18-0.688-0.268c-0.543-0.199-1.089-0.389-1.633-0.577
			c-8.809-2.907-20.367-3.683-20.367-3.683h-61.823v20.61h61.823c3.358,0,6.992,0.607,10.689,1.653
			c13.201,3.73,27.296,13.356,33.287,23.736l44.65,77.337c7.032,12.173,5.257,33.117-3.725,43.939L684.818,600.801
			c-3.045,3.668-6.766,5.688-10.471,5.688c-3.706,0-7.427-2.02-10.472-5.68l-24.741-29.807L458.928,353.908
			c-8.984-10.817-10.758-31.761-3.727-43.934l44.651-77.337c7.67-13.288,28.631-25.389,43.976-25.389h51.521h10.305v-20.61h-10.305
			h-51.521c-22.764,0-50.443,15.98-61.825,35.696l-44.65,77.336c-11.38,19.713-8.822,49.898,5.717,67.404l182.971,218.262
			l30.314,36.16c-0.024-0.01-0.048-0.018-0.072-0.029c5.602,3.746,11.831,5.631,18.065,5.631c6.861,0,13.718-2.279,19.735-6.816
			c2.339-1.766,4.556-3.861,6.592-6.311l204.946-246.896C920.163,349.568,922.723,319.383,911.341,299.67z"/>
		<polygon fill="#FF68A1" points="684.65,127.25 664.043,127.25 664.043,186.638 664.043,246.022 684.65,246.022 		"/>
		<path fill="#FF68A1" d="M587.994,445.732c2.114-1.6,4.833-3.125,8.154-4.574l9.425-4.715c3.32-1.748,5.952-3.503,7.884-5.254
			c2.233-2.234,3.85-4.744,4.848-7.523c0.999-2.775,1.495-6.248,1.495-10.42c0-0.668-0.018-1.312-0.044-1.945
			c-0.035-0.637-0.079-1.284-0.136-1.949c-0.064-0.666-0.169-1.418-0.316-2.266c-0.154-0.849-0.351-1.781-0.591-2.808
			c-0.423-2.054-1.995-4.528-4.713-7.432c-3.142-2.841-6.159-4.622-9.06-5.347c-1.45-0.361-2.748-0.647-3.899-0.861
			c-1.146-0.214-2.219-0.377-3.213-0.496c-0.999-0.124-1.952-0.197-2.854-0.229c-0.906-0.031-1.842-0.045-2.812-0.045
			c-5.86,0-11.221,0.649-16.082,1.947c-4.863,1.299-9.286,3.398-13.273,6.296v21.026h22.923v-5.076c0-1.569,0.135-2.838,0.407-3.805
			c0.275-0.967,0.636-1.725,1.086-2.268c0.456-0.543,0.964-0.904,1.543-1.086c0.575-0.18,1.162-0.273,1.766-0.273
			c1.689,0,2.931,0.574,3.718,1.727c0.964,0.963,1.448,2.445,1.448,4.435c0.18,2.118-0.663,3.929-2.538,5.44
			c-0.907,0.783-2.371,1.75-4.394,2.901c-2.027,1.146-4.638,2.476-7.838,3.985c-6.225,2.957-11.056,6.07-14.501,9.335
			c-3.322,3.139-4.985,7.854-4.985,14.132v20.391h56.909v-24.285h-22.653c0,3.865-0.694,6.162-2.087,6.885
			c-0.662,0.362-1.219,0.653-1.67,0.863c-0.457,0.211-0.896,0.357-1.318,0.452c-0.422,0.093-0.875,0.149-1.355,0.181
			c-0.485,0.031-1.033,0.043-1.633,0.043h-2.81v-2.445C584.821,448.98,585.88,447.336,587.994,445.732z"/>
		<path fill="#FF68A1" d="M674.806,394.491c-2.72-1.692-5.666-2.882-8.837-3.584c-3.176-0.69-6.933-1.038-11.28-1.038
			c-3.99,0-7.736,0.359-11.239,1.086c-3.502,0.729-7.372,2.301-11.598,4.715c-4.231,2.416-6.343,8.76-6.343,19.029v30.358
			c0,9.179,2.263,15.702,6.795,19.569c4.47,3.867,11.903,5.799,22.29,5.799c10.515,0,17.912-2.082,22.204-6.258
			c4.286-4.161,6.433-10.536,6.433-19.11v-30.632c0-4.895-0.726-9.014-2.173-12.365C679.605,398.703,677.52,396.184,674.806,394.491
			z M659.127,446.867c0,2.537-0.396,4.381-1.18,5.521c-0.783,0.97-1.995,1.451-3.625,1.451c-1.51,0-2.674-0.495-3.488-1.491
			c-0.814-0.997-1.221-2.856-1.221-5.571V412.98c0-1.756,0.314-3.25,0.951-4.492c0.633-1.233,1.856-1.857,3.667-1.857
			c1.751,0,3.006,0.562,3.761,1.68c0.753,1.113,1.135,2.641,1.135,4.572V446.867z"/>
		<path fill="#FF68A1" d="M718.566,453.48c-0.541-0.785-0.816-2.085-0.816-3.894V391.5h-26.729v13.684
			c0.787,0.485,1.417,1.13,1.903,1.947c0.481,0.816,0.725,2.068,0.725,3.762v38.512c0,1.208-0.15,2.352-0.452,3.44
			c-0.482,1.089-1.211,1.903-2.176,2.446v13.686h29.361v-13.686C719.896,454.932,719.292,454.324,718.566,453.48z"/>
		<path fill="#FF68A1" d="M776.56,428.287c3.747-1.566,6.19-3.441,7.342-5.613c0.603-1.092,1.086-2.086,1.448-2.993
			c0.36-0.905,0.637-1.771,0.813-2.581c0.183-0.818,0.304-1.645,0.365-2.494c0.059-0.846,0.09-1.783,0.09-2.809
			c0-7.186-2.446-12.643-7.34-16.356c-4.892-3.714-11.692-5.571-20.388-5.571c-6.403,0-12.036,0.785-16.901,2.355
			c-4.861,1.572-8.923,3.629-12.188,6.16v18.848h23.109v-2.533c0-1.934,0.268-3.777,0.816-5.531
			c0.599-1.688,1.841-2.537,3.715-2.537c1.389-0.117,2.534,0.35,3.441,1.404c0.904,1.058,1.454,2.947,1.629,5.664
			c0.183,2.236-0.303,4.019-1.447,5.346c-1.089,1.508-3.897,2.266-8.428,2.266h-6.978v15.402h7.882c4.049,0,6.675,0.82,7.887,2.448
			c1.146,1.515,1.723,3.687,1.723,6.526c0,2.719-0.485,4.742-1.451,6.068c-0.849,1.393-2.266,2.084-4.258,2.084
			c-1.57,0-2.719-0.662-3.448-1.992c-0.724-1.329-1.083-3.172-1.083-5.527v-5.619h-23.469v21.567
			c3.443,2.718,7.474,4.753,12.097,6.119c4.617,1.356,10.042,2.038,16.264,2.038c11.781,0,19.181-1.719,22.201-5.166
			c3.141-3.502,5.104-6.582,5.892-9.242c0.902-2.719,1.359-5.803,1.359-9.24c0-5.682-1.057-9.938-3.175-12.78
			C781.967,431.16,779.463,429.258,776.56,428.287z"/>
		<path fill="#BD6AB4" d="M525.741,343.688c-0.255-1.054-0.362-3.303-0.319-6.752c0.064-2.276-0.404-4.192-1.404-5.745
			c-1-1.554-2.968-2.639-5.906-3.257v-0.223c3.767-1.107,6.139-3.049,7.119-5.827c0.977-2.777,1.393-5.186,1.244-7.229
			c-0.255-6.405-2.178-10.523-5.761-12.354c-3.586-1.83-7.284-2.639-11.093-2.425h-27.005v9.862c0.787,0.532,1.304,1.165,1.549,1.9
			c0.244,0.734,0.356,1.697,0.335,2.889v27.068c0.021,1.17-0.111,2.075-0.399,2.713c-0.287,0.638-0.782,1.192-1.484,1.66v9.832
			h21.164v-9.832c-0.766-0.533-1.276-1.149-1.533-1.852c-0.254-0.703-0.371-1.66-0.35-2.874V334c2.531-0.043,4.186,0.457,4.963,1.5
			c0.776,1.043,1.122,2.809,1.038,5.298c0,0.597-0.012,1.272-0.032,2.027c-0.021,0.755-0.032,1.41-0.032,1.963
			c-0.021,1.107,0.021,2.729,0.127,4.868c0.106,2.138,0.416,4.187,0.926,6.145h18.705v-9.832
			C526.614,345.502,525.998,344.741,525.741,343.688z M507.5,321.536c-0.798,0.925-2.017,1.377-3.655,1.355h-1.947v-11.522h1.755
			c1.724-0.021,2.995,0.398,3.814,1.26c0.819,0.862,1.229,2.314,1.229,4.357C508.697,319.094,508.297,320.609,507.5,321.536z"/>
		<path fill="#BD6AB4" d="M569.792,351.972c1.766-1.787,2.974-3.809,3.623-6.065c0.649-2.255,0.953-4.724,0.91-7.405V313.73
			c0.021-1.149,0.244-2.021,0.67-2.617c0.425-0.595,0.915-1.054,1.468-1.373v-9.862h-20.206v9.927
			c0.468,0.191,0.927,0.606,1.373,1.246c0.446,0.638,0.692,1.776,0.734,3.415v25.888c0,1.532-0.288,2.665-0.862,3.398
			c-0.575,0.735-1.468,1.102-2.681,1.102c-1.085,0-1.931-0.34-2.538-1.021c-0.606-0.681-0.909-1.756-0.909-3.225V313.73
			c0.02-1.212,0.228-2.111,0.622-2.696c0.393-0.586,0.814-1.017,1.26-1.294v-9.862h-21.163v9.862
			c0.532,0.34,0.975,0.814,1.325,1.421c0.351,0.606,0.537,1.441,0.559,2.505v24.578c0.021,3.64,0.42,6.501,1.197,8.587
			c0.776,2.086,1.856,3.777,3.239,5.075c1.809,1.832,3.963,3.113,6.465,3.847c2.501,0.734,5.645,1.102,9.432,1.102
			c3.874-0.021,7.034-0.437,9.48-1.246S568.238,353.588,569.792,351.972z"/>
		<path fill="#BD6AB4" d="M623.211,330.968c-1.564-2.362-3.995-3.766-7.293-4.214v-0.221c2.51-0.598,4.579-1.875,6.207-3.832
			c1.628-1.958,2.474-4.841,2.538-8.65c-0.021-4.959-1.378-8.57-4.07-10.837c-2.692-2.267-6.591-3.378-11.698-3.335h-28.153v9.862
			c0.766,0.362,1.325,0.899,1.674,1.613c0.352,0.713,0.527,1.814,0.527,3.304v26.397c0.043,1.107-0.062,2.07-0.319,2.889
			c-0.255,0.819-0.883,1.495-1.882,2.027v9.832h28.44c6.107-0.085,10.379-1.565,12.816-4.437c2.436-2.874,3.611-6.682,3.527-11.429
			C625.545,336.32,624.775,333.33,623.211,330.968z M600.34,311.432c2.235-0.084,3.963,0.181,5.188,0.798
			c1.223,0.618,1.846,2.054,1.867,4.311c-0.021,2.361-0.666,3.819-1.932,4.372c-1.266,0.554-2.974,0.777-5.123,0.67V311.432z
			 M605.925,343.241c-1.191,0.778-3.053,1.124-5.585,1.038v-12.226c2.489-0.084,4.336,0.24,5.538,0.975
			c1.201,0.733,1.804,2.409,1.804,5.026C607.703,340.735,607.118,342.464,605.925,343.241z"/>
		<path fill="#BD6AB4" d="M629.883,311.034c0.457,0.521,0.909,1.335,1.356,2.441l10.534,21.514v7.246c0,0.767-0.16,1.48-0.479,2.14
			c-0.32,0.66-0.788,1.192-1.405,1.596v9.832h21.164v-9.832c-0.575-0.362-1.032-0.852-1.373-1.468
			c-0.34-0.617-0.511-1.458-0.511-2.522v-8.236l11.364-22.025c0.341-0.531,0.671-0.931,0.989-1.196
			c0.319-0.267,0.649-0.527,0.989-0.783v-9.862h-17.524v7.662c-0.021,1.743-0.33,3.44-0.925,5.089
			c-0.597,1.649-1.362,3.241-2.3,4.771h-0.128c-0.765-1.34-1.467-2.812-2.105-4.42c-0.638-1.606-0.979-3.4-1.021-5.379v-7.724
			h-19.951v9.862C628.982,310.081,629.424,310.514,629.883,311.034z"/>
		<path fill="#BD6AB4" d="M720.776,344.535c-0.319-0.276-0.644-0.687-0.974-1.229s-0.818-1.458-1.469-2.746
			c-0.648-1.287-1.585-3.158-2.808-5.617c-1.225-2.458-2.857-5.74-4.9-9.848l7.533-12.065c0.511-0.958,1.049-1.654,1.611-2.091
			c0.564-0.436,1.219-0.835,1.965-1.197v-9.862h-18.897v9.289c0,0.595-0.128,1.235-0.384,1.915c-0.255,0.681-0.644,1.512-1.166,2.49
			c-0.521,0.98-1.239,2.176-2.153,3.592c-0.916,1.417-2.055,3.197-3.415,5.347v-8.779c0.021-1.149,0.212-2.015,0.573-2.601
			c0.361-0.585,0.809-1.049,1.341-1.389v-9.862h-21.195v9.862c0.532,0.319,0.974,0.799,1.325,1.437
			c0.351,0.638,0.537,1.468,0.559,2.49v27.93c0,1.235-0.159,2.17-0.479,2.809c-0.319,0.64-0.788,1.161-1.405,1.565v9.832h21.195
			v-9.832c-0.595-0.404-1.064-0.911-1.403-1.517c-0.342-0.606-0.511-1.495-0.511-2.666v-10.215h0.255
			c0.957,2.043,1.852,3.843,2.682,5.395c0.829,1.554,1.564,2.953,2.202,4.198c0.639,1.244,1.116,2.441,1.437,3.591
			c0.318,1.149,0.5,2.362,0.543,3.639v7.406h19.949v-9.832c-0.213-0.127-0.511-0.314-0.893-0.559
			C721.511,345.167,721.139,344.875,720.776,344.535z"/>
		<path fill="#BD6AB4" d="M743.248,345.971c-0.766-0.255-1.341-0.644-1.723-1.166c-0.384-0.521-0.575-1.133-0.575-1.835
			c0-0.319,0.026-0.633,0.08-0.941c0.053-0.309,0.111-0.591,0.176-0.846h8.427c0.105,0.255,0.187,0.511,0.24,0.766
			c0.052,0.257,0.079,0.544,0.079,0.862c0,0.681-0.149,1.303-0.446,1.868c-0.3,0.563-0.819,0.973-1.565,1.228v9.896h21.963v-9.832
			c-0.64-0.319-1.161-0.76-1.564-1.325c-0.406-0.563-0.798-1.612-1.182-3.144l-8.363-41.624h-24.77l-7.406,39.676
			c-0.425,2.342-0.841,3.912-1.246,4.708c-0.403,0.798-0.86,1.368-1.372,1.708v9.832h19.248V345.971z M745.068,313.667h0.191
			l2.873,16.663h-5.81L745.068,313.667z"/>
		<path fill="#BD6AB4" d="M772.999,309.74c0.53,0.319,0.974,0.799,1.324,1.437c0.352,0.638,0.538,1.468,0.56,2.49v27.93
			c0,1.213-0.15,2.144-0.448,2.792c-0.298,0.65-0.776,1.177-1.436,1.581v9.832h21.163v-9.832c-0.575-0.404-1.032-0.911-1.373-1.517
			s-0.511-1.495-0.511-2.666V313.73c0.021-1.149,0.208-2.015,0.56-2.601c0.351-0.585,0.792-1.049,1.324-1.389v-9.862h-21.163V309.74
			z"/>
		<path fill="#BD6AB4" d="M799.014,315.04v24.386c0,3.022,0.357,5.555,1.07,7.598c0.712,2.042,1.814,3.798,3.304,5.266
			c1.638,1.682,3.696,2.862,6.177,3.543c2.479,0.681,5.761,1.022,9.848,1.022c5.106-0.043,9.341-0.597,12.703-1.66
			c3.362-1.064,6.012-2.511,7.949-4.341v-26.654h-19.76v10.853h3.033v4.883c0.021,1.554-0.235,2.768-0.766,3.639
			c-0.532,0.873-1.416,1.32-2.649,1.34c-1.214-0.02-2.107-0.403-2.682-1.149c-0.575-0.744-0.862-1.798-0.862-3.16V315.71
			c0-1.681,0.309-2.921,0.926-3.719c0.616-0.798,1.489-1.197,2.618-1.197c1.042-0.021,1.866,0.346,2.474,1.101
			c0.605,0.756,0.92,1.954,0.941,3.592v3.798h16.727v-14.108c-2.789-2.064-5.976-3.649-9.561-4.757
			c-3.587-1.106-7.571-1.66-11.954-1.66c-4.725-0.17-9.099,0.835-13.12,3.017S799.269,308.379,799.014,315.04z"/>
		<path fill="#BD6AB4" d="M866.078,345.971c-0.573-0.404-1.032-0.911-1.371-1.517c-0.341-0.606-0.511-1.495-0.511-2.666V313.73
			c0.02-1.149,0.208-2.015,0.558-2.601c0.352-0.585,0.793-1.049,1.324-1.389v-9.862h-21.163v9.862
			c0.532,0.319,0.975,0.799,1.325,1.437s0.537,1.468,0.559,2.49v27.93c0,1.213-0.148,2.144-0.446,2.792
			c-0.299,0.65-0.778,1.177-1.438,1.581v9.832h21.163V345.971z"/>
	</g>
	<rect x="-45.585" y="-325.586" clip-path="url(#SVGID_2_)" fill="none" width="1371.171" height="1371.172"/>
</g>
</svg>
