<svg xmlns="http://www.w3.org/2000/svg" viewBox="0 0 756.8 97.5" enable-background="new 0 0 756.8 97.5"><style type="text/css">.st0{fill:#FFFFFF;}</style><title>アートボード 3</title><path class="st0" d="M43.3 0c3.4 0 6.5.6 9.3 1.7 2.8 1.1 5.1 2.6 7.1 4.6 2 1.9 3.5 4.2 4.5 6.7s1.6 5.3 1.6 8.2c0 4.5-.9 8.4-2.8 11.7-1.9 3.3-5 5.8-9.3 7.5v.2c2.1.6 3.8 1.4 5.1 2.6 1.4 1.2 2.5 2.6 3.3 4.2.9 1.6 1.5 3.4 1.9 5.3.4 1.9.7 3.9.8 5.8.1 1.2.1 2.6.2 4.3.1 1.6.2 3.3.4 5 .2 1.7.5 3.3.9 4.9.4 1.5 1 2.8 1.8 3.9h-17c-.9-2.4-1.5-5.3-1.7-8.7-.2-3.4-.5-6.6-1-9.7-.6-4-1.8-6.9-3.6-8.8-1.9-1.9-4.9-2.8-9.1-2.8h-16.9v29.9h-16.8v-76.5h41.3zm-6 34.6c3.9 0 6.8-.9 8.7-2.6 1.9-1.7 2.9-4.5 2.9-8.4 0-3.7-1-6.4-2.9-8.1-1.9-1.7-4.8-2.5-8.7-2.5h-18.5v21.6h18.5zm73.8 42v-7.7h-.3c-1.9 3.2-4.4 5.5-7.5 7-3.1 1.4-6.2 2.1-9.4 2.1-4.1 0-7.4-.5-10-1.6-2.6-1.1-4.7-2.6-6.2-4.6-1.5-2-2.6-4.4-3.2-7.2-.6-2.8-.9-6-.9-9.4v-34.1h15.2v31.3c0 4.6.7 8 2.1 10.2 1.4 2.3 4 3.4 7.6 3.4 4.1 0 7.1-1.2 9-3.7 1.9-2.5 2.8-6.5 2.8-12.2v-29h15.2v55.5h-14.4zm39.1-76.6v27.9h.2c1.9-2.9 4.4-5 7.6-6.3 3.2-1.3 6.5-2 9.9-2 2.8 0 5.5.6 8.3 1.7 2.7 1.1 5.2 2.9 7.3 5.3 2.2 2.4 3.9 5.4 5.3 9.1 1.4 3.7 2 8.1 2 13.1 0 5.1-.7 9.5-2 13.1-1.4 3.7-3.1 6.7-5.3 9.1-2.2 2.4-4.6 4.1-7.3 5.3-2.7 1.1-5.5 1.7-8.3 1.7-4.1 0-7.7-.6-10.9-1.9-3.2-1.3-5.7-3.5-7.3-6.5h-.2v7.1h-14.5v-76.7h15.2zm24.7 42.2c-.5-2.1-1.3-4-2.4-5.7-1.1-1.6-2.4-2.9-4-3.9s-3.6-1.4-5.8-1.4c-2.2 0-4.1.5-5.8 1.4-1.6 1-3 2.3-4.1 3.9-1.1 1.6-1.9 3.5-2.4 5.7-.5 2.1-.8 4.4-.8 6.8 0 2.3.2 4.5.8 6.7.5 2.1 1.3 4 2.4 5.7 1.1 1.6 2.4 3 4.1 3.9 1.6 1 3.6 1.4 5.8 1.4 2.3 0 4.2-.5 5.8-1.4 1.6-1 2.9-2.3 4-3.9s1.9-3.5 2.4-5.7c.5-2.1.8-4.4.8-6.7 0-2.4-.3-4.7-.8-6.8zm44 50.9c-2.9 1.9-7 2.9-12.2 2.9-1.6 0-3.1-.1-4.7-.2-1.5-.1-3.1-.2-4.7-.4v-12.5c1.4.1 2.9.3 4.4.4 1.5.1 3 .2 4.5.1 2-.2 3.5-1 4.5-2.4s1.4-2.9 1.4-4.5c0-1.2-.2-2.4-.6-3.4l-19.4-52h16.2l12.6 38h.2l12.1-38h15.8l-23.2 62.3c-1.7 4.6-4 7.8-6.9 9.7zm53.6-93.1v31.7l29.9-31.7h21l-29.9 30.2 32.8 46.3h-21.1l-23.1-34.4-9.7 9.8v24.7h-16.8v-76.6h16.9zm54.1 38.2c.2-3.6 1.1-6.5 2.7-8.9 1.6-2.4 3.6-4.3 6-5.7 2.4-1.4 5.2-2.4 8.2-3.1 3-.6 6.1-.9 9.2-.9 2.8 0 5.6.2 8.5.6 2.9.4 5.5 1.2 7.8 2.3 2.4 1.1 4.3 2.7 5.8 4.8 1.5 2 2.3 4.7 2.3 8.1v28.9c0 2.5.1 4.9.4 7.2.3 2.3.8 4 1.5 5.1h-15.4c-.3-.9-.5-1.7-.7-2.6-.2-.9-.3-1.8-.4-2.7-2.4 2.5-5.3 4.3-8.6 5.3s-6.7 1.5-10.1 1.5c-2.6 0-5.1-.3-7.4-1-2.3-.6-4.3-1.6-6-3-1.7-1.4-3.1-3.1-4-5.1-1-2.1-1.4-4.5-1.4-7.4 0-3.1.6-5.7 1.7-7.8 1.1-2 2.5-3.7 4.3-4.9 1.8-1.2 3.8-2.1 6-2.7 2.3-.6 4.5-1.1 6.8-1.4 2.3-.4 4.5-.6 6.8-.9 2.2-.2 4.2-.5 5.9-1 1.7-.4 3.1-1.1 4.1-1.9 1-.8 1.5-2 1.4-3.6 0-1.6-.3-2.9-.8-3.9s-1.3-1.7-2.1-2.3c-.9-.5-1.9-.9-3.1-1.1-1.2-.2-2.4-.3-3.8-.3-3 0-5.4.6-7.1 1.9-1.7 1.3-2.7 3.4-3 6.4h-15.5zm35.1 11.2c-.6.6-1.4 1-2.4 1.3-1 .3-2 .6-3.1.8-1.1.2-2.3.4-3.5.5-1.2.1-2.4.3-3.6.5-1.1.2-2.3.5-3.4.9s-2.1.8-2.9 1.4c-.8.6-1.5 1.4-2 2.3-.5.9-.8 2.1-.8 3.5s.2 2.5.8 3.4c.5.9 1.2 1.7 2 2.2.9.5 1.9.9 3 1.1 1.1.2 2.3.3 3.5.3 3 0 5.3-.5 7-1.5 1.6-1 2.9-2.2 3.6-3.6.8-1.4 1.3-2.8 1.4-4.2.2-1.4.3-2.6.3-3.4v-5.5zm25.4-36.9v-12.5h15.2v12.5h-15.2zm15.2 8.6v55.5h-15.2v-55.5h15.2zm62.3 59.6c-.6 2.9-1.9 5.5-3.9 8s-4.9 4.6-8.7 6.3c-3.8 1.7-8.9 2.6-15.2 2.6-2.7 0-5.5-.3-8.3-1-2.8-.7-5.4-1.7-7.7-3.2-2.3-1.4-4.3-3.3-5.8-5.5-1.5-2.3-2.4-5-2.6-8.1h15.1c.7 2.9 2.1 4.8 4.2 6 2.1 1.1 4.5 1.7 7.2 1.7 4.3 0 7.4-1.3 9.4-3.9 2-2.6 2.9-5.8 2.8-9.8v-7.3h-.2c-1.6 2.9-4 5.1-7 6.5-3 1.4-6.2 2.1-9.6 2.1-4.1 0-7.7-.7-10.7-2.2-3-1.5-5.5-3.5-7.4-6-1.9-2.5-3.3-5.5-4.2-8.9-.9-3.4-1.3-7-1.3-10.8 0-3.6.5-7 1.6-10.4 1-3.3 2.6-6.3 4.6-8.8 2-2.5 4.5-4.6 7.5-6.1s6.4-2.3 10.2-2.3c3.6 0 6.8.7 9.6 2 2.8 1.4 5.1 3.6 6.9 6.9h.2v-7.4h14.5v51.9c-.3 2.3-.6 4.8-1.2 7.7zm-20.9-18.5c1.6-.9 3-2 4.1-3.4 1.1-1.4 1.9-3.1 2.4-4.9.5-1.8.8-3.7.8-5.7 0-2.3-.2-4.5-.6-6.5-.4-2-1.1-3.8-2.1-5.4-1-1.6-2.3-2.8-4-3.8-1.6-.9-3.7-1.4-6.2-1.4-2.1 0-4 .4-5.5 1.3s-2.8 2-3.9 3.5c-1 1.5-1.8 3.1-2.3 5-.5 1.9-.7 3.9-.7 6 0 2 .2 4 .6 6 .4 2 1.1 3.7 2 5.3 1 1.6 2.2 2.9 3.8 3.9 1.6 1 3.5 1.5 5.9 1.5 2.2-.1 4-.5 5.7-1.4zm32.3-49.7v-12.5h15.2v12.5h-15.2zm15.2 8.6v55.5h-15.2v-55.5h15.2zm41.5-2.7c1.1-3.7 2.9-6.9 5.1-9.7 2.3-2.8 5.2-4.9 8.6-6.4 3.6-1.5 7.6-2.3 12.1-2.3 3.4 0 6.7.5 9.8 1.6s5.8 2.6 8.2 4.6c2.4 2 4.2 4.5 5.6 7.4 1.4 2.9 2.1 6.2 2.1 9.9 0 3.8-.6 7-1.8 9.8-1.2 2.7-2.8 5.1-4.8 7.2-2 2.1-4.3 4-6.8 5.7-2.5 1.7-5.1 3.4-7.7 5.1-2.6 1.7-5.1 3.5-7.5 5.4-2.4 1.9-4.6 4.2-6.4 6.8h35.5v13.1h-55.1c0-4.4.6-8.2 1.9-11.4 1.3-3.2 3-6.1 5.1-8.6 2.1-2.5 4.7-4.9 7.6-7 2.9-2.1 6-4.3 9.2-6.5 1.6-1.1 3.4-2.3 5.3-3.5 1.9-1.2 3.6-2.5 5.1-3.9 1.5-1.4 2.8-3 3.9-4.8 1-1.8 1.6-3.8 1.6-6.1 0-3.6-1.1-6.5-3.2-8.5s-4.8-3.1-8.1-3.1c-2.2 0-4.1.5-5.6 1.6-1.5 1-2.8 2.4-3.7 4.1-.9 1.7-1.6 3.5-2 5.6-.4 2-.6 4.1-.6 6.1h-14.6c-.4-4.5.1-8.5 1.2-12.2zm60.8 1.9c1.5-5 3.4-9 6-12 2.5-3 5.4-5.1 8.7-6.4 3.3-1.3 6.8-1.9 10.5-1.9 3.8 0 7.3.6 10.7 1.9 3.3 1.3 6.3 3.4 8.8 6.4 2.5 3 4.5 7 6 12s2.2 11.1 2.2 18.4c0 7.5-.7 13.8-2.2 18.8-1.5 5-3.5 9.1-6 12.1s-5.5 5.1-8.8 6.4c-3.3 1.3-6.9 1.9-10.7 1.9-3.7 0-7.2-.6-10.6-1.9-3.3-1.3-6.2-3.4-8.7-6.4-2.5-3-4.5-7-6-12.1-1.5-5-2.2-11.3-2.2-18.8.1-7.3.8-13.4 2.3-18.4zm13.2 26.2c.1 3 .6 6 1.3 8.8.8 2.8 1.9 5.2 3.6 7.2 1.6 2 4 3 7.1 3 3.1 0 5.6-1 7.2-3 1.7-2 2.9-4.4 3.6-7.2.8-2.8 1.2-5.8 1.3-8.8.1-3 .2-5.6.2-7.8 0-1.3 0-2.8-.1-4.7 0-1.8-.2-3.7-.4-5.6-.3-1.9-.6-3.8-1.1-5.7-.5-1.9-1.2-3.6-2.1-5.1-.9-1.5-2.1-2.7-3.5-3.6-1.4-.9-3.2-1.4-5.3-1.4-2.1 0-3.8.5-5.2 1.4-1.4.9-2.5 2.1-3.4 3.6-.9 1.5-1.6 3.2-2.1 5.1-.5 1.9-.9 3.8-1.1 5.7-.2 1.9-.3 3.8-.4 5.6 0 1.8-.1 3.4-.1 4.7.3 2.2.4 4.8.5 7.8zm66.6 30.1v-48.7h-18.9v-11.5c2.6.1 5.2-.1 7.7-.6s4.7-1.3 6.6-2.5c2-1.2 3.6-2.7 5-4.7 1.4-1.9 2.3-4.3 2.7-7.2h12.1v75.1h-15.2zm45.7-12.8c1.8 1.9 4 2.8 6.6 2.8 2.8 0 5.1-.8 6.9-2.4 1.8-1.6 3.2-3.6 4.3-5.9 1.1-2.3 1.8-4.8 2.3-7.5.5-2.6.8-5 .9-7.1l-.2-.2c-2.1 3-4.5 5.1-7.3 6.4s-6 1.9-9.7 1.9c-3.2 0-6.4-.7-9.4-2.1-3.1-1.4-5.7-3.3-7.8-5.6-2-2.3-3.5-4.9-4.4-7.8-.9-2.9-1.4-5.9-1.4-8.9 0-3.9.6-7.5 1.9-10.8 1.3-3.3 3-6.2 5.4-8.7 2.3-2.5 5.1-4.4 8.3-5.8 3.2-1.4 6.8-2.1 10.7-2.1 5.7 0 10.4 1.1 14.1 3.4 3.7 2.3 6.6 5.2 8.8 8.9 2.2 3.7 3.8 7.8 4.6 12.5.9 4.6 1.3 9.3 1.3 14.1 0 4.6-.5 9.3-1.6 13.9s-2.8 8.8-5.1 12.6c-2.4 3.8-5.4 6.8-9.1 9.1-3.7 2.3-8.3 3.5-13.6 3.5-3.2 0-6.2-.4-9-1.3s-5.3-2.2-7.4-4c-2.1-1.8-3.9-4-5.3-6.5-1.4-2.6-2.3-5.5-2.7-8.8h14.5c.5 2.4 1.6 4.6 3.4 6.4zm12.9-24.5c1.5-.8 2.8-1.8 3.8-3.1s1.8-2.8 2.3-4.5c.5-1.7.8-3.4.8-5.3 0-1.7-.3-3.4-.8-5.1-.5-1.7-1.3-3.2-2.4-4.5-1-1.3-2.3-2.4-3.8-3.2-1.5-.8-3.2-1.2-5.1-1.2-1.8 0-3.4.4-4.8 1.2-1.4.8-2.6 1.8-3.6 3.1s-1.8 2.8-2.3 4.4c-.5 1.6-.8 3.3-.8 5 0 1.8.2 3.5.7 5.2.5 1.7 1.2 3.2 2.1 4.5.9 1.3 2.1 2.4 3.6 3.2 1.5.8 3.2 1.2 5.1 1.2 1.9.2 3.7-.1 5.2-.9z"/></svg>