<?xml version="1.0" encoding="utf-8"?>
<!-- Generator: Adobe Illustrator 18.1.1, SVG Export Plug-In . SVG Version: 6.00 Build 0)  -->
<svg version="1.1" id="レイヤー_1" xmlns="http://www.w3.org/2000/svg" xmlns:xlink="http://www.w3.org/1999/xlink" x="0px"
	 y="0px" viewBox="0 0 719.7 106" enable-background="new 0 0 719.7 106" xml:space="preserve">
<path fill="#BE1E2D" d="M107.8,33.1h12.7v38H69.8v-38h12.7v25.3h25.3V33.1z"/>
<path fill="#BE1E2D" d="M133.1,71.1V20.4h12.7v12.7h38v38H133.1z M145.8,58.4h25.3V45.8h-25.3V58.4z"/>
<path fill="#BE1E2D" d="M234.4,33.1h12.7v67.7h-12.7V71.1h-38v-38h12.7v25.3h25.3V33.1z"/>
<path fill="#444444" d="M272.4,71.1h-12.7V7.8h12.7v25.3h25.3v12.7h-25.3V71.1z M310.4,33.1h-12.7V7.8h12.7V33.1z M297.7,45.8h12.7
	v25.3h-12.7V45.8z"/>
<path fill="#444444" d="M373.7,33.1v38h-50.7V45.8h12.7v12.7h25.3V45.8h-25.3V33.1H373.7z"/>
<path fill="#444444" d="M399,33.1h-12.7V20.4H399V33.1z M399,71.1h-12.7V45.8H399V71.1z"/>
<path fill="#444444" d="M487.7,33.1H475V20.4h12.7V33.1z M487.7,71.1H475V45.8h12.7V71.1z"/>
<path fill="#FFFFFF" d="M551,7.8v38h-38v12.7h38v12.7h-50.7v-38h38V20.4h-38V7.8H551z"/>
<path fill="#FFFFFF" d="M563.7,71.1V7.8h50.7v63.3H563.7z M576.3,58.4h25.3v-38h-25.3V58.4z"/>
<path fill="#FFFFFF" d="M639.6,20.4H627V7.8h25.3v63.3h-12.7V20.4z"/>
<path fill="#FFFFFF" d="M677.6,20.4v12.7h38v38H665V58.4h38V45.8h-38v-38h50.7v12.7H677.6z"/>
<g>
	<path fill="#BE1E2D" d="M6.5,7.8v63.3h12.7V45.8h12.7v12.7h12.7V45.8h12.7v-38H6.5z M44.5,33.1H19.2V20.4h25.3V33.1z"/>
	<rect x="44.5" y="58.4" fill="#BE1E2D" width="12.7" height="12.7"/>
</g>
<path fill="#444444" d="M411.7,33.1v38H437v17.2H425v12.6h12V88.3h12.7V71.1h12.7v-38H411.7z M449.7,58.4h-25.3V45.8h25.3V58.4z"/>
</svg>
