<?xml version="1.0" encoding="UTF-8"?><svg id="a" xmlns="http://www.w3.org/2000/svg" viewBox="0 0 200 200"><defs><style>.b{fill:none;}.c{fill:#f8f8f8;}.d{fill:#9faeb6;}.e{fill:#c7c8c9;}</style></defs><g><path class="b" d="M167.7,57.9s.04-.04,.05-.06h-.01l-.04,.06Z"/><path class="e" d="M183.17,106.25c1.19-.43,2.29-1.04,3.28-1.8,3.03-2.32,4.43-5.32,5.38-8.85,1.18-4.4,2.98-8.41,3.19-13.04,.24-5.46-1.51-10.99-4.85-15.31-2.37-3.06-5.34-5.22-8.7-6.78-.82-.38-1.65-.73-2.51-1.04,3.67-1.66,6.23-5.34,6.23-9.63,0-5.4-4.05-9.83-9.28-10.47-.24-.03-.49-.06-.74-.07-.81-8.18-6.89-14.79-15.69-14.4-1.94,.09-4.11,.66-5.05,2.36-1.74-2.31-4.54-3.78-7.43-3.91-2.89-.13-5.81,1.09-7.75,3.24-1.02-5.78-4.22-11.08-9.21-14.58-4.66-3.26-12.1-4.68-17.7-4.65-9.01,.06-17.15,1.69-23,7.64-3.87-4.31-9.48-7.02-15.73-7.02-10.58,0-19.35,7.77-20.9,17.92-2.35-.9-4.9-1.4-7.56-1.4-11.68,0-21.14,9.47-21.14,21.14,0,2.45,.42,4.79,1.18,6.98-.39-.02-.79-.03-1.18-.03-3.83,0-7.63,1.05-10.92,3.03-3.63,2.19-5.02,6.19-6.78,9.94-.8,1.7-1.57,3.46-1.83,5.33-.26,1.87,.06,3.89,1.23,5.36,.38,.47,.84,.89,1.07,1.45,.43,1.04-.08,2.21-.38,3.3-1.16,4.25,1.25,6.96,4.42,9.39,.63,.48,2.77,1.9,4.91,2.98-7.87,2.11-11.59,9.27-11.59,17.8,0,10.19,6.95,15.68,16.36,18.45,.6,.18,1.25-.03,1.87-.09-2.33,3.49-3.74,7.4-3.74,11.96,0,8.13,4.6,15.18,11.32,18.72-.49,2.85-.32,5.85,.63,8.79,3.14,9.69,13.54,15.01,23.24,11.87,1.3-.42,2.51-.98,3.63-1.64,5.27,5,12.39,8.07,20.23,8.07,4.16,0,8.12-.87,11.7-2.43,1.46,2.82,3.64,5.31,6.52,7.12,8.61,5.44,20.01,2.87,25.45-5.74,.63-.99,1.13-2.02,1.55-3.07,1.44,.19,2.9,.31,4.39,.31,10.9,0,20.54-5.36,26.44-13.59,2.29,1.02,4.81,1.59,7.48,1.59,10.19,0,18.45-8.26,18.45-18.45,0-1.24-.13-2.45-.36-3.63,3.24-1.22,6.13-3.22,7.55-6.23,1.21-2.56,1.33-5.54,.75-8.31-.12-.58-.27-1.18-.11-1.74,.31-1.08,1.55-1.53,2.58-1.99,3.41-1.52,5.93-4.87,6.45-8.56,1.09-7.67-6.84-14.1-13.34-16.26Zm-15.47-48.35l.04-.07h.01s-.04,.04-.05,.07Z"/></g><g><path class="d" d="M196.77,112.95c-.24-.39-.49-.76-.77-1.12-1.05-1.4-2.33-2.63-3.69-3.75-1.32-1.08-3.13-1.52-4.37-2.51-1.36-1.07-1.1-.7,.56-1.95,2.34-1.75,4.3-3.88,5.83-6.37,3.01-4.89,4.33-10.75,4.25-16.45-.03-2.09-.37-4.18-1.03-6.16-.63-1.91-5.24-9.26-6.96-10.74-1.82-1.57-3.86-2.89-6.01-3.95-.24-.12-.49-.22-.73-.33,3.64-1.78,6.15-5.5,6.15-9.82,0-6.04-4.9-10.94-10.94-10.94-1.1,0-2.16,.17-3.17,.47,5.23,.64,9.28,5.07,9.28,10.47,0,3.35-1.56,6.32-3.99,8.26-.41-.4-.84-.77-1.3-1.1-2.98-2.16-6.53-3.51-10.19-3.87,15.54,7.6,9.9,16.28,6.93,20.27,6.29-3.06,6.7-9.1,6.71-10.15,4.31,3.42,7.66,7.91,8.87,13.3,1.35,6,.27,12.51-2.93,17.76-.28-4.21-3.3-8.1-7.3-9.44,2.8,4.57,1.01,11.32-3.69,13.91-3.23-7.97-8.64-10.94-16.22-14.11,3.54,1.48,6.19,4.63,7.69,8.15,1.23,2.89,1.82,6.12,1.92,9.25,.05,1.51,.49,7.55-.64,8.34,4.05-2.84,9.78-3.03,14-.47,4.79,2.9,7.21,9.21,6.01,14.63-.41,1.85-1.17,3.69-2.54,5-.81,.77-1.87,1.32-2.97,1.51-.52-1.45-1.27-2.87-2.2-4.22-2.37-3.46-6.3-6-10.49-6.07,3.31,2.71,5.71,6.5,6.84,10.62,.4,1.45,.63,2.94,.7,4.44,.09,2.12-.17,4.3-1.17,6.17-1.73,1.09-3.73,1.69-5.72,2.47-4.55,1.78-9.03,2.45-13.72,2.21,.83-1.11,1.55-2.31,2.13-3.58,.36-.79,.67-1.61,.93-2.44,1.97-6.25-1.58-9.59-4.07-14.84,1.71,3.61,.37,13.21-2.75,16.02-.23,.2-.51,.39-.81,.36-.79-.08-.7-1.23-.67-2.02,.05-1.26-.68-2.46-1.65-3.27-.97-.81-2.16-1.3-3.33-1.79,.96,.54,1.19,1.81,1.23,2.92,.07,1.81-.12,3.7-1.02,5.27-2.64,4.62-13.04,5.95-17.42,3.93,.11,1.39,1.05,2.62,2.22,3.38,1.17,.76,2.55,1.13,3.91,1.44,4.72,1.06,9.75,1.45,14.32-.15,.51-.18,.99-.38,1.46-.61-.97,6.25-2.89,11.97-7.75,16.62-4.23,4.06-9.46,6.62-15.16,7.88-5.55,1.23-11.72,2.45-16.7-1.25-2.81-2.09-4.4-5.96-3.64-9.25,1.67-.44,3.23-1.3,4.43-2.55,.7-.73,1.29-1.68,1.53-2.65,.19-.78,.15-1.57-.23-2.28-1.58,.93-3.4,1.45-5.24,1.49,1.47-1.98,2.07-4.59,1.61-7.01-.53,3.47-3.58,6.31-7.04,6.93-3.46,.62-7.13-.83-9.51-3.42-2.07-2.26-3.19-5.28-3.39-8.34,1.52-.93,2.85-2.18,3.81-3.68-2.55,.85-5.33,.86-7.93,.17,.25-.03,.5-.06,.74-.09,.04,0,.08,0,.12-.01-4.93-.36-8.93-4.54-8.97-9.54-.29-1.48,.14-3.22,.89-4.79l-.52,.89c.72-1.7,1.78-3.26,2.94-4.34,1.58-1.48,3.58-2.41,5.49-3.43,3.17-1.69,6.18-3.67,8.98-5.92-6.74,1.02-13.88-1.08-19-5.58,1.92,1.9,1.77,5.06,.99,7.65-1.93,6.35-5.99,11.48-12.99,11.03-2.94-.19-5.88-1.13-8.39-2.67-.71-.44-6-4.34-5.32-5.38-.82,1.24-.78,2.89-.26,4.28,.52,1.39,1.47,2.57,2.41,3.71,2.45,2.96,5.23,5.99,8.96,6.96,.32,2.21-1.79,4.17-4,4.53-2.21,.35-4.41-.45-6.5-1.23,2.45,3.41,6.7,5.44,10.89,5.19,1.61-.1,3.62-.32,4.44,1.07,.69,1.17,.16,3.07,1.36,3.7,2.67-1.35,3.19-4.1,6.07-5.24,.05-.02,.11-.04,.16-.06,2.23,2.84,5.79,4.62,9.41,4.61,1.78,0,3.54-.46,5.15-1.24-1.7,4.37-.24,9.93,3.66,12.63-5.73-.86-9.22-4.24-12.92-8.22,.12,6.25,6.33,11.56,11.9,13.16,.19,.06,.4,.11,.61,.17,.03,2.62-2.41,4.83-5.74,6.13-4.48,1.76-9.97,1.71-13.7-1.34,.89,2.07,1.72,4.66,.27,6.39-.89,1.06-2.37,1.4-3.75,1.44-6.42,.17-12.93-5-15.66-10.51-.79-1.6-1.04-3.22-1.35-4.85,1.06,.08,2.24-.07,3.06-.02,2,.1,3.94,.7,5.97,.76,1.36,.04,4.3-.87,5.45-.43-1.82-.68-3.52-1.68-4.99-2.95-1.05-.9-2.04-2.07-2.09-3.45-.08-2.13,1.99-3.63,3.81-4.72-2.42,.07-4.86-.18-7.22-.73-1.58-.37-3.38-1.15-3.66-2.74-1.41,2.88-5.68,3.46-8.31,1.63-1.8-1.25-2.86-3.28-3.3-5.39-.13-.64-1.07-4.9-.59-5.36-4.57,4.39-5.71,13.35-1.34,18.25-5.65,.75-11.75-1-15.94-4.77-5.1-2.59-8.45-7.85-7.14-13.76-.14-.19-.28-.37-.42-.56-.11,.87-.17,1.75-.17,2.65,0,8.12,4.58,15.16,11.29,18.7-.41,.97-.55,2.06-.52,3.27,.05,2.23,.62,4.44,1.41,6.51,1.43,3.72,3.53,7.23,6.94,9.4,3.11,1.98,6.96,3.41,10.76,3.52,1.7,.05,3.39-.16,5-.71,1.63-.56,3.18-1.36,4.57-2.39,5.2,4.65,12.07,7.49,19.6,7.49,3.94,0,7.7-.78,11.13-2.19,.54,1.21,2.23,3.08,2.75,3.73,2.4,3,5.86,5.2,9.69,5.78,1.6,.24,3.22,.22,4.83,.16,1.2-.05,2.41-.11,3.6-.33,3.08-.57,5.89-2.14,8.32-4.12,.05-.04,.1-.08,.15-.12,2.42-2.01,4.48-4.41,6.5-6.83,.87,.07,1.74,.12,2.63,.12,10.81,0,20.38-5.27,26.29-13.38,.65,.32,1.31,.6,2,.8,2.14,.64,4.41,.78,6.63,.66,3.08-.16,6.16-.8,8.94-2.14,2.1-1.01,4.03-2.43,5.53-4.23,1.53-1.83,2.35-4.29,3.15-6.53,.46-1.28,.92-2.58,1.09-3.94,.11-.88,.07-1.78-.09-2.65,.37-.16,.74-.31,1.09-.5,6.44-3.4,9.11-10.54,7.27-17.35,9.25-.5,11.6-14.7,7.59-21.21ZM53.02,176.15c-5.13,1.04-10.59-.81-14.6-4.18-.68-.57-1.33-1.19-1.86-1.91-1.61-2.18-1.96-5.05-1.88-7.77,0-.12,.01-.24,.02-.36,1.62,.4,3.31,.63,5.06,.63,2.9,0,5.65-.59,8.17-1.65,.16,.02,.33,.05,.49,.06,.6,5.53,2.72,10.6,5.94,14.78-.43,.18-.88,.3-1.34,.39Zm64.38,6.5c-2.31,1.69-4.89,3.01-7.61,3.89-5.66,1.83-12.36,.66-16.08-4.08,3.84-2.5,7.06-5.87,9.38-9.83,3.98,4.42,9.15,7.74,15.01,9.46-.23,.19-.46,.38-.7,.56Zm46.94-17.53c-.9,.36-1.82,.64-2.75,.91-2.03,.59-4.12,1.09-6.22,1.25,2.82-4.82,4.44-10.41,4.44-16.4,0-.81-.04-1.61-.1-2.42,.93,2.59,5.12,3.86,7.53,4.44,2.63,.63,5.39,.84,8.08,.55-1.73,5.23-5.85,9.63-10.97,11.67Z"/><path class="d" d="M112.15,119.57c1.23,2.05,3.1,3.72,5.28,4.7,1,.45,2.06,.75,3.12,1.03,1.97,.52,4.27,.88,5.88-.37,.15,3.43-2.63,6.73-6.03,7.17,.49,.97,1.75,1.36,2.83,1.17,1.08-.19,2.02-.82,2.92-1.44-.19,1.8-1.43,3.36-2.93,4.36-3.53,2.37-7.91,4.17-12.2,3.55,9.05,4.97,16.95,.62,24.96-3.88,.95-.53,1.94-1.07,3.02-1.12,1.23-.05,2.38,.56,3.47,1.15-1.18-2.21-.84-5.12,.81-7.01,1.65-1.89,4.35-2.5,6.71-1.8-2.1-2.61,.77-5.28,1.84-7.59,1.68-3.61,.38-5.4-.42-8.79,.62,2.58-1.47,5.09-3.81,6.34-2.94,1.58-6.57,1.9-9.68,.74-.44-.16-.87-.36-1.28-.58-3.35-1.81-5.57-5.66-5.18-9.45-1.68,4.76-4.05,9.25-8.88,11.41-3.25,1.45-7.07,1.6-10.42,.39Z"/><path class="d" d="M81.88,129.5l1.07-1.86c-.39,.56-.76,1.2-1.07,1.86Z"/><path class="d" d="M141.92,97.28c2.31-.16,4.75,1.1,5.64,3.23-.45-1.77,.69-3.63,2.24-4.61,1.54-.97,3.41-1.25,5.22-1.51-2.19,.49-4.65-.87-5.41-2.98-.53-1.48-.28-3.16,.36-4.6,1.29-2.91,2.64-3.92,1.47-7.24-.44-1.25-1.04-2.43-2.01-3.35-.37-.35-2.38-1.26-2.48-1.53,1.21,3.34,2.38,7.22,.6,10.29-2.04,3.52-6.78,4.11-10.85,4.31,.66,6.62-4.26,13.33-10.77,14.71,3.25-.14,7.31-.38,9.9-2.53,2.14-1.78,2.73-3.97,6.09-4.2Z"/><path class="d" d="M106.22,114.08c1.07,.17,2.2,.18,3.22-.2,1.02-.38,1.92-1.19,2.22-2.23,2.43,2.2,6.73,1.47,8.63-1.21,1.9-2.68,1.4-6.64-.78-9.09,.1,1.82-.09,3.66-.57,5.42-.16,.59-.36,1.18-.72,1.66-.8,1.07-2.22,1.46-3.55,1.56-1.05,.08-2.14,.01-3.07-.47-.93-.49-1.65-1.48-1.57-2.52-.72,1.95-2.48,3.57-4.54,3.82-2.07,.24-4.3-1.1-4.77-3.13-.42,1.53,.17,3.24,1.28,4.38,1.11,1.14,2.66,1.78,4.23,2.03Z"/></g><g><path class="c" d="M40.21,80.68c-1.15-.68-2.52-.83-3.86-.85-3.36-.04-6.78,.74-9.6,2.58-.5,.32-.98,.68-1.43,1.07-2.1,1.81-3.64,4.29-4.09,7.02-.29,1.74,.11,4.11,.69,5.77,.47,1.34,1.25,2.54,2.08,3.68,1.73,2.37,4.07,4.96,7.06,5.63-.66-1.06-1.68-1.89-2.3-3.05-.69-1.26-1.17-2.64-1.44-4.05-.54-2.77-.29-5.71,.8-8.32,2.04-4.94,6.83-8.55,12.09-9.48Z"/><path class="c" d="M174.28,32.77c-.98-2.36-2.48-4.5-4.39-6.19-1.78-1.58-3.65-3.3-5.98-3.93-2.83-.76-5.81-.34-8.6,.37-.17,.04-.34,.09-.52,.13-3.24-4.34-9.72-5.88-14.56-3.44,.24-.12-4.51-5.46-4.99-5.89-2.01-1.81-4.27-3.34-6.69-4.55-4.77-2.37-10.9-4.09-16.22-4.05-9.01,.06-17.15,3.77-23,9.73-3.87-4.31-9.48-7.02-15.73-7.02-10.58,0-19.35,7.77-20.9,17.92-2.35-.9-4.9-1.4-7.56-1.4-11.68,0-21.14,9.47-21.14,21.14,0,2.45,.42,4.79,1.18,6.98-.39-.02-.79-.03-1.18-.03-3.23,0-6.26,.79-8.97,2.16-1.23,.36-2.43,.86-3.53,1.53-2.83,1.72-5.03,4.33-6.8,7.14-1.28,2.03-2.38,4.25-2.59,6.64-.09,1.06,.03,2.17,.36,3.19,0,.48,.03,.96,.11,1.44,.23,1.32,1.03,2.04,1.52,3.17,.7,1.59-.25,3.24-.53,4.81-.24,1.37-.17,2.82,.08,4.18,.58,3.1,2.28,6,4.79,7.93-2.62,1.99-4.67,4.72-5.86,7.79-1.83,4.71-1.56,10.15,.5,14.77,2.06,4.62,5.84,8.39,10.35,10.68,1.74,.88,3.6,1.56,5.53,1.86,.24,.04,.48,.05,.71,.07-.98,1.62-1.67,3.37-1.92,5.13-.38,2.71-.11,5.48,.31,8.19,.38,2.49,.96,5.13,2.73,6.92-1.04-3.82-1-7.92,.05-11.74,.03,.11,.06,.22,.09,.33,.88-2.4,3.01-4.17,5.36-5.18,2.35-1.01,4.91-1.37,7.44-1.72-2.4-1.19-5.19-1.57-7.82-1.05-.53,.11-1.08,.27-1.56,.53,1.15-1.49,2.46-2.84,3.87-4.14,4.3-2.34,9.38-3.23,14.21-2.46-3.31-2.26-7.63-3.55-11.4-2.55-.78,.06-1.56,.2-2.32,.41-.98,.28-1.92,.67-2.8,1.17-2.06,1.17-4.04,2.98-5.54,5.1-1.28-.99-2.38-2.23-3.43-3.47-1.73-2.05-3.38-4.18-4.94-6.36-1.39-1.94-2.72-3.96-3.45-6.22-1.28-3.97-.53-8.47,1.67-12.01,2.2-3.54,5.77-6.15,9.7-7.53-1.45-.26-2.66-1.23-3.79-2.17-1.45-1.21-2.93-2.43-4.03-3.96-2.18-3.03-2.43-7.18-.55-10.38,.89-1.51,3.06-6,5.23-5.94-2.43-.07-4.87,.97-6.51,2.77-2.11-3.89-1.16-9.07,1.92-12.25,2.68-2.78,6.24-3.21,9.95-3.3,2.91-.07,8.76,.14,11.04,2.3-1.73-1.65-3.53-3.39-4.26-5.67-.63-1.98-.37-4.13-.11-6.19,.45-3.5,.23-6.49,2.36-9.45,1.77-2.45,4.23-4.41,7.01-5.58,5.21-2.21,10.21-1.38,15.39,.2-2.2,.56-4.2,1.71-5.62,3.52-1.53,1.95-2.26,4.51-2,6.98,.11,1.01,.38,2.15,.76,3.25-.19,.09-.34,.16-.41,.2-1.5,.85-2.95,1.8-4.34,2.83-2.33,1.75-4.95,3.62-6.3,6.24-2.47,4.78-2.45,11.44,.74,15.89,2.32,3.23,6.29,4.74,10.03,6.09-3.03-2.73-5.08-6.52-5.7-10.55-.59-3.85,.4-7.85,2.88-10.87-1.04,2.03-.6,4.58,.62,6.5,1.22,1.93,3.09,3.34,5.01,4.57-2.29-5.1-1.82-11.29,1.03-16.08,1.63,.78,3.59,.98,4.52,1.95-2.7-2.84-4.51-8.85-2.48-12.47,.99-1.76,3-2.95,4.93-3.36,.76-.16,5.13-.43,5.31,.82-.34-2.31,.99-4.63,2.89-5.99,1.89-1.36,4.26-1.9,6.58-2.12,4.32-.4,8.74,.22,12.79,1.79-3.47-3.62-8.4-6.14-13.41-6.58-1.59-.14-14.84,1.73-13.94,4.67-.79-2.6-.37-5.54,1.13-7.81,3.22-4.88,8.37-8.98,14.48-8.8,4.23,.13,8.29,1.98,11.57,4.65-2.29,1.01-3.65,3.76-3.07,6.19,.96-1.78,2.83-2.9,4.73-3.62,5.37-2.04,11.65-1.48,16.58,1.47,0-3.71-3.95-6.88-7.57-6.07,1.88-2.35,4.62-3.89,7.46-4.89,6.39-2.24,13.58-1.81,19.77,.86,5.7,2.45,12.95,7.93,14.41,14.29-3.08,.33-6.76-2.49-10.12-2.79-3.38-.3-7.1,.77-9.07,3.54,0,.01-5.24,.23-5.94,.49-1.55,.58-3.58,1.74-4.75,2.95-2.61,2.68-3.9,7.28-1.18,10.4-.45-3.59,1.81-7.35,5.2-8.63,3.39-1.28,7.57,.05,9.6,3.04-.49-1.47,.08-3.15,1.16-4.26,1.08-1.11,2.58-1.72,4.09-2.04,2.44-.5,5.11-.26,7.22,1.08,2.11,1.33,3.52,3.87,3.14,6.33,.26-1.68,5.16,1.08,5.61,1.49,1.68,1.53,3.04,3.65,3.96,5.72,.94,2.11,1.98,4.19,2.53,6.42-.84-.5-1.81-.83-2.78-.98-2.01-.33-4.18,.01-5.85,1.18-1.67,1.17-2.76,3.23-2.52,5.25,1.29-1.97,3.72-3.14,6.07-2.91,2.27,.22,4.36,1.73,5.31,3.8,.03,.07,.07,.15,.1,.22,.64,1.56,.65,3.31,.59,5-.04,1.36-.12,2.72-.24,4.08,3.27-1.79,4.73-6.28,3.14-9.65,.16,.33,2.77,.96,3.23,1.18,1.15,.55,2.25,1.22,3.27,1.99,1.93,1.46,3.07,3.5,4.76,5.08,1.67-1.55-.92-7.75-2.09-9.35-2.46-3.36-7.44-5.15-10.98-2.94-.4-.65-.93-1.19-1.55-1.63,.08-1.77,.53-3.8,.57-5.09,.09-2.79-.37-5.63-1.59-8.16-1.65-3.43-4.79-6.22-8.51-6.99-.73-.15,1.32-2.55,1.52-2.7,1-.74,3.19-.94,4.39-1,3.17-.16,5.83,1.04,8.29,2.9,1.34-1.83,4.35-2.6,6.52-3.01,2.91-.54,6.05,.12,8.54,1.7,3.72,2.36,6.07,6.51,6.94,10.82-.48-2.38-.28-4.57-1.25-6.91Z"/><path class="c" d="M125.59,54.97c-4.7-4.02-11.75-5.06-17.4-2.55-1.03,.45-2.22,2.08-3.19,1.91-.76-.13-2.72-2.71-3.53-3.27-2.56-1.73-5.63-2.74-8.72-2.77-3.13-.03-6.82,1.5-7.24,4.6,.11-.81-4.58,.25-4.99,.4-1.83,.67-3.48,1.84-4.69,3.37-1.82,2.31-2.6,5.41-2.09,8.31,.03,.18,.07,.38-.02,.54-.06,.11-.17,.18-.27,.25-3.65,2.48-6.43,5.67-6.12,10.33,.15,2.34,1,4.6,2.12,6.66,.43,.79,.9,1.55,1.48,2.23,2.04,2.4,5.19,3.53,8.24,4.33-.8-.21-1.91-1.7-2.47-2.3-.86-.93-1.65-1.92-2.36-2.97-1.18-1.76-1.26-3.36-1.39-5.45-.25-4.12,1.44-8.13,5.27-10.02,.91-.45,1.94-.8,3.12-1.02,1.67-.33,3.49-.11,4.9,.85,.02-1.28-.6-2.56-1.62-3.34-.65-.5-1.44-.79-2.25-.93-.77-.13-1.55-.13-2.32,.01-.35-2.25,.76-4.66,2.71-5.85,2.08-1.27,4.17-.77,6.27-.03,.26-2.03,1.19-3.86,3.17-4.73,3.77-1.66,9.65,.69,8.93,5.45-.97,.48-1.85,1.06-2.55,1.72-1.71,1.59-2.81,3.96-2.41,6.26,.55-.68,1.18-1.3,1.87-1.84,3.36-2.63,9.65-4.05,13.5-1.79,.69,.4,1.34,.95,1.61,1.69,.24,.66,.18,1.44,.61,2,.55-.09,.86-.68,1.01-1.22,.51-1.86,.1-3.94-1.07-5.47-1.2-1.56-2.95-2.38-4.88-2.67,.39-.72,.85-1.42,.96-1.53,1.28-1.27,2.69-1.33,4.38-1.26,2.74,.13,5.24,.81,7.69,2.06,4.02,2.06,6.36,5.84,8.01,9.85,.64,1.56,.89,3.17,.89,4.78,.03,.07,.05,.13,.08,.2,1.6-5.97-.51-12.78-5.2-16.81Z"/><path class="c" d="M63.96,86.01c-.5,.25-4.07-1.04-4.93-1.08-1.82-.08-3.61,.17-5.33,.75-3.02,1.03-6.26,2.83-8.29,5.35-1.99,2.47-3.06,5.69-2.83,8.85,.09,1.24,.37,2.47,.78,3.65,1.01,2.93,2.96,5.92,5.2,8.06,.99,.94,1.66,1.57,3.07,2,.73,.22,3.46-.11,3.81,.15-2.57-1.94-5.24-4.01-6.56-6.94-1.89-4.2-.47-9.34,2.51-12.86,2.98-3.51,7.26-5.65,11.58-7.25,2.16-.8-1.05,.35,1-.68Z"/></g></svg>