<?xml version="1.0" encoding="utf-8"?>
<!-- Generator: Adobe Illustrator 19.1.0, SVG Export Plug-In . SVG Version: 6.00 Build 0)  -->
<svg version="1.1" id="レイヤー_1" xmlns="http://www.w3.org/2000/svg" xmlns:xlink="http://www.w3.org/1999/xlink" x="0px"
	 y="0px" viewBox="0 0 215.1 64.8" style="enable-background:new 0 0 215.1 64.8;" xml:space="preserve">
<style type="text/css">
	.st0{fill:#FFFFFF;}
</style>
<path class="st0" d="M69.7,9.8c0,16.6-27.6,24.5-46.9,38.1L18,51.3h17.7c11.3,0,15.5-0.3,18-5.8l0.4-0.9h0.7l-9,19.3H0l0.4-0.7
	l22.3-15.9c17.8-13,33.1-29.7,33.1-39.5c0-4-2.4-7-8-7c-12,0-20.6,6.1-20.6,12.9c0,4.6,3.1,7.7,9,7.7c4.7,0,9-2.9,10.7-6.7l0.6,0.4
	c-1.8,3.9-6.4,7-11.3,7c-6.3,0-9.7-3.5-9.7-8.5C26.5,7.1,34.6,0,48.7,0C60.3,0,69.7,3.4,69.7,9.8z"/>
<path class="st0" d="M124,14.1c0,19.2-20.6,50.7-46.2,50.7c-10.8,0-15.9-5.3-15.9-14c0-19,20.8-50.8,46.2-50.8
	C118.9,0,124,5.3,124,14.1z M73.5,58.9c0,3.5,1.5,5.2,4.7,5.2c13.7,0,34.2-47.1,34.2-58.2c0-3.4-1.4-5.1-4.7-5.1
	C94,0.7,73.5,47.7,73.5,58.9z"/>
<path class="st0" d="M134.8,60.5c-0.5,0.9-0.6,1.4-0.6,1.9c0,0.6,0.6,0.8,2.1,0.8h5.4l-0.4,0.7h-31.5l0.4-0.7h5.4
	c2.3,0,2.9-0.4,4-2.7l23.4-50.1c0.5-0.9,0.6-1.6,0.6-2c0-0.7-0.5-0.9-2.1-0.7c-1.9,0.2-3.8,0.3-5.6,0.3l0.4-0.7
	c11.4,0,22.8-4,26-7.2h0.7L134.8,60.5z"/>
<path class="st0" d="M215.1,8.4h-0.7c0-4.5-5.4-7.6-12.1-7.6c-9.4,0-19.8,13.5-27.4,27.8c3.2-1.8,7.7-3.8,12.9-3.8
	c9.4,0,16.6,3.1,16.6,10.5c0,12.6-16.3,29.5-36.9,29.5c-10.3,0-14.8-5.8-14.8-14c0-18.6,21.9-50.8,49.5-50.8
	C209.6,0,215.1,3.7,215.1,8.4z M174.3,29.5c-6.4,12.2-10.7,24.9-10.7,30.3c0,3,1.3,4.2,4.1,4.2c10.3,0,23.2-26.1,23.2-34.7
	c0-2.3-1-3.8-3.6-3.8C182.2,25.6,177.6,27.6,174.3,29.5z"/>
</svg>
