<?xml version="1.0" encoding="utf-8"?>
<!-- Generator: Adobe Illustrator 19.1.0, SVG Export Plug-In . SVG Version: 6.00 Build 0)  -->
<svg version="1.1" id="レイヤー_1" xmlns="http://www.w3.org/2000/svg" xmlns:xlink="http://www.w3.org/1999/xlink" x="0px"
	 y="0px" viewBox="0 0 524.9 89.1" style="enable-background:new 0 0 524.9 89.1;" xml:space="preserve">
<style type="text/css">
	.st0{fill:#FFFFFF;}
	.st1{fill:#040000;}
</style>
<path class="st0" d="M94.1,77.7c0.5,0,1.2,0,1.9-0.1l-0.4,0.7c-4.3,0.6-8.1,0.9-11.2,0.9c-10.4,0-18.9-2.8-18.9-16.9
	c0-7.2,2.9-14.4,2.9-19.3c0-4.2-3.1-5-8.1-5h-5L43.7,63.2c-0.5,0.9-0.6,1.4-0.6,1.9c0,0.6,0.6,0.8,2.1,0.8H47l-0.4,0.7H22.3l0.4-0.7
	h1.8c2.3,0,2.9-0.4,4-2.7L54.6,7c0.4-0.9,0.6-1.4,0.6-1.9c0-0.6-0.6-0.8-2.1-0.8H28.9C14.4,4.3,0.7,9.5,0.7,23
	c0,10.5,7.8,15.7,15.9,15.7c8.5,0,16.9-5.4,16.9-14.8h0.7c0,9.9-8.8,15.5-17.6,15.5C8.2,39.4,0,34,0,23C0,8.9,14.2,3.6,28.9,3.6
	h53.3c13.1,0,17.4,4.5,17.4,10.1c0,10.5-11.1,21.9-30.1,23.9c9.8,1,13.9,4.2,13.9,10.3c0,3.7-2.1,11.2-2.1,17.3
	C81.4,77.3,87.9,77.7,94.1,77.7z M62.9,37.3c12.1,0,22.2-18.1,22.2-27.2c0-3.8-2.2-5.8-6.8-5.8h-7.1L55.8,37.3H62.9z"/>
<path class="st0" d="M125.8,27.9c0,2.4-1.5,6.3-3,9.4l-11.8,25.6c-0.5,1-0.7,1.7-0.7,2.3c0,1,0.6,1.5,1.7,1.5
	c8.1,0,17.5-14.8,22.9-26.6l8.4-18.1l15.3-0.4V22l-16.2,34.8c-0.7,1.5-1.2,3.1-1.2,4.4c0,1.3,0.7,2.2,2.1,2.2c1.9,0,4.6-1.5,8.1-6.5
	v0.9c-4.8,7.4-11.7,9.6-16,9.6c-5.3,0-8.5-2.7-8.5-7.2c0-2.4,1.2-5.5,2.2-7.8l0.5-1.3c-6,9.6-11.8,16.3-18.5,16.3
	c-8.5,0-12-3.8-12-9c0-2.5,0.9-5.4,2.2-8.3l8.8-18.8c0.7-1.5,1.3-3.1,1.3-4.4c0-1.3-0.7-2.2-2.1-2.2c-1.9,0-4.7,1.5-8.2,6.5v-1
	c4.8-7.3,11.7-9.5,16-9.5C122.7,20.7,125.8,23.4,125.8,27.9z"/>
<path class="st0" d="M198.1,0l-16.5,34.4c4.5-8.3,9.1-13.7,15.6-13.7c10.9,0,14.7,6.5,14.7,13.9c0,14.6-15.8,32.8-36.7,32.8
	c-12,0-15.6-6.6-15.6-13.8c0-3.4,1.3-6.7,3.9-12.3L181.9,0H198.1z M176.8,45.3c-4.4,8.5-4.9,13.2-4.9,16.5c0,2.2,0.6,5,4,5
	c11.1,0,24.7-32.1,24.7-40.9c0-3-1.3-4.4-3.8-4.4c-6.2,0-11.2,6.6-16.6,16.9L176.8,45.3z"/>
<path class="st0" d="M255.5,20.7c4.9,0,7.6,2.1,7.6,5.4c0,4.7-7.8,12.8-11.7,17.1l-21.7,24.3c-14.7,16.4-22.9,21.6-31.5,21.6
	c-7.7,0-11.1-4.3-11.1-9.5h0.7c0,4.8,3.1,8.7,10.4,8.7c8,0,15.9-4.7,31-21.4l-1.8-39.5c-0.1-1.9-0.8-2.7-2.2-2.7
	c-1.9,0-4.7,1.5-8.2,6.5v-1c5-7.6,11.7-9.5,16.9-9.5c6.2,0,7.4,3.8,7.6,10.1l0.7,21.6l8.5-9.5c3.2-3.6,11.6-12.1,11.6-16.8
	c0-2.7-2.1-4.7-6.8-4.7V20.7z"/>
<path class="st1" d="M289.9,65.9h1.8l-0.4,0.7H267l0.4-0.7h1.8c2.3,0,2.9-0.4,4-2.7L299.3,7c0.4-0.9,0.6-1.4,0.6-1.9
	c0-0.6-0.6-0.8-2.1-0.8h-24.3c-14.5,0-28.2,5.2-28.2,18.7c0,10.5,7.8,15.7,15.9,15.7c8.5,0,16.9-5.4,16.9-14.8h0.7
	c0,9.9-8.8,15.5-17.6,15.5c-8.5,0-16.6-5.4-16.6-16.4c0-14.1,14.2-19.4,28.9-19.4h47.1l-0.3,0.7h-1.8c-2.3,0-2.9,0.4-4,2.7
	l-26.2,56.2c-0.5,0.9-0.6,1.4-0.6,1.9C287.8,65.7,288.4,65.9,289.9,65.9z M358.1,4.3c-6.1,0-8.8-0.2-13.1,2.8l-27.4,19.2l8.9,31.8
	c4.2,15,8.5,19.5,13.8,19.5c5.1,0,7.4-1.8,9.2-5.4h0.7c-1.8,3.8-4.4,6.1-9.7,6.1c-12.8,0-25.3-5.2-29.7-20.2l-6.8-23.1l40.8-28.3
	c4.2-3,6.3-3,13.8-3L358.1,4.3z"/>
<path class="st1" d="M380.3,28.4l3.2-6.8h15.3l-16.5,35.2c-0.7,1.5-1.2,3.1-1.2,4.4c0,1.3,0.7,2.2,2.1,2.2c1.9,0,4.6-1.5,8.1-6.5
	v0.9c-4.8,7.4-11.7,9.6-16,9.6c-5.3,0-8.5-2.7-8.5-7.2c0-1.5,0.5-3.5,1.3-5.2c-3.4,6.2-8.2,12.4-14.8,12.4c-10.3,0-14.8-6-14.8-13.9
	c0-14.8,15.7-32.8,36.7-32.8C379.2,20.7,381.5,23.8,380.3,28.4z M349.8,62.4c0,2.8,1,4.4,3.8,4.4c6.9,0,12.1-7.7,19.1-21.9l4.9-10.4
	c3.6-7.4,3.1-13-2.4-13C364.3,21.4,349.8,53.5,349.8,62.4z"/>
<path class="st1" d="M425.8,26.5c0,1.8-0.6,4-2.4,7.7l-10.5,22.5c-0.7,1.5-1.2,3.1-1.2,4.4c0,1.3,0.7,2.2,2.1,2.2
	c1.9,0,4.6-1.5,8.1-6.5v0.9c-4.8,7.4-11.7,9.6-16,9.6c-5.3,0-8.5-2.7-8.5-7.2c0-2.4,1.5-6.3,3-9.4l10.4-22c0.6-1.3,1.4-2.8,1.4-4
	c0-1.1-0.6-1.5-1.4-1.5c-1.6,0-4.5,1.6-7.6,4.1v-0.9c4.9-4,10.5-6,16.1-6C423.9,20.7,425.8,23.4,425.8,26.5z M435.4,6.4
	c0,4.6-4.6,9.8-11,9.8c-4.1,0-6.4-2.2-6.4-5.8c0-4.6,4.6-9.9,11.1-9.9C433.2,0.4,435.4,2.8,435.4,6.4z"/>
<path class="st1" d="M470.2,28.4l3.2-6.8h15.3l-19.3,41.8c-6.3,13.7-18.3,25.6-38.2,25.6c-6.8,0-10.9-3.8-10.9-8.2
	c0-5.3,5.6-11.5,19.8-13.7c-7.7-1.1-11.6-6.3-11.6-13.7c0-14.8,15.7-32.8,36.7-32.8C469,20.7,471.3,23.8,470.2,28.4z M458,55.1
	c-3.2,5.8-8,12.4-14.8,12.4c-15.7,1.5-22.3,7.9-22.3,13.3c0,4,4,7.6,10.2,7.6c10.1,0,15.2-8.2,19.8-18.2L458,55.1z M439.6,62.4
	c0,2.8,1,4.4,3.8,4.4c6.9,0,12.1-7.7,19.1-21.9l4.9-10.4c3.6-7.4,3.1-13-2.4-13C454.1,21.4,439.6,53.5,439.6,62.4z"/>
<path class="st1" d="M515.2,26.5c0,1.8-0.6,4-2.4,7.7l-10.5,22.5c-0.7,1.5-1.2,3.1-1.2,4.4c0,1.3,0.7,2.2,2.1,2.2
	c1.9,0,4.6-1.5,8.1-6.5v0.9c-4.8,7.4-11.7,9.6-16,9.6c-5.3,0-8.5-2.7-8.5-7.2c0-2.4,1.5-6.3,3-9.4l10.4-22c0.6-1.3,1.4-2.8,1.4-4
	c0-1.1-0.6-1.5-1.4-1.5c-1.6,0-4.5,1.6-7.6,4.1v-0.9c4.9-4,10.5-6,16.1-6C513.4,20.7,515.2,23.4,515.2,26.5z M524.9,6.4
	c0,4.6-4.6,9.8-11,9.8c-4.1,0-6.4-2.2-6.4-5.8c0-4.6,4.6-9.9,11.1-9.9C522.6,0.4,524.9,2.8,524.9,6.4z"/>
</svg>
