<?xml version="1.0" encoding="utf-8"?>
<!-- Generator: Adobe Illustrator 15.1.0, SVG Export Plug-In . SVG Version: 6.00 Build 0)  -->
<!DOCTYPE svg PUBLIC "-//W3C//DTD SVG 1.1//EN" "http://www.w3.org/Graphics/SVG/1.1/DTD/svg11.dtd">
<svg version="1.1" id="レイヤー_1" xmlns="http://www.w3.org/2000/svg" xmlns:xlink="http://www.w3.org/1999/xlink" x="0px"
	 y="0px" width="150px" height="150px" viewBox="0 0 150 150" enable-background="new 0 0 150 150" xml:space="preserve">
<g>
	<defs>
		<circle id="SVGID_1_" cx="75" cy="75.21" r="74.789"/>
	</defs>
	<clipPath id="SVGID_2_">
		<use xlink:href="#SVGID_1_"  overflow="visible"/>
	</clipPath>
	<rect x="-54.104" y="-53.894" clip-path="url(#SVGID_2_)" fill="#EDFDBF" width="258.207" height="258.206"/>
	<radialGradient id="SVGID_3_" cx="74.999" cy="75.2095" r="54.2107" gradientUnits="userSpaceOnUse">
		<stop  offset="0" style="stop-color:#FFFFFF;stop-opacity:0.95"/>
		<stop  offset="0.4335" style="stop-color:#FFFFFF;stop-opacity:0.6512"/>
		<stop  offset="0.9375" style="stop-color:#FFFFFF;stop-opacity:0"/>
	</radialGradient>
	<circle clip-path="url(#SVGID_2_)" fill="url(#SVGID_3_)" cx="74.999" cy="75.208" r="54.211"/>
	<g opacity="0.1" clip-path="url(#SVGID_2_)">
		<radialGradient id="SVGID_4_" cx="83.4697" cy="-7.6406" r="58.8886" gradientUnits="userSpaceOnUse">
			<stop  offset="0" style="stop-color:#1A0B08;stop-opacity:0.95"/>
			<stop  offset="0.4335" style="stop-color:#1A0B08;stop-opacity:0.6512"/>
			<stop  offset="0.9375" style="stop-color:#1A0B08;stop-opacity:0"/>
		</radialGradient>
		<polygon fill="url(#SVGID_4_)" points="74.999,-90.49 74.999,75.208 91.94,-89.635 		"/>
		<radialGradient id="SVGID_5_" cx="99.6367" cy="-5.9575" r="59.9787" gradientUnits="userSpaceOnUse">
			<stop  offset="0" style="stop-color:#1A0B08;stop-opacity:0.95"/>
			<stop  offset="0.4335" style="stop-color:#1A0B08;stop-opacity:0.6512"/>
			<stop  offset="0.9375" style="stop-color:#1A0B08;stop-opacity:0"/>
		</radialGradient>
		<polygon fill="url(#SVGID_5_)" points="108.394,-87.124 74.999,75.208 124.273,-83.041 		"/>
		<radialGradient id="SVGID_6_" cx="114.4902" cy="-1.1304" r="60.7746" gradientUnits="userSpaceOnUse">
			<stop  offset="0" style="stop-color:#1A0B08;stop-opacity:0.95"/>
			<stop  offset="0.4335" style="stop-color:#1A0B08;stop-opacity:0.6512"/>
			<stop  offset="0.9375" style="stop-color:#1A0B08;stop-opacity:0"/>
		</radialGradient>
		<polygon fill="url(#SVGID_6_)" points="139.497,-77.469 74.999,75.208 153.98,-70.491 		"/>
		<radialGradient id="SVGID_7_" cx="127.6992" cy="6.5088" r="61.2244" gradientUnits="userSpaceOnUse">
			<stop  offset="0" style="stop-color:#1A0B08;stop-opacity:0.95"/>
			<stop  offset="0.4335" style="stop-color:#1A0B08;stop-opacity:0.6512"/>
			<stop  offset="0.9375" style="stop-color:#1A0B08;stop-opacity:0"/>
		</radialGradient>
		<polygon fill="url(#SVGID_7_)" points="167.643,-62.191 74.999,75.208 180.398,-52.653 		"/>
		<radialGradient id="SVGID_8_" cx="138.9297" cy="16.625" r="61.3159" gradientUnits="userSpaceOnUse">
			<stop  offset="0" style="stop-color:#1A0B08;stop-opacity:0.95"/>
			<stop  offset="0.4335" style="stop-color:#1A0B08;stop-opacity:0.6512"/>
			<stop  offset="0.9375" style="stop-color:#1A0B08;stop-opacity:0"/>
		</radialGradient>
		<polygon fill="url(#SVGID_8_)" points="192.166,-41.958 74.999,75.208 202.861,-30.192 		"/>
		<radialGradient id="SVGID_9_" cx="147.8496" cy="28.8867" r="61.0441" gradientUnits="userSpaceOnUse">
			<stop  offset="0" style="stop-color:#1A0B08;stop-opacity:0.95"/>
			<stop  offset="0.4335" style="stop-color:#1A0B08;stop-opacity:0.6512"/>
			<stop  offset="0.9375" style="stop-color:#1A0B08;stop-opacity:0"/>
		</radialGradient>
		<polygon fill="url(#SVGID_9_)" points="212.398,-17.436 74.999,75.208 220.699,-3.773 		"/>
		<radialGradient id="SVGID_10_" cx="154.125" cy="42.96" r="60.4183" gradientUnits="userSpaceOnUse">
			<stop  offset="0" style="stop-color:#1A0B08;stop-opacity:0.95"/>
			<stop  offset="0.4335" style="stop-color:#1A0B08;stop-opacity:0.6512"/>
			<stop  offset="0.9375" style="stop-color:#1A0B08;stop-opacity:0"/>
		</radialGradient>
		<polygon fill="url(#SVGID_10_)" points="227.677,10.712 74.999,75.208 233.25,25.936 		"/>
		<radialGradient id="SVGID_11_" cx="157.4209" cy="58.5117" r="59.4649" gradientUnits="userSpaceOnUse">
			<stop  offset="0" style="stop-color:#1A0B08;stop-opacity:0.95"/>
			<stop  offset="0.4335" style="stop-color:#1A0B08;stop-opacity:0.6512"/>
			<stop  offset="0.9375" style="stop-color:#1A0B08;stop-opacity:0"/>
		</radialGradient>
		<polygon fill="url(#SVGID_11_)" points="237.332,41.814 74.999,75.208 239.843,58.267 		"/>
		<radialGradient id="SVGID_12_" cx="157.8486" cy="83.6797" r="58.8889" gradientUnits="userSpaceOnUse">
			<stop  offset="0" style="stop-color:#1A0B08;stop-opacity:0.95"/>
			<stop  offset="0.4335" style="stop-color:#1A0B08;stop-opacity:0.6512"/>
			<stop  offset="0.9375" style="stop-color:#1A0B08;stop-opacity:0"/>
		</radialGradient>
		<polygon fill="url(#SVGID_12_)" points="240.698,75.208 74.999,75.208 239.843,92.15 		"/>
		<radialGradient id="SVGID_13_" cx="156.165" cy="99.8457" r="59.9787" gradientUnits="userSpaceOnUse">
			<stop  offset="0" style="stop-color:#1A0B08;stop-opacity:0.95"/>
			<stop  offset="0.4335" style="stop-color:#1A0B08;stop-opacity:0.6512"/>
			<stop  offset="0.9375" style="stop-color:#1A0B08;stop-opacity:0"/>
		</radialGradient>
		<polygon fill="url(#SVGID_13_)" points="237.331,108.604 74.999,75.208 233.25,124.482 		"/>
		<radialGradient id="SVGID_14_" cx="151.3379" cy="114.7002" r="60.7749" gradientUnits="userSpaceOnUse">
			<stop  offset="0" style="stop-color:#1A0B08;stop-opacity:0.95"/>
			<stop  offset="0.4335" style="stop-color:#1A0B08;stop-opacity:0.6512"/>
			<stop  offset="0.9375" style="stop-color:#1A0B08;stop-opacity:0"/>
		</radialGradient>
		<polygon fill="url(#SVGID_14_)" points="227.677,139.707 74.999,75.208 220.699,154.191 		"/>
		<radialGradient id="SVGID_15_" cx="143.6992" cy="127.9092" r="61.2246" gradientUnits="userSpaceOnUse">
			<stop  offset="0" style="stop-color:#1A0B08;stop-opacity:0.95"/>
			<stop  offset="0.4335" style="stop-color:#1A0B08;stop-opacity:0.6512"/>
			<stop  offset="0.9375" style="stop-color:#1A0B08;stop-opacity:0"/>
		</radialGradient>
		<polygon fill="url(#SVGID_15_)" points="212.398,167.854 74.999,75.208 202.861,180.609 		"/>
		<radialGradient id="SVGID_16_" cx="133.582" cy="139.1396" r="61.3156" gradientUnits="userSpaceOnUse">
			<stop  offset="0" style="stop-color:#1A0B08;stop-opacity:0.95"/>
			<stop  offset="0.4335" style="stop-color:#1A0B08;stop-opacity:0.6512"/>
			<stop  offset="0.9375" style="stop-color:#1A0B08;stop-opacity:0"/>
		</radialGradient>
		<polygon fill="url(#SVGID_16_)" points="192.166,192.377 74.999,75.208 180.398,203.07 		"/>
		<radialGradient id="SVGID_17_" cx="121.3203" cy="148.0596" r="61.0449" gradientUnits="userSpaceOnUse">
			<stop  offset="0" style="stop-color:#1A0B08;stop-opacity:0.95"/>
			<stop  offset="0.4335" style="stop-color:#1A0B08;stop-opacity:0.6512"/>
			<stop  offset="0.9375" style="stop-color:#1A0B08;stop-opacity:0"/>
		</radialGradient>
		<polygon fill="url(#SVGID_17_)" points="167.643,212.609 74.999,75.208 153.98,220.91 		"/>
		<radialGradient id="SVGID_18_" cx="107.248" cy="154.334" r="60.4184" gradientUnits="userSpaceOnUse">
			<stop  offset="0" style="stop-color:#1A0B08;stop-opacity:0.95"/>
			<stop  offset="0.4335" style="stop-color:#1A0B08;stop-opacity:0.6512"/>
			<stop  offset="0.9375" style="stop-color:#1A0B08;stop-opacity:0"/>
		</radialGradient>
		<polygon fill="url(#SVGID_18_)" points="139.497,227.889 74.999,75.208 124.272,233.459 		"/>
		<radialGradient id="SVGID_19_" cx="91.6953" cy="157.6309" r="59.465" gradientUnits="userSpaceOnUse">
			<stop  offset="0" style="stop-color:#1A0B08;stop-opacity:0.95"/>
			<stop  offset="0.4335" style="stop-color:#1A0B08;stop-opacity:0.6512"/>
			<stop  offset="0.9375" style="stop-color:#1A0B08;stop-opacity:0"/>
		</radialGradient>
		<polygon fill="url(#SVGID_19_)" points="108.393,237.543 74.999,75.208 91.94,240.053 		"/>
		<radialGradient id="SVGID_20_" cx="66.5283" cy="158.0586" r="58.8889" gradientUnits="userSpaceOnUse">
			<stop  offset="0" style="stop-color:#1A0B08;stop-opacity:0.95"/>
			<stop  offset="0.4335" style="stop-color:#1A0B08;stop-opacity:0.6512"/>
			<stop  offset="0.9375" style="stop-color:#1A0B08;stop-opacity:0"/>
		</radialGradient>
		<polygon fill="url(#SVGID_20_)" points="74.999,240.908 74.999,75.208 58.058,240.053 		"/>
		<radialGradient id="SVGID_21_" cx="50.3623" cy="156.376" r="59.9794" gradientUnits="userSpaceOnUse">
			<stop  offset="0" style="stop-color:#1A0B08;stop-opacity:0.95"/>
			<stop  offset="0.4335" style="stop-color:#1A0B08;stop-opacity:0.6512"/>
			<stop  offset="0.9375" style="stop-color:#1A0B08;stop-opacity:0"/>
		</radialGradient>
		<polygon fill="url(#SVGID_21_)" points="41.605,237.543 74.999,75.208 25.726,233.459 		"/>
		<radialGradient id="SVGID_22_" cx="35.5078" cy="151.5488" r="60.7755" gradientUnits="userSpaceOnUse">
			<stop  offset="0" style="stop-color:#1A0B08;stop-opacity:0.95"/>
			<stop  offset="0.4335" style="stop-color:#1A0B08;stop-opacity:0.6512"/>
			<stop  offset="0.9375" style="stop-color:#1A0B08;stop-opacity:0"/>
		</radialGradient>
		<polygon fill="url(#SVGID_22_)" points="10.502,227.889 74.999,75.208 -3.983,220.91 		"/>
		<radialGradient id="SVGID_23_" cx="22.2993" cy="143.9092" r="61.2249" gradientUnits="userSpaceOnUse">
			<stop  offset="0" style="stop-color:#1A0B08;stop-opacity:0.95"/>
			<stop  offset="0.4335" style="stop-color:#1A0B08;stop-opacity:0.6512"/>
			<stop  offset="0.9375" style="stop-color:#1A0B08;stop-opacity:0"/>
		</radialGradient>
		<polygon fill="url(#SVGID_23_)" points="-17.645,212.609 74.999,75.208 -30.4,203.07 		"/>
		<radialGradient id="SVGID_24_" cx="11.0684" cy="133.793" r="61.3156" gradientUnits="userSpaceOnUse">
			<stop  offset="0" style="stop-color:#1A0B08;stop-opacity:0.95"/>
			<stop  offset="0.4335" style="stop-color:#1A0B08;stop-opacity:0.6512"/>
			<stop  offset="0.9375" style="stop-color:#1A0B08;stop-opacity:0"/>
		</radialGradient>
		<polygon fill="url(#SVGID_24_)" points="-42.167,192.377 74.999,75.208 -52.862,180.609 		"/>
		<radialGradient id="SVGID_25_" cx="2.1489" cy="121.5312" r="61.0446" gradientUnits="userSpaceOnUse">
			<stop  offset="0" style="stop-color:#1A0B08;stop-opacity:0.95"/>
			<stop  offset="0.4335" style="stop-color:#1A0B08;stop-opacity:0.6512"/>
			<stop  offset="0.9375" style="stop-color:#1A0B08;stop-opacity:0"/>
		</radialGradient>
		<polygon fill="url(#SVGID_25_)" points="-62.401,167.854 74.999,75.208 -70.701,154.191 		"/>
		<radialGradient id="SVGID_26_" cx="-4.126" cy="107.458" r="60.4184" gradientUnits="userSpaceOnUse">
			<stop  offset="0" style="stop-color:#1A0B08;stop-opacity:0.95"/>
			<stop  offset="0.4335" style="stop-color:#1A0B08;stop-opacity:0.6512"/>
			<stop  offset="0.9375" style="stop-color:#1A0B08;stop-opacity:0"/>
		</radialGradient>
		<polygon fill="url(#SVGID_26_)" points="-77.679,139.707 74.999,75.208 -83.251,124.482 		"/>
		<radialGradient id="SVGID_27_" cx="-7.4229" cy="91.9062" r="59.465" gradientUnits="userSpaceOnUse">
			<stop  offset="0" style="stop-color:#1A0B08;stop-opacity:0.95"/>
			<stop  offset="0.4335" style="stop-color:#1A0B08;stop-opacity:0.6512"/>
			<stop  offset="0.9375" style="stop-color:#1A0B08;stop-opacity:0"/>
		</radialGradient>
		<polygon fill="url(#SVGID_27_)" points="-87.333,108.604 74.999,75.208 -89.844,92.15 		"/>
		<radialGradient id="SVGID_28_" cx="-7.8501" cy="66.7378" r="58.8886" gradientUnits="userSpaceOnUse">
			<stop  offset="0" style="stop-color:#1A0B08;stop-opacity:0.95"/>
			<stop  offset="0.4335" style="stop-color:#1A0B08;stop-opacity:0.6512"/>
			<stop  offset="0.9375" style="stop-color:#1A0B08;stop-opacity:0"/>
		</radialGradient>
		<polygon fill="url(#SVGID_28_)" points="-90.699,75.208 74.999,75.208 -89.844,58.267 		"/>
		<radialGradient id="SVGID_29_" cx="-6.167" cy="50.5723" r="59.9786" gradientUnits="userSpaceOnUse">
			<stop  offset="0" style="stop-color:#1A0B08;stop-opacity:0.95"/>
			<stop  offset="0.4335" style="stop-color:#1A0B08;stop-opacity:0.6512"/>
			<stop  offset="0.9375" style="stop-color:#1A0B08;stop-opacity:0"/>
		</radialGradient>
		<polygon fill="url(#SVGID_29_)" points="-87.333,41.814 74.999,75.208 -83.251,25.936 		"/>
		<radialGradient id="SVGID_30_" cx="-1.3398" cy="35.7178" r="60.7747" gradientUnits="userSpaceOnUse">
			<stop  offset="0" style="stop-color:#1A0B08;stop-opacity:0.95"/>
			<stop  offset="0.4335" style="stop-color:#1A0B08;stop-opacity:0.6512"/>
			<stop  offset="0.9375" style="stop-color:#1A0B08;stop-opacity:0"/>
		</radialGradient>
		<polygon fill="url(#SVGID_30_)" points="-77.678,10.712 74.999,75.208 -70.701,-3.773 		"/>
		<radialGradient id="SVGID_31_" cx="6.2988" cy="22.5083" r="61.2251" gradientUnits="userSpaceOnUse">
			<stop  offset="0" style="stop-color:#1A0B08;stop-opacity:0.95"/>
			<stop  offset="0.4335" style="stop-color:#1A0B08;stop-opacity:0.6512"/>
			<stop  offset="0.9375" style="stop-color:#1A0B08;stop-opacity:0"/>
		</radialGradient>
		<polygon fill="url(#SVGID_31_)" points="-62.401,-17.436 74.999,75.208 -52.862,-30.192 		"/>
		<radialGradient id="SVGID_32_" cx="16.416" cy="11.2783" r="61.3149" gradientUnits="userSpaceOnUse">
			<stop  offset="0" style="stop-color:#1A0B08;stop-opacity:0.95"/>
			<stop  offset="0.4335" style="stop-color:#1A0B08;stop-opacity:0.6512"/>
			<stop  offset="0.9375" style="stop-color:#1A0B08;stop-opacity:0"/>
		</radialGradient>
		<polygon fill="url(#SVGID_32_)" points="-42.167,-41.958 74.999,75.208 -30.4,-52.652 		"/>
		<radialGradient id="SVGID_33_" cx="28.6768" cy="2.3584" r="61.0446" gradientUnits="userSpaceOnUse">
			<stop  offset="0" style="stop-color:#1A0B08;stop-opacity:0.95"/>
			<stop  offset="0.4335" style="stop-color:#1A0B08;stop-opacity:0.6512"/>
			<stop  offset="0.9375" style="stop-color:#1A0B08;stop-opacity:0"/>
		</radialGradient>
		<polygon fill="url(#SVGID_33_)" points="-17.645,-62.191 74.999,75.208 -3.983,-70.491 		"/>
		<radialGradient id="SVGID_34_" cx="42.7505" cy="-3.916" r="60.4179" gradientUnits="userSpaceOnUse">
			<stop  offset="0" style="stop-color:#1A0B08;stop-opacity:0.95"/>
			<stop  offset="0.4335" style="stop-color:#1A0B08;stop-opacity:0.6512"/>
			<stop  offset="0.9375" style="stop-color:#1A0B08;stop-opacity:0"/>
		</radialGradient>
		<polygon fill="url(#SVGID_34_)" points="10.502,-77.469 74.999,75.208 25.727,-83.041 		"/>
		<radialGradient id="SVGID_35_" cx="58.3022" cy="-7.2129" r="59.4646" gradientUnits="userSpaceOnUse">
			<stop  offset="0" style="stop-color:#1A0B08;stop-opacity:0.95"/>
			<stop  offset="0.4335" style="stop-color:#1A0B08;stop-opacity:0.6512"/>
			<stop  offset="0.9375" style="stop-color:#1A0B08;stop-opacity:0"/>
		</radialGradient>
		<polygon fill="url(#SVGID_35_)" points="41.605,-87.124 74.999,75.208 58.059,-89.634 		"/>
	</g>
	<g clip-path="url(#SVGID_2_)">
		<path fill="none" d="M110.188,43.365c-0.101-0.037-0.202-0.073-0.308-0.108C109.982,43.292,110.086,43.328,110.188,43.365z"/>
		<path fill="none" d="M49.325,66.051h-0.332v2.17h0.367c0.31,0.004,0.538-0.081,0.689-0.256c0.15-0.173,0.226-0.459,0.226-0.856
			c0-0.384-0.078-0.658-0.232-0.82S49.648,66.047,49.325,66.051z"/>
		<path fill="none" d="M94.403,46.444l-10.995-5.498v12.8h-3.881l-12.936-6.469v-0.833h-9.703c-2.89,0-6.835,2.279-8.28,4.781
			L40.2,65.789c-1.324,2.292-0.99,6.237,0.702,8.274l33.934,40.881l14.876-17.92h1.718v-1.258c0.685,0.469,1.465,0.84,2.325,1.094
			c0.985,0.291,2.139,0.438,3.429,0.438c2.67,0,4.308-0.449,5.143-1.402c0.721-0.805,1.172-1.529,1.38-2.217
			c0.209-0.639,0.316-1.354,0.316-2.129c0-1.367-0.28-2.406-0.854-3.178c-0.076-0.102-0.154-0.199-0.235-0.291
			c0.115-0.141,0.214-0.289,0.296-0.445c0.143-0.258,0.255-0.49,0.342-0.709c0.095-0.238,0.168-0.471,0.215-0.684
			c0.047-0.215,0.079-0.436,0.096-0.66c0.014-0.191,0.02-0.398,0.02-0.619c0-1.418-0.431-2.619-1.252-3.523l4.665-5.622
			c0.429,0.062,0.916,0.091,1.471,0.091h0.005h0.006c1.101-0.009,2.007-0.131,2.771-0.372c0.259-0.083,0.499-0.175,0.728-0.28v0.455
			h6.57v-3.816l-0.354-0.249V66.68l0.354-0.228v-3.857h-4.368c-0.028-1.869-0.465-3.705-1.338-5.215l-5.102-10.625
			c-0.694-0.196-1.381-0.311-2.012-0.311H94.403z M113.588,72.567c0.123-0.075,0.214-0.175,0.271-0.297
			c0.056-0.122,0.083-0.298,0.083-0.526v-5.258c-0.003-0.192-0.039-0.35-0.104-0.469c-0.066-0.12-0.149-0.21-0.249-0.271v-1.857
			h3.985v1.857c-0.101,0.064-0.185,0.151-0.251,0.262c-0.065,0.11-0.101,0.273-0.104,0.49v5.284c0,0.219,0.03,0.387,0.095,0.501
			c0.065,0.114,0.15,0.21,0.26,0.286v1.852h-3.985V72.567z M72.846,63.888h3.756v1.455c0.008,0.373,0.073,0.71,0.192,1.013
			c0.121,0.303,0.253,0.58,0.396,0.833h0.025c0.176-0.29,0.32-0.588,0.431-0.899c0.112-0.311,0.172-0.63,0.175-0.958v-1.443h3.301
			v1.857c-0.063,0.048-0.126,0.098-0.187,0.147c-0.059,0.05-0.122,0.126-0.186,0.226l-2.141,4.146v1.551
			c0,0.201,0.032,0.359,0.096,0.475c0.064,0.116,0.151,0.209,0.259,0.277v1.852h-3.985v-1.852c0.117-0.075,0.204-0.176,0.265-0.3
			c0.06-0.125,0.09-0.259,0.09-0.403V70.5l-1.983-4.051c-0.084-0.208-0.17-0.362-0.256-0.46c-0.087-0.098-0.169-0.179-0.248-0.243
			V63.888z M53.833,74.419h-3.522c-0.097-0.369-0.155-0.755-0.175-1.157c-0.021-0.403-0.028-0.709-0.024-0.917
			c0-0.104,0.003-0.228,0.005-0.37c0.005-0.142,0.007-0.269,0.007-0.382c0.016-0.469-0.049-0.802-0.195-0.998
			c-0.146-0.197-0.458-0.291-0.936-0.283v1.365c-0.003,0.229,0.018,0.409,0.066,0.541c0.049,0.133,0.144,0.249,0.289,0.349v1.852
			h-3.985v-1.852c0.132-0.088,0.225-0.192,0.28-0.312c0.054-0.121,0.078-0.291,0.075-0.512v-5.096
			c0.003-0.225-0.018-0.405-0.063-0.545c-0.045-0.138-0.144-0.256-0.291-0.357v-1.857h5.085c0.718-0.041,1.413,0.112,2.089,0.457
			c0.675,0.345,1.037,1.121,1.085,2.326c0.027,0.385-0.051,0.839-0.234,1.361c-0.186,0.523-0.632,0.889-1.341,1.097v0.042
			c0.552,0.116,0.923,0.322,1.111,0.614c0.188,0.292,0.277,0.653,0.265,1.082c-0.007,0.649,0.012,1.074,0.059,1.272
			c0.049,0.198,0.166,0.34,0.35,0.429V74.419z M57.087,74.409c-0.472-0.138-0.876-0.38-1.217-0.723
			c-0.261-0.245-0.463-0.564-0.61-0.956c-0.146-0.394-0.222-0.932-0.225-1.617v-4.628c-0.005-0.201-0.041-0.358-0.106-0.473
			c-0.065-0.114-0.148-0.203-0.248-0.268v-1.857h3.984v1.857c-0.084,0.052-0.164,0.134-0.238,0.243
			c-0.074,0.11-0.112,0.28-0.116,0.508v5.061c0,0.276,0.058,0.479,0.172,0.608c0.113,0.127,0.272,0.192,0.478,0.192
			c0.229,0,0.396-0.07,0.504-0.209c0.108-0.138,0.163-0.351,0.163-0.64v-4.875c-0.008-0.309-0.055-0.523-0.139-0.643
			c-0.083-0.121-0.171-0.199-0.257-0.234v-1.87h3.804v1.857c-0.104,0.061-0.195,0.147-0.276,0.259
			c-0.08,0.111-0.121,0.275-0.126,0.492v4.665c0.008,0.504-0.05,0.969-0.172,1.394c-0.122,0.425-0.35,0.805-0.683,1.142
			c-0.292,0.304-0.669,0.534-1.13,0.685c-0.461,0.153-1.056,0.232-1.784,0.234C58.15,74.616,57.559,74.548,57.087,74.409z
			 M65.139,92.744c0.112,0,0.216-0.002,0.308-0.008c0.09-0.008,0.174-0.018,0.255-0.035c0.079-0.018,0.162-0.045,0.247-0.084
			c0.086-0.041,0.19-0.094,0.314-0.164c0.263-0.137,0.394-0.566,0.394-1.295h4.267v4.572H60.206v-3.84
			c0-1.182,0.312-2.07,0.938-2.662c0.648-0.615,1.559-1.199,2.731-1.756c0.603-0.285,1.094-0.535,1.476-0.752
			c0.38-0.217,0.657-0.398,0.828-0.545c0.352-0.285,0.511-0.627,0.477-1.025c0-0.375-0.091-0.654-0.272-0.836
			c-0.147-0.217-0.382-0.324-0.699-0.324c-0.114,0-0.225,0.018-0.333,0.051c-0.109,0.035-0.205,0.102-0.29,0.205
			c-0.086,0.102-0.154,0.246-0.205,0.428s-0.076,0.42-0.076,0.715v0.957h-4.317v-3.961c0.751-0.545,1.584-0.941,2.5-1.184
			c0.915-0.246,1.925-0.367,3.027-0.367c0.184,0,0.359,0.002,0.53,0.008c0.17,0.008,0.351,0.02,0.538,0.045
			c0.188,0.021,0.39,0.051,0.605,0.092c0.215,0.041,0.46,0.094,0.732,0.162c0.547,0.137,1.115,0.471,1.707,1.008
			c0.512,0.545,0.808,1.012,0.888,1.398c0.045,0.193,0.082,0.369,0.111,0.529c0.027,0.16,0.048,0.301,0.059,0.426
			c0.011,0.127,0.021,0.248,0.026,0.367c0.004,0.119,0.009,0.242,0.009,0.365c0,0.787-0.094,1.441-0.282,1.963
			c-0.188,0.523-0.493,0.996-0.913,1.416c-0.364,0.332-0.859,0.662-1.485,0.99l-1.773,0.889c-0.625,0.273-1.137,0.561-1.535,0.861
			c-0.398,0.303-0.599,0.611-0.599,0.93v0.461H65.139z M69.196,74.419h-5.355v-1.852c0.188-0.1,0.306-0.227,0.354-0.382
			c0.048-0.153,0.067-0.334,0.06-0.542V66.67c0-0.281-0.033-0.488-0.1-0.622c-0.065-0.134-0.17-0.235-0.314-0.304v-1.857h5.302
			c0.962-0.008,1.695,0.201,2.203,0.628c0.507,0.426,0.763,1.106,0.766,2.041c-0.012,0.717-0.172,1.26-0.478,1.629
			c-0.307,0.368-0.696,0.608-1.169,0.722v0.041c0.62,0.084,1.078,0.349,1.374,0.793c0.294,0.446,0.438,1.008,0.436,1.69
			c0.016,0.894-0.206,1.611-0.664,2.151C71.151,74.124,70.346,74.402,69.196,74.419z M83.14,91.227c0,1.615-0.404,2.814-1.211,3.598
			c-0.808,0.787-2.202,1.18-4.182,1.18c-1.955,0-3.354-0.363-4.197-1.092c-0.853-0.729-1.279-1.957-1.279-3.686V85.51
			c0-1.934,0.397-3.129,1.194-3.584c0.796-0.453,1.524-0.752,2.185-0.887c0.66-0.139,1.365-0.205,2.115-0.205
			c0.819,0,1.527,0.064,2.125,0.195c0.598,0.133,1.152,0.357,1.663,0.676c0.513,0.318,0.904,0.793,1.179,1.424
			c0.272,0.631,0.408,1.408,0.408,2.33V91.227z M90.137,95.73h-5.53v-2.576c0.182-0.102,0.319-0.258,0.41-0.461
			c0.058-0.205,0.086-0.422,0.086-0.648v-7.252c0-0.318-0.046-0.555-0.136-0.709c-0.093-0.152-0.211-0.275-0.36-0.367v-2.576h5.034
			v10.938c0,0.342,0.053,0.586,0.153,0.734c0.137,0.158,0.251,0.273,0.343,0.342V95.73z M90.589,74.419h-3.756v-1.396
			c-0.009-0.238-0.043-0.468-0.103-0.685c-0.061-0.217-0.15-0.442-0.271-0.675c-0.12-0.235-0.26-0.499-0.415-0.791
			c-0.156-0.293-0.324-0.632-0.505-1.016h-0.047v1.924c0,0.219,0.03,0.387,0.095,0.501s0.153,0.21,0.265,0.286v1.852h-3.99v-1.852
			c0.115-0.075,0.203-0.174,0.264-0.294c0.062-0.121,0.091-0.297,0.091-0.53v-5.258c-0.005-0.192-0.039-0.35-0.106-0.469
			c-0.065-0.12-0.148-0.21-0.248-0.271v-1.857h3.99v1.857c-0.1,0.064-0.185,0.151-0.253,0.262s-0.104,0.273-0.106,0.49v1.653
			c0.256-0.404,0.469-0.74,0.642-1.006c0.172-0.266,0.309-0.492,0.407-0.676c0.098-0.184,0.17-0.341,0.219-0.47
			c0.047-0.127,0.072-0.247,0.072-0.359v-1.75h3.559v1.857c-0.142,0.068-0.264,0.144-0.37,0.225
			c-0.106,0.083-0.207,0.214-0.304,0.395l-1.419,2.271c0.386,0.773,0.692,1.392,0.923,1.855c0.231,0.463,0.406,0.815,0.528,1.058
			c0.123,0.243,0.216,0.414,0.276,0.517c0.063,0.103,0.124,0.179,0.185,0.232c0.067,0.063,0.137,0.12,0.21,0.165
			c0.072,0.047,0.128,0.082,0.168,0.105V74.419z M90.816,74.419v-1.852c0.097-0.064,0.183-0.172,0.26-0.321
			c0.076-0.15,0.154-0.445,0.234-0.886l1.395-7.472h4.664l1.575,7.838c0.072,0.289,0.146,0.486,0.222,0.593
			c0.077,0.105,0.174,0.188,0.296,0.248v1.852h-4.136v-1.864c0.14-0.048,0.237-0.125,0.295-0.232
			c0.057-0.105,0.083-0.222,0.083-0.352c0-0.059-0.005-0.114-0.016-0.161c-0.01-0.049-0.023-0.097-0.044-0.146h-1.587
			c-0.012,0.048-0.022,0.102-0.032,0.159c-0.013,0.059-0.016,0.118-0.016,0.178c0,0.132,0.036,0.246,0.107,0.345
			c0.072,0.099,0.181,0.173,0.325,0.22v1.852H90.816z M102.729,91.549c0,0.648-0.087,1.229-0.256,1.74
			c-0.148,0.502-0.519,1.082-1.109,1.74c-0.568,0.65-1.963,0.975-4.181,0.975c-1.173,0-2.193-0.129-3.064-0.383
			c-0.869-0.258-1.628-0.641-2.277-1.154v-4.061h4.42v1.057c0,0.445,0.068,0.791,0.204,1.043c0.137,0.248,0.354,0.373,0.649,0.373
			c0.375,0,0.642-0.129,0.801-0.391c0.183-0.25,0.273-0.631,0.273-1.143c0-0.535-0.108-0.945-0.323-1.23
			c-0.229-0.305-0.724-0.461-1.486-0.461h-1.484v-2.9h1.315c0.854,0,1.382-0.143,1.586-0.426c0.216-0.25,0.308-0.586,0.273-1.006
			c-0.033-0.514-0.138-0.869-0.308-1.068c-0.17-0.197-0.386-0.285-0.647-0.264c-0.354,0-0.586,0.16-0.701,0.477
			c-0.103,0.33-0.152,0.68-0.152,1.043v0.477h-4.353v-3.549c0.616-0.477,1.381-0.865,2.295-1.16
			c0.917-0.297,1.979-0.443,3.184-0.443c1.638,0,2.919,0.35,3.84,1.049s1.381,1.727,1.381,3.08c0,0.193-0.005,0.371-0.016,0.527
			c-0.013,0.16-0.034,0.316-0.069,0.471c-0.033,0.154-0.085,0.316-0.153,0.486s-0.159,0.359-0.272,0.564
			c-0.216,0.408-0.677,0.762-1.384,1.057c0.549,0.182,1.019,0.541,1.417,1.074C102.53,89.678,102.729,90.48,102.729,91.549z
			 M104.03,65.745c-0.102,0.064-0.184,0.151-0.249,0.262c-0.067,0.11-0.103,0.273-0.105,0.49v5.284c0,0.219,0.031,0.387,0.096,0.501
			c0.063,0.114,0.15,0.21,0.259,0.286v1.852h-3.985v-1.852c0.125-0.075,0.213-0.175,0.271-0.297
			c0.056-0.122,0.084-0.298,0.084-0.526v-5.258c-0.005-0.192-0.04-0.35-0.105-0.469c-0.066-0.12-0.149-0.21-0.249-0.271v-1.857
			h3.985V65.745z M108.623,63.677c0.823,0,1.575,0.104,2.251,0.312c0.674,0.208,1.274,0.506,1.8,0.896v2.657h-3.149v-0.717
			c-0.005-0.308-0.062-0.533-0.178-0.676c-0.114-0.142-0.27-0.211-0.466-0.208c-0.213,0-0.376,0.076-0.493,0.227
			c-0.117,0.15-0.174,0.383-0.174,0.7v4.688c0,0.257,0.054,0.455,0.162,0.595s0.276,0.212,0.505,0.217
			c0.232-0.004,0.398-0.089,0.498-0.253c0.101-0.164,0.149-0.393,0.146-0.685v-0.92h-0.571v-2.043h3.721v5.019
			c-0.364,0.345-0.864,0.617-1.497,0.818c-0.633,0.199-1.431,0.303-2.392,0.311c-0.771,0-1.388-0.062-1.854-0.19
			c-0.467-0.129-0.854-0.351-1.164-0.668c-0.279-0.277-0.487-0.607-0.621-0.992c-0.136-0.385-0.202-0.86-0.202-1.43v-4.592
			c0.048-1.255,0.451-2.087,1.207-2.499C106.909,63.834,107.732,63.646,108.623,63.677z"/>
		<path fill="none" d="M68.496,67.849c0.237-0.104,0.36-0.378,0.364-0.824c-0.004-0.424-0.122-0.695-0.353-0.812
			c-0.229-0.116-0.556-0.166-0.976-0.149v1.912C67.937,67.996,68.258,67.953,68.496,67.849z"/>
		<polygon fill="none" points="94.82,66.485 94.785,66.485 94.267,69.622 95.362,69.622 		"/>
		<path fill="none" d="M68.574,70.129c-0.227-0.138-0.574-0.197-1.042-0.182v2.301c0.476,0.017,0.826-0.049,1.052-0.196
			c0.223-0.146,0.334-0.471,0.33-0.977C68.914,70.584,68.8,70.269,68.574,70.129z"/>
		<path fill="none" d="M77.678,83.99c-0.339,0-0.569,0.119-0.688,0.35c-0.12,0.234-0.18,0.516-0.18,0.846v6.363
			c0,0.512,0.076,0.861,0.229,1.051c0.153,0.188,0.373,0.279,0.658,0.279c0.307,0,0.534-0.09,0.682-0.271
			c0.148-0.217,0.223-0.562,0.223-1.039v-6.4c0-0.363-0.072-0.652-0.215-0.861C78.246,84.096,78.009,83.99,77.678,83.99z"/>
		<path fill="#BF4E79" d="M78.065,124.447L78.065,124.447c2.215,1.48,4.955,1.406,7.118-0.225c-1.133,0.855-2.423,1.283-3.716,1.283
			C80.294,125.506,79.121,125.152,78.065,124.447z"/>
		<path fill="#BF4E79" d="M114.497,62.595h4.368v3.857l-0.354,0.228v4.967l0.354,0.249v3.816h-6.57v-0.455
			c-0.229,0.105-0.469,0.197-0.728,0.28c-0.765,0.241-1.671,0.363-2.771,0.372h-0.006h-0.005c-0.555,0-1.042-0.029-1.471-0.091
			l-4.665,5.622c0.821,0.904,1.252,2.105,1.252,3.523c0,0.221-0.006,0.428-0.02,0.619c-0.017,0.225-0.049,0.445-0.096,0.66
			c-0.047,0.213-0.12,0.445-0.215,0.684c-0.087,0.219-0.199,0.451-0.342,0.709c-0.082,0.156-0.181,0.305-0.296,0.445
			c0.081,0.092,0.159,0.189,0.235,0.291c0.573,0.771,0.854,1.811,0.854,3.178c0,0.775-0.107,1.49-0.316,2.129
			c-0.208,0.688-0.659,1.412-1.38,2.217c-0.835,0.953-2.473,1.402-5.143,1.402c-1.29,0-2.443-0.146-3.429-0.438
			c-0.86-0.254-1.641-0.625-2.325-1.094v1.258h-1.718l-14.876,17.92l4.66,5.613c0.573,0.688,1.274,1.07,1.972,1.07
			s1.398-0.383,1.972-1.072l38.594-46.492c1.692-2.037,2.025-5.981,0.701-8.274l-8.407-14.563c-1.129-1.954-3.783-3.767-6.27-4.47
			l5.102,10.625C114.032,58.89,114.469,60.726,114.497,62.595z"/>
		<path fill="#FFA4C7" d="M94.403,42.564h11.643c1.232,0,2.543,0.25,3.835,0.693c0.105,0.035,0.207,0.071,0.308,0.108
			c0.041,0.015,0.082,0.032,0.123,0.047c-0.246-0.139-12.957-7.317-17.202-7.317h-9.701v0.97L94.403,42.564z"/>
		<polygon fill="#BF4E79" points="68.532,46.444 66.592,46.444 66.592,47.277 79.527,53.746 79.527,42.564 79.527,31.379 
			66.592,24.913 66.592,36.096 66.592,41.593 68.532,42.564 		"/>
		<polygon fill="#BF4E79" points="94.403,42.564 83.408,37.065 83.408,40.946 94.403,46.444 		"/>
		<polygon fill="#FFC3D9" points="83.408,31.379 70.472,24.913 66.592,24.913 79.527,31.379 		"/>
		<path fill="#FFA4C7" d="M76.51,123.033L37.916,76.541c-2.738-3.297-3.219-8.981-1.076-12.693l8.407-14.563
			c2.143-3.712,7.355-6.721,11.642-6.721h9.703v-0.971l-10.996-5.498H43.954c-4.287,0-9.499,3.008-11.642,6.722L23.903,57.38
			c-2.143,3.713-1.662,9.396,1.078,12.694c0,0,35.872,43.213,38.593,46.492c2.722,3.277,5.251,4.15,14.492,7.881
			c-0.154-0.105-0.307-0.213-0.456-0.332C77.221,123.809,76.852,123.447,76.51,123.033z"/>
		<path fill="#FFA4C7" d="M77.609,124.115c0.149,0.119,0.302,0.227,0.456,0.332l0,0C77.911,124.342,77.759,124.234,77.609,124.115z"
			/>
		<polygon fill="#FFA4C7" points="68.532,42.564 66.592,41.593 66.592,42.564 		"/>
		<path fill="#EA6597" d="M85.184,124.223c0.44-0.332,0.858-0.727,1.242-1.189C86.042,123.496,85.624,123.891,85.184,124.223z"/>
		<path fill="#EA6597" d="M110.317,43.416c0,0-0.003-0.002-0.006-0.003c-0.041-0.016-0.082-0.032-0.123-0.047
			C110.232,43.382,110.275,43.398,110.317,43.416z"/>
		<path fill="#EA6597" d="M109.881,43.257c-1.292-0.443-2.603-0.693-3.835-0.693C106.046,42.564,108.222,42.709,109.881,43.257z"/>
		<path fill="#FF68A1" d="M126.096,63.848l-8.407-14.563c-1.459-2.525-4.336-4.723-7.377-5.873c0.003,0.001,0.006,0.003,0.006,0.003
			c-0.042-0.017-0.085-0.033-0.129-0.05c-0.103-0.037-0.206-0.073-0.308-0.108c-1.659-0.547-3.835-0.693-3.835-0.693H94.403v3.88
			h11.643c0.631,0,1.317,0.115,2.012,0.311c2.486,0.703,5.141,2.516,6.27,4.47l8.407,14.563c1.324,2.292,0.991,6.237-0.701,8.274
			l-38.594,46.492c-0.573,0.689-1.274,1.072-1.972,1.072s-1.398-0.383-1.972-1.07l-4.66-5.613L40.902,74.062
			c-1.692-2.037-2.026-5.981-0.702-8.274l8.409-14.563c1.445-2.501,5.391-4.781,8.28-4.781h9.703h1.94v-3.88h-1.94h-9.703
			c-4.287,0-9.499,3.009-11.642,6.721l-8.407,14.563c-2.143,3.712-1.662,9.396,1.076,12.693l34.457,41.102l5.706,6.811
			c-0.004-0.004-0.007-0.004-0.013-0.006c1.056,0.705,2.229,1.059,3.402,1.059c1.293,0,2.583-0.428,3.716-1.283
			c0.44-0.332,0.858-0.727,1.242-1.189l38.593-46.492C127.757,73.244,128.239,67.56,126.096,63.848z"/>
		<path fill="#EA6597" d="M76.51,123.033c0.342,0.414,0.711,0.775,1.1,1.082C77.221,123.809,76.852,123.447,76.51,123.033z"/>
		<path fill="#EA6597" d="M76.51,123.033l-4.33-5.229c0,0,0.075-0.064,0.192-0.162L37.916,76.541L76.51,123.033z"/>
		<path fill="#EA6597" d="M76.51,123.033c0.342,0.414,0.711,0.775,1.1,1.082c0.149,0.119,0.302,0.227,0.456,0.332
			c0.006,0.002,0.009,0.002,0.013,0.006l-5.706-6.811c-0.117,0.098-0.192,0.162-0.192,0.162L76.51,123.033z"/>
		<polygon fill="#FF68A1" points="83.408,31.379 79.527,31.379 79.527,42.564 79.527,53.746 83.408,53.746 		"/>
		<path fill="#FF68A1" d="M65.207,91.354c0.398-0.301,0.91-0.588,1.535-0.861l1.773-0.889c0.626-0.328,1.121-0.658,1.485-0.99
			c0.42-0.42,0.725-0.893,0.913-1.416c0.188-0.521,0.282-1.176,0.282-1.963c0-0.123-0.005-0.246-0.009-0.365
			c-0.006-0.119-0.016-0.24-0.026-0.367c-0.011-0.125-0.031-0.266-0.059-0.426c-0.029-0.16-0.066-0.336-0.111-0.529
			c-0.08-0.387-0.376-0.854-0.888-1.398c-0.592-0.537-1.16-0.871-1.707-1.008c-0.272-0.068-0.518-0.121-0.732-0.162
			c-0.216-0.041-0.418-0.07-0.605-0.092c-0.188-0.025-0.368-0.037-0.538-0.045c-0.171-0.006-0.347-0.008-0.53-0.008
			c-1.103,0-2.112,0.121-3.027,0.367c-0.916,0.242-1.749,0.639-2.5,1.184v3.961h4.317v-0.957c0-0.295,0.025-0.533,0.076-0.715
			s0.119-0.326,0.205-0.428c0.085-0.104,0.181-0.17,0.29-0.205c0.108-0.033,0.219-0.051,0.333-0.051
			c0.317,0,0.552,0.107,0.699,0.324c0.182,0.182,0.272,0.461,0.272,0.836c0.034,0.398-0.125,0.74-0.477,1.025
			c-0.171,0.146-0.448,0.328-0.828,0.545c-0.382,0.217-0.873,0.467-1.476,0.752c-1.173,0.557-2.083,1.141-2.731,1.756
			c-0.626,0.592-0.938,1.48-0.938,2.662v3.84h10.717v-4.572h-4.267c0,0.729-0.131,1.158-0.394,1.295
			c-0.124,0.07-0.229,0.123-0.314,0.164c-0.085,0.039-0.168,0.066-0.247,0.084c-0.081,0.018-0.165,0.027-0.255,0.035
			c-0.092,0.006-0.195,0.008-0.308,0.008h-0.53v-0.461C64.608,91.965,64.809,91.656,65.207,91.354z"/>
		<path fill="#FF68A1" d="M81.553,81.705c-0.511-0.318-1.065-0.543-1.663-0.676c-0.598-0.131-1.306-0.195-2.125-0.195
			c-0.75,0-1.455,0.066-2.115,0.205c-0.66,0.135-1.389,0.434-2.185,0.887c-0.797,0.455-1.194,1.65-1.194,3.584v5.717
			c0,1.729,0.427,2.957,1.279,3.686c0.843,0.729,2.242,1.092,4.197,1.092c1.979,0,3.374-0.393,4.182-1.18
			c0.807-0.783,1.211-1.982,1.211-3.598v-5.768c0-0.922-0.136-1.699-0.408-2.33C82.457,82.498,82.065,82.023,81.553,81.705z
			 M78.602,91.568c0,0.477-0.074,0.822-0.223,1.039c-0.147,0.182-0.375,0.271-0.682,0.271c-0.285,0-0.505-0.092-0.658-0.279
			c-0.153-0.189-0.229-0.539-0.229-1.051v-6.363c0-0.33,0.06-0.611,0.18-0.846c0.119-0.23,0.35-0.35,0.688-0.35
			c0.331,0,0.568,0.105,0.709,0.316c0.143,0.209,0.215,0.498,0.215,0.861V91.568z"/>
		<path fill="#FF68A1" d="M89.794,92.812c-0.101-0.148-0.153-0.393-0.153-0.734V81.141h-5.034v2.576
			c0.149,0.092,0.268,0.215,0.36,0.367c0.09,0.154,0.136,0.391,0.136,0.709v7.252c0,0.227-0.028,0.443-0.086,0.648
			c-0.091,0.203-0.229,0.359-0.41,0.461v2.576h5.53v-2.576C90.045,93.086,89.931,92.971,89.794,92.812z"/>
		<path fill="#FF68A1" d="M100.714,88.068c0.707-0.295,1.168-0.648,1.384-1.057c0.113-0.205,0.204-0.395,0.272-0.564
			s0.12-0.332,0.153-0.486c0.035-0.154,0.057-0.311,0.069-0.471c0.011-0.156,0.016-0.334,0.016-0.527c0-1.354-0.46-2.381-1.381-3.08
			s-2.202-1.049-3.84-1.049c-1.205,0-2.267,0.146-3.184,0.443c-0.914,0.295-1.679,0.684-2.295,1.16v3.549h4.353V85.51
			c0-0.363,0.05-0.713,0.152-1.043c0.115-0.316,0.348-0.477,0.701-0.477c0.262-0.021,0.478,0.066,0.647,0.264
			c0.17,0.199,0.274,0.555,0.308,1.068c0.034,0.42-0.058,0.756-0.273,1.006c-0.204,0.283-0.732,0.426-1.586,0.426h-1.315v2.9h1.484
			c0.763,0,1.257,0.156,1.486,0.461c0.215,0.285,0.323,0.695,0.323,1.23c0,0.512-0.091,0.893-0.273,1.143
			c-0.159,0.262-0.426,0.391-0.801,0.391c-0.295,0-0.513-0.125-0.649-0.373c-0.136-0.252-0.204-0.598-0.204-1.043v-1.057h-4.42
			v4.061c0.649,0.514,1.408,0.896,2.277,1.154c0.871,0.254,1.892,0.383,3.064,0.383c2.218,0,3.612-0.324,4.181-0.975
			c0.591-0.658,0.961-1.238,1.109-1.74c0.169-0.512,0.256-1.092,0.256-1.74c0-1.068-0.199-1.871-0.599-2.406
			C101.732,88.609,101.263,88.25,100.714,88.068z"/>
		<path fill="#BD6AB4" d="M53.482,72.138c-0.047-0.198-0.066-0.623-0.059-1.272c0.012-0.429-0.076-0.79-0.265-1.082
			c-0.188-0.292-0.559-0.498-1.111-0.614v-0.042c0.709-0.208,1.155-0.574,1.341-1.097c0.183-0.522,0.261-0.976,0.234-1.361
			c-0.048-1.206-0.41-1.981-1.085-2.326c-0.676-0.345-1.372-0.497-2.089-0.457h-5.085v1.857c0.147,0.101,0.246,0.219,0.291,0.357
			c0.046,0.14,0.066,0.32,0.063,0.545v5.096c0.003,0.221-0.021,0.392-0.075,0.512c-0.055,0.119-0.147,0.223-0.28,0.312v1.852h3.985
			v-1.852c-0.145-0.1-0.239-0.215-0.289-0.349c-0.048-0.131-0.069-0.312-0.066-0.541v-1.365c0.477-0.008,0.789,0.086,0.936,0.283
			c0.146,0.196,0.211,0.528,0.195,0.998c0,0.113-0.001,0.24-0.007,0.382c-0.002,0.142-0.005,0.266-0.005,0.37
			c-0.004,0.208,0.003,0.514,0.024,0.917c0.02,0.402,0.079,0.789,0.175,1.157h3.522v-1.852
			C53.648,72.479,53.532,72.336,53.482,72.138z M50.049,67.965c-0.151,0.175-0.379,0.261-0.689,0.256h-0.367v-2.17h0.332
			c0.324-0.004,0.563,0.076,0.718,0.238s0.232,0.436,0.232,0.82C50.274,67.505,50.199,67.792,50.049,67.965z"/>
		<path fill="#BD6AB4" d="M61.778,73.697c0.333-0.337,0.561-0.716,0.683-1.142c0.122-0.425,0.18-0.89,0.172-1.394v-4.665
			c0.005-0.217,0.046-0.381,0.126-0.492c0.081-0.112,0.172-0.199,0.276-0.259v-1.857h-3.804v1.87
			c0.086,0.036,0.174,0.114,0.257,0.234c0.084,0.12,0.131,0.334,0.139,0.643v4.875c0,0.289-0.055,0.502-0.163,0.64
			c-0.108,0.139-0.275,0.209-0.504,0.209c-0.205,0-0.364-0.065-0.478-0.192c-0.114-0.129-0.172-0.333-0.172-0.608v-5.061
			c0.004-0.228,0.042-0.398,0.116-0.508c0.074-0.109,0.154-0.191,0.238-0.243v-1.857h-3.984v1.857
			c0.1,0.064,0.183,0.153,0.248,0.268c0.065,0.115,0.102,0.272,0.106,0.473v4.628c0.003,0.685,0.079,1.223,0.225,1.617
			c0.147,0.392,0.35,0.711,0.61,0.956c0.341,0.343,0.745,0.585,1.217,0.723c0.472,0.139,1.063,0.207,1.777,0.207
			c0.729-0.002,1.323-0.081,1.784-0.234C61.109,74.231,61.486,74.001,61.778,73.697z"/>
		<path fill="#BD6AB4" d="M71.839,69.742c-0.296-0.444-0.754-0.709-1.374-0.793v-0.041c0.473-0.114,0.862-0.354,1.169-0.722
			c0.306-0.37,0.466-0.912,0.478-1.629c-0.003-0.934-0.259-1.614-0.766-2.041c-0.508-0.427-1.241-0.637-2.203-0.628h-5.302v1.857
			c0.145,0.068,0.249,0.169,0.314,0.304c0.066,0.134,0.1,0.341,0.1,0.622v4.972c0.008,0.208-0.012,0.39-0.06,0.542
			c-0.049,0.155-0.167,0.282-0.354,0.382v1.852h5.355c1.149-0.017,1.955-0.295,2.414-0.836c0.458-0.54,0.68-1.258,0.664-2.151
			C72.277,70.75,72.133,70.188,71.839,69.742z M67.532,66.064c0.42-0.017,0.746,0.034,0.976,0.149
			c0.23,0.116,0.349,0.387,0.353,0.812c-0.004,0.446-0.127,0.72-0.364,0.824c-0.238,0.104-0.56,0.146-0.964,0.127V66.064z
			 M68.584,72.053c-0.226,0.146-0.576,0.212-1.052,0.196v-2.301c0.468-0.016,0.815,0.043,1.042,0.182
			c0.226,0.14,0.34,0.455,0.34,0.947C68.918,71.582,68.807,71.907,68.584,72.053z"/>
		<path fill="#BD6AB4" d="M73.094,65.988c0.086,0.099,0.172,0.252,0.256,0.46l1.983,4.051v1.364c0,0.144-0.03,0.279-0.09,0.403
			c-0.061,0.124-0.147,0.225-0.265,0.3v1.852h3.985v-1.852c-0.107-0.068-0.194-0.161-0.259-0.277
			c-0.063-0.116-0.096-0.273-0.096-0.475v-1.551l2.141-4.146c0.063-0.1,0.127-0.175,0.186-0.226c0.061-0.05,0.123-0.099,0.187-0.147
			v-1.857h-3.301v1.443c-0.003,0.329-0.062,0.647-0.175,0.958c-0.11,0.311-0.255,0.61-0.431,0.899H77.19
			c-0.144-0.254-0.275-0.531-0.396-0.833c-0.119-0.302-0.185-0.64-0.192-1.013v-1.455h-3.756v1.857
			C72.925,65.809,73.007,65.89,73.094,65.988z"/>
		<path fill="#BD6AB4" d="M90.211,72.297c-0.061-0.053-0.121-0.129-0.185-0.232c-0.061-0.103-0.153-0.273-0.276-0.517
			c-0.122-0.243-0.297-0.595-0.528-1.058c-0.23-0.463-0.537-1.082-0.923-1.855l1.419-2.271c0.097-0.181,0.197-0.312,0.304-0.395
			c0.106-0.081,0.229-0.157,0.37-0.225v-1.857h-3.559v1.75c0,0.112-0.025,0.232-0.072,0.359c-0.049,0.128-0.121,0.286-0.219,0.47
			c-0.099,0.184-0.235,0.41-0.407,0.676c-0.173,0.267-0.386,0.603-0.642,1.006v-1.653c0.003-0.217,0.038-0.379,0.106-0.49
			s0.153-0.197,0.253-0.262v-1.857h-3.99v1.857c0.1,0.061,0.183,0.151,0.248,0.271c0.067,0.12,0.102,0.277,0.106,0.469v5.258
			c0,0.233-0.029,0.409-0.091,0.53c-0.061,0.12-0.148,0.219-0.264,0.294v1.852h3.99v-1.852c-0.111-0.075-0.2-0.172-0.265-0.286
			s-0.095-0.282-0.095-0.501v-1.924h0.047c0.181,0.384,0.349,0.723,0.505,1.016c0.155,0.292,0.295,0.556,0.415,0.791
			c0.12,0.233,0.21,0.458,0.271,0.675c0.06,0.217,0.094,0.446,0.103,0.685v1.396h3.756v-1.852c-0.04-0.023-0.096-0.058-0.168-0.105
			C90.348,72.417,90.278,72.36,90.211,72.297z"/>
		<path fill="#BD6AB4" d="M94.442,72.567c-0.145-0.047-0.253-0.121-0.325-0.22c-0.071-0.099-0.107-0.212-0.107-0.345
			c0-0.06,0.003-0.119,0.016-0.178c0.01-0.057,0.021-0.11,0.032-0.159h1.587c0.021,0.048,0.034,0.096,0.044,0.146
			c0.011,0.047,0.016,0.102,0.016,0.161c0,0.129-0.026,0.247-0.083,0.352c-0.058,0.107-0.155,0.184-0.295,0.232v1.864h4.136v-1.852
			c-0.122-0.06-0.219-0.143-0.296-0.248c-0.076-0.107-0.149-0.304-0.222-0.593l-1.575-7.838h-4.664l-1.395,7.472
			c-0.08,0.441-0.158,0.736-0.234,0.886c-0.077,0.149-0.163,0.257-0.26,0.321v1.852h3.626V72.567z M94.785,66.485h0.035l0.542,3.137
			h-1.096L94.785,66.485z"/>
		<path fill="#BD6AB4" d="M100.045,65.745c0.1,0.061,0.183,0.151,0.249,0.271c0.065,0.12,0.101,0.277,0.105,0.469v5.258
			c0,0.229-0.028,0.405-0.084,0.526c-0.058,0.123-0.146,0.222-0.271,0.297v1.852h3.985v-1.852c-0.108-0.075-0.195-0.172-0.259-0.286
			c-0.064-0.114-0.096-0.282-0.096-0.501v-5.284c0.003-0.217,0.038-0.379,0.105-0.49c0.065-0.11,0.147-0.197,0.249-0.262v-1.857
			h-3.985V65.745z"/>
		<path fill="#BD6AB4" d="M104.943,66.743v4.592c0,0.57,0.066,1.044,0.202,1.43c0.134,0.385,0.342,0.715,0.621,0.992
			c0.31,0.317,0.697,0.539,1.164,0.668c0.467,0.128,1.084,0.19,1.854,0.19c0.961-0.008,1.759-0.111,2.392-0.311
			c0.633-0.201,1.133-0.474,1.497-0.818v-5.019h-3.721v2.043h0.571v0.92c0.004,0.292-0.045,0.521-0.146,0.685
			c-0.1,0.164-0.266,0.249-0.498,0.253c-0.229-0.004-0.396-0.077-0.505-0.217s-0.162-0.338-0.162-0.595v-4.688
			c0-0.316,0.057-0.55,0.174-0.7c0.117-0.151,0.28-0.227,0.493-0.227c0.196-0.004,0.352,0.065,0.466,0.208
			c0.115,0.143,0.173,0.368,0.178,0.676v0.717h3.149v-2.657c-0.525-0.39-1.126-0.688-1.8-0.896
			c-0.676-0.208-1.428-0.312-2.251-0.312c-0.891-0.032-1.714,0.157-2.473,0.567C105.395,64.656,104.991,65.488,104.943,66.743z"/>
		<path fill="#BD6AB4" d="M117.573,72.567c-0.109-0.075-0.194-0.172-0.26-0.286c-0.064-0.114-0.095-0.282-0.095-0.501v-5.284
			c0.003-0.217,0.038-0.379,0.104-0.49c0.066-0.11,0.15-0.197,0.251-0.262v-1.857h-3.985v1.857c0.1,0.061,0.183,0.151,0.249,0.271
			c0.065,0.12,0.102,0.277,0.104,0.469v5.258c0,0.229-0.027,0.405-0.083,0.526c-0.057,0.123-0.147,0.222-0.271,0.297v1.852h3.985
			V72.567z"/>
	</g>
	<rect x="-54.104" y="-53.894" clip-path="url(#SVGID_2_)" fill="none" width="258.207" height="258.206"/>
</g>
<g>
	<path fill="#FFFFFF" d="M75,6.439c37.92,0,68.771,30.851,68.771,68.771c0,37.921-30.851,68.771-68.771,68.771
		c-37.92,0-68.771-30.85-68.771-68.771C6.229,37.29,37.08,6.439,75,6.439 M75,0.42c-41.306,0-74.79,33.485-74.79,74.79
		C0.21,116.514,33.694,150,75,150c41.305,0,74.789-33.486,74.789-74.79C149.789,33.905,116.305,0.42,75,0.42L75,0.42z"/>
</g>
</svg>
