<?xml version="1.0" encoding="utf-8"?>
<!-- Generator: Adobe Illustrator 16.0.0, SVG Export Plug-In . SVG Version: 6.00 Build 0)  -->
<!DOCTYPE svg PUBLIC "-//W3C//DTD SVG 1.1//EN" "http://www.w3.org/Graphics/SVG/1.1/DTD/svg11.dtd">
<svg version="1.1" id="レイヤー_1" xmlns="http://www.w3.org/2000/svg" xmlns:xlink="http://www.w3.org/1999/xlink" x="0px"
	 y="0px" width="240px" height="30px" viewBox="-44.5 12.942 240 30" enable-background="new -44.5 12.942 240 30"
	 xml:space="preserve">
<g>
	<g>
		<path fill="#FFFFFF" d="M-32.367,17.363h10.233c1.443-0.08,2.845,0.226,4.203,0.919c1.358,0.694,2.087,2.254,2.184,4.682
			c0.056,0.774-0.102,1.688-0.472,2.74c-0.371,1.053-1.271,1.788-2.698,2.208v0.084c1.113,0.234,1.859,0.646,2.238,1.234
			c0.379,0.588,0.557,1.314,0.532,2.177c-0.017,1.307,0.024,2.159,0.121,2.558c0.097,0.399,0.33,0.688,0.701,0.865v3.726h-7.088
			c-0.193-0.742-0.311-1.518-0.351-2.328c-0.041-0.811-0.057-1.426-0.049-1.845c0-0.21,0.004-0.458,0.012-0.744
			c0.009-0.286,0.013-0.543,0.013-0.769c0.032-0.943-0.099-1.612-0.394-2.008c-0.294-0.395-0.921-0.584-1.881-0.568v2.746
			c-0.008,0.459,0.036,0.822,0.133,1.088c0.097,0.267,0.291,0.5,0.581,0.702v3.726h-8.02V34.83c0.266-0.177,0.453-0.388,0.562-0.629
			c0.108-0.242,0.159-0.585,0.15-1.028V22.916c0.009-0.452-0.034-0.817-0.127-1.095c-0.093-0.278-0.288-0.518-0.586-0.72V17.363z
			 M-22.485,23.847c0-0.774-0.154-1.325-0.465-1.651c-0.311-0.327-0.793-0.486-1.445-0.478h-0.666v4.367h0.738
			c0.62,0.007,1.082-0.164,1.385-0.515S-22.485,24.646-22.485,23.847z"/>
		<path fill="#FFFFFF" d="M-5.598,17.363v3.738c-0.169,0.104-0.328,0.268-0.478,0.49s-0.228,0.562-0.236,1.022v10.185
			c0,0.557,0.115,0.964,0.345,1.222c0.23,0.258,0.551,0.387,0.962,0.387c0.46,0,0.799-0.139,1.017-0.417
			c0.218-0.277,0.326-0.708,0.326-1.288v-9.81c-0.017-0.621-0.108-1.052-0.278-1.294c-0.169-0.243-0.343-0.4-0.52-0.472v-3.762
			h7.656v3.738c-0.21,0.121-0.395,0.294-0.557,0.52c-0.161,0.226-0.245,0.557-0.254,0.992V32c0.017,1.016-0.099,1.951-0.345,2.806
			s-0.703,1.621-1.373,2.299c-0.588,0.612-1.347,1.072-2.273,1.378c-0.928,0.307-2.125,0.465-3.593,0.473
			c-1.436,0-2.627-0.14-3.574-0.418c-0.948-0.278-1.765-0.764-2.449-1.457c-0.524-0.491-0.934-1.133-1.229-1.924
			c-0.294-0.79-0.445-1.875-0.453-3.253v-9.315c-0.009-0.403-0.079-0.72-0.212-0.949c-0.133-0.23-0.301-0.409-0.502-0.538v-3.738
			H-5.598z"/>
		<path fill="#FFFFFF" d="M4.817,17.363h10.669c1.936-0.016,3.413,0.405,4.434,1.264c1.02,0.859,1.534,2.228,1.542,4.107
			c-0.024,1.444-0.345,2.537-0.962,3.278c-0.616,0.743-1.401,1.226-2.353,1.452v0.084c1.25,0.169,2.172,0.701,2.765,1.596
			c0.592,0.895,0.885,2.028,0.876,3.399c0.032,1.799-0.413,3.241-1.336,4.33c-0.924,1.089-2.543,1.65-4.856,1.682H4.817V34.83
			c0.379-0.202,0.617-0.458,0.714-0.768c0.097-0.311,0.137-0.676,0.121-1.096V22.964c0-0.564-0.066-0.982-0.2-1.252
			c-0.133-0.27-0.345-0.473-0.635-0.61V17.363z M12.245,21.742v3.847c0.814,0.041,1.461-0.044,1.941-0.254
			c0.479-0.209,0.724-0.762,0.731-1.657c-0.008-0.854-0.244-1.399-0.708-1.633S13.09,21.71,12.245,21.742z M12.245,29.556v4.634
			c0.959,0.031,1.665-0.1,2.116-0.394c0.451-0.295,0.673-0.949,0.665-1.965c0-0.992-0.228-1.627-0.683-1.906
			C13.887,29.646,13.188,29.524,12.245,29.556z"/>
		<path fill="#FFFFFF" d="M30.498,17.363v2.928c0.016,0.75,0.145,1.429,0.387,2.038s0.509,1.167,0.799,1.675h0.048
			c0.355-0.581,0.646-1.184,0.871-1.808c0.226-0.625,0.343-1.268,0.351-1.93v-2.903h6.641v3.738
			c-0.128,0.096-0.254,0.195-0.374,0.296c-0.121,0.101-0.246,0.252-0.375,0.454l-4.307,8.347v3.12c0,0.404,0.064,0.722,0.193,0.956
			s0.303,0.42,0.521,0.557v3.726h-8.021V34.83c0.234-0.153,0.412-0.354,0.532-0.604c0.121-0.25,0.182-0.521,0.182-0.811v-2.747
			l-3.991-8.152c-0.17-0.419-0.341-0.728-0.515-0.925c-0.173-0.197-0.341-0.361-0.502-0.49v-3.738H30.498z"/>
		<path fill="#FFFFFF" d="M49.114,17.363v3.738c-0.202,0.129-0.371,0.304-0.508,0.526c-0.138,0.222-0.21,0.551-0.218,0.986v3.327
			c0.516-0.814,0.947-1.49,1.294-2.026c0.347-0.536,0.619-0.989,0.816-1.361c0.197-0.371,0.345-0.685,0.441-0.943
			c0.097-0.258,0.146-0.5,0.146-0.726v-3.52h7.161v3.738c-0.282,0.137-0.53,0.288-0.744,0.453c-0.214,0.166-0.417,0.43-0.611,0.792
			l-2.854,4.572c0.774,1.556,1.394,2.801,1.857,3.732c0.463,0.931,0.817,1.641,1.064,2.128c0.245,0.489,0.431,0.835,0.556,1.041
			s0.248,0.36,0.369,0.466c0.137,0.129,0.278,0.24,0.424,0.332c0.145,0.093,0.258,0.164,0.338,0.212v3.726h-7.56v-2.807
			c-0.017-0.483-0.085-0.943-0.206-1.379c-0.12-0.435-0.302-0.889-0.544-1.36s-0.521-1.002-0.835-1.591
			c-0.314-0.588-0.653-1.27-1.016-2.044h-0.097v3.871c0,0.443,0.064,0.781,0.193,1.011s0.307,0.421,0.532,0.574v3.726h-8.032V34.83
			c0.233-0.153,0.411-0.351,0.532-0.593s0.182-0.597,0.182-1.064V22.588c-0.009-0.387-0.079-0.701-0.212-0.943
			c-0.133-0.242-0.3-0.423-0.502-0.544v-3.738H49.114z"/>
		<path fill="#FFFFFF" d="M68.818,33.016h-3.194c-0.023,0.097-0.046,0.204-0.066,0.32c-0.02,0.117-0.029,0.236-0.029,0.357
			c0,0.266,0.072,0.498,0.217,0.695c0.146,0.197,0.363,0.345,0.653,0.441v3.726h-7.294V34.83c0.193-0.129,0.367-0.345,0.521-0.647
			c0.153-0.302,0.311-0.896,0.472-1.784l2.807-15.036h9.387l3.168,15.773c0.146,0.582,0.295,0.979,0.447,1.192
			c0.154,0.214,0.352,0.381,0.594,0.502v3.726h-8.322v-3.75c0.281-0.097,0.479-0.252,0.592-0.465c0.113-0.214,0.17-0.45,0.17-0.709
			c0-0.12-0.01-0.229-0.029-0.325C68.889,33.209,68.859,33.112,68.818,33.016z M67.162,22.588h-0.073l-1.04,6.315h2.202
			L67.162,22.588z"/>
		<path fill="#FFFFFF" d="M85.693,17.363v3.738c-0.203,0.129-0.369,0.304-0.502,0.526c-0.135,0.222-0.203,0.551-0.213,0.986v10.632
			c0,0.443,0.064,0.781,0.195,1.011c0.129,0.229,0.301,0.421,0.52,0.574v3.726h-8.02V34.83c0.248-0.153,0.43-0.353,0.543-0.599
			c0.113-0.245,0.17-0.6,0.17-1.059V22.588c-0.008-0.387-0.078-0.701-0.211-0.943c-0.135-0.242-0.301-0.423-0.502-0.544v-3.738
			H85.693z"/>
		<path fill="#FFFFFF" d="M94.934,16.939c1.662,0,3.172,0.21,4.531,0.629c1.357,0.419,2.566,1.02,3.623,1.802v5.347H96.75v-1.439
			c-0.01-0.621-0.129-1.075-0.357-1.361c-0.23-0.286-0.543-0.425-0.938-0.417c-0.428,0-0.758,0.151-0.992,0.454
			s-0.352,0.772-0.352,1.409v9.435c0,0.517,0.109,0.916,0.326,1.197c0.219,0.282,0.557,0.428,1.018,0.437
			c0.467-0.009,0.803-0.178,1.004-0.509s0.297-0.79,0.291-1.379v-1.851H95.6v-4.112h7.488v10.101
			c-0.734,0.692-1.738,1.241-3.012,1.645c-1.275,0.403-2.879,0.612-4.814,0.629c-1.549,0-2.793-0.129-3.732-0.388
			c-0.939-0.258-1.719-0.705-2.342-1.343c-0.562-0.556-0.98-1.221-1.25-1.995c-0.271-0.774-0.406-1.733-0.406-2.879v-9.242
			c0.098-2.524,0.908-4.199,2.432-5.026C91.486,17.256,93.145,16.875,94.934,16.939z"/>
		<path fill="#FFFFFF" d="M112.945,17.363v3.738c-0.201,0.129-0.369,0.304-0.502,0.526c-0.133,0.222-0.203,0.551-0.211,0.986v10.632
			c0,0.443,0.064,0.781,0.193,1.011s0.303,0.421,0.52,0.574v3.726h-8.02V34.83c0.25-0.153,0.432-0.353,0.545-0.599
			c0.113-0.245,0.17-0.6,0.17-1.059V22.588c-0.01-0.387-0.08-0.701-0.213-0.943c-0.133-0.242-0.301-0.423-0.502-0.544v-3.738
			H112.945z"/>
		<path fill="#FFFFFF" d="M121.982,19.189c1.064-0.774,2.266-1.342,3.604-1.706c1.34-0.363,2.814-0.544,4.428-0.544
			c1.023-0.024,2.066,0.093,3.127,0.351c1.061,0.258,2.006,0.779,2.836,1.561c0.719,0.758,1.17,1.53,1.355,2.316
			s0.266,1.506,0.242,2.159c0.008,1.112-0.125,2.054-0.4,2.824c-0.273,0.771-0.721,1.458-1.342,2.062
			c-0.572,0.525-1.289,1.01-2.146,1.458c-0.859,0.448-1.725,0.873-2.596,1.275c-0.871,0.404-1.598,0.817-2.184,1.241
			c-0.584,0.423-0.885,0.881-0.9,1.372v0.653h0.773c0.525,0.041,1.014-0.066,1.471-0.32c0.455-0.254,0.699-0.909,0.73-1.966h6.193
			v6.629h-15.555v-5.589c0.016-1.693,0.479-2.979,1.391-3.858c0.912-0.878,2.197-1.706,3.859-2.48
			c1.781-0.87,2.926-1.518,3.434-1.941c0.51-0.423,0.734-0.917,0.678-1.482c-0.008-0.524-0.135-0.938-0.381-1.24
			s-0.59-0.458-1.033-0.466c-0.355-0.024-0.662,0.101-0.92,0.375c-0.258,0.274-0.391,0.827-0.398,1.657v1.391h-6.266V19.189z"/>
		<path fill="#FFFFFF" d="M139.135,23.726c0.064-2.847,0.861-4.709,2.395-5.589c1.531-0.879,3.391-1.278,5.576-1.198
			c2.201-0.072,4.041,0.349,5.516,1.265c1.477,0.915,2.242,2.731,2.299,5.449v8.37c0.041,2.299-0.525,4.026-1.699,5.184
			s-3.221,1.74-6.139,1.748c-2.814,0.016-4.85-0.519-6.104-1.603c-1.254-1.085-1.869-2.861-1.844-5.329V23.726z M148.328,23.23
			c0.008-0.541-0.096-0.962-0.309-1.264c-0.215-0.302-0.559-0.458-1.035-0.466c-0.5,0.016-0.836,0.195-1.01,0.538
			c-0.174,0.343-0.256,0.749-0.248,1.216v9.217c0.008,0.743,0.129,1.259,0.363,1.549s0.539,0.428,0.92,0.412
			c0.436,0.008,0.764-0.134,0.984-0.424c0.223-0.29,0.334-0.786,0.334-1.488V23.23z"/>
		<path fill="#FFFFFF" d="M164.355,17.363v15.882c0.008,0.509,0.082,0.861,0.225,1.059c0.141,0.197,0.307,0.373,0.5,0.526v3.726
			h-8.031V34.83c0.291-0.202,0.484-0.428,0.58-0.677c0.098-0.25,0.141-0.568,0.133-0.956V22.686
			c-0.008-0.484-0.08-0.836-0.217-1.059c-0.137-0.222-0.303-0.397-0.496-0.526v-3.738H164.355z"/>
		<path fill="#FFFFFF" d="M175.205,21.5c-0.516,0.024-0.854,0.262-1.016,0.714s-0.234,0.956-0.219,1.512v0.677h-6.314V19.25
			c0.873-0.661,1.967-1.208,3.285-1.639c1.318-0.431,2.873-0.655,4.664-0.671c2.369,0,4.221,0.502,5.551,1.506
			c1.332,1.004,2.008,2.494,2.033,4.47c0.016,1.024-0.186,1.927-0.605,2.709c-0.42,0.782-1.137,1.387-2.152,1.814V27.5
			c0.838,0.226,1.531,0.72,2.08,1.482c0.549,0.762,0.83,1.925,0.848,3.489c0.08,1.823-0.426,3.346-1.52,4.567
			c-1.092,1.221-3.271,1.86-6.537,1.917c-1.646-0.008-3.107-0.191-4.385-0.551c-1.279-0.358-2.402-0.917-3.369-1.676v-5.89h6.422
			v1.535c0,0.662,0.098,1.17,0.291,1.524c0.193,0.355,0.508,0.533,0.943,0.533c0.533-0.009,0.926-0.209,1.18-0.6
			s0.381-0.941,0.381-1.65c0.033-0.718-0.117-1.303-0.447-1.754s-1.057-0.686-2.178-0.702h-2.152v-4.185h1.91
			c1.242-0.017,2.014-0.228,2.316-0.635s0.43-0.897,0.381-1.47c0.008-0.492-0.09-0.932-0.295-1.319
			C176.094,21.73,175.729,21.524,175.205,21.5z"/>
	</g>
</g>
</svg>
