<?xml version="1.0" encoding="utf-8"?>
<!-- Generator: Adobe Illustrator 15.1.0, SVG Export Plug-In . SVG Version: 6.00 Build 0)  -->
<!DOCTYPE svg PUBLIC "-//W3C//DTD SVG 1.1//EN" "http://www.w3.org/Graphics/SVG/1.1/DTD/svg11.dtd">
<svg version="1.1" id="レイヤー_1" xmlns="http://www.w3.org/2000/svg" xmlns:xlink="http://www.w3.org/1999/xlink" x="0px"
	 y="0px" width="74px" height="85.667px" viewBox="37.833 32.5 74 85.667" enable-background="new 37.833 32.5 74 85.667"
	 xml:space="preserve">
<path fill="none" d="M75.079,75.028c-0.051-0.02-0.104-0.037-0.157-0.056C74.974,74.991,75.026,75.009,75.079,75.028z"/>
<path fill="#EA6597" d="M75.033,75.013c0,0-0.002-0.001-0.004-0.002c-0.02-0.008-0.041-0.016-0.062-0.024
	C74.988,74.996,75.012,75.004,75.033,75.013z"/>
<g>
	<defs>
		<path id="SVGID_1_" d="M97,35.205H53c-6.627,0-12,5.371-12,12v44c0,6.627,5.373,12,12,12h15.309L75,114.795l6.691-11.59H97
			c6.627,0,12-5.373,12-12v-44C109,40.576,103.627,35.205,97,35.205z"/>
	</defs>
	<clipPath id="SVGID_2_">
		<use xlink:href="#SVGID_1_"  overflow="visible"/>
	</clipPath>
	<rect x="8.947" y="3.152" clip-path="url(#SVGID_2_)" fill="#EDFDBF" width="132.105" height="132.105"/>
	<radialGradient id="SVGID_3_" cx="75" cy="69.2051" r="27.7358" gradientUnits="userSpaceOnUse">
		<stop  offset="0" style="stop-color:#FFFFFF;stop-opacity:0.95"/>
		<stop  offset="0.4335" style="stop-color:#FFFFFF;stop-opacity:0.6512"/>
		<stop  offset="0.9375" style="stop-color:#FFFFFF;stop-opacity:0"/>
	</radialGradient>
	<circle clip-path="url(#SVGID_2_)" fill="url(#SVGID_3_)" cx="75" cy="69.205" r="27.735"/>
	<g opacity="0.1" clip-path="url(#SVGID_2_)">
		<radialGradient id="SVGID_4_" cx="79.334" cy="26.8174" r="30.1289" gradientUnits="userSpaceOnUse">
			<stop  offset="0" style="stop-color:#1A0B08;stop-opacity:0.95"/>
			<stop  offset="0.4335" style="stop-color:#1A0B08;stop-opacity:0.6512"/>
			<stop  offset="0.9375" style="stop-color:#1A0B08;stop-opacity:0"/>
		</radialGradient>
		<polygon fill="url(#SVGID_4_)" points="75,-15.57 75,69.205 83.668,-15.133 		"/>
		<radialGradient id="SVGID_5_" cx="87.6055" cy="27.6787" r="30.6864" gradientUnits="userSpaceOnUse">
			<stop  offset="0" style="stop-color:#1A0B08;stop-opacity:0.95"/>
			<stop  offset="0.4335" style="stop-color:#1A0B08;stop-opacity:0.6512"/>
			<stop  offset="0.9375" style="stop-color:#1A0B08;stop-opacity:0"/>
		</radialGradient>
		<polygon fill="url(#SVGID_5_)" points="92.086,-13.848 75,69.205 100.21,-11.759 		"/>
		<radialGradient id="SVGID_6_" cx="95.2041" cy="30.1484" r="31.0936" gradientUnits="userSpaceOnUse">
			<stop  offset="0" style="stop-color:#1A0B08;stop-opacity:0.95"/>
			<stop  offset="0.4335" style="stop-color:#1A0B08;stop-opacity:0.6512"/>
			<stop  offset="0.9375" style="stop-color:#1A0B08;stop-opacity:0"/>
		</radialGradient>
		<polygon fill="url(#SVGID_6_)" points="107.998,-8.908 75,69.205 115.408,-5.339 		"/>
		<radialGradient id="SVGID_7_" cx="101.9619" cy="34.0566" r="31.3238" gradientUnits="userSpaceOnUse">
			<stop  offset="0" style="stop-color:#1A0B08;stop-opacity:0.95"/>
			<stop  offset="0.4335" style="stop-color:#1A0B08;stop-opacity:0.6512"/>
			<stop  offset="0.9375" style="stop-color:#1A0B08;stop-opacity:0"/>
		</radialGradient>
		<polygon fill="url(#SVGID_7_)" points="122.398,-1.092 75,69.205 128.924,3.788 		"/>
		<radialGradient id="SVGID_8_" cx="107.709" cy="39.2324" r="31.3707" gradientUnits="userSpaceOnUse">
			<stop  offset="0" style="stop-color:#1A0B08;stop-opacity:0.95"/>
			<stop  offset="0.4335" style="stop-color:#1A0B08;stop-opacity:0.6512"/>
			<stop  offset="0.9375" style="stop-color:#1A0B08;stop-opacity:0"/>
		</radialGradient>
		<polygon fill="url(#SVGID_8_)" points="134.944,9.26 75,69.205 140.418,15.279 		"/>
		<radialGradient id="SVGID_9_" cx="112.2715" cy="45.5059" r="31.2315" gradientUnits="userSpaceOnUse">
			<stop  offset="0" style="stop-color:#1A0B08;stop-opacity:0.95"/>
			<stop  offset="0.4335" style="stop-color:#1A0B08;stop-opacity:0.6512"/>
			<stop  offset="0.9375" style="stop-color:#1A0B08;stop-opacity:0"/>
		</radialGradient>
		<polygon fill="url(#SVGID_9_)" points="145.297,21.807 75,69.205 149.543,28.796 		"/>
		<radialGradient id="SVGID_10_" cx="115.4814" cy="52.7061" r="30.9109" gradientUnits="userSpaceOnUse">
			<stop  offset="0" style="stop-color:#1A0B08;stop-opacity:0.95"/>
			<stop  offset="0.4335" style="stop-color:#1A0B08;stop-opacity:0.6512"/>
			<stop  offset="0.9375" style="stop-color:#1A0B08;stop-opacity:0"/>
		</radialGradient>
		<polygon fill="url(#SVGID_10_)" points="153.113,36.207 75,69.205 155.963,43.996 		"/>
		<radialGradient id="SVGID_11_" cx="117.1689" cy="60.6626" r="30.4236" gradientUnits="userSpaceOnUse">
			<stop  offset="0" style="stop-color:#1A0B08;stop-opacity:0.95"/>
			<stop  offset="0.4335" style="stop-color:#1A0B08;stop-opacity:0.6512"/>
			<stop  offset="0.9375" style="stop-color:#1A0B08;stop-opacity:0"/>
		</radialGradient>
		<polygon fill="url(#SVGID_11_)" points="158.053,52.12 75,69.205 159.338,60.537 		"/>
		<radialGradient id="SVGID_12_" cx="117.3867" cy="73.5381" r="30.1295" gradientUnits="userSpaceOnUse">
			<stop  offset="0" style="stop-color:#1A0B08;stop-opacity:0.95"/>
			<stop  offset="0.4335" style="stop-color:#1A0B08;stop-opacity:0.6512"/>
			<stop  offset="0.9375" style="stop-color:#1A0B08;stop-opacity:0"/>
		</radialGradient>
		<polygon fill="url(#SVGID_12_)" points="159.775,69.205 74.999,69.205 159.338,77.871 		"/>
		<radialGradient id="SVGID_13_" cx="116.5254" cy="81.8096" r="30.6871" gradientUnits="userSpaceOnUse">
			<stop  offset="0" style="stop-color:#1A0B08;stop-opacity:0.95"/>
			<stop  offset="0.4335" style="stop-color:#1A0B08;stop-opacity:0.6512"/>
			<stop  offset="0.9375" style="stop-color:#1A0B08;stop-opacity:0"/>
		</radialGradient>
		<polygon fill="url(#SVGID_13_)" points="158.053,86.289 74.999,69.205 155.963,94.414 		"/>
		<radialGradient id="SVGID_14_" cx="114.0566" cy="89.4092" r="31.0936" gradientUnits="userSpaceOnUse">
			<stop  offset="0" style="stop-color:#1A0B08;stop-opacity:0.95"/>
			<stop  offset="0.4335" style="stop-color:#1A0B08;stop-opacity:0.6512"/>
			<stop  offset="0.9375" style="stop-color:#1A0B08;stop-opacity:0"/>
		</radialGradient>
		<polygon fill="url(#SVGID_14_)" points="153.113,102.203 74.999,69.205 149.543,109.613 		"/>
		<radialGradient id="SVGID_15_" cx="110.1484" cy="96.168" r="31.3242" gradientUnits="userSpaceOnUse">
			<stop  offset="0" style="stop-color:#1A0B08;stop-opacity:0.95"/>
			<stop  offset="0.4335" style="stop-color:#1A0B08;stop-opacity:0.6512"/>
			<stop  offset="0.9375" style="stop-color:#1A0B08;stop-opacity:0"/>
		</radialGradient>
		<polygon fill="url(#SVGID_15_)" points="145.297,116.604 74.999,69.205 140.418,123.131 		"/>
		<radialGradient id="SVGID_16_" cx="104.9717" cy="101.9131" r="31.3702" gradientUnits="userSpaceOnUse">
			<stop  offset="0" style="stop-color:#1A0B08;stop-opacity:0.95"/>
			<stop  offset="0.4335" style="stop-color:#1A0B08;stop-opacity:0.6512"/>
			<stop  offset="0.9375" style="stop-color:#1A0B08;stop-opacity:0"/>
		</radialGradient>
		<polygon fill="url(#SVGID_16_)" points="134.944,129.15 74.999,69.205 128.924,134.621 		"/>
		<radialGradient id="SVGID_17_" cx="98.6992" cy="106.4766" r="31.2315" gradientUnits="userSpaceOnUse">
			<stop  offset="0" style="stop-color:#1A0B08;stop-opacity:0.95"/>
			<stop  offset="0.4335" style="stop-color:#1A0B08;stop-opacity:0.6512"/>
			<stop  offset="0.9375" style="stop-color:#1A0B08;stop-opacity:0"/>
		</radialGradient>
		<polygon fill="url(#SVGID_17_)" points="122.398,139.502 74.999,69.205 115.408,143.748 		"/>
		<radialGradient id="SVGID_18_" cx="91.498" cy="109.6865" r="30.9111" gradientUnits="userSpaceOnUse">
			<stop  offset="0" style="stop-color:#1A0B08;stop-opacity:0.95"/>
			<stop  offset="0.4335" style="stop-color:#1A0B08;stop-opacity:0.6512"/>
			<stop  offset="0.9375" style="stop-color:#1A0B08;stop-opacity:0"/>
		</radialGradient>
		<polygon fill="url(#SVGID_18_)" points="107.998,147.318 74.999,69.205 100.21,150.168 		"/>
		<radialGradient id="SVGID_19_" cx="83.542" cy="111.373" r="30.423" gradientUnits="userSpaceOnUse">
			<stop  offset="0" style="stop-color:#1A0B08;stop-opacity:0.95"/>
			<stop  offset="0.4335" style="stop-color:#1A0B08;stop-opacity:0.6512"/>
			<stop  offset="0.9375" style="stop-color:#1A0B08;stop-opacity:0"/>
		</radialGradient>
		<polygon fill="url(#SVGID_19_)" points="92.085,152.258 74.999,69.205 83.667,153.541 		"/>
		<radialGradient id="SVGID_20_" cx="70.666" cy="111.5928" r="30.1289" gradientUnits="userSpaceOnUse">
			<stop  offset="0" style="stop-color:#1A0B08;stop-opacity:0.95"/>
			<stop  offset="0.4335" style="stop-color:#1A0B08;stop-opacity:0.6512"/>
			<stop  offset="0.9375" style="stop-color:#1A0B08;stop-opacity:0"/>
		</radialGradient>
		<polygon fill="url(#SVGID_20_)" points="75,153.98 75,69.205 66.332,153.541 		"/>
		<radialGradient id="SVGID_21_" cx="62.395" cy="110.7314" r="30.6865" gradientUnits="userSpaceOnUse">
			<stop  offset="0" style="stop-color:#1A0B08;stop-opacity:0.95"/>
			<stop  offset="0.4335" style="stop-color:#1A0B08;stop-opacity:0.6512"/>
			<stop  offset="0.9375" style="stop-color:#1A0B08;stop-opacity:0"/>
		</radialGradient>
		<polygon fill="url(#SVGID_21_)" points="57.914,152.258 75,69.205 49.79,150.17 		"/>
		<radialGradient id="SVGID_22_" cx="54.7954" cy="108.2617" r="31.0938" gradientUnits="userSpaceOnUse">
			<stop  offset="0" style="stop-color:#1A0B08;stop-opacity:0.95"/>
			<stop  offset="0.4335" style="stop-color:#1A0B08;stop-opacity:0.6512"/>
			<stop  offset="0.9375" style="stop-color:#1A0B08;stop-opacity:0"/>
		</radialGradient>
		<polygon fill="url(#SVGID_22_)" points="42.001,147.318 75,69.205 34.591,143.748 		"/>
		<radialGradient id="SVGID_23_" cx="48.0371" cy="104.3535" r="31.3242" gradientUnits="userSpaceOnUse">
			<stop  offset="0" style="stop-color:#1A0B08;stop-opacity:0.95"/>
			<stop  offset="0.4335" style="stop-color:#1A0B08;stop-opacity:0.6512"/>
			<stop  offset="0.9375" style="stop-color:#1A0B08;stop-opacity:0"/>
		</radialGradient>
		<polygon fill="url(#SVGID_23_)" points="27.601,139.502 75,69.205 21.074,134.623 		"/>
		<radialGradient id="SVGID_24_" cx="42.291" cy="99.1777" r="31.3707" gradientUnits="userSpaceOnUse">
			<stop  offset="0" style="stop-color:#1A0B08;stop-opacity:0.95"/>
			<stop  offset="0.4335" style="stop-color:#1A0B08;stop-opacity:0.6512"/>
			<stop  offset="0.9375" style="stop-color:#1A0B08;stop-opacity:0"/>
		</radialGradient>
		<polygon fill="url(#SVGID_24_)" points="15.055,129.15 75,69.205 9.582,123.131 		"/>
		<radialGradient id="SVGID_25_" cx="37.728" cy="92.9043" r="31.2318" gradientUnits="userSpaceOnUse">
			<stop  offset="0" style="stop-color:#1A0B08;stop-opacity:0.95"/>
			<stop  offset="0.4335" style="stop-color:#1A0B08;stop-opacity:0.6512"/>
			<stop  offset="0.9375" style="stop-color:#1A0B08;stop-opacity:0"/>
		</radialGradient>
		<polygon fill="url(#SVGID_25_)" points="4.703,116.604 75,69.205 0.456,109.613 		"/>
		<radialGradient id="SVGID_26_" cx="34.5181" cy="85.7041" r="30.9112" gradientUnits="userSpaceOnUse">
			<stop  offset="0" style="stop-color:#1A0B08;stop-opacity:0.95"/>
			<stop  offset="0.4335" style="stop-color:#1A0B08;stop-opacity:0.6512"/>
			<stop  offset="0.9375" style="stop-color:#1A0B08;stop-opacity:0"/>
		</radialGradient>
		<polygon fill="url(#SVGID_26_)" points="-3.113,102.203 75,69.205 -5.964,94.414 		"/>
		<radialGradient id="SVGID_27_" cx="32.8311" cy="77.7471" r="30.4236" gradientUnits="userSpaceOnUse">
			<stop  offset="0" style="stop-color:#1A0B08;stop-opacity:0.95"/>
			<stop  offset="0.4335" style="stop-color:#1A0B08;stop-opacity:0.6512"/>
			<stop  offset="0.9375" style="stop-color:#1A0B08;stop-opacity:0"/>
		</radialGradient>
		<polygon fill="url(#SVGID_27_)" points="-8.054,86.289 75,69.205 -9.338,77.871 		"/>
		<radialGradient id="SVGID_28_" cx="32.6123" cy="64.8711" r="30.1289" gradientUnits="userSpaceOnUse">
			<stop  offset="0" style="stop-color:#1A0B08;stop-opacity:0.95"/>
			<stop  offset="0.4335" style="stop-color:#1A0B08;stop-opacity:0.6512"/>
			<stop  offset="0.9375" style="stop-color:#1A0B08;stop-opacity:0"/>
		</radialGradient>
		<polygon fill="url(#SVGID_28_)" points="-9.775,69.205 75,69.205 -9.338,60.537 		"/>
		<radialGradient id="SVGID_29_" cx="33.4731" cy="56.6006" r="30.6867" gradientUnits="userSpaceOnUse">
			<stop  offset="0" style="stop-color:#1A0B08;stop-opacity:0.95"/>
			<stop  offset="0.4335" style="stop-color:#1A0B08;stop-opacity:0.6512"/>
			<stop  offset="0.9375" style="stop-color:#1A0B08;stop-opacity:0"/>
		</radialGradient>
		<polygon fill="url(#SVGID_29_)" points="-8.054,52.12 75,69.205 -5.964,43.996 		"/>
		<radialGradient id="SVGID_30_" cx="35.9434" cy="49.0005" r="31.0938" gradientUnits="userSpaceOnUse">
			<stop  offset="0" style="stop-color:#1A0B08;stop-opacity:0.95"/>
			<stop  offset="0.4335" style="stop-color:#1A0B08;stop-opacity:0.6512"/>
			<stop  offset="0.9375" style="stop-color:#1A0B08;stop-opacity:0"/>
		</radialGradient>
		<polygon fill="url(#SVGID_30_)" points="-3.113,36.207 75,69.205 0.456,28.796 		"/>
		<radialGradient id="SVGID_31_" cx="39.8516" cy="42.2427" r="31.324" gradientUnits="userSpaceOnUse">
			<stop  offset="0" style="stop-color:#1A0B08;stop-opacity:0.95"/>
			<stop  offset="0.4335" style="stop-color:#1A0B08;stop-opacity:0.6512"/>
			<stop  offset="0.9375" style="stop-color:#1A0B08;stop-opacity:0"/>
		</radialGradient>
		<polygon fill="url(#SVGID_31_)" points="4.703,21.807 75,69.205 9.582,15.28 		"/>
		<radialGradient id="SVGID_32_" cx="45.0273" cy="36.4966" r="31.3704" gradientUnits="userSpaceOnUse">
			<stop  offset="0" style="stop-color:#1A0B08;stop-opacity:0.95"/>
			<stop  offset="0.4335" style="stop-color:#1A0B08;stop-opacity:0.6512"/>
			<stop  offset="0.9375" style="stop-color:#1A0B08;stop-opacity:0"/>
		</radialGradient>
		<polygon fill="url(#SVGID_32_)" points="15.055,9.26 75,69.205 21.074,3.788 		"/>
		<radialGradient id="SVGID_33_" cx="51.3003" cy="31.9331" r="31.232" gradientUnits="userSpaceOnUse">
			<stop  offset="0" style="stop-color:#1A0B08;stop-opacity:0.95"/>
			<stop  offset="0.4335" style="stop-color:#1A0B08;stop-opacity:0.6512"/>
			<stop  offset="0.9375" style="stop-color:#1A0B08;stop-opacity:0"/>
		</radialGradient>
		<polygon fill="url(#SVGID_33_)" points="27.601,-1.092 75,69.205 34.591,-5.339 		"/>
		<radialGradient id="SVGID_34_" cx="58.5005" cy="28.7231" r="30.9113" gradientUnits="userSpaceOnUse">
			<stop  offset="0" style="stop-color:#1A0B08;stop-opacity:0.95"/>
			<stop  offset="0.4335" style="stop-color:#1A0B08;stop-opacity:0.6512"/>
			<stop  offset="0.9375" style="stop-color:#1A0B08;stop-opacity:0"/>
		</radialGradient>
		<polygon fill="url(#SVGID_34_)" points="42.001,-8.908 75,69.205 49.79,-11.759 		"/>
		<radialGradient id="SVGID_35_" cx="66.457" cy="27.0366" r="30.4234" gradientUnits="userSpaceOnUse">
			<stop  offset="0" style="stop-color:#1A0B08;stop-opacity:0.95"/>
			<stop  offset="0.4335" style="stop-color:#1A0B08;stop-opacity:0.6512"/>
			<stop  offset="0.9375" style="stop-color:#1A0B08;stop-opacity:0"/>
		</radialGradient>
		<polygon fill="url(#SVGID_35_)" points="57.914,-13.848 75,69.205 66.332,-15.132 		"/>
	</g>
</g>
<path fill="none" stroke="#FF68A1" stroke-width="3" stroke-linecap="round" stroke-linejoin="round" stroke-miterlimit="10" d="
	M97,35.205H53c-6.627,0-12,5.371-12,12v44c0,6.627,5.373,12,12,12h15.309L75,114.795l6.691-11.59H97c6.627,0,12-5.373,12-12v-44
	C109,40.576,103.627,35.205,97,35.205z"/>
<g>
	<path fill="none" d="M100.766,64.038c0.1-0.062,0.174-0.142,0.219-0.241s0.068-0.241,0.068-0.425v-4.247
		c-0.006-0.153-0.035-0.279-0.084-0.379c-0.057-0.098-0.125-0.169-0.203-0.216v-1.5h3.219v1.5c-0.08,0.05-0.148,0.121-0.201,0.21
		c-0.055,0.09-0.084,0.22-0.088,0.394v4.267c0,0.178,0.029,0.314,0.078,0.407c0.051,0.09,0.123,0.168,0.211,0.23v1.494h-3.219
		V64.038z M67.87,57.03h3.032v1.174c0.007,0.3,0.06,0.572,0.156,0.817c0.098,0.245,0.205,0.467,0.32,0.672h0.021
		c0.142-0.232,0.257-0.473,0.348-0.726c0.091-0.25,0.138-0.508,0.143-0.772V57.03h2.662v1.5c-0.051,0.039-0.103,0.079-0.149,0.119
		c-0.049,0.04-0.101,0.101-0.149,0.182l-1.73,3.349v1.252c0,0.163,0.028,0.29,0.079,0.383c0.053,0.093,0.122,0.168,0.21,0.224v1.494
		h-3.219v-1.494c0.093-0.062,0.165-0.144,0.214-0.243c0.049-0.1,0.071-0.208,0.071-0.325v-1.102l-1.6-3.272
		c-0.07-0.166-0.138-0.29-0.207-0.371c-0.07-0.078-0.137-0.145-0.202-0.195V57.03z M52.519,65.532h-2.843
		c-0.08-0.296-0.125-0.608-0.141-0.934c-0.017-0.325-0.024-0.572-0.018-0.74c0-0.083,0-0.186,0.002-0.299
		c0.003-0.117,0.006-0.218,0.006-0.308c0.011-0.378-0.04-0.648-0.157-0.807c-0.121-0.157-0.374-0.233-0.756-0.226v1.1
		c-0.005,0.186,0.013,0.331,0.054,0.436c0.04,0.109,0.117,0.203,0.233,0.284v1.494h-3.217v-1.494
		c0.105-0.071,0.181-0.157,0.226-0.254c0.043-0.096,0.062-0.233,0.06-0.412v-4.115c0.002-0.18-0.013-0.328-0.051-0.44
		c-0.036-0.111-0.116-0.207-0.234-0.287v-1.5h4.103c0.581-0.033,1.142,0.09,1.69,0.367c0.543,0.279,0.835,0.905,0.875,1.878
		c0.021,0.312-0.04,0.677-0.188,1.1c-0.149,0.421-0.51,0.718-1.083,0.886v0.035c0.446,0.094,0.745,0.258,0.898,0.494
		c0.151,0.237,0.222,0.527,0.213,0.874c-0.006,0.524,0.009,0.867,0.049,1.025c0.037,0.161,0.133,0.277,0.281,0.349V65.532z
		 M55.148,65.524c-0.382-0.111-0.71-0.306-0.983-0.583c-0.211-0.198-0.375-0.456-0.494-0.773c-0.117-0.318-0.178-0.752-0.181-1.305
		v-3.739c-0.003-0.161-0.033-0.287-0.083-0.381c-0.055-0.092-0.123-0.164-0.204-0.214v-1.5h3.218v1.5
		c-0.068,0.04-0.132,0.107-0.191,0.195c-0.058,0.09-0.091,0.226-0.094,0.409v4.086c0,0.224,0.046,0.389,0.138,0.493
		c0.092,0.103,0.222,0.154,0.385,0.154c0.186,0,0.321-0.055,0.409-0.168c0.088-0.111,0.131-0.283,0.131-0.516v-3.936
		c-0.006-0.249-0.043-0.422-0.111-0.518c-0.068-0.098-0.139-0.161-0.209-0.191V57.03h3.074v1.5
		c-0.087,0.047-0.162,0.119-0.225,0.207c-0.066,0.091-0.099,0.223-0.102,0.397v3.769c0.004,0.406-0.039,0.781-0.141,1.125
		c-0.098,0.343-0.28,0.651-0.549,0.92c-0.237,0.246-0.542,0.43-0.914,0.554c-0.371,0.123-0.852,0.186-1.439,0.19
		C56.004,65.693,55.527,65.637,55.148,65.524z M61.646,80.328c0.091,0,0.175-0.003,0.25-0.005c0.073-0.009,0.141-0.014,0.206-0.028
		c0.064-0.016,0.131-0.038,0.2-0.068c0.07-0.034,0.154-0.078,0.255-0.134c0.211-0.111,0.318-0.459,0.318-1.045h3.443v3.691h-8.652
		v-3.098c0-0.956,0.253-1.671,0.759-2.151c0.522-0.495,1.257-0.97,2.203-1.419c0.488-0.229,0.885-0.432,1.19-0.606
		c0.31-0.174,0.533-0.323,0.671-0.442c0.285-0.229,0.411-0.503,0.386-0.827c0-0.301-0.074-0.527-0.222-0.673
		c-0.119-0.174-0.308-0.262-0.563-0.262c-0.094,0-0.183,0.013-0.272,0.04c-0.086,0.027-0.163,0.082-0.232,0.166
		c-0.07,0.082-0.122,0.201-0.165,0.345c-0.042,0.147-0.062,0.339-0.062,0.576v0.773h-3.485v-3.195
		c0.605-0.442,1.278-0.759,2.018-0.958c0.741-0.197,1.554-0.296,2.444-0.296c0.148,0,0.29,0.004,0.429,0.007
		c0.136,0.004,0.282,0.015,0.436,0.035c0.151,0.017,0.312,0.044,0.488,0.077c0.174,0.032,0.372,0.074,0.594,0.129
		c0.437,0.109,0.896,0.382,1.374,0.813c0.415,0.441,0.654,0.816,0.719,1.129c0.035,0.157,0.066,0.298,0.089,0.426
		c0.023,0.13,0.04,0.243,0.049,0.347c0.006,0.101,0.014,0.198,0.021,0.296c0.002,0.097,0.003,0.195,0.003,0.294
		c0,0.636-0.073,1.164-0.225,1.585c-0.154,0.424-0.399,0.804-0.738,1.145c-0.293,0.267-0.693,0.53-1.199,0.801l-1.432,0.713
		c-0.505,0.222-0.918,0.453-1.239,0.696c-0.323,0.245-0.484,0.494-0.484,0.75v0.373H61.646z M64.925,65.532H60.6v-1.494
		c0.151-0.081,0.247-0.184,0.287-0.31c0.038-0.125,0.053-0.271,0.045-0.439v-4.014c0-0.226-0.023-0.394-0.078-0.501
		c-0.051-0.109-0.137-0.19-0.254-0.245v-1.5h4.28c0.775-0.006,1.371,0.16,1.78,0.506c0.409,0.344,0.615,0.894,0.617,1.647
		c-0.01,0.58-0.138,1.018-0.384,1.316c-0.248,0.296-0.564,0.492-0.944,0.582v0.035c0.5,0.067,0.87,0.281,1.11,0.639
		c0.236,0.359,0.353,0.814,0.351,1.364c0.013,0.722-0.167,1.3-0.536,1.739C66.503,65.295,65.853,65.521,64.925,65.532z
		 M76.182,79.103c0,1.302-0.326,2.274-0.977,2.906c-0.652,0.635-1.779,0.952-3.375,0.952c-1.582,0-2.71-0.292-3.389-0.883
		c-0.691-0.588-1.034-1.577-1.034-2.976v-4.617c0-1.56,0.32-2.525,0.964-2.892c0.645-0.365,1.23-0.604,1.764-0.716
		c0.534-0.111,1.102-0.166,1.708-0.166c0.662,0,1.233,0.055,1.716,0.158c0.481,0.105,0.93,0.287,1.343,0.546
		c0.412,0.256,0.73,0.638,0.951,1.149c0.221,0.51,0.33,1.133,0.33,1.879V79.103z M81.832,82.739h-4.465v-2.082
		c0.146-0.08,0.256-0.206,0.33-0.373c0.047-0.161,0.068-0.335,0.068-0.52v-5.856c0-0.256-0.037-0.449-0.109-0.572
		c-0.074-0.125-0.17-0.223-0.289-0.295v-2.082h4.064v8.833c0,0.273,0.041,0.474,0.125,0.592c0.109,0.128,0.201,0.222,0.275,0.272
		V82.739z M82.195,65.532h-3.031v-1.125c-0.006-0.195-0.035-0.379-0.086-0.555c-0.045-0.174-0.117-0.355-0.215-0.543
		c-0.098-0.189-0.209-0.404-0.338-0.639c-0.125-0.237-0.262-0.511-0.404-0.821h-0.039v1.552c0,0.178,0.025,0.314,0.076,0.407
		c0.053,0.09,0.123,0.168,0.213,0.23v1.494h-3.22v-1.494c0.094-0.062,0.162-0.142,0.213-0.238c0.048-0.097,0.071-0.239,0.071-0.428
		v-4.247c-0.003-0.153-0.03-0.279-0.084-0.379c-0.053-0.098-0.121-0.169-0.2-0.216v-1.5h3.22v1.5c-0.078,0.05-0.15,0.121-0.201,0.21
		c-0.059,0.09-0.084,0.22-0.088,0.394v1.337c0.207-0.327,0.379-0.599,0.518-0.815c0.139-0.214,0.25-0.398,0.328-0.545
		c0.08-0.149,0.137-0.273,0.178-0.379c0.039-0.104,0.059-0.201,0.059-0.291V57.03h2.871v1.5c-0.113,0.055-0.213,0.114-0.297,0.182
		c-0.088,0.064-0.17,0.172-0.246,0.317l-1.145,1.835c0.309,0.624,0.559,1.121,0.746,1.496c0.184,0.375,0.328,0.661,0.426,0.855
		c0.1,0.197,0.174,0.335,0.225,0.418c0.049,0.081,0.1,0.142,0.146,0.185c0.055,0.053,0.111,0.097,0.17,0.133
		c0.059,0.039,0.102,0.067,0.135,0.086V65.532z M82.379,65.532v-1.494c0.08-0.052,0.15-0.14,0.211-0.262
		c0.062-0.119,0.125-0.358,0.189-0.713l1.123-6.032h3.77l1.271,6.326c0.059,0.236,0.117,0.395,0.18,0.481
		c0.061,0.083,0.141,0.153,0.236,0.201v1.494h-3.338v-1.504c0.111-0.038,0.191-0.101,0.238-0.187
		c0.045-0.087,0.068-0.18,0.068-0.286c0-0.048-0.006-0.09-0.012-0.13c-0.01-0.039-0.021-0.077-0.037-0.117h-1.285
		c-0.006,0.04-0.016,0.082-0.023,0.13c-0.008,0.046-0.014,0.094-0.014,0.142c0,0.106,0.031,0.201,0.088,0.281
		c0.057,0.079,0.145,0.136,0.264,0.176v1.494H82.379z M91.998,79.363c0,0.525-0.07,0.991-0.205,1.405
		c-0.121,0.406-0.418,0.877-0.898,1.407c-0.457,0.523-1.58,0.785-3.371,0.785c-0.947,0-1.775-0.105-2.477-0.312
		c-0.703-0.205-1.314-0.514-1.838-0.927v-3.279h3.566v0.853c0,0.358,0.057,0.639,0.166,0.841c0.111,0.202,0.285,0.304,0.523,0.304
		c0.303,0,0.518-0.105,0.646-0.316c0.148-0.202,0.223-0.51,0.223-0.926c0-0.428-0.088-0.759-0.262-0.991
		c-0.184-0.244-0.586-0.37-1.201-0.37h-1.197v-2.342h1.062c0.688,0,1.115-0.117,1.281-0.344c0.174-0.205,0.246-0.477,0.219-0.813
		c-0.025-0.416-0.109-0.703-0.246-0.862c-0.139-0.16-0.314-0.233-0.525-0.214c-0.285,0-0.475,0.128-0.562,0.386
		c-0.084,0.264-0.127,0.546-0.127,0.838v0.387h-3.512v-2.866c0.496-0.385,1.113-0.698,1.854-0.938
		c0.736-0.237,1.594-0.357,2.57-0.357c1.318,0,2.355,0.283,3.1,0.848c0.742,0.562,1.115,1.394,1.115,2.487
		c0,0.153-0.006,0.297-0.016,0.427c-0.006,0.128-0.025,0.255-0.053,0.379c-0.029,0.121-0.07,0.256-0.125,0.393
		c-0.055,0.136-0.129,0.29-0.221,0.454c-0.174,0.331-0.547,0.616-1.115,0.852c0.439,0.149,0.818,0.438,1.141,0.871
		C91.836,77.853,91.998,78.502,91.998,79.363z M93.049,58.53c-0.082,0.05-0.146,0.121-0.203,0.21c-0.051,0.09-0.08,0.22-0.084,0.394
		v4.267c0,0.178,0.025,0.314,0.08,0.407c0.051,0.09,0.121,0.168,0.207,0.23v1.494H89.83v-1.494c0.102-0.062,0.174-0.142,0.221-0.241
		c0.045-0.1,0.066-0.241,0.066-0.425v-4.247c-0.004-0.153-0.033-0.279-0.082-0.379c-0.057-0.098-0.123-0.169-0.205-0.216v-1.5h3.219
		V58.53z M96.758,56.859c0.666,0,1.273,0.084,1.816,0.253c0.547,0.168,1.027,0.409,1.451,0.721v2.146h-2.541v-0.578
		c-0.004-0.249-0.053-0.431-0.145-0.548c-0.092-0.113-0.217-0.168-0.377-0.166c-0.168,0-0.301,0.061-0.395,0.182
		c-0.094,0.123-0.143,0.31-0.143,0.567v3.784c0,0.209,0.043,0.369,0.133,0.482c0.088,0.113,0.223,0.17,0.404,0.174
		c0.191-0.003,0.322-0.07,0.406-0.205c0.08-0.132,0.119-0.316,0.115-0.553v-0.742h-0.461v-1.649h3.002v4.052
		c-0.291,0.279-0.695,0.497-1.205,0.66c-0.514,0.16-1.158,0.247-1.932,0.252c-0.623,0-1.123-0.051-1.498-0.157
		c-0.377-0.104-0.689-0.281-0.939-0.538c-0.225-0.224-0.395-0.492-0.502-0.802c-0.109-0.31-0.162-0.694-0.162-1.153v-3.708
		c0.039-1.012,0.363-1.686,0.977-2.017C95.373,56.986,96.037,56.835,96.758,56.859z"/>
	<path fill="none" d="M64.422,62.071c-0.184-0.113-0.463-0.163-0.843-0.148v1.857c0.385,0.013,0.667-0.039,0.849-0.157
		c0.182-0.119,0.272-0.381,0.269-0.79C64.697,62.437,64.604,62.182,64.422,62.071z"/>
	<path fill="none" d="M71.772,73.261c-0.273,0-0.459,0.093-0.557,0.281c-0.095,0.189-0.146,0.417-0.146,0.684v5.137
		c0,0.416,0.062,0.697,0.185,0.849c0.123,0.153,0.303,0.228,0.532,0.228c0.247,0,0.431-0.074,0.55-0.222
		c0.118-0.173,0.178-0.453,0.178-0.839v-5.167c0-0.294-0.056-0.527-0.171-0.696C72.23,73.346,72.04,73.261,71.772,73.261z"/>
	<path fill="#FF68A1" d="M61.704,79.205c0.321-0.243,0.734-0.475,1.239-0.696l1.432-0.713c0.505-0.271,0.906-0.534,1.199-0.801
		c0.339-0.341,0.584-0.721,0.738-1.145c0.152-0.421,0.225-0.949,0.225-1.585c0-0.1-0.001-0.197-0.003-0.294
		c-0.007-0.098-0.015-0.195-0.021-0.296c-0.009-0.104-0.026-0.216-0.049-0.347c-0.023-0.128-0.054-0.27-0.089-0.426
		c-0.065-0.312-0.304-0.688-0.719-1.129c-0.478-0.432-0.937-0.704-1.374-0.813c-0.222-0.055-0.42-0.097-0.594-0.129
		c-0.176-0.033-0.336-0.06-0.488-0.077c-0.154-0.02-0.3-0.031-0.436-0.035c-0.139-0.003-0.28-0.007-0.429-0.007
		c-0.89,0-1.704,0.099-2.444,0.296c-0.739,0.199-1.413,0.516-2.018,0.958v3.195h3.485v-0.773c0-0.237,0.021-0.429,0.062-0.576
		c0.042-0.145,0.094-0.263,0.165-0.345c0.069-0.083,0.146-0.138,0.232-0.166c0.089-0.026,0.178-0.04,0.272-0.04
		c0.255,0,0.444,0.087,0.563,0.262c0.148,0.146,0.222,0.372,0.222,0.673c0.024,0.323-0.102,0.597-0.386,0.827
		c-0.138,0.119-0.361,0.269-0.671,0.442c-0.305,0.174-0.702,0.377-1.19,0.606c-0.946,0.449-1.681,0.924-2.203,1.419
		c-0.506,0.48-0.759,1.195-0.759,2.151v3.098h8.652v-3.691h-3.443c0,0.586-0.107,0.934-0.318,1.045
		c-0.101,0.056-0.185,0.1-0.255,0.134c-0.068,0.03-0.136,0.053-0.2,0.068c-0.065,0.015-0.133,0.02-0.206,0.028
		c-0.075,0.002-0.159,0.005-0.25,0.005H61.22v-0.373C61.22,79.699,61.38,79.45,61.704,79.205z"/>
	<path fill="#FF68A1" d="M74.901,71.416c-0.413-0.259-0.861-0.441-1.343-0.546c-0.483-0.103-1.055-0.158-1.716-0.158
		c-0.606,0-1.174,0.055-1.708,0.166c-0.533,0.111-1.119,0.351-1.764,0.716c-0.644,0.367-0.964,1.333-0.964,2.892v4.617
		c0,1.398,0.343,2.388,1.034,2.976c0.679,0.591,1.808,0.883,3.389,0.883c1.596,0,2.723-0.317,3.375-0.952
		c0.651-0.632,0.977-1.604,0.977-2.906v-4.658c0-0.746-0.109-1.37-0.33-1.879C75.631,72.054,75.313,71.672,74.901,71.416z
		 M72.516,79.379c0,0.386-0.06,0.666-0.178,0.839c-0.119,0.147-0.304,0.222-0.55,0.222c-0.229,0-0.409-0.074-0.532-0.228
		c-0.123-0.151-0.185-0.433-0.185-0.849v-5.137c0-0.267,0.05-0.495,0.146-0.684c0.097-0.188,0.283-0.281,0.557-0.281
		c0.268,0,0.458,0.084,0.572,0.254c0.115,0.169,0.171,0.401,0.171,0.696V79.379z"/>
	<path fill="#FF68A1" d="M81.557,80.385c-0.084-0.118-0.125-0.318-0.125-0.592v-8.833h-4.064v2.082
		c0.119,0.072,0.215,0.17,0.289,0.295c0.072,0.124,0.109,0.316,0.109,0.572v5.856c0,0.185-0.021,0.358-0.068,0.52
		c-0.074,0.167-0.184,0.293-0.33,0.373v2.082h4.465v-2.082C81.758,80.606,81.666,80.513,81.557,80.385z"/>
	<path fill="#FF68A1" d="M90.373,76.551c0.568-0.235,0.941-0.521,1.115-0.852c0.092-0.164,0.166-0.318,0.221-0.454
		c0.055-0.137,0.096-0.272,0.125-0.393c0.027-0.124,0.047-0.25,0.053-0.379c0.01-0.129,0.016-0.273,0.016-0.427
		c0-1.093-0.373-1.926-1.115-2.487c-0.744-0.565-1.781-0.848-3.1-0.848c-0.977,0-1.834,0.12-2.57,0.357
		c-0.74,0.239-1.357,0.553-1.854,0.938v2.866h3.512v-0.387c0-0.292,0.043-0.574,0.127-0.838c0.088-0.257,0.277-0.386,0.562-0.386
		c0.211-0.02,0.387,0.054,0.525,0.214c0.137,0.159,0.221,0.446,0.246,0.862c0.027,0.336-0.045,0.608-0.219,0.813
		c-0.166,0.227-0.594,0.344-1.281,0.344h-1.062v2.342h1.197c0.615,0,1.018,0.126,1.201,0.37c0.174,0.232,0.262,0.563,0.262,0.991
		c0,0.416-0.074,0.724-0.223,0.926c-0.129,0.211-0.344,0.316-0.646,0.316c-0.238,0-0.412-0.102-0.523-0.304
		c-0.109-0.202-0.166-0.482-0.166-0.841v-0.853h-3.566v3.279c0.523,0.413,1.135,0.722,1.838,0.927
		c0.701,0.207,1.529,0.312,2.477,0.312c1.791,0,2.914-0.262,3.371-0.785c0.48-0.53,0.777-1.001,0.898-1.407
		c0.135-0.414,0.205-0.88,0.205-1.405c0-0.861-0.162-1.511-0.484-1.941C91.191,76.989,90.812,76.7,90.373,76.551z"/>
	<path fill="#BD6AB4" d="M52.238,63.689c-0.04-0.159-0.055-0.501-0.049-1.025c0.009-0.347-0.062-0.637-0.213-0.874
		c-0.153-0.235-0.452-0.4-0.898-0.494v-0.035c0.573-0.168,0.934-0.465,1.083-0.886c0.148-0.423,0.209-0.788,0.188-1.1
		c-0.04-0.974-0.332-1.599-0.875-1.878c-0.548-0.277-1.109-0.4-1.69-0.367h-4.103v1.5c0.118,0.08,0.198,0.176,0.234,0.287
		c0.038,0.113,0.053,0.26,0.051,0.44v4.115c0.002,0.178-0.016,0.315-0.06,0.412c-0.045,0.098-0.12,0.183-0.226,0.254v1.494h3.217
		v-1.494c-0.116-0.081-0.193-0.174-0.233-0.284c-0.041-0.105-0.059-0.25-0.054-0.436v-1.1c0.383-0.007,0.636,0.069,0.756,0.226
		c0.117,0.159,0.168,0.429,0.157,0.807c0,0.09-0.003,0.191-0.006,0.308c-0.002,0.113-0.002,0.216-0.002,0.299
		c-0.007,0.168,0.001,0.415,0.018,0.74c0.016,0.325,0.062,0.637,0.141,0.934h2.843v-1.494
		C52.371,63.967,52.275,63.851,52.238,63.689z M49.464,60.322c-0.122,0.142-0.307,0.209-0.557,0.205h-0.295v-1.751h0.267
		c0.262-0.001,0.456,0.062,0.58,0.191c0.126,0.132,0.187,0.353,0.187,0.664C49.646,59.952,49.585,60.181,49.464,60.322z"/>
	<path fill="#BD6AB4" d="M58.935,64.949c0.269-0.27,0.452-0.578,0.549-0.92c0.102-0.344,0.145-0.719,0.141-1.125v-3.769
		c0.003-0.174,0.036-0.306,0.102-0.397c0.063-0.088,0.137-0.16,0.225-0.207v-1.5h-3.074v1.507c0.071,0.031,0.141,0.094,0.209,0.191
		c0.068,0.096,0.105,0.269,0.111,0.518v3.936c0,0.233-0.043,0.405-0.131,0.516c-0.088,0.113-0.223,0.168-0.409,0.168
		c-0.163,0-0.293-0.051-0.385-0.154c-0.092-0.104-0.138-0.269-0.138-0.493v-4.086c0.003-0.184,0.037-0.319,0.094-0.409
		c0.06-0.088,0.124-0.155,0.191-0.195v-1.5h-3.218v1.5c0.081,0.05,0.148,0.122,0.204,0.214c0.051,0.094,0.08,0.22,0.083,0.381v3.739
		c0.003,0.552,0.064,0.987,0.181,1.305c0.119,0.317,0.283,0.575,0.494,0.773c0.273,0.277,0.601,0.472,0.983,0.583
		c0.379,0.113,0.856,0.168,1.434,0.168c0.587-0.004,1.069-0.067,1.439-0.19C58.394,65.379,58.698,65.195,58.935,64.949z"/>
	<path fill="#BD6AB4" d="M67.059,61.756c-0.24-0.358-0.609-0.572-1.11-0.639v-0.035c0.38-0.09,0.696-0.285,0.944-0.582
		c0.246-0.299,0.375-0.736,0.384-1.316c-0.002-0.754-0.208-1.303-0.617-1.647c-0.41-0.346-1.005-0.513-1.78-0.506H60.6v1.5
		c0.118,0.055,0.203,0.136,0.254,0.245c0.055,0.107,0.078,0.275,0.078,0.501v4.014c0.008,0.168-0.008,0.314-0.045,0.439
		c-0.04,0.125-0.136,0.229-0.287,0.31v1.494h4.325c0.928-0.011,1.579-0.237,1.949-0.673c0.369-0.439,0.548-1.018,0.536-1.739
		C67.412,62.57,67.295,62.115,67.059,61.756z M63.579,58.786c0.341-0.011,0.604,0.027,0.79,0.122
		c0.186,0.094,0.28,0.312,0.281,0.653c-0.001,0.361-0.1,0.583-0.292,0.667c-0.192,0.085-0.452,0.118-0.779,0.103V58.786z
		 M64.428,63.623c-0.182,0.118-0.464,0.17-0.849,0.157v-1.857c0.38-0.014,0.66,0.036,0.843,0.148
		c0.182,0.111,0.274,0.366,0.274,0.762C64.7,63.242,64.61,63.504,64.428,63.623z"/>
	<path fill="#BD6AB4" d="M68.072,58.725c0.069,0.081,0.137,0.205,0.207,0.371l1.6,3.272v1.102c0,0.117-0.022,0.226-0.071,0.325
		c-0.049,0.1-0.121,0.182-0.214,0.243v1.494h3.219v-1.494c-0.088-0.056-0.157-0.13-0.21-0.224c-0.051-0.094-0.079-0.22-0.079-0.383
		v-1.252l1.73-3.349c0.049-0.081,0.101-0.142,0.149-0.182c0.047-0.04,0.099-0.08,0.149-0.119v-1.5H71.89v1.165
		c-0.005,0.264-0.052,0.522-0.143,0.772c-0.091,0.253-0.207,0.494-0.348,0.726h-0.021c-0.115-0.205-0.222-0.427-0.32-0.672
		c-0.097-0.245-0.149-0.517-0.156-0.817V57.03H67.87v1.5C67.935,58.58,68.001,58.647,68.072,58.725z"/>
	<path fill="#BD6AB4" d="M81.891,63.818c-0.047-0.042-0.098-0.104-0.146-0.185c-0.051-0.083-0.125-0.221-0.225-0.418
		c-0.098-0.195-0.242-0.48-0.426-0.855c-0.188-0.375-0.438-0.873-0.746-1.496l1.145-1.835c0.076-0.145,0.158-0.252,0.246-0.317
		c0.084-0.068,0.184-0.127,0.297-0.182v-1.5h-2.871v1.411c0,0.09-0.02,0.188-0.059,0.291c-0.041,0.105-0.098,0.23-0.178,0.379
		c-0.078,0.147-0.189,0.331-0.328,0.545c-0.139,0.216-0.311,0.488-0.518,0.815v-1.337c0.004-0.174,0.029-0.304,0.088-0.394
		c0.051-0.09,0.123-0.16,0.201-0.21v-1.5h-3.22v1.5c0.079,0.047,0.147,0.119,0.2,0.216c0.054,0.1,0.081,0.226,0.084,0.379v4.247
		c0,0.189-0.023,0.331-0.071,0.428c-0.051,0.096-0.119,0.176-0.213,0.238v1.494h3.22v-1.494c-0.09-0.062-0.16-0.14-0.213-0.23
		c-0.051-0.093-0.076-0.229-0.076-0.407v-1.552h0.039c0.143,0.31,0.279,0.584,0.404,0.821c0.129,0.235,0.24,0.45,0.338,0.639
		c0.098,0.188,0.17,0.369,0.215,0.543c0.051,0.176,0.08,0.36,0.086,0.555v1.125h3.031v-1.494c-0.033-0.02-0.076-0.048-0.135-0.086
		C82.002,63.916,81.945,63.872,81.891,63.818z"/>
	<path fill="#BD6AB4" d="M85.309,64.038c-0.119-0.041-0.207-0.098-0.264-0.176c-0.057-0.08-0.088-0.174-0.088-0.281
		c0-0.048,0.006-0.096,0.014-0.142c0.008-0.048,0.018-0.09,0.023-0.13h1.285c0.016,0.04,0.027,0.078,0.037,0.117
		c0.006,0.04,0.012,0.082,0.012,0.13c0,0.105-0.023,0.199-0.068,0.286c-0.047,0.086-0.127,0.149-0.238,0.187v1.504h3.338v-1.494
		c-0.096-0.048-0.176-0.117-0.236-0.201c-0.062-0.086-0.121-0.245-0.18-0.481l-1.271-6.326h-3.77l-1.123,6.032
		c-0.064,0.355-0.127,0.594-0.189,0.713c-0.061,0.122-0.131,0.21-0.211,0.262v1.494h2.93V64.038z M85.584,59.125h0.029l0.436,2.535
		h-0.881"/>
	<path fill="#BD6AB4" d="M89.83,58.53c0.082,0.047,0.148,0.119,0.205,0.216c0.049,0.1,0.078,0.226,0.082,0.379v4.247
		c0,0.184-0.021,0.325-0.066,0.425c-0.047,0.1-0.119,0.18-0.221,0.241v1.494h3.219v-1.494c-0.086-0.062-0.156-0.14-0.207-0.23
		c-0.055-0.093-0.08-0.229-0.08-0.407v-4.267c0.004-0.174,0.033-0.304,0.084-0.394c0.057-0.09,0.121-0.16,0.203-0.21v-1.5H89.83
		V58.53z"/>
	<path fill="#BD6AB4" d="M93.787,59.335v3.708c0,0.459,0.053,0.843,0.162,1.153c0.107,0.31,0.277,0.578,0.502,0.802
		c0.25,0.256,0.562,0.434,0.939,0.538c0.375,0.105,0.875,0.157,1.498,0.157c0.773-0.005,1.418-0.092,1.932-0.252
		c0.51-0.163,0.914-0.381,1.205-0.66v-4.052h-3.002v1.649h0.461v0.742c0.004,0.237-0.035,0.421-0.115,0.553
		c-0.084,0.134-0.215,0.201-0.406,0.205c-0.182-0.003-0.316-0.061-0.404-0.174c-0.09-0.113-0.133-0.273-0.133-0.482v-3.784
		c0-0.257,0.049-0.444,0.143-0.567c0.094-0.121,0.227-0.182,0.395-0.182c0.16-0.002,0.285,0.053,0.377,0.166
		c0.092,0.117,0.141,0.299,0.145,0.548v0.578h2.541v-2.146c-0.424-0.312-0.904-0.553-1.451-0.721
		c-0.543-0.168-1.15-0.253-1.816-0.253c-0.721-0.024-1.385,0.126-1.994,0.459C94.15,57.65,93.826,58.323,93.787,59.335z"/>
	<path fill="#BD6AB4" d="M103.984,64.038c-0.088-0.062-0.16-0.14-0.211-0.23c-0.049-0.093-0.078-0.229-0.078-0.407v-4.267
		c0.004-0.174,0.033-0.304,0.088-0.394c0.053-0.09,0.121-0.16,0.201-0.21v-1.5h-3.219v1.5c0.078,0.047,0.146,0.119,0.203,0.216
		c0.049,0.1,0.078,0.226,0.084,0.379v4.247c0,0.184-0.023,0.325-0.068,0.425s-0.119,0.18-0.219,0.241v1.494h3.219V64.038z"/>
</g>
</svg>
